  0
SECTION
  2
HEADER
  9
$ACADVER
  1
AC1009
  9
$EXTMIN
 10
0.0
 20
0.0
 30
0.0
  9
$EXTMAX
 10
1000.0
 20
1000.0
 30
0.0
  9
$FILLMODE
 70
 0
  9
$SPLFRAME
 70
 1
  0
ENDSEC
  0
SECTION
  2
TABLES
  0
TABLE
  2
LAYER
 70
1
  0
LAYER
  2
0
 70
     0
 62
     7
  6
CONTINUOUS
  0
ENDTAB
  0
ENDSEC
  0
SECTION
  2
ENTITIES
  0
LINE
  8
0
 62
     0
 10
403.624
 20
142.074
 30
0.0
 11
403.856
 21
142.065
 31
0.0
  0
LINE
  8
0
 62
     0
 10
403.856
 20
142.065
 30
0.0
 11
404.089
 21
142.039
 31
0.0
  0
LINE
  8
0
 62
     0
 10
404.089
 20
142.039
 30
0.0
 11
404.322
 21
141.992
 31
0.0
  0
LINE
  8
0
 62
     0
 10
404.322
 20
141.992
 30
0.0
 11
404.548
 21
141.928
 31
0.0
  0
LINE
  8
0
 62
     0
 10
404.548
 20
141.928
 30
0.0
 11
404.77
 21
141.846
 31
0.0
  0
LINE
  8
0
 62
     0
 10
404.77
 20
141.846
 30
0.0
 11
404.982
 21
141.748
 31
0.0
  0
LINE
  8
0
 62
     0
 10
404.982
 20
141.748
 30
0.0
 11
405.19
 21
141.632
 31
0.0
  0
LINE
  8
0
 62
     0
 10
405.19
 20
141.632
 30
0.0
 11
405.384
 21
141.502
 31
0.0
  0
LINE
  8
0
 62
     0
 10
405.384
 20
141.502
 30
0.0
 11
405.567
 21
141.356
 31
0.0
  0
LINE
  8
0
 62
     0
 10
405.567
 20
141.356
 30
0.0
 11
405.744
 21
141.196
 31
0.0
  0
LINE
  8
0
 62
     0
 10
405.744
 20
141.196
 30
0.0
 11
405.903
 21
141.023
 31
0.0
  0
LINE
  8
0
 62
     0
 10
405.903
 20
141.023
 30
0.0
 11
406.047
 21
140.838
 31
0.0
  0
LINE
  8
0
 62
     0
 10
406.047
 20
140.838
 30
0.0
 11
406.178
 21
140.643
 31
0.0
  0
LINE
  8
0
 62
     0
 10
406.178
 20
140.643
 30
0.0
 11
406.294
 21
140.436
 31
0.0
  0
LINE
  8
0
 62
     0
 10
406.294
 20
140.436
 30
0.0
 11
406.393
 21
140.222
 31
0.0
  0
LINE
  8
0
 62
     0
 10
406.393
 20
140.222
 30
0.0
 11
406.474
 21
140.002
 31
0.0
  0
LINE
  8
0
 62
     0
 10
406.474
 20
140.002
 30
0.0
 11
406.538
 21
139.774
 31
0.0
  0
LINE
  8
0
 62
     0
 10
406.538
 20
139.774
 30
0.0
 11
406.583
 21
139.544
 31
0.0
  0
LINE
  8
0
 62
     0
 10
406.583
 20
139.544
 30
0.0
 11
406.612
 21
139.31
 31
0.0
  0
LINE
  8
0
 62
     0
 10
406.612
 20
139.31
 30
0.0
 11
406.622
 21
139.075
 31
0.0
  0
LINE
  8
0
 62
     0
 10
406.622
 20
139.075
 30
0.0
 11
406.622
 21
3.24804
 31
0.0
  0
LINE
  8
0
 62
     0
 10
406.622
 20
3.24804
 30
0.0
 11
406.612
 21
3.01239
 31
0.0
  0
LINE
  8
0
 62
     0
 10
406.612
 20
3.01239
 30
0.0
 11
406.583
 21
2.7795
 31
0.0
  0
LINE
  8
0
 62
     0
 10
406.583
 20
2.7795
 30
0.0
 11
406.538
 21
2.54799
 31
0.0
  0
LINE
  8
0
 62
     0
 10
406.538
 20
2.54799
 30
0.0
 11
406.474
 21
2.32062
 31
0.0
  0
LINE
  8
0
 62
     0
 10
406.474
 20
2.32062
 30
0.0
 11
406.393
 21
2.10013
 31
0.0
  0
LINE
  8
0
 62
     0
 10
406.393
 20
2.10013
 30
0.0
 11
406.294
 21
1.88654
 31
0.0
  0
LINE
  8
0
 62
     0
 10
406.294
 20
1.88654
 30
0.0
 11
406.178
 21
1.68121
 31
0.0
  0
LINE
  8
0
 62
     0
 10
406.178
 20
1.68121
 30
0.0
 11
406.047
 21
1.48553
 31
0.0
  0
LINE
  8
0
 62
     0
 10
406.047
 20
1.48553
 30
0.0
 11
405.903
 21
1.29949
 31
0.0
  0
LINE
  8
0
 62
     0
 10
405.903
 20
1.29949
 30
0.0
 11
405.744
 21
1.12723
 31
0.0
  0
LINE
  8
0
 62
     0
 10
405.744
 20
1.12723
 30
0.0
 11
405.567
 21
0.967384
 31
0.0
  0
LINE
  8
0
 62
     0
 10
405.567
 20
0.967384
 30
0.0
 11
405.384
 21
0.821313
 31
0.0
  0
LINE
  8
0
 62
     0
 10
405.384
 20
0.821313
 30
0.0
 11
405.19
 21
0.690397
 31
0.0
  0
LINE
  8
0
 62
     0
 10
405.19
 20
0.690397
 30
0.0
 11
404.982
 21
0.574643
 31
0.0
  0
LINE
  8
0
 62
     0
 10
404.982
 20
0.574643
 30
0.0
 11
404.77
 21
0.4768
 31
0.0
  0
LINE
  8
0
 62
     0
 10
404.77
 20
0.4768
 30
0.0
 11
404.548
 21
0.395496
 31
0.0
  0
LINE
  8
0
 62
     0
 10
404.548
 20
0.395496
 30
0.0
 11
404.322
 21
0.330729
 31
0.0
  0
LINE
  8
0
 62
     0
 10
404.322
 20
0.330729
 30
0.0
 11
404.089
 21
0.285254
 31
0.0
  0
LINE
  8
0
 62
     0
 10
404.089
 20
0.285254
 30
0.0
 11
403.856
 21
0.257693
 31
0.0
  0
LINE
  8
0
 62
     0
 10
403.856
 20
0.257693
 30
0.0
 11
403.624
 21
0.248047
 31
0.0
  0
LINE
  8
0
 62
     0
 10
403.624
 20
0.248047
 30
0.0
 11
3.09507
 21
0.248047
 31
0.0
  0
LINE
  8
0
 62
     0
 10
3.09507
 20
0.248047
 30
0.0
 11
2.85943
 21
0.257693
 31
0.0
  0
LINE
  8
0
 62
     0
 10
2.85943
 20
0.257693
 30
0.0
 11
2.62516
 21
0.285254
 31
0.0
  0
LINE
  8
0
 62
     0
 10
2.62516
 20
0.285254
 30
0.0
 11
2.39503
 21
0.330729
 31
0.0
  0
LINE
  8
0
 62
     0
 10
2.39503
 20
0.330729
 30
0.0
 11
2.16765
 21
0.395496
 31
0.0
  0
LINE
  8
0
 62
     0
 10
2.16765
 20
0.395496
 30
0.0
 11
1.94717
 21
0.4768
 31
0.0
  0
LINE
  8
0
 62
     0
 10
1.94717
 20
0.4768
 30
0.0
 11
1.73357
 21
0.574643
 31
0.0
  0
LINE
  8
0
 62
     0
 10
1.73357
 20
0.574643
 30
0.0
 11
1.52687
 21
0.690397
 31
0.0
  0
LINE
  8
0
 62
     0
 10
1.52687
 20
0.690397
 30
0.0
 11
1.33119
 21
0.821313
 31
0.0
  0
LINE
  8
0
 62
     0
 10
1.33119
 20
0.821313
 30
0.0
 11
1.14653
 21
0.967384
 31
0.0
  0
LINE
  8
0
 62
     0
 10
1.14653
 20
0.967384
 30
0.0
 11
0.972894
 21
1.12723
 31
0.0
  0
LINE
  8
0
 62
     0
 10
0.972894
 20
1.12723
 30
0.0
 11
0.813043
 21
1.29949
 31
0.0
  0
LINE
  8
0
 62
     0
 10
0.813043
 20
1.29949
 30
0.0
 11
0.666972
 21
1.48553
 31
0.0
  0
LINE
  8
0
 62
     0
 10
0.666972
 20
1.48553
 30
0.0
 11
0.537436
 21
1.68121
 31
0.0
  0
LINE
  8
0
 62
     0
 10
0.537436
 20
1.68121
 30
0.0
 11
0.421679
 21
1.88654
 31
0.0
  0
LINE
  8
0
 62
     0
 10
0.421679
 20
1.88654
 30
0.0
 11
0.323839
 21
2.10013
 31
0.0
  0
LINE
  8
0
 62
     0
 10
0.323839
 20
2.10013
 30
0.0
 11
0.241157
 21
2.32062
 31
0.0
  0
LINE
  8
0
 62
     0
 10
0.241157
 20
2.32062
 30
0.0
 11
0.177767
 21
2.54799
 31
0.0
  0
LINE
  8
0
 62
     0
 10
0.177767
 20
2.54799
 30
0.0
 11
0.130914
 21
2.7795
 31
0.0
  0
LINE
  8
0
 62
     0
 10
0.130914
 20
2.7795
 30
0.0
 11
0.104731
 21
3.01239
 31
0.0
  0
LINE
  8
0
 62
     0
 10
0.104731
 20
3.01239
 30
0.0
 11
0.0950846
 21
3.24942
 31
0.0
  0
LINE
  8
0
 62
     0
 10
0.0950846
 20
3.24942
 30
0.0
 11
0.0950846
 21
139.075
 31
0.0
  0
LINE
  8
0
 62
     0
 10
0.0950846
 20
139.075
 30
0.0
 11
0.104731
 21
139.31
 31
0.0
  0
LINE
  8
0
 62
     0
 10
0.104731
 20
139.31
 30
0.0
 11
0.130914
 21
139.544
 31
0.0
  0
LINE
  8
0
 62
     0
 10
0.130914
 20
139.544
 30
0.0
 11
0.177767
 21
139.774
 31
0.0
  0
LINE
  8
0
 62
     0
 10
0.177767
 20
139.774
 30
0.0
 11
0.241157
 21
140.002
 31
0.0
  0
LINE
  8
0
 62
     0
 10
0.241157
 20
140.002
 30
0.0
 11
0.323839
 21
140.222
 31
0.0
  0
LINE
  8
0
 62
     0
 10
0.323839
 20
140.222
 30
0.0
 11
0.421679
 21
140.436
 31
0.0
  0
LINE
  8
0
 62
     0
 10
0.421679
 20
140.436
 30
0.0
 11
0.537436
 21
140.643
 31
0.0
  0
LINE
  8
0
 62
     0
 10
0.537436
 20
140.643
 30
0.0
 11
0.666972
 21
140.838
 31
0.0
  0
LINE
  8
0
 62
     0
 10
0.666972
 20
140.838
 30
0.0
 11
0.813043
 21
141.023
 31
0.0
  0
LINE
  8
0
 62
     0
 10
0.813043
 20
141.023
 30
0.0
 11
0.972894
 21
141.196
 31
0.0
  0
LINE
  8
0
 62
     0
 10
0.972894
 20
141.196
 30
0.0
 11
1.14653
 21
141.356
 31
0.0
  0
LINE
  8
0
 62
     0
 10
1.14653
 20
141.356
 30
0.0
 11
1.33119
 21
141.502
 31
0.0
  0
LINE
  8
0
 62
     0
 10
1.33119
 20
141.502
 30
0.0
 11
1.52687
 21
141.632
 31
0.0
  0
LINE
  8
0
 62
     0
 10
1.52687
 20
141.632
 30
0.0
 11
1.73357
 21
141.748
 31
0.0
  0
LINE
  8
0
 62
     0
 10
1.73357
 20
141.748
 30
0.0
 11
1.94717
 21
141.846
 31
0.0
  0
LINE
  8
0
 62
     0
 10
1.94717
 20
141.846
 30
0.0
 11
2.16765
 21
141.928
 31
0.0
  0
LINE
  8
0
 62
     0
 10
2.16765
 20
141.928
 30
0.0
 11
2.39503
 21
141.992
 31
0.0
  0
LINE
  8
0
 62
     0
 10
2.39503
 20
141.992
 30
0.0
 11
2.62516
 21
142.039
 31
0.0
  0
LINE
  8
0
 62
     0
 10
2.62516
 20
142.039
 30
0.0
 11
2.85943
 21
142.065
 31
0.0
  0
LINE
  8
0
 62
     0
 10
2.85943
 20
142.065
 30
0.0
 11
3.09507
 21
142.074
 31
0.0
  0
LINE
  8
0
 62
     0
 10
3.09507
 20
142.074
 30
0.0
 11
403.624
 21
142.074
 31
0.0
  0
LINE
  8
0
 62
     0
 10
401.655
 20
6.17499
 30
0.0
 11
401.239
 21
5.96138
 31
0.0
  0
LINE
  8
0
 62
     0
 10
401.239
 20
5.96138
 30
0.0
 11
400.907
 21
5.62927
 31
0.0
  0
LINE
  8
0
 62
     0
 10
400.907
 20
5.62927
 30
0.0
 11
400.696
 21
5.21173
 31
0.0
  0
LINE
  8
0
 62
     0
 10
400.696
 20
5.21173
 30
0.0
 11
400.621
 21
4.74733
 31
0.0
  0
LINE
  8
0
 62
     0
 10
400.621
 20
4.74733
 30
0.0
 11
400.696
 21
4.28431
 31
0.0
  0
LINE
  8
0
 62
     0
 10
400.696
 20
4.28431
 30
0.0
 11
400.907
 21
3.86676
 31
0.0
  0
LINE
  8
0
 62
     0
 10
400.907
 20
3.86676
 30
0.0
 11
401.239
 21
3.53466
 31
0.0
  0
LINE
  8
0
 62
     0
 10
401.239
 20
3.53466
 30
0.0
 11
401.655
 21
3.32245
 31
0.0
  0
LINE
  8
0
 62
     0
 10
401.655
 20
3.32245
 30
0.0
 11
402.121
 21
3.24804
 31
0.0
  0
LINE
  8
0
 62
     0
 10
402.121
 20
3.24804
 30
0.0
 11
402.583
 21
3.32245
 31
0.0
  0
LINE
  8
0
 62
     0
 10
402.583
 20
3.32245
 30
0.0
 11
403.003
 21
3.53466
 31
0.0
  0
LINE
  8
0
 62
     0
 10
403.003
 20
3.53466
 30
0.0
 11
403.334
 21
3.86676
 31
0.0
  0
LINE
  8
0
 62
     0
 10
403.334
 20
3.86676
 30
0.0
 11
403.546
 21
4.28431
 31
0.0
  0
LINE
  8
0
 62
     0
 10
403.546
 20
4.28431
 30
0.0
 11
403.624
 21
4.74733
 31
0.0
  0
LINE
  8
0
 62
     0
 10
403.624
 20
4.74733
 30
0.0
 11
403.546
 21
5.21173
 31
0.0
  0
LINE
  8
0
 62
     0
 10
403.546
 20
5.21173
 30
0.0
 11
403.334
 21
5.62927
 31
0.0
  0
LINE
  8
0
 62
     0
 10
403.334
 20
5.62927
 30
0.0
 11
403.003
 21
5.96138
 31
0.0
  0
LINE
  8
0
 62
     0
 10
403.003
 20
5.96138
 30
0.0
 11
402.583
 21
6.17499
 31
0.0
  0
LINE
  8
0
 62
     0
 10
402.583
 20
6.17499
 30
0.0
 11
402.121
 21
6.24801
 31
0.0
  0
LINE
  8
0
 62
     0
 10
402.121
 20
6.24801
 30
0.0
 11
401.655
 21
6.17499
 31
0.0
  0
LINE
  8
0
 62
     0
 10
269.149
 20
6.17499
 30
0.0
 11
268.73
 21
5.96138
 31
0.0
  0
LINE
  8
0
 62
     0
 10
268.73
 20
5.96138
 30
0.0
 11
268.399
 21
5.62927
 31
0.0
  0
LINE
  8
0
 62
     0
 10
268.399
 20
5.62927
 30
0.0
 11
268.186
 21
5.21173
 31
0.0
  0
LINE
  8
0
 62
     0
 10
268.186
 20
5.21173
 30
0.0
 11
268.113
 21
4.74733
 31
0.0
  0
LINE
  8
0
 62
     0
 10
268.113
 20
4.74733
 30
0.0
 11
268.186
 21
4.28431
 31
0.0
  0
LINE
  8
0
 62
     0
 10
268.186
 20
4.28431
 30
0.0
 11
268.399
 21
3.86676
 31
0.0
  0
LINE
  8
0
 62
     0
 10
268.399
 20
3.86676
 30
0.0
 11
268.73
 21
3.53466
 31
0.0
  0
LINE
  8
0
 62
     0
 10
268.73
 20
3.53466
 30
0.0
 11
269.149
 21
3.32245
 31
0.0
  0
LINE
  8
0
 62
     0
 10
269.149
 20
3.32245
 30
0.0
 11
269.612
 21
3.24804
 31
0.0
  0
LINE
  8
0
 62
     0
 10
269.612
 20
3.24804
 30
0.0
 11
270.075
 21
3.32245
 31
0.0
  0
LINE
  8
0
 62
     0
 10
270.075
 20
3.32245
 30
0.0
 11
270.495
 21
3.53466
 31
0.0
  0
LINE
  8
0
 62
     0
 10
270.495
 20
3.53466
 30
0.0
 11
270.826
 21
3.86676
 31
0.0
  0
LINE
  8
0
 62
     0
 10
270.826
 20
3.86676
 30
0.0
 11
271.038
 21
4.28431
 31
0.0
  0
LINE
  8
0
 62
     0
 10
271.038
 20
4.28431
 30
0.0
 11
271.113
 21
4.74733
 31
0.0
  0
LINE
  8
0
 62
     0
 10
271.113
 20
4.74733
 30
0.0
 11
271.038
 21
5.21173
 31
0.0
  0
LINE
  8
0
 62
     0
 10
271.038
 20
5.21173
 30
0.0
 11
270.826
 21
5.62927
 31
0.0
  0
LINE
  8
0
 62
     0
 10
270.826
 20
5.62927
 30
0.0
 11
270.495
 21
5.96138
 31
0.0
  0
LINE
  8
0
 62
     0
 10
270.495
 20
5.96138
 30
0.0
 11
270.075
 21
6.17499
 31
0.0
  0
LINE
  8
0
 62
     0
 10
270.075
 20
6.17499
 30
0.0
 11
269.612
 21
6.24801
 31
0.0
  0
LINE
  8
0
 62
     0
 10
269.612
 20
6.24801
 30
0.0
 11
269.149
 21
6.17499
 31
0.0
  0
LINE
  8
0
 62
     0
 10
136.641
 20
6.17499
 30
0.0
 11
136.222
 21
5.96138
 31
0.0
  0
LINE
  8
0
 62
     0
 10
136.222
 20
5.96138
 30
0.0
 11
135.891
 21
5.62927
 31
0.0
  0
LINE
  8
0
 62
     0
 10
135.891
 20
5.62927
 30
0.0
 11
135.678
 21
5.21173
 31
0.0
  0
LINE
  8
0
 62
     0
 10
135.678
 20
5.21173
 30
0.0
 11
135.603
 21
4.74733
 31
0.0
  0
LINE
  8
0
 62
     0
 10
135.603
 20
4.74733
 30
0.0
 11
135.678
 21
4.28431
 31
0.0
  0
LINE
  8
0
 62
     0
 10
135.678
 20
4.28431
 30
0.0
 11
135.891
 21
3.86676
 31
0.0
  0
LINE
  8
0
 62
     0
 10
135.891
 20
3.86676
 30
0.0
 11
136.222
 21
3.53466
 31
0.0
  0
LINE
  8
0
 62
     0
 10
136.222
 20
3.53466
 30
0.0
 11
136.641
 21
3.32245
 31
0.0
  0
LINE
  8
0
 62
     0
 10
136.641
 20
3.32245
 30
0.0
 11
137.104
 21
3.24804
 31
0.0
  0
LINE
  8
0
 62
     0
 10
137.104
 20
3.24804
 30
0.0
 11
137.567
 21
3.32245
 31
0.0
  0
LINE
  8
0
 62
     0
 10
137.567
 20
3.32245
 30
0.0
 11
137.986
 21
3.53466
 31
0.0
  0
LINE
  8
0
 62
     0
 10
137.986
 20
3.53466
 30
0.0
 11
138.318
 21
3.86676
 31
0.0
  0
LINE
  8
0
 62
     0
 10
138.318
 20
3.86676
 30
0.0
 11
138.53
 21
4.28431
 31
0.0
  0
LINE
  8
0
 62
     0
 10
138.53
 20
4.28431
 30
0.0
 11
138.603
 21
4.74733
 31
0.0
  0
LINE
  8
0
 62
     0
 10
138.603
 20
4.74733
 30
0.0
 11
138.53
 21
5.21173
 31
0.0
  0
LINE
  8
0
 62
     0
 10
138.53
 20
5.21173
 30
0.0
 11
138.318
 21
5.62927
 31
0.0
  0
LINE
  8
0
 62
     0
 10
138.318
 20
5.62927
 30
0.0
 11
137.986
 21
5.96138
 31
0.0
  0
LINE
  8
0
 62
     0
 10
137.986
 20
5.96138
 30
0.0
 11
137.567
 21
6.17499
 31
0.0
  0
LINE
  8
0
 62
     0
 10
137.567
 20
6.17499
 30
0.0
 11
137.104
 21
6.24801
 31
0.0
  0
LINE
  8
0
 62
     0
 10
137.104
 20
6.24801
 30
0.0
 11
136.641
 21
6.17499
 31
0.0
  0
LINE
  8
0
 62
     0
 10
4.13135
 20
6.17499
 30
0.0
 11
3.7138
 21
5.96138
 31
0.0
  0
LINE
  8
0
 62
     0
 10
3.7138
 20
5.96138
 30
0.0
 11
3.38171
 21
5.62927
 31
0.0
  0
LINE
  8
0
 62
     0
 10
3.38171
 20
5.62927
 30
0.0
 11
3.16811
 21
5.21173
 31
0.0
  0
LINE
  8
0
 62
     0
 10
3.16811
 20
5.21173
 30
0.0
 11
3.09507
 21
4.74733
 31
0.0
  0
LINE
  8
0
 62
     0
 10
3.09507
 20
4.74733
 30
0.0
 11
3.16811
 21
4.28431
 31
0.0
  0
LINE
  8
0
 62
     0
 10
3.16811
 20
4.28431
 30
0.0
 11
3.38171
 21
3.86676
 31
0.0
  0
LINE
  8
0
 62
     0
 10
3.38171
 20
3.86676
 30
0.0
 11
3.7138
 21
3.53466
 31
0.0
  0
LINE
  8
0
 62
     0
 10
3.7138
 20
3.53466
 30
0.0
 11
4.13135
 21
3.32245
 31
0.0
  0
LINE
  8
0
 62
     0
 10
4.13135
 20
3.32245
 30
0.0
 11
4.59574
 21
3.24804
 31
0.0
  0
LINE
  8
0
 62
     0
 10
4.59574
 20
3.24804
 30
0.0
 11
5.05876
 21
3.32245
 31
0.0
  0
LINE
  8
0
 62
     0
 10
5.05876
 20
3.32245
 30
0.0
 11
5.47631
 21
3.53466
 31
0.0
  0
LINE
  8
0
 62
     0
 10
5.47631
 20
3.53466
 30
0.0
 11
5.80842
 21
3.86676
 31
0.0
  0
LINE
  8
0
 62
     0
 10
5.80842
 20
3.86676
 30
0.0
 11
6.02202
 21
4.28431
 31
0.0
  0
LINE
  8
0
 62
     0
 10
6.02202
 20
4.28431
 30
0.0
 11
6.09505
 21
4.74733
 31
0.0
  0
LINE
  8
0
 62
     0
 10
6.09505
 20
4.74733
 30
0.0
 11
6.02202
 21
5.21173
 31
0.0
  0
LINE
  8
0
 62
     0
 10
6.02202
 20
5.21173
 30
0.0
 11
5.80842
 21
5.62927
 31
0.0
  0
LINE
  8
0
 62
     0
 10
5.80842
 20
5.62927
 30
0.0
 11
5.47631
 21
5.96138
 31
0.0
  0
LINE
  8
0
 62
     0
 10
5.47631
 20
5.96138
 30
0.0
 11
5.05876
 21
6.17499
 31
0.0
  0
LINE
  8
0
 62
     0
 10
5.05876
 20
6.17499
 30
0.0
 11
4.59574
 21
6.24801
 31
0.0
  0
LINE
  8
0
 62
     0
 10
4.59574
 20
6.24801
 30
0.0
 11
4.13135
 21
6.17499
 31
0.0
  0
LINE
  8
0
 62
     0
 10
8.09597
 20
133.074
 30
0.0
 11
398.621
 21
133.074
 31
0.0
  0
LINE
  8
0
 62
     0
 10
398.621
 20
133.074
 30
0.0
 11
398.621
 21
9.248
 31
0.0
  0
LINE
  8
0
 62
     0
 10
398.621
 20
9.248
 30
0.0
 11
8.09597
 21
9.248
 31
0.0
  0
LINE
  8
0
 62
     0
 10
8.09597
 20
9.248
 30
0.0
 11
8.09597
 21
133.074
 31
0.0
  0
LINE
  8
0
 62
     0
 10
401.655
 20
139.001
 30
0.0
 11
401.239
 21
138.788
 31
0.0
  0
LINE
  8
0
 62
     0
 10
401.239
 20
138.788
 30
0.0
 11
400.907
 21
138.456
 31
0.0
  0
LINE
  8
0
 62
     0
 10
400.907
 20
138.456
 30
0.0
 11
400.696
 21
138.038
 31
0.0
  0
LINE
  8
0
 62
     0
 10
400.696
 20
138.038
 30
0.0
 11
400.621
 21
137.574
 31
0.0
  0
LINE
  8
0
 62
     0
 10
400.621
 20
137.574
 30
0.0
 11
400.696
 21
137.111
 31
0.0
  0
LINE
  8
0
 62
     0
 10
400.696
 20
137.111
 30
0.0
 11
400.907
 21
136.693
 31
0.0
  0
LINE
  8
0
 62
     0
 10
400.907
 20
136.693
 30
0.0
 11
401.239
 21
136.361
 31
0.0
  0
LINE
  8
0
 62
     0
 10
401.239
 20
136.361
 30
0.0
 11
401.655
 21
136.148
 31
0.0
  0
LINE
  8
0
 62
     0
 10
401.655
 20
136.148
 30
0.0
 11
402.121
 21
136.075
 31
0.0
  0
LINE
  8
0
 62
     0
 10
402.121
 20
136.075
 30
0.0
 11
402.583
 21
136.148
 31
0.0
  0
LINE
  8
0
 62
     0
 10
402.583
 20
136.148
 30
0.0
 11
403.003
 21
136.361
 31
0.0
  0
LINE
  8
0
 62
     0
 10
403.003
 20
136.361
 30
0.0
 11
403.334
 21
136.693
 31
0.0
  0
LINE
  8
0
 62
     0
 10
403.334
 20
136.693
 30
0.0
 11
403.546
 21
137.111
 31
0.0
  0
LINE
  8
0
 62
     0
 10
403.546
 20
137.111
 30
0.0
 11
403.624
 21
137.574
 31
0.0
  0
LINE
  8
0
 62
     0
 10
403.624
 20
137.574
 30
0.0
 11
403.546
 21
138.038
 31
0.0
  0
LINE
  8
0
 62
     0
 10
403.546
 20
138.038
 30
0.0
 11
403.334
 21
138.456
 31
0.0
  0
LINE
  8
0
 62
     0
 10
403.334
 20
138.456
 30
0.0
 11
403.003
 21
138.788
 31
0.0
  0
LINE
  8
0
 62
     0
 10
403.003
 20
138.788
 30
0.0
 11
402.583
 21
139.001
 31
0.0
  0
LINE
  8
0
 62
     0
 10
402.583
 20
139.001
 30
0.0
 11
402.121
 21
139.075
 31
0.0
  0
LINE
  8
0
 62
     0
 10
402.121
 20
139.075
 30
0.0
 11
401.655
 21
139.001
 31
0.0
  0
LINE
  8
0
 62
     0
 10
269.149
 20
139.001
 30
0.0
 11
268.73
 21
138.788
 31
0.0
  0
LINE
  8
0
 62
     0
 10
268.73
 20
138.788
 30
0.0
 11
268.399
 21
138.456
 31
0.0
  0
LINE
  8
0
 62
     0
 10
268.399
 20
138.456
 30
0.0
 11
268.186
 21
138.038
 31
0.0
  0
LINE
  8
0
 62
     0
 10
268.186
 20
138.038
 30
0.0
 11
268.113
 21
137.574
 31
0.0
  0
LINE
  8
0
 62
     0
 10
268.113
 20
137.574
 30
0.0
 11
268.186
 21
137.111
 31
0.0
  0
LINE
  8
0
 62
     0
 10
268.186
 20
137.111
 30
0.0
 11
268.399
 21
136.693
 31
0.0
  0
LINE
  8
0
 62
     0
 10
268.399
 20
136.693
 30
0.0
 11
268.73
 21
136.361
 31
0.0
  0
LINE
  8
0
 62
     0
 10
268.73
 20
136.361
 30
0.0
 11
269.149
 21
136.148
 31
0.0
  0
LINE
  8
0
 62
     0
 10
269.149
 20
136.148
 30
0.0
 11
269.612
 21
136.075
 31
0.0
  0
LINE
  8
0
 62
     0
 10
269.612
 20
136.075
 30
0.0
 11
270.075
 21
136.148
 31
0.0
  0
LINE
  8
0
 62
     0
 10
270.075
 20
136.148
 30
0.0
 11
270.495
 21
136.361
 31
0.0
  0
LINE
  8
0
 62
     0
 10
270.495
 20
136.361
 30
0.0
 11
270.826
 21
136.693
 31
0.0
  0
LINE
  8
0
 62
     0
 10
270.826
 20
136.693
 30
0.0
 11
271.038
 21
137.111
 31
0.0
  0
LINE
  8
0
 62
     0
 10
271.038
 20
137.111
 30
0.0
 11
271.113
 21
137.574
 31
0.0
  0
LINE
  8
0
 62
     0
 10
271.113
 20
137.574
 30
0.0
 11
271.038
 21
138.038
 31
0.0
  0
LINE
  8
0
 62
     0
 10
271.038
 20
138.038
 30
0.0
 11
270.826
 21
138.456
 31
0.0
  0
LINE
  8
0
 62
     0
 10
270.826
 20
138.456
 30
0.0
 11
270.495
 21
138.788
 31
0.0
  0
LINE
  8
0
 62
     0
 10
270.495
 20
138.788
 30
0.0
 11
270.075
 21
139.001
 31
0.0
  0
LINE
  8
0
 62
     0
 10
270.075
 20
139.001
 30
0.0
 11
269.612
 21
139.075
 31
0.0
  0
LINE
  8
0
 62
     0
 10
269.612
 20
139.075
 30
0.0
 11
269.149
 21
139.001
 31
0.0
  0
LINE
  8
0
 62
     0
 10
136.641
 20
139.001
 30
0.0
 11
136.222
 21
138.788
 31
0.0
  0
LINE
  8
0
 62
     0
 10
136.222
 20
138.788
 30
0.0
 11
135.891
 21
138.456
 31
0.0
  0
LINE
  8
0
 62
     0
 10
135.891
 20
138.456
 30
0.0
 11
135.678
 21
138.038
 31
0.0
  0
LINE
  8
0
 62
     0
 10
135.678
 20
138.038
 30
0.0
 11
135.603
 21
137.574
 31
0.0
  0
LINE
  8
0
 62
     0
 10
135.603
 20
137.574
 30
0.0
 11
135.678
 21
137.111
 31
0.0
  0
LINE
  8
0
 62
     0
 10
135.678
 20
137.111
 30
0.0
 11
135.891
 21
136.693
 31
0.0
  0
LINE
  8
0
 62
     0
 10
135.891
 20
136.693
 30
0.0
 11
136.222
 21
136.361
 31
0.0
  0
LINE
  8
0
 62
     0
 10
136.222
 20
136.361
 30
0.0
 11
136.641
 21
136.148
 31
0.0
  0
LINE
  8
0
 62
     0
 10
136.641
 20
136.148
 30
0.0
 11
137.104
 21
136.075
 31
0.0
  0
LINE
  8
0
 62
     0
 10
137.104
 20
136.075
 30
0.0
 11
137.567
 21
136.148
 31
0.0
  0
LINE
  8
0
 62
     0
 10
137.567
 20
136.148
 30
0.0
 11
137.986
 21
136.361
 31
0.0
  0
LINE
  8
0
 62
     0
 10
137.986
 20
136.361
 30
0.0
 11
138.318
 21
136.693
 31
0.0
  0
LINE
  8
0
 62
     0
 10
138.318
 20
136.693
 30
0.0
 11
138.53
 21
137.111
 31
0.0
  0
LINE
  8
0
 62
     0
 10
138.53
 20
137.111
 30
0.0
 11
138.603
 21
137.574
 31
0.0
  0
LINE
  8
0
 62
     0
 10
138.603
 20
137.574
 30
0.0
 11
138.53
 21
138.038
 31
0.0
  0
LINE
  8
0
 62
     0
 10
138.53
 20
138.038
 30
0.0
 11
138.318
 21
138.456
 31
0.0
  0
LINE
  8
0
 62
     0
 10
138.318
 20
138.456
 30
0.0
 11
137.986
 21
138.788
 31
0.0
  0
LINE
  8
0
 62
     0
 10
137.986
 20
138.788
 30
0.0
 11
137.567
 21
139.001
 31
0.0
  0
LINE
  8
0
 62
     0
 10
137.567
 20
139.001
 30
0.0
 11
137.104
 21
139.075
 31
0.0
  0
LINE
  8
0
 62
     0
 10
137.104
 20
139.075
 30
0.0
 11
136.641
 21
139.001
 31
0.0
  0
LINE
  8
0
 62
     0
 10
4.13135
 20
139.001
 30
0.0
 11
3.7138
 21
138.788
 31
0.0
  0
LINE
  8
0
 62
     0
 10
3.7138
 20
138.788
 30
0.0
 11
3.38171
 21
138.456
 31
0.0
  0
LINE
  8
0
 62
     0
 10
3.38171
 20
138.456
 30
0.0
 11
3.16811
 21
138.038
 31
0.0
  0
LINE
  8
0
 62
     0
 10
3.16811
 20
138.038
 30
0.0
 11
3.09507
 21
137.574
 31
0.0
  0
LINE
  8
0
 62
     0
 10
3.09507
 20
137.574
 30
0.0
 11
3.16811
 21
137.111
 31
0.0
  0
LINE
  8
0
 62
     0
 10
3.16811
 20
137.111
 30
0.0
 11
3.38171
 21
136.693
 31
0.0
  0
LINE
  8
0
 62
     0
 10
3.38171
 20
136.693
 30
0.0
 11
3.7138
 21
136.361
 31
0.0
  0
LINE
  8
0
 62
     0
 10
3.7138
 20
136.361
 30
0.0
 11
4.13135
 21
136.148
 31
0.0
  0
LINE
  8
0
 62
     0
 10
4.13135
 20
136.148
 30
0.0
 11
4.59574
 21
136.075
 31
0.0
  0
LINE
  8
0
 62
     0
 10
4.59574
 20
136.075
 30
0.0
 11
5.05876
 21
136.148
 31
0.0
  0
LINE
  8
0
 62
     0
 10
5.05876
 20
136.148
 30
0.0
 11
5.47631
 21
136.361
 31
0.0
  0
LINE
  8
0
 62
     0
 10
5.47631
 20
136.361
 30
0.0
 11
5.80842
 21
136.693
 31
0.0
  0
LINE
  8
0
 62
     0
 10
5.80842
 20
136.693
 30
0.0
 11
6.02202
 21
137.111
 31
0.0
  0
LINE
  8
0
 62
     0
 10
6.02202
 20
137.111
 30
0.0
 11
6.09505
 21
137.574
 31
0.0
  0
LINE
  8
0
 62
     0
 10
6.09505
 20
137.574
 30
0.0
 11
6.02202
 21
138.038
 31
0.0
  0
LINE
  8
0
 62
     0
 10
6.02202
 20
138.038
 30
0.0
 11
5.80842
 21
138.456
 31
0.0
  0
LINE
  8
0
 62
     0
 10
5.80842
 20
138.456
 30
0.0
 11
5.47631
 21
138.788
 31
0.0
  0
LINE
  8
0
 62
     0
 10
5.47631
 20
138.788
 30
0.0
 11
5.05876
 21
139.001
 31
0.0
  0
LINE
  8
0
 62
     0
 10
5.05876
 20
139.001
 30
0.0
 11
4.59574
 21
139.075
 31
0.0
  0
LINE
  8
0
 62
     0
 10
4.59574
 20
139.075
 30
0.0
 11
4.13135
 21
139.001
 31
0.0
  0
ENDSEC
  0
EOF
