  0
SECTION
  2
HEADER
  9
$ACADVER
  1
AC1032
  9
$ACADMAINTVER
 90
      158
  9
$DWGCODEPAGE
  3
ANSI_1252
  9
$LASTSAVEDBY
  1
Carlos
  9
$REQUIREDVERSIONS
160
                 0
  9
$INSBASE
 10
0.0
 20
0.0
 30
0.0
  9
$EXTMIN
 10
-93.98011370996318
 20
115.3281084069181
 30
0.0
  9
$EXTMAX
 10
752.5289078647347
 20
466.526536537103
 30
0.0
  9
$LIMMIN
 10
0.0
 20
0.0
  9
$LIMMAX
 10
12.0
 20
9.0
  9
$ORTHOMODE
 70
     0
  9
$REGENMODE
 70
     1
  9
$FILLMODE
 70
     0
  9
$QTEXTMODE
 70
     0
  9
$MIRRTEXT
 70
     0
  9
$LTSCALE
 40
1.0
  9
$ATTMODE
 70
     1
  9
$TEXTSIZE
 40
0.2
  9
$TRACEWID
 40
0.05
  9
$TEXTSTYLE
  7
Standard
  9
$CLAYER
  8
0
  9
$CELTYPE
  6
Continuous
  9
$CECOLOR
 62
   256
  9
$CELTSCALE
 40
1.0
  9
$DISPSILH
 70
     0
  9
$DIMSCALE
 40
1.0
  9
$DIMASZ
 40
0.18
  9
$DIMEXO
 40
0.0625
  9
$DIMDLI
 40
0.38
  9
$DIMRND
 40
0.0
  9
$DIMDLE
 40
0.0
  9
$DIMEXE
 40
0.18
  9
$DIMTP
 40
0.0
  9
$DIMTM
 40
0.0
  9
$DIMTXT
 40
0.18
  9
$DIMCEN
 40
0.09
  9
$DIMTSZ
 40
0.0
  9
$DIMTOL
 70
     0
  9
$DIMLIM
 70
     0
  9
$DIMTIH
 70
     1
  9
$DIMTOH
 70
     1
  9
$DIMSE1
 70
     0
  9
$DIMSE2
 70
     0
  9
$DIMTAD
 70
     0
  9
$DIMZIN
 70
     0
  9
$DIMBLK
  1

  9
$DIMASO
 70
     1
  9
$DIMSHO
 70
     1
  9
$DIMPOST
  1

  9
$DIMAPOST
  1

  9
$DIMALT
 70
     0
  9
$DIMALTD
 70
     2
  9
$DIMALTF
 40
25.4
  9
$DIMLFAC
 40
1.0
  9
$DIMTOFL
 70
     0
  9
$DIMTVP
 40
0.0
  9
$DIMTIX
 70
     0
  9
$DIMSOXD
 70
     0
  9
$DIMSAH
 70
     0
  9
$DIMBLK1
  1

  9
$DIMBLK2
  1

  9
$DIMSTYLE
  2
Standard
  9
$DIMCLRD
 70
     0
  9
$DIMCLRE
 70
     0
  9
$DIMCLRT
 70
     0
  9
$DIMTFAC
 40
1.0
  9
$DIMGAP
 40
0.09
  9
$DIMJUST
 70
     0
  9
$DIMSD1
 70
     0
  9
$DIMSD2
 70
     0
  9
$DIMTOLJ
 70
     1
  9
$DIMTZIN
 70
     0
  9
$DIMALTZ
 70
     0
  9
$DIMALTTZ
 70
     0
  9
$DIMUPT
 70
     0
  9
$DIMDEC
 70
     4
  9
$DIMTDEC
 70
     4
  9
$DIMALTU
 70
     2
  9
$DIMALTTD
 70
     2
  9
$DIMTXSTY
  7
Standard
  9
$DIMAUNIT
 70
     0
  9
$DIMADEC
 70
     0
  9
$DIMALTRND
 40
0.0
  9
$DIMAZIN
 70
     0
  9
$DIMDSEP
 70
    46
  9
$DIMATFIT
 70
     3
  9
$DIMFRAC
 70
     0
  9
$DIMLDRBLK
  1

  9
$DIMLUNIT
 70
     2
  9
$DIMLWD
 70
    -2
  9
$DIMLWE
 70
    -2
  9
$DIMTMOVE
 70
     0
  9
$DIMFXL
 40
1.0
  9
$DIMFXLON
 70
     0
  9
$DIMJOGANG
 40
0.7853981633974483
  9
$DIMTFILL
 70
     0
  9
$DIMTFILLCLR
 70
     0
  9
$DIMARCSYM
 70
     0
  9
$DIMLTYPE
  6

  9
$DIMLTEX1
  6

  9
$DIMLTEX2
  6

  9
$DIMTXTDIRECTION
 70
     0
  9
$LUNITS
 70
     2
  9
$LUPREC
 70
     4
  9
$SKETCHINC
 40
0.1
  9
$FILLETRAD
 40
3.0
  9
$AUNITS
 70
     0
  9
$AUPREC
 70
     0
  9
$MENU
  1
.
  9
$ELEVATION
 40
0.0
  9
$PELEVATION
 40
0.0
  9
$THICKNESS
 40
0.0
  9
$LIMCHECK
 70
     0
  9
$CHAMFERA
 40
0.0
  9
$CHAMFERB
 40
0.0
  9
$CHAMFERC
 40
0.0
  9
$CHAMFERD
 40
0.0
  9
$SKPOLY
 70
     0
  9
$TDCREATE
 40
2459050.812326389
  9
$TDUCREATE
 40
2459050.728993056
  9
$TDUPDATE
 40
2459054.805023149
  9
$TDUUPDATE
 40
2459054.721689815
  9
$TDINDWG
 40
1.1569560185
  9
$TDUSRTIMER
 40
1.1569560185
  9
$USRTIMER
 70
     1
  9
$ANGBASE
 50
0.0
  9
$ANGDIR
 70
     0
  9
$PDMODE
 70
     0
  9
$PDSIZE
 40
0.0
  9
$PLINEWID
 40
0.0
  9
$SPLFRAME
 70
     1
  9
$SPLINETYPE
 70
     6
  9
$SPLINESEGS
 70
     8
  9
$HANDSEED
  5
2952
  9
$SURFTAB1
 70
     6
  9
$SURFTAB2
 70
     6
  9
$SURFTYPE
 70
     6
  9
$SURFU
 70
     6
  9
$SURFV
 70
     6
  9
$UCSBASE
  2

  9
$UCSNAME
  2

  9
$UCSORG
 10
0.0
 20
0.0
 30
0.0
  9
$UCSXDIR
 10
1.0
 20
0.0
 30
0.0
  9
$UCSYDIR
 10
0.0
 20
1.0
 30
0.0
  9
$UCSORTHOREF
  2

  9
$UCSORTHOVIEW
 70
     0
  9
$UCSORGTOP
 10
0.0
 20
0.0
 30
0.0
  9
$UCSORGBOTTOM
 10
0.0
 20
0.0
 30
0.0
  9
$UCSORGLEFT
 10
0.0
 20
0.0
 30
0.0
  9
$UCSORGRIGHT
 10
0.0
 20
0.0
 30
0.0
  9
$UCSORGFRONT
 10
0.0
 20
0.0
 30
0.0
  9
$UCSORGBACK
 10
0.0
 20
0.0
 30
0.0
  9
$PUCSBASE
  2

  9
$PUCSNAME
  2

  9
$PUCSORG
 10
0.0
 20
0.0
 30
0.0
  9
$PUCSXDIR
 10
1.0
 20
0.0
 30
0.0
  9
$PUCSYDIR
 10
0.0
 20
1.0
 30
0.0
  9
$PUCSORTHOREF
  2

  9
$PUCSORTHOVIEW
 70
     0
  9
$PUCSORGTOP
 10
0.0
 20
0.0
 30
0.0
  9
$PUCSORGBOTTOM
 10
0.0
 20
0.0
 30
0.0
  9
$PUCSORGLEFT
 10
0.0
 20
0.0
 30
0.0
  9
$PUCSORGRIGHT
 10
0.0
 20
0.0
 30
0.0
  9
$PUCSORGFRONT
 10
0.0
 20
0.0
 30
0.0
  9
$PUCSORGBACK
 10
0.0
 20
0.0
 30
0.0
  9
$USERI1
 70
     0
  9
$USERI2
 70
     0
  9
$USERI3
 70
     0
  9
$USERI4
 70
     0
  9
$USERI5
 70
     0
  9
$USERR1
 40
0.0
  9
$USERR2
 40
0.0
  9
$USERR3
 40
0.0
  9
$USERR4
 40
0.0
  9
$USERR5
 40
0.0
  9
$WORLDVIEW
 70
     1
  9
$SHADEDGE
 70
     3
  9
$SHADEDIF
 70
    70
  9
$TILEMODE
 70
     1
  9
$MAXACTVP
 70
    64
  9
$PINSBASE
 10
0.0
 20
0.0
 30
0.0
  9
$PLIMCHECK
 70
     0
  9
$PEXTMIN
 10
1.000000000000000E+20
 20
1.000000000000000E+20
 30
1.000000000000000E+20
  9
$PEXTMAX
 10
-1.000000000000000E+20
 20
-1.000000000000000E+20
 30
-1.000000000000000E+20
  9
$PLIMMIN
 10
0.0
 20
0.0
  9
$PLIMMAX
 10
12.0
 20
9.0
  9
$UNITMODE
 70
     0
  9
$VISRETAIN
 70
     1
  9
$PLINEGEN
 70
     0
  9
$PSLTSCALE
 70
     1
  9
$TREEDEPTH
 70
  3020
  9
$CMLSTYLE
  2
Standard
  9
$CMLJUST
 70
     0
  9
$CMLSCALE
 40
1.0
  9
$PROXYGRAPHICS
 70
     1
  9
$MEASUREMENT
 70
     0
  9
$CELWEIGHT
370
    -1
  9
$ENDCAPS
280
     0
  9
$JOINSTYLE
280
     0
  9
$LWDISPLAY
290
     0
  9
$INSUNITS
 70
     0
  9
$HYPERLINKBASE
  1

  9
$STYLESHEET
  1

  9
$XEDIT
290
     1
  9
$CEPSNTYPE
380
     0
  9
$PSTYLEMODE
290
     1
  9
$FINGERPRINTGUID
  2
{0BB982D4-9AFB-0647-AEB4-55FEC51E63F1}
  9
$VERSIONGUID
  2
{48AA59B1-D614-3740-BA0E-2ED292A1930A}
  9
$EXTNAMES
290
     1
  9
$PSVPSCALE
 40
0.0
  9
$OLESTARTUP
290
     0
  9
$SORTENTS
280
   127
  9
$INDEXCTL
280
     0
  9
$HIDETEXT
280
     0
  9
$XCLIPFRAME
280
     2
  9
$HALOGAP
280
     0
  9
$OBSCOLOR
 70
   257
  9
$OBSLTYPE
280
     0
  9
$INTERSECTIONDISPLAY
280
     0
  9
$INTERSECTIONCOLOR
 70
   257
  9
$DIMASSOC
280
     1
  9
$PROJECTNAME
  1

  9
$CAMERADISPLAY
290
     0
  9
$LENSLENGTH
 40
50.0
  9
$CAMERAHEIGHT
 40
0.0
  9
$STEPSPERSEC
 40
2.0
  9
$STEPSIZE
 40
6.0
  9
$3DDWFPREC
 40
2.0
  9
$PSOLWIDTH
 40
0.25
  9
$PSOLHEIGHT
 40
4.0
  9
$LOFTANG1
 40
1.570796326794896
  9
$LOFTANG2
 40
1.570796326794896
  9
$LOFTMAG1
 40
0.0
  9
$LOFTMAG2
 40
0.0
  9
$LOFTPARAM
 70
     7
  9
$LOFTNORMALS
280
     1
  9
$LATITUDE
 40
37.795
  9
$LONGITUDE
 40
-122.394
  9
$NORTHDIRECTION
 40
0.0
  9
$TIMEZONE
 70
 -8000
  9
$LIGHTGLYPHDISPLAY
280
     1
  9
$TILEMODELIGHTSYNCH
280
     1
  9
$CMATERIAL
347
11
  9
$SOLIDHIST
280
     0
  9
$SHOWHIST
280
     1
  9
$DWFFRAME
280
     2
  9
$DGNFRAME
280
     0
  9
$REALWORLDSCALE
290
     1
  9
$INTERFERECOLOR
 62
     1
  9
$INTERFEREOBJVS
345
33
  9
$INTERFEREVPVS
346
30
  9
$CSHADOW
280
     0
  9
$SHADOWPLANELOCATION
 40
0.0
  0
ENDSEC
  0
SECTION
  2
CLASSES
  0
CLASS
  1
ACDBDICTIONARYWDFLT
  2
AcDbDictionaryWithDefault
  3
ObjectDBX Classes
 90
        0
 91
        1
280
     0
281
     0
  0
CLASS
  1
MATERIAL
  2
AcDbMaterial
  3
ObjectDBX Classes
 90
     1153
 91
        3
280
     0
281
     0
  0
CLASS
  1
VISUALSTYLE
  2
AcDbVisualStyle
  3
ObjectDBX Classes
 90
     4095
 91
       24
280
     0
281
     0
  0
CLASS
  1
SCALE
  2
AcDbScale
  3
ObjectDBX Classes
 90
     1153
 91
       17
280
     0
281
     0
  0
CLASS
  1
TABLESTYLE
  2
AcDbTableStyle
  3
ObjectDBX Classes
 90
     4095
 91
        1
280
     0
281
     0
  0
CLASS
  1
MLEADERSTYLE
  2
AcDbMLeaderStyle
  3
ACDB_MLEADERSTYLE_CLASS
 90
     4095
 91
        1
280
     0
281
     0
  0
CLASS
  1
ACDBSECTIONVIEWSTYLE
  2
AcDbSectionViewStyle
  3
ObjectDBX Classes
 90
     1025
 91
        1
280
     0
281
     0
  0
CLASS
  1
ACDBDETAILVIEWSTYLE
  2
AcDbDetailViewStyle
  3
ObjectDBX Classes
 90
     1025
 91
        1
280
     0
281
     0
  0
CLASS
  1
DICTIONARYVAR
  2
AcDbDictionaryVar
  3
ObjectDBX Classes
 90
        0
 91
        9
280
     0
281
     0
  0
CLASS
  1
CELLSTYLEMAP
  2
AcDbCellStyleMap
  3
ObjectDBX Classes
 90
     1152
 91
        1
280
     0
281
     0
  0
CLASS
  1
SORTENTSTABLE
  2
AcDbSortentsTable
  3
ObjectDBX Classes
 90
        0
 91
        4
280
     0
281
     0
  0
ENDSEC
  0
SECTION
  2
TABLES
  0
TABLE
  2
VPORT
  5
8
330
0
100
AcDbSymbolTable
 70
     1
  0
VPORT
  5
74
330
8
100
AcDbSymbolTableRecord
100
AcDbViewportTableRecord
  2
*Active
 70
     0
 10
0.0
 20
0.0
 11
1.0
 21
1.0
 12
-22.03862170890716
 22
578.7487255336174
 13
0.0
 23
0.0
 14
1.0
 24
1.0
 15
0.0
 25
0.0
 16
0.0
 26
0.0
 36
1.0
 17
0.0
 27
0.0
 37
0.0
 40
703.3787972703889
 41
1.775057383320581
 42
50.0
 43
0.0
 44
0.0
 50
0.0
 51
0.0
 71
     0
 72
   100
 73
     1
 74
     0
 75
     1
 76
     0
 77
     0
 78
     0
281
     0
 65
     1
110
0.0
120
0.0
130
0.0
111
1.0
121
0.0
131
0.0
112
0.0
122
1.0
132
0.0
 79
     0
146
0.0
348
2F
 60
     3
 61
     5
292
     1
282
     1
141
0.0
142
0.0
 63
   250
421
  3355443
1001
ACAD_NAV_VCDISPLAY
1070
     3
  0
ENDTAB
  0
TABLE
  2
LTYPE
  5
5
330
0
100
AcDbSymbolTable
 70
     2
  0
LTYPE
  5
5A
330
5
100
AcDbSymbolTableRecord
100
AcDbLinetypeTableRecord
  2
ByBlock
 70
     0
  3

 72
    65
 73
     0
 40
0.0
  0
LTYPE
  5
5B
330
5
100
AcDbSymbolTableRecord
100
AcDbLinetypeTableRecord
  2
ByLayer
 70
     0
  3

 72
    65
 73
     0
 40
0.0
  0
LTYPE
  5
5C
330
5
100
AcDbSymbolTableRecord
100
AcDbLinetypeTableRecord
  2
Continuous
 70
     0
  3
Solid line
 72
    65
 73
     0
 40
0.0
  0
ENDTAB
  0
TABLE
  2
LAYER
  5
2
102
{ACAD_XDICTIONARY
360
199
102
}
330
0
100
AcDbSymbolTable
 70
     1
  0
LAYER
  5
54
102
{ACAD_XDICTIONARY
360
191
102
}
330
2
100
AcDbSymbolTableRecord
100
AcDbLayerTableRecord
  2
0
 70
     0
 62
     7
  6
Continuous
370
    -3
390
F
347
21
348
0
  0
ENDTAB
  0
TABLE
  2
STYLE
  5
3
330
0
100
AcDbSymbolTable
 70
     2
  0
STYLE
  5
55
330
3
100
AcDbSymbolTableRecord
100
AcDbTextStyleTableRecord
  2
Standard
 70
     0
 40
0.0
 41
1.0
 50
0.0
 71
     0
 42
0.2
  3
txt
  4

  0
STYLE
  5
59
330
3
100
AcDbSymbolTableRecord
100
AcDbTextStyleTableRecord
  2
Annotative
 70
     0
 40
0.0
 41
1.0
 50
0.0
 71
     0
 42
0.2
  3
txt
  4

1001
AcadAnnotative
1000
AnnotativeData
1002
{
1070
     1
1070
     1
1002
}
  0
ENDTAB
  0
TABLE
  2
VIEW
  5
6
330
0
100
AcDbSymbolTable
 70
     2
  0
ENDTAB
  0
TABLE
  2
UCS
  5
7
330
0
100
AcDbSymbolTable
 70
     0
  0
ENDTAB
  0
TABLE
  2
APPID
  5
9
330
0
100
AcDbSymbolTable
 70
     4
  0
APPID
  5
56
330
9
100
AcDbSymbolTableRecord
100
AcDbRegAppTableRecord
  2
ACAD
 70
     0
  0
APPID
  5
5D
330
9
100
AcDbSymbolTableRecord
100
AcDbRegAppTableRecord
  2
AcadAnnotative
 70
     0
  0
APPID
  5
173
330
9
100
AcDbSymbolTableRecord
100
AcDbRegAppTableRecord
  2
ACAD_NAV_VCDISPLAY
 70
     0
  0
APPID
  5
188
330
9
100
AcDbSymbolTableRecord
100
AcDbRegAppTableRecord
  2
ACAD_EXEMPT_FROM_CAD_STANDARDS
 70
     0
  0
ENDTAB
  0
TABLE
  2
DIMSTYLE
  5
A
330
0
100
AcDbSymbolTable
 70
     3
100
AcDbDimStyleTable
 71
     1
340
57
  0
DIMSTYLE
105
57
330
A
100
AcDbSymbolTableRecord
100
AcDbDimStyleTableRecord
  2
Standard
 70
     0
340
55
  0
DIMSTYLE
105
58
330
A
100
AcDbSymbolTableRecord
100
AcDbDimStyleTableRecord
  2
Annotative
 70
     0
340
55
1001
AcadAnnotative
1000
AnnotativeData
1002
{
1070
     1
1070
     1
1002
}
  0
ENDTAB
  0
TABLE
  2
BLOCK_RECORD
  5
1
330
0
100
AcDbSymbolTable
 70
     5
  0
BLOCK_RECORD
  5
6F
102
{ACAD_XDICTIONARY
360
181C
102
}
330
1
100
AcDbSymbolTableRecord
100
AcDbBlockTableRecord
  2
*Model_Space
340
72
 70
     0
280
     1
281
     0
  0
BLOCK_RECORD
  5
6B
330
1
100
AcDbSymbolTableRecord
100
AcDbBlockTableRecord
  2
*Paper_Space
340
6E
 70
     0
280
     1
281
     0
  0
BLOCK_RECORD
  5
1B6
330
1
100
AcDbSymbolTableRecord
100
AcDbBlockTableRecord
  2
A$C454ac402
340
0
 70
     0
280
     1
281
     0
  0
BLOCK_RECORD
  5
26C6
102
{ACAD_XDICTIONARY
360
28AB
102
}
330
1
100
AcDbSymbolTableRecord
100
AcDbBlockTableRecord
  2
A$Ca7068fbb
340
0
 70
     0
280
     1
281
     0
  0
BLOCK_RECORD
  5
28EE
102
{ACAD_XDICTIONARY
360
28FC
102
}
330
1
100
AcDbSymbolTableRecord
100
AcDbBlockTableRecord
  2
A$C65693bb1
340
0
 70
     0
280
     1
281
     0
  0
ENDTAB
  0
ENDSEC
  0
SECTION
  2
BLOCKS
  0
BLOCK
  5
70
330
6F
100
AcDbEntity
  8
0
100
AcDbBlockBegin
  2
*Model_Space
 70
     0
 10
0.0
 20
0.0
 30
0.0
  3
*Model_Space
  1

  0
ENDBLK
  5
71
330
6F
100
AcDbEntity
  8
0
100
AcDbBlockEnd
  0
BLOCK
  5
6C
330
6B
100
AcDbEntity
 67
     1
  8
0
100
AcDbBlockBegin
  2
*Paper_Space
 70
     0
 10
0.0
 20
0.0
 30
0.0
  3
*Paper_Space
  1

  0
ENDBLK
  5
6D
330
6B
100
AcDbEntity
 67
     1
  8
0
100
AcDbBlockEnd
  0
BLOCK
  5
1CF
330
1B6
100
AcDbEntity
  8
0
100
AcDbBlockBegin
  2
A$C454ac402
 70
     0
 10
0.0
 20
0.0
 30
0.0
  3
A$C454ac402
  1

  0
LINE
  5
1B7
330
1B6
100
AcDbEntity
  8
0
 62
     0
100
AcDbLine
 10
2.335610984475239
 20
3.851870922002973
 30
0.0
 11
1.918060984475238
 21
3.63887092200295
 31
0.0
  0
LINE
  5
1B8
330
1B6
100
AcDbEntity
  8
0
 62
     0
100
AcDbLine
 10
1.918060984475238
 20
3.63887092200295
 30
0.0
 11
1.585970984475238
 21
3.306870922002985
 31
0.0
  0
LINE
  5
1B9
330
1B6
100
AcDbEntity
  8
0
 62
     0
100
AcDbLine
 10
1.585970984475238
 20
3.306870922002985
 30
0.0
 11
1.372370984475238
 21
2.88887092200295
 31
0.0
  0
LINE
  5
1BA
330
1B6
100
AcDbEntity
  8
0
 62
     0
100
AcDbLine
 10
1.372370984475238
 20
2.88887092200295
 30
0.0
 11
1.299330984475239
 21
2.424870922002951
 31
0.0
  0
LINE
  5
1BB
330
1B6
100
AcDbEntity
  8
0
 62
     0
100
AcDbLine
 10
1.299330984475239
 20
2.424870922002951
 30
0.0
 11
1.372370984475238
 21
1.961870922002957
 31
0.0
  0
LINE
  5
1BC
330
1B6
100
AcDbEntity
  8
0
 62
     0
100
AcDbLine
 10
1.372370984475238
 20
1.961870922002957
 30
0.0
 11
1.585970984475238
 21
1.543870922002866
 31
0.0
  0
LINE
  5
1BD
330
1B6
100
AcDbEntity
  8
0
 62
     0
100
AcDbLine
 10
1.585970984475238
 20
1.543870922002866
 30
0.0
 11
1.918060984475238
 21
1.211870922002957
 31
0.0
  0
LINE
  5
1BE
330
1B6
100
AcDbEntity
  8
0
 62
     0
100
AcDbLine
 10
1.918060984475238
 20
1.211870922002957
 30
0.0
 11
2.335610984475239
 21
0.9988709220029647
 31
0.0
  0
LINE
  5
1BF
330
1B6
100
AcDbEntity
  8
0
 62
     0
100
AcDbLine
 10
2.335610984475239
 20
0.9988709220029647
 30
0.0
 11
2.80000098447524
 21
0.9258709220029571
 31
0.0
  0
LINE
  5
1C0
330
1B6
100
AcDbEntity
  8
0
 62
     0
100
AcDbLine
 10
2.80000098447524
 20
0.9258709220029571
 30
0.0
 11
3.263020984475239
 21
0.9988709220029647
 31
0.0
  0
LINE
  5
1C1
330
1B6
100
AcDbEntity
  8
0
 62
     0
100
AcDbLine
 10
3.263020984475239
 20
0.9988709220029647
 30
0.0
 11
3.680570984475239
 21
1.211870922002957
 31
0.0
  0
LINE
  5
1C2
330
1B6
100
AcDbEntity
  8
0
 62
     0
100
AcDbLine
 10
3.680570984475239
 20
1.211870922002957
 30
0.0
 11
4.012680984475238
 21
1.543870922002866
 31
0.0
  0
LINE
  5
1C3
330
1B6
100
AcDbEntity
  8
0
 62
     0
100
AcDbLine
 10
4.012680984475238
 20
1.543870922002866
 30
0.0
 11
4.226280984475239
 21
1.961870922002957
 31
0.0
  0
LINE
  5
1C4
330
1B6
100
AcDbEntity
  8
0
 62
     0
100
AcDbLine
 10
4.226280984475239
 20
1.961870922002957
 30
0.0
 11
4.299310984475239
 21
2.424870922002951
 31
0.0
  0
LINE
  5
1C5
330
1B6
100
AcDbEntity
  8
0
 62
     0
100
AcDbLine
 10
4.299310984475239
 20
2.424870922002951
 30
0.0
 11
4.226280984475239
 21
2.88887092200295
 31
0.0
  0
LINE
  5
1C6
330
1B6
100
AcDbEntity
  8
0
 62
     0
100
AcDbLine
 10
4.226280984475239
 20
2.88887092200295
 30
0.0
 11
4.012680984475238
 21
3.306870922002985
 31
0.0
  0
LINE
  5
1C7
330
1B6
100
AcDbEntity
  8
0
 62
     0
100
AcDbLine
 10
4.012680984475238
 20
3.306870922002985
 30
0.0
 11
3.680570984475239
 21
3.63887092200295
 31
0.0
  0
LINE
  5
1C8
330
1B6
100
AcDbEntity
  8
0
 62
     0
100
AcDbLine
 10
3.680570984475239
 20
3.63887092200295
 30
0.0
 11
3.263020984475239
 21
3.851870922002973
 31
0.0
  0
LINE
  5
1C9
330
1B6
100
AcDbEntity
  8
0
 62
     0
100
AcDbLine
 10
3.263020984475239
 20
3.851870922002973
 30
0.0
 11
2.80000098447524
 21
3.925870922002956
 31
0.0
  0
LINE
  5
1CA
330
1B6
100
AcDbEntity
  8
0
 62
     0
100
AcDbLine
 10
2.80000098447524
 20
3.925870922002956
 30
0.0
 11
2.335610984475239
 21
3.851870922002973
 31
0.0
  0
LINE
  5
1CB
330
1B6
100
AcDbEntity
  8
0
  6
Continuous
100
AcDbLine
 10
2.80000098447524
 20
3.925870922002956
 30
0.0
 11
2.800000984475239
 21
0.9258709220029571
 31
0.0
  0
LINE
  5
1CC
330
1B6
100
AcDbEntity
  8
0
  6
Continuous
100
AcDbLine
 10
2.800000984475239
 20
0.9258709220029571
 30
0.0
 11
1.299330984475239
 21
2.424870922002951
 31
0.0
  0
LINE
  5
1CD
330
1B6
100
AcDbEntity
  8
0
  6
Continuous
100
AcDbLine
 10
1.299330984475239
 20
2.424870922002951
 30
0.0
 11
4.299310984475239
 21
2.424870922002951
 31
0.0
  0
LWPOLYLINE
  5
1CE
330
1B6
100
AcDbEntity
  8
0
  6
Continuous
100
AcDbPolyline
 90
        6
 70
     1
 43
0.0
 10
1.40000098447524
 20
4.849742052599366
 10
0.00000098447524
 20
2.424870922002951
 10
1.400000984475238
 20
-0.0000002085934625
 10
4.200000984475238
 20
-0.0000002085934625
 10
5.600000984475238
 20
2.424870922002951
 10
4.200000984475241
 20
4.849742052599366
  0
ENDBLK
  5
1D0
330
1B6
100
AcDbEntity
  8
0
100
AcDbBlockEnd
  0
BLOCK
  5
28AD
330
26C6
100
AcDbEntity
  8
0
100
AcDbBlockBegin
  2
A$Ca7068fbb
 70
     0
 10
0.0
 20
0.0
 30
0.0
  3
A$Ca7068fbb
  1

  0
LINE
  5
26C7
330
26C6
100
AcDbEntity
  8
0
 62
     0
100
AcDbLine
 10
402.5599137751296
 20
5.926944182843321
 30
0.0
 11
402.1439137751297
 21
5.71333418284332
 31
0.0
  0
LINE
  5
26C8
330
26C6
100
AcDbEntity
  8
0
 62
     0
100
AcDbLine
 10
402.1439137751297
 20
5.71333418284332
 30
0.0
 11
401.8119137751296
 21
5.38122418284332
 31
0.0
  0
LINE
  5
26C9
330
26C6
100
AcDbEntity
  8
0
 62
     0
100
AcDbLine
 10
401.8119137751296
 20
5.38122418284332
 30
0.0
 11
401.6009137751296
 21
4.963684182843318
 31
0.0
  0
LINE
  5
26CA
330
26C6
100
AcDbEntity
  8
0
 62
     0
100
AcDbLine
 10
401.6009137751296
 20
4.963684182843318
 30
0.0
 11
401.5259137751296
 21
4.499284182843322
 31
0.0
  0
LINE
  5
26CB
330
26C6
100
AcDbEntity
  8
0
 62
     0
100
AcDbLine
 10
401.5259137751296
 20
4.499284182843322
 30
0.0
 11
401.6009137751296
 21
4.03626418284332
 31
0.0
  0
LINE
  5
26CC
330
26C6
100
AcDbEntity
  8
0
 62
     0
100
AcDbLine
 10
401.6009137751296
 20
4.03626418284332
 30
0.0
 11
401.8119137751296
 21
3.618714182843318
 31
0.0
  0
LINE
  5
26CD
330
26C6
100
AcDbEntity
  8
0
 62
     0
100
AcDbLine
 10
401.8119137751296
 20
3.618714182843318
 30
0.0
 11
402.1439137751297
 21
3.286614182843318
 31
0.0
  0
LINE
  5
26CE
330
26C6
100
AcDbEntity
  8
0
 62
     0
100
AcDbLine
 10
402.1439137751297
 20
3.286614182843318
 30
0.0
 11
402.5599137751296
 21
3.074404182843319
 31
0.0
  0
LINE
  5
26CF
330
26C6
100
AcDbEntity
  8
0
 62
     0
100
AcDbLine
 10
402.5599137751296
 20
3.074404182843319
 30
0.0
 11
403.0259137751295
 21
2.999994182843319
 31
0.0
  0
LINE
  5
26D0
330
26C6
100
AcDbEntity
  8
0
 62
     0
100
AcDbLine
 10
403.0259137751295
 20
2.999994182843319
 30
0.0
 11
403.4879137751296
 21
3.074404182843319
 31
0.0
  0
LINE
  5
26D1
330
26C6
100
AcDbEntity
  8
0
 62
     0
100
AcDbLine
 10
403.4879137751296
 20
3.074404182843319
 30
0.0
 11
403.9079137751297
 21
3.286614182843318
 31
0.0
  0
LINE
  5
26D2
330
26C6
100
AcDbEntity
  8
0
 62
     0
100
AcDbLine
 10
403.9079137751297
 20
3.286614182843318
 30
0.0
 11
404.2389137751296
 21
3.618714182843318
 31
0.0
  0
LINE
  5
26D3
330
26C6
100
AcDbEntity
  8
0
 62
     0
100
AcDbLine
 10
404.2389137751296
 20
3.618714182843318
 30
0.0
 11
404.4509137751297
 21
4.03626418284332
 31
0.0
  0
LINE
  5
26D4
330
26C6
100
AcDbEntity
  8
0
 62
     0
100
AcDbLine
 10
404.4509137751297
 20
4.03626418284332
 30
0.0
 11
404.5289137751296
 21
4.499284182843322
 31
0.0
  0
LINE
  5
26D5
330
26C6
100
AcDbEntity
  8
0
 62
     0
100
AcDbLine
 10
404.5289137751296
 20
4.499284182843322
 30
0.0
 11
404.4509137751297
 21
4.963684182843318
 31
0.0
  0
LINE
  5
26D6
330
26C6
100
AcDbEntity
  8
0
 62
     0
100
AcDbLine
 10
404.4509137751297
 20
4.963684182843318
 30
0.0
 11
404.2389137751296
 21
5.38122418284332
 31
0.0
  0
LINE
  5
26D7
330
26C6
100
AcDbEntity
  8
0
 62
     0
100
AcDbLine
 10
404.2389137751296
 20
5.38122418284332
 30
0.0
 11
403.9079137751297
 21
5.71333418284332
 31
0.0
  0
LINE
  5
26D8
330
26C6
100
AcDbEntity
  8
0
 62
     0
100
AcDbLine
 10
403.9079137751297
 20
5.71333418284332
 30
0.0
 11
403.4879137751296
 21
5.926944182843321
 31
0.0
  0
LINE
  5
26D9
330
26C6
100
AcDbEntity
  8
0
 62
     0
100
AcDbLine
 10
403.4879137751296
 20
5.926944182843321
 30
0.0
 11
403.0259137751295
 21
5.999964182843321
 31
0.0
  0
LINE
  5
26DA
330
26C6
100
AcDbEntity
  8
0
 62
     0
100
AcDbLine
 10
403.0259137751295
 20
5.999964182843321
 30
0.0
 11
402.5599137751296
 21
5.926944182843321
 31
0.0
  0
LINE
  5
26DB
330
26C6
100
AcDbEntity
  8
0
 62
     0
100
AcDbLine
 10
270.0539137751297
 20
5.926944182843321
 30
0.0
 11
269.6349137751297
 21
5.71333418284332
 31
0.0
  0
LINE
  5
26DC
330
26C6
100
AcDbEntity
  8
0
 62
     0
100
AcDbLine
 10
269.6349137751297
 20
5.71333418284332
 30
0.0
 11
269.3039137751297
 21
5.38122418284332
 31
0.0
  0
LINE
  5
26DD
330
26C6
100
AcDbEntity
  8
0
 62
     0
100
AcDbLine
 10
269.3039137751297
 20
5.38122418284332
 30
0.0
 11
269.0909137751296
 21
4.963684182843318
 31
0.0
  0
LINE
  5
26DE
330
26C6
100
AcDbEntity
  8
0
 62
     0
100
AcDbLine
 10
269.0909137751296
 20
4.963684182843318
 30
0.0
 11
269.0179137751297
 21
4.499284182843322
 31
0.0
  0
LINE
  5
26DF
330
26C6
100
AcDbEntity
  8
0
 62
     0
100
AcDbLine
 10
269.0179137751297
 20
4.499284182843322
 30
0.0
 11
269.0909137751296
 21
4.03626418284332
 31
0.0
  0
LINE
  5
26E0
330
26C6
100
AcDbEntity
  8
0
 62
     0
100
AcDbLine
 10
269.0909137751296
 20
4.03626418284332
 30
0.0
 11
269.3039137751297
 21
3.618714182843318
 31
0.0
  0
LINE
  5
26E1
330
26C6
100
AcDbEntity
  8
0
 62
     0
100
AcDbLine
 10
269.3039137751297
 20
3.618714182843318
 30
0.0
 11
269.6349137751297
 21
3.286614182843318
 31
0.0
  0
LINE
  5
26E2
330
26C6
100
AcDbEntity
  8
0
 62
     0
100
AcDbLine
 10
269.6349137751297
 20
3.286614182843318
 30
0.0
 11
270.0539137751297
 21
3.074404182843319
 31
0.0
  0
LINE
  5
26E3
330
26C6
100
AcDbEntity
  8
0
 62
     0
100
AcDbLine
 10
270.0539137751297
 20
3.074404182843319
 30
0.0
 11
270.5169137751298
 21
2.999994182843319
 31
0.0
  0
LINE
  5
26E4
330
26C6
100
AcDbEntity
  8
0
 62
     0
100
AcDbLine
 10
270.5169137751298
 20
2.999994182843319
 30
0.0
 11
270.9799137751297
 21
3.074404182843319
 31
0.0
  0
LINE
  5
26E5
330
26C6
100
AcDbEntity
  8
0
 62
     0
100
AcDbLine
 10
270.9799137751297
 20
3.074404182843319
 30
0.0
 11
271.3999137751297
 21
3.286614182843318
 31
0.0
  0
LINE
  5
26E6
330
26C6
100
AcDbEntity
  8
0
 62
     0
100
AcDbLine
 10
271.3999137751297
 20
3.286614182843318
 30
0.0
 11
271.7309137751297
 21
3.618714182843318
 31
0.0
  0
LINE
  5
26E7
330
26C6
100
AcDbEntity
  8
0
 62
     0
100
AcDbLine
 10
271.7309137751297
 20
3.618714182843318
 30
0.0
 11
271.9429137751297
 21
4.03626418284332
 31
0.0
  0
LINE
  5
26E8
330
26C6
100
AcDbEntity
  8
0
 62
     0
100
AcDbLine
 10
271.9429137751297
 20
4.03626418284332
 30
0.0
 11
272.0179137751297
 21
4.499284182843322
 31
0.0
  0
LINE
  5
26E9
330
26C6
100
AcDbEntity
  8
0
 62
     0
100
AcDbLine
 10
272.0179137751297
 20
4.499284182843322
 30
0.0
 11
271.9429137751297
 21
4.963684182843318
 31
0.0
  0
LINE
  5
26EA
330
26C6
100
AcDbEntity
  8
0
 62
     0
100
AcDbLine
 10
271.9429137751297
 20
4.963684182843318
 30
0.0
 11
271.7309137751297
 21
5.38122418284332
 31
0.0
  0
LINE
  5
26EB
330
26C6
100
AcDbEntity
  8
0
 62
     0
100
AcDbLine
 10
271.7309137751297
 20
5.38122418284332
 30
0.0
 11
271.3999137751297
 21
5.71333418284332
 31
0.0
  0
LINE
  5
26EC
330
26C6
100
AcDbEntity
  8
0
 62
     0
100
AcDbLine
 10
271.3999137751297
 20
5.71333418284332
 30
0.0
 11
270.9799137751297
 21
5.926944182843321
 31
0.0
  0
LINE
  5
26ED
330
26C6
100
AcDbEntity
  8
0
 62
     0
100
AcDbLine
 10
270.9799137751297
 20
5.926944182843321
 30
0.0
 11
270.5169137751298
 21
5.999964182843321
 31
0.0
  0
LINE
  5
26EE
330
26C6
100
AcDbEntity
  8
0
 62
     0
100
AcDbLine
 10
270.5169137751298
 20
5.999964182843321
 30
0.0
 11
270.0539137751297
 21
5.926944182843321
 31
0.0
  0
LINE
  5
26EF
330
26C6
100
AcDbEntity
  8
0
 62
     0
100
AcDbLine
 10
137.5459137751295
 20
5.926944182843321
 30
0.0
 11
137.1269137751296
 21
5.71333418284332
 31
0.0
  0
LINE
  5
26F0
330
26C6
100
AcDbEntity
  8
0
 62
     0
100
AcDbLine
 10
137.1269137751296
 20
5.71333418284332
 30
0.0
 11
136.7959137751296
 21
5.38122418284332
 31
0.0
  0
LINE
  5
26F1
330
26C6
100
AcDbEntity
  8
0
 62
     0
100
AcDbLine
 10
136.7959137751296
 20
5.38122418284332
 30
0.0
 11
136.5829137751296
 21
4.963684182843318
 31
0.0
  0
LINE
  5
26F2
330
26C6
100
AcDbEntity
  8
0
 62
     0
100
AcDbLine
 10
136.5829137751296
 20
4.963684182843318
 30
0.0
 11
136.5079137751296
 21
4.499284182843322
 31
0.0
  0
LINE
  5
26F3
330
26C6
100
AcDbEntity
  8
0
 62
     0
100
AcDbLine
 10
136.5079137751296
 20
4.499284182843322
 30
0.0
 11
136.5829137751296
 21
4.03626418284332
 31
0.0
  0
LINE
  5
26F4
330
26C6
100
AcDbEntity
  8
0
 62
     0
100
AcDbLine
 10
136.5829137751296
 20
4.03626418284332
 30
0.0
 11
136.7959137751296
 21
3.618714182843318
 31
0.0
  0
LINE
  5
26F5
330
26C6
100
AcDbEntity
  8
0
 62
     0
100
AcDbLine
 10
136.7959137751296
 20
3.618714182843318
 30
0.0
 11
137.1269137751296
 21
3.286614182843318
 31
0.0
  0
LINE
  5
26F6
330
26C6
100
AcDbEntity
  8
0
 62
     0
100
AcDbLine
 10
137.1269137751296
 20
3.286614182843318
 30
0.0
 11
137.5459137751295
 21
3.074404182843319
 31
0.0
  0
LINE
  5
26F7
330
26C6
100
AcDbEntity
  8
0
 62
     0
100
AcDbLine
 10
137.5459137751295
 20
3.074404182843319
 30
0.0
 11
138.0089137751297
 21
2.999994182843319
 31
0.0
  0
LINE
  5
26F8
330
26C6
100
AcDbEntity
  8
0
 62
     0
100
AcDbLine
 10
138.0089137751297
 20
2.999994182843319
 30
0.0
 11
138.4719137751297
 21
3.074404182843319
 31
0.0
  0
LINE
  5
26F9
330
26C6
100
AcDbEntity
  8
0
 62
     0
100
AcDbLine
 10
138.4719137751297
 20
3.074404182843319
 30
0.0
 11
138.8909137751296
 21
3.286614182843318
 31
0.0
  0
LINE
  5
26FA
330
26C6
100
AcDbEntity
  8
0
 62
     0
100
AcDbLine
 10
138.8909137751296
 20
3.286614182843318
 30
0.0
 11
139.2229137751296
 21
3.618714182843318
 31
0.0
  0
LINE
  5
26FB
330
26C6
100
AcDbEntity
  8
0
 62
     0
100
AcDbLine
 10
139.2229137751296
 20
3.618714182843318
 30
0.0
 11
139.4349137751296
 21
4.03626418284332
 31
0.0
  0
LINE
  5
26FC
330
26C6
100
AcDbEntity
  8
0
 62
     0
100
AcDbLine
 10
139.4349137751296
 20
4.03626418284332
 30
0.0
 11
139.5079137751296
 21
4.499284182843322
 31
0.0
  0
LINE
  5
26FD
330
26C6
100
AcDbEntity
  8
0
 62
     0
100
AcDbLine
 10
139.5079137751296
 20
4.499284182843322
 30
0.0
 11
139.4349137751296
 21
4.963684182843318
 31
0.0
  0
LINE
  5
26FE
330
26C6
100
AcDbEntity
  8
0
 62
     0
100
AcDbLine
 10
139.4349137751296
 20
4.963684182843318
 30
0.0
 11
139.2229137751296
 21
5.38122418284332
 31
0.0
  0
LINE
  5
26FF
330
26C6
100
AcDbEntity
  8
0
 62
     0
100
AcDbLine
 10
139.2229137751296
 20
5.38122418284332
 30
0.0
 11
138.8909137751296
 21
5.71333418284332
 31
0.0
  0
LINE
  5
2700
330
26C6
100
AcDbEntity
  8
0
 62
     0
100
AcDbLine
 10
138.8909137751296
 20
5.71333418284332
 30
0.0
 11
138.4719137751297
 21
5.926944182843321
 31
0.0
  0
LINE
  5
2701
330
26C6
100
AcDbEntity
  8
0
 62
     0
100
AcDbLine
 10
138.4719137751297
 20
5.926944182843321
 30
0.0
 11
138.0089137751297
 21
5.999964182843321
 31
0.0
  0
LINE
  5
2702
330
26C6
100
AcDbEntity
  8
0
 62
     0
100
AcDbLine
 10
138.0089137751297
 20
5.999964182843321
 30
0.0
 11
137.5459137751295
 21
5.926944182843321
 31
0.0
  0
LINE
  5
2703
330
26C6
100
AcDbEntity
  8
0
 62
     0
100
AcDbLine
 10
5.036263775129667
 20
5.926944182843321
 30
0.0
 11
4.618713775129663
 21
5.71333418284332
 31
0.0
  0
LINE
  5
2704
330
26C6
100
AcDbEntity
  8
0
 62
     0
100
AcDbLine
 10
4.618713775129663
 20
5.71333418284332
 30
0.0
 11
4.286623775129668
 21
5.38122418284332
 31
0.0
  0
LINE
  5
2705
330
26C6
100
AcDbEntity
  8
0
 62
     0
100
AcDbLine
 10
4.286623775129668
 20
5.38122418284332
 30
0.0
 11
4.073023775129684
 21
4.963684182843318
 31
0.0
  0
LINE
  5
2706
330
26C6
100
AcDbEntity
  8
0
 62
     0
100
AcDbLine
 10
4.073023775129684
 20
4.963684182843318
 30
0.0
 11
3.999983775129691
 21
4.499284182843322
 31
0.0
  0
LINE
  5
2707
330
26C6
100
AcDbEntity
  8
0
 62
     0
100
AcDbLine
 10
3.999983775129691
 20
4.499284182843322
 30
0.0
 11
4.073023775129684
 21
4.03626418284332
 31
0.0
  0
LINE
  5
2708
330
26C6
100
AcDbEntity
  8
0
 62
     0
100
AcDbLine
 10
4.073023775129684
 20
4.03626418284332
 30
0.0
 11
4.286623775129668
 21
3.618714182843318
 31
0.0
  0
LINE
  5
2709
330
26C6
100
AcDbEntity
  8
0
 62
     0
100
AcDbLine
 10
4.286623775129668
 20
3.618714182843318
 30
0.0
 11
4.618713775129663
 21
3.286614182843318
 31
0.0
  0
LINE
  5
270A
330
26C6
100
AcDbEntity
  8
0
 62
     0
100
AcDbLine
 10
4.618713775129663
 20
3.286614182843318
 30
0.0
 11
5.036263775129667
 21
3.074404182843319
 31
0.0
  0
LINE
  5
270B
330
26C6
100
AcDbEntity
  8
0
 62
     0
100
AcDbLine
 10
5.036263775129667
 20
3.074404182843319
 30
0.0
 11
5.500653775129648
 21
2.999994182843319
 31
0.0
  0
LINE
  5
270C
330
26C6
100
AcDbEntity
  8
0
 62
     0
100
AcDbLine
 10
5.500653775129648
 20
2.999994182843319
 30
0.0
 11
5.963673775129678
 21
3.074404182843319
 31
0.0
  0
LINE
  5
270D
330
26C6
100
AcDbEntity
  8
0
 62
     0
100
AcDbLine
 10
5.963673775129678
 20
3.074404182843319
 30
0.0
 11
6.381223775129683
 21
3.286614182843318
 31
0.0
  0
LINE
  5
270E
330
26C6
100
AcDbEntity
  8
0
 62
     0
100
AcDbLine
 10
6.381223775129683
 20
3.286614182843318
 30
0.0
 11
6.713333775129682
 21
3.618714182843318
 31
0.0
  0
LINE
  5
270F
330
26C6
100
AcDbEntity
  8
0
 62
     0
100
AcDbLine
 10
6.713333775129682
 20
3.618714182843318
 30
0.0
 11
6.926933775129667
 21
4.03626418284332
 31
0.0
  0
LINE
  5
2710
330
26C6
100
AcDbEntity
  8
0
 62
     0
100
AcDbLine
 10
6.926933775129667
 20
4.03626418284332
 30
0.0
 11
6.999963775129684
 21
4.499284182843322
 31
0.0
  0
LINE
  5
2711
330
26C6
100
AcDbEntity
  8
0
 62
     0
100
AcDbLine
 10
6.999963775129684
 20
4.499284182843322
 30
0.0
 11
6.926933775129667
 21
4.963684182843318
 31
0.0
  0
LINE
  5
2712
330
26C6
100
AcDbEntity
  8
0
 62
     0
100
AcDbLine
 10
6.926933775129667
 20
4.963684182843318
 30
0.0
 11
6.713333775129682
 21
5.38122418284332
 31
0.0
  0
LINE
  5
2713
330
26C6
100
AcDbEntity
  8
0
 62
     0
100
AcDbLine
 10
6.713333775129682
 20
5.38122418284332
 30
0.0
 11
6.381223775129683
 21
5.71333418284332
 31
0.0
  0
LINE
  5
2714
330
26C6
100
AcDbEntity
  8
0
 62
     0
100
AcDbLine
 10
6.381223775129683
 20
5.71333418284332
 30
0.0
 11
5.963673775129678
 21
5.926944182843321
 31
0.0
  0
LINE
  5
2715
330
26C6
100
AcDbEntity
  8
0
 62
     0
100
AcDbLine
 10
5.963673775129678
 20
5.926944182843321
 30
0.0
 11
5.500653775129648
 21
5.999964182843321
 31
0.0
  0
LINE
  5
2716
330
26C6
100
AcDbEntity
  8
0
 62
     0
100
AcDbLine
 10
5.500653775129648
 20
5.999964182843321
 30
0.0
 11
5.036263775129667
 21
5.926944182843321
 31
0.0
  0
LINE
  5
2717
330
26C6
100
AcDbEntity
  8
0
 62
     0
100
AcDbLine
 10
280.4619137751297
 20
47.10145418284332
 30
0.0
 11
280.4619137751297
 21
28.05275418284331
 31
0.0
  0
LINE
  5
2718
330
26C6
100
AcDbEntity
  8
0
 62
     0
100
AcDbLine
 10
280.4619137751297
 20
28.05275418284331
 30
0.0
 11
261.4119137751298
 21
28.05275418284331
 31
0.0
  0
LINE
  5
2719
330
26C6
100
AcDbEntity
  8
0
 62
     0
100
AcDbLine
 10
261.4119137751298
 20
28.05275418284331
 30
0.0
 11
261.4119137751298
 21
8.999954182843318
 31
0.0
  0
LINE
  5
271A
330
26C6
100
AcDbEntity
  8
0
 62
     0
100
AcDbLine
 10
261.4119137751298
 20
8.999954182843318
 30
0.0
 11
318.5629137751297
 21
8.999954182843318
 31
0.0
  0
LINE
  5
271B
330
26C6
100
AcDbEntity
  8
0
 62
     0
100
AcDbLine
 10
318.5629137751297
 20
8.999954182843318
 30
0.0
 11
318.5629137751297
 21
28.05275418284331
 31
0.0
  0
LINE
  5
271C
330
26C6
100
AcDbEntity
  8
0
 62
     0
100
AcDbLine
 10
318.5629137751297
 20
28.05275418284331
 30
0.0
 11
299.5129137751296
 21
28.05275418284331
 31
0.0
  0
LINE
  5
271D
330
26C6
100
AcDbEntity
  8
0
 62
     0
100
AcDbLine
 10
299.5129137751296
 20
28.05275418284331
 30
0.0
 11
299.5129137751296
 21
47.10145418284332
 31
0.0
  0
LINE
  5
271E
330
26C6
100
AcDbEntity
  8
0
 62
     0
100
AcDbLine
 10
299.5129137751296
 20
47.10145418284332
 30
0.0
 11
280.4619137751297
 21
47.10145418284332
 31
0.0
  0
LINE
  5
271F
330
26C6
100
AcDbEntity
  8
0
 62
     0
100
AcDbLine
 10
323.3239137751298
 20
109.0149541828433
 30
0.0
 11
399.5259137751297
 21
109.0149541828433
 31
0.0
  0
LINE
  5
2720
330
26C6
100
AcDbEntity
  8
0
 62
     0
100
AcDbLine
 10
399.5259137751297
 20
109.0149541828433
 30
0.0
 11
399.5259137751297
 21
13.76245418284332
 31
0.0
  0
LINE
  5
2721
330
26C6
100
AcDbEntity
  8
0
 62
     0
100
AcDbLine
 10
399.5259137751297
 20
13.76245418284332
 30
0.0
 11
323.3239137751298
 21
13.76245418284332
 31
0.0
  0
LINE
  5
2722
330
26C6
100
AcDbEntity
  8
0
 62
     0
100
AcDbLine
 10
323.3239137751298
 20
13.76245418284332
 30
0.0
 11
323.3239137751298
 21
109.0149541828433
 31
0.0
  0
LINE
  5
2723
330
26C6
100
AcDbEntity
  8
0
 62
     0
100
AcDbLine
 10
8.998133775129645
 20
109.0149541828433
 30
0.0
 11
8.998133775129645
 21
89.96255418284333
 31
0.0
  0
LINE
  5
2724
330
26C6
100
AcDbEntity
  8
0
 62
     0
100
AcDbLine
 10
8.998133775129645
 20
89.96255418284333
 30
0.0
 11
8.999503775129651
 21
89.96255418284333
 31
0.0
  0
LINE
  5
2725
330
26C6
100
AcDbEntity
  8
0
 62
     0
100
AcDbLine
 10
8.999503775129651
 20
89.96255418284333
 30
0.0
 11
8.999503775129651
 21
70.91535418284331
 31
0.0
  0
LINE
  5
2726
330
26C6
100
AcDbEntity
  8
0
 62
     0
100
AcDbLine
 10
8.999503775129651
 20
70.91535418284331
 30
0.0
 11
8.998133775129645
 21
70.91535418284331
 31
0.0
  0
LINE
  5
2727
330
26C6
100
AcDbEntity
  8
0
 62
     0
100
AcDbLine
 10
8.998133775129645
 20
70.91535418284331
 30
0.0
 11
8.998133775129645
 21
51.86255418284332
 31
0.0
  0
LINE
  5
2728
330
26C6
100
AcDbEntity
  8
0
 62
     0
100
AcDbLine
 10
8.998133775129645
 20
51.86255418284332
 30
0.0
 11
8.999503775129651
 21
51.86255418284332
 31
0.0
  0
LINE
  5
2729
330
26C6
100
AcDbEntity
  8
0
 62
     0
100
AcDbLine
 10
8.999503775129651
 20
51.86255418284332
 30
0.0
 11
8.999503775129651
 21
13.76245418284332
 31
0.0
  0
LINE
  5
272A
330
26C6
100
AcDbEntity
  8
0
 62
     0
100
AcDbLine
 10
8.999503775129651
 20
13.76245418284332
 30
0.0
 11
37.57581377512969
 21
13.76245418284332
 31
0.0
  0
LINE
  5
272B
330
26C6
100
AcDbEntity
  8
0
 62
     0
100
AcDbLine
 10
37.57581377512969
 20
13.76245418284332
 30
0.0
 11
37.57581377512969
 21
32.81245418284332
 31
0.0
  0
LINE
  5
272C
330
26C6
100
AcDbEntity
  8
0
 62
     0
100
AcDbLine
 10
37.57581377512969
 20
32.81245418284332
 30
0.0
 11
56.62441377512966
 21
32.81245418284332
 31
0.0
  0
LINE
  5
272D
330
26C6
100
AcDbEntity
  8
0
 62
     0
100
AcDbLine
 10
56.62441377512966
 20
32.81245418284332
 30
0.0
 11
56.62441377512966
 21
13.76245418284332
 31
0.0
  0
LINE
  5
272E
330
26C6
100
AcDbEntity
  8
0
 62
     0
100
AcDbLine
 10
56.62441377512966
 20
13.76245418284332
 30
0.0
 11
256.6509137751296
 21
13.76245418284332
 31
0.0
  0
LINE
  5
272F
330
26C6
100
AcDbEntity
  8
0
 62
     0
100
AcDbLine
 10
256.6509137751296
 20
13.76245418284332
 30
0.0
 11
256.6509137751296
 21
32.81245418284332
 31
0.0
  0
LINE
  5
2730
330
26C6
100
AcDbEntity
  8
0
 62
     0
100
AcDbLine
 10
256.6509137751296
 20
32.81245418284332
 30
0.0
 11
275.7009137751297
 21
32.81245418284332
 31
0.0
  0
LINE
  5
2731
330
26C6
100
AcDbEntity
  8
0
 62
     0
100
AcDbLine
 10
275.7009137751297
 20
32.81245418284332
 30
0.0
 11
275.7009137751297
 21
51.86255418284332
 31
0.0
  0
LINE
  5
2732
330
26C6
100
AcDbEntity
  8
0
 62
     0
100
AcDbLine
 10
275.7009137751297
 20
51.86255418284332
 30
0.0
 11
294.7509137751297
 21
51.86255418284332
 31
0.0
  0
LINE
  5
2733
330
26C6
100
AcDbEntity
  8
0
 62
     0
100
AcDbLine
 10
294.7509137751297
 20
51.86255418284332
 30
0.0
 11
294.7509137751297
 21
109.0149541828433
 31
0.0
  0
LINE
  5
2734
330
26C6
100
AcDbEntity
  8
0
 62
     0
100
AcDbLine
 10
294.7509137751297
 20
109.0149541828433
 30
0.0
 11
8.998133775129645
 21
109.0149541828433
 31
0.0
  0
LINE
  5
2735
330
26C6
100
AcDbEntity
  8
0
 62
     0
100
AcDbLine
 10
299.5119137751296
 20
109.0149541828433
 30
0.0
 11
318.5629137751297
 21
109.0149541828433
 31
0.0
  0
LINE
  5
2736
330
26C6
100
AcDbEntity
  8
0
 62
     0
100
AcDbLine
 10
318.5629137751297
 20
109.0149541828433
 30
0.0
 11
318.5629137751297
 21
51.86255418284332
 31
0.0
  0
LINE
  5
2737
330
26C6
100
AcDbEntity
  8
0
 62
     0
100
AcDbLine
 10
318.5629137751297
 20
51.86255418284332
 30
0.0
 11
299.5119137751296
 21
51.86255418284332
 31
0.0
  0
LINE
  5
2738
330
26C6
100
AcDbEntity
  8
0
 62
     0
100
AcDbLine
 10
299.5119137751296
 20
51.86255418284332
 30
0.0
 11
299.5119137751296
 21
109.0149541828433
 31
0.0
  0
LINE
  5
2739
330
26C6
100
AcDbEntity
  8
0
 62
     0
100
AcDbLine
 10
323.3239137751298
 20
132.8279541828433
 30
0.0
 11
399.5259137751297
 21
132.8279541828433
 31
0.0
  0
LINE
  5
273A
330
26C6
100
AcDbEntity
  8
0
 62
     0
100
AcDbLine
 10
399.5259137751297
 20
132.8279541828433
 30
0.0
 11
399.5259137751297
 21
113.7749541828433
 31
0.0
  0
LINE
  5
273B
330
26C6
100
AcDbEntity
  8
0
 62
     0
100
AcDbLine
 10
399.5259137751297
 20
113.7749541828433
 30
0.0
 11
323.3239137751298
 21
113.7749541828433
 31
0.0
  0
LINE
  5
273C
330
26C6
100
AcDbEntity
  8
0
 62
     0
100
AcDbLine
 10
323.3239137751298
 20
113.7749541828433
 30
0.0
 11
323.3239137751298
 21
132.8279541828433
 31
0.0
  0
LINE
  5
273D
330
26C6
100
AcDbEntity
  8
0
 62
     0
100
AcDbLine
 10
299.5119137751296
 20
132.8279541828433
 30
0.0
 11
318.5629137751297
 21
132.8279541828433
 31
0.0
  0
LINE
  5
273E
330
26C6
100
AcDbEntity
  8
0
 62
     0
100
AcDbLine
 10
318.5629137751297
 20
132.8279541828433
 30
0.0
 11
318.5629137751297
 21
113.7749541828433
 31
0.0
  0
LINE
  5
273F
330
26C6
100
AcDbEntity
  8
0
 62
     0
100
AcDbLine
 10
318.5629137751297
 20
113.7749541828433
 30
0.0
 11
299.5119137751296
 21
113.7749541828433
 31
0.0
  0
LINE
  5
2740
330
26C6
100
AcDbEntity
  8
0
 62
     0
100
AcDbLine
 10
299.5119137751296
 20
113.7749541828433
 30
0.0
 11
299.5119137751296
 21
132.8279541828433
 31
0.0
  0
LINE
  5
2741
330
26C6
100
AcDbEntity
  8
0
 62
     0
100
AcDbLine
 10
275.6989137751298
 20
132.8279541828433
 30
0.0
 11
294.7509137751297
 21
132.8279541828433
 31
0.0
  0
LINE
  5
2742
330
26C6
100
AcDbEntity
  8
0
 62
     0
100
AcDbLine
 10
294.7509137751297
 20
132.8279541828433
 30
0.0
 11
294.7509137751297
 21
113.7749541828433
 31
0.0
  0
LINE
  5
2743
330
26C6
100
AcDbEntity
  8
0
 62
     0
100
AcDbLine
 10
294.7509137751297
 20
113.7749541828433
 30
0.0
 11
275.6989137751298
 21
113.7749541828433
 31
0.0
  0
LINE
  5
2744
330
26C6
100
AcDbEntity
  8
0
 62
     0
100
AcDbLine
 10
275.6989137751298
 20
113.7749541828433
 30
0.0
 11
275.6989137751298
 21
132.8279541828433
 31
0.0
  0
LINE
  5
2745
330
26C6
100
AcDbEntity
  8
0
 62
     0
100
AcDbLine
 10
194.7369137751296
 20
132.8279541828433
 30
0.0
 11
270.9379137751297
 21
132.8279541828433
 31
0.0
  0
LINE
  5
2746
330
26C6
100
AcDbEntity
  8
0
 62
     0
100
AcDbLine
 10
270.9379137751297
 20
132.8279541828433
 30
0.0
 11
270.9379137751297
 21
113.7749541828433
 31
0.0
  0
LINE
  5
2747
330
26C6
100
AcDbEntity
  8
0
 62
     0
100
AcDbLine
 10
270.9379137751297
 20
113.7749541828433
 30
0.0
 11
194.7369137751296
 21
113.7749541828433
 31
0.0
  0
LINE
  5
2748
330
26C6
100
AcDbEntity
  8
0
 62
     0
100
AcDbLine
 10
194.7369137751296
 20
113.7749541828433
 30
0.0
 11
194.7369137751296
 21
132.8279541828433
 31
0.0
  0
LINE
  5
2749
330
26C6
100
AcDbEntity
  8
0
 62
     0
100
AcDbLine
 10
113.7739137751297
 20
132.8279541828433
 30
0.0
 11
189.9759137751297
 21
132.8279541828433
 31
0.0
  0
LINE
  5
274A
330
26C6
100
AcDbEntity
  8
0
 62
     0
100
AcDbLine
 10
189.9759137751297
 20
132.8279541828433
 30
0.0
 11
189.9759137751297
 21
113.7749541828433
 31
0.0
  0
LINE
  5
274B
330
26C6
100
AcDbEntity
  8
0
 62
     0
100
AcDbLine
 10
189.9759137751297
 20
113.7749541828433
 30
0.0
 11
113.7739137751297
 21
113.7749541828433
 31
0.0
  0
LINE
  5
274C
330
26C6
100
AcDbEntity
  8
0
 62
     0
100
AcDbLine
 10
113.7739137751297
 20
113.7749541828433
 30
0.0
 11
113.7739137751297
 21
132.8279541828433
 31
0.0
  0
LINE
  5
274D
330
26C6
100
AcDbEntity
  8
0
 62
     0
100
AcDbLine
 10
32.8120137751297
 20
132.8279541828433
 30
0.0
 11
109.0129137751296
 21
132.8279541828433
 31
0.0
  0
LINE
  5
274E
330
26C6
100
AcDbEntity
  8
0
 62
     0
100
AcDbLine
 10
109.0129137751296
 20
132.8279541828433
 30
0.0
 11
109.0129137751296
 21
113.7749541828433
 31
0.0
  0
LINE
  5
274F
330
26C6
100
AcDbEntity
  8
0
 62
     0
100
AcDbLine
 10
109.0129137751296
 20
113.7749541828433
 30
0.0
 11
32.8120137751297
 21
113.7749541828433
 31
0.0
  0
LINE
  5
2750
330
26C6
100
AcDbEntity
  8
0
 62
     0
100
AcDbLine
 10
32.8120137751297
 20
113.7749541828433
 30
0.0
 11
32.8120137751297
 21
132.8279541828433
 31
0.0
  0
LINE
  5
2751
330
26C6
100
AcDbEntity
  8
0
 62
     0
100
AcDbLine
 10
8.998133775129645
 20
132.8279541828433
 30
0.0
 11
28.05091377512969
 21
132.8279541828433
 31
0.0
  0
LINE
  5
2752
330
26C6
100
AcDbEntity
  8
0
 62
     0
100
AcDbLine
 10
28.05091377512969
 20
132.8279541828433
 30
0.0
 11
28.05091377512969
 21
113.7749541828433
 31
0.0
  0
LINE
  5
2753
330
26C6
100
AcDbEntity
  8
0
 62
     0
100
AcDbLine
 10
28.05091377512969
 20
113.7749541828433
 30
0.0
 11
8.998133775129645
 21
113.7749541828433
 31
0.0
  0
LINE
  5
2754
330
26C6
100
AcDbEntity
  8
0
 62
     0
100
AcDbLine
 10
8.998133775129645
 20
113.7749541828433
 30
0.0
 11
8.998133775129645
 21
132.8279541828433
 31
0.0
  0
LINE
  5
2755
330
26C6
100
AcDbEntity
  8
0
 62
     0
100
AcDbLine
 10
402.5599137751296
 20
138.7529541828433
 30
0.0
 11
402.1439137751297
 21
138.5399541828433
 31
0.0
  0
LINE
  5
2756
330
26C6
100
AcDbEntity
  8
0
 62
     0
100
AcDbLine
 10
402.1439137751297
 20
138.5399541828433
 30
0.0
 11
401.8119137751296
 21
138.2079541828433
 31
0.0
  0
LINE
  5
2757
330
26C6
100
AcDbEntity
  8
0
 62
     0
100
AcDbLine
 10
401.8119137751296
 20
138.2079541828433
 30
0.0
 11
401.6009137751296
 21
137.7899541828433
 31
0.0
  0
LINE
  5
2758
330
26C6
100
AcDbEntity
  8
0
 62
     0
100
AcDbLine
 10
401.6009137751296
 20
137.7899541828433
 30
0.0
 11
401.5259137751296
 21
137.3259541828433
 31
0.0
  0
LINE
  5
2759
330
26C6
100
AcDbEntity
  8
0
 62
     0
100
AcDbLine
 10
401.5259137751296
 20
137.3259541828433
 30
0.0
 11
401.6009137751296
 21
136.8629541828433
 31
0.0
  0
LINE
  5
275A
330
26C6
100
AcDbEntity
  8
0
 62
     0
100
AcDbLine
 10
401.6009137751296
 20
136.8629541828433
 30
0.0
 11
401.8119137751296
 21
136.4449541828433
 31
0.0
  0
LINE
  5
275B
330
26C6
100
AcDbEntity
  8
0
 62
     0
100
AcDbLine
 10
401.8119137751296
 20
136.4449541828433
 30
0.0
 11
402.1439137751297
 21
136.1129541828433
 31
0.0
  0
LINE
  5
275C
330
26C6
100
AcDbEntity
  8
0
 62
     0
100
AcDbLine
 10
402.1439137751297
 20
136.1129541828433
 30
0.0
 11
402.5599137751296
 21
135.8999541828433
 31
0.0
  0
LINE
  5
275D
330
26C6
100
AcDbEntity
  8
0
 62
     0
100
AcDbLine
 10
402.5599137751296
 20
135.8999541828433
 30
0.0
 11
403.0259137751295
 21
135.8269541828433
 31
0.0
  0
LINE
  5
275E
330
26C6
100
AcDbEntity
  8
0
 62
     0
100
AcDbLine
 10
403.0259137751295
 20
135.8269541828433
 30
0.0
 11
403.4879137751296
 21
135.8999541828433
 31
0.0
  0
LINE
  5
275F
330
26C6
100
AcDbEntity
  8
0
 62
     0
100
AcDbLine
 10
403.4879137751296
 20
135.8999541828433
 30
0.0
 11
403.9079137751297
 21
136.1129541828433
 31
0.0
  0
LINE
  5
2760
330
26C6
100
AcDbEntity
  8
0
 62
     0
100
AcDbLine
 10
403.9079137751297
 20
136.1129541828433
 30
0.0
 11
404.2389137751296
 21
136.4449541828433
 31
0.0
  0
LINE
  5
2761
330
26C6
100
AcDbEntity
  8
0
 62
     0
100
AcDbLine
 10
404.2389137751296
 20
136.4449541828433
 30
0.0
 11
404.4509137751297
 21
136.8629541828433
 31
0.0
  0
LINE
  5
2762
330
26C6
100
AcDbEntity
  8
0
 62
     0
100
AcDbLine
 10
404.4509137751297
 20
136.8629541828433
 30
0.0
 11
404.5289137751296
 21
137.3259541828433
 31
0.0
  0
LINE
  5
2763
330
26C6
100
AcDbEntity
  8
0
 62
     0
100
AcDbLine
 10
404.5289137751296
 20
137.3259541828433
 30
0.0
 11
404.4509137751297
 21
137.7899541828433
 31
0.0
  0
LINE
  5
2764
330
26C6
100
AcDbEntity
  8
0
 62
     0
100
AcDbLine
 10
404.4509137751297
 20
137.7899541828433
 30
0.0
 11
404.2389137751296
 21
138.2079541828433
 31
0.0
  0
LINE
  5
2765
330
26C6
100
AcDbEntity
  8
0
 62
     0
100
AcDbLine
 10
404.2389137751296
 20
138.2079541828433
 30
0.0
 11
403.9079137751297
 21
138.5399541828433
 31
0.0
  0
LINE
  5
2766
330
26C6
100
AcDbEntity
  8
0
 62
     0
100
AcDbLine
 10
403.9079137751297
 20
138.5399541828433
 30
0.0
 11
403.4879137751296
 21
138.7529541828433
 31
0.0
  0
LINE
  5
2767
330
26C6
100
AcDbEntity
  8
0
 62
     0
100
AcDbLine
 10
403.4879137751296
 20
138.7529541828433
 30
0.0
 11
403.0259137751295
 21
138.8269541828433
 31
0.0
  0
LINE
  5
2768
330
26C6
100
AcDbEntity
  8
0
 62
     0
100
AcDbLine
 10
403.0259137751295
 20
138.8269541828433
 30
0.0
 11
402.5599137751296
 21
138.7529541828433
 31
0.0
  0
LINE
  5
2769
330
26C6
100
AcDbEntity
  8
0
 62
     0
100
AcDbLine
 10
270.0539137751297
 20
138.7529541828433
 30
0.0
 11
269.6349137751297
 21
138.5399541828433
 31
0.0
  0
LINE
  5
276A
330
26C6
100
AcDbEntity
  8
0
 62
     0
100
AcDbLine
 10
269.6349137751297
 20
138.5399541828433
 30
0.0
 11
269.3039137751297
 21
138.2079541828433
 31
0.0
  0
LINE
  5
276B
330
26C6
100
AcDbEntity
  8
0
 62
     0
100
AcDbLine
 10
269.3039137751297
 20
138.2079541828433
 30
0.0
 11
269.0909137751296
 21
137.7899541828433
 31
0.0
  0
LINE
  5
276C
330
26C6
100
AcDbEntity
  8
0
 62
     0
100
AcDbLine
 10
269.0909137751296
 20
137.7899541828433
 30
0.0
 11
269.0179137751297
 21
137.3259541828433
 31
0.0
  0
LINE
  5
276D
330
26C6
100
AcDbEntity
  8
0
 62
     0
100
AcDbLine
 10
269.0179137751297
 20
137.3259541828433
 30
0.0
 11
269.0909137751296
 21
136.8629541828433
 31
0.0
  0
LINE
  5
276E
330
26C6
100
AcDbEntity
  8
0
 62
     0
100
AcDbLine
 10
269.0909137751296
 20
136.8629541828433
 30
0.0
 11
269.3039137751297
 21
136.4449541828433
 31
0.0
  0
LINE
  5
276F
330
26C6
100
AcDbEntity
  8
0
 62
     0
100
AcDbLine
 10
269.3039137751297
 20
136.4449541828433
 30
0.0
 11
269.6349137751297
 21
136.1129541828433
 31
0.0
  0
LINE
  5
2770
330
26C6
100
AcDbEntity
  8
0
 62
     0
100
AcDbLine
 10
269.6349137751297
 20
136.1129541828433
 30
0.0
 11
270.0539137751297
 21
135.8999541828433
 31
0.0
  0
LINE
  5
2771
330
26C6
100
AcDbEntity
  8
0
 62
     0
100
AcDbLine
 10
270.0539137751297
 20
135.8999541828433
 30
0.0
 11
270.5169137751298
 21
135.8269541828433
 31
0.0
  0
LINE
  5
2772
330
26C6
100
AcDbEntity
  8
0
 62
     0
100
AcDbLine
 10
270.5169137751298
 20
135.8269541828433
 30
0.0
 11
270.9799137751297
 21
135.8999541828433
 31
0.0
  0
LINE
  5
2773
330
26C6
100
AcDbEntity
  8
0
 62
     0
100
AcDbLine
 10
270.9799137751297
 20
135.8999541828433
 30
0.0
 11
271.3999137751297
 21
136.1129541828433
 31
0.0
  0
LINE
  5
2774
330
26C6
100
AcDbEntity
  8
0
 62
     0
100
AcDbLine
 10
271.3999137751297
 20
136.1129541828433
 30
0.0
 11
271.7309137751297
 21
136.4449541828433
 31
0.0
  0
LINE
  5
2775
330
26C6
100
AcDbEntity
  8
0
 62
     0
100
AcDbLine
 10
271.7309137751297
 20
136.4449541828433
 30
0.0
 11
271.9429137751297
 21
136.8629541828433
 31
0.0
  0
LINE
  5
2776
330
26C6
100
AcDbEntity
  8
0
 62
     0
100
AcDbLine
 10
271.9429137751297
 20
136.8629541828433
 30
0.0
 11
272.0179137751297
 21
137.3259541828433
 31
0.0
  0
LINE
  5
2777
330
26C6
100
AcDbEntity
  8
0
 62
     0
100
AcDbLine
 10
272.0179137751297
 20
137.3259541828433
 30
0.0
 11
271.9429137751297
 21
137.7899541828433
 31
0.0
  0
LINE
  5
2778
330
26C6
100
AcDbEntity
  8
0
 62
     0
100
AcDbLine
 10
271.9429137751297
 20
137.7899541828433
 30
0.0
 11
271.7309137751297
 21
138.2079541828433
 31
0.0
  0
LINE
  5
2779
330
26C6
100
AcDbEntity
  8
0
 62
     0
100
AcDbLine
 10
271.7309137751297
 20
138.2079541828433
 30
0.0
 11
271.3999137751297
 21
138.5399541828433
 31
0.0
  0
LINE
  5
277A
330
26C6
100
AcDbEntity
  8
0
 62
     0
100
AcDbLine
 10
271.3999137751297
 20
138.5399541828433
 30
0.0
 11
270.9799137751297
 21
138.7529541828433
 31
0.0
  0
LINE
  5
277B
330
26C6
100
AcDbEntity
  8
0
 62
     0
100
AcDbLine
 10
270.9799137751297
 20
138.7529541828433
 30
0.0
 11
270.5169137751298
 21
138.8269541828433
 31
0.0
  0
LINE
  5
277C
330
26C6
100
AcDbEntity
  8
0
 62
     0
100
AcDbLine
 10
270.5169137751298
 20
138.8269541828433
 30
0.0
 11
270.0539137751297
 21
138.7529541828433
 31
0.0
  0
LINE
  5
277D
330
26C6
100
AcDbEntity
  8
0
 62
     0
100
AcDbLine
 10
137.5459137751295
 20
138.7529541828433
 30
0.0
 11
137.1269137751296
 21
138.5399541828433
 31
0.0
  0
LINE
  5
277E
330
26C6
100
AcDbEntity
  8
0
 62
     0
100
AcDbLine
 10
137.1269137751296
 20
138.5399541828433
 30
0.0
 11
136.7959137751296
 21
138.2079541828433
 31
0.0
  0
LINE
  5
277F
330
26C6
100
AcDbEntity
  8
0
 62
     0
100
AcDbLine
 10
136.7959137751296
 20
138.2079541828433
 30
0.0
 11
136.5829137751296
 21
137.7899541828433
 31
0.0
  0
LINE
  5
2780
330
26C6
100
AcDbEntity
  8
0
 62
     0
100
AcDbLine
 10
136.5829137751296
 20
137.7899541828433
 30
0.0
 11
136.5079137751296
 21
137.3259541828433
 31
0.0
  0
LINE
  5
2781
330
26C6
100
AcDbEntity
  8
0
 62
     0
100
AcDbLine
 10
136.5079137751296
 20
137.3259541828433
 30
0.0
 11
136.5829137751296
 21
136.8629541828433
 31
0.0
  0
LINE
  5
2782
330
26C6
100
AcDbEntity
  8
0
 62
     0
100
AcDbLine
 10
136.5829137751296
 20
136.8629541828433
 30
0.0
 11
136.7959137751296
 21
136.4449541828433
 31
0.0
  0
LINE
  5
2783
330
26C6
100
AcDbEntity
  8
0
 62
     0
100
AcDbLine
 10
136.7959137751296
 20
136.4449541828433
 30
0.0
 11
137.1269137751296
 21
136.1129541828433
 31
0.0
  0
LINE
  5
2784
330
26C6
100
AcDbEntity
  8
0
 62
     0
100
AcDbLine
 10
137.1269137751296
 20
136.1129541828433
 30
0.0
 11
137.5459137751295
 21
135.8999541828433
 31
0.0
  0
LINE
  5
2785
330
26C6
100
AcDbEntity
  8
0
 62
     0
100
AcDbLine
 10
137.5459137751295
 20
135.8999541828433
 30
0.0
 11
138.0089137751297
 21
135.8269541828433
 31
0.0
  0
LINE
  5
2786
330
26C6
100
AcDbEntity
  8
0
 62
     0
100
AcDbLine
 10
138.0089137751297
 20
135.8269541828433
 30
0.0
 11
138.4719137751297
 21
135.8999541828433
 31
0.0
  0
LINE
  5
2787
330
26C6
100
AcDbEntity
  8
0
 62
     0
100
AcDbLine
 10
138.4719137751297
 20
135.8999541828433
 30
0.0
 11
138.8909137751296
 21
136.1129541828433
 31
0.0
  0
LINE
  5
2788
330
26C6
100
AcDbEntity
  8
0
 62
     0
100
AcDbLine
 10
138.8909137751296
 20
136.1129541828433
 30
0.0
 11
139.2229137751296
 21
136.4449541828433
 31
0.0
  0
LINE
  5
2789
330
26C6
100
AcDbEntity
  8
0
 62
     0
100
AcDbLine
 10
139.2229137751296
 20
136.4449541828433
 30
0.0
 11
139.4349137751296
 21
136.8629541828433
 31
0.0
  0
LINE
  5
278A
330
26C6
100
AcDbEntity
  8
0
 62
     0
100
AcDbLine
 10
139.4349137751296
 20
136.8629541828433
 30
0.0
 11
139.5079137751296
 21
137.3259541828433
 31
0.0
  0
LINE
  5
278B
330
26C6
100
AcDbEntity
  8
0
 62
     0
100
AcDbLine
 10
139.5079137751296
 20
137.3259541828433
 30
0.0
 11
139.4349137751296
 21
137.7899541828433
 31
0.0
  0
LINE
  5
278C
330
26C6
100
AcDbEntity
  8
0
 62
     0
100
AcDbLine
 10
139.4349137751296
 20
137.7899541828433
 30
0.0
 11
139.2229137751296
 21
138.2079541828433
 31
0.0
  0
LINE
  5
278D
330
26C6
100
AcDbEntity
  8
0
 62
     0
100
AcDbLine
 10
139.2229137751296
 20
138.2079541828433
 30
0.0
 11
138.8909137751296
 21
138.5399541828433
 31
0.0
  0
LINE
  5
278E
330
26C6
100
AcDbEntity
  8
0
 62
     0
100
AcDbLine
 10
138.8909137751296
 20
138.5399541828433
 30
0.0
 11
138.4719137751297
 21
138.7529541828433
 31
0.0
  0
LINE
  5
278F
330
26C6
100
AcDbEntity
  8
0
 62
     0
100
AcDbLine
 10
138.4719137751297
 20
138.7529541828433
 30
0.0
 11
138.0089137751297
 21
138.8269541828433
 31
0.0
  0
LINE
  5
2790
330
26C6
100
AcDbEntity
  8
0
 62
     0
100
AcDbLine
 10
138.0089137751297
 20
138.8269541828433
 30
0.0
 11
137.5459137751295
 21
138.7529541828433
 31
0.0
  0
LINE
  5
2791
330
26C6
100
AcDbEntity
  8
0
 62
     0
100
AcDbLine
 10
5.036263775129667
 20
138.7529541828433
 30
0.0
 11
4.618713775129663
 21
138.5399541828433
 31
0.0
  0
LINE
  5
2792
330
26C6
100
AcDbEntity
  8
0
 62
     0
100
AcDbLine
 10
4.618713775129663
 20
138.5399541828433
 30
0.0
 11
4.286623775129668
 21
138.2079541828433
 31
0.0
  0
LINE
  5
2793
330
26C6
100
AcDbEntity
  8
0
 62
     0
100
AcDbLine
 10
4.286623775129668
 20
138.2079541828433
 30
0.0
 11
4.073023775129684
 21
137.7899541828433
 31
0.0
  0
LINE
  5
2794
330
26C6
100
AcDbEntity
  8
0
 62
     0
100
AcDbLine
 10
4.073023775129684
 20
137.7899541828433
 30
0.0
 11
3.999983775129691
 21
137.3259541828433
 31
0.0
  0
LINE
  5
2795
330
26C6
100
AcDbEntity
  8
0
 62
     0
100
AcDbLine
 10
3.999983775129691
 20
137.3259541828433
 30
0.0
 11
4.073023775129684
 21
136.8629541828433
 31
0.0
  0
LINE
  5
2796
330
26C6
100
AcDbEntity
  8
0
 62
     0
100
AcDbLine
 10
4.073023775129684
 20
136.8629541828433
 30
0.0
 11
4.286623775129668
 21
136.4449541828433
 31
0.0
  0
LINE
  5
2797
330
26C6
100
AcDbEntity
  8
0
 62
     0
100
AcDbLine
 10
4.286623775129668
 20
136.4449541828433
 30
0.0
 11
4.618713775129663
 21
136.1129541828433
 31
0.0
  0
LINE
  5
2798
330
26C6
100
AcDbEntity
  8
0
 62
     0
100
AcDbLine
 10
4.618713775129663
 20
136.1129541828433
 30
0.0
 11
5.036263775129667
 21
135.8999541828433
 31
0.0
  0
LINE
  5
2799
330
26C6
100
AcDbEntity
  8
0
 62
     0
100
AcDbLine
 10
5.036263775129667
 20
135.8999541828433
 30
0.0
 11
5.500653775129648
 21
135.8269541828433
 31
0.0
  0
LINE
  5
279A
330
26C6
100
AcDbEntity
  8
0
 62
     0
100
AcDbLine
 10
5.500653775129648
 20
135.8269541828433
 30
0.0
 11
5.963673775129678
 21
135.8999541828433
 31
0.0
  0
LINE
  5
279B
330
26C6
100
AcDbEntity
  8
0
 62
     0
100
AcDbLine
 10
5.963673775129678
 20
135.8999541828433
 30
0.0
 11
6.381223775129683
 21
136.1129541828433
 31
0.0
  0
LINE
  5
279C
330
26C6
100
AcDbEntity
  8
0
 62
     0
100
AcDbLine
 10
6.381223775129683
 20
136.1129541828433
 30
0.0
 11
6.713333775129682
 21
136.4449541828433
 31
0.0
  0
LINE
  5
279D
330
26C6
100
AcDbEntity
  8
0
 62
     0
100
AcDbLine
 10
6.713333775129682
 20
136.4449541828433
 30
0.0
 11
6.926933775129667
 21
136.8629541828433
 31
0.0
  0
LINE
  5
279E
330
26C6
100
AcDbEntity
  8
0
 62
     0
100
AcDbLine
 10
6.926933775129667
 20
136.8629541828433
 30
0.0
 11
6.999963775129684
 21
137.3259541828433
 31
0.0
  0
LINE
  5
279F
330
26C6
100
AcDbEntity
  8
0
 62
     0
100
AcDbLine
 10
6.999963775129684
 20
137.3259541828433
 30
0.0
 11
6.926933775129667
 21
137.7899541828433
 31
0.0
  0
LINE
  5
27A0
330
26C6
100
AcDbEntity
  8
0
 62
     0
100
AcDbLine
 10
6.926933775129667
 20
137.7899541828433
 30
0.0
 11
6.713333775129682
 21
138.2079541828433
 31
0.0
  0
LINE
  5
27A1
330
26C6
100
AcDbEntity
  8
0
 62
     0
100
AcDbLine
 10
6.713333775129682
 20
138.2079541828433
 30
0.0
 11
6.381223775129683
 21
138.5399541828433
 31
0.0
  0
LINE
  5
27A2
330
26C6
100
AcDbEntity
  8
0
 62
     0
100
AcDbLine
 10
6.381223775129683
 20
138.5399541828433
 30
0.0
 11
5.963673775129678
 21
138.7529541828433
 31
0.0
  0
LINE
  5
27A3
330
26C6
100
AcDbEntity
  8
0
 62
     0
100
AcDbLine
 10
5.963673775129678
 20
138.7529541828433
 30
0.0
 11
5.500653775129648
 21
138.8269541828433
 31
0.0
  0
LINE
  5
27A4
330
26C6
100
AcDbEntity
  8
0
 62
     0
100
AcDbLine
 10
5.500653775129648
 20
138.8269541828433
 30
0.0
 11
5.036263775129667
 21
138.7529541828433
 31
0.0
  0
LINE
  5
27A5
330
26C6
100
AcDbEntity
  8
0
 62
     0
100
AcDbLine
 10
408.5269137751295
 20
139.8269152633033
 30
0.0
 11
408.5269137751295
 21
3.000001182843333
 31
0.0
  0
ARC
  5
27A6
330
26C6
100
AcDbEntity
  8
0
  6
Continuous
100
AcDbCircle
 10
405.5269137751296
 20
139.8269152633033
 30
0.0
 40
3.0
100
AcDbArc
 50
0.0
 51
90.0007433036402
  0
ARC
  5
27A7
330
26C6
100
AcDbEntity
  8
0
 62
     0
100
AcDbCircle
 10
405.5269137751296
 20
3.000001182843305
 30
0.0
 40
3.0
100
AcDbArc
 50
270.0
 51
0.0
  0
ARC
  5
27A8
330
26C6
100
AcDbEntity
  8
0
 62
     0
100
AcDbCircle
 10
2.99999837512979
 20
3.000001182843333
 30
0.0
 40
3.0
100
AcDbArc
 50
180.0
 51
270.0
  0
LINE
  5
27A9
330
26C6
100
AcDbEntity
  8
0
 62
     0
100
AcDbLine
 10
-0.0000016248702082
 20
3.000001182843333
 30
0.0
 11
-0.0000016248702082
 21
139.8259541828772
 31
0.0
  0
ARC
  5
27AA
330
26C6
100
AcDbEntity
  8
0
 62
     0
100
AcDbCircle
 10
2.99999837512979
 20
139.8259541828772
 30
0.0
 40
3.0
100
AcDbArc
 50
89.99999999805892
 51
180.0
  0
LINE
  5
27AB
330
26C6
100
AcDbEntity
  8
0
 62
     0
100
AcDbLine
 10
402.5615237751297
 20
3.072994182843331
 30
0.0
 11
403.0259137751295
 21
2.999994182843323
 31
0.0
  0
LINE
  5
27AC
330
26C6
100
AcDbEntity
  8
0
 62
     0
100
AcDbLine
 10
403.0259137751295
 20
2.999994182843323
 30
0.0
 11
403.4889337751295
 21
3.072994182843331
 31
0.0
  0
LINE
  5
27AD
330
26C6
100
AcDbEntity
  8
0
  6
Continuous
100
AcDbLine
 10
2.999998375231426
 20
142.8259541828771
 30
0.0
 11
405.5268748558419
 21
142.8269152630509
 31
0.0
  0
LINE
  5
27AE
330
26C6
100
AcDbEntity
  8
0
  6
Continuous
100
AcDbLine
 10
2.99999837512979
 20
0.0000011828433344
 30
0.0
 11
405.5269137751296
 21
0.000001182843306
 31
0.0
  0
LINE
  5
27AF
330
26C6
100
AcDbEntity
  8
0
 62
     0
100
AcDbLine
 10
402.917433095151
 20
152.9296631877269
 30
0.0
 11
402.5014330951511
 21
152.7160531877269
 31
0.0
  0
LINE
  5
27B0
330
26C6
100
AcDbEntity
  8
0
 62
     0
100
AcDbLine
 10
402.5014330951511
 20
152.7160531877269
 30
0.0
 11
402.1694330951508
 21
152.3839431877268
 31
0.0
  0
LINE
  5
27B1
330
26C6
100
AcDbEntity
  8
0
 62
     0
100
AcDbLine
 10
402.1694330951508
 20
152.3839431877268
 30
0.0
 11
401.9584330951508
 21
151.9664031877269
 31
0.0
  0
LINE
  5
27B2
330
26C6
100
AcDbEntity
  8
0
 62
     0
100
AcDbLine
 10
401.9584330951508
 20
151.9664031877269
 30
0.0
 11
401.8834330951509
 21
151.5020031877269
 31
0.0
  0
LINE
  5
27B3
330
26C6
100
AcDbEntity
  8
0
 62
     0
100
AcDbLine
 10
401.8834330951509
 20
151.5020031877269
 30
0.0
 11
401.9584330951508
 21
151.0389831877269
 31
0.0
  0
LINE
  5
27B4
330
26C6
100
AcDbEntity
  8
0
 62
     0
100
AcDbLine
 10
401.9584330951508
 20
151.0389831877269
 30
0.0
 11
402.1694330951508
 21
150.6214331877269
 31
0.0
  0
LINE
  5
27B5
330
26C6
100
AcDbEntity
  8
0
 62
     0
100
AcDbLine
 10
402.1694330951508
 20
150.6214331877269
 30
0.0
 11
402.5014330951511
 21
150.2893331877269
 31
0.0
  0
LINE
  5
27B6
330
26C6
100
AcDbEntity
  8
0
 62
     0
100
AcDbLine
 10
402.5014330951511
 20
150.2893331877269
 30
0.0
 11
402.917433095151
 21
150.0771231877269
 31
0.0
  0
LINE
  5
27B7
330
26C6
100
AcDbEntity
  8
0
 62
     0
100
AcDbLine
 10
402.917433095151
 20
150.0771231877269
 30
0.0
 11
403.3834330951511
 21
150.0027131877269
 31
0.0
  0
LINE
  5
27B8
330
26C6
100
AcDbEntity
  8
0
 62
     0
100
AcDbLine
 10
403.3834330951511
 20
150.0027131877269
 30
0.0
 11
403.8454330951512
 21
150.0771231877269
 31
0.0
  0
LINE
  5
27B9
330
26C6
100
AcDbEntity
  8
0
 62
     0
100
AcDbLine
 10
403.8454330951512
 20
150.0771231877269
 30
0.0
 11
404.2654330951511
 21
150.2893331877269
 31
0.0
  0
LINE
  5
27BA
330
26C6
100
AcDbEntity
  8
0
 62
     0
100
AcDbLine
 10
404.2654330951511
 20
150.2893331877269
 30
0.0
 11
404.5964330951511
 21
150.6214331877269
 31
0.0
  0
LINE
  5
27BB
330
26C6
100
AcDbEntity
  8
0
 62
     0
100
AcDbLine
 10
404.5964330951511
 20
150.6214331877269
 30
0.0
 11
404.8084330951511
 21
151.0389831877269
 31
0.0
  0
LINE
  5
27BC
330
26C6
100
AcDbEntity
  8
0
 62
     0
100
AcDbLine
 10
404.8084330951511
 20
151.0389831877269
 30
0.0
 11
404.8864330951511
 21
151.5020031877269
 31
0.0
  0
LINE
  5
27BD
330
26C6
100
AcDbEntity
  8
0
 62
     0
100
AcDbLine
 10
404.8864330951511
 20
151.5020031877269
 30
0.0
 11
404.8084330951511
 21
151.9664031877269
 31
0.0
  0
LINE
  5
27BE
330
26C6
100
AcDbEntity
  8
0
 62
     0
100
AcDbLine
 10
404.8084330951511
 20
151.9664031877269
 30
0.0
 11
404.5964330951511
 21
152.3839431877268
 31
0.0
  0
LINE
  5
27BF
330
26C6
100
AcDbEntity
  8
0
 62
     0
100
AcDbLine
 10
404.5964330951511
 20
152.3839431877268
 30
0.0
 11
404.2654330951511
 21
152.7160531877269
 31
0.0
  0
LINE
  5
27C0
330
26C6
100
AcDbEntity
  8
0
 62
     0
100
AcDbLine
 10
404.2654330951511
 20
152.7160531877269
 30
0.0
 11
403.8454330951512
 21
152.9296631877269
 31
0.0
  0
LINE
  5
27C1
330
26C6
100
AcDbEntity
  8
0
 62
     0
100
AcDbLine
 10
403.8454330951512
 20
152.9296631877269
 30
0.0
 11
403.3834330951511
 21
153.0026831877269
 31
0.0
  0
LINE
  5
27C2
330
26C6
100
AcDbEntity
  8
0
 62
     0
100
AcDbLine
 10
403.3834330951511
 20
153.0026831877269
 30
0.0
 11
402.917433095151
 21
152.9296631877269
 31
0.0
  0
LINE
  5
27C3
330
26C6
100
AcDbEntity
  8
0
 62
     0
100
AcDbLine
 10
270.4114330951511
 20
152.9296631877269
 30
0.0
 11
269.9924330951511
 21
152.7160531877269
 31
0.0
  0
LINE
  5
27C4
330
26C6
100
AcDbEntity
  8
0
 62
     0
100
AcDbLine
 10
269.9924330951511
 20
152.7160531877269
 30
0.0
 11
269.6614330951511
 21
152.3839431877268
 31
0.0
  0
LINE
  5
27C5
330
26C6
100
AcDbEntity
  8
0
 62
     0
100
AcDbLine
 10
269.6614330951511
 20
152.3839431877268
 30
0.0
 11
269.448433095151
 21
151.9664031877269
 31
0.0
  0
LINE
  5
27C6
330
26C6
100
AcDbEntity
  8
0
 62
     0
100
AcDbLine
 10
269.448433095151
 20
151.9664031877269
 30
0.0
 11
269.3754330951512
 21
151.5020031877269
 31
0.0
  0
LINE
  5
27C7
330
26C6
100
AcDbEntity
  8
0
 62
     0
100
AcDbLine
 10
269.3754330951512
 20
151.5020031877269
 30
0.0
 11
269.448433095151
 21
151.0389831877269
 31
0.0
  0
LINE
  5
27C8
330
26C6
100
AcDbEntity
  8
0
 62
     0
100
AcDbLine
 10
269.448433095151
 20
151.0389831877269
 30
0.0
 11
269.6614330951511
 21
150.6214331877269
 31
0.0
  0
LINE
  5
27C9
330
26C6
100
AcDbEntity
  8
0
 62
     0
100
AcDbLine
 10
269.6614330951511
 20
150.6214331877269
 30
0.0
 11
269.9924330951511
 21
150.2893331877269
 31
0.0
  0
LINE
  5
27CA
330
26C6
100
AcDbEntity
  8
0
 62
     0
100
AcDbLine
 10
269.9924330951511
 20
150.2893331877269
 30
0.0
 11
270.4114330951511
 21
150.0771231877269
 31
0.0
  0
LINE
  5
27CB
330
26C6
100
AcDbEntity
  8
0
 62
     0
100
AcDbLine
 10
270.4114330951511
 20
150.0771231877269
 30
0.0
 11
270.8744330951512
 21
150.0027131877269
 31
0.0
  0
LINE
  5
27CC
330
26C6
100
AcDbEntity
  8
0
 62
     0
100
AcDbLine
 10
270.8744330951512
 20
150.0027131877269
 30
0.0
 11
271.3374330951511
 21
150.0771231877269
 31
0.0
  0
LINE
  5
27CD
330
26C6
100
AcDbEntity
  8
0
 62
     0
100
AcDbLine
 10
271.3374330951511
 20
150.0771231877269
 30
0.0
 11
271.7574330951511
 21
150.2893331877269
 31
0.0
  0
LINE
  5
27CE
330
26C6
100
AcDbEntity
  8
0
 62
     0
100
AcDbLine
 10
271.7574330951511
 20
150.2893331877269
 30
0.0
 11
272.0884330951511
 21
150.6214331877269
 31
0.0
  0
LINE
  5
27CF
330
26C6
100
AcDbEntity
  8
0
 62
     0
100
AcDbLine
 10
272.0884330951511
 20
150.6214331877269
 30
0.0
 11
272.3004330951511
 21
151.0389831877269
 31
0.0
  0
LINE
  5
27D0
330
26C6
100
AcDbEntity
  8
0
 62
     0
100
AcDbLine
 10
272.3004330951511
 20
151.0389831877269
 30
0.0
 11
272.3754330951511
 21
151.5020031877269
 31
0.0
  0
LINE
  5
27D1
330
26C6
100
AcDbEntity
  8
0
 62
     0
100
AcDbLine
 10
272.3754330951511
 20
151.5020031877269
 30
0.0
 11
272.3004330951511
 21
151.9664031877269
 31
0.0
  0
LINE
  5
27D2
330
26C6
100
AcDbEntity
  8
0
 62
     0
100
AcDbLine
 10
272.3004330951511
 20
151.9664031877269
 30
0.0
 11
272.0884330951511
 21
152.3839431877268
 31
0.0
  0
LINE
  5
27D3
330
26C6
100
AcDbEntity
  8
0
 62
     0
100
AcDbLine
 10
272.0884330951511
 20
152.3839431877268
 30
0.0
 11
271.7574330951511
 21
152.7160531877269
 31
0.0
  0
LINE
  5
27D4
330
26C6
100
AcDbEntity
  8
0
 62
     0
100
AcDbLine
 10
271.7574330951511
 20
152.7160531877269
 30
0.0
 11
271.3374330951511
 21
152.9296631877269
 31
0.0
  0
LINE
  5
27D5
330
26C6
100
AcDbEntity
  8
0
 62
     0
100
AcDbLine
 10
271.3374330951511
 20
152.9296631877269
 30
0.0
 11
270.8744330951512
 21
153.0026831877269
 31
0.0
  0
LINE
  5
27D6
330
26C6
100
AcDbEntity
  8
0
 62
     0
100
AcDbLine
 10
270.8744330951512
 20
153.0026831877269
 30
0.0
 11
270.4114330951511
 21
152.9296631877269
 31
0.0
  0
LINE
  5
27D7
330
26C6
100
AcDbEntity
  8
0
 62
     0
100
AcDbLine
 10
137.903433095151
 20
152.9296631877269
 30
0.0
 11
137.4844330951511
 21
152.7160531877269
 31
0.0
  0
LINE
  5
27D8
330
26C6
100
AcDbEntity
  8
0
 62
     0
100
AcDbLine
 10
137.4844330951511
 20
152.7160531877269
 30
0.0
 11
137.153433095151
 21
152.3839431877268
 31
0.0
  0
LINE
  5
27D9
330
26C6
100
AcDbEntity
  8
0
 62
     0
100
AcDbLine
 10
137.153433095151
 20
152.3839431877268
 30
0.0
 11
136.9404330951511
 21
151.9664031877269
 31
0.0
  0
LINE
  5
27DA
330
26C6
100
AcDbEntity
  8
0
 62
     0
100
AcDbLine
 10
136.9404330951511
 20
151.9664031877269
 30
0.0
 11
136.865433095151
 21
151.5020031877269
 31
0.0
  0
LINE
  5
27DB
330
26C6
100
AcDbEntity
  8
0
 62
     0
100
AcDbLine
 10
136.865433095151
 20
151.5020031877269
 30
0.0
 11
136.9404330951511
 21
151.0389831877269
 31
0.0
  0
LINE
  5
27DC
330
26C6
100
AcDbEntity
  8
0
 62
     0
100
AcDbLine
 10
136.9404330951511
 20
151.0389831877269
 30
0.0
 11
137.153433095151
 21
150.6214331877269
 31
0.0
  0
LINE
  5
27DD
330
26C6
100
AcDbEntity
  8
0
 62
     0
100
AcDbLine
 10
137.153433095151
 20
150.6214331877269
 30
0.0
 11
137.4844330951511
 21
150.2893331877269
 31
0.0
  0
LINE
  5
27DE
330
26C6
100
AcDbEntity
  8
0
 62
     0
100
AcDbLine
 10
137.4844330951511
 20
150.2893331877269
 30
0.0
 11
137.903433095151
 21
150.0771231877269
 31
0.0
  0
LINE
  5
27DF
330
26C6
100
AcDbEntity
  8
0
 62
     0
100
AcDbLine
 10
137.903433095151
 20
150.0771231877269
 30
0.0
 11
138.3664330951511
 21
150.0027131877269
 31
0.0
  0
LINE
  5
27E0
330
26C6
100
AcDbEntity
  8
0
 62
     0
100
AcDbLine
 10
138.3664330951511
 20
150.0027131877269
 30
0.0
 11
138.8294330951511
 21
150.0771231877269
 31
0.0
  0
LINE
  5
27E1
330
26C6
100
AcDbEntity
  8
0
 62
     0
100
AcDbLine
 10
138.8294330951511
 20
150.0771231877269
 30
0.0
 11
139.2484330951511
 21
150.2893331877269
 31
0.0
  0
LINE
  5
27E2
330
26C6
100
AcDbEntity
  8
0
 62
     0
100
AcDbLine
 10
139.2484330951511
 20
150.2893331877269
 30
0.0
 11
139.5804330951511
 21
150.6214331877269
 31
0.0
  0
LINE
  5
27E3
330
26C6
100
AcDbEntity
  8
0
 62
     0
100
AcDbLine
 10
139.5804330951511
 20
150.6214331877269
 30
0.0
 11
139.7924330951511
 21
151.0389831877269
 31
0.0
  0
LINE
  5
27E4
330
26C6
100
AcDbEntity
  8
0
 62
     0
100
AcDbLine
 10
139.7924330951511
 20
151.0389831877269
 30
0.0
 11
139.865433095151
 21
151.5020031877269
 31
0.0
  0
LINE
  5
27E5
330
26C6
100
AcDbEntity
  8
0
 62
     0
100
AcDbLine
 10
139.865433095151
 20
151.5020031877269
 30
0.0
 11
139.7924330951511
 21
151.9664031877269
 31
0.0
  0
LINE
  5
27E6
330
26C6
100
AcDbEntity
  8
0
 62
     0
100
AcDbLine
 10
139.7924330951511
 20
151.9664031877269
 30
0.0
 11
139.5804330951511
 21
152.3839431877268
 31
0.0
  0
LINE
  5
27E7
330
26C6
100
AcDbEntity
  8
0
 62
     0
100
AcDbLine
 10
139.5804330951511
 20
152.3839431877268
 30
0.0
 11
139.2484330951511
 21
152.7160531877269
 31
0.0
  0
LINE
  5
27E8
330
26C6
100
AcDbEntity
  8
0
 62
     0
100
AcDbLine
 10
139.2484330951511
 20
152.7160531877269
 30
0.0
 11
138.8294330951511
 21
152.9296631877269
 31
0.0
  0
LINE
  5
27E9
330
26C6
100
AcDbEntity
  8
0
 62
     0
100
AcDbLine
 10
138.8294330951511
 20
152.9296631877269
 30
0.0
 11
138.3664330951511
 21
153.0026831877269
 31
0.0
  0
LINE
  5
27EA
330
26C6
100
AcDbEntity
  8
0
 62
     0
100
AcDbLine
 10
138.3664330951511
 20
153.0026831877269
 30
0.0
 11
137.903433095151
 21
152.9296631877269
 31
0.0
  0
LINE
  5
27EB
330
26C6
100
AcDbEntity
  8
0
 62
     0
100
AcDbLine
 10
5.393783095151093
 20
152.9296631877269
 30
0.0
 11
4.976233095151086
 21
152.7160531877269
 31
0.0
  0
LINE
  5
27EC
330
26C6
100
AcDbEntity
  8
0
 62
     0
100
AcDbLine
 10
4.976233095151086
 20
152.7160531877269
 30
0.0
 11
4.644143095151092
 21
152.3839431877268
 31
0.0
  0
LINE
  5
27ED
330
26C6
100
AcDbEntity
  8
0
 62
     0
100
AcDbLine
 10
4.644143095151092
 20
152.3839431877268
 30
0.0
 11
4.430543095151108
 21
151.9664031877269
 31
0.0
  0
LINE
  5
27EE
330
26C6
100
AcDbEntity
  8
0
 62
     0
100
AcDbLine
 10
4.430543095151108
 20
151.9664031877269
 30
0.0
 11
4.357503095151116
 21
151.5020031877269
 31
0.0
  0
LINE
  5
27EF
330
26C6
100
AcDbEntity
  8
0
 62
     0
100
AcDbLine
 10
4.357503095151116
 20
151.5020031877269
 30
0.0
 11
4.430543095151108
 21
151.0389831877269
 31
0.0
  0
LINE
  5
27F0
330
26C6
100
AcDbEntity
  8
0
 62
     0
100
AcDbLine
 10
4.430543095151108
 20
151.0389831877269
 30
0.0
 11
4.644143095151092
 21
150.6214331877269
 31
0.0
  0
LINE
  5
27F1
330
26C6
100
AcDbEntity
  8
0
 62
     0
100
AcDbLine
 10
4.644143095151092
 20
150.6214331877269
 30
0.0
 11
4.976233095151086
 21
150.2893331877269
 31
0.0
  0
LINE
  5
27F2
330
26C6
100
AcDbEntity
  8
0
 62
     0
100
AcDbLine
 10
4.976233095151086
 20
150.2893331877269
 30
0.0
 11
5.393783095151093
 21
150.0771231877269
 31
0.0
  0
LINE
  5
27F3
330
26C6
100
AcDbEntity
  8
0
 62
     0
100
AcDbLine
 10
5.393783095151093
 20
150.0771231877269
 30
0.0
 11
5.858173095151072
 21
150.0027131877269
 31
0.0
  0
LINE
  5
27F4
330
26C6
100
AcDbEntity
  8
0
 62
     0
100
AcDbLine
 10
5.858173095151072
 20
150.0027131877269
 30
0.0
 11
6.321193095151102
 21
150.0771231877269
 31
0.0
  0
LINE
  5
27F5
330
26C6
100
AcDbEntity
  8
0
 62
     0
100
AcDbLine
 10
6.321193095151102
 20
150.0771231877269
 30
0.0
 11
6.738743095151106
 21
150.2893331877269
 31
0.0
  0
LINE
  5
27F6
330
26C6
100
AcDbEntity
  8
0
 62
     0
100
AcDbLine
 10
6.738743095151106
 20
150.2893331877269
 30
0.0
 11
7.070853095151107
 21
150.6214331877269
 31
0.0
  0
LINE
  5
27F7
330
26C6
100
AcDbEntity
  8
0
 62
     0
100
AcDbLine
 10
7.070853095151107
 20
150.6214331877269
 30
0.0
 11
7.284453095151093
 21
151.0389831877269
 31
0.0
  0
LINE
  5
27F8
330
26C6
100
AcDbEntity
  8
0
 62
     0
100
AcDbLine
 10
7.284453095151093
 20
151.0389831877269
 30
0.0
 11
7.357483095151111
 21
151.5020031877269
 31
0.0
  0
LINE
  5
27F9
330
26C6
100
AcDbEntity
  8
0
 62
     0
100
AcDbLine
 10
7.357483095151111
 20
151.5020031877269
 30
0.0
 11
7.284453095151093
 21
151.9664031877269
 31
0.0
  0
LINE
  5
27FA
330
26C6
100
AcDbEntity
  8
0
 62
     0
100
AcDbLine
 10
7.284453095151093
 20
151.9664031877269
 30
0.0
 11
7.070853095151107
 21
152.3839431877268
 31
0.0
  0
LINE
  5
27FB
330
26C6
100
AcDbEntity
  8
0
 62
     0
100
AcDbLine
 10
7.070853095151107
 20
152.3839431877268
 30
0.0
 11
6.738743095151106
 21
152.7160531877269
 31
0.0
  0
LINE
  5
27FC
330
26C6
100
AcDbEntity
  8
0
 62
     0
100
AcDbLine
 10
6.738743095151106
 20
152.7160531877269
 30
0.0
 11
6.321193095151102
 21
152.9296631877269
 31
0.0
  0
LINE
  5
27FD
330
26C6
100
AcDbEntity
  8
0
 62
     0
100
AcDbLine
 10
6.321193095151102
 20
152.9296631877269
 30
0.0
 11
5.858173095151072
 21
153.0026831877269
 31
0.0
  0
LINE
  5
27FE
330
26C6
100
AcDbEntity
  8
0
 62
     0
100
AcDbLine
 10
5.858173095151072
 20
153.0026831877269
 30
0.0
 11
5.393783095151093
 21
152.9296631877269
 31
0.0
  0
LINE
  5
27FF
330
26C6
100
AcDbEntity
  8
0
 62
     0
100
AcDbLine
 10
402.917433095151
 20
285.7556731877269
 30
0.0
 11
402.5014330951511
 21
285.5426731877269
 31
0.0
  0
LINE
  5
2800
330
26C6
100
AcDbEntity
  8
0
 62
     0
100
AcDbLine
 10
402.5014330951511
 20
285.5426731877269
 30
0.0
 11
402.1694330951508
 21
285.2106731877269
 31
0.0
  0
LINE
  5
2801
330
26C6
100
AcDbEntity
  8
0
 62
     0
100
AcDbLine
 10
402.1694330951508
 20
285.2106731877269
 30
0.0
 11
401.9584330951508
 21
284.7926731877269
 31
0.0
  0
LINE
  5
2802
330
26C6
100
AcDbEntity
  8
0
 62
     0
100
AcDbLine
 10
401.9584330951508
 20
284.7926731877269
 30
0.0
 11
401.8834330951509
 21
284.3286731877268
 31
0.0
  0
LINE
  5
2803
330
26C6
100
AcDbEntity
  8
0
 62
     0
100
AcDbLine
 10
401.8834330951509
 20
284.3286731877268
 30
0.0
 11
401.9584330951508
 21
283.8656731877269
 31
0.0
  0
LINE
  5
2804
330
26C6
100
AcDbEntity
  8
0
 62
     0
100
AcDbLine
 10
401.9584330951508
 20
283.8656731877269
 30
0.0
 11
402.1694330951508
 21
283.4476731877269
 31
0.0
  0
LINE
  5
2805
330
26C6
100
AcDbEntity
  8
0
 62
     0
100
AcDbLine
 10
402.1694330951508
 20
283.4476731877269
 30
0.0
 11
402.5014330951511
 21
283.1156731877269
 31
0.0
  0
LINE
  5
2806
330
26C6
100
AcDbEntity
  8
0
 62
     0
100
AcDbLine
 10
402.5014330951511
 20
283.1156731877269
 30
0.0
 11
402.917433095151
 21
282.9026731877269
 31
0.0
  0
LINE
  5
2807
330
26C6
100
AcDbEntity
  8
0
 62
     0
100
AcDbLine
 10
402.917433095151
 20
282.9026731877269
 30
0.0
 11
403.3834330951511
 21
282.8296731877269
 31
0.0
  0
LINE
  5
2808
330
26C6
100
AcDbEntity
  8
0
 62
     0
100
AcDbLine
 10
403.3834330951511
 20
282.8296731877269
 30
0.0
 11
403.8454330951512
 21
282.9026731877269
 31
0.0
  0
LINE
  5
2809
330
26C6
100
AcDbEntity
  8
0
 62
     0
100
AcDbLine
 10
403.8454330951512
 20
282.9026731877269
 30
0.0
 11
404.2654330951511
 21
283.1156731877269
 31
0.0
  0
LINE
  5
280A
330
26C6
100
AcDbEntity
  8
0
 62
     0
100
AcDbLine
 10
404.2654330951511
 20
283.1156731877269
 30
0.0
 11
404.5964330951511
 21
283.4476731877269
 31
0.0
  0
LINE
  5
280B
330
26C6
100
AcDbEntity
  8
0
 62
     0
100
AcDbLine
 10
404.5964330951511
 20
283.4476731877269
 30
0.0
 11
404.8084330951511
 21
283.8656731877269
 31
0.0
  0
LINE
  5
280C
330
26C6
100
AcDbEntity
  8
0
 62
     0
100
AcDbLine
 10
404.8084330951511
 20
283.8656731877269
 30
0.0
 11
404.8864330951511
 21
284.3286731877268
 31
0.0
  0
LINE
  5
280D
330
26C6
100
AcDbEntity
  8
0
 62
     0
100
AcDbLine
 10
404.8864330951511
 20
284.3286731877268
 30
0.0
 11
404.8084330951511
 21
284.7926731877269
 31
0.0
  0
LINE
  5
280E
330
26C6
100
AcDbEntity
  8
0
 62
     0
100
AcDbLine
 10
404.8084330951511
 20
284.7926731877269
 30
0.0
 11
404.5964330951511
 21
285.2106731877269
 31
0.0
  0
LINE
  5
280F
330
26C6
100
AcDbEntity
  8
0
 62
     0
100
AcDbLine
 10
404.5964330951511
 20
285.2106731877269
 30
0.0
 11
404.2654330951511
 21
285.5426731877269
 31
0.0
  0
LINE
  5
2810
330
26C6
100
AcDbEntity
  8
0
 62
     0
100
AcDbLine
 10
404.2654330951511
 20
285.5426731877269
 30
0.0
 11
403.8454330951512
 21
285.7556731877269
 31
0.0
  0
LINE
  5
2811
330
26C6
100
AcDbEntity
  8
0
 62
     0
100
AcDbLine
 10
403.8454330951512
 20
285.7556731877269
 30
0.0
 11
403.3834330951511
 21
285.8296731877269
 31
0.0
  0
LINE
  5
2812
330
26C6
100
AcDbEntity
  8
0
 62
     0
100
AcDbLine
 10
403.3834330951511
 20
285.8296731877269
 30
0.0
 11
402.917433095151
 21
285.7556731877269
 31
0.0
  0
LINE
  5
2813
330
26C6
100
AcDbEntity
  8
0
 62
     0
100
AcDbLine
 10
270.4114330951511
 20
285.7556731877269
 30
0.0
 11
269.9924330951511
 21
285.5426731877269
 31
0.0
  0
LINE
  5
2814
330
26C6
100
AcDbEntity
  8
0
 62
     0
100
AcDbLine
 10
269.9924330951511
 20
285.5426731877269
 30
0.0
 11
269.6614330951511
 21
285.2106731877269
 31
0.0
  0
LINE
  5
2815
330
26C6
100
AcDbEntity
  8
0
 62
     0
100
AcDbLine
 10
269.6614330951511
 20
285.2106731877269
 30
0.0
 11
269.448433095151
 21
284.7926731877269
 31
0.0
  0
LINE
  5
2816
330
26C6
100
AcDbEntity
  8
0
 62
     0
100
AcDbLine
 10
269.448433095151
 20
284.7926731877269
 30
0.0
 11
269.3754330951512
 21
284.3286731877268
 31
0.0
  0
LINE
  5
2817
330
26C6
100
AcDbEntity
  8
0
 62
     0
100
AcDbLine
 10
269.3754330951512
 20
284.3286731877268
 30
0.0
 11
269.448433095151
 21
283.8656731877269
 31
0.0
  0
LINE
  5
2818
330
26C6
100
AcDbEntity
  8
0
 62
     0
100
AcDbLine
 10
269.448433095151
 20
283.8656731877269
 30
0.0
 11
269.6614330951511
 21
283.4476731877269
 31
0.0
  0
LINE
  5
2819
330
26C6
100
AcDbEntity
  8
0
 62
     0
100
AcDbLine
 10
269.6614330951511
 20
283.4476731877269
 30
0.0
 11
269.9924330951511
 21
283.1156731877269
 31
0.0
  0
LINE
  5
281A
330
26C6
100
AcDbEntity
  8
0
 62
     0
100
AcDbLine
 10
269.9924330951511
 20
283.1156731877269
 30
0.0
 11
270.4114330951511
 21
282.9026731877269
 31
0.0
  0
LINE
  5
281B
330
26C6
100
AcDbEntity
  8
0
 62
     0
100
AcDbLine
 10
270.4114330951511
 20
282.9026731877269
 30
0.0
 11
270.8744330951512
 21
282.8296731877269
 31
0.0
  0
LINE
  5
281C
330
26C6
100
AcDbEntity
  8
0
 62
     0
100
AcDbLine
 10
270.8744330951512
 20
282.8296731877269
 30
0.0
 11
271.3374330951511
 21
282.9026731877269
 31
0.0
  0
LINE
  5
281D
330
26C6
100
AcDbEntity
  8
0
 62
     0
100
AcDbLine
 10
271.3374330951511
 20
282.9026731877269
 30
0.0
 11
271.7574330951511
 21
283.1156731877269
 31
0.0
  0
LINE
  5
281E
330
26C6
100
AcDbEntity
  8
0
 62
     0
100
AcDbLine
 10
271.7574330951511
 20
283.1156731877269
 30
0.0
 11
272.0884330951511
 21
283.4476731877269
 31
0.0
  0
LINE
  5
281F
330
26C6
100
AcDbEntity
  8
0
 62
     0
100
AcDbLine
 10
272.0884330951511
 20
283.4476731877269
 30
0.0
 11
272.3004330951511
 21
283.8656731877269
 31
0.0
  0
LINE
  5
2820
330
26C6
100
AcDbEntity
  8
0
 62
     0
100
AcDbLine
 10
272.3004330951511
 20
283.8656731877269
 30
0.0
 11
272.3754330951511
 21
284.3286731877268
 31
0.0
  0
LINE
  5
2821
330
26C6
100
AcDbEntity
  8
0
 62
     0
100
AcDbLine
 10
272.3754330951511
 20
284.3286731877268
 30
0.0
 11
272.3004330951511
 21
284.7926731877269
 31
0.0
  0
LINE
  5
2822
330
26C6
100
AcDbEntity
  8
0
 62
     0
100
AcDbLine
 10
272.3004330951511
 20
284.7926731877269
 30
0.0
 11
272.0884330951511
 21
285.2106731877269
 31
0.0
  0
LINE
  5
2823
330
26C6
100
AcDbEntity
  8
0
 62
     0
100
AcDbLine
 10
272.0884330951511
 20
285.2106731877269
 30
0.0
 11
271.7574330951511
 21
285.5426731877269
 31
0.0
  0
LINE
  5
2824
330
26C6
100
AcDbEntity
  8
0
 62
     0
100
AcDbLine
 10
271.7574330951511
 20
285.5426731877269
 30
0.0
 11
271.3374330951511
 21
285.7556731877269
 31
0.0
  0
LINE
  5
2825
330
26C6
100
AcDbEntity
  8
0
 62
     0
100
AcDbLine
 10
271.3374330951511
 20
285.7556731877269
 30
0.0
 11
270.8744330951512
 21
285.8296731877269
 31
0.0
  0
LINE
  5
2826
330
26C6
100
AcDbEntity
  8
0
 62
     0
100
AcDbLine
 10
270.8744330951512
 20
285.8296731877269
 30
0.0
 11
270.4114330951511
 21
285.7556731877269
 31
0.0
  0
LINE
  5
2827
330
26C6
100
AcDbEntity
  8
0
 62
     0
100
AcDbLine
 10
137.903433095151
 20
285.7556731877269
 30
0.0
 11
137.4844330951511
 21
285.5426731877269
 31
0.0
  0
LINE
  5
2828
330
26C6
100
AcDbEntity
  8
0
 62
     0
100
AcDbLine
 10
137.4844330951511
 20
285.5426731877269
 30
0.0
 11
137.153433095151
 21
285.2106731877269
 31
0.0
  0
LINE
  5
2829
330
26C6
100
AcDbEntity
  8
0
 62
     0
100
AcDbLine
 10
137.153433095151
 20
285.2106731877269
 30
0.0
 11
136.9404330951511
 21
284.7926731877269
 31
0.0
  0
LINE
  5
282A
330
26C6
100
AcDbEntity
  8
0
 62
     0
100
AcDbLine
 10
136.9404330951511
 20
284.7926731877269
 30
0.0
 11
136.865433095151
 21
284.3286731877268
 31
0.0
  0
LINE
  5
282B
330
26C6
100
AcDbEntity
  8
0
 62
     0
100
AcDbLine
 10
136.865433095151
 20
284.3286731877268
 30
0.0
 11
136.9404330951511
 21
283.8656731877269
 31
0.0
  0
LINE
  5
282C
330
26C6
100
AcDbEntity
  8
0
 62
     0
100
AcDbLine
 10
136.9404330951511
 20
283.8656731877269
 30
0.0
 11
137.153433095151
 21
283.4476731877269
 31
0.0
  0
LINE
  5
282D
330
26C6
100
AcDbEntity
  8
0
 62
     0
100
AcDbLine
 10
137.153433095151
 20
283.4476731877269
 30
0.0
 11
137.4844330951511
 21
283.1156731877269
 31
0.0
  0
LINE
  5
282E
330
26C6
100
AcDbEntity
  8
0
 62
     0
100
AcDbLine
 10
137.4844330951511
 20
283.1156731877269
 30
0.0
 11
137.903433095151
 21
282.9026731877269
 31
0.0
  0
LINE
  5
282F
330
26C6
100
AcDbEntity
  8
0
 62
     0
100
AcDbLine
 10
137.903433095151
 20
282.9026731877269
 30
0.0
 11
138.3664330951511
 21
282.8296731877269
 31
0.0
  0
LINE
  5
2830
330
26C6
100
AcDbEntity
  8
0
 62
     0
100
AcDbLine
 10
138.3664330951511
 20
282.8296731877269
 30
0.0
 11
138.8294330951511
 21
282.9026731877269
 31
0.0
  0
LINE
  5
2831
330
26C6
100
AcDbEntity
  8
0
 62
     0
100
AcDbLine
 10
138.8294330951511
 20
282.9026731877269
 30
0.0
 11
139.2484330951511
 21
283.1156731877269
 31
0.0
  0
LINE
  5
2832
330
26C6
100
AcDbEntity
  8
0
 62
     0
100
AcDbLine
 10
139.2484330951511
 20
283.1156731877269
 30
0.0
 11
139.5804330951511
 21
283.4476731877269
 31
0.0
  0
LINE
  5
2833
330
26C6
100
AcDbEntity
  8
0
 62
     0
100
AcDbLine
 10
139.5804330951511
 20
283.4476731877269
 30
0.0
 11
139.7924330951511
 21
283.8656731877269
 31
0.0
  0
LINE
  5
2834
330
26C6
100
AcDbEntity
  8
0
 62
     0
100
AcDbLine
 10
139.7924330951511
 20
283.8656731877269
 30
0.0
 11
139.865433095151
 21
284.3286731877268
 31
0.0
  0
LINE
  5
2835
330
26C6
100
AcDbEntity
  8
0
 62
     0
100
AcDbLine
 10
139.865433095151
 20
284.3286731877268
 30
0.0
 11
139.7924330951511
 21
284.7926731877269
 31
0.0
  0
LINE
  5
2836
330
26C6
100
AcDbEntity
  8
0
 62
     0
100
AcDbLine
 10
139.7924330951511
 20
284.7926731877269
 30
0.0
 11
139.5804330951511
 21
285.2106731877269
 31
0.0
  0
LINE
  5
2837
330
26C6
100
AcDbEntity
  8
0
 62
     0
100
AcDbLine
 10
139.5804330951511
 20
285.2106731877269
 30
0.0
 11
139.2484330951511
 21
285.5426731877269
 31
0.0
  0
LINE
  5
2838
330
26C6
100
AcDbEntity
  8
0
 62
     0
100
AcDbLine
 10
139.2484330951511
 20
285.5426731877269
 30
0.0
 11
138.8294330951511
 21
285.7556731877269
 31
0.0
  0
LINE
  5
2839
330
26C6
100
AcDbEntity
  8
0
 62
     0
100
AcDbLine
 10
138.8294330951511
 20
285.7556731877269
 30
0.0
 11
138.3664330951511
 21
285.8296731877269
 31
0.0
  0
LINE
  5
283A
330
26C6
100
AcDbEntity
  8
0
 62
     0
100
AcDbLine
 10
138.3664330951511
 20
285.8296731877269
 30
0.0
 11
137.903433095151
 21
285.7556731877269
 31
0.0
  0
LINE
  5
283B
330
26C6
100
AcDbEntity
  8
0
 62
     0
100
AcDbLine
 10
5.393783095151093
 20
285.7556731877269
 30
0.0
 11
4.976233095151086
 21
285.5426731877269
 31
0.0
  0
LINE
  5
283C
330
26C6
100
AcDbEntity
  8
0
 62
     0
100
AcDbLine
 10
4.976233095151086
 20
285.5426731877269
 30
0.0
 11
4.644143095151092
 21
285.2106731877269
 31
0.0
  0
LINE
  5
283D
330
26C6
100
AcDbEntity
  8
0
 62
     0
100
AcDbLine
 10
4.644143095151092
 20
285.2106731877269
 30
0.0
 11
4.430543095151108
 21
284.7926731877269
 31
0.0
  0
LINE
  5
283E
330
26C6
100
AcDbEntity
  8
0
 62
     0
100
AcDbLine
 10
4.430543095151108
 20
284.7926731877269
 30
0.0
 11
4.357503095151116
 21
284.3286731877268
 31
0.0
  0
LINE
  5
283F
330
26C6
100
AcDbEntity
  8
0
 62
     0
100
AcDbLine
 10
4.357503095151116
 20
284.3286731877268
 30
0.0
 11
4.430543095151108
 21
283.8656731877269
 31
0.0
  0
LINE
  5
2840
330
26C6
100
AcDbEntity
  8
0
 62
     0
100
AcDbLine
 10
4.430543095151108
 20
283.8656731877269
 30
0.0
 11
4.644143095151092
 21
283.4476731877269
 31
0.0
  0
LINE
  5
2841
330
26C6
100
AcDbEntity
  8
0
 62
     0
100
AcDbLine
 10
4.644143095151092
 20
283.4476731877269
 30
0.0
 11
4.976233095151086
 21
283.1156731877269
 31
0.0
  0
LINE
  5
2842
330
26C6
100
AcDbEntity
  8
0
 62
     0
100
AcDbLine
 10
4.976233095151086
 20
283.1156731877269
 30
0.0
 11
5.393783095151093
 21
282.9026731877269
 31
0.0
  0
LINE
  5
2843
330
26C6
100
AcDbEntity
  8
0
 62
     0
100
AcDbLine
 10
5.393783095151093
 20
282.9026731877269
 30
0.0
 11
5.858173095151072
 21
282.8296731877269
 31
0.0
  0
LINE
  5
2844
330
26C6
100
AcDbEntity
  8
0
 62
     0
100
AcDbLine
 10
5.858173095151072
 20
282.8296731877269
 30
0.0
 11
6.321193095151102
 21
282.9026731877269
 31
0.0
  0
LINE
  5
2845
330
26C6
100
AcDbEntity
  8
0
 62
     0
100
AcDbLine
 10
6.321193095151102
 20
282.9026731877269
 30
0.0
 11
6.738743095151106
 21
283.1156731877269
 31
0.0
  0
LINE
  5
2846
330
26C6
100
AcDbEntity
  8
0
 62
     0
100
AcDbLine
 10
6.738743095151106
 20
283.1156731877269
 30
0.0
 11
7.070853095151107
 21
283.4476731877269
 31
0.0
  0
LINE
  5
2847
330
26C6
100
AcDbEntity
  8
0
 62
     0
100
AcDbLine
 10
7.070853095151107
 20
283.4476731877269
 30
0.0
 11
7.284453095151093
 21
283.8656731877269
 31
0.0
  0
LINE
  5
2848
330
26C6
100
AcDbEntity
  8
0
 62
     0
100
AcDbLine
 10
7.284453095151093
 20
283.8656731877269
 30
0.0
 11
7.357483095151111
 21
284.3286731877268
 31
0.0
  0
LINE
  5
2849
330
26C6
100
AcDbEntity
  8
0
 62
     0
100
AcDbLine
 10
7.357483095151111
 20
284.3286731877268
 30
0.0
 11
7.284453095151093
 21
284.7926731877269
 31
0.0
  0
LINE
  5
284A
330
26C6
100
AcDbEntity
  8
0
 62
     0
100
AcDbLine
 10
7.284453095151093
 20
284.7926731877269
 30
0.0
 11
7.070853095151107
 21
285.2106731877269
 31
0.0
  0
LINE
  5
284B
330
26C6
100
AcDbEntity
  8
0
 62
     0
100
AcDbLine
 10
7.070853095151107
 20
285.2106731877269
 30
0.0
 11
6.738743095151106
 21
285.5426731877269
 31
0.0
  0
LINE
  5
284C
330
26C6
100
AcDbEntity
  8
0
 62
     0
100
AcDbLine
 10
6.738743095151106
 20
285.5426731877269
 30
0.0
 11
6.321193095151102
 21
285.7556731877269
 31
0.0
  0
LINE
  5
284D
330
26C6
100
AcDbEntity
  8
0
 62
     0
100
AcDbLine
 10
6.321193095151102
 20
285.7556731877269
 30
0.0
 11
5.858173095151072
 21
285.8296731877269
 31
0.0
  0
LINE
  5
284E
330
26C6
100
AcDbEntity
  8
0
 62
     0
100
AcDbLine
 10
5.858173095151072
 20
285.8296731877269
 30
0.0
 11
5.393783095151093
 21
285.7556731877269
 31
0.0
  0
LINE
  5
284F
330
26C6
100
AcDbEntity
  8
0
 62
     0
100
AcDbLine
 10
408.8844330951509
 20
286.8296342681869
 30
0.0
 11
408.8844330951509
 21
150.0027201877269
 31
0.0
  0
ARC
  5
2850
330
26C6
100
AcDbEntity
  8
0
  6
Continuous
100
AcDbCircle
 10
405.884433095151
 20
286.8296342681869
 30
0.0
 40
3.0
100
AcDbArc
 50
0.0
 51
90.0007433036402
  0
ARC
  5
2851
330
26C6
100
AcDbEntity
  8
0
 62
     0
100
AcDbCircle
 10
405.884433095151
 20
150.0027201877269
 30
0.0
 40
3.0
100
AcDbArc
 50
270.0
 51
0.0
  0
ARC
  5
2852
330
26C6
100
AcDbEntity
  8
0
 62
     0
100
AcDbCircle
 10
3.357517695151216
 20
150.0027201877269
 30
0.0
 40
3.0
100
AcDbArc
 50
180.0
 51
270.0
  0
LINE
  5
2853
330
26C6
100
AcDbEntity
  8
0
 62
     0
100
AcDbLine
 10
0.3575176951512162
 20
150.0027201877269
 30
0.0
 11
0.3575176951512162
 21
286.8286731877608
 31
0.0
  0
ARC
  5
2854
330
26C6
100
AcDbEntity
  8
0
 62
     0
100
AcDbCircle
 10
3.357517695151216
 20
286.8286731877608
 30
0.0
 40
3.0
100
AcDbArc
 50
89.99999999805892
 51
180.0
  0
LINE
  5
2855
330
26C6
100
AcDbEntity
  8
0
 62
     0
100
AcDbLine
 10
402.9190430951509
 20
150.0757131877269
 30
0.0
 11
403.3834330951511
 21
150.0027131877269
 31
0.0
  0
LINE
  5
2856
330
26C6
100
AcDbEntity
  8
0
 62
     0
100
AcDbLine
 10
403.3834330951511
 20
150.0027131877269
 30
0.0
 11
403.8464530951511
 21
150.0757131877269
 31
0.0
  0
LINE
  5
2857
330
26C6
100
AcDbEntity
  8
0
  6
Continuous
100
AcDbLine
 10
3.357517695252851
 20
289.8286731877608
 30
0.0
 11
405.8843941758635
 21
289.8296342679345
 31
0.0
  0
LINE
  5
2858
330
26C6
100
AcDbEntity
  8
0
  6
Continuous
100
AcDbLine
 10
3.357517695151216
 20
147.0027201877269
 30
0.0
 11
405.884433095151
 21
147.0027201877269
 31
0.0
  0
CIRCLE
  5
2859
330
26C6
100
AcDbEntity
  8
0
  6
Continuous
100
AcDbCircle
 10
88.36643309515114
 20
270.8296731877269
 30
0.0
 40
1.6
  0
CIRCLE
  5
285A
330
26C6
100
AcDbEntity
  8
0
  6
Continuous
100
AcDbCircle
 10
188.3664330951511
 20
270.8296731877269
 30
0.0
 40
1.6
  0
CIRCLE
  5
285B
330
26C6
100
AcDbEntity
  8
0
  6
Continuous
100
AcDbCircle
 10
220.8744330951512
 20
270.8296731877269
 30
0.0
 40
1.6
  0
CIRCLE
  5
285C
330
26C6
100
AcDbEntity
  8
0
  6
Continuous
100
AcDbCircle
 10
320.8744330951512
 20
270.8296731877269
 30
0.0
 40
1.6
  0
LINE
  5
285D
330
26C6
100
AcDbEntity
  8
0
 62
     0
100
AcDbLine
 10
281.4602045129643
 20
340.8870492443636
 30
0.0
 11
281.4602045129643
 21
321.8383492443637
 31
0.0
  0
LINE
  5
285E
330
26C6
100
AcDbEntity
  8
0
 62
     0
100
AcDbLine
 10
281.4602045129643
 20
321.8383492443637
 30
0.0
 11
262.4102045129644
 21
321.8383492443637
 31
0.0
  0
LINE
  5
285F
330
26C6
100
AcDbEntity
  8
0
 62
     0
100
AcDbLine
 10
262.4102045129644
 20
321.8383492443637
 30
0.0
 11
262.4102045129644
 21
302.7855492443636
 31
0.0
  0
LINE
  5
2860
330
26C6
100
AcDbEntity
  8
0
 62
     0
100
AcDbLine
 10
262.4102045129644
 20
302.7855492443636
 30
0.0
 11
319.5612045129643
 21
302.7855492443636
 31
0.0
  0
LINE
  5
2861
330
26C6
100
AcDbEntity
  8
0
 62
     0
100
AcDbLine
 10
319.5612045129643
 20
302.7855492443636
 30
0.0
 11
319.5612045129643
 21
321.8383492443637
 31
0.0
  0
LINE
  5
2862
330
26C6
100
AcDbEntity
  8
0
 62
     0
100
AcDbLine
 10
319.5612045129643
 20
321.8383492443637
 30
0.0
 11
300.5112045129643
 21
321.8383492443637
 31
0.0
  0
LINE
  5
2863
330
26C6
100
AcDbEntity
  8
0
 62
     0
100
AcDbLine
 10
300.5112045129643
 20
321.8383492443637
 30
0.0
 11
300.5112045129643
 21
340.8870492443636
 31
0.0
  0
LINE
  5
2864
330
26C6
100
AcDbEntity
  8
0
 62
     0
100
AcDbLine
 10
300.5112045129643
 20
340.8870492443636
 30
0.0
 11
281.4602045129643
 21
340.8870492443636
 31
0.0
  0
LINE
  5
2865
330
26C6
100
AcDbEntity
  8
0
 62
     0
100
AcDbLine
 10
324.3222045129644
 20
402.8005492443636
 30
0.0
 11
400.5242045129643
 21
402.8005492443636
 31
0.0
  0
LINE
  5
2866
330
26C6
100
AcDbEntity
  8
0
 62
     0
100
AcDbLine
 10
400.5242045129643
 20
402.8005492443636
 30
0.0
 11
400.5242045129643
 21
307.5480492443637
 31
0.0
  0
LINE
  5
2867
330
26C6
100
AcDbEntity
  8
0
 62
     0
100
AcDbLine
 10
400.5242045129643
 20
307.5480492443637
 30
0.0
 11
324.3222045129644
 21
307.5480492443637
 31
0.0
  0
LINE
  5
2868
330
26C6
100
AcDbEntity
  8
0
 62
     0
100
AcDbLine
 10
324.3222045129644
 20
307.5480492443637
 30
0.0
 11
324.3222045129644
 21
402.8005492443636
 31
0.0
  0
LINE
  5
2869
330
26C6
100
AcDbEntity
  8
0
 62
     0
100
AcDbLine
 10
9.996424512964267
 20
402.8005492443636
 30
0.0
 11
9.996424512964267
 21
383.7481492443636
 31
0.0
  0
LINE
  5
286A
330
26C6
100
AcDbEntity
  8
0
 62
     0
100
AcDbLine
 10
9.996424512964267
 20
383.7481492443636
 30
0.0
 11
9.997794512964274
 21
383.7481492443636
 31
0.0
  0
LINE
  5
286B
330
26C6
100
AcDbEntity
  8
0
 62
     0
100
AcDbLine
 10
9.997794512964274
 20
383.7481492443636
 30
0.0
 11
9.997794512964274
 21
364.7009492443637
 31
0.0
  0
LINE
  5
286C
330
26C6
100
AcDbEntity
  8
0
 62
     0
100
AcDbLine
 10
9.997794512964274
 20
364.7009492443637
 30
0.0
 11
9.996424512964267
 21
364.7009492443637
 31
0.0
  0
LINE
  5
286D
330
26C6
100
AcDbEntity
  8
0
 62
     0
100
AcDbLine
 10
9.996424512964267
 20
364.7009492443637
 30
0.0
 11
9.996424512964267
 21
345.6481492443637
 31
0.0
  0
LINE
  5
286E
330
26C6
100
AcDbEntity
  8
0
 62
     0
100
AcDbLine
 10
9.996424512964267
 20
345.6481492443637
 30
0.0
 11
9.997794512964274
 21
345.6481492443637
 31
0.0
  0
LINE
  5
286F
330
26C6
100
AcDbEntity
  8
0
 62
     0
100
AcDbLine
 10
9.997794512964274
 20
345.6481492443637
 30
0.0
 11
9.997794512964274
 21
307.5480492443637
 31
0.0
  0
LINE
  5
2870
330
26C6
100
AcDbEntity
  8
0
 62
     0
100
AcDbLine
 10
9.997794512964274
 20
307.5480492443637
 30
0.0
 11
38.57410451296431
 21
307.5480492443637
 31
0.0
  0
LINE
  5
2871
330
26C6
100
AcDbEntity
  8
0
 62
     0
100
AcDbLine
 10
38.57410451296431
 20
307.5480492443637
 30
0.0
 11
38.57410451296431
 21
326.5980492443636
 31
0.0
  0
LINE
  5
2872
330
26C6
100
AcDbEntity
  8
0
 62
     0
100
AcDbLine
 10
38.57410451296431
 20
326.5980492443636
 30
0.0
 11
57.62270451296427
 21
326.5980492443636
 31
0.0
  0
LINE
  5
2873
330
26C6
100
AcDbEntity
  8
0
 62
     0
100
AcDbLine
 10
57.62270451296427
 20
326.5980492443636
 30
0.0
 11
57.62270451296427
 21
307.5480492443637
 31
0.0
  0
LINE
  5
2874
330
26C6
100
AcDbEntity
  8
0
 62
     0
100
AcDbLine
 10
57.62270451296427
 20
307.5480492443637
 30
0.0
 11
257.6492045129644
 21
307.5480492443637
 31
0.0
  0
LINE
  5
2875
330
26C6
100
AcDbEntity
  8
0
 62
     0
100
AcDbLine
 10
257.6492045129644
 20
307.5480492443637
 30
0.0
 11
257.6492045129644
 21
326.5980492443636
 31
0.0
  0
LINE
  5
2876
330
26C6
100
AcDbEntity
  8
0
 62
     0
100
AcDbLine
 10
257.6492045129644
 20
326.5980492443636
 30
0.0
 11
276.6992045129644
 21
326.5980492443636
 31
0.0
  0
LINE
  5
2877
330
26C6
100
AcDbEntity
  8
0
 62
     0
100
AcDbLine
 10
276.6992045129644
 20
326.5980492443636
 30
0.0
 11
276.6992045129644
 21
345.6481492443637
 31
0.0
  0
LINE
  5
2878
330
26C6
100
AcDbEntity
  8
0
 62
     0
100
AcDbLine
 10
276.6992045129644
 20
345.6481492443637
 30
0.0
 11
295.7492045129643
 21
345.6481492443637
 31
0.0
  0
LINE
  5
2879
330
26C6
100
AcDbEntity
  8
0
 62
     0
100
AcDbLine
 10
295.7492045129643
 20
345.6481492443637
 30
0.0
 11
295.7492045129643
 21
402.8005492443636
 31
0.0
  0
LINE
  5
287A
330
26C6
100
AcDbEntity
  8
0
 62
     0
100
AcDbLine
 10
295.7492045129643
 20
402.8005492443636
 30
0.0
 11
9.996424512964267
 21
402.8005492443636
 31
0.0
  0
LINE
  5
287B
330
26C6
100
AcDbEntity
  8
0
 62
     0
100
AcDbLine
 10
300.5102045129643
 20
402.8005492443636
 30
0.0
 11
319.5612045129643
 21
402.8005492443636
 31
0.0
  0
LINE
  5
287C
330
26C6
100
AcDbEntity
  8
0
 62
     0
100
AcDbLine
 10
319.5612045129643
 20
402.8005492443636
 30
0.0
 11
319.5612045129643
 21
345.6481492443637
 31
0.0
  0
LINE
  5
287D
330
26C6
100
AcDbEntity
  8
0
 62
     0
100
AcDbLine
 10
319.5612045129643
 20
345.6481492443637
 30
0.0
 11
300.5102045129643
 21
345.6481492443637
 31
0.0
  0
LINE
  5
287E
330
26C6
100
AcDbEntity
  8
0
 62
     0
100
AcDbLine
 10
300.5102045129643
 20
345.6481492443637
 30
0.0
 11
300.5102045129643
 21
402.8005492443636
 31
0.0
  0
LINE
  5
287F
330
26C6
100
AcDbEntity
  8
0
 62
     0
100
AcDbLine
 10
324.3222045129644
 20
426.6135492443636
 30
0.0
 11
400.5242045129643
 21
426.6135492443636
 31
0.0
  0
LINE
  5
2880
330
26C6
100
AcDbEntity
  8
0
 62
     0
100
AcDbLine
 10
400.5242045129643
 20
426.6135492443636
 30
0.0
 11
400.5242045129643
 21
407.5605492443636
 31
0.0
  0
LINE
  5
2881
330
26C6
100
AcDbEntity
  8
0
 62
     0
100
AcDbLine
 10
400.5242045129643
 20
407.5605492443636
 30
0.0
 11
324.3222045129644
 21
407.5605492443636
 31
0.0
  0
LINE
  5
2882
330
26C6
100
AcDbEntity
  8
0
 62
     0
100
AcDbLine
 10
324.3222045129644
 20
407.5605492443636
 30
0.0
 11
324.3222045129644
 21
426.6135492443636
 31
0.0
  0
LINE
  5
2883
330
26C6
100
AcDbEntity
  8
0
 62
     0
100
AcDbLine
 10
300.5102045129643
 20
426.6135492443636
 30
0.0
 11
319.5612045129643
 21
426.6135492443636
 31
0.0
  0
LINE
  5
2884
330
26C6
100
AcDbEntity
  8
0
 62
     0
100
AcDbLine
 10
319.5612045129643
 20
426.6135492443636
 30
0.0
 11
319.5612045129643
 21
407.5605492443636
 31
0.0
  0
LINE
  5
2885
330
26C6
100
AcDbEntity
  8
0
 62
     0
100
AcDbLine
 10
319.5612045129643
 20
407.5605492443636
 30
0.0
 11
300.5102045129643
 21
407.5605492443636
 31
0.0
  0
LINE
  5
2886
330
26C6
100
AcDbEntity
  8
0
 62
     0
100
AcDbLine
 10
300.5102045129643
 20
407.5605492443636
 30
0.0
 11
300.5102045129643
 21
426.6135492443636
 31
0.0
  0
LINE
  5
2887
330
26C6
100
AcDbEntity
  8
0
 62
     0
100
AcDbLine
 10
276.6972045129644
 20
426.6135492443636
 30
0.0
 11
295.7492045129643
 21
426.6135492443636
 31
0.0
  0
LINE
  5
2888
330
26C6
100
AcDbEntity
  8
0
 62
     0
100
AcDbLine
 10
295.7492045129643
 20
426.6135492443636
 30
0.0
 11
295.7492045129643
 21
407.5605492443636
 31
0.0
  0
LINE
  5
2889
330
26C6
100
AcDbEntity
  8
0
 62
     0
100
AcDbLine
 10
295.7492045129643
 20
407.5605492443636
 30
0.0
 11
276.6972045129644
 21
407.5605492443636
 31
0.0
  0
LINE
  5
288A
330
26C6
100
AcDbEntity
  8
0
 62
     0
100
AcDbLine
 10
276.6972045129644
 20
407.5605492443636
 30
0.0
 11
276.6972045129644
 21
426.6135492443636
 31
0.0
  0
LINE
  5
288B
330
26C6
100
AcDbEntity
  8
0
 62
     0
100
AcDbLine
 10
195.7352045129643
 20
426.6135492443636
 30
0.0
 11
271.9362045129643
 21
426.6135492443636
 31
0.0
  0
LINE
  5
288C
330
26C6
100
AcDbEntity
  8
0
 62
     0
100
AcDbLine
 10
271.9362045129643
 20
426.6135492443636
 30
0.0
 11
271.9362045129643
 21
407.5605492443636
 31
0.0
  0
LINE
  5
288D
330
26C6
100
AcDbEntity
  8
0
 62
     0
100
AcDbLine
 10
271.9362045129643
 20
407.5605492443636
 30
0.0
 11
195.7352045129643
 21
407.5605492443636
 31
0.0
  0
LINE
  5
288E
330
26C6
100
AcDbEntity
  8
0
 62
     0
100
AcDbLine
 10
195.7352045129643
 20
407.5605492443636
 30
0.0
 11
195.7352045129643
 21
426.6135492443636
 31
0.0
  0
LINE
  5
288F
330
26C6
100
AcDbEntity
  8
0
 62
     0
100
AcDbLine
 10
114.7722045129643
 20
426.6135492443636
 30
0.0
 11
190.9742045129643
 21
426.6135492443636
 31
0.0
  0
LINE
  5
2890
330
26C6
100
AcDbEntity
  8
0
 62
     0
100
AcDbLine
 10
190.9742045129643
 20
426.6135492443636
 30
0.0
 11
190.9742045129643
 21
407.5605492443636
 31
0.0
  0
LINE
  5
2891
330
26C6
100
AcDbEntity
  8
0
 62
     0
100
AcDbLine
 10
190.9742045129643
 20
407.5605492443636
 30
0.0
 11
114.7722045129643
 21
407.5605492443636
 31
0.0
  0
LINE
  5
2892
330
26C6
100
AcDbEntity
  8
0
 62
     0
100
AcDbLine
 10
114.7722045129643
 20
407.5605492443636
 30
0.0
 11
114.7722045129643
 21
426.6135492443636
 31
0.0
  0
LINE
  5
2893
330
26C6
100
AcDbEntity
  8
0
 62
     0
100
AcDbLine
 10
33.81030451296431
 20
426.6135492443636
 30
0.0
 11
110.0112045129642
 21
426.6135492443636
 31
0.0
  0
LINE
  5
2894
330
26C6
100
AcDbEntity
  8
0
 62
     0
100
AcDbLine
 10
110.0112045129642
 20
426.6135492443636
 30
0.0
 11
110.0112045129642
 21
407.5605492443636
 31
0.0
  0
LINE
  5
2895
330
26C6
100
AcDbEntity
  8
0
 62
     0
100
AcDbLine
 10
110.0112045129642
 20
407.5605492443636
 30
0.0
 11
33.81030451296431
 21
407.5605492443636
 31
0.0
  0
LINE
  5
2896
330
26C6
100
AcDbEntity
  8
0
 62
     0
100
AcDbLine
 10
33.81030451296431
 20
407.5605492443636
 30
0.0
 11
33.81030451296431
 21
426.6135492443636
 31
0.0
  0
LINE
  5
2897
330
26C6
100
AcDbEntity
  8
0
 62
     0
100
AcDbLine
 10
9.996424512964267
 20
426.6135492443636
 30
0.0
 11
29.04920451296431
 21
426.6135492443636
 31
0.0
  0
LINE
  5
2898
330
26C6
100
AcDbEntity
  8
0
 62
     0
100
AcDbLine
 10
29.04920451296431
 20
426.6135492443636
 30
0.0
 11
29.04920451296431
 21
407.5605492443636
 31
0.0
  0
LINE
  5
2899
330
26C6
100
AcDbEntity
  8
0
 62
     0
100
AcDbLine
 10
29.04920451296431
 20
407.5605492443636
 30
0.0
 11
9.996424512964267
 21
407.5605492443636
 31
0.0
  0
LINE
  5
289A
330
26C6
100
AcDbEntity
  8
0
 62
     0
100
AcDbLine
 10
9.996424512964267
 20
407.5605492443636
 30
0.0
 11
9.996424512964267
 21
426.6135492443636
 31
0.0
  0
LINE
  5
289B
330
26C6
100
AcDbEntity
  8
0
 62
     0
100
AcDbLine
 10
409.5252045129641
 20
433.6125103248234
 30
0.0
 11
409.5252045129641
 21
296.7855962443636
 31
0.0
  0
ARC
  5
289C
330
26C6
100
AcDbEntity
  8
0
  6
Continuous
100
AcDbCircle
 10
406.5252045129642
 20
433.6125103248234
 30
0.0
 40
3.0
100
AcDbArc
 50
0.0
 51
90.0007433036402
  0
ARC
  5
289D
330
26C6
100
AcDbEntity
  8
0
 62
     0
100
AcDbCircle
 10
406.5252045129642
 20
296.7855962443636
 30
0.0
 40
3.0
100
AcDbArc
 50
270.0
 51
0.0
  0
ARC
  5
289E
330
26C6
100
AcDbEntity
  8
0
 62
     0
100
AcDbCircle
 10
3.998289112964413
 20
296.7855962443636
 30
0.0
 40
3.0
100
AcDbArc
 50
180.0
 51
270.0
  0
LINE
  5
289F
330
26C6
100
AcDbEntity
  8
0
 62
     0
100
AcDbLine
 10
0.9982891129644142
 20
296.7855962443636
 30
0.0
 11
0.9982891129644142
 21
433.6115492443973
 31
0.0
  0
ARC
  5
28A0
330
26C6
100
AcDbEntity
  8
0
 62
     0
100
AcDbCircle
 10
3.998289112964413
 20
433.6115492443973
 30
0.0
 40
3.0
100
AcDbArc
 50
89.99999999805892
 51
180.0
  0
LINE
  5
28A1
330
26C6
100
AcDbEntity
  8
0
  6
Continuous
100
AcDbLine
 10
3.998289113066049
 20
436.6115492443975
 30
0.0
 11
406.5251655936767
 21
436.6125103245711
 31
0.0
  0
LINE
  5
28A2
330
26C6
100
AcDbEntity
  8
0
  6
Continuous
100
AcDbLine
 10
3.998289112964413
 20
293.7855962443637
 30
0.0
 11
406.5252045129642
 21
293.7855962443637
 31
0.0
  0
LWPOLYLINE
  5
28A3
330
26C6
100
AcDbEntity
  8
0
  6
Continuous
100
AcDbPolyline
 90
        6
 70
     1
 43
0.0
 10
5.098944512964408
 20
433.53671037496
 10
3.69894451296443
 20
431.1118392443636
 10
5.098944512964408
 20
428.686968113767
 10
7.898944512964361
 20
428.686968113767
 10
9.298944512964453
 20
431.1118392443636
 10
7.898944512964361
 20
433.53671037496
  0
LWPOLYLINE
  5
28A4
330
26C6
100
AcDbEntity
  8
0
  6
Continuous
100
AcDbPolyline
 90
        6
 70
     1
 43
0.0
 10
5.098944512964408
 20
300.7097503749601
 10
3.69894451296443
 20
298.2848792443637
 10
5.098944512964408
 20
295.8600081137672
 10
7.898944512964361
 20
295.8600081137672
 10
9.298944512964453
 20
298.2848792443637
 10
7.898944512964361
 20
300.7097503749601
  0
LWPOLYLINE
  5
28A5
330
26C6
100
AcDbEntity
  8
0
  6
Continuous
100
AcDbPolyline
 90
        6
 70
     1
 43
0.0
 10
137.6072045129643
 20
300.7097503749601
 10
136.2072045129642
 20
298.2848792443637
 10
137.6072045129643
 20
295.8600081137672
 10
140.4072045129643
 20
295.8600081137672
 10
141.8072045129644
 20
298.2848792443637
 10
140.4072045129643
 20
300.7097503749601
  0
LWPOLYLINE
  5
28A6
330
26C6
100
AcDbEntity
  8
0
  6
Continuous
100
AcDbPolyline
 90
        6
 70
     1
 43
0.0
 10
270.1152045129644
 20
300.7097503749601
 10
268.7152045129646
 20
298.2848792443637
 10
270.1152045129644
 20
295.8600081137672
 10
272.9152045129644
 20
295.8600081137672
 10
274.3152045129644
 20
298.2848792443637
 10
272.9152045129644
 20
300.7097503749601
  0
LWPOLYLINE
  5
28A7
330
26C6
100
AcDbEntity
  8
0
  6
Continuous
100
AcDbPolyline
 90
        6
 70
     1
 43
0.0
 10
402.6242045129642
 20
300.7097503749601
 10
401.2242045129643
 20
298.2848792443637
 10
402.6242045129642
 20
295.8600081137672
 10
405.4242045129643
 20
295.8600081137672
 10
406.8242045129641
 20
298.2848792443637
 10
405.4242045129643
 20
300.7097503749601
  0
LWPOLYLINE
  5
28A8
330
26C6
100
AcDbEntity
  8
0
  6
Continuous
100
AcDbPolyline
 90
        6
 70
     1
 43
0.0
 10
402.6242045129642
 20
433.53671037496
 10
401.2242045129643
 20
431.1118392443636
 10
402.6242045129642
 20
428.686968113767
 10
405.4242045129643
 20
428.686968113767
 10
406.8242045129641
 20
431.1118392443636
 10
405.4242045129643
 20
433.53671037496
  0
LWPOLYLINE
  5
28A9
330
26C6
100
AcDbEntity
  8
0
  6
Continuous
100
AcDbPolyline
 90
        6
 70
     1
 43
0.0
 10
270.1152045129644
 20
433.53671037496
 10
268.7152045129646
 20
431.1118392443636
 10
270.1152045129644
 20
428.686968113767
 10
272.9152045129644
 20
428.686968113767
 10
274.3152045129644
 20
431.1118392443636
 10
272.9152045129644
 20
433.53671037496
  0
LWPOLYLINE
  5
28AA
330
26C6
100
AcDbEntity
  8
0
  6
Continuous
100
AcDbPolyline
 90
        6
 70
     1
 43
0.0
 10
137.6072045129643
 20
433.53671037496
 10
136.2072045129642
 20
431.1118392443636
 10
137.6072045129643
 20
428.686968113767
 10
140.4072045129643
 20
428.686968113767
 10
141.8072045129644
 20
431.1118392443636
 10
140.4072045129643
 20
433.53671037496
  0
ENDBLK
  5
28AE
330
26C6
100
AcDbEntity
  8
0
100
AcDbBlockEnd
  0
BLOCK
  5
28FE
330
28EE
100
AcDbEntity
  8
0
100
AcDbBlockBegin
  2
A$C65693bb1
 70
     0
 10
0.0
 20
0.0
 30
0.0
  3
A$C65693bb1
  1

  0
LINE
  5
28EF
330
28EE
100
AcDbEntity
  8
0
 62
     0
100
AcDbLine
 10
-0.0000006279643365
 20
118.825999709705
 30
0.0
 11
-0.0000006279643365
 21
2.999999709705036
 31
0.0
  0
LINE
  5
28F0
330
28EE
100
AcDbEntity
  8
0
 62
     0
100
AcDbLine
 10
388.5250293720356
 20
2.999999709705036
 30
0.0
 11
388.5250293720356
 21
118.825999709705
 31
0.0
  0
ARC
  5
28F1
330
28EE
100
AcDbEntity
  8
0
  6
Continuous
100
AcDbCircle
 10
385.5250293720356
 20
2.999999709705036
 30
0.0
 40
3.0
100
AcDbArc
 50
270.0
 51
0.0
  0
ARC
  5
28F2
330
28EE
100
AcDbEntity
  8
0
  6
Continuous
100
AcDbCircle
 10
385.5250293720356
 20
118.825999709705
 30
0.0
 40
3.0
100
AcDbArc
 50
0.0
 51
90.0
  0
LINE
  5
28F3
330
28EE
100
AcDbEntity
  8
0
  6
Continuous
100
AcDbLine
 10
316.4424795287549
 20
129.3267719685778
 30
0.0
 11
316.4424795287549
 21
121.825999709705
 31
0.0
  0
LINE
  5
28F4
330
28EE
100
AcDbEntity
  8
0
  6
Continuous
100
AcDbLine
 10
316.4424795287549
 20
122.825999709705
 30
0.0
 11
316.4424795287549
 21
122.825999709705
 31
0.0
  0
LINE
  5
28F5
330
28EE
100
AcDbEntity
  8
0
  6
Continuous
100
AcDbLine
 10
316.4424795287549
 20
121.825999709705
 30
0.0
 11
385.5250293720356
 21
121.825999709705
 31
0.0
  0
LINE
  5
28F6
330
28EE
100
AcDbEntity
  8
0
  6
Continuous
100
AcDbLine
 10
305.4424795287549
 20
121.8259997097032
 30
0.0
 11
305.4424795287549
 21
129.3267719685778
 31
0.0
  0
LINE
  5
28F7
330
28EE
100
AcDbEntity
  8
0
  6
Continuous
100
AcDbLine
 10
2.999999372035688
 20
121.825999709705
 30
0.0
 11
305.4424795287549
 21
121.8259997097032
 31
0.0
  0
ARC
  5
28F8
330
28EE
100
AcDbEntity
  8
0
  6
Continuous
100
AcDbCircle
 10
2.999999372035663
 20
118.825999709705
 30
0.0
 40
3.0
100
AcDbArc
 50
89.9999999999998
 51
180.0
  0
LINE
  5
28F9
330
28EE
100
AcDbEntity
  8
0
  6
Continuous
100
AcDbLine
 10
2.999999372035663
 20
-0.0000002902949632
 30
0.0
 11
385.5250293720356
 21
-0.0000002902949632
 31
0.0
  0
ARC
  5
28FA
330
28EE
100
AcDbEntity
  8
0
  6
Continuous
100
AcDbCircle
 10
2.999999372035663
 20
2.999999709705036
 30
0.0
 40
3.0
100
AcDbArc
 50
180.0
 51
270.0
  0
LINE
  5
28FB
330
28EE
100
AcDbEntity
  8
0
  6
Continuous
100
AcDbLine
 10
305.4424795287549
 20
129.3267719685778
 30
0.0
 11
316.4424795287549
 21
129.3267719685778
 31
0.0
  0
ENDBLK
  5
28FF
330
28EE
100
AcDbEntity
  8
0
100
AcDbBlockEnd
  0
ENDSEC
  0
SECTION
  2
ENTITIES
  0
LINE
  5
194E
330
6F
100
AcDbEntity
  8
0
  6
Continuous
100
AcDbLine
 10
343.2022053670051
 20
441.4797289691179
 30
0.0
 11
343.2022053670051
 21
433.9789567102451
 31
0.0
  0
LINE
  5
194F
330
6F
100
AcDbEntity
  8
0
  6
Continuous
100
AcDbLine
 10
343.2022053670051
 20
434.9789567102451
 30
0.0
 11
343.2022053670051
 21
434.9789567102451
 31
0.0
  0
LINE
  5
1951
330
6F
100
AcDbEntity
  8
0
  6
Continuous
100
AcDbLine
 10
332.2022053670051
 20
433.9789567102434
 30
0.0
 11
332.2022053670051
 21
441.4797289691179
 31
0.0
  0
LINE
  5
28C8
330
6F
100
AcDbEntity
  8
0
  6
Continuous
100
AcDbLine
 10
29.75972521028592
 20
433.9789567102451
 30
0.0
 11
332.2022053670051
 21
433.9789567102434
 31
0.0
  0
LINE
  5
28C9
330
6F
100
AcDbEntity
  8
0
 62
     0
100
AcDbLine
 10
26.7597252102859
 20
430.9789567102451
 30
0.0
 11
26.7597252102859
 21
315.1529567102452
 31
0.0
  0
LINE
  5
28CA
330
6F
100
AcDbEntity
  8
0
  6
Continuous
100
AcDbLine
 10
29.7597252102859
 20
312.1529567102452
 30
0.0
 11
412.2847552102858
 21
312.1529567102452
 31
0.0
  0
LINE
  5
28CB
330
6F
100
AcDbEntity
  8
0
 62
     0
100
AcDbLine
 10
415.2847552102858
 20
315.1529567102452
 30
0.0
 11
415.2847552102858
 21
430.9789567102451
 31
0.0
  0
LINE
  5
28CC
330
6F
100
AcDbEntity
  8
0
  6
Continuous
100
AcDbLine
 10
343.2022053670051
 20
433.9789567102451
 30
0.0
 11
412.2847552102858
 21
433.9789567102451
 31
0.0
  0
LINE
  5
28CF
330
6F
100
AcDbEntity
  8
0
  6
Continuous
100
AcDbLine
 10
332.2022053670051
 20
441.4797289691179
 30
0.0
 11
343.2022053670051
 21
441.4797289691179
 31
0.0
  0
ARC
  5
28D0
330
6F
100
AcDbEntity
  8
0
  6
Continuous
100
AcDbCircle
 10
29.7597252102859
 20
315.1529567102452
 30
0.0
 40
3.0
100
AcDbArc
 50
180.0
 51
270.0
  0
ARC
  5
28D1
330
6F
100
AcDbEntity
  8
0
  6
Continuous
100
AcDbCircle
 10
29.7597252102859
 20
430.9789567102451
 30
0.0
 40
3.0
100
AcDbArc
 50
89.99999999999969
 51
180.0
  0
ARC
  5
28D2
330
6F
100
AcDbEntity
  8
0
  6
Continuous
100
AcDbCircle
 10
412.2847552102858
 20
430.9789567102451
 30
0.0
 40
3.0
100
AcDbArc
 50
0.0
 51
90.0
  0
ARC
  5
28D3
330
6F
100
AcDbEntity
  8
0
  6
Continuous
100
AcDbCircle
 10
412.2847552102858
 20
315.1529567102452
 30
0.0
 40
3.0
100
AcDbArc
 50
270.0
 51
0.0
  0
LWPOLYLINE
  5
292B
330
6F
100
AcDbEntity
  8
0
  6
Continuous
100
AcDbPolyline
 90
        6
 70
     1
 43
0.0
 10
20.85949521028584
 20
441.9038278408415
 10
19.45949521028586
 20
439.478956710245
 10
20.85949521028584
 20
437.0540855796487
 10
23.65949521028586
 20
437.0540855796487
 10
25.05949521028583
 20
439.478956710245
 10
23.65949521028586
 20
441.9038278408415
  0
LWPOLYLINE
  5
292C
330
6F
100
AcDbEntity
  8
0
  6
Continuous
100
AcDbPolyline
 90
        6
 70
     1
 43
0.0
 10
20.85949521028584
 20
309.0768678408415
 10
19.45949521028586
 20
306.6519967102451
 10
20.85949521028584
 20
304.2271255796487
 10
23.65949521028586
 20
304.2271255796487
 10
25.05949521028583
 20
306.6519967102451
 10
23.65949521028586
 20
309.0768678408415
  0
LWPOLYLINE
  5
292D
330
6F
100
AcDbEntity
  8
0
  6
Continuous
100
AcDbPolyline
 90
        6
 70
     1
 43
0.0
 10
153.3677552102858
 20
309.0768678408415
 10
151.9677552102858
 20
306.6519967102451
 10
153.3677552102858
 20
304.2271255796487
 10
156.1677552102858
 20
304.2271255796487
 10
157.5677552102858
 20
306.6519967102451
 10
156.1677552102858
 20
309.0768678408415
  0
LWPOLYLINE
  5
292E
330
6F
100
AcDbEntity
  8
0
  6
Continuous
100
AcDbPolyline
 90
        6
 70
     1
 43
0.0
 10
285.8757552102858
 20
309.0768678408415
 10
284.475755210286
 20
306.6519967102451
 10
285.8757552102858
 20
304.2271255796487
 10
288.6757552102859
 20
304.2271255796487
 10
290.0757552102859
 20
306.6519967102451
 10
288.6757552102859
 20
309.0768678408415
  0
LWPOLYLINE
  5
292F
330
6F
100
AcDbEntity
  8
0
  6
Continuous
100
AcDbPolyline
 90
        6
 70
     1
 43
0.0
 10
418.3847552102857
 20
309.0768678408415
 10
416.9847552102857
 20
306.6519967102451
 10
418.3847552102857
 20
304.2271255796487
 10
421.1847552102858
 20
304.2271255796487
 10
422.5847552102856
 20
306.6519967102451
 10
421.1847552102858
 20
309.0768678408415
  0
LWPOLYLINE
  5
2930
330
6F
100
AcDbEntity
  8
0
  6
Continuous
100
AcDbPolyline
 90
        6
 70
     1
 43
0.0
 10
418.3847552102857
 20
441.9038278408415
 10
416.9847552102857
 20
439.478956710245
 10
418.3847552102857
 20
437.0540855796487
 10
421.1847552102858
 20
437.0540855796487
 10
422.5847552102856
 20
439.478956710245
 10
421.1847552102858
 20
441.9038278408415
  0
LWPOLYLINE
  5
2931
330
6F
100
AcDbEntity
  8
0
  6
Continuous
100
AcDbPolyline
 90
        6
 70
     1
 43
0.0
 10
285.8757552102858
 20
441.9038278408415
 10
284.475755210286
 20
439.478956710245
 10
285.8757552102858
 20
437.0540855796487
 10
288.6757552102859
 20
437.0540855796487
 10
290.0757552102859
 20
439.478956710245
 10
288.6757552102859
 20
441.9038278408415
  0
LWPOLYLINE
  5
2932
330
6F
100
AcDbEntity
  8
0
  6
Continuous
100
AcDbPolyline
 90
        6
 70
     1
 43
0.0
 10
153.3677552102858
 20
441.9038278408415
 10
151.9677552102858
 20
439.478956710245
 10
153.3677552102858
 20
437.0540855796487
 10
156.1677552102858
 20
437.0540855796487
 10
157.5677552102858
 20
439.478956710245
 10
156.1677552102858
 20
441.9038278408415
  0
LINE
  5
2935
330
6F
100
AcDbEntity
  8
0
  6
Continuous
100
AcDbLine
 10
343.202205367005
 20
434.978956710245
 30
0.0
 11
343.202205367005
 21
434.978956710245
 31
0.0
  0
ENDSEC
  0
SECTION
  2
OBJECTS
  0
DICTIONARY
  5
C
330
0
100
AcDbDictionary
281
     1
  3
ACAD_CIP_PREVIOUS_PRODUCT_INFO
350
172
  3
ACAD_COLOR
350
62
  3
ACAD_DETAILVIEWSTYLE
350
69
  3
ACAD_GROUP
350
D
  3
ACAD_LAYOUT
350
61
  3
ACAD_MATERIAL
350
10
  3
ACAD_MLEADERSTYLE
350
65
  3
ACAD_MLINESTYLE
350
5E
  3
ACAD_PLOTSETTINGS
350
60
  3
ACAD_PLOTSTYLENAME
350
E
  3
ACAD_SCALELIST
350
42
  3
ACAD_SECTIONVIEWSTYLE
350
67
  3
ACAD_TABLESTYLE
350
63
  3
ACAD_VISUALSTYLE
350
29
  3
ACDB_RECOMPOSE_DATA
350
2951
  3
AcDbVariableDictionary
350
174
  0
DICTIONARY
  5
199
330
2
100
AcDbDictionary
280
     1
281
     1
  3
ACAD_LAYERSTATES
360
19A
  0
DICTIONARY
  5
191
330
54
100
AcDbDictionary
280
     1
281
     1
  3
ADSK_XREC_LAYER_RECONCILED
360
192
  0
DICTIONARY
  5
181C
330
6F
100
AcDbDictionary
280
     1
281
     1
  3
ACAD_SORTENTS
360
181D
  0
DICTIONARY
  5
28AB
330
26C6
100
AcDbDictionary
280
     1
281
     1
  3
ACAD_SORTENTS
360
28AC
  0
DICTIONARY
  5
28FC
330
28EE
100
AcDbDictionary
280
     1
281
     1
  3
ACAD_SORTENTS
360
28FD
  0
XRECORD
  5
172
102
{ACAD_REACTORS
330
C
102
}
330
C
100
AcDbXrecord
280
     1
300
ACD
300
2020
300
ACD_F_S
  0
DICTIONARY
  5
62
102
{ACAD_REACTORS
330
C
102
}
330
C
100
AcDbDictionary
281
     1
  0
DICTIONARY
  5
69
102
{ACAD_REACTORS
330
C
102
}
330
C
100
AcDbDictionary
281
     1
  3
Imperial24
350
6A
  0
DICTIONARY
  5
D
102
{ACAD_REACTORS
330
C
102
}
330
C
100
AcDbDictionary
281
     1
  0
DICTIONARY
  5
61
102
{ACAD_REACTORS
330
C
102
}
330
C
100
AcDbDictionary
281
     1
  3
Model
350
72
  3
Presentacin1
350
6E
  0
DICTIONARY
  5
10
102
{ACAD_REACTORS
330
C
102
}
330
C
100
AcDbDictionary
281
     1
  3
ByBlock
350
19
  3
ByLayer
350
11
  3
Global
350
21
  0
DICTIONARY
  5
65
102
{ACAD_REACTORS
330
C
102
}
330
C
100
AcDbDictionary
281
     1
  3
Standard
350
66
  0
DICTIONARY
  5
5E
102
{ACAD_REACTORS
330
C
102
}
330
C
100
AcDbDictionary
281
     1
  3
Standard
350
5F
  0
DICTIONARY
  5
60
102
{ACAD_REACTORS
330
C
102
}
330
C
100
AcDbDictionary
281
     1
  0
ACDBDICTIONARYWDFLT
  5
E
102
{ACAD_REACTORS
330
C
102
}
330
C
100
AcDbDictionary
281
     1
  3
Normal
350
F
100
AcDbDictionaryWithDefault
340
F
  0
DICTIONARY
  5
42
102
{ACAD_REACTORS
330
C
102
}
330
C
100
AcDbDictionary
281
     1
  3
A0
350
43
  3
A1
350
44
  3
A2
350
45
  3
A3
350
46
  3
A4
350
47
  3
A5
350
48
  3
A6
350
49
  3
A7
350
4A
  3
A8
350
4B
  3
A9
350
4C
  3
B0
350
4D
  3
B1
350
4E
  3
B2
350
4F
  3
B3
350
50
  3
B4
350
51
  3
B5
350
52
  3
B6
350
53
  0
DICTIONARY
  5
67
102
{ACAD_REACTORS
330
C
102
}
330
C
100
AcDbDictionary
281
     1
  3
Imperial24
350
68
  0
DICTIONARY
  5
63
102
{ACAD_REACTORS
330
C
102
}
330
C
100
AcDbDictionary
281
     1
  3
Standard
350
64
  0
DICTIONARY
  5
29
102
{ACAD_REACTORS
330
C
102
}
330
C
100
AcDbDictionary
281
     1
  3
2dWireframe
350
2F
  3
Basic
350
2E
  3
Brighten
350
35
  3
ColorChange
350
39
  3
Conceptual
350
32
  3
Dim
350
34
  3
EdgeColorOff
350
41
  3
Facepattern
350
38
  3
Flat
350
2A
  3
FlatWithEdges
350
2B
  3
Gouraud
350
2C
  3
GouraudWithEdges
350
2D
  3
Hidden
350
31
  3
JitterOff
350
3F
  3
Linepattern
350
37
  3
OverhangOff
350
40
  3
Realistic
350
33
  3
Shaded
350
3E
  3
Shaded with edges
350
3D
  3
Shades of Gray
350
3A
  3
Sketchy
350
3B
  3
Thicken
350
36
  3
Wireframe
350
30
  3
X-Ray
350
3C
  0
XRECORD
  5
2951
102
{ACAD_REACTORS
330
C
102
}
330
C
100
AcDbXrecord
280
     1
 90
        1
330
64
  0
DICTIONARY
  5
174
102
{ACAD_REACTORS
330
C
102
}
330
C
100
AcDbDictionary
281
     1
  3
CANNOSCALE
350
17A
  3
CMLEADERSTYLE
350
176
  3
CTABLESTYLE
350
175
  3
CVIEWDETAILSTYLE
350
177
  3
CVIEWSECTIONSTYLE
350
178
  3
LAYEREVAL
350
17C
  3
LAYERNOTIFY
350
17D
  3
LIGHTINGUNITS
350
17B
  3
MSLTSCALE
350
179
  0
DICTIONARY
  5
19A
102
{ACAD_REACTORS
330
199
102
}
330
199
100
AcDbDictionary
281
     1
  0
XRECORD
  5
192
102
{ACAD_REACTORS
330
191
102
}
330
191
100
AcDbXrecord
280
     1
290
     1
  0
SORTENTSTABLE
  5
181D
102
{ACAD_REACTORS
330
181C
102
}
330
181C
100
AcDbSortentsTable
330
6F
331
194E
  5
28C3
331
194F
  5
28C4
331
1951
  5
28CA
331
28C8
  5
28CF
331
28C9
  5
1912
331
28CA
  5
28D1
331
28CB
  5
1950
331
28CC
  5
28C6
331
28CF
  5
28D3
331
28D0
  5
28D2
331
28D1
  5
28D0
331
28D2
  5
1957
331
28D3
  5
1953
  0
SORTENTSTABLE
  5
28AC
102
{ACAD_REACTORS
330
28AB
102
}
330
28AB
100
AcDbSortentsTable
330
26C6
  0
SORTENTSTABLE
  5
28FD
102
{ACAD_REACTORS
330
28FC
102
}
330
28FC
100
AcDbSortentsTable
330
28EE
  0
ACDBDETAILVIEWSTYLE
  5
6A
102
{ACAD_REACTORS
330
69
102
}
330
69
100
AcDbModelDocViewStyle
 70
     0
  3
Imperial24
290
     0
300
Imperial24
 90
        0
100
AcDbDetailViewStyle
 70
     0
 71
     0
 90
        3
 71
     1
340
55
 62
   256
 40
0.24
340
0
 62
   256
 40
0.24
300

 40
0.36
280
     3
 71
     2
340
5C
 90
       25
 62
   256
 71
     3
340
55
 62
   256
 40
0.24
 90
        1
 40
0.75
 90
        1
300
%<\AcVar ViewType \f "%tc1">% %<\AcVar ViewDetailId>%\PESCALA %<\AcVar ViewScale \f "%sn">%
 71
     4
340
5C
 90
       25
 62
   256
340
5C
 90
       25
 62
   256
280
     0
  0
LAYOUT
  5
72
102
{ACAD_REACTORS
330
61
102
}
330
61
100
AcDbPlotSettings
  1

  2
HP Photosmart 5520 series (Red)
  4

  6

 40
0.0
 41
0.0
 42
0.0
 43
0.0
 44
0.0
 45
0.0
 46
0.0
 47
0.0
 48
0.0
 49
0.0
140
0.0
141
0.0
142
1.0
143
1.0
 70
  1712
 72
     0
 73
     0
 74
     0
  7

 75
     0
147
1.0
 76
     0
 77
     2
 78
   300
148
0.0
149
0.0
100
AcDbLayout
  1
Model
 70
     1
 71
     0
 10
0.0
 20
0.0
 11
12.0
 21
9.0
 12
0.0
 22
0.0
 32
0.0
 14
0.0
 24
0.0
 34
0.0
 15
0.0
 25
0.0
 35
0.0
146
0.0
 13
0.0
 23
0.0
 33
0.0
 16
1.0
 26
0.0
 36
0.0
 17
0.0
 27
1.0
 37
0.0
 76
     0
330
6F
331
74
  0
LAYOUT
  5
6E
102
{ACAD_REACTORS
330
61
102
}
330
61
100
AcDbPlotSettings
  1

  2
HP Photosmart 5520 series (Red)
  4

  6

 40
0.0
 41
0.0
 42
0.0
 43
0.0
 44
0.0
 45
0.0
 46
0.0
 47
0.0
 48
0.0
 49
0.0
140
0.0
141
0.0
142
1.0
143
1.0
 70
   688
 72
     0
 73
     0
 74
     5
  7

 75
    16
147
1.0
 76
     0
 77
     2
 78
   300
148
0.0
149
0.0
100
AcDbLayout
  1
Presentacin1
 70
     1
 71
     1
 10
0.0
 20
0.0
 11
12.0
 21
9.0
 12
0.0
 22
0.0
 32
0.0
 14
1.000000000000000E+20
 24
1.000000000000000E+20
 34
1.000000000000000E+20
 15
-1.000000000000000E+20
 25
-1.000000000000000E+20
 35
-1.000000000000000E+20
146
0.0
 13
0.0
 23
0.0
 33
0.0
 16
1.0
 26
0.0
 36
0.0
 17
0.0
 27
1.0
 37
0.0
 76
     0
330
6B
  0
MATERIAL
  5
19
102
{ACAD_XDICTIONARY
360
1A
102
}
102
{ACAD_REACTORS
330
10
102
}
330
10
100
AcDbMaterial
  1
ByBlock
 72
     0
 43
0.0208333333333333
 43
0.0
 43
0.0
 43
0.0
 43
0.0
 43
0.0208333333333333
 43
0.0
 43
0.0
 43
0.0
 43
0.0
 43
1.0
 43
0.0
 43
0.0
 43
0.0
 43
0.0
 43
1.0
 77
     0
 47
0.0208333333333333
 47
0.0
 47
0.0
 47
0.0
 47
0.0
 47
0.0208333333333333
 47
0.0
 47
0.0
 47
0.0
 47
0.0
 47
1.0
 47
0.0
 47
0.0
 47
0.0
 47
0.0
 47
1.0
171
     0
 49
0.0208333333333333
 49
0.0
 49
0.0
 49
0.0
 49
0.0
 49
0.0208333333333333
 49
0.0
 49
0.0
 49
0.0
 49
0.0
 49
1.0
 49
0.0
 49
0.0
 49
0.0
 49
0.0
 49
1.0
175
     0
142
0.0208333333333333
142
0.0
142
0.0
142
0.0
142
0.0
142
0.0208333333333333
142
0.0
142
0.0
142
0.0
142
0.0
142
1.0
142
0.0
142
0.0
142
0.0
142
0.0
142
1.0
179
     0
144
0.0208333333333333
144
0.0
144
0.0
144
0.0
144
0.0
144
0.0208333333333333
144
0.0
144
0.0
144
0.0
144
0.0
144
1.0
144
0.0
144
0.0
144
0.0
144
0.0
144
1.0
147
0.0208333333333333
147
0.0
147
0.0
147
0.0
147
0.0
147
0.0208333333333333
147
0.0
147
0.0
147
0.0
147
0.0
147
1.0
147
0.0
147
0.0
147
0.0
147
0.0
147
1.0
  0
MATERIAL
  5
11
102
{ACAD_XDICTIONARY
360
12
102
}
102
{ACAD_REACTORS
330
10
102
}
330
10
100
AcDbMaterial
  1
ByLayer
 72
     0
 43
0.0208333333333333
 43
0.0
 43
0.0
 43
0.0
 43
0.0
 43
0.0208333333333333
 43
0.0
 43
0.0
 43
0.0
 43
0.0
 43
1.0
 43
0.0
 43
0.0
 43
0.0
 43
0.0
 43
1.0
 77
     0
 47
0.0208333333333333
 47
0.0
 47
0.0
 47
0.0
 47
0.0
 47
0.0208333333333333
 47
0.0
 47
0.0
 47
0.0
 47
0.0
 47
1.0
 47
0.0
 47
0.0
 47
0.0
 47
0.0
 47
1.0
171
     0
 49
0.0208333333333333
 49
0.0
 49
0.0
 49
0.0
 49
0.0
 49
0.0208333333333333
 49
0.0
 49
0.0
 49
0.0
 49
0.0
 49
1.0
 49
0.0
 49
0.0
 49
0.0
 49
0.0
 49
1.0
175
     0
142
0.0208333333333333
142
0.0
142
0.0
142
0.0
142
0.0
142
0.0208333333333333
142
0.0
142
0.0
142
0.0
142
0.0
142
1.0
142
0.0
142
0.0
142
0.0
142
0.0
142
1.0
179
     0
144
0.0208333333333333
144
0.0
144
0.0
144
0.0
144
0.0
144
0.0208333333333333
144
0.0
144
0.0
144
0.0
144
0.0
144
1.0
144
0.0
144
0.0
144
0.0
144
0.0
144
1.0
147
0.0208333333333333
147
0.0
147
0.0
147
0.0
147
0.0
147
0.0208333333333333
147
0.0
147
0.0
147
0.0
147
0.0
147
1.0
147
0.0
147
0.0
147
0.0
147
0.0
147
1.0
  0
MATERIAL
  5
21
102
{ACAD_XDICTIONARY
360
22
102
}
102
{ACAD_REACTORS
330
10
102
}
330
10
100
AcDbMaterial
  1
Global
 72
     0
 43
0.0208333333333333
 43
0.0
 43
0.0
 43
0.0
 43
0.0
 43
0.0208333333333333
 43
0.0
 43
0.0
 43
0.0
 43
0.0
 43
1.0
 43
0.0
 43
0.0
 43
0.0
 43
0.0
 43
1.0
 77
     0
 47
0.0208333333333333
 47
0.0
 47
0.0
 47
0.0
 47
0.0
 47
0.0208333333333333
 47
0.0
 47
0.0
 47
0.0
 47
0.0
 47
1.0
 47
0.0
 47
0.0
 47
0.0
 47
0.0
 47
1.0
171
     0
 49
0.0208333333333333
 49
0.0
 49
0.0
 49
0.0
 49
0.0
 49
0.0208333333333333
 49
0.0
 49
0.0
 49
0.0
 49
0.0
 49
1.0
 49
0.0
 49
0.0
 49
0.0
 49
0.0
 49
1.0
175
     0
142
0.0208333333333333
142
0.0
142
0.0
142
0.0
142
0.0
142
0.0208333333333333
142
0.0
142
0.0
142
0.0
142
0.0
142
1.0
142
0.0
142
0.0
142
0.0
142
0.0
142
1.0
179
     0
144
0.0208333333333333
144
0.0
144
0.0
144
0.0
144
0.0
144
0.0208333333333333
144
0.0
144
0.0
144
0.0
144
0.0
144
1.0
144
0.0
144
0.0
144
0.0
144
0.0
144
1.0
147
0.0208333333333333
147
0.0
147
0.0
147
0.0
147
0.0
147
0.0208333333333333
147
0.0
147
0.0
147
0.0
147
0.0
147
1.0
147
0.0
147
0.0
147
0.0
147
0.0
147
1.0
  0
MLEADERSTYLE
  5
66
102
{ACAD_REACTORS
330
65
102
}
330
65
100
AcDbMLeaderStyle
179
     2
170
     2
171
     1
172
     0
 90
        2
 40
0.0
 41
0.0
173
     1
 91
-1056964608
340
5A
 92
       -2
290
     1
 42
0.09
291
     1
 43
0.36
  3
Standard
 44
0.18
300

342
55
174
     1
178
     6
175
     1
176
     0
 93
-1056964608
 45
0.18
292
     0
297
     0
 46
0.18
 94
-1056964608
 47
1.0
 49
1.0
140
1.0
293
     1
141
0.0
294
     1
177
     0
142
1.0
295
     0
296
     0
143
0.125
271
     0
272
     9
273
     9
298
     0
  0
MLINESTYLE
  5
5F
102
{ACAD_REACTORS
330
5E
102
}
330
5E
100
AcDbMlineStyle
  2
STANDARD
 70
     0
  3

 62
   256
 51
90.0
 52
90.0
 71
     2
 49
0.5
 62
   256
  6
BYLAYER
 49
-0.5
 62
   256
  6
BYLAYER
  0
ACDBPLACEHOLDER
  5
F
102
{ACAD_REACTORS
330
E
102
}
330
E
  0
SCALE
  5
43
102
{ACAD_REACTORS
330
42
102
}
330
42
100
AcDbScale
 70
     0
300
1:1
140
1.0
141
1.0
290
     1
  0
SCALE
  5
44
102
{ACAD_REACTORS
330
42
102
}
330
42
100
AcDbScale
 70
     0
300
1/128" = 1'-0"
140
0.0078125
141
12.0
290
     0
  0
SCALE
  5
45
102
{ACAD_REACTORS
330
42
102
}
330
42
100
AcDbScale
 70
     0
300
1/64" = 1'-0"
140
0.015625
141
12.0
290
     0
  0
SCALE
  5
46
102
{ACAD_REACTORS
330
42
102
}
330
42
100
AcDbScale
 70
     0
300
1/32" = 1'-0"
140
0.03125
141
12.0
290
     0
  0
SCALE
  5
47
102
{ACAD_REACTORS
330
42
102
}
330
42
100
AcDbScale
 70
     0
300
1/16" = 1'-0"
140
0.0625
141
12.0
290
     0
  0
SCALE
  5
48
102
{ACAD_REACTORS
330
42
102
}
330
42
100
AcDbScale
 70
     0
300
3/32" = 1'-0"
140
0.09375
141
12.0
290
     0
  0
SCALE
  5
49
102
{ACAD_REACTORS
330
42
102
}
330
42
100
AcDbScale
 70
     0
300
1/8" = 1'-0"
140
0.125
141
12.0
290
     0
  0
SCALE
  5
4A
102
{ACAD_REACTORS
330
42
102
}
330
42
100
AcDbScale
 70
     0
300
3/16" = 1'-0"
140
0.1875
141
12.0
290
     0
  0
SCALE
  5
4B
102
{ACAD_REACTORS
330
42
102
}
330
42
100
AcDbScale
 70
     0
300
1/4" = 1'-0"
140
0.25
141
12.0
290
     0
  0
SCALE
  5
4C
102
{ACAD_REACTORS
330
42
102
}
330
42
100
AcDbScale
 70
     0
300
3/8" = 1'-0"
140
0.375
141
12.0
290
     0
  0
SCALE
  5
4D
102
{ACAD_REACTORS
330
42
102
}
330
42
100
AcDbScale
 70
     0
300
1/2" = 1'-0"
140
0.5
141
12.0
290
     0
  0
SCALE
  5
4E
102
{ACAD_REACTORS
330
42
102
}
330
42
100
AcDbScale
 70
     0
300
3/4" = 1'-0"
140
0.75
141
12.0
290
     0
  0
SCALE
  5
4F
102
{ACAD_REACTORS
330
42
102
}
330
42
100
AcDbScale
 70
     0
300
1" = 1'-0"
140
1.0
141
12.0
290
     0
  0
SCALE
  5
50
102
{ACAD_REACTORS
330
42
102
}
330
42
100
AcDbScale
 70
     0
300
1-1/2" = 1'-0"
140
1.5
141
12.0
290
     0
  0
SCALE
  5
51
102
{ACAD_REACTORS
330
42
102
}
330
42
100
AcDbScale
 70
     0
300
3" = 1'-0"
140
3.0
141
12.0
290
     0
  0
SCALE
  5
52
102
{ACAD_REACTORS
330
42
102
}
330
42
100
AcDbScale
 70
     0
300
6" = 1'-0"
140
6.0
141
12.0
290
     0
  0
SCALE
  5
53
102
{ACAD_REACTORS
330
42
102
}
330
42
100
AcDbScale
 70
     0
300
1'-0" = 1'-0"
140
12.0
141
12.0
290
     0
  0
ACDBSECTIONVIEWSTYLE
  5
68
102
{ACAD_REACTORS
330
67
102
}
330
67
100
AcDbModelDocViewStyle
 70
     0
  3
Imperial24
290
     0
300
Imperial24
 90
        0
100
AcDbSectionViewStyle
 70
     0
 71
     0
 90
       78
 71
     1
340
55
 62
   256
 40
0.24
340
0
340
0
 62
   256
 40
0.24
300
I, O, Q, S, X, Z
 40
0.48
 90
        3
 40
0.18
 90
        1
 71
     2
340
5C
 90
       25
 62
   256
340
5C
 90
       50
 62
   256
 40
0.24
 40
0.0
 40
0.24
 71
     3
340
55
 62
   256
 40
0.24
 90
        1
 40
0.75
 90
        1
300
%<\AcVar ViewType \f "%tc1">% %<\AcVar ViewSectionStartId>%-%<\AcVar ViewSectionEndId>%\PESCALA %<\AcVar ViewScale \f "%sn">%
 71
     4
 62
   256
 62
   257
300
ANSI31
 40
1.0
 90
        0
290
     0
290
     0
 90
        6
 40
0.0
 40
1.570796326794896
 40
0.2617993877991494
 40
1.308996938995747
 40
-0.2617993877991494
 40
1.832595714594044
  0
TABLESTYLE
  5
64
102
{ACAD_XDICTIONARY
360
19F
102
}
102
{ACAD_REACTORS
330
63
102
}
330
63
100
AcDbTableStyle
280
     0
  3
Standard
 70
     0
 71
     0
 40
0.06
 41
0.06
280
     0
281
     0
  7
Standard
140
0.18
170
     2
 62
     0
 63
     7
283
     0
 90
      512
 91
        0
  1

274
    -2
284
     1
 64
     0
275
    -2
285
     1
 65
     0
276
    -2
286
     1
 66
     0
277
    -2
287
     1
 67
     0
278
    -2
288
     1
 68
     0
279
    -2
289
     1
 69
     0
  7
Standard
140
0.25
170
     5
 62
     0
 63
     7
283
     0
 90
      512
 91
        0
  1

274
    -2
284
     1
 64
     0
275
    -2
285
     1
 65
     0
276
    -2
286
     1
 66
     0
277
    -2
287
     1
 67
     0
278
    -2
288
     1
 68
     0
279
    -2
289
     1
 69
     0
  7
Standard
140
0.18
170
     5
 62
     0
 63
     7
283
     0
 90
      512
 91
        0
  1

274
    -2
284
     1
 64
     0
275
    -2
285
     1
 65
     0
276
    -2
286
     1
 66
     0
277
    -2
287
     1
 67
     0
278
    -2
288
     1
 68
     0
279
    -2
289
     1
 69
     0
  0
VISUALSTYLE
  5
2F
102
{ACAD_REACTORS
330
29
102
}
330
29
100
AcDbVisualStyle
  2
2dWireframe
 70
     4
177
     3
291
     0
 70
    58
 90
        0
176
     1
 90
        2
176
     1
 90
        0
176
     1
 90
        0
176
     1
 40
0.6
176
     1
 40
30.0
176
     1
 62
     7
420
 16777215
176
     1
 90
        1
176
     1
 90
        4
176
     1
 62
     7
176
     1
 62
   257
176
     1
 90
        1
176
     1
 90
        1
176
     1
 40
1.0
176
     1
 90
        0
176
     1
 62
   257
176
     1
 40
1.0
176
     1
 90
        1
176
     1
 90
        6
176
     1
 90
        2
176
     1
 62
     7
176
     1
 90
        5
176
     1
 90
        0
176
     1
 90
        0
176
     1
290
     0
176
     1
 90
        1
176
     1
 40
0.0
176
     1
 90
        0
176
     1
290
     1
176
     1
290
     1
176
     1
290
     0
176
     1
290
     0
176
     1
290
     0
176
     1
290
     0
176
     1
290
     0
176
     1
290
     0
176
     1
290
     0
176
     1
 90
       50
176
     1
 40
0.0
176
     1
 40
1.0
176
     1
 90
        0
176
     1
 62
    18
176
     1
 90
       50
176
     1
 90
        3
176
     1
 62
     5
420
      255
176
     1
290
     0
176
     1
 90
       50
176
     1
 90
       50
176
     1
 90
       50
176
     1
290
     0
176
     1
 90
       50
176
     1
 62
   256
176
     0
 40
1.0
176
     0
 90
        2
176
     1
  1
strokes_ogs.tif
176
     1
290
     0
176
     1
 40
1.0
176
     1
 40
1.0
176
     1
  0
VISUALSTYLE
  5
2E
102
{ACAD_REACTORS
330
29
102
}
330
29
100
AcDbVisualStyle
  2
Basic
 70
     7
177
     3
291
     1
 70
    58
 90
        1
176
     1
 90
        0
176
     1
 90
        1
176
     1
 90
        0
176
     1
 40
0.6
176
     1
 40
30.0
176
     1
 62
     7
420
 16777215
176
     1
 90
        0
176
     1
 90
        4
176
     1
 62
     7
176
     1
 62
   257
176
     1
 90
        1
176
     1
 90
        1
176
     1
 40
1.0
176
     1
 90
        8
176
     1
 62
     7
176
     1
 40
1.0
176
     1
 90
        1
176
     1
 90
        6
176
     1
 90
        2
176
     1
 62
     7
176
     1
 90
        5
176
     1
 90
        0
176
     1
 90
        0
176
     1
290
     0
176
     1
 90
        1
176
     1
 40
0.0
176
     1
 90
        0
176
     1
290
     0
176
     1
290
     1
176
     1
290
     1
176
     1
290
     0
176
     1
290
     0
176
     1
290
     0
176
     1
290
     0
176
     1
290
     0
176
     1
290
     0
176
     1
 90
       50
176
     1
 40
0.0
176
     1
 40
1.0
176
     1
 90
        0
176
     1
 62
    18
176
     1
 90
       50
176
     1
 90
        3
176
     1
 62
     5
420
      255
176
     1
290
     0
176
     1
 90
       50
176
     1
 90
       50
176
     1
 90
       50
176
     1
290
     0
176
     1
 90
       50
176
     1
 62
   256
176
     0
 40
1.0
176
     0
 90
        2
176
     1
  1
strokes_ogs.tif
176
     1
290
     0
176
     1
 40
1.0
176
     1
 40
1.0
176
     1
  0
VISUALSTYLE
  5
35
102
{ACAD_REACTORS
330
29
102
}
330
29
100
AcDbVisualStyle
  2
Brighten
 70
    12
177
     3
291
     1
 70
    58
 90
        2
176
     1
 90
        2
176
     1
 90
        0
176
     1
 90
        0
176
     1
 40
0.6
176
     1
 40
30.0
176
     1
 62
     7
420
 16777215
176
     1
 90
        1
176
     1
 90
        4
176
     1
 62
     7
176
     1
 62
   257
176
     1
 90
        1
176
     1
 90
        1
176
     1
 40
1.0
176
     1
 90
        8
176
     1
 62
     7
176
     1
 40
1.0
176
     1
 90
        1
176
     1
 90
        6
176
     1
 90
        2
176
     1
 62
     7
176
     1
 90
        5
176
     1
 90
        0
176
     1
 90
        0
176
     1
290
     0
176
     1
 90
        1
176
     1
 40
50.0
176
     1
 90
        0
176
     1
290
     0
176
     1
290
     1
176
     1
290
     1
176
     1
290
     0
176
     1
290
     0
176
     1
290
     0
176
     1
290
     0
176
     1
290
     0
176
     1
290
     0
176
     1
 90
       50
176
     1
 40
0.0
176
     1
 40
1.0
176
     1
 90
        0
176
     1
 62
    18
176
     1
 90
       50
176
     1
 90
        3
176
     1
 62
     5
420
      255
176
     1
290
     0
176
     1
 90
       50
176
     1
 90
       50
176
     1
 90
       50
176
     1
290
     0
176
     1
 90
       50
176
     1
 62
   256
176
     0
 40
1.0
176
     0
 90
        2
176
     1
  1
strokes_ogs.tif
176
     1
290
     0
176
     1
 40
1.0
176
     1
 40
1.0
176
     1
  0
VISUALSTYLE
  5
39
102
{ACAD_REACTORS
330
29
102
}
330
29
100
AcDbVisualStyle
  2
ColorChange
 70
    16
177
     3
291
     1
 70
    58
 90
        2
176
     1
 90
        2
176
     1
 90
        3
176
     1
 90
        0
176
     1
 40
0.6
176
     1
 40
30.0
176
     1
 62
     8
420
  8421504
176
     1
 90
        1
176
     1
 90
        4
176
     1
 62
     7
176
     1
 62
   257
176
     1
 90
        1
176
     1
 90
        1
176
     1
 40
1.0
176
     1
 90
        8
176
     1
 62
     8
420
  8421504
176
     1
 40
1.0
176
     1
 90
        1
176
     1
 90
        6
176
     1
 90
        2
176
     1
 62
     7
176
     1
 90
        5
176
     1
 90
        0
176
     1
 90
        0
176
     1
290
     0
176
     1
 90
        1
176
     1
 40
0.0
176
     1
 90
        0
176
     1
290
     0
176
     1
290
     1
176
     1
290
     1
176
     1
290
     0
176
     1
290
     0
176
     1
290
     0
176
     1
290
     0
176
     1
290
     0
176
     1
290
     0
176
     1
 90
       50
176
     1
 40
0.0
176
     1
 40
1.0
176
     1
 90
        0
176
     1
 62
    18
176
     1
 90
       50
176
     1
 90
        3
176
     1
 62
     5
420
      255
176
     1
290
     0
176
     1
 90
       50
176
     1
 90
       50
176
     1
 90
       50
176
     1
290
     0
176
     1
 90
       50
176
     1
 62
   256
176
     0
 40
1.0
176
     0
 90
        2
176
     1
  1
strokes_ogs.tif
176
     1
290
     0
176
     1
 40
1.0
176
     1
 40
1.0
176
     1
  0
VISUALSTYLE
  5
32
102
{ACAD_REACTORS
330
29
102
}
330
29
100
AcDbVisualStyle
  2
Conceptual
 70
     9
177
     3
291
     0
 70
    58
 90
        3
176
     1
 90
        2
176
     1
 90
        0
176
     1
 90
        0
176
     1
 40
0.6
176
     1
 40
30.0
176
     1
 62
     7
420
 16777215
176
     1
 90
        2
176
     1
 90
        2
176
     1
 62
     7
176
     1
 62
   257
176
     1
 90
        1
176
     1
 90
        1
176
     1
 40
179.0
176
     1
 90
        8
176
     1
 62
     7
176
     1
 40
1.0
176
     1
 90
        1
176
     1
 90
        6
176
     1
 90
        2
176
     1
 62
     7
176
     1
 90
        3
176
     1
 90
        0
176
     1
 90
        0
176
     1
290
     0
176
     1
 90
        1
176
     1
 40
0.0
176
     1
 90
        0
176
     1
290
     0
176
     1
290
     1
176
     1
290
     1
176
     1
290
     0
176
     1
290
     0
176
     1
290
     0
176
     1
290
     0
176
     1
290
     0
176
     1
290
     0
176
     1
 90
       50
176
     1
 40
0.0
176
     1
 40
1.0
176
     1
 90
        0
176
     1
 62
    18
176
     1
 90
       50
176
     1
 90
        3
176
     1
 62
     5
420
      255
176
     1
290
     0
176
     1
 90
       50
176
     1
 90
       50
176
     1
 90
       50
176
     1
290
     0
176
     1
 90
       50
176
     1
 62
   256
176
     0
 40
1.0
176
     0
 90
        2
176
     1
  1
strokes_ogs.tif
176
     1
290
     0
176
     1
 40
1.0
176
     1
 40
1.0
176
     1
  0
VISUALSTYLE
  5
34
102
{ACAD_REACTORS
330
29
102
}
330
29
100
AcDbVisualStyle
  2
Dim
 70
    11
177
     3
291
     1
 70
    58
 90
        2
176
     1
 90
        2
176
     1
 90
        0
176
     1
 90
        0
176
     1
 40
0.6
176
     1
 40
30.0
176
     1
 62
     7
420
 16777215
176
     1
 90
        1
176
     1
 90
        4
176
     1
 62
     7
176
     1
 62
   257
176
     1
 90
        1
176
     1
 90
        1
176
     1
 40
1.0
176
     1
 90
        8
176
     1
 62
     7
176
     1
 40
1.0
176
     1
 90
        1
176
     1
 90
        6
176
     1
 90
        2
176
     1
 62
     7
176
     1
 90
        5
176
     1
 90
        0
176
     1
 90
        0
176
     1
290
     0
176
     1
 90
        1
176
     1
 40
-50.0
176
     1
 90
        0
176
     1
290
     0
176
     1
290
     1
176
     1
290
     1
176
     1
290
     0
176
     1
290
     0
176
     1
290
     0
176
     1
290
     0
176
     1
290
     0
176
     1
290
     0
176
     1
 90
       50
176
     1
 40
0.0
176
     1
 40
1.0
176
     1
 90
        0
176
     1
 62
    18
176
     1
 90
       50
176
     1
 90
        3
176
     1
 62
     5
420
      255
176
     1
290
     0
176
     1
 90
       50
176
     1
 90
       50
176
     1
 90
       50
176
     1
290
     0
176
     1
 90
       50
176
     1
 62
   256
176
     0
 40
1.0
176
     0
 90
        2
176
     1
  1
strokes_ogs.tif
176
     1
290
     0
176
     1
 40
1.0
176
     1
 40
1.0
176
     1
  0
VISUALSTYLE
  5
41
102
{ACAD_REACTORS
330
29
102
}
330
29
100
AcDbVisualStyle
  2
EdgeColorOff
 70
    22
177
     3
291
     1
 70
    58
 90
        2
176
     0
 90
        2
176
     0
 90
        0
176
     0
 90
        0
176
     0
 40
0.6
176
     0
 40
30.0
176
     0
 62
     7
420
 16777215
176
     0
 90
        1
176
     0
 90
        4
176
     0
 62
     7
176
     0
 62
   257
176
     0
 90
        1
176
     0
 90
        1
176
     0
 40
1.0
176
     0
 90
        8
176
     2
 62
     7
176
     0
 40
1.0
176
     0
 90
        1
176
     0
 90
        6
176
     0
 90
        2
176
     0
 62
     7
176
     0
 90
        5
176
     0
 90
        0
176
     0
 90
        0
176
     0
290
     0
176
     0
 90
        1
176
     0
 40
0.0
176
     0
 90
        0
176
     0
290
     0
176
     1
290
     1
176
     1
290
     1
176
     1
290
     0
176
     1
290
     0
176
     1
290
     0
176
     1
290
     0
176
     1
290
     0
176
     1
290
     0
176
     1
 90
       50
176
     0
 40
0.0
176
     0
 40
1.0
176
     0
 90
        0
176
     0
 62
    18
176
     0
 90
       50
176
     0
 90
        3
176
     0
 62
     5
420
      255
176
     0
290
     0
176
     1
 90
       50
176
     0
 90
       50
176
     0
 90
       50
176
     0
290
     0
176
     1
 90
       50
176
     0
 62
   256
176
     0
 40
1.0
176
     0
 90
        2
176
     0
  1
strokes_ogs.tif
176
     0
290
     0
176
     1
 40
1.0
176
     0
 40
1.0
176
     0
  0
VISUALSTYLE
  5
38
102
{ACAD_REACTORS
330
29
102
}
330
29
100
AcDbVisualStyle
  2
Facepattern
 70
    15
177
     3
291
     1
 70
    58
 90
        2
176
     1
 90
        2
176
     1
 90
        0
176
     1
 90
        0
176
     1
 40
0.6
176
     1
 40
30.0
176
     1
 62
     7
420
 16777215
176
     1
 90
        1
176
     1
 90
        4
176
     1
 62
     7
176
     1
 62
   257
176
     1
 90
        1
176
     1
 90
        1
176
     1
 40
1.0
176
     1
 90
        8
176
     1
 62
     7
176
     1
 40
1.0
176
     1
 90
        1
176
     1
 90
        6
176
     1
 90
        2
176
     1
 62
     7
176
     1
 90
        5
176
     1
 90
        0
176
     1
 90
        0
176
     1
290
     0
176
     1
 90
        1
176
     1
 40
0.0
176
     1
 90
        0
176
     1
290
     0
176
     1
290
     1
176
     1
290
     1
176
     1
290
     0
176
     1
290
     0
176
     1
290
     0
176
     1
290
     0
176
     1
290
     0
176
     1
290
     0
176
     1
 90
       50
176
     1
 40
0.0
176
     1
 40
1.0
176
     1
 90
        0
176
     1
 62
    18
176
     1
 90
       50
176
     1
 90
        3
176
     1
 62
     5
420
      255
176
     1
290
     0
176
     1
 90
       50
176
     1
 90
       50
176
     1
 90
       50
176
     1
290
     0
176
     1
 90
       50
176
     1
 62
   256
176
     0
 40
1.0
176
     0
 90
        2
176
     1
  1
strokes_ogs.tif
176
     1
290
     0
176
     1
 40
1.0
176
     1
 40
1.0
176
     1
  0
VISUALSTYLE
  5
2A
102
{ACAD_REACTORS
330
29
102
}
330
29
100
AcDbVisualStyle
  2
Flat
 70
     0
177
     3
291
     1
 70
    58
 90
        2
176
     1
 90
        1
176
     1
 90
        1
176
     1
 90
        2
176
     1
 40
0.6
176
     1
 40
30.0
176
     1
 62
     7
420
 16777215
176
     1
 90
        0
176
     1
 90
        0
176
     1
 62
     7
176
     1
 62
   257
176
     1
 90
        1
176
     1
 90
        1
176
     1
 40
1.0
176
     1
 90
        8
176
     1
 62
     7
176
     1
 40
1.0
176
     1
 90
        1
176
     1
 90
        6
176
     1
 90
        2
176
     1
 62
     7
176
     1
 90
        5
176
     1
 90
        0
176
     1
 90
        0
176
     1
290
     0
176
     1
 90
       13
176
     1
 40
0.0
176
     1
 90
        0
176
     1
290
     0
176
     1
290
     1
176
     1
290
     1
176
     1
290
     0
176
     1
290
     0
176
     1
290
     0
176
     1
290
     0
176
     1
290
     0
176
     1
290
     0
176
     1
 90
       50
176
     1
 40
0.0
176
     1
 40
1.0
176
     1
 90
        0
176
     1
 62
    18
176
     1
 90
       50
176
     1
 90
        3
176
     1
 62
     5
420
      255
176
     1
290
     0
176
     1
 90
       50
176
     1
 90
       50
176
     1
 90
       50
176
     1
290
     0
176
     1
 90
       50
176
     1
 62
   256
176
     0
 40
1.0
176
     0
 90
        2
176
     1
  1
strokes_ogs.tif
176
     1
290
     0
176
     1
 40
1.0
176
     1
 40
1.0
176
     1
  0
VISUALSTYLE
  5
2B
102
{ACAD_REACTORS
330
29
102
}
330
29
100
AcDbVisualStyle
  2
FlatWithEdges
 70
     1
177
     3
291
     1
 70
    58
 90
        2
176
     1
 90
        1
176
     1
 90
        1
176
     1
 90
        2
176
     1
 40
0.6
176
     1
 40
30.0
176
     1
 62
     7
420
 16777215
176
     1
 90
        1
176
     1
 90
        0
176
     1
 62
     7
176
     1
 62
   257
176
     1
 90
        1
176
     1
 90
        1
176
     1
 40
1.0
176
     1
 90
        0
176
     1
 62
   257
176
     1
 40
1.0
176
     1
 90
        1
176
     1
 90
        6
176
     1
 90
        2
176
     1
 62
     7
176
     1
 90
        5
176
     1
 90
        0
176
     1
 90
        0
176
     1
290
     0
176
     1
 90
       13
176
     1
 40
0.0
176
     1
 90
        0
176
     1
290
     0
176
     1
290
     1
176
     1
290
     1
176
     1
290
     0
176
     1
290
     0
176
     1
290
     0
176
     1
290
     0
176
     1
290
     0
176
     1
290
     0
176
     1
 90
       50
176
     1
 40
0.0
176
     1
 40
1.0
176
     1
 90
        0
176
     1
 62
    18
176
     1
 90
       50
176
     1
 90
        3
176
     1
 62
     5
420
      255
176
     1
290
     0
176
     1
 90
       50
176
     1
 90
       50
176
     1
 90
       50
176
     1
290
     0
176
     1
 90
       50
176
     1
 62
   256
176
     0
 40
1.0
176
     0
 90
        2
176
     1
  1
strokes_ogs.tif
176
     1
290
     0
176
     1
 40
1.0
176
     1
 40
1.0
176
     1
  0
VISUALSTYLE
  5
2C
102
{ACAD_REACTORS
330
29
102
}
330
29
100
AcDbVisualStyle
  2
Gouraud
 70
     2
177
     3
291
     1
 70
    58
 90
        2
176
     1
 90
        2
176
     1
 90
        1
176
     1
 90
        2
176
     1
 40
0.6
176
     1
 40
30.0
176
     1
 62
     7
420
 16777215
176
     1
 90
        0
176
     1
 90
        0
176
     1
 62
     7
176
     1
 62
   257
176
     1
 90
        1
176
     1
 90
        1
176
     1
 40
1.0
176
     1
 90
        0
176
     1
 62
     7
176
     1
 40
1.0
176
     1
 90
        1
176
     1
 90
        6
176
     1
 90
        2
176
     1
 62
     7
176
     1
 90
        5
176
     1
 90
        0
176
     1
 90
        0
176
     1
290
     0
176
     1
 90
       13
176
     1
 40
0.0
176
     1
 90
        0
176
     1
290
     0
176
     1
290
     1
176
     1
290
     1
176
     1
290
     0
176
     1
290
     0
176
     1
290
     0
176
     1
290
     0
176
     1
290
     0
176
     1
290
     0
176
     1
 90
       50
176
     1
 40
0.0
176
     1
 40
1.0
176
     1
 90
        0
176
     1
 62
    18
176
     1
 90
       50
176
     1
 90
        3
176
     1
 62
     5
420
      255
176
     1
290
     0
176
     1
 90
       50
176
     1
 90
       50
176
     1
 90
       50
176
     1
290
     0
176
     1
 90
       50
176
     1
 62
   256
176
     0
 40
1.0
176
     0
 90
        2
176
     1
  1
strokes_ogs.tif
176
     1
290
     0
176
     1
 40
1.0
176
     1
 40
1.0
176
     1
  0
VISUALSTYLE
  5
2D
102
{ACAD_REACTORS
330
29
102
}
330
29
100
AcDbVisualStyle
  2
GouraudWithEdges
 70
     3
177
     3
291
     1
 70
    58
 90
        2
176
     1
 90
        2
176
     1
 90
        1
176
     1
 90
        2
176
     1
 40
0.6
176
     1
 40
30.0
176
     1
 62
     7
420
 16777215
176
     1
 90
        1
176
     1
 90
        0
176
     1
 62
     7
176
     1
 62
   257
176
     1
 90
        1
176
     1
 90
        1
176
     1
 40
1.0
176
     1
 90
        0
176
     1
 62
   257
176
     1
 40
1.0
176
     1
 90
        1
176
     1
 90
        6
176
     1
 90
        2
176
     1
 62
     7
176
     1
 90
        5
176
     1
 90
        0
176
     1
 90
        0
176
     1
290
     0
176
     1
 90
       13
176
     1
 40
0.0
176
     1
 90
        0
176
     1
290
     0
176
     1
290
     1
176
     1
290
     1
176
     1
290
     0
176
     1
290
     0
176
     1
290
     0
176
     1
290
     0
176
     1
290
     0
176
     1
290
     0
176
     1
 90
       50
176
     1
 40
0.0
176
     1
 40
1.0
176
     1
 90
        0
176
     1
 62
    18
176
     1
 90
       50
176
     1
 90
        3
176
     1
 62
     5
420
      255
176
     1
290
     0
176
     1
 90
       50
176
     1
 90
       50
176
     1
 90
       50
176
     1
290
     0
176
     1
 90
       50
176
     1
 62
   256
176
     0
 40
1.0
176
     0
 90
        2
176
     1
  1
strokes_ogs.tif
176
     1
290
     0
176
     1
 40
1.0
176
     1
 40
1.0
176
     1
  0
VISUALSTYLE
  5
31
102
{ACAD_REACTORS
330
29
102
}
330
29
100
AcDbVisualStyle
  2
Hidden
 70
     6
177
     3
291
     0
 70
    58
 90
        1
176
     1
 90
        2
176
     1
 90
        2
176
     1
 90
        0
176
     1
 40
0.6
176
     1
 40
30.0
176
     1
 62
     7
420
 16777215
176
     1
 90
        2
176
     1
 90
        2
176
     1
 62
     7
176
     1
 62
   257
176
     1
 90
        2
176
     1
 90
        1
176
     1
 40
40.0
176
     1
 90
        0
176
     1
 62
   257
176
     1
 40
1.0
176
     1
 90
        1
176
     1
 90
        6
176
     1
 90
        2
176
     1
 62
     7
176
     1
 90
        3
176
     1
 90
        0
176
     1
 90
        0
176
     1
290
     0
176
     1
 90
        1
176
     1
 40
0.0
176
     1
 90
        0
176
     1
290
     0
176
     1
290
     1
176
     1
290
     1
176
     1
290
     0
176
     1
290
     0
176
     1
290
     0
176
     1
290
     0
176
     1
290
     0
176
     1
290
     0
176
     1
 90
       50
176
     1
 40
0.0
176
     1
 40
1.0
176
     1
 90
        0
176
     1
 62
    18
176
     1
 90
       50
176
     1
 90
        3
176
     1
 62
     5
420
      255
176
     1
290
     0
176
     1
 90
       50
176
     1
 90
       50
176
     1
 90
       50
176
     1
290
     0
176
     1
 90
       50
176
     1
 62
   256
176
     0
 40
1.0
176
     0
 90
        2
176
     1
  1
strokes_ogs.tif
176
     1
290
     0
176
     1
 40
1.0
176
     1
 40
1.0
176
     1
  0
VISUALSTYLE
  5
3F
102
{ACAD_REACTORS
330
29
102
}
330
29
100
AcDbVisualStyle
  2
JitterOff
 70
    20
177
     3
291
     1
 70
    58
 90
        2
176
     0
 90
        2
176
     0
 90
        0
176
     0
 90
        0
176
     0
 40
0.6
176
     0
 40
30.0
176
     0
 62
     7
420
 16777215
176
     0
 90
        1
176
     0
 90
        4
176
     0
 62
     7
176
     0
 62
   257
176
     0
 90
        1
176
     0
 90
        1
176
     0
 40
1.0
176
     0
 90
       10
176
     2
 62
     7
176
     0
 40
1.0
176
     0
 90
        1
176
     0
 90
        6
176
     0
 90
        2
176
     0
 62
     7
176
     0
 90
        5
176
     0
 90
        0
176
     0
 90
        0
176
     0
290
     0
176
     0
 90
        1
176
     0
 40
0.0
176
     0
 90
        0
176
     0
290
     0
176
     1
290
     1
176
     1
290
     1
176
     1
290
     0
176
     1
290
     0
176
     1
290
     0
176
     1
290
     0
176
     1
290
     0
176
     1
290
     0
176
     1
 90
       50
176
     0
 40
0.0
176
     0
 40
1.0
176
     0
 90
        0
176
     0
 62
    18
176
     0
 90
       50
176
     0
 90
        3
176
     0
 62
     5
420
      255
176
     0
290
     0
176
     1
 90
       50
176
     0
 90
       50
176
     0
 90
       50
176
     0
290
     0
176
     1
 90
       50
176
     0
 62
   256
176
     0
 40
1.0
176
     0
 90
        2
176
     0
  1
strokes_ogs.tif
176
     0
290
     0
176
     1
 40
1.0
176
     0
 40
1.0
176
     0
  0
VISUALSTYLE
  5
37
102
{ACAD_REACTORS
330
29
102
}
330
29
100
AcDbVisualStyle
  2
Linepattern
 70
    14
177
     3
291
     1
 70
    58
 90
        2
176
     1
 90
        2
176
     1
 90
        0
176
     1
 90
        0
176
     1
 40
0.6
176
     1
 40
30.0
176
     1
 62
     7
420
 16777215
176
     1
 90
        1
176
     1
 90
        4
176
     1
 62
     7
176
     1
 62
   257
176
     1
 90
        7
176
     1
 90
        7
176
     1
 40
1.0
176
     1
 90
        8
176
     1
 62
     7
176
     1
 40
1.0
176
     1
 90
        1
176
     1
 90
        6
176
     1
 90
        2
176
     1
 62
     7
176
     1
 90
        5
176
     1
 90
        0
176
     1
 90
        0
176
     1
290
     0
176
     1
 90
        1
176
     1
 40
0.0
176
     1
 90
        0
176
     1
290
     0
176
     1
290
     1
176
     1
290
     1
176
     1
290
     0
176
     1
290
     0
176
     1
290
     0
176
     1
290
     0
176
     1
290
     0
176
     1
290
     0
176
     1
 90
       50
176
     1
 40
0.0
176
     1
 40
1.0
176
     1
 90
        0
176
     1
 62
    18
176
     1
 90
       50
176
     1
 90
        3
176
     1
 62
     5
420
      255
176
     1
290
     0
176
     1
 90
       50
176
     1
 90
       50
176
     1
 90
       50
176
     1
290
     0
176
     1
 90
       50
176
     1
 62
   256
176
     0
 40
1.0
176
     0
 90
        2
176
     1
  1
strokes_ogs.tif
176
     1
290
     0
176
     1
 40
1.0
176
     1
 40
1.0
176
     1
  0
VISUALSTYLE
  5
40
102
{ACAD_REACTORS
330
29
102
}
330
29
100
AcDbVisualStyle
  2
OverhangOff
 70
    21
177
     3
291
     1
 70
    58
 90
        2
176
     0
 90
        2
176
     0
 90
        0
176
     0
 90
        0
176
     0
 40
0.6
176
     0
 40
30.0
176
     0
 62
     7
420
 16777215
176
     0
 90
        1
176
     0
 90
        4
176
     0
 62
     7
176
     0
 62
   257
176
     0
 90
        1
176
     0
 90
        1
176
     0
 40
1.0
176
     0
 90
        9
176
     2
 62
     7
176
     0
 40
1.0
176
     0
 90
        1
176
     0
 90
        6
176
     0
 90
        2
176
     0
 62
     7
176
     0
 90
        5
176
     0
 90
        0
176
     0
 90
        0
176
     0
290
     0
176
     0
 90
        1
176
     0
 40
0.0
176
     0
 90
        0
176
     0
290
     0
176
     1
290
     1
176
     1
290
     1
176
     1
290
     0
176
     1
290
     0
176
     1
290
     0
176
     1
290
     0
176
     1
290
     0
176
     1
290
     0
176
     1
 90
       50
176
     0
 40
0.0
176
     0
 40
1.0
176
     0
 90
        0
176
     0
 62
    18
176
     0
 90
       50
176
     0
 90
        3
176
     0
 62
     5
420
      255
176
     0
290
     0
176
     1
 90
       50
176
     0
 90
       50
176
     0
 90
       50
176
     0
290
     0
176
     1
 90
       50
176
     0
 62
   256
176
     0
 40
1.0
176
     0
 90
        2
176
     0
  1
strokes_ogs.tif
176
     0
290
     0
176
     1
 40
1.0
176
     0
 40
1.0
176
     0
  0
VISUALSTYLE
  5
33
102
{ACAD_REACTORS
330
29
102
}
330
29
100
AcDbVisualStyle
  2
Realistic
 70
     8
177
     3
291
     0
 70
    58
 90
        2
176
     1
 90
        3
176
     1
 90
        0
176
     1
 90
        2
176
     1
 40
0.6
176
     1
 40
30.0
176
     1
 62
     7
420
 16777215
176
     1
 90
        0
176
     1
 90
        0
176
     1
 62
     7
176
     1
 62
   257
176
     1
 90
        1
176
     1
 90
        1
176
     1
 40
1.0
176
     1
 90
        8
176
     1
 62
   257
176
     1
 40
1.0
176
     1
 90
        1
176
     1
 90
        6
176
     1
 90
        2
176
     1
 62
     7
176
     1
 90
        3
176
     1
 90
        0
176
     1
 90
        0
176
     1
290
     0
176
     1
 90
       13
176
     1
 40
0.0
176
     1
 90
        0
176
     1
290
     0
176
     1
290
     1
176
     1
290
     1
176
     1
290
     0
176
     1
290
     0
176
     1
290
     0
176
     1
290
     0
176
     1
290
     0
176
     1
290
     0
176
     1
 90
       50
176
     1
 40
0.0
176
     1
 40
1.0
176
     1
 90
        0
176
     1
 62
    18
176
     1
 90
       50
176
     1
 90
        3
176
     1
 62
     5
420
      255
176
     1
290
     0
176
     1
 90
       50
176
     1
 90
       50
176
     1
 90
       50
176
     1
290
     0
176
     1
 90
       50
176
     1
 62
   256
176
     0
 40
1.0
176
     0
 90
        2
176
     1
  1
strokes_ogs.tif
176
     1
290
     0
176
     1
 40
1.0
176
     1
 40
1.0
176
     1
  0
VISUALSTYLE
  5
3E
102
{ACAD_REACTORS
330
29
102
}
330
29
100
AcDbVisualStyle
  2
Shaded
 70
    27
177
     3
291
     0
 70
    58
 90
        2
176
     1
 90
        2
176
     1
 90
        1
176
     1
 90
        2
176
     1
 40
0.6
176
     1
 40
30.0
176
     1
 62
     7
420
 16777215
176
     1
 90
        0
176
     1
 90
        4
176
     1
 62
     7
176
     1
 62
   257
176
     1
 90
        1
176
     1
 90
        1
176
     1
 40
1.0
176
     1
 90
        8
176
     1
 62
   257
176
     1
 40
1.0
176
     1
 90
        1
176
     1
 90
        6
176
     1
 90
        2
176
     1
 62
     8
420
  7895160
176
     1
 90
        3
176
     1
 90
        0
176
     1
 90
        0
176
     1
290
     0
176
     1
 90
        5
176
     1
 40
0.0
176
     1
 90
        0
176
     1
290
     0
176
     1
290
     1
176
     1
290
     1
176
     1
290
     0
176
     1
290
     0
176
     1
290
     0
176
     1
290
     0
176
     1
290
     0
176
     1
290
     0
176
     1
 90
       50
176
     1
 40
0.0
176
     1
 40
1.0
176
     1
 90
        0
176
     1
 62
    18
176
     1
 90
       50
176
     1
 90
        3
176
     1
 62
     5
420
      255
176
     1
290
     0
176
     1
 90
       50
176
     1
 90
       50
176
     1
 90
       50
176
     1
290
     0
176
     1
 90
       50
176
     1
 62
   256
176
     0
 40
1.0
176
     0
 90
        2
176
     1
  1
strokes_ogs.tif
176
     1
290
     0
176
     1
 40
1.0
176
     1
 40
1.0
176
     1
  0
VISUALSTYLE
  5
3D
102
{ACAD_REACTORS
330
29
102
}
330
29
100
AcDbVisualStyle
  2
Shaded with edges
 70
    26
177
     3
291
     0
 70
    58
 90
        2
176
     1
 90
        2
176
     1
 90
        1
176
     1
 90
        2
176
     1
 40
0.6
176
     1
 40
30.0
176
     1
 62
     7
420
 16777215
176
     1
 90
        1
176
     1
 90
        2
176
     1
 62
     7
176
     1
 62
   257
176
     1
 90
        2
176
     1
 90
        1
176
     1
 40
1.0
176
     1
 90
        8
176
     1
 62
   257
176
     1
 40
1.0
176
     1
 90
        1
176
     1
 90
        6
176
     1
 90
        2
176
     1
 62
     7
176
     1
 90
        3
176
     1
 90
        0
176
     1
 90
        0
176
     1
290
     0
176
     1
 90
        5
176
     1
 40
0.0
176
     1
 90
        0
176
     1
290
     0
176
     1
290
     1
176
     1
290
     1
176
     1
290
     0
176
     1
290
     0
176
     1
290
     0
176
     1
290
     0
176
     1
290
     0
176
     1
290
     0
176
     1
 90
       50
176
     1
 40
0.0
176
     1
 40
1.0
176
     1
 90
        0
176
     1
 62
    18
176
     1
 90
       50
176
     1
 90
        3
176
     1
 62
     5
420
      255
176
     1
290
     0
176
     1
 90
       50
176
     1
 90
       50
176
     1
 90
       50
176
     1
290
     0
176
     1
 90
       50
176
     1
 62
   256
176
     0
 40
1.0
176
     0
 90
        2
176
     1
  1
strokes_ogs.tif
176
     1
290
     0
176
     1
 40
1.0
176
     1
 40
1.0
176
     1
  0
VISUALSTYLE
  5
3A
102
{ACAD_REACTORS
330
29
102
}
330
29
100
AcDbVisualStyle
  2
Shades of Gray
 70
    23
177
     3
291
     0
 70
    58
 90
        2
176
     1
 90
        2
176
     1
 90
        3
176
     1
 90
        0
176
     1
 40
0.6
176
     1
 40
30.0
176
     1
 62
     7
420
 16777215
176
     1
 90
        2
176
     1
 90
        2
176
     1
 62
     7
176
     1
 62
     7
176
     1
 90
        1
176
     1
 90
        1
176
     1
 40
40.0
176
     1
 90
        8
176
     1
 62
     7
176
     1
 40
1.0
176
     1
 90
        1
176
     1
 90
        6
176
     1
 90
        2
176
     1
 62
     7
176
     1
 90
        3
176
     1
 90
        0
176
     1
 90
        0
176
     1
290
     0
176
     1
 90
        1
176
     1
 40
0.0
176
     1
 90
        0
176
     1
290
     0
176
     1
290
     1
176
     1
290
     1
176
     1
290
     0
176
     1
290
     0
176
     1
290
     0
176
     1
290
     0
176
     1
290
     0
176
     1
290
     0
176
     1
 90
       50
176
     1
 40
0.0
176
     1
 40
1.0
176
     1
 90
        0
176
     1
 62
    18
176
     1
 90
       50
176
     1
 90
        3
176
     1
 62
     5
420
      255
176
     1
290
     0
176
     1
 90
       50
176
     1
 90
       50
176
     1
 90
       50
176
     1
290
     0
176
     1
 90
       50
176
     1
 62
   256
176
     0
 40
1.0
176
     0
 90
        2
176
     1
  1
strokes_ogs.tif
176
     1
290
     0
176
     1
 40
1.0
176
     1
 40
1.0
176
     1
  0
VISUALSTYLE
  5
3B
102
{ACAD_REACTORS
330
29
102
}
330
29
100
AcDbVisualStyle
  2
Sketchy
 70
    24
177
     3
291
     0
 70
    58
 90
        1
176
     1
 90
        2
176
     1
 90
        2
176
     1
 90
        0
176
     1
 40
0.6
176
     1
 40
30.0
176
     1
 62
     7
420
 16777215
176
     1
 90
        2
176
     1
 90
        2
176
     1
 62
     7
176
     1
 62
     7
176
     1
 90
        1
176
     1
 90
        1
176
     1
 40
40.0
176
     1
 90
       11
176
     1
 62
     7
176
     1
 40
1.0
176
     1
 90
        1
176
     1
 90
        6
176
     1
 90
        2
176
     1
 62
     7
176
     1
 90
        6
176
     1
 90
        0
176
     1
 90
        0
176
     1
290
     0
176
     1
 90
        1
176
     1
 40
0.0
176
     1
 90
        0
176
     1
290
     0
176
     1
290
     1
176
     1
290
     1
176
     1
290
     0
176
     1
290
     0
176
     1
290
     0
176
     1
290
     0
176
     1
290
     0
176
     1
290
     0
176
     1
 90
       50
176
     1
 40
0.0
176
     1
 40
1.0
176
     1
 90
        0
176
     1
 62
    18
176
     1
 90
       50
176
     1
 90
        3
176
     1
 62
     5
420
      255
176
     1
290
     0
176
     1
 90
       50
176
     1
 90
       50
176
     1
 90
       50
176
     1
290
     0
176
     1
 90
       50
176
     1
 62
   256
176
     0
 40
1.0
176
     0
 90
        2
176
     1
  1
strokes_ogs.tif
176
     1
290
     0
176
     1
 40
1.0
176
     1
 40
1.0
176
     1
  0
VISUALSTYLE
  5
36
102
{ACAD_REACTORS
330
29
102
}
330
29
100
AcDbVisualStyle
  2
Thicken
 70
    13
177
     3
291
     1
 70
    58
 90
        2
176
     1
 90
        2
176
     1
 90
        0
176
     1
 90
        0
176
     1
 40
0.6
176
     1
 40
30.0
176
     1
 62
     7
420
 16777215
176
     1
 90
        1
176
     1
 90
        4
176
     1
 62
     7
176
     1
 62
   257
176
     1
 90
        1
176
     1
 90
        1
176
     1
 40
1.0
176
     1
 90
       12
176
     1
 62
     7
176
     1
 40
1.0
176
     1
 90
        1
176
     1
 90
        6
176
     1
 90
        2
176
     1
 62
     7
176
     1
 90
        5
176
     1
 90
        0
176
     1
 90
        0
176
     1
290
     0
176
     1
 90
        1
176
     1
 40
0.0
176
     1
 90
        0
176
     1
290
     0
176
     1
290
     1
176
     1
290
     1
176
     1
290
     0
176
     1
290
     0
176
     1
290
     0
176
     1
290
     0
176
     1
290
     0
176
     1
290
     0
176
     1
 90
       50
176
     1
 40
0.0
176
     1
 40
1.0
176
     1
 90
        0
176
     1
 62
    18
176
     1
 90
       50
176
     1
 90
        3
176
     1
 62
     5
420
      255
176
     1
290
     0
176
     1
 90
       50
176
     1
 90
       50
176
     1
 90
       50
176
     1
290
     0
176
     1
 90
       50
176
     1
 62
   256
176
     0
 40
1.0
176
     0
 90
        2
176
     1
  1
strokes_ogs.tif
176
     1
290
     0
176
     1
 40
1.0
176
     1
 40
1.0
176
     1
  0
VISUALSTYLE
  5
30
102
{ACAD_REACTORS
330
29
102
}
330
29
100
AcDbVisualStyle
  2
Wireframe
 70
     5
177
     3
291
     0
 70
    58
 90
        0
176
     1
 90
        2
176
     1
 90
        0
176
     1
 90
        0
176
     1
 40
0.6
176
     1
 40
30.0
176
     1
 62
     7
420
 16777215
176
     1
 90
        1
176
     1
 90
        4
176
     1
 62
     7
176
     1
 62
   257
176
     1
 90
        1
176
     1
 90
        1
176
     1
 40
1.0
176
     1
 90
        0
176
     1
 62
   257
176
     1
 40
1.0
176
     1
 90
        1
176
     1
 90
        6
176
     1
 90
        2
176
     1
 62
     7
176
     1
 90
        3
176
     1
 90
        0
176
     1
 90
        0
176
     1
290
     0
176
     1
 90
        1
176
     1
 40
0.0
176
     1
 90
        0
176
     1
290
     0
176
     1
290
     1
176
     1
290
     1
176
     1
290
     0
176
     1
290
     0
176
     1
290
     0
176
     1
290
     0
176
     1
290
     0
176
     1
290
     0
176
     1
 90
       50
176
     1
 40
0.0
176
     1
 40
1.0
176
     1
 90
        0
176
     1
 62
    18
176
     1
 90
       50
176
     1
 90
        3
176
     1
 62
     5
420
      255
176
     1
290
     0
176
     1
 90
       50
176
     1
 90
       50
176
     1
 90
       50
176
     1
290
     0
176
     1
 90
       50
176
     1
 62
   256
176
     0
 40
1.0
176
     0
 90
        2
176
     1
  1
strokes_ogs.tif
176
     1
290
     0
176
     1
 40
1.0
176
     1
 40
1.0
176
     1
  0
VISUALSTYLE
  5
3C
102
{ACAD_REACTORS
330
29
102
}
330
29
100
AcDbVisualStyle
  2
X-Ray
 70
    25
177
     3
291
     0
 70
    58
 90
        2
176
     1
 90
        2
176
     1
 90
        1
176
     1
 90
        1
176
     1
 40
0.5
176
     1
 40
30.0
176
     1
 62
     7
420
 16777215
176
     1
 90
        1
176
     1
 90
        0
176
     1
 62
     7
176
     1
 62
   257
176
     1
 90
        1
176
     1
 90
        1
176
     1
 40
1.0
176
     1
 90
        8
176
     1
 62
     7
176
     1
 40
1.0
176
     1
 90
        1
176
     1
 90
        6
176
     1
 90
        2
176
     1
 62
     7
176
     1
 90
        3
176
     1
 90
        0
176
     1
 90
        0
176
     1
290
     0
176
     1
 90
       13
176
     1
 40
0.0
176
     1
 90
        0
176
     1
290
     0
176
     1
290
     1
176
     1
290
     1
176
     1
290
     0
176
     1
290
     0
176
     1
290
     0
176
     1
290
     0
176
     1
290
     0
176
     1
290
     0
176
     1
 90
       50
176
     1
 40
0.0
176
     1
 40
1.0
176
     1
 90
        0
176
     1
 62
    18
176
     1
 90
       50
176
     1
 90
        3
176
     1
 62
     5
420
      255
176
     1
290
     0
176
     1
 90
       50
176
     1
 90
       50
176
     1
 90
       50
176
     1
290
     0
176
     1
 90
       50
176
     1
 62
   256
176
     0
 40
1.0
176
     0
 90
        2
176
     1
  1
strokes_ogs.tif
176
     1
290
     0
176
     1
 40
1.0
176
     1
 40
1.0
176
     1
  0
DICTIONARYVAR
  5
17A
102
{ACAD_REACTORS
330
174
102
}
330
174
100
DictionaryVariables
280
     0
  1
1:1
  0
DICTIONARYVAR
  5
176
102
{ACAD_REACTORS
330
174
102
}
330
174
100
DictionaryVariables
280
     0
  1
STANDARD
  0
DICTIONARYVAR
  5
175
102
{ACAD_REACTORS
330
174
102
}
330
174
100
DictionaryVariables
280
     0
  1
STANDARD
  0
DICTIONARYVAR
  5
177
102
{ACAD_REACTORS
330
174
102
}
330
174
100
DictionaryVariables
280
     0
  1
Imperial24
  0
DICTIONARYVAR
  5
178
102
{ACAD_REACTORS
330
174
102
}
330
174
100
DictionaryVariables
280
     0
  1
Imperial24
  0
DICTIONARYVAR
  5
17C
102
{ACAD_REACTORS
330
174
102
}
330
174
100
DictionaryVariables
280
     0
  1
1
  0
DICTIONARYVAR
  5
17D
102
{ACAD_REACTORS
330
174
102
}
330
174
100
DictionaryVariables
280
     0
  1
15
  0
DICTIONARYVAR
  5
17B
102
{ACAD_REACTORS
330
174
102
}
330
174
100
DictionaryVariables
280
     0
  1
0
  0
DICTIONARYVAR
  5
179
102
{ACAD_REACTORS
330
174
102
}
330
174
100
DictionaryVariables
280
     0
  1
0
  0
DICTIONARY
  5
1A
330
19
100
AcDbDictionary
280
     1
281
     1
  3
BUMPTILE
360
1C
  3
DIFFUSETILE
360
1B
  3
OPACITYTILE
360
1F
  3
REFLECTIONTILE
360
1E
  3
REFRACTIONTILE
360
20
  3
SPECULARTILE
360
1D
  0
DICTIONARY
  5
12
330
11
100
AcDbDictionary
280
     1
281
     1
  3
BUMPTILE
360
14
  3
DIFFUSETILE
360
13
  3
OPACITYTILE
360
17
  3
REFLECTIONTILE
360
16
  3
REFRACTIONTILE
360
18
  3
SPECULARTILE
360
15
  0
DICTIONARY
  5
22
330
21
100
AcDbDictionary
280
     1
281
     1
  3
BUMPTILE
360
24
  3
DIFFUSETILE
360
23
  3
OPACITYTILE
360
27
  3
REFLECTIONTILE
360
26
  3
REFRACTIONTILE
360
28
  3
SPECULARTILE
360
25
  0
DICTIONARY
  5
19F
330
64
100
AcDbDictionary
280
     1
281
     1
  3
ACAD_ROUNDTRIP_2008_TABLESTYLE_CELLSTYLEMAP
360
2950
  0
XRECORD
  5
1C
102
{ACAD_REACTORS
330
1A
102
}
330
1A
100
AcDbXrecord
280
     1
270
     1
271
     1
  0
XRECORD
  5
1B
102
{ACAD_REACTORS
330
1A
102
}
330
1A
100
AcDbXrecord
280
     1
270
     1
271
     1
  0
XRECORD
  5
1F
102
{ACAD_REACTORS
330
1A
102
}
330
1A
100
AcDbXrecord
280
     1
270
     1
271
     1
  0
XRECORD
  5
1E
102
{ACAD_REACTORS
330
1A
102
}
330
1A
100
AcDbXrecord
280
     1
270
     1
271
     1
  0
XRECORD
  5
20
102
{ACAD_REACTORS
330
1A
102
}
330
1A
100
AcDbXrecord
280
     1
270
     1
271
     1
  0
XRECORD
  5
1D
102
{ACAD_REACTORS
330
1A
102
}
330
1A
100
AcDbXrecord
280
     1
270
     1
271
     1
  0
XRECORD
  5
14
102
{ACAD_REACTORS
330
12
102
}
330
12
100
AcDbXrecord
280
     1
270
     1
271
     1
  0
XRECORD
  5
13
102
{ACAD_REACTORS
330
12
102
}
330
12
100
AcDbXrecord
280
     1
270
     1
271
     1
  0
XRECORD
  5
17
102
{ACAD_REACTORS
330
12
102
}
330
12
100
AcDbXrecord
280
     1
270
     1
271
     1
  0
XRECORD
  5
16
102
{ACAD_REACTORS
330
12
102
}
330
12
100
AcDbXrecord
280
     1
270
     1
271
     1
  0
XRECORD
  5
18
102
{ACAD_REACTORS
330
12
102
}
330
12
100
AcDbXrecord
280
     1
270
     1
271
     1
  0
XRECORD
  5
15
102
{ACAD_REACTORS
330
12
102
}
330
12
100
AcDbXrecord
280
     1
270
     1
271
     1
  0
XRECORD
  5
24
102
{ACAD_REACTORS
330
22
102
}
330
22
100
AcDbXrecord
280
     1
270
     1
271
     1
  0
XRECORD
  5
23
102
{ACAD_REACTORS
330
22
102
}
330
22
100
AcDbXrecord
280
     1
270
     1
271
     1
  0
XRECORD
  5
27
102
{ACAD_REACTORS
330
22
102
}
330
22
100
AcDbXrecord
280
     1
270
     1
271
     1
  0
XRECORD
  5
26
102
{ACAD_REACTORS
330
22
102
}
330
22
100
AcDbXrecord
280
     1
270
     1
271
     1
  0
XRECORD
  5
28
102
{ACAD_REACTORS
330
22
102
}
330
22
100
AcDbXrecord
280
     1
270
     1
271
     1
  0
XRECORD
  5
25
102
{ACAD_REACTORS
330
22
102
}
330
22
100
AcDbXrecord
280
     1
270
     1
271
     1
  0
CELLSTYLEMAP
  5
2950
102
{ACAD_REACTORS
330
19F
102
}
330
19F
100
AcDbCellStyleMap
 90
        3
300
CELLSTYLE
  1
TABLEFORMAT_BEGIN
 90
        5
170
     1
 91
        0
 92
    32768
 62
   257
 93
        1
300
CONTENTFORMAT
  1
CONTENTFORMAT_BEGIN
 90
        0
 91
        0
 92
      512
 93
        0
300

 40
0.0
140
1.0
 94
        5
 62
     0
340
55
144
0.25
309
CONTENTFORMAT_END
171
     1
301
MARGIN
  1
CELLMARGIN_BEGIN
 40
0.06
 40
0.06
 40
0.06
 40
0.06
 40
0.18
 40
0.18
309
CELLMARGIN_END
 94
        6
 95
        1
302
GRIDFORMAT
  1
GRIDFORMAT_BEGIN
 90
        0
 91
        1
 62
     0
 92
       -2
340
0
 93
        0
 40
0.045
309
GRIDFORMAT_END
 95
        2
302
GRIDFORMAT
  1
GRIDFORMAT_BEGIN
 90
        0
 91
        1
 62
     0
 92
       -2
340
0
 93
        0
 40
0.045
309
GRIDFORMAT_END
 95
        4
302
GRIDFORMAT
  1
GRIDFORMAT_BEGIN
 90
        0
 91
        1
 62
     0
 92
       -2
340
0
 93
        0
 40
0.045
309
GRIDFORMAT_END
 95
        8
302
GRIDFORMAT
  1
GRIDFORMAT_BEGIN
 90
        0
 91
        1
 62
     0
 92
       -2
340
0
 93
        0
 40
0.045
309
GRIDFORMAT_END
 95
       16
302
GRIDFORMAT
  1
GRIDFORMAT_BEGIN
 90
        0
 91
        1
 62
     0
 92
       -2
340
0
 93
        0
 40
0.045
309
GRIDFORMAT_END
 95
       32
302
GRIDFORMAT
  1
GRIDFORMAT_BEGIN
 90
        0
 91
        1
 62
     0
 92
       -2
340
0
 93
        0
 40
0.045
309
GRIDFORMAT_END
309
TABLEFORMAT_END
  1
CELLSTYLE_BEGIN
 90
        1
 91
        1
300
_TITLE
309
CELLSTYLE_END
300
CELLSTYLE
  1
TABLEFORMAT_BEGIN
 90
        5
170
     1
 91
        0
 92
        0
 62
   257
 93
        1
300
CONTENTFORMAT
  1
CONTENTFORMAT_BEGIN
 90
        0
 91
        0
 92
      512
 93
        0
300

 40
0.0
140
1.0
 94
        5
 62
     0
340
55
144
0.18
309
CONTENTFORMAT_END
171
     1
301
MARGIN
  1
CELLMARGIN_BEGIN
 40
0.06
 40
0.06
 40
0.06
 40
0.06
 40
0.18
 40
0.18
309
CELLMARGIN_END
 94
        6
 95
        1
302
GRIDFORMAT
  1
GRIDFORMAT_BEGIN
 90
        0
 91
        1
 62
     0
 92
       -2
340
0
 93
        0
 40
0.045
309
GRIDFORMAT_END
 95
        2
302
GRIDFORMAT
  1
GRIDFORMAT_BEGIN
 90
        0
 91
        1
 62
     0
 92
       -2
340
0
 93
        0
 40
0.045
309
GRIDFORMAT_END
 95
        4
302
GRIDFORMAT
  1
GRIDFORMAT_BEGIN
 90
        0
 91
        1
 62
     0
 92
       -2
340
0
 93
        0
 40
0.045
309
GRIDFORMAT_END
 95
        8
302
GRIDFORMAT
  1
GRIDFORMAT_BEGIN
 90
        0
 91
        1
 62
     0
 92
       -2
340
0
 93
        0
 40
0.045
309
GRIDFORMAT_END
 95
       16
302
GRIDFORMAT
  1
GRIDFORMAT_BEGIN
 90
        0
 91
        1
 62
     0
 92
       -2
340
0
 93
        0
 40
0.045
309
GRIDFORMAT_END
 95
       32
302
GRIDFORMAT
  1
GRIDFORMAT_BEGIN
 90
        0
 91
        1
 62
     0
 92
       -2
340
0
 93
        0
 40
0.045
309
GRIDFORMAT_END
309
TABLEFORMAT_END
  1
CELLSTYLE_BEGIN
 90
        2
 91
        1
300
_HEADER
309
CELLSTYLE_END
300
CELLSTYLE
  1
TABLEFORMAT_BEGIN
 90
        5
170
     1
 91
        0
 92
        0
 62
   257
 93
        1
300
CONTENTFORMAT
  1
CONTENTFORMAT_BEGIN
 90
        0
 91
        0
 92
      512
 93
        0
300

 40
0.0
140
1.0
 94
        2
 62
     0
340
55
144
0.18
309
CONTENTFORMAT_END
171
     1
301
MARGIN
  1
CELLMARGIN_BEGIN
 40
0.06
 40
0.06
 40
0.06
 40
0.06
 40
0.18
 40
0.18
309
CELLMARGIN_END
 94
        6
 95
        1
302
GRIDFORMAT
  1
GRIDFORMAT_BEGIN
 90
        0
 91
        1
 62
     0
 92
       -2
340
0
 93
        0
 40
0.045
309
GRIDFORMAT_END
 95
        2
302
GRIDFORMAT
  1
GRIDFORMAT_BEGIN
 90
        0
 91
        1
 62
     0
 92
       -2
340
0
 93
        0
 40
0.045
309
GRIDFORMAT_END
 95
        4
302
GRIDFORMAT
  1
GRIDFORMAT_BEGIN
 90
        0
 91
        1
 62
     0
 92
       -2
340
0
 93
        0
 40
0.045
309
GRIDFORMAT_END
 95
        8
302
GRIDFORMAT
  1
GRIDFORMAT_BEGIN
 90
        0
 91
        1
 62
     0
 92
       -2
340
0
 93
        0
 40
0.045
309
GRIDFORMAT_END
 95
       16
302
GRIDFORMAT
  1
GRIDFORMAT_BEGIN
 90
        0
 91
        1
 62
     0
 92
       -2
340
0
 93
        0
 40
0.045
309
GRIDFORMAT_END
 95
       32
302
GRIDFORMAT
  1
GRIDFORMAT_BEGIN
 90
        0
 91
        1
 62
     0
 92
       -2
340
0
 93
        0
 40
0.045
309
GRIDFORMAT_END
309
TABLEFORMAT_END
  1
CELLSTYLE_BEGIN
 90
        3
 91
        2
300
_DATA
309
CELLSTYLE_END
  0
ENDSEC
  0
SECTION
  2
ACDSDATA
 70
     2
 71
     8
  0
ACDSSCHEMA
 90
        0
  1
AcDb_Thumbnail_Schema
  2
AcDbDs::ID
280
    10
 91
        8
  2
Thumbnail_Data
280
    15
 91
        0
101
ACDSRECORD
 95
        0
 90
        1
  2
AcDbDs::TreatedAsObjectData
280
     1
291
     1
101
ACDSRECORD
 95
        0
 90
        2
  2
AcDbDs::Legacy
280
     1
291
     1
101
ACDSRECORD
  1
AcDbDs::ID
 90
        3
  2
AcDs:Indexable
280
     1
291
     1
101
ACDSRECORD
  1
AcDbDs::ID
 90
        4
  2
AcDbDs::HandleAttribute
280
     7
282
     1
  0
ACDSSCHEMA
 90
        1
  1
AcDbDs::TreatedAsObjectDataSchema
  2
AcDbDs::TreatedAsObjectData
280
     1
 91
        0
  0
ACDSSCHEMA
 90
        2
  1
AcDbDs::LegacySchema
  2
AcDbDs::Legacy
280
     1
 91
        0
  0
ACDSSCHEMA
 90
        3
  1
AcDbDs::IndexedPropertySchema
  2
AcDs:Indexable
280
     1
 91
        0
  0
ACDSSCHEMA
 90
        4
  1
AcDbDs::HandleAttributeSchema
  2
AcDbDs::HandleAttribute
280
     7
 91
        1
284
     1
  0
ACDSRECORD
 90
        0
  2
AcDbDs::ID
280
    10
320
72
  2
Thumbnail_Data
280
    15
 94
     1659
310
89504E470D0A1A0A0000000D4948445200000100000000900803000000D0BD45A300000300504C5445212830FFFFFF2128300000000000000000000000000000000000000000000000000000330000660000990000CC0000FF0033000033330033660033990033CC0033FF0066000066330066660066990066CC0066FF0099
310
000099330099660099990099CC0099FF00CC0000CC3300CC6600CC9900CCCC00CCFF00FF0000FF3300FF6600FF9900FFCC00FFFF3300003300333300663300993300CC3300FF3333003333333333663333993333CC3333FF3366003366333366663366993366CC3366FF3399003399333399663399993399CC3399FF33CC00
310
33CC3333CC6633CC9933CCCC33CCFF33FF0033FF3333FF6633FF9933FFCC33FFFF6600006600336600666600996600CC6600FF6633006633336633666633996633CC6633FF6666006666336666666666996666CC6666FF6699006699336699666699996699CC6699FF66CC0066CC3366CC6666CC9966CCCC66CCFF66FF0066
310
FF3366FF6666FF9966FFCC66FFFF9900009900339900669900999900CC9900FF9933009933339933669933999933CC9933FF9966009966339966669966999966CC9966FF9999009999339999669999999999CC9999FF99CC0099CC3399CC6699CC9999CCCC99CCFF99FF0099FF3399FF6699FF9999FFCC99FFFFCC0000CC00
310
33CC0066CC0099CC00CCCC00FFCC3300CC3333CC3366CC3399CC33CCCC33FFCC6600CC6633CC6666CC6699CC66CCCC66FFCC9900CC9933CC9966CC9999CC99CCCC99FFCCCC00CCCC33CCCC66CCCC99CCCCCCCCCCFFCCFF00CCFF33CCFF66CCFF99CCFFCCCCFFFFFF0000FF0033FF0066FF0099FF00CCFF00FFFF3300FF3333
310
FF3366FF3399FF33CCFF33FFFF6600FF6633FF6666FF6699FF66CCFF66FFFF9900FF9933FF9966FF9999FF99CCFF99FFFFCC00FFCC33FFCC66FFCC99FFCCCCFFCCFFFFFF00FFFF33FFFF66FFFF99FFFFCCFFFFFF0000000D0D0D1A1A1A2828283535354343435050505D5D5D6B6B6B787878868686939393A1A1A1AEAEAEBB
310
BBBBC9C9C9D6D6D6E4E4E4F1F1F1FFFFFF0000000000000000000000000000000000000000000000000000000000002E4550F10000008B4944415478DAEDD8310E80200C40D1DEFFBEDD4D1C198C098D16786F4588F9DA8508000000000000000000000000000000000000000000000000E08DCCB9A51C9F7AD8B56780583C
310
C0FD0D678CFBD79B81C8B6A7FD3D030D8EFBE40FE87D9E000208208000020820800002082080000208208000020850FCC22E45CFBE16CF7ADB4C40F91200000070B60BF04EEB6F8D32729E0000000049454E44AE42608271DF04789A04AB04A49F2340A66382AAC812A4F603AF85C4DE4B655CB664DEFB4A66687064CC80C1
310
E468C9E454D8E22C39AA8696DE77FC527254F739CFD3F5D51B4B6C859B9622D91D97C1E561F90BD1F57A420F8A9EAFD74ABF3014ACB36BFE3014ACCAF480C70568EC313BEE0F244A7BC0F802148FEFFD50BF6A394E1E993900010C81D105A87E03BB6C9FFC084874E5FCE5DAFF7D0C817E02A61F02667B40DB29D69100958C
310
81F8A9D26701C393E0E4023A0D01AB670155C5B2B4457C531135AB02F40D405FF6FA7DA4203AB8BB1902D53D402111D236BC0FD0B6BE9FA37BDFF6F89FA921607A27184DEDBBE5611310BD2E151A92F1B3409580784A88044C33040E02CCAF020D71BFEBBC8DBDBC00992172A323A5427F5037D8BF70B2A5A3FF70083C5038
310
49D154599DE0F13AC8CF8FA4261740E1247340F3A674EE8209042000010840000210808019055038B97EF799EB0611E04A4043E1A43301AA2E9CF435095238290A27A72D9CCC6EF5EEEEE1DC644F80B5E4606FA143DF1E00000000000000000000F8E70F99909ED1EB9062890000000049454E44AE42608200000000000000
310
0000D4A6AA5606F0AE6951005BDF010000EF001A1FA0300100697B80C28A00726F00E00C408F072858274587DCC12BD532DCEE70AE0F0D7537B47A9411E0E27C004208218410420821841042082184104253E80F3F3B32636B80E1B30000000049454E44AE42608204A500E05E5B9AFE887384D3998258B01F137C3C02725D
310
844B0418F703B222184FC9D2B49EE544B000C05557B8285723D94BB6A92F3C32FB67CF06935D0477D9E0D6E9306B8616AF1768A833B2FB9AA1A54B66647DF9645A59BE4104EBDD4B5DBC686AF1BAC1EA6B7678CF10EF190A2E69DB374CE82955CC6AC543A704000000000000380370B719FC01C3B6E8393D444D8400000000
310
49454E44AE426082
  0
ENDSEC
  0
EOF
