  0
SECTION
  2
HEADER
  9
$ACADVER
  1
AC1032
  9
$ACADMAINTVER
 90
      158
  9
$DWGCODEPAGE
  3
ANSI_1252
  9
$LASTSAVEDBY
  1
Carlos
  9
$REQUIREDVERSIONS
160
                 0
  9
$INSBASE
 10
0.0
 20
0.0
 30
0.0
  9
$EXTMIN
 10
-73.49665143691829
 20
-42.37524473557068
 30
0.0
  9
$EXTMAX
 10
335.0302639630816
 20
100.4516693448893
 30
0.0
  9
$LIMMIN
 10
0.0
 20
0.0
  9
$LIMMAX
 10
12.0
 20
9.0
  9
$ORTHOMODE
 70
     0
  9
$REGENMODE
 70
     1
  9
$FILLMODE
 70
     0
  9
$QTEXTMODE
 70
     0
  9
$MIRRTEXT
 70
     0
  9
$LTSCALE
 40
1.0
  9
$ATTMODE
 70
     1
  9
$TEXTSIZE
 40
0.2
  9
$TRACEWID
 40
0.05
  9
$TEXTSTYLE
  7
Standard
  9
$CLAYER
  8
0
  9
$CELTYPE
  6
Continuous
  9
$CECOLOR
 62
   256
  9
$CELTSCALE
 40
1.0
  9
$DISPSILH
 70
     0
  9
$DIMSCALE
 40
1.0
  9
$DIMASZ
 40
0.18
  9
$DIMEXO
 40
0.0625
  9
$DIMDLI
 40
0.38
  9
$DIMRND
 40
0.0
  9
$DIMDLE
 40
0.0
  9
$DIMEXE
 40
0.18
  9
$DIMTP
 40
0.0
  9
$DIMTM
 40
0.0
  9
$DIMTXT
 40
0.18
  9
$DIMCEN
 40
0.09
  9
$DIMTSZ
 40
0.0
  9
$DIMTOL
 70
     0
  9
$DIMLIM
 70
     0
  9
$DIMTIH
 70
     1
  9
$DIMTOH
 70
     1
  9
$DIMSE1
 70
     0
  9
$DIMSE2
 70
     0
  9
$DIMTAD
 70
     0
  9
$DIMZIN
 70
     0
  9
$DIMBLK
  1

  9
$DIMASO
 70
     1
  9
$DIMSHO
 70
     1
  9
$DIMPOST
  1

  9
$DIMAPOST
  1

  9
$DIMALT
 70
     0
  9
$DIMALTD
 70
     2
  9
$DIMALTF
 40
25.4
  9
$DIMLFAC
 40
1.0
  9
$DIMTOFL
 70
     0
  9
$DIMTVP
 40
0.0
  9
$DIMTIX
 70
     0
  9
$DIMSOXD
 70
     0
  9
$DIMSAH
 70
     0
  9
$DIMBLK1
  1

  9
$DIMBLK2
  1

  9
$DIMSTYLE
  2
Standard
  9
$DIMCLRD
 70
     0
  9
$DIMCLRE
 70
     0
  9
$DIMCLRT
 70
     0
  9
$DIMTFAC
 40
1.0
  9
$DIMGAP
 40
0.09
  9
$DIMJUST
 70
     0
  9
$DIMSD1
 70
     0
  9
$DIMSD2
 70
     0
  9
$DIMTOLJ
 70
     1
  9
$DIMTZIN
 70
     0
  9
$DIMALTZ
 70
     0
  9
$DIMALTTZ
 70
     0
  9
$DIMUPT
 70
     0
  9
$DIMDEC
 70
     4
  9
$DIMTDEC
 70
     4
  9
$DIMALTU
 70
     2
  9
$DIMALTTD
 70
     2
  9
$DIMTXSTY
  7
Standard
  9
$DIMAUNIT
 70
     0
  9
$DIMADEC
 70
     0
  9
$DIMALTRND
 40
0.0
  9
$DIMAZIN
 70
     0
  9
$DIMDSEP
 70
    46
  9
$DIMATFIT
 70
     3
  9
$DIMFRAC
 70
     0
  9
$DIMLDRBLK
  1

  9
$DIMLUNIT
 70
     2
  9
$DIMLWD
 70
    -2
  9
$DIMLWE
 70
    -2
  9
$DIMTMOVE
 70
     0
  9
$DIMFXL
 40
1.0
  9
$DIMFXLON
 70
     0
  9
$DIMJOGANG
 40
0.7853981633974483
  9
$DIMTFILL
 70
     0
  9
$DIMTFILLCLR
 70
     0
  9
$DIMARCSYM
 70
     0
  9
$DIMLTYPE
  6

  9
$DIMLTEX1
  6

  9
$DIMLTEX2
  6

  9
$DIMTXTDIRECTION
 70
     0
  9
$LUNITS
 70
     2
  9
$LUPREC
 70
     4
  9
$SKETCHINC
 40
0.1
  9
$FILLETRAD
 40
0.0
  9
$AUNITS
 70
     0
  9
$AUPREC
 70
     0
  9
$MENU
  1
.
  9
$ELEVATION
 40
0.0
  9
$PELEVATION
 40
0.0
  9
$THICKNESS
 40
0.0
  9
$LIMCHECK
 70
     0
  9
$CHAMFERA
 40
0.0
  9
$CHAMFERB
 40
0.0
  9
$CHAMFERC
 40
0.0
  9
$CHAMFERD
 40
0.0
  9
$SKPOLY
 70
     0
  9
$TDCREATE
 40
2459050.812245370
  9
$TDUCREATE
 40
2459050.728912037
  9
$TDUPDATE
 40
2459052.989768519
  9
$TDUUPDATE
 40
2459052.906435185
  9
$TDINDWG
 40
0.2588078704
  9
$TDUSRTIMER
 40
0.2588078704
  9
$USRTIMER
 70
     1
  9
$ANGBASE
 50
0.0
  9
$ANGDIR
 70
     0
  9
$PDMODE
 70
     0
  9
$PDSIZE
 40
0.0
  9
$PLINEWID
 40
0.0
  9
$SPLFRAME
 70
     1
  9
$SPLINETYPE
 70
     6
  9
$SPLINESEGS
 70
     8
  9
$HANDSEED
  5
2389
  9
$SURFTAB1
 70
     6
  9
$SURFTAB2
 70
     6
  9
$SURFTYPE
 70
     6
  9
$SURFU
 70
     6
  9
$SURFV
 70
     6
  9
$UCSBASE
  2

  9
$UCSNAME
  2

  9
$UCSORG
 10
0.0
 20
0.0
 30
0.0
  9
$UCSXDIR
 10
1.0
 20
0.0
 30
0.0
  9
$UCSYDIR
 10
0.0
 20
1.0
 30
0.0
  9
$UCSORTHOREF
  2

  9
$UCSORTHOVIEW
 70
     0
  9
$UCSORGTOP
 10
0.0
 20
0.0
 30
0.0
  9
$UCSORGBOTTOM
 10
0.0
 20
0.0
 30
0.0
  9
$UCSORGLEFT
 10
0.0
 20
0.0
 30
0.0
  9
$UCSORGRIGHT
 10
0.0
 20
0.0
 30
0.0
  9
$UCSORGFRONT
 10
0.0
 20
0.0
 30
0.0
  9
$UCSORGBACK
 10
0.0
 20
0.0
 30
0.0
  9
$PUCSBASE
  2

  9
$PUCSNAME
  2

  9
$PUCSORG
 10
0.0
 20
0.0
 30
0.0
  9
$PUCSXDIR
 10
1.0
 20
0.0
 30
0.0
  9
$PUCSYDIR
 10
0.0
 20
1.0
 30
0.0
  9
$PUCSORTHOREF
  2

  9
$PUCSORTHOVIEW
 70
     0
  9
$PUCSORGTOP
 10
0.0
 20
0.0
 30
0.0
  9
$PUCSORGBOTTOM
 10
0.0
 20
0.0
 30
0.0
  9
$PUCSORGLEFT
 10
0.0
 20
0.0
 30
0.0
  9
$PUCSORGRIGHT
 10
0.0
 20
0.0
 30
0.0
  9
$PUCSORGFRONT
 10
0.0
 20
0.0
 30
0.0
  9
$PUCSORGBACK
 10
0.0
 20
0.0
 30
0.0
  9
$USERI1
 70
     0
  9
$USERI2
 70
     0
  9
$USERI3
 70
     0
  9
$USERI4
 70
     0
  9
$USERI5
 70
     0
  9
$USERR1
 40
0.0
  9
$USERR2
 40
0.0
  9
$USERR3
 40
0.0
  9
$USERR4
 40
0.0
  9
$USERR5
 40
0.0
  9
$WORLDVIEW
 70
     1
  9
$SHADEDGE
 70
     3
  9
$SHADEDIF
 70
    70
  9
$TILEMODE
 70
     1
  9
$MAXACTVP
 70
    64
  9
$PINSBASE
 10
0.0
 20
0.0
 30
0.0
  9
$PLIMCHECK
 70
     0
  9
$PEXTMIN
 10
1.000000000000000E+20
 20
1.000000000000000E+20
 30
1.000000000000000E+20
  9
$PEXTMAX
 10
-1.000000000000000E+20
 20
-1.000000000000000E+20
 30
-1.000000000000000E+20
  9
$PLIMMIN
 10
0.0
 20
0.0
  9
$PLIMMAX
 10
12.0
 20
9.0
  9
$UNITMODE
 70
     0
  9
$VISRETAIN
 70
     1
  9
$PLINEGEN
 70
     0
  9
$PSLTSCALE
 70
     1
  9
$TREEDEPTH
 70
  3020
  9
$CMLSTYLE
  2
Standard
  9
$CMLJUST
 70
     0
  9
$CMLSCALE
 40
1.0
  9
$PROXYGRAPHICS
 70
     1
  9
$MEASUREMENT
 70
     0
  9
$CELWEIGHT
370
    -1
  9
$ENDCAPS
280
     0
  9
$JOINSTYLE
280
     0
  9
$LWDISPLAY
290
     0
  9
$INSUNITS
 70
     0
  9
$HYPERLINKBASE
  1

  9
$STYLESHEET
  1

  9
$XEDIT
290
     1
  9
$CEPSNTYPE
380
     0
  9
$PSTYLEMODE
290
     1
  9
$FINGERPRINTGUID
  2
{931FAA80-3049-7049-BE3C-2F3E39F7ADF5}
  9
$VERSIONGUID
  2
{C376CA82-F9B4-2443-923C-7DB5B8BFA025}
  9
$EXTNAMES
290
     1
  9
$PSVPSCALE
 40
0.0
  9
$OLESTARTUP
290
     0
  9
$SORTENTS
280
   127
  9
$INDEXCTL
280
     0
  9
$HIDETEXT
280
     0
  9
$XCLIPFRAME
280
     2
  9
$HALOGAP
280
     0
  9
$OBSCOLOR
 70
   257
  9
$OBSLTYPE
280
     0
  9
$INTERSECTIONDISPLAY
280
     0
  9
$INTERSECTIONCOLOR
 70
   257
  9
$DIMASSOC
280
     1
  9
$PROJECTNAME
  1

  9
$CAMERADISPLAY
290
     0
  9
$LENSLENGTH
 40
50.0
  9
$CAMERAHEIGHT
 40
0.0
  9
$STEPSPERSEC
 40
2.0
  9
$STEPSIZE
 40
6.0
  9
$3DDWFPREC
 40
2.0
  9
$PSOLWIDTH
 40
0.25
  9
$PSOLHEIGHT
 40
4.0
  9
$LOFTANG1
 40
1.570796326794896
  9
$LOFTANG2
 40
1.570796326794896
  9
$LOFTMAG1
 40
0.0
  9
$LOFTMAG2
 40
0.0
  9
$LOFTPARAM
 70
     7
  9
$LOFTNORMALS
280
     1
  9
$LATITUDE
 40
37.795
  9
$LONGITUDE
 40
-122.394
  9
$NORTHDIRECTION
 40
0.0
  9
$TIMEZONE
 70
 -8000
  9
$LIGHTGLYPHDISPLAY
280
     1
  9
$TILEMODELIGHTSYNCH
280
     1
  9
$CMATERIAL
347
11
  9
$SOLIDHIST
280
     0
  9
$SHOWHIST
280
     1
  9
$DWFFRAME
280
     2
  9
$DGNFRAME
280
     0
  9
$REALWORLDSCALE
290
     1
  9
$INTERFERECOLOR
 62
     1
  9
$INTERFEREOBJVS
345
33
  9
$INTERFEREVPVS
346
30
  9
$CSHADOW
280
     0
  9
$SHADOWPLANELOCATION
 40
0.0
  0
ENDSEC
  0
SECTION
  2
CLASSES
  0
CLASS
  1
ACDBDICTIONARYWDFLT
  2
AcDbDictionaryWithDefault
  3
ObjectDBX Classes
 90
        0
 91
        1
280
     0
281
     0
  0
CLASS
  1
MATERIAL
  2
AcDbMaterial
  3
ObjectDBX Classes
 90
     1153
 91
        3
280
     0
281
     0
  0
CLASS
  1
VISUALSTYLE
  2
AcDbVisualStyle
  3
ObjectDBX Classes
 90
     4095
 91
       24
280
     0
281
     0
  0
CLASS
  1
SCALE
  2
AcDbScale
  3
ObjectDBX Classes
 90
     1153
 91
       17
280
     0
281
     0
  0
CLASS
  1
TABLESTYLE
  2
AcDbTableStyle
  3
ObjectDBX Classes
 90
     4095
 91
        1
280
     0
281
     0
  0
CLASS
  1
MLEADERSTYLE
  2
AcDbMLeaderStyle
  3
ACDB_MLEADERSTYLE_CLASS
 90
     4095
 91
        1
280
     0
281
     0
  0
CLASS
  1
ACDBSECTIONVIEWSTYLE
  2
AcDbSectionViewStyle
  3
ObjectDBX Classes
 90
     1025
 91
        1
280
     0
281
     0
  0
CLASS
  1
ACDBDETAILVIEWSTYLE
  2
AcDbDetailViewStyle
  3
ObjectDBX Classes
 90
     1025
 91
        1
280
     0
281
     0
  0
CLASS
  1
DICTIONARYVAR
  2
AcDbDictionaryVar
  3
ObjectDBX Classes
 90
        0
 91
        9
280
     0
281
     0
  0
CLASS
  1
CELLSTYLEMAP
  2
AcDbCellStyleMap
  3
ObjectDBX Classes
 90
     1152
 91
        1
280
     0
281
     0
  0
CLASS
  1
SORTENTSTABLE
  2
AcDbSortentsTable
  3
ObjectDBX Classes
 90
        0
 91
        0
280
     0
281
     0
  0
ENDSEC
  0
SECTION
  2
TABLES
  0
TABLE
  2
VPORT
  5
8
330
0
100
AcDbSymbolTable
 70
     1
  0
VPORT
  5
74
330
8
100
AcDbSymbolTableRecord
100
AcDbViewportTableRecord
  2
*Active
 70
     0
 10
0.0
 20
0.0
 11
1.0
 21
1.0
 12
156.7127344711939
 22
20.81297895524733
 13
0.0
 23
0.0
 14
1.0
 24
1.0
 15
0.0
 25
0.0
 16
0.0
 26
0.0
 36
1.0
 17
0.0
 27
0.0
 37
0.0
 40
309.9021801857229
 41
1.775057383320581
 42
50.0
 43
0.0
 44
0.0
 50
0.0
 51
0.0
 71
     0
 72
   100
 73
     1
 74
     0
 75
     1
 76
     0
 77
     0
 78
     0
281
     0
 65
     1
110
0.0
120
0.0
130
0.0
111
1.0
121
0.0
131
0.0
112
0.0
122
1.0
132
0.0
 79
     0
146
0.0
348
2F
 60
     3
 61
     5
292
     1
282
     1
141
0.0
142
0.0
 63
   250
421
  3355443
1001
ACAD_NAV_VCDISPLAY
1070
     3
  0
ENDTAB
  0
TABLE
  2
LTYPE
  5
5
330
0
100
AcDbSymbolTable
 70
     1
  0
LTYPE
  5
5A
330
5
100
AcDbSymbolTableRecord
100
AcDbLinetypeTableRecord
  2
ByBlock
 70
     0
  3

 72
    65
 73
     0
 40
0.0
  0
LTYPE
  5
5B
330
5
100
AcDbSymbolTableRecord
100
AcDbLinetypeTableRecord
  2
ByLayer
 70
     0
  3

 72
    65
 73
     0
 40
0.0
  0
LTYPE
  5
5C
330
5
100
AcDbSymbolTableRecord
100
AcDbLinetypeTableRecord
  2
Continuous
 70
     0
  3
Solid line
 72
    65
 73
     0
 40
0.0
  0
ENDTAB
  0
TABLE
  2
LAYER
  5
2
102
{ACAD_XDICTIONARY
360
C40
102
}
330
0
100
AcDbSymbolTable
 70
     1
  0
LAYER
  5
54
102
{ACAD_XDICTIONARY
360
C37
102
}
330
2
100
AcDbSymbolTableRecord
100
AcDbLayerTableRecord
  2
0
 70
     0
 62
     7
  6
Continuous
370
    -3
390
F
347
21
348
0
  0
ENDTAB
  0
TABLE
  2
STYLE
  5
3
330
0
100
AcDbSymbolTable
 70
     2
  0
STYLE
  5
55
330
3
100
AcDbSymbolTableRecord
100
AcDbTextStyleTableRecord
  2
Standard
 70
     0
 40
0.0
 41
1.0
 50
0.0
 71
     0
 42
0.2
  3
txt
  4

  0
STYLE
  5
59
330
3
100
AcDbSymbolTableRecord
100
AcDbTextStyleTableRecord
  2
Annotative
 70
     0
 40
0.0
 41
1.0
 50
0.0
 71
     0
 42
0.2
  3
txt
  4

1001
AcadAnnotative
1000
AnnotativeData
1002
{
1070
     1
1070
     1
1002
}
  0
ENDTAB
  0
TABLE
  2
VIEW
  5
6
330
0
100
AcDbSymbolTable
 70
     0
  0
ENDTAB
  0
TABLE
  2
UCS
  5
7
330
0
100
AcDbSymbolTable
 70
     0
  0
ENDTAB
  0
TABLE
  2
APPID
  5
9
330
0
100
AcDbSymbolTable
 70
     4
  0
APPID
  5
56
330
9
100
AcDbSymbolTableRecord
100
AcDbRegAppTableRecord
  2
ACAD
 70
     0
  0
APPID
  5
5D
330
9
100
AcDbSymbolTableRecord
100
AcDbRegAppTableRecord
  2
AcadAnnotative
 70
     0
  0
APPID
  5
A17
330
9
100
AcDbSymbolTableRecord
100
AcDbRegAppTableRecord
  2
ACAD_NAV_VCDISPLAY
 70
     0
  0
APPID
  5
C14
330
9
100
AcDbSymbolTableRecord
100
AcDbRegAppTableRecord
  2
ACAD_EXEMPT_FROM_CAD_STANDARDS
 70
     0
  0
ENDTAB
  0
TABLE
  2
DIMSTYLE
  5
A
330
0
100
AcDbSymbolTable
 70
     2
100
AcDbDimStyleTable
 71
     1
340
57
  0
DIMSTYLE
105
57
330
A
100
AcDbSymbolTableRecord
100
AcDbDimStyleTableRecord
  2
Standard
 70
     0
340
55
  0
DIMSTYLE
105
58
330
A
100
AcDbSymbolTableRecord
100
AcDbDimStyleTableRecord
  2
Annotative
 70
     0
340
55
1001
AcadAnnotative
1000
AnnotativeData
1002
{
1070
     1
1070
     1
1002
}
  0
ENDTAB
  0
TABLE
  2
BLOCK_RECORD
  5
1
330
0
100
AcDbSymbolTable
 70
     1
  0
BLOCK_RECORD
  5
6F
330
1
100
AcDbSymbolTableRecord
100
AcDbBlockTableRecord
  2
*Model_Space
340
72
 70
     0
280
     1
281
     0
  0
BLOCK_RECORD
  5
6B
330
1
100
AcDbSymbolTableRecord
100
AcDbBlockTableRecord
  2
*Paper_Space
340
6E
 70
     0
280
     1
281
     0
  0
BLOCK_RECORD
  5
22F8
330
1
100
AcDbSymbolTableRecord
100
AcDbBlockTableRecord
  2
A$C2c4038ff
340
0
 70
     0
280
     1
281
     0
  0
ENDTAB
  0
ENDSEC
  0
SECTION
  2
BLOCKS
  0
BLOCK
  5
70
330
6F
100
AcDbEntity
  8
0
100
AcDbBlockBegin
  2
*Model_Space
 70
     0
 10
0.0
 20
0.0
 30
0.0
  3
*Model_Space
  1

  0
ENDBLK
  5
71
330
6F
100
AcDbEntity
  8
0
100
AcDbBlockEnd
  0
BLOCK
  5
6C
330
6B
100
AcDbEntity
 67
     1
  8
0
100
AcDbBlockBegin
  2
*Paper_Space
 70
     0
 10
0.0
 20
0.0
 30
0.0
  3
*Paper_Space
  1

  0
ENDBLK
  5
6D
330
6B
100
AcDbEntity
 67
     1
  8
0
100
AcDbBlockEnd
  0
BLOCK
  5
22FE
330
22F8
100
AcDbEntity
  8
0
100
AcDbBlockBegin
  2
A$C2c4038ff
 70
     0
 10
0.0
 20
0.0
 30
0.0
  3
A$C2c4038ff
  1

  0
LINE
  5
22F9
330
22F8
100
AcDbEntity
  8
0
 62
     0
100
AcDbLine
 10
7.575100478660466
 20
13.28000018879845
 30
0.0
 11
5.849800478660462
 21
13.28000018879845
 31
0.0
  0
LINE
  5
22FA
330
22F8
100
AcDbEntity
  8
0
  6
Continuous
100
AcDbLine
 10
7.575100478660466
 20
0.0000001887984515
 30
0.0
 11
7.575100478660466
 21
14.19930018879844
 31
0.0
  0
LINE
  5
22FB
330
22F8
100
AcDbEntity
  8
0
  6
Continuous
100
AcDbLine
 10
7.575100478660466
 20
14.19930018879844
 30
0.0
 11
0.0000004786604677
 21
14.19930018879844
 31
0.0
  0
LINE
  5
22FC
330
22F8
100
AcDbEntity
  8
0
  6
Continuous
100
AcDbLine
 10
0.0000004786604677
 20
14.19930018879844
 30
0.0
 11
0.0000004786604677
 21
0.0000001887984515
 31
0.0
  0
LINE
  5
22FD
330
22F8
100
AcDbEntity
  8
0
  6
Continuous
100
AcDbLine
 10
0.0000004786604677
 20
0.0000001887984515
 30
0.0
 11
7.575100478660466
 21
0.0000001887984515
 31
0.0
  0
ENDBLK
  5
22FF
330
22F8
100
AcDbEntity
  8
0
100
AcDbBlockEnd
  0
ENDSEC
  0
SECTION
  2
ENTITIES
  0
LINE
  5
1605
330
6F
100
AcDbEntity
  8
0
 62
     0
100
AcDbLine
 10
-57.20863603691828
 20
-26.08679173557068
 30
0.0
 11
-43.20923603691828
 21
-26.08679173557068
 31
0.0
  0
LINE
  5
1606
330
6F
100
AcDbEntity
  8
0
 62
     0
100
AcDbLine
 10
-43.20923603691828
 20
-26.08679173557068
 30
0.0
 11
-43.20923603691828
 21
-25.08639173557066
 31
0.0
  0
LWPOLYLINE
  5
1DB4
330
6F
100
AcDbEntity
  8
0
  6
Continuous
100
AcDbPolyline
 90
        6
 70
     1
 43
0.0
 10
328.1292639630816
 20
-35.45138060497425
 10
326.7292639630816
 20
-37.87625173557069
 10
328.1292639630816
 20
-40.30112286616708
 10
330.9292639630816
 20
-40.30112286616708
 10
332.3292639630817
 20
-37.87625173557069
 10
330.9292639630816
 20
-35.45138060497425
  0
LINE
  5
1DB5
330
6F
100
AcDbEntity
  8
0
 62
     0
100
AcDbLine
 10
335.0302639630815
 20
97.4516693448893
 30
0.0
 11
335.0302639630815
 21
-39.37524473557062
 31
0.0
  0
ARC
  5
1DB6
330
6F
100
AcDbEntity
  8
0
  6
Continuous
100
AcDbCircle
 10
332.0302639630816
 20
97.4516693448893
 30
0.0
 40
3.0
100
AcDbArc
 50
0.0
 51
90.00074330363942
  0
LINE
  5
1DB7
330
6F
100
AcDbEntity
  8
0
 62
     0
100
AcDbLine
 10
332.0302639630815
 20
-42.37524473557067
 30
0.0
 11
-70.49665143691834
 21
-42.37524473557067
 31
0.0
  0
ARC
  5
1DB8
330
6F
100
AcDbEntity
  8
0
 62
     0
100
AcDbCircle
 10
332.0302639630815
 20
-39.37524473557068
 30
0.0
 40
3.0
100
AcDbArc
 50
270.0
 51
0.0
  0
ARC
  5
1DB9
330
6F
100
AcDbEntity
  8
0
 62
     0
100
AcDbCircle
 10
-70.4966514369183
 20
-39.37524473557068
 30
0.0
 40
3.0
100
AcDbArc
 50
180.0
 51
270.0
  0
LINE
  5
1DBA
330
6F
100
AcDbEntity
  8
0
 62
     0
100
AcDbLine
 10
-73.49665143691828
 20
-39.37524473557068
 30
0.0
 11
-73.49665143691828
 21
97.45070826446323
 31
0.0
  0
ARC
  5
1DBB
330
6F
100
AcDbEntity
  8
0
 62
     0
100
AcDbCircle
 10
-70.4966514369183
 20
97.45070826446323
 30
0.0
 40
3.0
100
AcDbArc
 50
89.99999999805806
 51
180.0
  0
LWPOLYLINE
  5
1DBC
330
6F
100
AcDbEntity
  8
0
  6
Continuous
100
AcDbPolyline
 90
        6
 70
     1
 43
0.0
 10
-69.39599603691829
 20
97.37557939502572
 10
-70.79599603691829
 20
94.95070826442931
 10
-69.39599603691829
 20
92.52583713383291
 10
-66.59599603691829
 20
92.52583713383291
 10
-65.19599603691829
 20
94.95070826442931
 10
-66.59599603691829
 20
97.37557939502572
  0
LWPOLYLINE
  5
1DBD
330
6F
100
AcDbEntity
  8
0
  6
Continuous
100
AcDbPolyline
 90
        6
 70
     1
 43
0.0
 10
-69.39599603691829
 20
-35.45138060497425
 10
-70.79599603691829
 20
-37.87625173557069
 10
-69.39599603691829
 20
-40.30112286616708
 10
-66.59599603691829
 20
-40.30112286616708
 10
-65.19599603691829
 20
-37.87625173557069
 10
-66.59599603691829
 20
-35.45138060497425
  0
LWPOLYLINE
  5
1DBE
330
6F
100
AcDbEntity
  8
0
  6
Continuous
100
AcDbPolyline
 90
        6
 70
     1
 43
0.0
 10
63.11226396308168
 20
-35.45138060497425
 10
61.71226396308168
 20
-37.87625173557069
 10
63.11226396308168
 20
-40.30112286616708
 10
65.9122639630817
 20
-40.30112286616708
 10
67.31226396308167
 20
-37.87625173557069
 10
65.9122639630817
 20
-35.45138060497425
  0
LWPOLYLINE
  5
1DBF
330
6F
100
AcDbEntity
  8
0
  6
Continuous
100
AcDbPolyline
 90
        6
 70
     1
 43
0.0
 10
195.6202639630817
 20
-35.45138060497425
 10
194.2202639630817
 20
-37.87625173557069
 10
195.6202639630817
 20
-40.30112286616708
 10
198.4202639630817
 20
-40.30112286616708
 10
199.8202639630817
 20
-37.87625173557069
 10
198.4202639630817
 20
-35.45138060497425
  0
LWPOLYLINE
  5
1DC0
330
6F
100
AcDbEntity
  8
0
  6
Continuous
100
AcDbPolyline
 90
        6
 70
     1
 43
0.0
 10
328.1292639630816
 20
97.37557939502572
 10
326.7292639630816
 20
94.95070826442931
 10
328.1292639630816
 20
92.52583713383291
 10
330.9292639630816
 20
92.52583713383291
 10
332.3292639630817
 20
94.95070826442931
 10
330.9292639630816
 20
97.37557939502572
  0
LWPOLYLINE
  5
1DC1
330
6F
100
AcDbEntity
  8
0
  6
Continuous
100
AcDbPolyline
 90
        6
 70
     1
 43
0.0
 10
195.6202639630817
 20
97.37557939502572
 10
194.2202639630817
 20
94.95070826442931
 10
195.6202639630817
 20
92.52583713383291
 10
198.4202639630817
 20
92.52583713383291
 10
199.8202639630817
 20
94.95070826442931
 10
198.4202639630817
 20
97.37557939502572
  0
LWPOLYLINE
  5
1DC2
330
6F
100
AcDbEntity
  8
0
  6
Continuous
100
AcDbPolyline
 90
        6
 70
     1
 43
0.0
 10
63.11226396308168
 20
97.37557939502572
 10
61.71226396308168
 20
94.95070826442931
 10
63.11226396308168
 20
92.52583713383291
 10
65.9122639630817
 20
92.52583713383291
 10
67.31226396308167
 20
94.95070826442931
 10
65.9122639630817
 20
97.37557939502572
  0
LINE
  5
1DC7
330
6F
100
AcDbEntity
  8
0
  6
Continuous
100
AcDbLine
 10
332.0302568002282
 20
100.4516693448807
 30
0.0
 11
-70.49665143681662
 21
100.4507082644632
 31
0.0
  0
LINE
  5
205E
330
6F
100
AcDbEntity
  8
0
 62
     0
100
AcDbLine
 10
228.5406639630817
 20
-16.84839173557068
 30
0.0
 11
242.5406639630817
 21
-16.84839173557068
 31
0.0
  0
LINE
  5
205F
330
6F
100
AcDbEntity
  8
0
 62
     0
100
AcDbLine
 10
242.5406639630817
 20
-16.84839173557068
 30
0.0
 11
242.5406639630817
 21
-30.84929173557069
 31
0.0
  0
LINE
  5
2060
330
6F
100
AcDbEntity
  8
0
 62
     0
100
AcDbLine
 10
242.5406639630817
 20
-30.84929173557069
 30
0.0
 11
228.5406639630817
 21
-30.84929173557069
 31
0.0
  0
LINE
  5
2061
330
6F
100
AcDbEntity
  8
0
 62
     0
100
AcDbLine
 10
228.5406639630817
 20
-30.84929173557069
 30
0.0
 11
228.5406639630817
 21
-16.84839173557068
 31
0.0
  0
LINE
  5
2062
330
6F
100
AcDbEntity
  8
0
 62
     0
100
AcDbLine
 10
209.4906639630817
 20
-16.84839173557068
 30
0.0
 11
223.4906639630817
 21
-16.84839173557068
 31
0.0
  0
LINE
  5
2063
330
6F
100
AcDbEntity
  8
0
 62
     0
100
AcDbLine
 10
223.4906639630817
 20
-16.84839173557068
 30
0.0
 11
223.4906639630817
 21
-30.84929173557069
 31
0.0
  0
LINE
  5
2064
330
6F
100
AcDbEntity
  8
0
 62
     0
100
AcDbLine
 10
223.4906639630817
 20
-30.84929173557069
 30
0.0
 11
209.4906639630817
 21
-30.84929173557069
 31
0.0
  0
LINE
  5
2065
330
6F
100
AcDbEntity
  8
0
 62
     0
100
AcDbLine
 10
209.4906639630817
 20
-30.84929173557069
 30
0.0
 11
209.4906639630817
 21
-16.84839173557068
 31
0.0
  0
LINE
  5
2066
330
6F
100
AcDbEntity
  8
0
 62
     0
100
AcDbLine
 10
190.4406639630817
 20
-16.84839173557068
 30
0.0
 11
204.4406639630817
 21
-16.84839173557068
 31
0.0
  0
LINE
  5
2067
330
6F
100
AcDbEntity
  8
0
 62
     0
100
AcDbLine
 10
204.4406639630817
 20
-16.84839173557068
 30
0.0
 11
204.4406639630817
 21
-30.84929173557069
 31
0.0
  0
LINE
  5
2068
330
6F
100
AcDbEntity
  8
0
 62
     0
100
AcDbLine
 10
204.4406639630817
 20
-30.84929173557069
 30
0.0
 11
190.4406639630817
 21
-30.84929173557069
 31
0.0
  0
LINE
  5
2069
330
6F
100
AcDbEntity
  8
0
 62
     0
100
AcDbLine
 10
190.4406639630817
 20
-30.84929173557069
 30
0.0
 11
190.4406639630817
 21
-16.84839173557068
 31
0.0
  0
LINE
  5
206C
330
6F
100
AcDbEntity
  8
0
 62
     0
100
AcDbLine
 10
260.3526639630818
 20
-16.78639173557067
 30
0.0
 11
260.3526639630818
 21
-13.55629173557068
 31
0.0
  0
LINE
  5
207C
330
6F
100
AcDbEntity
  8
0
 62
     0
100
AcDbLine
 10
260.3526639630818
 20
-25.85519173557069
 30
0.0
 11
260.3526639630818
 21
-21.38629173557067
 31
0.0
  0
LINE
  5
207F
330
6F
100
AcDbEntity
  8
0
 62
     0
100
AcDbLine
 10
261.8786639630818
 20
-26.08679173557067
 30
0.0
 11
275.8776639630817
 21
-26.08679173557067
 31
0.0
  0
LINE
  5
2096
330
6F
100
AcDbEntity
  8
0
 62
     0
100
AcDbLine
 10
52.32666396308171
 20
-12.08729173557069
 30
0.0
 11
52.32666396308171
 21
-26.08679173557067
 31
0.0
  0
LINE
  5
20AB
330
6F
100
AcDbEntity
  8
0
 62
     0
100
AcDbLine
 10
52.32666396308171
 20
-26.08679173557067
 30
0.0
 11
66.3276639630817
 21
-26.08679173557067
 31
0.0
  0
LINE
  5
20C0
330
6F
100
AcDbEntity
  8
0
 62
     0
100
AcDbLine
 10
66.3276639630817
 20
-26.08679173557067
 30
0.0
 11
66.3276639630817
 21
-12.08729173557069
 31
0.0
  0
LINE
  5
20C1
330
6F
100
AcDbEntity
  8
0
 62
     0
100
AcDbLine
 10
66.3276639630817
 20
-12.08729173557069
 30
0.0
 11
52.32666396308171
 21
-12.08729173557069
 31
0.0
  0
LINE
  5
20C2
330
6F
100
AcDbEntity
  8
0
 62
     0
100
AcDbLine
 10
290.4536639630817
 20
-12.08729173557069
 30
0.0
 11
304.4526639630817
 21
-12.08729173557069
 31
0.0
  0
LINE
  5
20C3
330
6F
100
AcDbEntity
  8
0
 62
     0
100
AcDbLine
 10
304.4526639630817
 20
-12.08729173557069
 30
0.0
 11
304.4526639630817
 21
-26.08679173557067
 31
0.0
  0
LINE
  5
20C4
330
6F
100
AcDbEntity
  8
0
 62
     0
100
AcDbLine
 10
304.4526639630817
 20
-26.08679173557067
 30
0.0
 11
290.4536639630817
 21
-26.08679173557067
 31
0.0
  0
LINE
  5
20C5
330
6F
100
AcDbEntity
  8
0
 62
     0
100
AcDbLine
 10
290.4536639630817
 20
-26.08679173557067
 30
0.0
 11
290.4536639630817
 21
-12.08729173557069
 31
0.0
  0
LINE
  5
20C6
330
6F
100
AcDbEntity
  8
0
 62
     0
100
AcDbLine
 10
161.8656639630817
 20
-12.08729173557069
 30
0.0
 11
175.8656639630817
 21
-12.08729173557069
 31
0.0
  0
LINE
  5
20C7
330
6F
100
AcDbEntity
  8
0
 62
     0
100
AcDbLine
 10
175.8656639630817
 20
-12.08729173557069
 30
0.0
 11
175.8656639630817
 21
-26.08679173557067
 31
0.0
  0
LINE
  5
20C8
330
6F
100
AcDbEntity
  8
0
 62
     0
100
AcDbLine
 10
175.8656639630817
 20
-26.08679173557067
 30
0.0
 11
161.8656639630817
 21
-26.08679173557067
 31
0.0
  0
LINE
  5
20C9
330
6F
100
AcDbEntity
  8
0
 62
     0
100
AcDbLine
 10
161.8656639630817
 20
-26.08679173557067
 30
0.0
 11
161.8656639630817
 21
-12.08729173557069
 31
0.0
  0
LINE
  5
20CA
330
6F
100
AcDbEntity
  8
0
 62
     0
100
AcDbLine
 10
133.2906639630817
 20
-12.08729173557069
 30
0.0
 11
147.2906639630817
 21
-12.08729173557069
 31
0.0
  0
LINE
  5
20CB
330
6F
100
AcDbEntity
  8
0
 62
     0
100
AcDbLine
 10
147.2906639630817
 20
-12.08729173557069
 30
0.0
 11
147.2906639630817
 21
-26.08679173557067
 31
0.0
  0
LINE
  5
20CC
330
6F
100
AcDbEntity
  8
0
 62
     0
100
AcDbLine
 10
147.2906639630817
 20
-26.08679173557067
 30
0.0
 11
133.2906639630817
 21
-26.08679173557067
 31
0.0
  0
LINE
  5
20CD
330
6F
100
AcDbEntity
  8
0
 62
     0
100
AcDbLine
 10
133.2906639630817
 20
-26.08679173557067
 30
0.0
 11
133.2906639630817
 21
-12.08729173557069
 31
0.0
  0
LINE
  5
20CE
330
6F
100
AcDbEntity
  8
0
 62
     0
100
AcDbLine
 10
-28.63403603691829
 20
-12.08729173557069
 30
0.0
 11
-14.63473603691828
 21
-12.08729173557069
 31
0.0
  0
LINE
  5
20CF
330
6F
100
AcDbEntity
  8
0
 62
     0
100
AcDbLine
 10
-14.63473603691828
 20
-12.08729173557069
 30
0.0
 11
-14.63473603691828
 21
-26.08679173557067
 31
0.0
  0
LINE
  5
20D0
330
6F
100
AcDbEntity
  8
0
 62
     0
100
AcDbLine
 10
-14.63473603691828
 20
-26.08679173557067
 30
0.0
 11
-28.63403603691829
 21
-26.08679173557067
 31
0.0
  0
LINE
  5
20D1
330
6F
100
AcDbEntity
  8
0
 62
     0
100
AcDbLine
 10
-28.63403603691829
 20
-26.08679173557067
 30
0.0
 11
-28.63403603691829
 21
-12.08729173557069
 31
0.0
  0
LINE
  5
20D2
330
6F
100
AcDbEntity
  8
0
 62
     0
100
AcDbLine
 10
-57.20923603691828
 20
-12.08729173557069
 30
0.0
 11
-43.20973603691828
 21
-12.08729173557069
 31
0.0
  0
LINE
  5
20D3
330
6F
100
AcDbEntity
  8
0
 62
     0
100
AcDbLine
 10
-43.20973603691828
 20
-12.08729173557069
 30
0.0
 11
-43.20973603691828
 21
-26.08679173557067
 31
0.0
  0
LINE
  5
2102
330
6F
100
AcDbEntity
  8
0
 62
     0
100
AcDbLine
 10
209.4906639630817
 20
2.200408264429313
 30
0.0
 11
223.4906639630817
 21
2.200408264429313
 31
0.0
  0
LINE
  5
2103
330
6F
100
AcDbEntity
  8
0
 62
     0
100
AcDbLine
 10
223.4906639630817
 20
2.200408264429313
 30
0.0
 11
223.4906639630817
 21
-11.79929173557067
 31
0.0
  0
LINE
  5
2104
330
6F
100
AcDbEntity
  8
0
 62
     0
100
AcDbLine
 10
223.4906639630817
 20
-11.79929173557067
 30
0.0
 11
209.4906639630817
 21
-11.79929173557067
 31
0.0
  0
LINE
  5
2105
330
6F
100
AcDbEntity
  8
0
 62
     0
100
AcDbLine
 10
209.4906639630817
 20
-11.79929173557067
 30
0.0
 11
209.4906639630817
 21
2.200408264429313
 31
0.0
  0
LINE
  5
211B
330
6F
100
AcDbEntity
  8
0
 62
     0
100
AcDbLine
 10
-50.06543603691828
 20
-7.036691735570684
 30
0.0
 11
-36.06603603691829
 21
-7.036691735570684
 31
0.0
  0
LINE
  5
2130
330
6F
100
AcDbEntity
  8
0
 62
     0
100
AcDbLine
 10
-36.06603603691829
 20
-7.036691735570684
 30
0.0
 11
-36.06603603691829
 21
6.96290826442933
 31
0.0
  0
LINE
  5
2131
330
6F
100
AcDbEntity
  8
0
 62
     0
100
AcDbLine
 10
-36.06603603691829
 20
6.96290826442933
 30
0.0
 11
-50.06543603691828
 21
6.96290826442933
 31
0.0
  0
LINE
  5
2132
330
6F
100
AcDbEntity
  8
0
 62
     0
100
AcDbLine
 10
290.4536639630817
 20
6.96290826442933
 30
0.0
 11
304.4526639630817
 21
6.96290826442933
 31
0.0
  0
LINE
  5
2133
330
6F
100
AcDbEntity
  8
0
 62
     0
100
AcDbLine
 10
304.4526639630817
 20
6.96290826442933
 30
0.0
 11
304.4526639630817
 21
-7.036691735570684
 31
0.0
  0
LINE
  5
2134
330
6F
100
AcDbEntity
  8
0
 62
     0
100
AcDbLine
 10
304.4526639630817
 20
-7.036691735570684
 30
0.0
 11
290.4536639630817
 21
-7.036691735570684
 31
0.0
  0
LINE
  5
2135
330
6F
100
AcDbEntity
  8
0
 62
     0
100
AcDbLine
 10
290.4536639630817
 20
-7.036691735570684
 30
0.0
 11
290.4536639630817
 21
6.96290826442933
 31
0.0
  0
LINE
  5
2136
330
6F
100
AcDbEntity
  8
0
 62
     0
100
AcDbLine
 10
271.4036639630817
 20
6.96290826442933
 30
0.0
 11
285.4026639630817
 21
6.96290826442933
 31
0.0
  0
LINE
  5
2137
330
6F
100
AcDbEntity
  8
0
 62
     0
100
AcDbLine
 10
285.4026639630817
 20
6.96290826442933
 30
0.0
 11
285.4026639630817
 21
-7.036691735570684
 31
0.0
  0
LINE
  5
2138
330
6F
100
AcDbEntity
  8
0
 62
     0
100
AcDbLine
 10
285.4026639630817
 20
-7.036691735570684
 30
0.0
 11
271.4036639630817
 21
-7.036691735570684
 31
0.0
  0
LINE
  5
2139
330
6F
100
AcDbEntity
  8
0
 62
     0
100
AcDbLine
 10
271.4036639630817
 20
-7.036691735570684
 30
0.0
 11
271.4036639630817
 21
6.96290826442933
 31
0.0
  0
LINE
  5
213A
330
6F
100
AcDbEntity
  8
0
 62
     0
100
AcDbLine
 10
252.3536639630817
 20
6.96290826442933
 30
0.0
 11
266.3526639630817
 21
6.96290826442933
 31
0.0
  0
LINE
  5
213B
330
6F
100
AcDbEntity
  8
0
 62
     0
100
AcDbLine
 10
266.3526639630817
 20
6.96290826442933
 30
0.0
 11
266.3526639630817
 21
-7.036691735570684
 31
0.0
  0
LINE
  5
213C
330
6F
100
AcDbEntity
  8
0
 62
     0
100
AcDbLine
 10
266.3526639630817
 20
-7.036691735570684
 30
0.0
 11
252.3536639630817
 21
-7.036691735570684
 31
0.0
  0
LINE
  5
213D
330
6F
100
AcDbEntity
  8
0
 62
     0
100
AcDbLine
 10
252.3536639630817
 20
-7.036691735570684
 30
0.0
 11
252.3536639630817
 21
6.96290826442933
 31
0.0
  0
LINE
  5
213E
330
6F
100
AcDbEntity
  8
0
 62
     0
100
AcDbLine
 10
178.5346639630817
 20
6.96290826442933
 30
0.0
 11
192.5336639630817
 21
6.96290826442933
 31
0.0
  0
LINE
  5
213F
330
6F
100
AcDbEntity
  8
0
 62
     0
100
AcDbLine
 10
192.5336639630817
 20
6.96290826442933
 30
0.0
 11
192.5336639630817
 21
-7.036691735570684
 31
0.0
  0
LINE
  5
2140
330
6F
100
AcDbEntity
  8
0
 62
     0
100
AcDbLine
 10
192.5336639630817
 20
-7.036691735570684
 30
0.0
 11
178.5346639630817
 21
-7.036691735570684
 31
0.0
  0
LINE
  5
2141
330
6F
100
AcDbEntity
  8
0
 62
     0
100
AcDbLine
 10
178.5346639630817
 20
-7.036691735570684
 30
0.0
 11
178.5346639630817
 21
6.96290826442933
 31
0.0
  0
LINE
  5
2142
330
6F
100
AcDbEntity
  8
0
 62
     0
100
AcDbLine
 10
152.3406639630817
 20
6.96290826442933
 30
0.0
 11
166.3406639630817
 21
6.96290826442933
 31
0.0
  0
LINE
  5
2143
330
6F
100
AcDbEntity
  8
0
 62
     0
100
AcDbLine
 10
166.3406639630817
 20
6.96290826442933
 30
0.0
 11
166.3406639630817
 21
-7.036691735570684
 31
0.0
  0
LINE
  5
2144
330
6F
100
AcDbEntity
  8
0
 62
     0
100
AcDbLine
 10
166.3406639630817
 20
-7.036691735570684
 30
0.0
 11
152.3406639630817
 21
-7.036691735570684
 31
0.0
  0
LINE
  5
2145
330
6F
100
AcDbEntity
  8
0
 62
     0
100
AcDbLine
 10
152.3406639630817
 20
-7.036691735570684
 30
0.0
 11
152.3406639630817
 21
6.96290826442933
 31
0.0
  0
LINE
  5
2146
330
6F
100
AcDbEntity
  8
0
 62
     0
100
AcDbLine
 10
133.2906639630817
 20
6.96290826442933
 30
0.0
 11
147.2906639630817
 21
6.96290826442933
 31
0.0
  0
LINE
  5
2147
330
6F
100
AcDbEntity
  8
0
 62
     0
100
AcDbLine
 10
147.2906639630817
 20
6.96290826442933
 30
0.0
 11
147.2906639630817
 21
-7.036691735570684
 31
0.0
  0
LINE
  5
2148
330
6F
100
AcDbEntity
  8
0
 62
     0
100
AcDbLine
 10
147.2906639630817
 20
-7.036691735570684
 30
0.0
 11
133.2906639630817
 21
-7.036691735570684
 31
0.0
  0
LINE
  5
2149
330
6F
100
AcDbEntity
  8
0
 62
     0
100
AcDbLine
 10
133.2906639630817
 20
-7.036691735570684
 30
0.0
 11
133.2906639630817
 21
6.96290826442933
 31
0.0
  0
LINE
  5
214A
330
6F
100
AcDbEntity
  8
0
 62
     0
100
AcDbLine
 10
114.2406639630817
 20
6.96290826442933
 30
0.0
 11
128.2406639630817
 21
6.96290826442933
 31
0.0
  0
LINE
  5
214B
330
6F
100
AcDbEntity
  8
0
 62
     0
100
AcDbLine
 10
128.2406639630817
 20
6.96290826442933
 30
0.0
 11
128.2406639630817
 21
-7.036691735570684
 31
0.0
  0
LINE
  5
214C
330
6F
100
AcDbEntity
  8
0
 62
     0
100
AcDbLine
 10
128.2406639630817
 20
-7.036691735570684
 30
0.0
 11
114.2406639630817
 21
-7.036691735570684
 31
0.0
  0
LINE
  5
214D
330
6F
100
AcDbEntity
  8
0
 62
     0
100
AcDbLine
 10
114.2406639630817
 20
-7.036691735570684
 30
0.0
 11
114.2406639630817
 21
6.96290826442933
 31
0.0
  0
LINE
  5
214E
330
6F
100
AcDbEntity
  8
0
 62
     0
100
AcDbLine
 10
95.19066396308174
 20
6.96290826442933
 30
0.0
 11
109.1906639630817
 21
6.96290826442933
 31
0.0
  0
LINE
  5
214F
330
6F
100
AcDbEntity
  8
0
 62
     0
100
AcDbLine
 10
109.1906639630817
 20
6.96290826442933
 30
0.0
 11
109.1906639630817
 21
-7.036691735570684
 31
0.0
  0
LINE
  5
2150
330
6F
100
AcDbEntity
  8
0
 62
     0
100
AcDbLine
 10
109.1906639630817
 20
-7.036691735570684
 30
0.0
 11
95.19066396308174
 21
-7.036691735570684
 31
0.0
  0
LINE
  5
2151
330
6F
100
AcDbEntity
  8
0
 62
     0
100
AcDbLine
 10
95.19066396308174
 20
-7.036691735570684
 30
0.0
 11
95.19066396308174
 21
6.96290826442933
 31
0.0
  0
LINE
  5
2152
330
6F
100
AcDbEntity
  8
0
 62
     0
100
AcDbLine
 10
76.14066396308172
 20
6.96290826442933
 30
0.0
 11
90.14066396308171
 21
6.96290826442933
 31
0.0
  0
LINE
  5
2153
330
6F
100
AcDbEntity
  8
0
 62
     0
100
AcDbLine
 10
90.14066396308171
 20
6.96290826442933
 30
0.0
 11
90.14066396308171
 21
-7.036691735570684
 31
0.0
  0
LINE
  5
2154
330
6F
100
AcDbEntity
  8
0
 62
     0
100
AcDbLine
 10
90.14066396308171
 20
-7.036691735570684
 30
0.0
 11
76.14066396308172
 21
-7.036691735570684
 31
0.0
  0
LINE
  5
2155
330
6F
100
AcDbEntity
  8
0
 62
     0
100
AcDbLine
 10
76.14066396308172
 20
-7.036691735570684
 30
0.0
 11
76.14066396308172
 21
6.96290826442933
 31
0.0
  0
LINE
  5
2156
330
6F
100
AcDbEntity
  8
0
 62
     0
100
AcDbLine
 10
57.09066396308173
 20
6.96290826442933
 30
0.0
 11
71.09066396308174
 21
6.96290826442933
 31
0.0
  0
LINE
  5
2157
330
6F
100
AcDbEntity
  8
0
 62
     0
100
AcDbLine
 10
71.09066396308174
 20
6.96290826442933
 30
0.0
 11
71.09066396308174
 21
-7.036691735570684
 31
0.0
  0
LINE
  5
2158
330
6F
100
AcDbEntity
  8
0
 62
     0
100
AcDbLine
 10
71.09066396308174
 20
-7.036691735570684
 30
0.0
 11
57.09066396308173
 21
-7.036691735570684
 31
0.0
  0
LINE
  5
2159
330
6F
100
AcDbEntity
  8
0
 62
     0
100
AcDbLine
 10
57.09066396308173
 20
-7.036691735570684
 30
0.0
 11
57.09066396308173
 21
6.96290826442933
 31
0.0
  0
LINE
  5
215A
330
6F
100
AcDbEntity
  8
0
 62
     0
100
AcDbLine
 10
38.04066396308172
 20
6.96290826442933
 30
0.0
 11
52.04066396308172
 21
6.96290826442933
 31
0.0
  0
LINE
  5
215B
330
6F
100
AcDbEntity
  8
0
 62
     0
100
AcDbLine
 10
52.04066396308172
 20
6.96290826442933
 30
0.0
 11
52.04066396308172
 21
-7.036691735570684
 31
0.0
  0
LINE
  5
215C
330
6F
100
AcDbEntity
  8
0
 62
     0
100
AcDbLine
 10
52.04066396308172
 20
-7.036691735570684
 30
0.0
 11
38.04066396308172
 21
-7.036691735570684
 31
0.0
  0
LINE
  5
215D
330
6F
100
AcDbEntity
  8
0
 62
     0
100
AcDbLine
 10
38.04066396308172
 20
-7.036691735570684
 30
0.0
 11
38.04066396308172
 21
6.96290826442933
 31
0.0
  0
LINE
  5
215E
330
6F
100
AcDbEntity
  8
0
 62
     0
100
AcDbLine
 10
18.99096396308172
 20
6.96290826442933
 30
0.0
 11
32.99066396308172
 21
6.96290826442933
 31
0.0
  0
LINE
  5
215F
330
6F
100
AcDbEntity
  8
0
 62
     0
100
AcDbLine
 10
32.99066396308172
 20
6.96290826442933
 30
0.0
 11
32.99066396308172
 21
-7.036691735570684
 31
0.0
  0
LINE
  5
2160
330
6F
100
AcDbEntity
  8
0
 62
     0
100
AcDbLine
 10
32.99066396308172
 20
-7.036691735570684
 30
0.0
 11
18.99096396308172
 21
-7.036691735570684
 31
0.0
  0
LINE
  5
2161
330
6F
100
AcDbEntity
  8
0
 62
     0
100
AcDbLine
 10
18.99096396308172
 20
-7.036691735570684
 30
0.0
 11
18.99096396308172
 21
6.96290826442933
 31
0.0
  0
LINE
  5
2162
330
6F
100
AcDbEntity
  8
0
 62
     0
100
AcDbLine
 10
-0.059036036918279
 20
6.96290826442933
 30
0.0
 11
13.94026396308171
 21
6.96290826442933
 31
0.0
  0
LINE
  5
2163
330
6F
100
AcDbEntity
  8
0
 62
     0
100
AcDbLine
 10
13.94026396308171
 20
6.96290826442933
 30
0.0
 11
13.94026396308171
 21
-7.036691735570684
 31
0.0
  0
LINE
  5
2164
330
6F
100
AcDbEntity
  8
0
 62
     0
100
AcDbLine
 10
13.94026396308171
 20
-7.036691735570684
 30
0.0
 11
-0.059036036918279
 21
-7.036691735570684
 31
0.0
  0
LINE
  5
2165
330
6F
100
AcDbEntity
  8
0
 62
     0
100
AcDbLine
 10
-0.059036036918279
 20
-7.036691735570684
 30
0.0
 11
-0.059036036918279
 21
6.96290826442933
 31
0.0
  0
LINE
  5
2166
330
6F
100
AcDbEntity
  8
0
 62
     0
100
AcDbLine
 10
-19.10903603691828
 20
6.96290826442933
 30
0.0
 11
-5.109736036918285
 21
6.96290826442933
 31
0.0
  0
LINE
  5
2167
330
6F
100
AcDbEntity
  8
0
 62
     0
100
AcDbLine
 10
-5.109736036918285
 20
6.96290826442933
 30
0.0
 11
-5.109736036918285
 21
-7.036691735570684
 31
0.0
  0
LINE
  5
2168
330
6F
100
AcDbEntity
  8
0
 62
     0
100
AcDbLine
 10
-5.109736036918285
 20
-7.036691735570684
 30
0.0
 11
-19.10903603691828
 21
-7.036691735570684
 31
0.0
  0
LINE
  5
2169
330
6F
100
AcDbEntity
  8
0
 62
     0
100
AcDbLine
 10
-19.10903603691828
 20
-7.036691735570684
 30
0.0
 11
-19.10903603691828
 21
6.96290826442933
 31
0.0
  0
LINE
  5
2196
330
6F
100
AcDbEntity
  8
0
 62
     0
100
AcDbLine
 10
290.4536639630817
 20
26.01290826442933
 30
0.0
 11
304.4526639630817
 21
26.01290826442933
 31
0.0
  0
LINE
  5
2197
330
6F
100
AcDbEntity
  8
0
 62
     0
100
AcDbLine
 10
304.4526639630817
 20
26.01290826442933
 30
0.0
 11
304.4526639630817
 21
12.01330826442932
 31
0.0
  0
LINE
  5
2198
330
6F
100
AcDbEntity
  8
0
 62
     0
100
AcDbLine
 10
304.4526639630817
 20
12.01330826442932
 30
0.0
 11
290.4536639630817
 21
12.01330826442932
 31
0.0
  0
LINE
  5
2199
330
6F
100
AcDbEntity
  8
0
 62
     0
100
AcDbLine
 10
290.4536639630817
 20
12.01330826442932
 30
0.0
 11
290.4536639630817
 21
26.01290826442933
 31
0.0
  0
LINE
  5
219A
330
6F
100
AcDbEntity
  8
0
 62
     0
100
AcDbLine
 10
271.4036639630817
 20
26.01290826442933
 30
0.0
 11
285.4026639630817
 21
26.01290826442933
 31
0.0
  0
LINE
  5
219B
330
6F
100
AcDbEntity
  8
0
 62
     0
100
AcDbLine
 10
285.4026639630817
 20
26.01290826442933
 30
0.0
 11
285.4026639630817
 21
12.01330826442932
 31
0.0
  0
LINE
  5
219C
330
6F
100
AcDbEntity
  8
0
 62
     0
100
AcDbLine
 10
285.4026639630817
 20
12.01330826442932
 30
0.0
 11
271.4036639630817
 21
12.01330826442932
 31
0.0
  0
LINE
  5
219D
330
6F
100
AcDbEntity
  8
0
 62
     0
100
AcDbLine
 10
271.4036639630817
 20
12.01330826442932
 30
0.0
 11
271.4036639630817
 21
26.01290826442933
 31
0.0
  0
LINE
  5
219E
330
6F
100
AcDbEntity
  8
0
 62
     0
100
AcDbLine
 10
252.3536639630817
 20
26.01290826442933
 30
0.0
 11
266.3526639630817
 21
26.01290826442933
 31
0.0
  0
LINE
  5
219F
330
6F
100
AcDbEntity
  8
0
 62
     0
100
AcDbLine
 10
266.3526639630817
 20
26.01290826442933
 30
0.0
 11
266.3526639630817
 21
12.01330826442932
 31
0.0
  0
LINE
  5
21A0
330
6F
100
AcDbEntity
  8
0
 62
     0
100
AcDbLine
 10
266.3526639630817
 20
12.01330826442932
 30
0.0
 11
252.3536639630817
 21
12.01330826442932
 31
0.0
  0
LINE
  5
21A1
330
6F
100
AcDbEntity
  8
0
 62
     0
100
AcDbLine
 10
252.3536639630817
 20
12.01330826442932
 30
0.0
 11
252.3536639630817
 21
26.01290826442933
 31
0.0
  0
LINE
  5
21A2
330
6F
100
AcDbEntity
  8
0
 62
     0
100
AcDbLine
 10
228.5406639630817
 20
26.01290826442933
 30
0.0
 11
242.5406639630817
 21
26.01290826442933
 31
0.0
  0
LINE
  5
21A3
330
6F
100
AcDbEntity
  8
0
 62
     0
100
AcDbLine
 10
242.5406639630817
 20
26.01290826442933
 30
0.0
 11
242.5406639630817
 21
12.01330826442932
 31
0.0
  0
LINE
  5
21A4
330
6F
100
AcDbEntity
  8
0
 62
     0
100
AcDbLine
 10
242.5406639630817
 20
12.01330826442932
 30
0.0
 11
228.5406639630817
 21
12.01330826442932
 31
0.0
  0
LINE
  5
21A5
330
6F
100
AcDbEntity
  8
0
 62
     0
100
AcDbLine
 10
228.5406639630817
 20
12.01330826442932
 30
0.0
 11
228.5406639630817
 21
26.01290826442933
 31
0.0
  0
LINE
  5
21A6
330
6F
100
AcDbEntity
  8
0
 62
     0
100
AcDbLine
 10
161.8656639630817
 20
26.01290826442933
 30
0.0
 11
175.8656639630817
 21
26.01290826442933
 31
0.0
  0
LINE
  5
21A7
330
6F
100
AcDbEntity
  8
0
 62
     0
100
AcDbLine
 10
175.8656639630817
 20
26.01290826442933
 30
0.0
 11
175.8656639630817
 21
12.01330826442932
 31
0.0
  0
LINE
  5
21A8
330
6F
100
AcDbEntity
  8
0
 62
     0
100
AcDbLine
 10
175.8656639630817
 20
12.01330826442932
 30
0.0
 11
161.8656639630817
 21
12.01330826442932
 31
0.0
  0
LINE
  5
21A9
330
6F
100
AcDbEntity
  8
0
 62
     0
100
AcDbLine
 10
161.8656639630817
 20
12.01330826442932
 30
0.0
 11
161.8656639630817
 21
26.01290826442933
 31
0.0
  0
LINE
  5
21AA
330
6F
100
AcDbEntity
  8
0
 62
     0
100
AcDbLine
 10
142.8156639630817
 20
26.01290826442933
 30
0.0
 11
156.8156639630817
 21
26.01290826442933
 31
0.0
  0
LINE
  5
21AB
330
6F
100
AcDbEntity
  8
0
 62
     0
100
AcDbLine
 10
156.8156639630817
 20
26.01290826442933
 30
0.0
 11
156.8156639630817
 21
12.01330826442932
 31
0.0
  0
LINE
  5
21AC
330
6F
100
AcDbEntity
  8
0
 62
     0
100
AcDbLine
 10
156.8156639630817
 20
12.01330826442932
 30
0.0
 11
142.8156639630817
 21
12.01330826442932
 31
0.0
  0
LINE
  5
21AD
330
6F
100
AcDbEntity
  8
0
 62
     0
100
AcDbLine
 10
142.8156639630817
 20
12.01330826442932
 30
0.0
 11
142.8156639630817
 21
26.01290826442933
 31
0.0
  0
LINE
  5
21AE
330
6F
100
AcDbEntity
  8
0
 62
     0
100
AcDbLine
 10
123.7656639630817
 20
26.01290826442933
 30
0.0
 11
137.7656639630817
 21
26.01290826442933
 31
0.0
  0
LINE
  5
21AF
330
6F
100
AcDbEntity
  8
0
 62
     0
100
AcDbLine
 10
137.7656639630817
 20
26.01290826442933
 30
0.0
 11
137.7656639630817
 21
12.01330826442932
 31
0.0
  0
LINE
  5
21B0
330
6F
100
AcDbEntity
  8
0
 62
     0
100
AcDbLine
 10
137.7656639630817
 20
12.01330826442932
 30
0.0
 11
123.7656639630817
 21
12.01330826442932
 31
0.0
  0
LINE
  5
21B1
330
6F
100
AcDbEntity
  8
0
 62
     0
100
AcDbLine
 10
123.7656639630817
 20
12.01330826442932
 30
0.0
 11
123.7656639630817
 21
26.01290826442933
 31
0.0
  0
LINE
  5
21B2
330
6F
100
AcDbEntity
  8
0
 62
     0
100
AcDbLine
 10
104.7156639630817
 20
26.01290826442933
 30
0.0
 11
118.7156639630817
 21
26.01290826442933
 31
0.0
  0
LINE
  5
21B3
330
6F
100
AcDbEntity
  8
0
 62
     0
100
AcDbLine
 10
118.7156639630817
 20
26.01290826442933
 30
0.0
 11
118.7156639630817
 21
12.01330826442932
 31
0.0
  0
LINE
  5
21B4
330
6F
100
AcDbEntity
  8
0
 62
     0
100
AcDbLine
 10
118.7156639630817
 20
12.01330826442932
 30
0.0
 11
104.7156639630817
 21
12.01330826442932
 31
0.0
  0
LINE
  5
21B5
330
6F
100
AcDbEntity
  8
0
 62
     0
100
AcDbLine
 10
104.7156639630817
 20
12.01330826442932
 30
0.0
 11
104.7156639630817
 21
26.01290826442933
 31
0.0
  0
LINE
  5
21B6
330
6F
100
AcDbEntity
  8
0
 62
     0
100
AcDbLine
 10
85.66566396308173
 20
26.01290826442933
 30
0.0
 11
99.66566396308174
 21
26.01290826442933
 31
0.0
  0
LINE
  5
21B7
330
6F
100
AcDbEntity
  8
0
 62
     0
100
AcDbLine
 10
99.66566396308174
 20
26.01290826442933
 30
0.0
 11
99.66566396308174
 21
12.01330826442932
 31
0.0
  0
LINE
  5
21B8
330
6F
100
AcDbEntity
  8
0
 62
     0
100
AcDbLine
 10
99.66566396308174
 20
12.01330826442932
 30
0.0
 11
85.66566396308173
 21
12.01330826442932
 31
0.0
  0
LINE
  5
21B9
330
6F
100
AcDbEntity
  8
0
 62
     0
100
AcDbLine
 10
85.66566396308173
 20
12.01330826442932
 30
0.0
 11
85.66566396308173
 21
26.01290826442933
 31
0.0
  0
LINE
  5
21BA
330
6F
100
AcDbEntity
  8
0
 62
     0
100
AcDbLine
 10
66.61566396308171
 20
26.01290826442933
 30
0.0
 11
80.61566396308171
 21
26.01290826442933
 31
0.0
  0
LINE
  5
21BB
330
6F
100
AcDbEntity
  8
0
 62
     0
100
AcDbLine
 10
80.61566396308171
 20
26.01290826442933
 30
0.0
 11
80.61566396308171
 21
12.01330826442932
 31
0.0
  0
LINE
  5
21BC
330
6F
100
AcDbEntity
  8
0
 62
     0
100
AcDbLine
 10
80.61566396308171
 20
12.01330826442932
 30
0.0
 11
66.61566396308171
 21
12.01330826442932
 31
0.0
  0
LINE
  5
21BD
330
6F
100
AcDbEntity
  8
0
 62
     0
100
AcDbLine
 10
66.61566396308171
 20
12.01330826442932
 30
0.0
 11
66.61566396308171
 21
26.01290826442933
 31
0.0
  0
LINE
  5
21BE
330
6F
100
AcDbEntity
  8
0
 62
     0
100
AcDbLine
 10
47.56566396308172
 20
26.01290826442933
 30
0.0
 11
61.56566396308172
 21
26.01290826442933
 31
0.0
  0
LINE
  5
21BF
330
6F
100
AcDbEntity
  8
0
 62
     0
100
AcDbLine
 10
61.56566396308172
 20
26.01290826442933
 30
0.0
 11
61.56566396308172
 21
12.01330826442932
 31
0.0
  0
LINE
  5
21C0
330
6F
100
AcDbEntity
  8
0
 62
     0
100
AcDbLine
 10
61.56566396308172
 20
12.01330826442932
 30
0.0
 11
47.56566396308172
 21
12.01330826442932
 31
0.0
  0
LINE
  5
21C1
330
6F
100
AcDbEntity
  8
0
 62
     0
100
AcDbLine
 10
47.56566396308172
 20
12.01330826442932
 30
0.0
 11
47.56566396308172
 21
26.01290826442933
 31
0.0
  0
LINE
  5
21C2
330
6F
100
AcDbEntity
  8
0
 62
     0
100
AcDbLine
 10
28.51566396308173
 20
26.01290826442933
 30
0.0
 11
42.51566396308173
 21
26.01290826442933
 31
0.0
  0
LINE
  5
21C3
330
6F
100
AcDbEntity
  8
0
 62
     0
100
AcDbLine
 10
42.51566396308173
 20
26.01290826442933
 30
0.0
 11
42.51566396308173
 21
12.01330826442932
 31
0.0
  0
LINE
  5
21C4
330
6F
100
AcDbEntity
  8
0
 62
     0
100
AcDbLine
 10
42.51566396308173
 20
12.01330826442932
 30
0.0
 11
28.51566396308173
 21
12.01330826442932
 31
0.0
  0
LINE
  5
21C5
330
6F
100
AcDbEntity
  8
0
 62
     0
100
AcDbLine
 10
28.51566396308173
 20
12.01330826442932
 30
0.0
 11
28.51566396308173
 21
26.01290826442933
 31
0.0
  0
LINE
  5
21C6
330
6F
100
AcDbEntity
  8
0
 62
     0
100
AcDbLine
 10
9.465963963081712
 20
26.01290826442933
 30
0.0
 11
23.46526396308172
 21
26.01290826442933
 31
0.0
  0
LINE
  5
21C7
330
6F
100
AcDbEntity
  8
0
 62
     0
100
AcDbLine
 10
23.46526396308172
 20
26.01290826442933
 30
0.0
 11
23.46526396308172
 21
12.01330826442932
 31
0.0
  0
LINE
  5
21C8
330
6F
100
AcDbEntity
  8
0
 62
     0
100
AcDbLine
 10
23.46526396308172
 20
12.01330826442932
 30
0.0
 11
9.465963963081712
 21
12.01330826442932
 31
0.0
  0
LINE
  5
21C9
330
6F
100
AcDbEntity
  8
0
 62
     0
100
AcDbLine
 10
9.465963963081712
 20
12.01330826442932
 30
0.0
 11
9.465963963081712
 21
26.01290826442933
 31
0.0
  0
LINE
  5
21CA
330
6F
100
AcDbEntity
  8
0
 62
     0
100
AcDbLine
 10
-9.584036036918284
 20
26.01290826442933
 30
0.0
 11
4.41526396308172
 21
26.01290826442933
 31
0.0
  0
LINE
  5
21CB
330
6F
100
AcDbEntity
  8
0
 62
     0
100
AcDbLine
 10
4.41526396308172
 20
26.01290826442933
 30
0.0
 11
4.41526396308172
 21
12.01330826442932
 31
0.0
  0
LINE
  5
21CC
330
6F
100
AcDbEntity
  8
0
 62
     0
100
AcDbLine
 10
4.41526396308172
 20
12.01330826442932
 30
0.0
 11
-9.584036036918284
 21
12.01330826442932
 31
0.0
  0
LINE
  5
21CD
330
6F
100
AcDbEntity
  8
0
 62
     0
100
AcDbLine
 10
-9.584036036918284
 20
12.01330826442932
 30
0.0
 11
-9.584036036918284
 21
26.01290826442933
 31
0.0
  0
LINE
  5
21CE
330
6F
100
AcDbEntity
  8
0
 62
     0
100
AcDbLine
 10
-28.63403603691829
 20
26.01290826442933
 30
0.0
 11
-14.63473603691828
 21
26.01290826442933
 31
0.0
  0
LINE
  5
21CF
330
6F
100
AcDbEntity
  8
0
 62
     0
100
AcDbLine
 10
-14.63473603691828
 20
26.01290826442933
 30
0.0
 11
-14.63473603691828
 21
12.01330826442932
 31
0.0
  0
LINE
  5
21D0
330
6F
100
AcDbEntity
  8
0
 62
     0
100
AcDbLine
 10
-14.63473603691828
 20
12.01330826442932
 30
0.0
 11
-28.63403603691829
 21
12.01330826442932
 31
0.0
  0
LINE
  5
21D1
330
6F
100
AcDbEntity
  8
0
 62
     0
100
AcDbLine
 10
-28.63403603691829
 20
12.01330826442932
 30
0.0
 11
-28.63403603691829
 21
26.01290826442933
 31
0.0
  0
LINE
  5
21D2
330
6F
100
AcDbEntity
  8
0
 62
     0
100
AcDbLine
 10
-59.59043603691828
 20
26.01290826442933
 30
0.0
 11
-40.82843603691828
 21
26.01290826442933
 31
0.0
  0
LINE
  5
21D3
330
6F
100
AcDbEntity
  8
0
 62
     0
100
AcDbLine
 10
-40.82843603691828
 20
26.01290826442933
 30
0.0
 11
-40.82843603691828
 21
12.01330826442932
 31
0.0
  0
LINE
  5
21D4
330
6F
100
AcDbEntity
  8
0
 62
     0
100
AcDbLine
 10
-40.82843603691828
 20
12.01330826442932
 30
0.0
 11
-59.59043603691828
 21
12.01330826442932
 31
0.0
  0
LINE
  5
21D5
330
6F
100
AcDbEntity
  8
0
 62
     0
100
AcDbLine
 10
-59.59043603691828
 20
12.01330826442932
 30
0.0
 11
-59.59043603691828
 21
26.01290826442933
 31
0.0
  0
LINE
  5
2202
330
6F
100
AcDbEntity
  8
0
 62
     0
100
AcDbLine
 10
290.4536639630817
 20
45.06290826442932
 30
0.0
 11
304.4526639630817
 21
45.06290826442932
 31
0.0
  0
LINE
  5
2203
330
6F
100
AcDbEntity
  8
0
 62
     0
100
AcDbLine
 10
304.4526639630817
 20
45.06290826442932
 30
0.0
 11
304.4526639630817
 21
31.06330826442933
 31
0.0
  0
LINE
  5
2204
330
6F
100
AcDbEntity
  8
0
 62
     0
100
AcDbLine
 10
304.4526639630817
 20
31.06330826442933
 30
0.0
 11
290.4536639630817
 21
31.06330826442933
 31
0.0
  0
LINE
  5
2205
330
6F
100
AcDbEntity
  8
0
 62
     0
100
AcDbLine
 10
290.4536639630817
 20
31.06330826442933
 30
0.0
 11
290.4536639630817
 21
45.06290826442932
 31
0.0
  0
LINE
  5
2206
330
6F
100
AcDbEntity
  8
0
 62
     0
100
AcDbLine
 10
271.4036639630817
 20
45.06290826442932
 30
0.0
 11
285.4026639630817
 21
45.06290826442932
 31
0.0
  0
LINE
  5
2207
330
6F
100
AcDbEntity
  8
0
 62
     0
100
AcDbLine
 10
285.4026639630817
 20
45.06290826442932
 30
0.0
 11
285.4026639630817
 21
31.06330826442933
 31
0.0
  0
LINE
  5
2208
330
6F
100
AcDbEntity
  8
0
 62
     0
100
AcDbLine
 10
285.4026639630817
 20
31.06330826442933
 30
0.0
 11
271.4036639630817
 21
31.06330826442933
 31
0.0
  0
LINE
  5
2209
330
6F
100
AcDbEntity
  8
0
 62
     0
100
AcDbLine
 10
271.4036639630817
 20
31.06330826442933
 30
0.0
 11
271.4036639630817
 21
45.06290826442932
 31
0.0
  0
LINE
  5
220A
330
6F
100
AcDbEntity
  8
0
 62
     0
100
AcDbLine
 10
252.3536639630817
 20
45.06290826442932
 30
0.0
 11
266.3526639630817
 21
45.06290826442932
 31
0.0
  0
LINE
  5
220B
330
6F
100
AcDbEntity
  8
0
 62
     0
100
AcDbLine
 10
266.3526639630817
 20
45.06290826442932
 30
0.0
 11
266.3526639630817
 21
31.06330826442933
 31
0.0
  0
LINE
  5
220C
330
6F
100
AcDbEntity
  8
0
 62
     0
100
AcDbLine
 10
266.3526639630817
 20
31.06330826442933
 30
0.0
 11
252.3536639630817
 21
31.06330826442933
 31
0.0
  0
LINE
  5
220D
330
6F
100
AcDbEntity
  8
0
 62
     0
100
AcDbLine
 10
252.3536639630817
 20
31.06330826442933
 30
0.0
 11
252.3536639630817
 21
45.06290826442932
 31
0.0
  0
LINE
  5
220E
330
6F
100
AcDbEntity
  8
0
 62
     0
100
AcDbLine
 10
228.5406639630817
 20
45.06290826442932
 30
0.0
 11
242.5406639630817
 21
45.06290826442932
 31
0.0
  0
LINE
  5
220F
330
6F
100
AcDbEntity
  8
0
 62
     0
100
AcDbLine
 10
242.5406639630817
 20
45.06290826442932
 30
0.0
 11
242.5406639630817
 21
31.06330826442933
 31
0.0
  0
LINE
  5
2210
330
6F
100
AcDbEntity
  8
0
 62
     0
100
AcDbLine
 10
242.5406639630817
 20
31.06330826442933
 30
0.0
 11
228.5406639630817
 21
31.06330826442933
 31
0.0
  0
LINE
  5
2211
330
6F
100
AcDbEntity
  8
0
 62
     0
100
AcDbLine
 10
228.5406639630817
 20
31.06330826442933
 30
0.0
 11
228.5406639630817
 21
45.06290826442932
 31
0.0
  0
LINE
  5
2212
330
6F
100
AcDbEntity
  8
0
 62
     0
100
AcDbLine
 10
199.9656639630817
 20
45.06290826442932
 30
0.0
 11
213.9656639630818
 21
45.06290826442932
 31
0.0
  0
LINE
  5
2213
330
6F
100
AcDbEntity
  8
0
 62
     0
100
AcDbLine
 10
213.9656639630818
 20
45.06290826442932
 30
0.0
 11
213.9656639630818
 21
31.06330826442933
 31
0.0
  0
LINE
  5
2214
330
6F
100
AcDbEntity
  8
0
 62
     0
100
AcDbLine
 10
213.9656639630818
 20
31.06330826442933
 30
0.0
 11
199.9656639630817
 21
31.06330826442933
 31
0.0
  0
LINE
  5
2215
330
6F
100
AcDbEntity
  8
0
 62
     0
100
AcDbLine
 10
199.9656639630817
 20
31.06330826442933
 30
0.0
 11
199.9656639630817
 21
45.06290826442932
 31
0.0
  0
LINE
  5
2216
330
6F
100
AcDbEntity
  8
0
 62
     0
100
AcDbLine
 10
176.1536639630817
 20
45.06290826442932
 30
0.0
 11
190.1526639630817
 21
45.06290826442932
 31
0.0
  0
LINE
  5
2217
330
6F
100
AcDbEntity
  8
0
 62
     0
100
AcDbLine
 10
190.1526639630817
 20
45.06290826442932
 30
0.0
 11
190.1526639630817
 21
31.06330826442933
 31
0.0
  0
LINE
  5
2218
330
6F
100
AcDbEntity
  8
0
 62
     0
100
AcDbLine
 10
190.1526639630817
 20
31.06330826442933
 30
0.0
 11
176.1536639630817
 21
31.06330826442933
 31
0.0
  0
LINE
  5
2219
330
6F
100
AcDbEntity
  8
0
 62
     0
100
AcDbLine
 10
176.1536639630817
 20
31.06330826442933
 30
0.0
 11
176.1536639630817
 21
45.06290826442932
 31
0.0
  0
LINE
  5
221A
330
6F
100
AcDbEntity
  8
0
 62
     0
100
AcDbLine
 10
157.1036639630817
 20
45.06290826442932
 30
0.0
 11
171.1026639630817
 21
45.06290826442932
 31
0.0
  0
LINE
  5
221B
330
6F
100
AcDbEntity
  8
0
 62
     0
100
AcDbLine
 10
171.1026639630817
 20
45.06290826442932
 30
0.0
 11
171.1026639630817
 21
31.06330826442933
 31
0.0
  0
LINE
  5
221C
330
6F
100
AcDbEntity
  8
0
 62
     0
100
AcDbLine
 10
171.1026639630817
 20
31.06330826442933
 30
0.0
 11
157.1036639630817
 21
31.06330826442933
 31
0.0
  0
LINE
  5
221D
330
6F
100
AcDbEntity
  8
0
 62
     0
100
AcDbLine
 10
157.1036639630817
 20
31.06330826442933
 30
0.0
 11
157.1036639630817
 21
45.06290826442932
 31
0.0
  0
LINE
  5
221E
330
6F
100
AcDbEntity
  8
0
 62
     0
100
AcDbLine
 10
138.0536639630817
 20
45.06290826442932
 30
0.0
 11
152.0526639630817
 21
45.06290826442932
 31
0.0
  0
LINE
  5
221F
330
6F
100
AcDbEntity
  8
0
 62
     0
100
AcDbLine
 10
152.0526639630817
 20
45.06290826442932
 30
0.0
 11
152.0526639630817
 21
31.06330826442933
 31
0.0
  0
LINE
  5
2220
330
6F
100
AcDbEntity
  8
0
 62
     0
100
AcDbLine
 10
152.0526639630817
 20
31.06330826442933
 30
0.0
 11
138.0536639630817
 21
31.06330826442933
 31
0.0
  0
LINE
  5
2221
330
6F
100
AcDbEntity
  8
0
 62
     0
100
AcDbLine
 10
138.0536639630817
 20
31.06330826442933
 30
0.0
 11
138.0536639630817
 21
45.06290826442932
 31
0.0
  0
LINE
  5
2222
330
6F
100
AcDbEntity
  8
0
 62
     0
100
AcDbLine
 10
119.0036639630817
 20
45.06290826442932
 30
0.0
 11
133.0026639630817
 21
45.06290826442932
 31
0.0
  0
LINE
  5
2223
330
6F
100
AcDbEntity
  8
0
 62
     0
100
AcDbLine
 10
133.0026639630817
 20
45.06290826442932
 30
0.0
 11
133.0026639630817
 21
31.06330826442933
 31
0.0
  0
LINE
  5
2224
330
6F
100
AcDbEntity
  8
0
 62
     0
100
AcDbLine
 10
133.0026639630817
 20
31.06330826442933
 30
0.0
 11
119.0036639630817
 21
31.06330826442933
 31
0.0
  0
LINE
  5
2225
330
6F
100
AcDbEntity
  8
0
 62
     0
100
AcDbLine
 10
119.0036639630817
 20
31.06330826442933
 30
0.0
 11
119.0036639630817
 21
45.06290826442932
 31
0.0
  0
LINE
  5
2226
330
6F
100
AcDbEntity
  8
0
 62
     0
100
AcDbLine
 10
99.9536639630817
 20
45.06290826442932
 30
0.0
 11
113.9526639630817
 21
45.06290826442932
 31
0.0
  0
LINE
  5
2227
330
6F
100
AcDbEntity
  8
0
 62
     0
100
AcDbLine
 10
113.9526639630817
 20
45.06290826442932
 30
0.0
 11
113.9526639630817
 21
31.06330826442933
 31
0.0
  0
LINE
  5
2228
330
6F
100
AcDbEntity
  8
0
 62
     0
100
AcDbLine
 10
113.9526639630817
 20
31.06330826442933
 30
0.0
 11
99.9536639630817
 21
31.06330826442933
 31
0.0
  0
LINE
  5
2229
330
6F
100
AcDbEntity
  8
0
 62
     0
100
AcDbLine
 10
99.9536639630817
 20
31.06330826442933
 30
0.0
 11
99.9536639630817
 21
45.06290826442932
 31
0.0
  0
LINE
  5
222A
330
6F
100
AcDbEntity
  8
0
 62
     0
100
AcDbLine
 10
80.90366396308173
 20
45.06290826442932
 30
0.0
 11
94.90266396308175
 21
45.06290826442932
 31
0.0
  0
LINE
  5
222B
330
6F
100
AcDbEntity
  8
0
 62
     0
100
AcDbLine
 10
94.90266396308175
 20
45.06290826442932
 30
0.0
 11
94.90266396308175
 21
31.06330826442933
 31
0.0
  0
LINE
  5
222C
330
6F
100
AcDbEntity
  8
0
 62
     0
100
AcDbLine
 10
94.90266396308175
 20
31.06330826442933
 30
0.0
 11
80.90366396308173
 21
31.06330826442933
 31
0.0
  0
LINE
  5
222D
330
6F
100
AcDbEntity
  8
0
 62
     0
100
AcDbLine
 10
80.90366396308173
 20
31.06330826442933
 30
0.0
 11
80.90366396308173
 21
45.06290826442932
 31
0.0
  0
LINE
  5
222E
330
6F
100
AcDbEntity
  8
0
 62
     0
100
AcDbLine
 10
61.85366396308171
 20
45.06290826442932
 30
0.0
 11
75.85266396308171
 21
45.06290826442932
 31
0.0
  0
LINE
  5
222F
330
6F
100
AcDbEntity
  8
0
 62
     0
100
AcDbLine
 10
75.85266396308171
 20
45.06290826442932
 30
0.0
 11
75.85266396308171
 21
31.06330826442933
 31
0.0
  0
LINE
  5
2230
330
6F
100
AcDbEntity
  8
0
 62
     0
100
AcDbLine
 10
75.85266396308171
 20
31.06330826442933
 30
0.0
 11
61.85366396308171
 21
31.06330826442933
 31
0.0
  0
LINE
  5
2231
330
6F
100
AcDbEntity
  8
0
 62
     0
100
AcDbLine
 10
61.85366396308171
 20
31.06330826442933
 30
0.0
 11
61.85366396308171
 21
45.06290826442932
 31
0.0
  0
LINE
  5
2232
330
6F
100
AcDbEntity
  8
0
 62
     0
100
AcDbLine
 10
42.80366396308171
 20
45.06290826442932
 30
0.0
 11
56.80266396308172
 21
45.06290826442932
 31
0.0
  0
LINE
  5
2233
330
6F
100
AcDbEntity
  8
0
 62
     0
100
AcDbLine
 10
56.80266396308172
 20
45.06290826442932
 30
0.0
 11
56.80266396308172
 21
31.06330826442933
 31
0.0
  0
LINE
  5
2234
330
6F
100
AcDbEntity
  8
0
 62
     0
100
AcDbLine
 10
56.80266396308172
 20
31.06330826442933
 30
0.0
 11
42.80366396308171
 21
31.06330826442933
 31
0.0
  0
LINE
  5
2235
330
6F
100
AcDbEntity
  8
0
 62
     0
100
AcDbLine
 10
42.80366396308171
 20
31.06330826442933
 30
0.0
 11
42.80366396308171
 21
45.06290826442932
 31
0.0
  0
LINE
  5
2236
330
6F
100
AcDbEntity
  8
0
 62
     0
100
AcDbLine
 10
23.75346396308172
 20
45.06290826442932
 30
0.0
 11
37.75266396308171
 21
45.06290826442932
 31
0.0
  0
LINE
  5
2237
330
6F
100
AcDbEntity
  8
0
 62
     0
100
AcDbLine
 10
37.75266396308171
 20
45.06290826442932
 30
0.0
 11
37.75266396308171
 21
31.06330826442933
 31
0.0
  0
LINE
  5
2238
330
6F
100
AcDbEntity
  8
0
 62
     0
100
AcDbLine
 10
37.75266396308171
 20
31.06330826442933
 30
0.0
 11
23.75346396308172
 21
31.06330826442933
 31
0.0
  0
LINE
  5
2239
330
6F
100
AcDbEntity
  8
0
 62
     0
100
AcDbLine
 10
23.75346396308172
 20
31.06330826442933
 30
0.0
 11
23.75346396308172
 21
45.06290826442932
 31
0.0
  0
LINE
  5
223A
330
6F
100
AcDbEntity
  8
0
 62
     0
100
AcDbLine
 10
4.703463963081709
 20
45.06290826442932
 30
0.0
 11
18.70276396308171
 21
45.06290826442932
 31
0.0
  0
LINE
  5
223B
330
6F
100
AcDbEntity
  8
0
 62
     0
100
AcDbLine
 10
18.70276396308171
 20
45.06290826442932
 30
0.0
 11
18.70276396308171
 21
31.06330826442933
 31
0.0
  0
LINE
  5
223C
330
6F
100
AcDbEntity
  8
0
 62
     0
100
AcDbLine
 10
18.70276396308171
 20
31.06330826442933
 30
0.0
 11
4.703463963081709
 21
31.06330826442933
 31
0.0
  0
LINE
  5
223D
330
6F
100
AcDbEntity
  8
0
 62
     0
100
AcDbLine
 10
4.703463963081709
 20
31.06330826442933
 30
0.0
 11
4.703463963081709
 21
45.06290826442932
 31
0.0
  0
LINE
  5
223E
330
6F
100
AcDbEntity
  8
0
 62
     0
100
AcDbLine
 10
-14.34653603691829
 20
45.06290826442932
 30
0.0
 11
-0.3472360369182823
 21
45.06290826442932
 31
0.0
  0
LINE
  5
223F
330
6F
100
AcDbEntity
  8
0
 62
     0
100
AcDbLine
 10
-0.3472360369182823
 20
45.06290826442932
 30
0.0
 11
-0.3472360369182823
 21
31.06330826442933
 31
0.0
  0
LINE
  5
2240
330
6F
100
AcDbEntity
  8
0
 62
     0
100
AcDbLine
 10
-0.3472360369182823
 20
31.06330826442933
 30
0.0
 11
-14.34653603691829
 21
31.06330826442933
 31
0.0
  0
LINE
  5
2241
330
6F
100
AcDbEntity
  8
0
 62
     0
100
AcDbLine
 10
-14.34653603691829
 20
31.06330826442933
 30
0.0
 11
-14.34653603691829
 21
45.06290826442932
 31
0.0
  0
LINE
  5
2242
330
6F
100
AcDbEntity
  8
0
 62
     0
100
AcDbLine
 10
-33.39653603691829
 20
45.06290826442932
 30
0.0
 11
-19.39723603691829
 21
45.06290826442932
 31
0.0
  0
LINE
  5
2243
330
6F
100
AcDbEntity
  8
0
 62
     0
100
AcDbLine
 10
-19.39723603691829
 20
45.06290826442932
 30
0.0
 11
-19.39723603691829
 21
31.06330826442933
 31
0.0
  0
LINE
  5
2244
330
6F
100
AcDbEntity
  8
0
 62
     0
100
AcDbLine
 10
-19.39723603691829
 20
31.06330826442933
 30
0.0
 11
-33.39653603691829
 21
31.06330826442933
 31
0.0
  0
LINE
  5
2245
330
6F
100
AcDbEntity
  8
0
 62
     0
100
AcDbLine
 10
-33.39653603691829
 20
31.06330826442933
 30
0.0
 11
-33.39653603691829
 21
45.06290826442932
 31
0.0
  0
LINE
  5
2246
330
6F
100
AcDbEntity
  8
0
 62
     0
100
AcDbLine
 10
-57.20923603691828
 20
45.06290826442932
 30
0.0
 11
-43.20973603691828
 21
45.06290826442932
 31
0.0
  0
LINE
  5
2247
330
6F
100
AcDbEntity
  8
0
 62
     0
100
AcDbLine
 10
-43.20973603691828
 20
45.06290826442932
 30
0.0
 11
-43.20973603691828
 21
31.06330826442933
 31
0.0
  0
LINE
  5
2248
330
6F
100
AcDbEntity
  8
0
 62
     0
100
AcDbLine
 10
-43.20973603691828
 20
31.06330826442933
 30
0.0
 11
-57.20923603691828
 21
31.06330826442933
 31
0.0
  0
LINE
  5
2249
330
6F
100
AcDbEntity
  8
0
 62
     0
100
AcDbLine
 10
-57.20923603691828
 20
31.06330826442933
 30
0.0
 11
-57.20923603691828
 21
45.06290826442932
 31
0.0
  0
LINE
  5
224A
330
6F
100
AcDbEntity
  8
0
 62
     0
100
AcDbLine
 10
185.6786639630817
 20
64.11240826442933
 30
0.0
 11
185.6786639630817
 21
50.11330826442932
 31
0.0
  0
LINE
  5
224B
330
6F
100
AcDbEntity
  8
0
 62
     0
100
AcDbLine
 10
185.6786639630817
 20
50.11330826442932
 30
0.0
 11
188.6536639630817
 21
50.11330826442932
 31
0.0
  0
LINE
  5
224C
330
6F
100
AcDbEntity
  8
0
 62
     0
100
AcDbLine
 10
188.6536639630817
 20
50.11330826442932
 30
0.0
 11
188.6536639630817
 21
49.36360826442933
 31
0.0
  0
LINE
  5
224D
330
6F
100
AcDbEntity
  8
0
 62
     0
100
AcDbLine
 10
188.6536639630817
 20
49.36360826442933
 30
0.0
 11
191.9526639630817
 21
49.36360826442933
 31
0.0
  0
LINE
  5
224E
330
6F
100
AcDbEntity
  8
0
 62
     0
100
AcDbLine
 10
191.9526639630817
 20
49.36360826442933
 30
0.0
 11
191.9526639630817
 21
50.11330826442932
 31
0.0
  0
LINE
  5
224F
330
6F
100
AcDbEntity
  8
0
 62
     0
100
AcDbLine
 10
191.9526639630817
 20
50.11330826442932
 30
0.0
 11
212.4536639630818
 21
50.11330826442932
 31
0.0
  0
LINE
  5
2250
330
6F
100
AcDbEntity
  8
0
 62
     0
100
AcDbLine
 10
212.4536639630818
 20
50.11330826442932
 30
0.0
 11
212.4536639630818
 21
49.36360826442933
 31
0.0
  0
LINE
  5
2251
330
6F
100
AcDbEntity
  8
0
 62
     0
100
AcDbLine
 10
212.4536639630818
 20
49.36360826442933
 30
0.0
 11
215.7526639630817
 21
49.36360826442933
 31
0.0
  0
LINE
  5
2252
330
6F
100
AcDbEntity
  8
0
 62
     0
100
AcDbLine
 10
215.7526639630817
 20
49.36360826442933
 30
0.0
 11
215.7526639630817
 21
50.11330826442932
 31
0.0
  0
LINE
  5
2253
330
6F
100
AcDbEntity
  8
0
 62
     0
100
AcDbLine
 10
215.7526639630817
 20
50.11330826442932
 30
0.0
 11
218.7276639630817
 21
50.11330826442932
 31
0.0
  0
LINE
  5
2254
330
6F
100
AcDbEntity
  8
0
 62
     0
100
AcDbLine
 10
218.7276639630817
 20
50.11330826442932
 30
0.0
 11
218.7276639630817
 21
64.11240826442933
 31
0.0
  0
LINE
  5
2255
330
6F
100
AcDbEntity
  8
0
 62
     0
100
AcDbLine
 10
218.7276639630817
 20
64.11240826442933
 30
0.0
 11
185.6786639630817
 21
64.11240826442933
 31
0.0
  0
LINE
  5
2256
330
6F
100
AcDbEntity
  8
0
 62
     0
100
AcDbLine
 10
309.5036639630817
 20
64.11240826442933
 30
0.0
 11
323.5026639630817
 21
64.11240826442933
 31
0.0
  0
LINE
  5
2257
330
6F
100
AcDbEntity
  8
0
 62
     0
100
AcDbLine
 10
323.5026639630817
 20
64.11240826442933
 30
0.0
 11
323.5026639630817
 21
50.11330826442932
 31
0.0
  0
LINE
  5
2258
330
6F
100
AcDbEntity
  8
0
 62
     0
100
AcDbLine
 10
323.5026639630817
 20
50.11330826442932
 30
0.0
 11
309.5036639630817
 21
50.11330826442932
 31
0.0
  0
LINE
  5
2259
330
6F
100
AcDbEntity
  8
0
 62
     0
100
AcDbLine
 10
309.5036639630817
 20
50.11330826442932
 30
0.0
 11
309.5036639630817
 21
64.11240826442933
 31
0.0
  0
LINE
  5
225A
330
6F
100
AcDbEntity
  8
0
 62
     0
100
AcDbLine
 10
290.4536639630817
 20
64.11240826442933
 30
0.0
 11
304.4526639630817
 21
64.11240826442933
 31
0.0
  0
LINE
  5
225B
330
6F
100
AcDbEntity
  8
0
 62
     0
100
AcDbLine
 10
304.4526639630817
 20
64.11240826442933
 30
0.0
 11
304.4526639630817
 21
50.11330826442932
 31
0.0
  0
LINE
  5
225C
330
6F
100
AcDbEntity
  8
0
 62
     0
100
AcDbLine
 10
304.4526639630817
 20
50.11330826442932
 30
0.0
 11
290.4536639630817
 21
50.11330826442932
 31
0.0
  0
LINE
  5
225D
330
6F
100
AcDbEntity
  8
0
 62
     0
100
AcDbLine
 10
290.4536639630817
 20
50.11330826442932
 30
0.0
 11
290.4536639630817
 21
64.11240826442933
 31
0.0
  0
LINE
  5
225E
330
6F
100
AcDbEntity
  8
0
 62
     0
100
AcDbLine
 10
271.4036639630817
 20
64.11240826442933
 30
0.0
 11
285.4026639630817
 21
64.11240826442933
 31
0.0
  0
LINE
  5
225F
330
6F
100
AcDbEntity
  8
0
 62
     0
100
AcDbLine
 10
285.4026639630817
 20
64.11240826442933
 30
0.0
 11
285.4026639630817
 21
50.11330826442932
 31
0.0
  0
LINE
  5
2260
330
6F
100
AcDbEntity
  8
0
 62
     0
100
AcDbLine
 10
285.4026639630817
 20
50.11330826442932
 30
0.0
 11
271.4036639630817
 21
50.11330826442932
 31
0.0
  0
LINE
  5
2261
330
6F
100
AcDbEntity
  8
0
 62
     0
100
AcDbLine
 10
271.4036639630817
 20
50.11330826442932
 30
0.0
 11
271.4036639630817
 21
64.11240826442933
 31
0.0
  0
LINE
  5
2262
330
6F
100
AcDbEntity
  8
0
 62
     0
100
AcDbLine
 10
252.3536639630817
 20
64.11240826442933
 30
0.0
 11
266.3526639630817
 21
64.11240826442933
 31
0.0
  0
LINE
  5
2263
330
6F
100
AcDbEntity
  8
0
 62
     0
100
AcDbLine
 10
266.3526639630817
 20
64.11240826442933
 30
0.0
 11
266.3526639630817
 21
50.11330826442932
 31
0.0
  0
LINE
  5
2264
330
6F
100
AcDbEntity
  8
0
 62
     0
100
AcDbLine
 10
266.3526639630817
 20
50.11330826442932
 30
0.0
 11
252.3536639630817
 21
50.11330826442932
 31
0.0
  0
LINE
  5
2265
330
6F
100
AcDbEntity
  8
0
 62
     0
100
AcDbLine
 10
252.3536639630817
 20
50.11330826442932
 30
0.0
 11
252.3536639630817
 21
64.11240826442933
 31
0.0
  0
LINE
  5
2266
330
6F
100
AcDbEntity
  8
0
 62
     0
100
AcDbLine
 10
228.5406639630817
 20
64.11240826442933
 30
0.0
 11
242.5406639630817
 21
64.11240826442933
 31
0.0
  0
LINE
  5
2267
330
6F
100
AcDbEntity
  8
0
 62
     0
100
AcDbLine
 10
242.5406639630817
 20
64.11240826442933
 30
0.0
 11
242.5406639630817
 21
50.11330826442932
 31
0.0
  0
LINE
  5
2268
330
6F
100
AcDbEntity
  8
0
 62
     0
100
AcDbLine
 10
242.5406639630817
 20
50.11330826442932
 30
0.0
 11
228.5406639630817
 21
50.11330826442932
 31
0.0
  0
LINE
  5
2269
330
6F
100
AcDbEntity
  8
0
 62
     0
100
AcDbLine
 10
228.5406639630817
 20
50.11330826442932
 30
0.0
 11
228.5406639630817
 21
64.11240826442933
 31
0.0
  0
LINE
  5
226A
330
6F
100
AcDbEntity
  8
0
 62
     0
100
AcDbLine
 10
166.6286639630817
 20
64.11240826442933
 30
0.0
 11
180.6276639630817
 21
64.11240826442933
 31
0.0
  0
LINE
  5
226B
330
6F
100
AcDbEntity
  8
0
 62
     0
100
AcDbLine
 10
180.6276639630817
 20
64.11240826442933
 30
0.0
 11
180.6276639630817
 21
50.11330826442932
 31
0.0
  0
LINE
  5
226C
330
6F
100
AcDbEntity
  8
0
 62
     0
100
AcDbLine
 10
180.6276639630817
 20
50.11330826442932
 30
0.0
 11
166.6286639630817
 21
50.11330826442932
 31
0.0
  0
LINE
  5
226D
330
6F
100
AcDbEntity
  8
0
 62
     0
100
AcDbLine
 10
166.6286639630817
 20
50.11330826442932
 30
0.0
 11
166.6286639630817
 21
64.11240826442933
 31
0.0
  0
LINE
  5
226E
330
6F
100
AcDbEntity
  8
0
 62
     0
100
AcDbLine
 10
147.5786639630817
 20
64.11240826442933
 30
0.0
 11
161.5776639630817
 21
64.11240826442933
 31
0.0
  0
LINE
  5
226F
330
6F
100
AcDbEntity
  8
0
 62
     0
100
AcDbLine
 10
161.5776639630817
 20
64.11240826442933
 30
0.0
 11
161.5776639630817
 21
50.11330826442932
 31
0.0
  0
LINE
  5
2270
330
6F
100
AcDbEntity
  8
0
 62
     0
100
AcDbLine
 10
161.5776639630817
 20
50.11330826442932
 30
0.0
 11
147.5786639630817
 21
50.11330826442932
 31
0.0
  0
LINE
  5
2271
330
6F
100
AcDbEntity
  8
0
 62
     0
100
AcDbLine
 10
147.5786639630817
 20
50.11330826442932
 30
0.0
 11
147.5786639630817
 21
64.11240826442933
 31
0.0
  0
LINE
  5
2272
330
6F
100
AcDbEntity
  8
0
 62
     0
100
AcDbLine
 10
128.5286639630817
 20
64.11240826442933
 30
0.0
 11
142.5276639630817
 21
64.11240826442933
 31
0.0
  0
LINE
  5
2273
330
6F
100
AcDbEntity
  8
0
 62
     0
100
AcDbLine
 10
142.5276639630817
 20
64.11240826442933
 30
0.0
 11
142.5276639630817
 21
50.11330826442932
 31
0.0
  0
LINE
  5
2274
330
6F
100
AcDbEntity
  8
0
 62
     0
100
AcDbLine
 10
142.5276639630817
 20
50.11330826442932
 30
0.0
 11
128.5286639630817
 21
50.11330826442932
 31
0.0
  0
LINE
  5
2275
330
6F
100
AcDbEntity
  8
0
 62
     0
100
AcDbLine
 10
128.5286639630817
 20
50.11330826442932
 30
0.0
 11
128.5286639630817
 21
64.11240826442933
 31
0.0
  0
LINE
  5
2276
330
6F
100
AcDbEntity
  8
0
 62
     0
100
AcDbLine
 10
109.4786639630817
 20
64.11240826442933
 30
0.0
 11
123.4776639630817
 21
64.11240826442933
 31
0.0
  0
LINE
  5
2277
330
6F
100
AcDbEntity
  8
0
 62
     0
100
AcDbLine
 10
123.4776639630817
 20
64.11240826442933
 30
0.0
 11
123.4776639630817
 21
50.11330826442932
 31
0.0
  0
LINE
  5
2278
330
6F
100
AcDbEntity
  8
0
 62
     0
100
AcDbLine
 10
123.4776639630817
 20
50.11330826442932
 30
0.0
 11
109.4786639630817
 21
50.11330826442932
 31
0.0
  0
LINE
  5
2279
330
6F
100
AcDbEntity
  8
0
 62
     0
100
AcDbLine
 10
109.4786639630817
 20
50.11330826442932
 30
0.0
 11
109.4786639630817
 21
64.11240826442933
 31
0.0
  0
LINE
  5
227A
330
6F
100
AcDbEntity
  8
0
 62
     0
100
AcDbLine
 10
90.42866396308173
 20
64.11240826442933
 30
0.0
 11
104.4276639630817
 21
64.11240826442933
 31
0.0
  0
LINE
  5
227B
330
6F
100
AcDbEntity
  8
0
 62
     0
100
AcDbLine
 10
104.4276639630817
 20
64.11240826442933
 30
0.0
 11
104.4276639630817
 21
50.11330826442932
 31
0.0
  0
LINE
  5
227C
330
6F
100
AcDbEntity
  8
0
 62
     0
100
AcDbLine
 10
104.4276639630817
 20
50.11330826442932
 30
0.0
 11
90.42866396308173
 21
50.11330826442932
 31
0.0
  0
LINE
  5
227D
330
6F
100
AcDbEntity
  8
0
 62
     0
100
AcDbLine
 10
90.42866396308173
 20
50.11330826442932
 30
0.0
 11
90.42866396308173
 21
64.11240826442933
 31
0.0
  0
LINE
  5
227E
330
6F
100
AcDbEntity
  8
0
 62
     0
100
AcDbLine
 10
71.37866396308172
 20
64.11240826442933
 30
0.0
 11
85.37766396308171
 21
64.11240826442933
 31
0.0
  0
LINE
  5
227F
330
6F
100
AcDbEntity
  8
0
 62
     0
100
AcDbLine
 10
85.37766396308171
 20
64.11240826442933
 30
0.0
 11
85.37766396308171
 21
50.11330826442932
 31
0.0
  0
LINE
  5
2280
330
6F
100
AcDbEntity
  8
0
 62
     0
100
AcDbLine
 10
85.37766396308171
 20
50.11330826442932
 30
0.0
 11
71.37866396308172
 21
50.11330826442932
 31
0.0
  0
LINE
  5
2281
330
6F
100
AcDbEntity
  8
0
 62
     0
100
AcDbLine
 10
71.37866396308172
 20
50.11330826442932
 30
0.0
 11
71.37866396308172
 21
64.11240826442933
 31
0.0
  0
LINE
  5
2282
330
6F
100
AcDbEntity
  8
0
 62
     0
100
AcDbLine
 10
52.32666396308171
 20
64.11240826442933
 30
0.0
 11
66.3276639630817
 21
64.11240826442933
 31
0.0
  0
LINE
  5
2283
330
6F
100
AcDbEntity
  8
0
 62
     0
100
AcDbLine
 10
66.3276639630817
 20
64.11240826442933
 30
0.0
 11
66.3276639630817
 21
50.11330826442932
 31
0.0
  0
LINE
  5
2284
330
6F
100
AcDbEntity
  8
0
 62
     0
100
AcDbLine
 10
66.3276639630817
 20
50.11330826442932
 30
0.0
 11
52.32666396308171
 21
50.11330826442932
 31
0.0
  0
LINE
  5
2285
330
6F
100
AcDbEntity
  8
0
 62
     0
100
AcDbLine
 10
52.32666396308171
 20
50.11330826442932
 30
0.0
 11
52.32666396308171
 21
64.11240826442933
 31
0.0
  0
LINE
  5
2286
330
6F
100
AcDbEntity
  8
0
 62
     0
100
AcDbLine
 10
33.27666396308171
 20
64.11240826442933
 30
0.0
 11
47.27766396308171
 21
64.11240826442933
 31
0.0
  0
LINE
  5
2287
330
6F
100
AcDbEntity
  8
0
 62
     0
100
AcDbLine
 10
47.27766396308171
 20
64.11240826442933
 30
0.0
 11
47.27766396308171
 21
50.11330826442932
 31
0.0
  0
LINE
  5
2288
330
6F
100
AcDbEntity
  8
0
 62
     0
100
AcDbLine
 10
47.27766396308171
 20
50.11330826442932
 30
0.0
 11
33.27666396308171
 21
50.11330826442932
 31
0.0
  0
LINE
  5
2289
330
6F
100
AcDbEntity
  8
0
 62
     0
100
AcDbLine
 10
33.27666396308171
 20
50.11330826442932
 30
0.0
 11
33.27666396308171
 21
64.11240826442933
 31
0.0
  0
LINE
  5
228A
330
6F
100
AcDbEntity
  8
0
 62
     0
100
AcDbLine
 10
14.22846396308171
 20
64.11240826442933
 30
0.0
 11
28.22766396308172
 21
64.11240826442933
 31
0.0
  0
LINE
  5
228B
330
6F
100
AcDbEntity
  8
0
 62
     0
100
AcDbLine
 10
28.22766396308172
 20
64.11240826442933
 30
0.0
 11
28.22766396308172
 21
50.11330826442932
 31
0.0
  0
LINE
  5
228C
330
6F
100
AcDbEntity
  8
0
 62
     0
100
AcDbLine
 10
28.22766396308172
 20
50.11330826442932
 30
0.0
 11
14.22846396308171
 21
50.11330826442932
 31
0.0
  0
LINE
  5
228D
330
6F
100
AcDbEntity
  8
0
 62
     0
100
AcDbLine
 10
14.22846396308171
 20
50.11330826442932
 30
0.0
 11
14.22846396308171
 21
64.11240826442933
 31
0.0
  0
LINE
  5
228E
330
6F
100
AcDbEntity
  8
0
 62
     0
100
AcDbLine
 10
-4.821536036918281
 20
64.11240826442933
 30
0.0
 11
9.177763963081709
 21
64.11240826442933
 31
0.0
  0
LINE
  5
228F
330
6F
100
AcDbEntity
  8
0
 62
     0
100
AcDbLine
 10
9.177763963081709
 20
64.11240826442933
 30
0.0
 11
9.177763963081709
 21
50.11330826442932
 31
0.0
  0
LINE
  5
2290
330
6F
100
AcDbEntity
  8
0
 62
     0
100
AcDbLine
 10
9.177763963081709
 20
50.11330826442932
 30
0.0
 11
-4.821536036918281
 21
50.11330826442932
 31
0.0
  0
LINE
  5
2291
330
6F
100
AcDbEntity
  8
0
 62
     0
100
AcDbLine
 10
-4.821536036918281
 20
50.11330826442932
 30
0.0
 11
-4.821536036918281
 21
64.11240826442933
 31
0.0
  0
LINE
  5
2292
330
6F
100
AcDbEntity
  8
0
 62
     0
100
AcDbLine
 10
-23.87153603691829
 20
64.11240826442933
 30
0.0
 11
-9.872236036918287
 21
64.11240826442933
 31
0.0
  0
LINE
  5
2293
330
6F
100
AcDbEntity
  8
0
 62
     0
100
AcDbLine
 10
-9.872236036918287
 20
64.11240826442933
 30
0.0
 11
-9.872236036918287
 21
50.11330826442932
 31
0.0
  0
LINE
  5
2294
330
6F
100
AcDbEntity
  8
0
 62
     0
100
AcDbLine
 10
-9.872236036918287
 20
50.11330826442932
 30
0.0
 11
-23.87153603691829
 21
50.11330826442932
 31
0.0
  0
LINE
  5
2295
330
6F
100
AcDbEntity
  8
0
 62
     0
100
AcDbLine
 10
-23.87153603691829
 20
50.11330826442932
 30
0.0
 11
-23.87153603691829
 21
64.11240826442933
 31
0.0
  0
LINE
  5
2296
330
6F
100
AcDbEntity
  8
0
 62
     0
100
AcDbLine
 10
-42.92173603691828
 20
64.11240826442933
 30
0.0
 11
-28.92223603691828
 21
64.11240826442933
 31
0.0
  0
LINE
  5
2297
330
6F
100
AcDbEntity
  8
0
 62
     0
100
AcDbLine
 10
-28.92223603691828
 20
64.11240826442933
 30
0.0
 11
-28.92223603691828
 21
50.11330826442932
 31
0.0
  0
LINE
  5
2298
330
6F
100
AcDbEntity
  8
0
 62
     0
100
AcDbLine
 10
-28.92223603691828
 20
50.11330826442932
 30
0.0
 11
-42.92173603691828
 21
50.11330826442932
 31
0.0
  0
LINE
  5
2299
330
6F
100
AcDbEntity
  8
0
 62
     0
100
AcDbLine
 10
-42.92173603691828
 20
50.11330826442932
 30
0.0
 11
-42.92173603691828
 21
64.11240826442933
 31
0.0
  0
LINE
  5
229A
330
6F
100
AcDbEntity
  8
0
 62
     0
100
AcDbLine
 10
-61.97173603691828
 20
64.11240826442933
 30
0.0
 11
-47.97223603691828
 21
64.11240826442933
 31
0.0
  0
LINE
  5
229B
330
6F
100
AcDbEntity
  8
0
 62
     0
100
AcDbLine
 10
-47.97223603691828
 20
64.11240826442933
 30
0.0
 11
-47.97223603691828
 21
50.11330826442932
 31
0.0
  0
LINE
  5
229C
330
6F
100
AcDbEntity
  8
0
 62
     0
100
AcDbLine
 10
-47.97223603691828
 20
50.11330826442932
 30
0.0
 11
-61.97173603691828
 21
50.11330826442932
 31
0.0
  0
LINE
  5
229D
330
6F
100
AcDbEntity
  8
0
 62
     0
100
AcDbLine
 10
-61.97173603691828
 20
50.11330826442932
 30
0.0
 11
-61.97173603691828
 21
64.11240826442933
 31
0.0
  0
LINE
  5
229E
330
6F
100
AcDbEntity
  8
0
 62
     0
100
AcDbLine
 10
309.5036639630817
 20
87.92540826442934
 30
0.0
 11
323.5026639630817
 21
87.92540826442934
 31
0.0
  0
LINE
  5
229F
330
6F
100
AcDbEntity
  8
0
 62
     0
100
AcDbLine
 10
323.5026639630817
 20
87.92540826442934
 30
0.0
 11
323.5026639630817
 21
73.92540826442932
 31
0.0
  0
LINE
  5
22A0
330
6F
100
AcDbEntity
  8
0
 62
     0
100
AcDbLine
 10
323.5026639630817
 20
73.92540826442932
 30
0.0
 11
309.5036639630817
 21
73.92540826442932
 31
0.0
  0
LINE
  5
22A1
330
6F
100
AcDbEntity
  8
0
 62
     0
100
AcDbLine
 10
309.5036639630817
 20
73.92540826442932
 30
0.0
 11
309.5036639630817
 21
87.92540826442934
 31
0.0
  0
LINE
  5
22A2
330
6F
100
AcDbEntity
  8
0
 62
     0
100
AcDbLine
 10
290.4536639630817
 20
87.92540826442934
 30
0.0
 11
304.4526639630817
 21
87.92540826442934
 31
0.0
  0
LINE
  5
22A3
330
6F
100
AcDbEntity
  8
0
 62
     0
100
AcDbLine
 10
304.4526639630817
 20
87.92540826442934
 30
0.0
 11
304.4526639630817
 21
73.92540826442932
 31
0.0
  0
LINE
  5
22A4
330
6F
100
AcDbEntity
  8
0
 62
     0
100
AcDbLine
 10
304.4526639630817
 20
73.92540826442932
 30
0.0
 11
290.4536639630817
 21
73.92540826442932
 31
0.0
  0
LINE
  5
22A5
330
6F
100
AcDbEntity
  8
0
 62
     0
100
AcDbLine
 10
290.4536639630817
 20
73.92540826442932
 30
0.0
 11
290.4536639630817
 21
87.92540826442934
 31
0.0
  0
LINE
  5
22A6
330
6F
100
AcDbEntity
  8
0
 62
     0
100
AcDbLine
 10
271.4036639630817
 20
87.92540826442934
 30
0.0
 11
285.4026639630817
 21
87.92540826442934
 31
0.0
  0
LINE
  5
22A7
330
6F
100
AcDbEntity
  8
0
 62
     0
100
AcDbLine
 10
285.4026639630817
 20
87.92540826442934
 30
0.0
 11
285.4026639630817
 21
73.92540826442932
 31
0.0
  0
LINE
  5
22A8
330
6F
100
AcDbEntity
  8
0
 62
     0
100
AcDbLine
 10
285.4026639630817
 20
73.92540826442932
 30
0.0
 11
271.4036639630817
 21
73.92540826442932
 31
0.0
  0
LINE
  5
22A9
330
6F
100
AcDbEntity
  8
0
 62
     0
100
AcDbLine
 10
271.4036639630817
 20
73.92540826442932
 30
0.0
 11
271.4036639630817
 21
87.92540826442934
 31
0.0
  0
LINE
  5
22AA
330
6F
100
AcDbEntity
  8
0
 62
     0
100
AcDbLine
 10
252.3536639630817
 20
87.92540826442934
 30
0.0
 11
266.3526639630817
 21
87.92540826442934
 31
0.0
  0
LINE
  5
22AB
330
6F
100
AcDbEntity
  8
0
 62
     0
100
AcDbLine
 10
266.3526639630817
 20
87.92540826442934
 30
0.0
 11
266.3526639630817
 21
73.92540826442932
 31
0.0
  0
LINE
  5
22AC
330
6F
100
AcDbEntity
  8
0
 62
     0
100
AcDbLine
 10
266.3526639630817
 20
73.92540826442932
 30
0.0
 11
252.3536639630817
 21
73.92540826442932
 31
0.0
  0
LINE
  5
22AD
330
6F
100
AcDbEntity
  8
0
 62
     0
100
AcDbLine
 10
252.3536639630817
 20
73.92540826442932
 30
0.0
 11
252.3536639630817
 21
87.92540826442934
 31
0.0
  0
LINE
  5
22AE
330
6F
100
AcDbEntity
  8
0
 62
     0
100
AcDbLine
 10
228.5406639630817
 20
87.92540826442934
 30
0.0
 11
242.5406639630817
 21
87.92540826442934
 31
0.0
  0
LINE
  5
22AF
330
6F
100
AcDbEntity
  8
0
 62
     0
100
AcDbLine
 10
242.5406639630817
 20
87.92540826442934
 30
0.0
 11
242.5406639630817
 21
73.92540826442932
 31
0.0
  0
LINE
  5
22B0
330
6F
100
AcDbEntity
  8
0
 62
     0
100
AcDbLine
 10
242.5406639630817
 20
73.92540826442932
 30
0.0
 11
228.5406639630817
 21
73.92540826442932
 31
0.0
  0
LINE
  5
22B1
330
6F
100
AcDbEntity
  8
0
 62
     0
100
AcDbLine
 10
228.5406639630817
 20
73.92540826442932
 30
0.0
 11
228.5406639630817
 21
87.92540826442934
 31
0.0
  0
LINE
  5
22B2
330
6F
100
AcDbEntity
  8
0
 62
     0
100
AcDbLine
 10
204.7286639630817
 20
87.92540826442934
 30
0.0
 11
218.7276639630817
 21
87.92540826442934
 31
0.0
  0
LINE
  5
22B3
330
6F
100
AcDbEntity
  8
0
 62
     0
100
AcDbLine
 10
218.7276639630817
 20
87.92540826442934
 30
0.0
 11
218.7276639630817
 21
73.92540826442932
 31
0.0
  0
LINE
  5
22B4
330
6F
100
AcDbEntity
  8
0
 62
     0
100
AcDbLine
 10
218.7276639630817
 20
73.92540826442932
 30
0.0
 11
204.7286639630817
 21
73.92540826442932
 31
0.0
  0
LINE
  5
22B5
330
6F
100
AcDbEntity
  8
0
 62
     0
100
AcDbLine
 10
204.7286639630817
 20
73.92540826442932
 30
0.0
 11
204.7286639630817
 21
87.92540826442934
 31
0.0
  0
LINE
  5
22B6
330
6F
100
AcDbEntity
  8
0
 62
     0
100
AcDbLine
 10
180.9146639630817
 20
87.92540826442934
 30
0.0
 11
194.9156639630817
 21
87.92540826442934
 31
0.0
  0
LINE
  5
22B7
330
6F
100
AcDbEntity
  8
0
 62
     0
100
AcDbLine
 10
194.9156639630817
 20
87.92540826442934
 30
0.0
 11
194.9156639630817
 21
73.92540826442932
 31
0.0
  0
LINE
  5
22B8
330
6F
100
AcDbEntity
  8
0
 62
     0
100
AcDbLine
 10
194.9156639630817
 20
73.92540826442932
 30
0.0
 11
180.9146639630817
 21
73.92540826442932
 31
0.0
  0
LINE
  5
22B9
330
6F
100
AcDbEntity
  8
0
 62
     0
100
AcDbLine
 10
180.9146639630817
 20
73.92540826442932
 30
0.0
 11
180.9146639630817
 21
87.92540826442934
 31
0.0
  0
LINE
  5
22BA
330
6F
100
AcDbEntity
  8
0
 62
     0
100
AcDbLine
 10
161.8656639630817
 20
87.92540826442934
 30
0.0
 11
175.8656639630817
 21
87.92540826442934
 31
0.0
  0
LINE
  5
22BB
330
6F
100
AcDbEntity
  8
0
 62
     0
100
AcDbLine
 10
175.8656639630817
 20
87.92540826442934
 30
0.0
 11
175.8656639630817
 21
73.92540826442932
 31
0.0
  0
LINE
  5
22BC
330
6F
100
AcDbEntity
  8
0
 62
     0
100
AcDbLine
 10
175.8656639630817
 20
73.92540826442932
 30
0.0
 11
161.8656639630817
 21
73.92540826442932
 31
0.0
  0
LINE
  5
22BD
330
6F
100
AcDbEntity
  8
0
 62
     0
100
AcDbLine
 10
161.8656639630817
 20
73.92540826442932
 30
0.0
 11
161.8656639630817
 21
87.92540826442934
 31
0.0
  0
LINE
  5
22BE
330
6F
100
AcDbEntity
  8
0
 62
     0
100
AcDbLine
 10
142.8156639630817
 20
87.92540826442934
 30
0.0
 11
156.8156639630817
 21
87.92540826442934
 31
0.0
  0
LINE
  5
22BF
330
6F
100
AcDbEntity
  8
0
 62
     0
100
AcDbLine
 10
156.8156639630817
 20
87.92540826442934
 30
0.0
 11
156.8156639630817
 21
73.92540826442932
 31
0.0
  0
LINE
  5
22C0
330
6F
100
AcDbEntity
  8
0
 62
     0
100
AcDbLine
 10
156.8156639630817
 20
73.92540826442932
 30
0.0
 11
142.8156639630817
 21
73.92540826442932
 31
0.0
  0
LINE
  5
22C1
330
6F
100
AcDbEntity
  8
0
 62
     0
100
AcDbLine
 10
142.8156639630817
 20
73.92540826442932
 30
0.0
 11
142.8156639630817
 21
87.92540826442934
 31
0.0
  0
LINE
  5
22C2
330
6F
100
AcDbEntity
  8
0
 62
     0
100
AcDbLine
 10
123.7656639630817
 20
87.92540826442934
 30
0.0
 11
137.7656639630817
 21
87.92540826442934
 31
0.0
  0
LINE
  5
22C3
330
6F
100
AcDbEntity
  8
0
 62
     0
100
AcDbLine
 10
137.7656639630817
 20
87.92540826442934
 30
0.0
 11
137.7656639630817
 21
73.92540826442932
 31
0.0
  0
LINE
  5
22C4
330
6F
100
AcDbEntity
  8
0
 62
     0
100
AcDbLine
 10
137.7656639630817
 20
73.92540826442932
 30
0.0
 11
123.7656639630817
 21
73.92540826442932
 31
0.0
  0
LINE
  5
22C5
330
6F
100
AcDbEntity
  8
0
 62
     0
100
AcDbLine
 10
123.7656639630817
 20
73.92540826442932
 30
0.0
 11
123.7656639630817
 21
87.92540826442934
 31
0.0
  0
LINE
  5
22C6
330
6F
100
AcDbEntity
  8
0
 62
     0
100
AcDbLine
 10
99.9536639630817
 20
87.92540826442934
 30
0.0
 11
113.9526639630817
 21
87.92540826442934
 31
0.0
  0
LINE
  5
22C7
330
6F
100
AcDbEntity
  8
0
 62
     0
100
AcDbLine
 10
113.9526639630817
 20
87.92540826442934
 30
0.0
 11
113.9526639630817
 21
73.92540826442932
 31
0.0
  0
LINE
  5
22C8
330
6F
100
AcDbEntity
  8
0
 62
     0
100
AcDbLine
 10
113.9526639630817
 20
73.92540826442932
 30
0.0
 11
99.9536639630817
 21
73.92540826442932
 31
0.0
  0
LINE
  5
22C9
330
6F
100
AcDbEntity
  8
0
 62
     0
100
AcDbLine
 10
99.9536639630817
 20
73.92540826442932
 30
0.0
 11
99.9536639630817
 21
87.92540826442934
 31
0.0
  0
LINE
  5
22CA
330
6F
100
AcDbEntity
  8
0
 62
     0
100
AcDbLine
 10
80.90366396308173
 20
87.92540826442934
 30
0.0
 11
94.90266396308175
 21
87.92540826442934
 31
0.0
  0
LINE
  5
22CB
330
6F
100
AcDbEntity
  8
0
 62
     0
100
AcDbLine
 10
94.90266396308175
 20
87.92540826442934
 30
0.0
 11
94.90266396308175
 21
73.92540826442932
 31
0.0
  0
LINE
  5
22CC
330
6F
100
AcDbEntity
  8
0
 62
     0
100
AcDbLine
 10
94.90266396308175
 20
73.92540826442932
 30
0.0
 11
80.90366396308173
 21
73.92540826442932
 31
0.0
  0
LINE
  5
22CD
330
6F
100
AcDbEntity
  8
0
 62
     0
100
AcDbLine
 10
80.90366396308173
 20
73.92540826442932
 30
0.0
 11
80.90366396308173
 21
87.92540826442934
 31
0.0
  0
LINE
  5
22CE
330
6F
100
AcDbEntity
  8
0
 62
     0
100
AcDbLine
 10
61.85366396308171
 20
87.92540826442934
 30
0.0
 11
75.85266396308171
 21
87.92540826442934
 31
0.0
  0
LINE
  5
22CF
330
6F
100
AcDbEntity
  8
0
 62
     0
100
AcDbLine
 10
75.85266396308171
 20
87.92540826442934
 30
0.0
 11
75.85266396308171
 21
73.92540826442932
 31
0.0
  0
LINE
  5
22D0
330
6F
100
AcDbEntity
  8
0
 62
     0
100
AcDbLine
 10
75.85266396308171
 20
73.92540826442932
 30
0.0
 11
61.85366396308171
 21
73.92540826442932
 31
0.0
  0
LINE
  5
22D1
330
6F
100
AcDbEntity
  8
0
 62
     0
100
AcDbLine
 10
61.85366396308171
 20
73.92540826442932
 30
0.0
 11
61.85366396308171
 21
87.92540826442934
 31
0.0
  0
LINE
  5
22D2
330
6F
100
AcDbEntity
  8
0
 62
     0
100
AcDbLine
 10
42.80366396308171
 20
87.92540826442934
 30
0.0
 11
56.80266396308172
 21
87.92540826442934
 31
0.0
  0
LINE
  5
22D3
330
6F
100
AcDbEntity
  8
0
 62
     0
100
AcDbLine
 10
56.80266396308172
 20
87.92540826442934
 30
0.0
 11
56.80266396308172
 21
73.92540826442932
 31
0.0
  0
LINE
  5
22D4
330
6F
100
AcDbEntity
  8
0
 62
     0
100
AcDbLine
 10
56.80266396308172
 20
73.92540826442932
 30
0.0
 11
42.80366396308171
 21
73.92540826442932
 31
0.0
  0
LINE
  5
22D5
330
6F
100
AcDbEntity
  8
0
 62
     0
100
AcDbLine
 10
42.80366396308171
 20
73.92540826442932
 30
0.0
 11
42.80366396308171
 21
87.92540826442934
 31
0.0
  0
LINE
  5
22D6
330
6F
100
AcDbEntity
  8
0
 62
     0
100
AcDbLine
 10
18.99096396308172
 20
87.92540826442934
 30
0.0
 11
32.99066396308172
 21
87.92540826442934
 31
0.0
  0
LINE
  5
22D7
330
6F
100
AcDbEntity
  8
0
 62
     0
100
AcDbLine
 10
32.99066396308172
 20
87.92540826442934
 30
0.0
 11
32.99066396308172
 21
73.92540826442932
 31
0.0
  0
LINE
  5
22D8
330
6F
100
AcDbEntity
  8
0
 62
     0
100
AcDbLine
 10
32.99066396308172
 20
73.92540826442932
 30
0.0
 11
18.99096396308172
 21
73.92540826442932
 31
0.0
  0
LINE
  5
22D9
330
6F
100
AcDbEntity
  8
0
 62
     0
100
AcDbLine
 10
18.99096396308172
 20
73.92540826442932
 30
0.0
 11
18.99096396308172
 21
87.92540826442934
 31
0.0
  0
LINE
  5
22DA
330
6F
100
AcDbEntity
  8
0
 62
     0
100
AcDbLine
 10
-0.059036036918279
 20
87.92540826442934
 30
0.0
 11
13.94026396308171
 21
87.92540826442934
 31
0.0
  0
LINE
  5
22DB
330
6F
100
AcDbEntity
  8
0
 62
     0
100
AcDbLine
 10
13.94026396308171
 20
87.92540826442934
 30
0.0
 11
13.94026396308171
 21
73.92540826442932
 31
0.0
  0
LINE
  5
22DC
330
6F
100
AcDbEntity
  8
0
 62
     0
100
AcDbLine
 10
13.94026396308171
 20
73.92540826442932
 30
0.0
 11
-0.059036036918279
 21
73.92540826442932
 31
0.0
  0
LINE
  5
22DD
330
6F
100
AcDbEntity
  8
0
 62
     0
100
AcDbLine
 10
-0.059036036918279
 20
73.92540826442932
 30
0.0
 11
-0.059036036918279
 21
87.92540826442934
 31
0.0
  0
LINE
  5
22DE
330
6F
100
AcDbEntity
  8
0
 62
     0
100
AcDbLine
 10
-19.10903603691828
 20
87.92540826442934
 30
0.0
 11
-5.109736036918285
 21
87.92540826442934
 31
0.0
  0
LINE
  5
22DF
330
6F
100
AcDbEntity
  8
0
 62
     0
100
AcDbLine
 10
-5.109736036918285
 20
87.92540826442934
 30
0.0
 11
-5.109736036918285
 21
73.92540826442932
 31
0.0
  0
LINE
  5
22E0
330
6F
100
AcDbEntity
  8
0
 62
     0
100
AcDbLine
 10
-5.109736036918285
 20
73.92540826442932
 30
0.0
 11
-19.10903603691828
 21
73.92540826442932
 31
0.0
  0
LINE
  5
22E1
330
6F
100
AcDbEntity
  8
0
 62
     0
100
AcDbLine
 10
-19.10903603691828
 20
73.92540826442932
 30
0.0
 11
-19.10903603691828
 21
87.92540826442934
 31
0.0
  0
LINE
  5
22E2
330
6F
100
AcDbEntity
  8
0
 62
     0
100
AcDbLine
 10
-38.15903603691829
 20
87.92540826442934
 30
0.0
 11
-24.15973603691828
 21
87.92540826442934
 31
0.0
  0
LINE
  5
22E3
330
6F
100
AcDbEntity
  8
0
 62
     0
100
AcDbLine
 10
-24.15973603691828
 20
87.92540826442934
 30
0.0
 11
-24.15973603691828
 21
73.92540826442932
 31
0.0
  0
LINE
  5
22E4
330
6F
100
AcDbEntity
  8
0
 62
     0
100
AcDbLine
 10
-24.15973603691828
 20
73.92540826442932
 30
0.0
 11
-38.15903603691829
 21
73.92540826442932
 31
0.0
  0
LINE
  5
22E5
330
6F
100
AcDbEntity
  8
0
 62
     0
100
AcDbLine
 10
-38.15903603691829
 20
73.92540826442932
 30
0.0
 11
-38.15903603691829
 21
87.92540826442934
 31
0.0
  0
LINE
  5
22E6
330
6F
100
AcDbEntity
  8
0
 62
     0
100
AcDbLine
 10
-61.97173603691828
 20
87.92540826442934
 30
0.0
 11
-47.97223603691828
 21
87.92540826442934
 31
0.0
  0
LINE
  5
22E7
330
6F
100
AcDbEntity
  8
0
 62
     0
100
AcDbLine
 10
-47.97223603691828
 20
87.92540826442934
 30
0.0
 11
-47.97223603691828
 21
73.92540826442932
 31
0.0
  0
LINE
  5
22E8
330
6F
100
AcDbEntity
  8
0
 62
     0
100
AcDbLine
 10
-47.97223603691828
 20
73.92540826442932
 30
0.0
 11
-61.97173603691828
 21
73.92540826442932
 31
0.0
  0
LINE
  5
22E9
330
6F
100
AcDbEntity
  8
0
 62
     0
100
AcDbLine
 10
-61.97173603691828
 20
73.92540826442932
 30
0.0
 11
-61.97173603691828
 21
87.92540826442934
 31
0.0
  0
LINE
  5
22F0
330
6F
100
AcDbEntity
  8
0
  6
Continuous
100
AcDbLine
 10
-57.20973603691828
 20
-12.08729173557069
 30
0.0
 11
-57.20863603691828
 21
-26.08679173557068
 31
0.0
  0
LINE
  5
22F3
330
6F
100
AcDbEntity
  8
0
  6
Continuous
100
AcDbLine
 10
-51.59093603691829
 20
-7.786391735570675
 30
0.0
 11
-51.59093603691829
 21
6.412908264429318
 31
0.0
  0
LINE
  5
22F4
330
6F
100
AcDbEntity
  8
0
  6
Continuous
100
AcDbLine
 10
-51.59093603691829
 20
6.412908264429318
 30
0.0
 11
-59.16603603691829
 21
6.41290826442932
 31
0.0
  0
LINE
  5
22F5
330
6F
100
AcDbEntity
  8
0
  6
Continuous
100
AcDbLine
 10
-59.16603603691829
 20
6.41290826442932
 30
0.0
 11
-59.16603603691829
 21
-7.786391735570675
 31
0.0
  0
LINE
  5
22F6
330
6F
100
AcDbEntity
  8
0
  6
Continuous
100
AcDbLine
 10
-59.16603603691829
 20
-7.786391735570675
 30
0.0
 11
-51.59093603691829
 21
-7.786391735570675
 31
0.0
  0
LINE
  5
22F7
330
6F
100
AcDbEntity
  8
0
  6
Continuous
100
AcDbLine
 10
-50.06543603691828
 20
6.96290826442933
 30
0.0
 11
-50.06543603691828
 21
-7.037091735570669
 31
0.0
  0
LWPOLYLINE
  5
2300
330
6F
100
AcDbEntity
  8
0
  6
Continuous
100
AcDbPolyline
 90
        4
 70
     1
 43
0.0
 10
-34.54063603691829
 20
6.412908264429318
 10
-26.96543603691828
 20
6.412908264429317
 10
-26.96543603691828
 20
-7.786391735570672
 10
-34.54063603691829
 20
-7.786391735570671
  0
LWPOLYLINE
  5
2318
330
6F
100
AcDbEntity
  8
0
  6
Continuous
100
AcDbPolyline
 90
        4
 70
     1
 43
0.0
 10
113.1024639630817
 20
-12.63699173557069
 10
120.6776639630817
 20
-12.63699173557069
 10
120.6776639630817
 20
-26.83629173557068
 10
113.1024639630817
 20
-26.83629173557068
  0
LINE
  5
2329
330
6F
100
AcDbEntity
  8
0
 62
     0
100
AcDbLine
 10
275.8780639630817
 20
-26.08659173557069
 30
0.0
 11
275.8780639630817
 21
-12.08699173557068
 31
0.0
  0
LINE
  5
232A
330
6F
100
AcDbEntity
  8
0
 62
     0
100
AcDbLine
 10
275.8780639630817
 20
-12.08699173557068
 30
0.0
 11
261.8786639630817
 21
-12.08699173557068
 31
0.0
  0
LINE
  5
232B
330
6F
100
AcDbEntity
  8
0
  6
Continuous
100
AcDbLine
 10
260.3531639630817
 20
-26.83629173557068
 30
0.0
 11
260.3531639630817
 21
-12.63699173557069
 31
0.0
  0
LINE
  5
232C
330
6F
100
AcDbEntity
  8
0
  6
Continuous
100
AcDbLine
 10
260.3531639630817
 20
-12.63699173557069
 30
0.0
 11
252.7780639630817
 21
-12.63699173557069
 31
0.0
  0
LINE
  5
232D
330
6F
100
AcDbEntity
  8
0
  6
Continuous
100
AcDbLine
 10
252.7780639630817
 20
-12.63699173557069
 30
0.0
 11
252.7780639630817
 21
-26.83629173557068
 31
0.0
  0
LINE
  5
232E
330
6F
100
AcDbEntity
  8
0
  6
Continuous
100
AcDbLine
 10
252.7780639630817
 20
-26.83629173557068
 30
0.0
 11
260.3531639630817
 21
-26.83629173557068
 31
0.0
  0
LINE
  5
232F
330
6F
100
AcDbEntity
  8
0
  6
Continuous
100
AcDbLine
 10
261.8786639630817
 20
-12.08699173557068
 30
0.0
 11
261.8786639630817
 21
-26.08699173557068
 31
0.0
  0
LWPOLYLINE
  5
2330
330
6F
100
AcDbEntity
  8
0
  6
Continuous
100
AcDbPolyline
 90
        4
 70
     1
 43
0.0
 10
277.4034639630817
 20
-12.63699173557069
 10
284.9786639630817
 20
-12.63699173557069
 10
284.9786639630817
 20
-26.83629173557068
 10
277.4034639630817
 20
-26.83629173557068
  0
LINE
  5
233F
330
6F
100
AcDbEntity
  8
0
 62
     0
100
AcDbLine
 10
192.8206639630817
 20
12.0134082644293
 30
0.0
 11
206.8200639630817
 21
12.0134082644293
 31
0.0
  0
LINE
  5
2341
330
6F
100
AcDbEntity
  8
0
 62
     0
100
AcDbLine
 10
206.8200639630817
 20
12.0134082644293
 30
0.0
 11
206.8200639630817
 21
26.01300826442932
 31
0.0
  0
LINE
  5
2342
330
6F
100
AcDbEntity
  8
0
 62
     0
100
AcDbLine
 10
206.8200639630817
 20
26.01300826442932
 30
0.0
 11
192.8206639630817
 21
26.01300826442932
 31
0.0
  0
LINE
  5
2343
330
6F
100
AcDbEntity
  8
0
  6
Continuous
100
AcDbLine
 10
191.2951639630817
 20
11.26370826442931
 30
0.0
 11
191.2951639630817
 21
25.4630082644293
 31
0.0
  0
LINE
  5
2344
330
6F
100
AcDbEntity
  8
0
  6
Continuous
100
AcDbLine
 10
191.2951639630817
 20
25.4630082644293
 30
0.0
 11
183.7200639630817
 21
25.4630082644293
 31
0.0
  0
LINE
  5
2345
330
6F
100
AcDbEntity
  8
0
  6
Continuous
100
AcDbLine
 10
183.7200639630817
 20
25.4630082644293
 30
0.0
 11
183.7200639630817
 21
11.26370826442931
 31
0.0
  0
LINE
  5
2346
330
6F
100
AcDbEntity
  8
0
  6
Continuous
100
AcDbLine
 10
183.7200639630817
 20
11.26370826442931
 30
0.0
 11
191.2951639630817
 21
11.26370826442931
 31
0.0
  0
LINE
  5
2347
330
6F
100
AcDbEntity
  8
0
  6
Continuous
100
AcDbLine
 10
192.8206639630817
 20
26.01300826442932
 30
0.0
 11
192.8206639630817
 21
12.01300826442931
 31
0.0
  0
LWPOLYLINE
  5
2348
330
6F
100
AcDbEntity
  8
0
  6
Continuous
100
AcDbPolyline
 90
        4
 70
     1
 43
0.0
 10
208.3454639630817
 20
25.4630082644293
 10
215.9206639630817
 20
25.4630082644293
 10
215.9206639630817
 20
11.26370826442931
 10
208.3454639630817
 20
11.26370826442931
  0
LINE
  5
2357
330
6F
100
AcDbEntity
  8
0
 62
     0
100
AcDbLine
 10
309.5034639630817
 20
-2.562291735570653
 30
0.0
 11
309.5034639630817
 21
-16.56169173557069
 31
0.0
  0
LINE
  5
2359
330
6F
100
AcDbEntity
  8
0
 62
     0
100
AcDbLine
 10
309.5034639630817
 20
-16.56169173557069
 30
0.0
 11
323.5030639630817
 21
-16.56169173557069
 31
0.0
  0
LINE
  5
235A
330
6F
100
AcDbEntity
  8
0
 62
     0
100
AcDbLine
 10
323.5030639630817
 20
-16.56169173557069
 30
0.0
 11
323.5030639630817
 21
-2.562291735570653
 31
0.0
  0
LINE
  5
235B
330
6F
100
AcDbEntity
  8
0
  6
Continuous
100
AcDbLine
 10
308.7537639630817
 20
-1.036791735570687
 30
0.0
 11
322.9530639630817
 21
-1.036791735570687
 31
0.0
  0
LINE
  5
235C
330
6F
100
AcDbEntity
  8
0
  6
Continuous
100
AcDbLine
 10
322.9530639630817
 20
-1.036791735570687
 30
0.0
 11
322.9530639630817
 21
6.538308264429332
 31
0.0
  0
LINE
  5
235D
330
6F
100
AcDbEntity
  8
0
  6
Continuous
100
AcDbLine
 10
322.9530639630817
 20
6.538308264429332
 30
0.0
 11
308.7537639630817
 21
6.538308264429332
 31
0.0
  0
LINE
  5
235E
330
6F
100
AcDbEntity
  8
0
  6
Continuous
100
AcDbLine
 10
308.7537639630817
 20
6.538308264429332
 30
0.0
 11
308.7537639630817
 21
-1.036791735570687
 31
0.0
  0
LINE
  5
235F
330
6F
100
AcDbEntity
  8
0
  6
Continuous
100
AcDbLine
 10
323.5030639630817
 20
-2.562291735570653
 30
0.0
 11
309.5030639630817
 21
-2.562291735570653
 31
0.0
  0
LWPOLYLINE
  5
2360
330
6F
100
AcDbEntity
  8
0
  6
Continuous
100
AcDbPolyline
 90
        4
 70
     1
 43
0.0
 10
322.9530639630817
 20
-18.08709173557068
 10
322.9530639630817
 20
-25.66229173557068
 10
308.7537639630817
 20
-25.66229173557068
 10
308.7537639630817
 20
-18.08709173557068
  0
LINE
  5
236F
330
6F
100
AcDbEntity
  8
0
 62
     0
100
AcDbLine
 10
309.5034639630817
 20
35.53770826442934
 30
0.0
 11
309.5034639630817
 21
21.53830826442931
 31
0.0
  0
LINE
  5
2371
330
6F
100
AcDbEntity
  8
0
 62
     0
100
AcDbLine
 10
309.5034639630817
 20
21.53830826442931
 30
0.0
 11
323.5030639630817
 21
21.53830826442931
 31
0.0
  0
LINE
  5
2372
330
6F
100
AcDbEntity
  8
0
 62
     0
100
AcDbLine
 10
323.5030639630817
 20
21.53830826442931
 30
0.0
 11
323.5030639630817
 21
35.53770826442934
 31
0.0
  0
LINE
  5
2373
330
6F
100
AcDbEntity
  8
0
  6
Continuous
100
AcDbLine
 10
308.7537639630817
 20
37.06320826442931
 30
0.0
 11
322.9530639630817
 21
37.06320826442931
 31
0.0
  0
LINE
  5
2374
330
6F
100
AcDbEntity
  8
0
  6
Continuous
100
AcDbLine
 10
322.9530639630817
 20
37.06320826442931
 30
0.0
 11
322.9530639630817
 21
44.63830826442932
 31
0.0
  0
LINE
  5
2375
330
6F
100
AcDbEntity
  8
0
  6
Continuous
100
AcDbLine
 10
322.9530639630817
 20
44.63830826442932
 30
0.0
 11
308.7537639630817
 21
44.63830826442932
 31
0.0
  0
LINE
  5
2376
330
6F
100
AcDbEntity
  8
0
  6
Continuous
100
AcDbLine
 10
308.7537639630817
 20
44.63830826442932
 30
0.0
 11
308.7537639630817
 21
37.06320826442931
 31
0.0
  0
LINE
  5
2377
330
6F
100
AcDbEntity
  8
0
  6
Continuous
100
AcDbLine
 10
323.5030639630817
 20
35.53770826442934
 30
0.0
 11
309.5030639630817
 21
35.53770826442934
 31
0.0
  0
LWPOLYLINE
  5
2378
330
6F
100
AcDbEntity
  8
0
  6
Continuous
100
AcDbPolyline
 90
        4
 70
     1
 43
0.0
 10
322.9530639630817
 20
20.01290826442931
 10
322.9530639630817
 20
12.43770826442932
 10
308.7537639630817
 20
12.43770826442932
 10
308.7537639630817
 20
20.01290826442931
  0
LWPOLYLINE
  5
2381
330
6F
100
AcDbEntity
  8
0
  6
Continuous
100
AcDbPolyline
 90
        4
 70
     1
 43
0.0
 10
5.553663963081711
 20
-12.63709173557066
 10
-2.021536036918286
 20
-12.63709173557066
 10
-2.021536036918286
 20
-26.83639173557069
 10
5.553663963081711
 20
-26.83639173557069
  0
ENDSEC
  0
SECTION
  2
OBJECTS
  0
DICTIONARY
  5
C
330
0
100
AcDbDictionary
281
     1
  3
ACAD_CIP_PREVIOUS_PRODUCT_INFO
350
A16
  3
ACAD_COLOR
350
62
  3
ACAD_DETAILVIEWSTYLE
350
69
  3
ACAD_GROUP
350
D
  3
ACAD_LAYOUT
350
61
  3
ACAD_MATERIAL
350
10
  3
ACAD_MLEADERSTYLE
350
65
  3
ACAD_MLINESTYLE
350
5E
  3
ACAD_PLOTSETTINGS
350
60
  3
ACAD_PLOTSTYLENAME
350
E
  3
ACAD_SCALELIST
350
42
  3
ACAD_SECTIONVIEWSTYLE
350
67
  3
ACAD_TABLESTYLE
350
63
  3
ACAD_VISUALSTYLE
350
29
  3
ACDB_RECOMPOSE_DATA
350
2388
  3
AcDbVariableDictionary
350
C23
  0
DICTIONARY
  5
C40
330
2
100
AcDbDictionary
280
     1
281
     1
  3
ACAD_LAYERSTATES
360
C41
  0
DICTIONARY
  5
C37
330
54
100
AcDbDictionary
280
     1
281
     1
  3
ADSK_XREC_LAYER_RECONCILED
360
C38
  0
XRECORD
  5
A16
102
{ACAD_REACTORS
330
C
102
}
330
C
100
AcDbXrecord
280
     1
300
ACD
300
2020
300

  0
DICTIONARY
  5
62
102
{ACAD_REACTORS
330
C
102
}
330
C
100
AcDbDictionary
281
     1
  0
DICTIONARY
  5
69
102
{ACAD_REACTORS
330
C
102
}
330
C
100
AcDbDictionary
281
     1
  3
Imperial24
350
6A
  0
DICTIONARY
  5
D
102
{ACAD_REACTORS
330
C
102
}
330
C
100
AcDbDictionary
281
     1
  0
DICTIONARY
  5
61
102
{ACAD_REACTORS
330
C
102
}
330
C
100
AcDbDictionary
281
     1
  3
Model
350
72
  3
Presentacin1
350
6E
  0
DICTIONARY
  5
10
102
{ACAD_REACTORS
330
C
102
}
330
C
100
AcDbDictionary
281
     1
  3
ByBlock
350
19
  3
ByLayer
350
11
  3
Global
350
21
  0
DICTIONARY
  5
65
102
{ACAD_REACTORS
330
C
102
}
330
C
100
AcDbDictionary
281
     1
  3
Standard
350
66
  0
DICTIONARY
  5
5E
102
{ACAD_REACTORS
330
C
102
}
330
C
100
AcDbDictionary
281
     1
  3
Standard
350
5F
  0
DICTIONARY
  5
60
102
{ACAD_REACTORS
330
C
102
}
330
C
100
AcDbDictionary
281
     1
  0
ACDBDICTIONARYWDFLT
  5
E
102
{ACAD_REACTORS
330
C
102
}
330
C
100
AcDbDictionary
281
     1
  3
Normal
350
F
100
AcDbDictionaryWithDefault
340
F
  0
DICTIONARY
  5
42
102
{ACAD_REACTORS
330
C
102
}
330
C
100
AcDbDictionary
281
     1
  3
A0
350
43
  3
A1
350
44
  3
A2
350
45
  3
A3
350
46
  3
A4
350
47
  3
A5
350
48
  3
A6
350
49
  3
A7
350
4A
  3
A8
350
4B
  3
A9
350
4C
  3
B0
350
4D
  3
B1
350
4E
  3
B2
350
4F
  3
B3
350
50
  3
B4
350
51
  3
B5
350
52
  3
B6
350
53
  0
DICTIONARY
  5
67
102
{ACAD_REACTORS
330
C
102
}
330
C
100
AcDbDictionary
281
     1
  3
Imperial24
350
68
  0
DICTIONARY
  5
63
102
{ACAD_REACTORS
330
C
102
}
330
C
100
AcDbDictionary
281
     1
  3
Standard
350
64
  0
DICTIONARY
  5
29
102
{ACAD_REACTORS
330
C
102
}
330
C
100
AcDbDictionary
281
     1
  3
2dWireframe
350
2F
  3
Basic
350
2E
  3
Brighten
350
35
  3
ColorChange
350
39
  3
Conceptual
350
32
  3
Dim
350
34
  3
EdgeColorOff
350
41
  3
Facepattern
350
38
  3
Flat
350
2A
  3
FlatWithEdges
350
2B
  3
Gouraud
350
2C
  3
GouraudWithEdges
350
2D
  3
Hidden
350
31
  3
JitterOff
350
3F
  3
Linepattern
350
37
  3
OverhangOff
350
40
  3
Realistic
350
33
  3
Shaded
350
3E
  3
Shaded with edges
350
3D
  3
Shades of Gray
350
3A
  3
Sketchy
350
3B
  3
Thicken
350
36
  3
Wireframe
350
30
  3
X-Ray
350
3C
  0
XRECORD
  5
2388
102
{ACAD_REACTORS
330
C
102
}
330
C
100
AcDbXrecord
280
     1
 90
        1
330
64
  0
DICTIONARY
  5
C23
102
{ACAD_REACTORS
330
C
102
}
330
C
100
AcDbDictionary
281
     1
  3
CANNOSCALE
350
C29
  3
CMLEADERSTYLE
350
C25
  3
CTABLESTYLE
350
C24
  3
CVIEWDETAILSTYLE
350
C26
  3
CVIEWSECTIONSTYLE
350
C27
  3
LAYEREVAL
350
C2B
  3
LAYERNOTIFY
350
C2C
  3
LIGHTINGUNITS
350
C2A
  3
MSLTSCALE
350
C28
  0
DICTIONARY
  5
C41
102
{ACAD_REACTORS
330
C40
102
}
330
C40
100
AcDbDictionary
281
     1
  0
XRECORD
  5
C38
102
{ACAD_REACTORS
330
C37
102
}
330
C37
100
AcDbXrecord
280
     1
290
     1
  0
ACDBDETAILVIEWSTYLE
  5
6A
102
{ACAD_REACTORS
330
69
102
}
330
69
100
AcDbModelDocViewStyle
 70
     0
  3
Imperial24
290
     0
300
Imperial24
 90
        0
100
AcDbDetailViewStyle
 70
     0
 71
     0
 90
        3
 71
     1
340
55
 62
   256
 40
0.24
340
0
 62
   256
 40
0.24
300

 40
0.36
280
     3
 71
     2
340
5C
 90
       25
 62
   256
 71
     3
340
55
 62
   256
 40
0.24
 90
        1
 40
0.75
 90
        1
300
%<\AcVar ViewType \f "%tc1">% %<\AcVar ViewDetailId>%\PESCALA %<\AcVar ViewScale \f "%sn">%
 71
     4
340
5C
 90
       25
 62
   256
340
5C
 90
       25
 62
   256
280
     0
  0
LAYOUT
  5
72
102
{ACAD_REACTORS
330
61
102
}
330
61
100
AcDbPlotSettings
  1

  2
HP Photosmart 5520 series (Red)
  4

  6

 40
0.0
 41
0.0
 42
0.0
 43
0.0
 44
0.0
 45
0.0
 46
0.0
 47
0.0
 48
0.0
 49
0.0
140
0.0
141
0.0
142
1.0
143
1.0
 70
  1712
 72
     0
 73
     0
 74
     0
  7

 75
     0
147
1.0
 76
     0
 77
     2
 78
   300
148
0.0
149
0.0
100
AcDbLayout
  1
Model
 70
     1
 71
     0
 10
0.0
 20
0.0
 11
12.0
 21
9.0
 12
0.0
 22
0.0
 32
0.0
 14
0.0
 24
0.0
 34
0.0
 15
0.0
 25
0.0
 35
0.0
146
0.0
 13
0.0
 23
0.0
 33
0.0
 16
1.0
 26
0.0
 36
0.0
 17
0.0
 27
1.0
 37
0.0
 76
     0
330
6F
331
74
  0
LAYOUT
  5
6E
102
{ACAD_REACTORS
330
61
102
}
330
61
100
AcDbPlotSettings
  1

  2
HP Photosmart 5520 series (Red)
  4

  6

 40
0.0
 41
0.0
 42
0.0
 43
0.0
 44
0.0
 45
0.0
 46
0.0
 47
0.0
 48
0.0
 49
0.0
140
0.0
141
0.0
142
1.0
143
1.0
 70
   688
 72
     0
 73
     0
 74
     5
  7

 75
    16
147
1.0
 76
     0
 77
     2
 78
   300
148
0.0
149
0.0
100
AcDbLayout
  1
Presentacin1
 70
     1
 71
     1
 10
0.0
 20
0.0
 11
12.0
 21
9.0
 12
0.0
 22
0.0
 32
0.0
 14
1.000000000000000E+20
 24
1.000000000000000E+20
 34
1.000000000000000E+20
 15
-1.000000000000000E+20
 25
-1.000000000000000E+20
 35
-1.000000000000000E+20
146
0.0
 13
0.0
 23
0.0
 33
0.0
 16
1.0
 26
0.0
 36
0.0
 17
0.0
 27
1.0
 37
0.0
 76
     0
330
6B
  0
MATERIAL
  5
19
102
{ACAD_XDICTIONARY
360
1A
102
}
102
{ACAD_REACTORS
330
10
102
}
330
10
100
AcDbMaterial
  1
ByBlock
 72
     0
 43
0.0208333333333333
 43
0.0
 43
0.0
 43
0.0
 43
0.0
 43
0.0208333333333333
 43
0.0
 43
0.0
 43
0.0
 43
0.0
 43
1.0
 43
0.0
 43
0.0
 43
0.0
 43
0.0
 43
1.0
 77
     0
 47
0.0208333333333333
 47
0.0
 47
0.0
 47
0.0
 47
0.0
 47
0.0208333333333333
 47
0.0
 47
0.0
 47
0.0
 47
0.0
 47
1.0
 47
0.0
 47
0.0
 47
0.0
 47
0.0
 47
1.0
171
     0
 49
0.0208333333333333
 49
0.0
 49
0.0
 49
0.0
 49
0.0
 49
0.0208333333333333
 49
0.0
 49
0.0
 49
0.0
 49
0.0
 49
1.0
 49
0.0
 49
0.0
 49
0.0
 49
0.0
 49
1.0
175
     0
142
0.0208333333333333
142
0.0
142
0.0
142
0.0
142
0.0
142
0.0208333333333333
142
0.0
142
0.0
142
0.0
142
0.0
142
1.0
142
0.0
142
0.0
142
0.0
142
0.0
142
1.0
179
     0
144
0.0208333333333333
144
0.0
144
0.0
144
0.0
144
0.0
144
0.0208333333333333
144
0.0
144
0.0
144
0.0
144
0.0
144
1.0
144
0.0
144
0.0
144
0.0
144
0.0
144
1.0
147
0.0208333333333333
147
0.0
147
0.0
147
0.0
147
0.0
147
0.0208333333333333
147
0.0
147
0.0
147
0.0
147
0.0
147
1.0
147
0.0
147
0.0
147
0.0
147
0.0
147
1.0
  0
MATERIAL
  5
11
102
{ACAD_XDICTIONARY
360
12
102
}
102
{ACAD_REACTORS
330
10
102
}
330
10
100
AcDbMaterial
  1
ByLayer
 72
     0
 43
0.0208333333333333
 43
0.0
 43
0.0
 43
0.0
 43
0.0
 43
0.0208333333333333
 43
0.0
 43
0.0
 43
0.0
 43
0.0
 43
1.0
 43
0.0
 43
0.0
 43
0.0
 43
0.0
 43
1.0
 77
     0
 47
0.0208333333333333
 47
0.0
 47
0.0
 47
0.0
 47
0.0
 47
0.0208333333333333
 47
0.0
 47
0.0
 47
0.0
 47
0.0
 47
1.0
 47
0.0
 47
0.0
 47
0.0
 47
0.0
 47
1.0
171
     0
 49
0.0208333333333333
 49
0.0
 49
0.0
 49
0.0
 49
0.0
 49
0.0208333333333333
 49
0.0
 49
0.0
 49
0.0
 49
0.0
 49
1.0
 49
0.0
 49
0.0
 49
0.0
 49
0.0
 49
1.0
175
     0
142
0.0208333333333333
142
0.0
142
0.0
142
0.0
142
0.0
142
0.0208333333333333
142
0.0
142
0.0
142
0.0
142
0.0
142
1.0
142
0.0
142
0.0
142
0.0
142
0.0
142
1.0
179
     0
144
0.0208333333333333
144
0.0
144
0.0
144
0.0
144
0.0
144
0.0208333333333333
144
0.0
144
0.0
144
0.0
144
0.0
144
1.0
144
0.0
144
0.0
144
0.0
144
0.0
144
1.0
147
0.0208333333333333
147
0.0
147
0.0
147
0.0
147
0.0
147
0.0208333333333333
147
0.0
147
0.0
147
0.0
147
0.0
147
1.0
147
0.0
147
0.0
147
0.0
147
0.0
147
1.0
  0
MATERIAL
  5
21
102
{ACAD_XDICTIONARY
360
22
102
}
102
{ACAD_REACTORS
330
10
102
}
330
10
100
AcDbMaterial
  1
Global
 72
     0
 43
0.0208333333333333
 43
0.0
 43
0.0
 43
0.0
 43
0.0
 43
0.0208333333333333
 43
0.0
 43
0.0
 43
0.0
 43
0.0
 43
1.0
 43
0.0
 43
0.0
 43
0.0
 43
0.0
 43
1.0
 77
     0
 47
0.0208333333333333
 47
0.0
 47
0.0
 47
0.0
 47
0.0
 47
0.0208333333333333
 47
0.0
 47
0.0
 47
0.0
 47
0.0
 47
1.0
 47
0.0
 47
0.0
 47
0.0
 47
0.0
 47
1.0
171
     0
 49
0.0208333333333333
 49
0.0
 49
0.0
 49
0.0
 49
0.0
 49
0.0208333333333333
 49
0.0
 49
0.0
 49
0.0
 49
0.0
 49
1.0
 49
0.0
 49
0.0
 49
0.0
 49
0.0
 49
1.0
175
     0
142
0.0208333333333333
142
0.0
142
0.0
142
0.0
142
0.0
142
0.0208333333333333
142
0.0
142
0.0
142
0.0
142
0.0
142
1.0
142
0.0
142
0.0
142
0.0
142
0.0
142
1.0
179
     0
144
0.0208333333333333
144
0.0
144
0.0
144
0.0
144
0.0
144
0.0208333333333333
144
0.0
144
0.0
144
0.0
144
0.0
144
1.0
144
0.0
144
0.0
144
0.0
144
0.0
144
1.0
147
0.0208333333333333
147
0.0
147
0.0
147
0.0
147
0.0
147
0.0208333333333333
147
0.0
147
0.0
147
0.0
147
0.0
147
1.0
147
0.0
147
0.0
147
0.0
147
0.0
147
1.0
  0
MLEADERSTYLE
  5
66
102
{ACAD_REACTORS
330
65
102
}
330
65
100
AcDbMLeaderStyle
179
     2
170
     2
171
     1
172
     0
 90
        2
 40
0.0
 41
0.0
173
     1
 91
-1056964608
340
5A
 92
       -2
290
     1
 42
0.09
291
     1
 43
0.36
  3
Standard
 44
0.18
300

342
55
174
     1
178
     6
175
     1
176
     0
 93
-1056964608
 45
0.18
292
     0
297
     0
 46
0.18
 94
-1056964608
 47
1.0
 49
1.0
140
1.0
293
     1
141
0.0
294
     1
177
     0
142
1.0
295
     0
296
     0
143
0.125
271
     0
272
     9
273
     9
298
     0
  0
MLINESTYLE
  5
5F
102
{ACAD_REACTORS
330
5E
102
}
330
5E
100
AcDbMlineStyle
  2
STANDARD
 70
     0
  3

 62
   256
 51
90.0
 52
90.0
 71
     2
 49
0.5
 62
   256
  6
BYLAYER
 49
-0.5
 62
   256
  6
BYLAYER
  0
ACDBPLACEHOLDER
  5
F
102
{ACAD_REACTORS
330
E
102
}
330
E
  0
SCALE
  5
43
102
{ACAD_REACTORS
330
42
102
}
330
42
100
AcDbScale
 70
     0
300
1:1
140
1.0
141
1.0
290
     1
  0
SCALE
  5
44
102
{ACAD_REACTORS
330
42
102
}
330
42
100
AcDbScale
 70
     0
300
1/128" = 1'-0"
140
0.0078125
141
12.0
290
     0
  0
SCALE
  5
45
102
{ACAD_REACTORS
330
42
102
}
330
42
100
AcDbScale
 70
     0
300
1/64" = 1'-0"
140
0.015625
141
12.0
290
     0
  0
SCALE
  5
46
102
{ACAD_REACTORS
330
42
102
}
330
42
100
AcDbScale
 70
     0
300
1/32" = 1'-0"
140
0.03125
141
12.0
290
     0
  0
SCALE
  5
47
102
{ACAD_REACTORS
330
42
102
}
330
42
100
AcDbScale
 70
     0
300
1/16" = 1'-0"
140
0.0625
141
12.0
290
     0
  0
SCALE
  5
48
102
{ACAD_REACTORS
330
42
102
}
330
42
100
AcDbScale
 70
     0
300
3/32" = 1'-0"
140
0.09375
141
12.0
290
     0
  0
SCALE
  5
49
102
{ACAD_REACTORS
330
42
102
}
330
42
100
AcDbScale
 70
     0
300
1/8" = 1'-0"
140
0.125
141
12.0
290
     0
  0
SCALE
  5
4A
102
{ACAD_REACTORS
330
42
102
}
330
42
100
AcDbScale
 70
     0
300
3/16" = 1'-0"
140
0.1875
141
12.0
290
     0
  0
SCALE
  5
4B
102
{ACAD_REACTORS
330
42
102
}
330
42
100
AcDbScale
 70
     0
300
1/4" = 1'-0"
140
0.25
141
12.0
290
     0
  0
SCALE
  5
4C
102
{ACAD_REACTORS
330
42
102
}
330
42
100
AcDbScale
 70
     0
300
3/8" = 1'-0"
140
0.375
141
12.0
290
     0
  0
SCALE
  5
4D
102
{ACAD_REACTORS
330
42
102
}
330
42
100
AcDbScale
 70
     0
300
1/2" = 1'-0"
140
0.5
141
12.0
290
     0
  0
SCALE
  5
4E
102
{ACAD_REACTORS
330
42
102
}
330
42
100
AcDbScale
 70
     0
300
3/4" = 1'-0"
140
0.75
141
12.0
290
     0
  0
SCALE
  5
4F
102
{ACAD_REACTORS
330
42
102
}
330
42
100
AcDbScale
 70
     0
300
1" = 1'-0"
140
1.0
141
12.0
290
     0
  0
SCALE
  5
50
102
{ACAD_REACTORS
330
42
102
}
330
42
100
AcDbScale
 70
     0
300
1-1/2" = 1'-0"
140
1.5
141
12.0
290
     0
  0
SCALE
  5
51
102
{ACAD_REACTORS
330
42
102
}
330
42
100
AcDbScale
 70
     0
300
3" = 1'-0"
140
3.0
141
12.0
290
     0
  0
SCALE
  5
52
102
{ACAD_REACTORS
330
42
102
}
330
42
100
AcDbScale
 70
     0
300
6" = 1'-0"
140
6.0
141
12.0
290
     0
  0
SCALE
  5
53
102
{ACAD_REACTORS
330
42
102
}
330
42
100
AcDbScale
 70
     0
300
1'-0" = 1'-0"
140
12.0
141
12.0
290
     0
  0
ACDBSECTIONVIEWSTYLE
  5
68
102
{ACAD_REACTORS
330
67
102
}
330
67
100
AcDbModelDocViewStyle
 70
     0
  3
Imperial24
290
     0
300
Imperial24
 90
        0
100
AcDbSectionViewStyle
 70
     0
 71
     0
 90
       78
 71
     1
340
55
 62
   256
 40
0.24
340
0
340
0
 62
   256
 40
0.24
300
I, O, Q, S, X, Z
 40
0.48
 90
        3
 40
0.18
 90
        1
 71
     2
340
5C
 90
       25
 62
   256
340
5C
 90
       50
 62
   256
 40
0.24
 40
0.0
 40
0.24
 71
     3
340
55
 62
   256
 40
0.24
 90
        1
 40
0.75
 90
        1
300
%<\AcVar ViewType \f "%tc1">% %<\AcVar ViewSectionStartId>%-%<\AcVar ViewSectionEndId>%\PESCALA %<\AcVar ViewScale \f "%sn">%
 71
     4
 62
   256
 62
   257
300
ANSI31
 40
1.0
 90
        0
290
     0
290
     0
 90
        6
 40
0.0
 40
1.570796326794896
 40
0.2617993877991494
 40
1.308996938995747
 40
-0.2617993877991494
 40
1.832595714594044
  0
TABLESTYLE
  5
64
102
{ACAD_XDICTIONARY
360
C39
102
}
102
{ACAD_REACTORS
330
63
102
}
330
63
100
AcDbTableStyle
280
     0
  3
Standard
 70
     0
 71
     0
 40
0.06
 41
0.06
280
     0
281
     0
  7
Standard
140
0.18
170
     2
 62
     0
 63
     7
283
     0
 90
      512
 91
        0
  1

274
    -2
284
     1
 64
     0
275
    -2
285
     1
 65
     0
276
    -2
286
     1
 66
     0
277
    -2
287
     1
 67
     0
278
    -2
288
     1
 68
     0
279
    -2
289
     1
 69
     0
  7
Standard
140
0.25
170
     5
 62
     0
 63
     7
283
     0
 90
      512
 91
        0
  1

274
    -2
284
     1
 64
     0
275
    -2
285
     1
 65
     0
276
    -2
286
     1
 66
     0
277
    -2
287
     1
 67
     0
278
    -2
288
     1
 68
     0
279
    -2
289
     1
 69
     0
  7
Standard
140
0.18
170
     5
 62
     0
 63
     7
283
     0
 90
      512
 91
        0
  1

274
    -2
284
     1
 64
     0
275
    -2
285
     1
 65
     0
276
    -2
286
     1
 66
     0
277
    -2
287
     1
 67
     0
278
    -2
288
     1
 68
     0
279
    -2
289
     1
 69
     0
  0
VISUALSTYLE
  5
2F
102
{ACAD_REACTORS
330
29
102
}
330
29
100
AcDbVisualStyle
  2
2dWireframe
 70
     4
177
     3
291
     0
 70
    58
 90
        0
176
     1
 90
        2
176
     1
 90
        0
176
     1
 90
        0
176
     1
 40
0.6
176
     1
 40
30.0
176
     1
 62
     7
420
 16777215
176
     1
 90
        1
176
     1
 90
        4
176
     1
 62
     7
176
     1
 62
   257
176
     1
 90
        1
176
     1
 90
        1
176
     1
 40
1.0
176
     1
 90
        0
176
     1
 62
   257
176
     1
 40
1.0
176
     1
 90
        1
176
     1
 90
        6
176
     1
 90
        2
176
     1
 62
     7
176
     1
 90
        5
176
     1
 90
        0
176
     1
 90
        0
176
     1
290
     0
176
     1
 90
        1
176
     1
 40
0.0
176
     1
 90
        0
176
     1
290
     1
176
     1
290
     1
176
     1
290
     0
176
     1
290
     0
176
     1
290
     0
176
     1
290
     0
176
     1
290
     0
176
     1
290
     0
176
     1
290
     0
176
     1
 90
       50
176
     1
 40
0.0
176
     1
 40
1.0
176
     1
 90
        0
176
     1
 62
    18
176
     1
 90
       50
176
     1
 90
        3
176
     1
 62
     5
420
      255
176
     1
290
     0
176
     1
 90
       50
176
     1
 90
       50
176
     1
 90
       50
176
     1
290
     0
176
     1
 90
       50
176
     1
 62
   256
176
     0
 40
1.0
176
     0
 90
        2
176
     1
  1
strokes_ogs.tif
176
     1
290
     0
176
     1
 40
1.0
176
     1
 40
1.0
176
     1
  0
VISUALSTYLE
  5
2E
102
{ACAD_REACTORS
330
29
102
}
330
29
100
AcDbVisualStyle
  2
Basic
 70
     7
177
     3
291
     1
 70
    58
 90
        1
176
     1
 90
        0
176
     1
 90
        1
176
     1
 90
        0
176
     1
 40
0.6
176
     1
 40
30.0
176
     1
 62
     7
420
 16777215
176
     1
 90
        0
176
     1
 90
        4
176
     1
 62
     7
176
     1
 62
   257
176
     1
 90
        1
176
     1
 90
        1
176
     1
 40
1.0
176
     1
 90
        8
176
     1
 62
     7
176
     1
 40
1.0
176
     1
 90
        1
176
     1
 90
        6
176
     1
 90
        2
176
     1
 62
     7
176
     1
 90
        5
176
     1
 90
        0
176
     1
 90
        0
176
     1
290
     0
176
     1
 90
        1
176
     1
 40
0.0
176
     1
 90
        0
176
     1
290
     0
176
     1
290
     1
176
     1
290
     1
176
     1
290
     0
176
     1
290
     0
176
     1
290
     0
176
     1
290
     0
176
     1
290
     0
176
     1
290
     0
176
     1
 90
       50
176
     1
 40
0.0
176
     1
 40
1.0
176
     1
 90
        0
176
     1
 62
    18
176
     1
 90
       50
176
     1
 90
        3
176
     1
 62
     5
420
      255
176
     1
290
     0
176
     1
 90
       50
176
     1
 90
       50
176
     1
 90
       50
176
     1
290
     0
176
     1
 90
       50
176
     1
 62
   256
176
     0
 40
1.0
176
     0
 90
        2
176
     1
  1
strokes_ogs.tif
176
     1
290
     0
176
     1
 40
1.0
176
     1
 40
1.0
176
     1
  0
VISUALSTYLE
  5
35
102
{ACAD_REACTORS
330
29
102
}
330
29
100
AcDbVisualStyle
  2
Brighten
 70
    12
177
     3
291
     1
 70
    58
 90
        2
176
     1
 90
        2
176
     1
 90
        0
176
     1
 90
        0
176
     1
 40
0.6
176
     1
 40
30.0
176
     1
 62
     7
420
 16777215
176
     1
 90
        1
176
     1
 90
        4
176
     1
 62
     7
176
     1
 62
   257
176
     1
 90
        1
176
     1
 90
        1
176
     1
 40
1.0
176
     1
 90
        8
176
     1
 62
     7
176
     1
 40
1.0
176
     1
 90
        1
176
     1
 90
        6
176
     1
 90
        2
176
     1
 62
     7
176
     1
 90
        5
176
     1
 90
        0
176
     1
 90
        0
176
     1
290
     0
176
     1
 90
        1
176
     1
 40
50.0
176
     1
 90
        0
176
     1
290
     0
176
     1
290
     1
176
     1
290
     1
176
     1
290
     0
176
     1
290
     0
176
     1
290
     0
176
     1
290
     0
176
     1
290
     0
176
     1
290
     0
176
     1
 90
       50
176
     1
 40
0.0
176
     1
 40
1.0
176
     1
 90
        0
176
     1
 62
    18
176
     1
 90
       50
176
     1
 90
        3
176
     1
 62
     5
420
      255
176
     1
290
     0
176
     1
 90
       50
176
     1
 90
       50
176
     1
 90
       50
176
     1
290
     0
176
     1
 90
       50
176
     1
 62
   256
176
     0
 40
1.0
176
     0
 90
        2
176
     1
  1
strokes_ogs.tif
176
     1
290
     0
176
     1
 40
1.0
176
     1
 40
1.0
176
     1
  0
VISUALSTYLE
  5
39
102
{ACAD_REACTORS
330
29
102
}
330
29
100
AcDbVisualStyle
  2
ColorChange
 70
    16
177
     3
291
     1
 70
    58
 90
        2
176
     1
 90
        2
176
     1
 90
        3
176
     1
 90
        0
176
     1
 40
0.6
176
     1
 40
30.0
176
     1
 62
     8
420
  8421504
176
     1
 90
        1
176
     1
 90
        4
176
     1
 62
     7
176
     1
 62
   257
176
     1
 90
        1
176
     1
 90
        1
176
     1
 40
1.0
176
     1
 90
        8
176
     1
 62
     8
420
  8421504
176
     1
 40
1.0
176
     1
 90
        1
176
     1
 90
        6
176
     1
 90
        2
176
     1
 62
     7
176
     1
 90
        5
176
     1
 90
        0
176
     1
 90
        0
176
     1
290
     0
176
     1
 90
        1
176
     1
 40
0.0
176
     1
 90
        0
176
     1
290
     0
176
     1
290
     1
176
     1
290
     1
176
     1
290
     0
176
     1
290
     0
176
     1
290
     0
176
     1
290
     0
176
     1
290
     0
176
     1
290
     0
176
     1
 90
       50
176
     1
 40
0.0
176
     1
 40
1.0
176
     1
 90
        0
176
     1
 62
    18
176
     1
 90
       50
176
     1
 90
        3
176
     1
 62
     5
420
      255
176
     1
290
     0
176
     1
 90
       50
176
     1
 90
       50
176
     1
 90
       50
176
     1
290
     0
176
     1
 90
       50
176
     1
 62
   256
176
     0
 40
1.0
176
     0
 90
        2
176
     1
  1
strokes_ogs.tif
176
     1
290
     0
176
     1
 40
1.0
176
     1
 40
1.0
176
     1
  0
VISUALSTYLE
  5
32
102
{ACAD_REACTORS
330
29
102
}
330
29
100
AcDbVisualStyle
  2
Conceptual
 70
     9
177
     3
291
     0
 70
    58
 90
        3
176
     1
 90
        2
176
     1
 90
        0
176
     1
 90
        0
176
     1
 40
0.6
176
     1
 40
30.0
176
     1
 62
     7
420
 16777215
176
     1
 90
        2
176
     1
 90
        2
176
     1
 62
     7
176
     1
 62
   257
176
     1
 90
        1
176
     1
 90
        1
176
     1
 40
179.0
176
     1
 90
        8
176
     1
 62
     7
176
     1
 40
1.0
176
     1
 90
        1
176
     1
 90
        6
176
     1
 90
        2
176
     1
 62
     7
176
     1
 90
        3
176
     1
 90
        0
176
     1
 90
        0
176
     1
290
     0
176
     1
 90
        1
176
     1
 40
0.0
176
     1
 90
        0
176
     1
290
     0
176
     1
290
     1
176
     1
290
     1
176
     1
290
     0
176
     1
290
     0
176
     1
290
     0
176
     1
290
     0
176
     1
290
     0
176
     1
290
     0
176
     1
 90
       50
176
     1
 40
0.0
176
     1
 40
1.0
176
     1
 90
        0
176
     1
 62
    18
176
     1
 90
       50
176
     1
 90
        3
176
     1
 62
     5
420
      255
176
     1
290
     0
176
     1
 90
       50
176
     1
 90
       50
176
     1
 90
       50
176
     1
290
     0
176
     1
 90
       50
176
     1
 62
   256
176
     0
 40
1.0
176
     0
 90
        2
176
     1
  1
strokes_ogs.tif
176
     1
290
     0
176
     1
 40
1.0
176
     1
 40
1.0
176
     1
  0
VISUALSTYLE
  5
34
102
{ACAD_REACTORS
330
29
102
}
330
29
100
AcDbVisualStyle
  2
Dim
 70
    11
177
     3
291
     1
 70
    58
 90
        2
176
     1
 90
        2
176
     1
 90
        0
176
     1
 90
        0
176
     1
 40
0.6
176
     1
 40
30.0
176
     1
 62
     7
420
 16777215
176
     1
 90
        1
176
     1
 90
        4
176
     1
 62
     7
176
     1
 62
   257
176
     1
 90
        1
176
     1
 90
        1
176
     1
 40
1.0
176
     1
 90
        8
176
     1
 62
     7
176
     1
 40
1.0
176
     1
 90
        1
176
     1
 90
        6
176
     1
 90
        2
176
     1
 62
     7
176
     1
 90
        5
176
     1
 90
        0
176
     1
 90
        0
176
     1
290
     0
176
     1
 90
        1
176
     1
 40
-50.0
176
     1
 90
        0
176
     1
290
     0
176
     1
290
     1
176
     1
290
     1
176
     1
290
     0
176
     1
290
     0
176
     1
290
     0
176
     1
290
     0
176
     1
290
     0
176
     1
290
     0
176
     1
 90
       50
176
     1
 40
0.0
176
     1
 40
1.0
176
     1
 90
        0
176
     1
 62
    18
176
     1
 90
       50
176
     1
 90
        3
176
     1
 62
     5
420
      255
176
     1
290
     0
176
     1
 90
       50
176
     1
 90
       50
176
     1
 90
       50
176
     1
290
     0
176
     1
 90
       50
176
     1
 62
   256
176
     0
 40
1.0
176
     0
 90
        2
176
     1
  1
strokes_ogs.tif
176
     1
290
     0
176
     1
 40
1.0
176
     1
 40
1.0
176
     1
  0
VISUALSTYLE
  5
41
102
{ACAD_REACTORS
330
29
102
}
330
29
100
AcDbVisualStyle
  2
EdgeColorOff
 70
    22
177
     3
291
     1
 70
    58
 90
        2
176
     0
 90
        2
176
     0
 90
        0
176
     0
 90
        0
176
     0
 40
0.6
176
     0
 40
30.0
176
     0
 62
     7
420
 16777215
176
     0
 90
        1
176
     0
 90
        4
176
     0
 62
     7
176
     0
 62
   257
176
     0
 90
        1
176
     0
 90
        1
176
     0
 40
1.0
176
     0
 90
        8
176
     2
 62
     7
176
     0
 40
1.0
176
     0
 90
        1
176
     0
 90
        6
176
     0
 90
        2
176
     0
 62
     7
176
     0
 90
        5
176
     0
 90
        0
176
     0
 90
        0
176
     0
290
     0
176
     0
 90
        1
176
     0
 40
0.0
176
     0
 90
        0
176
     0
290
     0
176
     1
290
     1
176
     1
290
     1
176
     1
290
     0
176
     1
290
     0
176
     1
290
     0
176
     1
290
     0
176
     1
290
     0
176
     1
290
     0
176
     1
 90
       50
176
     0
 40
0.0
176
     0
 40
1.0
176
     0
 90
        0
176
     0
 62
    18
176
     0
 90
       50
176
     0
 90
        3
176
     0
 62
     5
420
      255
176
     0
290
     0
176
     1
 90
       50
176
     0
 90
       50
176
     0
 90
       50
176
     0
290
     0
176
     1
 90
       50
176
     0
 62
   256
176
     0
 40
1.0
176
     0
 90
        2
176
     0
  1
strokes_ogs.tif
176
     0
290
     0
176
     1
 40
1.0
176
     0
 40
1.0
176
     0
  0
VISUALSTYLE
  5
38
102
{ACAD_REACTORS
330
29
102
}
330
29
100
AcDbVisualStyle
  2
Facepattern
 70
    15
177
     3
291
     1
 70
    58
 90
        2
176
     1
 90
        2
176
     1
 90
        0
176
     1
 90
        0
176
     1
 40
0.6
176
     1
 40
30.0
176
     1
 62
     7
420
 16777215
176
     1
 90
        1
176
     1
 90
        4
176
     1
 62
     7
176
     1
 62
   257
176
     1
 90
        1
176
     1
 90
        1
176
     1
 40
1.0
176
     1
 90
        8
176
     1
 62
     7
176
     1
 40
1.0
176
     1
 90
        1
176
     1
 90
        6
176
     1
 90
        2
176
     1
 62
     7
176
     1
 90
        5
176
     1
 90
        0
176
     1
 90
        0
176
     1
290
     0
176
     1
 90
        1
176
     1
 40
0.0
176
     1
 90
        0
176
     1
290
     0
176
     1
290
     1
176
     1
290
     1
176
     1
290
     0
176
     1
290
     0
176
     1
290
     0
176
     1
290
     0
176
     1
290
     0
176
     1
290
     0
176
     1
 90
       50
176
     1
 40
0.0
176
     1
 40
1.0
176
     1
 90
        0
176
     1
 62
    18
176
     1
 90
       50
176
     1
 90
        3
176
     1
 62
     5
420
      255
176
     1
290
     0
176
     1
 90
       50
176
     1
 90
       50
176
     1
 90
       50
176
     1
290
     0
176
     1
 90
       50
176
     1
 62
   256
176
     0
 40
1.0
176
     0
 90
        2
176
     1
  1
strokes_ogs.tif
176
     1
290
     0
176
     1
 40
1.0
176
     1
 40
1.0
176
     1
  0
VISUALSTYLE
  5
2A
102
{ACAD_REACTORS
330
29
102
}
330
29
100
AcDbVisualStyle
  2
Flat
 70
     0
177
     3
291
     1
 70
    58
 90
        2
176
     1
 90
        1
176
     1
 90
        1
176
     1
 90
        2
176
     1
 40
0.6
176
     1
 40
30.0
176
     1
 62
     7
420
 16777215
176
     1
 90
        0
176
     1
 90
        0
176
     1
 62
     7
176
     1
 62
   257
176
     1
 90
        1
176
     1
 90
        1
176
     1
 40
1.0
176
     1
 90
        8
176
     1
 62
     7
176
     1
 40
1.0
176
     1
 90
        1
176
     1
 90
        6
176
     1
 90
        2
176
     1
 62
     7
176
     1
 90
        5
176
     1
 90
        0
176
     1
 90
        0
176
     1
290
     0
176
     1
 90
       13
176
     1
 40
0.0
176
     1
 90
        0
176
     1
290
     0
176
     1
290
     1
176
     1
290
     1
176
     1
290
     0
176
     1
290
     0
176
     1
290
     0
176
     1
290
     0
176
     1
290
     0
176
     1
290
     0
176
     1
 90
       50
176
     1
 40
0.0
176
     1
 40
1.0
176
     1
 90
        0
176
     1
 62
    18
176
     1
 90
       50
176
     1
 90
        3
176
     1
 62
     5
420
      255
176
     1
290
     0
176
     1
 90
       50
176
     1
 90
       50
176
     1
 90
       50
176
     1
290
     0
176
     1
 90
       50
176
     1
 62
   256
176
     0
 40
1.0
176
     0
 90
        2
176
     1
  1
strokes_ogs.tif
176
     1
290
     0
176
     1
 40
1.0
176
     1
 40
1.0
176
     1
  0
VISUALSTYLE
  5
2B
102
{ACAD_REACTORS
330
29
102
}
330
29
100
AcDbVisualStyle
  2
FlatWithEdges
 70
     1
177
     3
291
     1
 70
    58
 90
        2
176
     1
 90
        1
176
     1
 90
        1
176
     1
 90
        2
176
     1
 40
0.6
176
     1
 40
30.0
176
     1
 62
     7
420
 16777215
176
     1
 90
        1
176
     1
 90
        0
176
     1
 62
     7
176
     1
 62
   257
176
     1
 90
        1
176
     1
 90
        1
176
     1
 40
1.0
176
     1
 90
        0
176
     1
 62
   257
176
     1
 40
1.0
176
     1
 90
        1
176
     1
 90
        6
176
     1
 90
        2
176
     1
 62
     7
176
     1
 90
        5
176
     1
 90
        0
176
     1
 90
        0
176
     1
290
     0
176
     1
 90
       13
176
     1
 40
0.0
176
     1
 90
        0
176
     1
290
     0
176
     1
290
     1
176
     1
290
     1
176
     1
290
     0
176
     1
290
     0
176
     1
290
     0
176
     1
290
     0
176
     1
290
     0
176
     1
290
     0
176
     1
 90
       50
176
     1
 40
0.0
176
     1
 40
1.0
176
     1
 90
        0
176
     1
 62
    18
176
     1
 90
       50
176
     1
 90
        3
176
     1
 62
     5
420
      255
176
     1
290
     0
176
     1
 90
       50
176
     1
 90
       50
176
     1
 90
       50
176
     1
290
     0
176
     1
 90
       50
176
     1
 62
   256
176
     0
 40
1.0
176
     0
 90
        2
176
     1
  1
strokes_ogs.tif
176
     1
290
     0
176
     1
 40
1.0
176
     1
 40
1.0
176
     1
  0
VISUALSTYLE
  5
2C
102
{ACAD_REACTORS
330
29
102
}
330
29
100
AcDbVisualStyle
  2
Gouraud
 70
     2
177
     3
291
     1
 70
    58
 90
        2
176
     1
 90
        2
176
     1
 90
        1
176
     1
 90
        2
176
     1
 40
0.6
176
     1
 40
30.0
176
     1
 62
     7
420
 16777215
176
     1
 90
        0
176
     1
 90
        0
176
     1
 62
     7
176
     1
 62
   257
176
     1
 90
        1
176
     1
 90
        1
176
     1
 40
1.0
176
     1
 90
        0
176
     1
 62
     7
176
     1
 40
1.0
176
     1
 90
        1
176
     1
 90
        6
176
     1
 90
        2
176
     1
 62
     7
176
     1
 90
        5
176
     1
 90
        0
176
     1
 90
        0
176
     1
290
     0
176
     1
 90
       13
176
     1
 40
0.0
176
     1
 90
        0
176
     1
290
     0
176
     1
290
     1
176
     1
290
     1
176
     1
290
     0
176
     1
290
     0
176
     1
290
     0
176
     1
290
     0
176
     1
290
     0
176
     1
290
     0
176
     1
 90
       50
176
     1
 40
0.0
176
     1
 40
1.0
176
     1
 90
        0
176
     1
 62
    18
176
     1
 90
       50
176
     1
 90
        3
176
     1
 62
     5
420
      255
176
     1
290
     0
176
     1
 90
       50
176
     1
 90
       50
176
     1
 90
       50
176
     1
290
     0
176
     1
 90
       50
176
     1
 62
   256
176
     0
 40
1.0
176
     0
 90
        2
176
     1
  1
strokes_ogs.tif
176
     1
290
     0
176
     1
 40
1.0
176
     1
 40
1.0
176
     1
  0
VISUALSTYLE
  5
2D
102
{ACAD_REACTORS
330
29
102
}
330
29
100
AcDbVisualStyle
  2
GouraudWithEdges
 70
     3
177
     3
291
     1
 70
    58
 90
        2
176
     1
 90
        2
176
     1
 90
        1
176
     1
 90
        2
176
     1
 40
0.6
176
     1
 40
30.0
176
     1
 62
     7
420
 16777215
176
     1
 90
        1
176
     1
 90
        0
176
     1
 62
     7
176
     1
 62
   257
176
     1
 90
        1
176
     1
 90
        1
176
     1
 40
1.0
176
     1
 90
        0
176
     1
 62
   257
176
     1
 40
1.0
176
     1
 90
        1
176
     1
 90
        6
176
     1
 90
        2
176
     1
 62
     7
176
     1
 90
        5
176
     1
 90
        0
176
     1
 90
        0
176
     1
290
     0
176
     1
 90
       13
176
     1
 40
0.0
176
     1
 90
        0
176
     1
290
     0
176
     1
290
     1
176
     1
290
     1
176
     1
290
     0
176
     1
290
     0
176
     1
290
     0
176
     1
290
     0
176
     1
290
     0
176
     1
290
     0
176
     1
 90
       50
176
     1
 40
0.0
176
     1
 40
1.0
176
     1
 90
        0
176
     1
 62
    18
176
     1
 90
       50
176
     1
 90
        3
176
     1
 62
     5
420
      255
176
     1
290
     0
176
     1
 90
       50
176
     1
 90
       50
176
     1
 90
       50
176
     1
290
     0
176
     1
 90
       50
176
     1
 62
   256
176
     0
 40
1.0
176
     0
 90
        2
176
     1
  1
strokes_ogs.tif
176
     1
290
     0
176
     1
 40
1.0
176
     1
 40
1.0
176
     1
  0
VISUALSTYLE
  5
31
102
{ACAD_REACTORS
330
29
102
}
330
29
100
AcDbVisualStyle
  2
Hidden
 70
     6
177
     3
291
     0
 70
    58
 90
        1
176
     1
 90
        2
176
     1
 90
        2
176
     1
 90
        0
176
     1
 40
0.6
176
     1
 40
30.0
176
     1
 62
     7
420
 16777215
176
     1
 90
        2
176
     1
 90
        2
176
     1
 62
     7
176
     1
 62
   257
176
     1
 90
        2
176
     1
 90
        1
176
     1
 40
40.0
176
     1
 90
        0
176
     1
 62
   257
176
     1
 40
1.0
176
     1
 90
        1
176
     1
 90
        6
176
     1
 90
        2
176
     1
 62
     7
176
     1
 90
        3
176
     1
 90
        0
176
     1
 90
        0
176
     1
290
     0
176
     1
 90
        1
176
     1
 40
0.0
176
     1
 90
        0
176
     1
290
     0
176
     1
290
     1
176
     1
290
     1
176
     1
290
     0
176
     1
290
     0
176
     1
290
     0
176
     1
290
     0
176
     1
290
     0
176
     1
290
     0
176
     1
 90
       50
176
     1
 40
0.0
176
     1
 40
1.0
176
     1
 90
        0
176
     1
 62
    18
176
     1
 90
       50
176
     1
 90
        3
176
     1
 62
     5
420
      255
176
     1
290
     0
176
     1
 90
       50
176
     1
 90
       50
176
     1
 90
       50
176
     1
290
     0
176
     1
 90
       50
176
     1
 62
   256
176
     0
 40
1.0
176
     0
 90
        2
176
     1
  1
strokes_ogs.tif
176
     1
290
     0
176
     1
 40
1.0
176
     1
 40
1.0
176
     1
  0
VISUALSTYLE
  5
3F
102
{ACAD_REACTORS
330
29
102
}
330
29
100
AcDbVisualStyle
  2
JitterOff
 70
    20
177
     3
291
     1
 70
    58
 90
        2
176
     0
 90
        2
176
     0
 90
        0
176
     0
 90
        0
176
     0
 40
0.6
176
     0
 40
30.0
176
     0
 62
     7
420
 16777215
176
     0
 90
        1
176
     0
 90
        4
176
     0
 62
     7
176
     0
 62
   257
176
     0
 90
        1
176
     0
 90
        1
176
     0
 40
1.0
176
     0
 90
       10
176
     2
 62
     7
176
     0
 40
1.0
176
     0
 90
        1
176
     0
 90
        6
176
     0
 90
        2
176
     0
 62
     7
176
     0
 90
        5
176
     0
 90
        0
176
     0
 90
        0
176
     0
290
     0
176
     0
 90
        1
176
     0
 40
0.0
176
     0
 90
        0
176
     0
290
     0
176
     1
290
     1
176
     1
290
     1
176
     1
290
     0
176
     1
290
     0
176
     1
290
     0
176
     1
290
     0
176
     1
290
     0
176
     1
290
     0
176
     1
 90
       50
176
     0
 40
0.0
176
     0
 40
1.0
176
     0
 90
        0
176
     0
 62
    18
176
     0
 90
       50
176
     0
 90
        3
176
     0
 62
     5
420
      255
176
     0
290
     0
176
     1
 90
       50
176
     0
 90
       50
176
     0
 90
       50
176
     0
290
     0
176
     1
 90
       50
176
     0
 62
   256
176
     0
 40
1.0
176
     0
 90
        2
176
     0
  1
strokes_ogs.tif
176
     0
290
     0
176
     1
 40
1.0
176
     0
 40
1.0
176
     0
  0
VISUALSTYLE
  5
37
102
{ACAD_REACTORS
330
29
102
}
330
29
100
AcDbVisualStyle
  2
Linepattern
 70
    14
177
     3
291
     1
 70
    58
 90
        2
176
     1
 90
        2
176
     1
 90
        0
176
     1
 90
        0
176
     1
 40
0.6
176
     1
 40
30.0
176
     1
 62
     7
420
 16777215
176
     1
 90
        1
176
     1
 90
        4
176
     1
 62
     7
176
     1
 62
   257
176
     1
 90
        7
176
     1
 90
        7
176
     1
 40
1.0
176
     1
 90
        8
176
     1
 62
     7
176
     1
 40
1.0
176
     1
 90
        1
176
     1
 90
        6
176
     1
 90
        2
176
     1
 62
     7
176
     1
 90
        5
176
     1
 90
        0
176
     1
 90
        0
176
     1
290
     0
176
     1
 90
        1
176
     1
 40
0.0
176
     1
 90
        0
176
     1
290
     0
176
     1
290
     1
176
     1
290
     1
176
     1
290
     0
176
     1
290
     0
176
     1
290
     0
176
     1
290
     0
176
     1
290
     0
176
     1
290
     0
176
     1
 90
       50
176
     1
 40
0.0
176
     1
 40
1.0
176
     1
 90
        0
176
     1
 62
    18
176
     1
 90
       50
176
     1
 90
        3
176
     1
 62
     5
420
      255
176
     1
290
     0
176
     1
 90
       50
176
     1
 90
       50
176
     1
 90
       50
176
     1
290
     0
176
     1
 90
       50
176
     1
 62
   256
176
     0
 40
1.0
176
     0
 90
        2
176
     1
  1
strokes_ogs.tif
176
     1
290
     0
176
     1
 40
1.0
176
     1
 40
1.0
176
     1
  0
VISUALSTYLE
  5
40
102
{ACAD_REACTORS
330
29
102
}
330
29
100
AcDbVisualStyle
  2
OverhangOff
 70
    21
177
     3
291
     1
 70
    58
 90
        2
176
     0
 90
        2
176
     0
 90
        0
176
     0
 90
        0
176
     0
 40
0.6
176
     0
 40
30.0
176
     0
 62
     7
420
 16777215
176
     0
 90
        1
176
     0
 90
        4
176
     0
 62
     7
176
     0
 62
   257
176
     0
 90
        1
176
     0
 90
        1
176
     0
 40
1.0
176
     0
 90
        9
176
     2
 62
     7
176
     0
 40
1.0
176
     0
 90
        1
176
     0
 90
        6
176
     0
 90
        2
176
     0
 62
     7
176
     0
 90
        5
176
     0
 90
        0
176
     0
 90
        0
176
     0
290
     0
176
     0
 90
        1
176
     0
 40
0.0
176
     0
 90
        0
176
     0
290
     0
176
     1
290
     1
176
     1
290
     1
176
     1
290
     0
176
     1
290
     0
176
     1
290
     0
176
     1
290
     0
176
     1
290
     0
176
     1
290
     0
176
     1
 90
       50
176
     0
 40
0.0
176
     0
 40
1.0
176
     0
 90
        0
176
     0
 62
    18
176
     0
 90
       50
176
     0
 90
        3
176
     0
 62
     5
420
      255
176
     0
290
     0
176
     1
 90
       50
176
     0
 90
       50
176
     0
 90
       50
176
     0
290
     0
176
     1
 90
       50
176
     0
 62
   256
176
     0
 40
1.0
176
     0
 90
        2
176
     0
  1
strokes_ogs.tif
176
     0
290
     0
176
     1
 40
1.0
176
     0
 40
1.0
176
     0
  0
VISUALSTYLE
  5
33
102
{ACAD_REACTORS
330
29
102
}
330
29
100
AcDbVisualStyle
  2
Realistic
 70
     8
177
     3
291
     0
 70
    58
 90
        2
176
     1
 90
        3
176
     1
 90
        0
176
     1
 90
        2
176
     1
 40
0.6
176
     1
 40
30.0
176
     1
 62
     7
420
 16777215
176
     1
 90
        0
176
     1
 90
        0
176
     1
 62
     7
176
     1
 62
   257
176
     1
 90
        1
176
     1
 90
        1
176
     1
 40
1.0
176
     1
 90
        8
176
     1
 62
   257
176
     1
 40
1.0
176
     1
 90
        1
176
     1
 90
        6
176
     1
 90
        2
176
     1
 62
     7
176
     1
 90
        3
176
     1
 90
        0
176
     1
 90
        0
176
     1
290
     0
176
     1
 90
       13
176
     1
 40
0.0
176
     1
 90
        0
176
     1
290
     0
176
     1
290
     1
176
     1
290
     1
176
     1
290
     0
176
     1
290
     0
176
     1
290
     0
176
     1
290
     0
176
     1
290
     0
176
     1
290
     0
176
     1
 90
       50
176
     1
 40
0.0
176
     1
 40
1.0
176
     1
 90
        0
176
     1
 62
    18
176
     1
 90
       50
176
     1
 90
        3
176
     1
 62
     5
420
      255
176
     1
290
     0
176
     1
 90
       50
176
     1
 90
       50
176
     1
 90
       50
176
     1
290
     0
176
     1
 90
       50
176
     1
 62
   256
176
     0
 40
1.0
176
     0
 90
        2
176
     1
  1
strokes_ogs.tif
176
     1
290
     0
176
     1
 40
1.0
176
     1
 40
1.0
176
     1
  0
VISUALSTYLE
  5
3E
102
{ACAD_REACTORS
330
29
102
}
330
29
100
AcDbVisualStyle
  2
Shaded
 70
    27
177
     3
291
     0
 70
    58
 90
        2
176
     1
 90
        2
176
     1
 90
        1
176
     1
 90
        2
176
     1
 40
0.6
176
     1
 40
30.0
176
     1
 62
     7
420
 16777215
176
     1
 90
        0
176
     1
 90
        4
176
     1
 62
     7
176
     1
 62
   257
176
     1
 90
        1
176
     1
 90
        1
176
     1
 40
1.0
176
     1
 90
        8
176
     1
 62
   257
176
     1
 40
1.0
176
     1
 90
        1
176
     1
 90
        6
176
     1
 90
        2
176
     1
 62
     8
420
  7895160
176
     1
 90
        3
176
     1
 90
        0
176
     1
 90
        0
176
     1
290
     0
176
     1
 90
        5
176
     1
 40
0.0
176
     1
 90
        0
176
     1
290
     0
176
     1
290
     1
176
     1
290
     1
176
     1
290
     0
176
     1
290
     0
176
     1
290
     0
176
     1
290
     0
176
     1
290
     0
176
     1
290
     0
176
     1
 90
       50
176
     1
 40
0.0
176
     1
 40
1.0
176
     1
 90
        0
176
     1
 62
    18
176
     1
 90
       50
176
     1
 90
        3
176
     1
 62
     5
420
      255
176
     1
290
     0
176
     1
 90
       50
176
     1
 90
       50
176
     1
 90
       50
176
     1
290
     0
176
     1
 90
       50
176
     1
 62
   256
176
     0
 40
1.0
176
     0
 90
        2
176
     1
  1
strokes_ogs.tif
176
     1
290
     0
176
     1
 40
1.0
176
     1
 40
1.0
176
     1
  0
VISUALSTYLE
  5
3D
102
{ACAD_REACTORS
330
29
102
}
330
29
100
AcDbVisualStyle
  2
Shaded with edges
 70
    26
177
     3
291
     0
 70
    58
 90
        2
176
     1
 90
        2
176
     1
 90
        1
176
     1
 90
        2
176
     1
 40
0.6
176
     1
 40
30.0
176
     1
 62
     7
420
 16777215
176
     1
 90
        1
176
     1
 90
        2
176
     1
 62
     7
176
     1
 62
   257
176
     1
 90
        2
176
     1
 90
        1
176
     1
 40
1.0
176
     1
 90
        8
176
     1
 62
   257
176
     1
 40
1.0
176
     1
 90
        1
176
     1
 90
        6
176
     1
 90
        2
176
     1
 62
     7
176
     1
 90
        3
176
     1
 90
        0
176
     1
 90
        0
176
     1
290
     0
176
     1
 90
        5
176
     1
 40
0.0
176
     1
 90
        0
176
     1
290
     0
176
     1
290
     1
176
     1
290
     1
176
     1
290
     0
176
     1
290
     0
176
     1
290
     0
176
     1
290
     0
176
     1
290
     0
176
     1
290
     0
176
     1
 90
       50
176
     1
 40
0.0
176
     1
 40
1.0
176
     1
 90
        0
176
     1
 62
    18
176
     1
 90
       50
176
     1
 90
        3
176
     1
 62
     5
420
      255
176
     1
290
     0
176
     1
 90
       50
176
     1
 90
       50
176
     1
 90
       50
176
     1
290
     0
176
     1
 90
       50
176
     1
 62
   256
176
     0
 40
1.0
176
     0
 90
        2
176
     1
  1
strokes_ogs.tif
176
     1
290
     0
176
     1
 40
1.0
176
     1
 40
1.0
176
     1
  0
VISUALSTYLE
  5
3A
102
{ACAD_REACTORS
330
29
102
}
330
29
100
AcDbVisualStyle
  2
Shades of Gray
 70
    23
177
     3
291
     0
 70
    58
 90
        2
176
     1
 90
        2
176
     1
 90
        3
176
     1
 90
        0
176
     1
 40
0.6
176
     1
 40
30.0
176
     1
 62
     7
420
 16777215
176
     1
 90
        2
176
     1
 90
        2
176
     1
 62
     7
176
     1
 62
     7
176
     1
 90
        1
176
     1
 90
        1
176
     1
 40
40.0
176
     1
 90
        8
176
     1
 62
     7
176
     1
 40
1.0
176
     1
 90
        1
176
     1
 90
        6
176
     1
 90
        2
176
     1
 62
     7
176
     1
 90
        3
176
     1
 90
        0
176
     1
 90
        0
176
     1
290
     0
176
     1
 90
        1
176
     1
 40
0.0
176
     1
 90
        0
176
     1
290
     0
176
     1
290
     1
176
     1
290
     1
176
     1
290
     0
176
     1
290
     0
176
     1
290
     0
176
     1
290
     0
176
     1
290
     0
176
     1
290
     0
176
     1
 90
       50
176
     1
 40
0.0
176
     1
 40
1.0
176
     1
 90
        0
176
     1
 62
    18
176
     1
 90
       50
176
     1
 90
        3
176
     1
 62
     5
420
      255
176
     1
290
     0
176
     1
 90
       50
176
     1
 90
       50
176
     1
 90
       50
176
     1
290
     0
176
     1
 90
       50
176
     1
 62
   256
176
     0
 40
1.0
176
     0
 90
        2
176
     1
  1
strokes_ogs.tif
176
     1
290
     0
176
     1
 40
1.0
176
     1
 40
1.0
176
     1
  0
VISUALSTYLE
  5
3B
102
{ACAD_REACTORS
330
29
102
}
330
29
100
AcDbVisualStyle
  2
Sketchy
 70
    24
177
     3
291
     0
 70
    58
 90
        1
176
     1
 90
        2
176
     1
 90
        2
176
     1
 90
        0
176
     1
 40
0.6
176
     1
 40
30.0
176
     1
 62
     7
420
 16777215
176
     1
 90
        2
176
     1
 90
        2
176
     1
 62
     7
176
     1
 62
     7
176
     1
 90
        1
176
     1
 90
        1
176
     1
 40
40.0
176
     1
 90
       11
176
     1
 62
     7
176
     1
 40
1.0
176
     1
 90
        1
176
     1
 90
        6
176
     1
 90
        2
176
     1
 62
     7
176
     1
 90
        6
176
     1
 90
        0
176
     1
 90
        0
176
     1
290
     0
176
     1
 90
        1
176
     1
 40
0.0
176
     1
 90
        0
176
     1
290
     0
176
     1
290
     1
176
     1
290
     1
176
     1
290
     0
176
     1
290
     0
176
     1
290
     0
176
     1
290
     0
176
     1
290
     0
176
     1
290
     0
176
     1
 90
       50
176
     1
 40
0.0
176
     1
 40
1.0
176
     1
 90
        0
176
     1
 62
    18
176
     1
 90
       50
176
     1
 90
        3
176
     1
 62
     5
420
      255
176
     1
290
     0
176
     1
 90
       50
176
     1
 90
       50
176
     1
 90
       50
176
     1
290
     0
176
     1
 90
       50
176
     1
 62
   256
176
     0
 40
1.0
176
     0
 90
        2
176
     1
  1
strokes_ogs.tif
176
     1
290
     0
176
     1
 40
1.0
176
     1
 40
1.0
176
     1
  0
VISUALSTYLE
  5
36
102
{ACAD_REACTORS
330
29
102
}
330
29
100
AcDbVisualStyle
  2
Thicken
 70
    13
177
     3
291
     1
 70
    58
 90
        2
176
     1
 90
        2
176
     1
 90
        0
176
     1
 90
        0
176
     1
 40
0.6
176
     1
 40
30.0
176
     1
 62
     7
420
 16777215
176
     1
 90
        1
176
     1
 90
        4
176
     1
 62
     7
176
     1
 62
   257
176
     1
 90
        1
176
     1
 90
        1
176
     1
 40
1.0
176
     1
 90
       12
176
     1
 62
     7
176
     1
 40
1.0
176
     1
 90
        1
176
     1
 90
        6
176
     1
 90
        2
176
     1
 62
     7
176
     1
 90
        5
176
     1
 90
        0
176
     1
 90
        0
176
     1
290
     0
176
     1
 90
        1
176
     1
 40
0.0
176
     1
 90
        0
176
     1
290
     0
176
     1
290
     1
176
     1
290
     1
176
     1
290
     0
176
     1
290
     0
176
     1
290
     0
176
     1
290
     0
176
     1
290
     0
176
     1
290
     0
176
     1
 90
       50
176
     1
 40
0.0
176
     1
 40
1.0
176
     1
 90
        0
176
     1
 62
    18
176
     1
 90
       50
176
     1
 90
        3
176
     1
 62
     5
420
      255
176
     1
290
     0
176
     1
 90
       50
176
     1
 90
       50
176
     1
 90
       50
176
     1
290
     0
176
     1
 90
       50
176
     1
 62
   256
176
     0
 40
1.0
176
     0
 90
        2
176
     1
  1
strokes_ogs.tif
176
     1
290
     0
176
     1
 40
1.0
176
     1
 40
1.0
176
     1
  0
VISUALSTYLE
  5
30
102
{ACAD_REACTORS
330
29
102
}
330
29
100
AcDbVisualStyle
  2
Wireframe
 70
     5
177
     3
291
     0
 70
    58
 90
        0
176
     1
 90
        2
176
     1
 90
        0
176
     1
 90
        0
176
     1
 40
0.6
176
     1
 40
30.0
176
     1
 62
     7
420
 16777215
176
     1
 90
        1
176
     1
 90
        4
176
     1
 62
     7
176
     1
 62
   257
176
     1
 90
        1
176
     1
 90
        1
176
     1
 40
1.0
176
     1
 90
        0
176
     1
 62
   257
176
     1
 40
1.0
176
     1
 90
        1
176
     1
 90
        6
176
     1
 90
        2
176
     1
 62
     7
176
     1
 90
        3
176
     1
 90
        0
176
     1
 90
        0
176
     1
290
     0
176
     1
 90
        1
176
     1
 40
0.0
176
     1
 90
        0
176
     1
290
     0
176
     1
290
     1
176
     1
290
     1
176
     1
290
     0
176
     1
290
     0
176
     1
290
     0
176
     1
290
     0
176
     1
290
     0
176
     1
290
     0
176
     1
 90
       50
176
     1
 40
0.0
176
     1
 40
1.0
176
     1
 90
        0
176
     1
 62
    18
176
     1
 90
       50
176
     1
 90
        3
176
     1
 62
     5
420
      255
176
     1
290
     0
176
     1
 90
       50
176
     1
 90
       50
176
     1
 90
       50
176
     1
290
     0
176
     1
 90
       50
176
     1
 62
   256
176
     0
 40
1.0
176
     0
 90
        2
176
     1
  1
strokes_ogs.tif
176
     1
290
     0
176
     1
 40
1.0
176
     1
 40
1.0
176
     1
  0
VISUALSTYLE
  5
3C
102
{ACAD_REACTORS
330
29
102
}
330
29
100
AcDbVisualStyle
  2
X-Ray
 70
    25
177
     3
291
     0
 70
    58
 90
        2
176
     1
 90
        2
176
     1
 90
        1
176
     1
 90
        1
176
     1
 40
0.5
176
     1
 40
30.0
176
     1
 62
     7
420
 16777215
176
     1
 90
        1
176
     1
 90
        0
176
     1
 62
     7
176
     1
 62
   257
176
     1
 90
        1
176
     1
 90
        1
176
     1
 40
1.0
176
     1
 90
        8
176
     1
 62
     7
176
     1
 40
1.0
176
     1
 90
        1
176
     1
 90
        6
176
     1
 90
        2
176
     1
 62
     7
176
     1
 90
        3
176
     1
 90
        0
176
     1
 90
        0
176
     1
290
     0
176
     1
 90
       13
176
     1
 40
0.0
176
     1
 90
        0
176
     1
290
     0
176
     1
290
     1
176
     1
290
     1
176
     1
290
     0
176
     1
290
     0
176
     1
290
     0
176
     1
290
     0
176
     1
290
     0
176
     1
290
     0
176
     1
 90
       50
176
     1
 40
0.0
176
     1
 40
1.0
176
     1
 90
        0
176
     1
 62
    18
176
     1
 90
       50
176
     1
 90
        3
176
     1
 62
     5
420
      255
176
     1
290
     0
176
     1
 90
       50
176
     1
 90
       50
176
     1
 90
       50
176
     1
290
     0
176
     1
 90
       50
176
     1
 62
   256
176
     0
 40
1.0
176
     0
 90
        2
176
     1
  1
strokes_ogs.tif
176
     1
290
     0
176
     1
 40
1.0
176
     1
 40
1.0
176
     1
  0
DICTIONARYVAR
  5
C29
102
{ACAD_REACTORS
330
C23
102
}
330
C23
100
DictionaryVariables
280
     0
  1
1:1
  0
DICTIONARYVAR
  5
C25
102
{ACAD_REACTORS
330
C23
102
}
330
C23
100
DictionaryVariables
280
     0
  1
STANDARD
  0
DICTIONARYVAR
  5
C24
102
{ACAD_REACTORS
330
C23
102
}
330
C23
100
DictionaryVariables
280
     0
  1
STANDARD
  0
DICTIONARYVAR
  5
C26
102
{ACAD_REACTORS
330
C23
102
}
330
C23
100
DictionaryVariables
280
     0
  1
Imperial24
  0
DICTIONARYVAR
  5
C27
102
{ACAD_REACTORS
330
C23
102
}
330
C23
100
DictionaryVariables
280
     0
  1
Imperial24
  0
DICTIONARYVAR
  5
C2B
102
{ACAD_REACTORS
330
C23
102
}
330
C23
100
DictionaryVariables
280
     0
  1
1
  0
DICTIONARYVAR
  5
C2C
102
{ACAD_REACTORS
330
C23
102
}
330
C23
100
DictionaryVariables
280
     0
  1
15
  0
DICTIONARYVAR
  5
C2A
102
{ACAD_REACTORS
330
C23
102
}
330
C23
100
DictionaryVariables
280
     0
  1
0
  0
DICTIONARYVAR
  5
C28
102
{ACAD_REACTORS
330
C23
102
}
330
C23
100
DictionaryVariables
280
     0
  1
0
  0
DICTIONARY
  5
1A
330
19
100
AcDbDictionary
280
     1
281
     1
  3
BUMPTILE
360
1C
  3
DIFFUSETILE
360
1B
  3
OPACITYTILE
360
1F
  3
REFLECTIONTILE
360
1E
  3
REFRACTIONTILE
360
20
  3
SPECULARTILE
360
1D
  0
DICTIONARY
  5
12
330
11
100
AcDbDictionary
280
     1
281
     1
  3
BUMPTILE
360
14
  3
DIFFUSETILE
360
13
  3
OPACITYTILE
360
17
  3
REFLECTIONTILE
360
16
  3
REFRACTIONTILE
360
18
  3
SPECULARTILE
360
15
  0
DICTIONARY
  5
22
330
21
100
AcDbDictionary
280
     1
281
     1
  3
BUMPTILE
360
24
  3
DIFFUSETILE
360
23
  3
OPACITYTILE
360
27
  3
REFLECTIONTILE
360
26
  3
REFRACTIONTILE
360
28
  3
SPECULARTILE
360
25
  0
DICTIONARY
  5
C39
330
64
100
AcDbDictionary
280
     1
281
     1
  3
ACAD_ROUNDTRIP_2008_TABLESTYLE_CELLSTYLEMAP
360
2387
  0
XRECORD
  5
1C
102
{ACAD_REACTORS
330
1A
102
}
330
1A
100
AcDbXrecord
280
     1
270
     1
271
     1
  0
XRECORD
  5
1B
102
{ACAD_REACTORS
330
1A
102
}
330
1A
100
AcDbXrecord
280
     1
270
     1
271
     1
  0
XRECORD
  5
1F
102
{ACAD_REACTORS
330
1A
102
}
330
1A
100
AcDbXrecord
280
     1
270
     1
271
     1
  0
XRECORD
  5
1E
102
{ACAD_REACTORS
330
1A
102
}
330
1A
100
AcDbXrecord
280
     1
270
     1
271
     1
  0
XRECORD
  5
20
102
{ACAD_REACTORS
330
1A
102
}
330
1A
100
AcDbXrecord
280
     1
270
     1
271
     1
  0
XRECORD
  5
1D
102
{ACAD_REACTORS
330
1A
102
}
330
1A
100
AcDbXrecord
280
     1
270
     1
271
     1
  0
XRECORD
  5
14
102
{ACAD_REACTORS
330
12
102
}
330
12
100
AcDbXrecord
280
     1
270
     1
271
     1
  0
XRECORD
  5
13
102
{ACAD_REACTORS
330
12
102
}
330
12
100
AcDbXrecord
280
     1
270
     1
271
     1
  0
XRECORD
  5
17
102
{ACAD_REACTORS
330
12
102
}
330
12
100
AcDbXrecord
280
     1
270
     1
271
     1
  0
XRECORD
  5
16
102
{ACAD_REACTORS
330
12
102
}
330
12
100
AcDbXrecord
280
     1
270
     1
271
     1
  0
XRECORD
  5
18
102
{ACAD_REACTORS
330
12
102
}
330
12
100
AcDbXrecord
280
     1
270
     1
271
     1
  0
XRECORD
  5
15
102
{ACAD_REACTORS
330
12
102
}
330
12
100
AcDbXrecord
280
     1
270
     1
271
     1
  0
XRECORD
  5
24
102
{ACAD_REACTORS
330
22
102
}
330
22
100
AcDbXrecord
280
     1
270
     1
271
     1
  0
XRECORD
  5
23
102
{ACAD_REACTORS
330
22
102
}
330
22
100
AcDbXrecord
280
     1
270
     1
271
     1
  0
XRECORD
  5
27
102
{ACAD_REACTORS
330
22
102
}
330
22
100
AcDbXrecord
280
     1
270
     1
271
     1
  0
XRECORD
  5
26
102
{ACAD_REACTORS
330
22
102
}
330
22
100
AcDbXrecord
280
     1
270
     1
271
     1
  0
XRECORD
  5
28
102
{ACAD_REACTORS
330
22
102
}
330
22
100
AcDbXrecord
280
     1
270
     1
271
     1
  0
XRECORD
  5
25
102
{ACAD_REACTORS
330
22
102
}
330
22
100
AcDbXrecord
280
     1
270
     1
271
     1
  0
CELLSTYLEMAP
  5
2387
102
{ACAD_REACTORS
330
C39
102
}
330
C39
100
AcDbCellStyleMap
 90
        3
300
CELLSTYLE
  1
TABLEFORMAT_BEGIN
 90
        5
170
     1
 91
        0
 92
    32768
 62
   257
 93
        1
300
CONTENTFORMAT
  1
CONTENTFORMAT_BEGIN
 90
        0
 91
        0
 92
      512
 93
        0
300

 40
0.0
140
1.0
 94
        5
 62
     0
340
55
144
0.25
309
CONTENTFORMAT_END
171
     1
301
MARGIN
  1
CELLMARGIN_BEGIN
 40
0.06
 40
0.06
 40
0.06
 40
0.06
 40
0.18
 40
0.18
309
CELLMARGIN_END
 94
        6
 95
        1
302
GRIDFORMAT
  1
GRIDFORMAT_BEGIN
 90
        0
 91
        1
 62
     0
 92
       -2
340
0
 93
        0
 40
0.045
309
GRIDFORMAT_END
 95
        2
302
GRIDFORMAT
  1
GRIDFORMAT_BEGIN
 90
        0
 91
        1
 62
     0
 92
       -2
340
0
 93
        0
 40
0.045
309
GRIDFORMAT_END
 95
        4
302
GRIDFORMAT
  1
GRIDFORMAT_BEGIN
 90
        0
 91
        1
 62
     0
 92
       -2
340
0
 93
        0
 40
0.045
309
GRIDFORMAT_END
 95
        8
302
GRIDFORMAT
  1
GRIDFORMAT_BEGIN
 90
        0
 91
        1
 62
     0
 92
       -2
340
0
 93
        0
 40
0.045
309
GRIDFORMAT_END
 95
       16
302
GRIDFORMAT
  1
GRIDFORMAT_BEGIN
 90
        0
 91
        1
 62
     0
 92
       -2
340
0
 93
        0
 40
0.045
309
GRIDFORMAT_END
 95
       32
302
GRIDFORMAT
  1
GRIDFORMAT_BEGIN
 90
        0
 91
        1
 62
     0
 92
       -2
340
0
 93
        0
 40
0.045
309
GRIDFORMAT_END
309
TABLEFORMAT_END
  1
CELLSTYLE_BEGIN
 90
        1
 91
        1
300
_TITLE
309
CELLSTYLE_END
300
CELLSTYLE
  1
TABLEFORMAT_BEGIN
 90
        5
170
     1
 91
        0
 92
        0
 62
   257
 93
        1
300
CONTENTFORMAT
  1
CONTENTFORMAT_BEGIN
 90
        0
 91
        0
 92
      512
 93
        0
300

 40
0.0
140
1.0
 94
        5
 62
     0
340
55
144
0.18
309
CONTENTFORMAT_END
171
     1
301
MARGIN
  1
CELLMARGIN_BEGIN
 40
0.06
 40
0.06
 40
0.06
 40
0.06
 40
0.18
 40
0.18
309
CELLMARGIN_END
 94
        6
 95
        1
302
GRIDFORMAT
  1
GRIDFORMAT_BEGIN
 90
        0
 91
        1
 62
     0
 92
       -2
340
0
 93
        0
 40
0.045
309
GRIDFORMAT_END
 95
        2
302
GRIDFORMAT
  1
GRIDFORMAT_BEGIN
 90
        0
 91
        1
 62
     0
 92
       -2
340
0
 93
        0
 40
0.045
309
GRIDFORMAT_END
 95
        4
302
GRIDFORMAT
  1
GRIDFORMAT_BEGIN
 90
        0
 91
        1
 62
     0
 92
       -2
340
0
 93
        0
 40
0.045
309
GRIDFORMAT_END
 95
        8
302
GRIDFORMAT
  1
GRIDFORMAT_BEGIN
 90
        0
 91
        1
 62
     0
 92
       -2
340
0
 93
        0
 40
0.045
309
GRIDFORMAT_END
 95
       16
302
GRIDFORMAT
  1
GRIDFORMAT_BEGIN
 90
        0
 91
        1
 62
     0
 92
       -2
340
0
 93
        0
 40
0.045
309
GRIDFORMAT_END
 95
       32
302
GRIDFORMAT
  1
GRIDFORMAT_BEGIN
 90
        0
 91
        1
 62
     0
 92
       -2
340
0
 93
        0
 40
0.045
309
GRIDFORMAT_END
309
TABLEFORMAT_END
  1
CELLSTYLE_BEGIN
 90
        2
 91
        1
300
_HEADER
309
CELLSTYLE_END
300
CELLSTYLE
  1
TABLEFORMAT_BEGIN
 90
        5
170
     1
 91
        0
 92
        0
 62
   257
 93
        1
300
CONTENTFORMAT
  1
CONTENTFORMAT_BEGIN
 90
        0
 91
        0
 92
      512
 93
        0
300

 40
0.0
140
1.0
 94
        2
 62
     0
340
55
144
0.18
309
CONTENTFORMAT_END
171
     1
301
MARGIN
  1
CELLMARGIN_BEGIN
 40
0.06
 40
0.06
 40
0.06
 40
0.06
 40
0.18
 40
0.18
309
CELLMARGIN_END
 94
        6
 95
        1
302
GRIDFORMAT
  1
GRIDFORMAT_BEGIN
 90
        0
 91
        1
 62
     0
 92
       -2
340
0
 93
        0
 40
0.045
309
GRIDFORMAT_END
 95
        2
302
GRIDFORMAT
  1
GRIDFORMAT_BEGIN
 90
        0
 91
        1
 62
     0
 92
       -2
340
0
 93
        0
 40
0.045
309
GRIDFORMAT_END
 95
        4
302
GRIDFORMAT
  1
GRIDFORMAT_BEGIN
 90
        0
 91
        1
 62
     0
 92
       -2
340
0
 93
        0
 40
0.045
309
GRIDFORMAT_END
 95
        8
302
GRIDFORMAT
  1
GRIDFORMAT_BEGIN
 90
        0
 91
        1
 62
     0
 92
       -2
340
0
 93
        0
 40
0.045
309
GRIDFORMAT_END
 95
       16
302
GRIDFORMAT
  1
GRIDFORMAT_BEGIN
 90
        0
 91
        1
 62
     0
 92
       -2
340
0
 93
        0
 40
0.045
309
GRIDFORMAT_END
 95
       32
302
GRIDFORMAT
  1
GRIDFORMAT_BEGIN
 90
        0
 91
        1
 62
     0
 92
       -2
340
0
 93
        0
 40
0.045
309
GRIDFORMAT_END
309
TABLEFORMAT_END
  1
CELLSTYLE_BEGIN
 90
        3
 91
        2
300
_DATA
309
CELLSTYLE_END
  0
ENDSEC
  0
EOF
