M48
; DRILL file {KiCad (5.1.6)-1} date 08/12/20 20:07:58
; FORMAT={3:3/ absolute / metric / suppress leading zeros}
; #@! TF.CreationDate,2020-08-12T20:07:58+02:00
; #@! TF.GenerationSoftware,Kicad,Pcbnew,(5.1.6)-1
FMAT,2
METRIC,TZ
T1C0.300
T2C0.400
T3C0.600
T4C0.900
T5C1.000
T6C1.470
T7C0.650
T8C1.750
T9C3.048
T10C3.988
%
G90
G05
T1
X-80160Y-37230
X-80020Y-63150
X-78820Y-99110
X-78134Y-64004
X-78070Y-98780
X-77850Y-139660
X-77130Y-44210
X-70010Y-121890
X-64030Y-90670
X-55556Y-44715
X-34767Y-45115
X-16344Y-45115
X1551Y-45145
X24356Y-43825
X41434Y-103784
X60484Y-103466
X72330Y-122710
X75242Y-121362
X75795Y-119381
X75860Y-120030
X79534Y-103054
X86120Y-136780
X86370Y-125060
X106720Y-118840
X118120Y-98930
X118470Y-120895
X134780Y-120895
X137130Y-105870
X139790Y-120790
X159250Y-121400
X163320Y-125150
X170710Y-121000
X172290Y-120870
X178760Y-106290
X183380Y-127300
X185286Y-105594
X187330Y-120900
X203110Y-127460
X203295Y-104775
X203800Y-44050
X204860Y-122640
X204940Y-112880
X205030Y-44020
X205140Y-113940
X205180Y-112280
X206060Y-113555
X206445Y-85725
X206620Y-114570
X207990Y-67470
X208150Y-47920
X208150Y-126030
X208500Y-121760
X209310Y-121670
X209480Y-103405
X210290Y-115060
X210355Y-117316
X210860Y-111600
X210860Y-118010
X211180Y-119510
X211760Y-130380
X211792Y-23813
X211798Y-115555
X212890Y-118480
X213400Y-122835
X213520Y-111500
X214990Y-117640
X215060Y-125690
X216205Y-108514
X216756Y-108950
X216820Y-119530
X216820Y-124330
X217261Y-108560
X217300Y-120110
X217310Y-121230
X217730Y-122835
X217800Y-108950
X217830Y-119600
X218271Y-108513
X218276Y-104445
X218730Y-126245
X218810Y-108840
X218820Y-119630
X218860Y-103940
X219350Y-119990
X219370Y-121750
X219400Y-108500
X219410Y-102975
X220290Y-119770
X220320Y-120680
X221400Y-106840
X221800Y-106250
X221990Y-123354
X222400Y-23940
X222590Y-105730
X222800Y-103890
X222820Y-127960
X223647Y-45162
X224065Y-44480
X224260Y-106710
X224430Y-112545
X224483Y-43877
X224940Y-134970
X224980Y-113040
X225150Y-43550
X225660Y-113560
X225680Y-115550
X226460Y-122880
X226802Y-119720
X227290Y-132780
X227310Y-106500
X227310Y-117080
X227820Y-112180
X228370Y-124340
X228520Y-111620
X228890Y-115190
X228910Y-126790
X230410Y-40470
X230480Y-48400
X231260Y-45420
X231440Y-102520
X231780Y-122850
X232090Y-116540
X233200Y-137250
X234140Y-24200
X235520Y-125740
X237770Y-121230
X239840Y-120780
X254030Y-139080
X254220Y-140660
X254490Y-120840
X274710Y-120050
X296060Y-108960
X301470Y-97392
X301990Y-137110
X302280Y-102790
X303370Y-68590
X303410Y-37940
X304120Y-62530
T2
X-81110Y-70660
X-81110Y-99530
X-80960Y-106480
X-80920Y-139220
X-80660Y-63710
X-80640Y-45040
X225590Y-105520
X226420Y-24925
X226470Y-106350
X226600Y-31630
X227690Y-34320
X228620Y-49620
X228640Y-35090
X229550Y-34310
X231010Y-36950
X297590Y-103090
X298500Y-133440
X299520Y-68670
X299750Y-39140
X299880Y-137180
X299890Y-142360
X300020Y-60370
X300921Y-96364
T4
X-65390Y-97950
X215430Y-36030
X217970Y-36030
X-72720Y-97950
X-70180Y-97950
X239230Y-59840
X241770Y-59840
X-67930Y-97950
T5
X71150Y-124610
X71150Y-127150
X73690Y-124610
X73690Y-127150
X76230Y-124610
X76230Y-127150
X78770Y-124610
X78770Y-127150
X81310Y-124610
X81310Y-127150
T6
X274796Y-128429
X281146Y-125889
X274796Y-71279
X281146Y-68739
X-39529Y-52229
X-33179Y-49689
X274796Y-90329
X281146Y-87789
X-6191Y-90329
X159Y-87789
X84296Y-28416
X90646Y-25876
X3334Y-109379
X9684Y-106839
X79534Y-109379
X85884Y-106839
X46196Y-71279
X52546Y-68739
X-10954Y-71279
X-4604Y-68739
X146209Y-28416
X152559Y-25876
X136684Y-109379
X143034Y-106839
X212884Y-90329
X219234Y-87789
X-44291Y-90329
X-37941Y-87789
X255746Y-71279
X262096Y-68739
X-70485Y-90329
X-64135Y-87789
X-53816Y-28416
X-47466Y-25876
X300196Y-117634
X302736Y-123984
X293846Y-28416
X300196Y-25876
X274796Y-109379
X281146Y-106839
X3334Y-28416
X9684Y-25876
X84296Y-71279
X90646Y-68739
X17621Y-52229
X23971Y-49689
X46196Y-28416
X52546Y-25876
X-65722Y-109379
X-59372Y-106839
X41434Y-109379
X47784Y-106839
X-15716Y-109379
X-9366Y-106839
X165259Y-28416
X171609Y-25876
X236696Y-90329
X243046Y-87789
X174784Y-133191
X181134Y-130651
X212884Y-71279
X219234Y-68739
X274796Y-28416
X281146Y-25876
X255746Y-109379
X262096Y-106839
X236696Y-52229
X243046Y-49689
X8096Y-71279
X14446Y-68739
X-1429Y-52229
X4921Y-49689
X50959Y-90329
X57309Y-87789
X127159Y-28416
X133509Y-25876
X55721Y-52229
X62071Y-49689
X103346Y-71279
X109696Y-68739
X236696Y-71279
X243046Y-68739
X131921Y-52229
X138271Y-49689
X-77629Y-28416
X-71279Y-25876
X150971Y-52229
X157321Y-49689
X-72866Y-71279
X-66516Y-68739
X300196Y-79534
X302736Y-85884
X-58579Y-52229
X-52229Y-49689
X246221Y-128429
X252571Y-125889
X-25241Y-90329
X-18891Y-87789
X27146Y-28416
X33496Y-25876
X212884Y-28416
X219234Y-25876
X27146Y-71279
X33496Y-68739
X74771Y-52229
X81121Y-49689
X112871Y-52229
X119221Y-49689
X108109Y-28416
X114459Y-25876
X122396Y-71279
X128746Y-68739
X162878Y-109379
X169228Y-106839
X146209Y-90329
X152559Y-87789
X177165Y-90329
X183515Y-87789
X255746Y-28416
X262096Y-25876
X184309Y-71279
X190659Y-68739
X-49054Y-71279
X-42704Y-68739
X274796Y-52229
X281146Y-49689
X236696Y-109379
X243046Y-106839
X-44291Y-128429
X-37941Y-125889
X31909Y-90329
X38259Y-87789
X36671Y-52229
X43021Y-49689
X-30004Y-71279
X-23654Y-68739
X108109Y-90329
X114459Y-87789
X-34766Y-109379
X-28416Y-106839
X36671Y-128429
X43021Y-125889
X127159Y-90329
X133509Y-87789
X193834Y-133191
X200184Y-130651
X193834Y-114141
X200184Y-111601
X-77629Y-52229
X-71279Y-49689
X160496Y-71279
X166846Y-68739
X255746Y-52229
X262096Y-49689
X255746Y-90329
X262096Y-87789
X293846Y-52229
X300196Y-49689
X-15716Y-28416
X-9366Y-25876
X98584Y-109379
X104934Y-106839
X12859Y-90329
X19209Y-87789
X60484Y-109379
X66834Y-106839
X65246Y-28416
X71596Y-25876
X89059Y-90329
X95409Y-87789
X117634Y-109379
X123984Y-106839
X189071Y-28416
X195421Y-25876
X212884Y-133191
X219234Y-130651
X212884Y-52229
X219234Y-49689
X-72866Y-128429
X-66516Y-125889
X-34766Y-28416
X-28416Y-25876
X-20479Y-52229
X-14129Y-49689
X65246Y-71279
X71596Y-68739
X93821Y-52229
X100171Y-49689
X117634Y-128429
X123984Y-125889
X22384Y-109379
X28734Y-106839
X70009Y-90329
X76359Y-87789
X146209Y-128429
X152559Y-125889
X179546Y-52229
X185896Y-49689
X141446Y-71279
X147796Y-68739
X236696Y-28416
X243046Y-25876
X-75270Y-90340
X-68920Y-87800
T7
X225710Y-21761
X231490Y-21761
T8
X235426Y-30956
X245586Y-30956
X-76540Y-92880
X-66380Y-92880
X273526Y-130969
X283686Y-130969
X273526Y-73819
X283686Y-73819
X-40799Y-54769
X-30639Y-54769
X273526Y-92869
X283686Y-92869
X-7461Y-92869
X2699Y-92869
X83026Y-30956
X93186Y-30956
X2064Y-111919
X12224Y-111919
X78264Y-111919
X88424Y-111919
X44926Y-73819
X55086Y-73819
X-12224Y-73819
X-2064Y-73819
X144939Y-30956
X155099Y-30956
X135414Y-111919
X145574Y-111919
X211614Y-92869
X221774Y-92869
X-45561Y-92869
X-35401Y-92869
X254476Y-73819
X264636Y-73819
X-71755Y-92869
X-61595Y-92869
X-55086Y-30956
X-44926Y-30956
X297656Y-116364
X297656Y-126524
X292576Y-30956
X302736Y-30956
X273526Y-111919
X283686Y-111919
X2064Y-30956
X12224Y-30956
X83026Y-73819
X93186Y-73819
X16351Y-54769
X26511Y-54769
X44926Y-30956
X55086Y-30956
X-66993Y-111919
X-56832Y-111919
X40164Y-111919
X50324Y-111919
X-16986Y-111919
X-6826Y-111919
X163989Y-30956
X174149Y-30956
X235426Y-92869
X245586Y-92869
X173514Y-135731
X183674Y-135731
X211614Y-73819
X221774Y-73819
X273526Y-30956
X283686Y-30956
X254476Y-111919
X264636Y-111919
X235426Y-54769
X245586Y-54769
X6826Y-73819
X16986Y-73819
X-2699Y-54769
X7461Y-54769
X49689Y-92869
X59849Y-92869
X125889Y-30956
X136049Y-30956
X54451Y-54769
X64611Y-54769
X102076Y-73819
X112236Y-73819
X235426Y-73819
X245586Y-73819
X130651Y-54769
X140811Y-54769
X-78899Y-30956
X-68739Y-30956
X149701Y-54769
X159861Y-54769
X-74136Y-73819
X-63976Y-73819
X297656Y-78264
X297656Y-88424
X-59849Y-54769
X-49689Y-54769
X244951Y-130969
X255111Y-130969
X-26511Y-92869
X-16351Y-92869
X25876Y-30956
X36036Y-30956
X211614Y-30956
X221774Y-30956
X25876Y-73819
X36036Y-73819
X73501Y-54769
X83661Y-54769
X111601Y-54769
X121761Y-54769
X106839Y-30956
X116999Y-30956
X121126Y-73819
X131286Y-73819
X161607Y-111919
X171767Y-111919
X144939Y-92869
X155099Y-92869
X175895Y-92869
X186055Y-92869
X254476Y-30956
X264636Y-30956
X183039Y-73819
X193199Y-73819
X-50324Y-73819
X-40164Y-73819
X273526Y-54769
X283686Y-54769
X235426Y-111919
X245586Y-111919
X-45561Y-130969
X-35401Y-130969
X30639Y-92869
X40799Y-92869
X35401Y-54769
X45561Y-54769
X-31274Y-73819
X-21114Y-73819
X106839Y-92869
X116999Y-92869
X-36036Y-111919
X-25876Y-111919
X35401Y-130969
X45561Y-130969
X125889Y-92869
X136049Y-92869
X192564Y-135731
X202724Y-135731
X192564Y-116681
X202724Y-116681
X-78899Y-54769
X-68739Y-54769
X159226Y-73819
X169386Y-73819
X254476Y-54769
X264636Y-54769
X254476Y-92869
X264636Y-92869
X292576Y-54769
X302736Y-54769
X-16986Y-30956
X-6826Y-30956
X97314Y-111919
X107474Y-111919
X11589Y-92869
X21749Y-92869
X59214Y-111919
X69374Y-111919
X63976Y-30956
X74136Y-30956
X87789Y-92869
X97949Y-92869
X116364Y-111919
X126524Y-111919
X187801Y-30956
X197961Y-30956
X211614Y-135731
X221774Y-135731
X211614Y-54769
X221774Y-54769
X-74136Y-130969
X-63976Y-130969
X-36036Y-30956
X-25876Y-30956
X-21749Y-54769
X-11589Y-54769
X63976Y-73819
X74136Y-73819
X92551Y-54769
X102711Y-54769
X116364Y-130969
X126524Y-130969
X21114Y-111919
X31274Y-111919
X68739Y-92869
X78899Y-92869
X144939Y-130969
X155099Y-130969
X178276Y-54769
X188436Y-54769
X140176Y-73819
X150336Y-73819
T9
X304641Y-109538
X304641Y-133350
X-73819Y-104934
X-50006Y-104934
X304641Y-71438
X304641Y-95250
X238125Y-123984
X261938Y-123984
X169069Y-85884
X192881Y-85884
X-16669Y-123984
X97631Y-123984
X171450Y-47784
X195263Y-47784
T10
X278606Y-130969
X278606Y-73819
X-35719Y-54769
X278606Y-92869
X-2381Y-92869
X88106Y-30956
X7144Y-111919
X83344Y-111919
X50006Y-73819
X-7144Y-73819
X150019Y-30956
X140494Y-111919
X216694Y-92869
X-40481Y-92869
X259556Y-73819
X-66675Y-92869
X-50006Y-30956
X289401Y-109538
X289401Y-133350
X297656Y-121444
X297656Y-30956
X278606Y-111919
X7144Y-30956
X88106Y-73819
X21431Y-54769
X50006Y-30956
X-73819Y-120174
X-61913Y-111919
X-50006Y-120174
X45244Y-111919
X-11906Y-111919
X169069Y-30956
X240506Y-92869
X178594Y-135731
X216694Y-73819
X278606Y-30956
X259556Y-111919
X240506Y-54769
X11906Y-73819
X2381Y-54769
X54769Y-92869
X130969Y-30956
X59531Y-54769
X107156Y-73819
X240506Y-73819
X135731Y-54769
X-73819Y-30956
X154781Y-54769
X-69056Y-73819
X289401Y-71438
X289401Y-95250
X297656Y-83344
X-54769Y-54769
X238125Y-139224
X250031Y-130969
X261938Y-139224
X-21431Y-92869
X30956Y-30956
X216694Y-30956
X30956Y-73819
X78581Y-54769
X116681Y-54769
X111919Y-30956
X126206Y-73819
X166688Y-111919
X150019Y-92869
X169069Y-101124
X180975Y-92869
X192881Y-101124
X259556Y-30956
X188119Y-73819
X-45244Y-73819
X278606Y-54769
X240506Y-111919
X-40481Y-130969
X35719Y-92869
X40481Y-54769
X-26194Y-73819
X111919Y-92869
X-30956Y-111919
X-16669Y-139224
X40481Y-130969
X97631Y-139224
X130969Y-92869
X197644Y-135731
X197644Y-116681
X-73819Y-54769
X164306Y-73819
X259556Y-54769
X259556Y-92869
X297656Y-54769
X-11906Y-30956
X102394Y-111919
X16669Y-92869
X64294Y-111919
X69056Y-30956
X92869Y-92869
X121444Y-111919
X192881Y-30956
X216694Y-135731
X216694Y-54769
X-69056Y-130969
X-30956Y-30956
X-16669Y-54769
X69056Y-73819
X97631Y-54769
X121444Y-130969
X26194Y-111919
X73819Y-92869
X150019Y-130969
X171450Y-63024
X183356Y-54769
X195263Y-63024
X145256Y-73819
X240506Y-30956
X-71460Y-92880
T3
G00X224300Y-17813
M15
G01X224300Y-18412
M16
G05
G00X224300Y-21763
M15
G01X224300Y-22863
M16
G05
G00X232900Y-17813
M15
G01X232900Y-18412
M16
G05
G00X232900Y-21763
M15
G01X232900Y-22863
M16
G05
T0
M30
