%TF.GenerationSoftware,KiCad,Pcbnew,(5.1.6)-1*%
%TF.CreationDate,2020-08-12T20:07:55+02:00*%
%TF.ProjectId,Proyecto CFSUnderglow,50726f79-6563-4746-9f20-434653556e64,rev?*%
%TF.SameCoordinates,Original*%
%TF.FileFunction,Copper,L1,Top*%
%TF.FilePolarity,Positive*%
%FSLAX46Y46*%
G04 Gerber Fmt 4.6, Leading zero omitted, Abs format (unit mm)*
G04 Created by KiCad (PCBNEW (5.1.6)-1) date 2020-08-12 20:07:55*
%MOMM*%
%LPD*%
G01*
G04 APERTURE LIST*
%TA.AperFunction,ComponentPad*%
%ADD10C,2.250000*%
%TD*%
%TA.AperFunction,ComponentPad*%
%ADD11C,1.800000*%
%TD*%
%TA.AperFunction,ComponentPad*%
%ADD12R,1.800000X1.800000*%
%TD*%
%TA.AperFunction,ComponentPad*%
%ADD13O,1.700000X1.700000*%
%TD*%
%TA.AperFunction,ComponentPad*%
%ADD14R,1.700000X1.700000*%
%TD*%
%TA.AperFunction,ComponentPad*%
%ADD15O,1.100000X2.200000*%
%TD*%
%TA.AperFunction,ComponentPad*%
%ADD16O,1.300000X1.900000*%
%TD*%
%TA.AperFunction,ViaPad*%
%ADD17C,0.500000*%
%TD*%
%TA.AperFunction,ViaPad*%
%ADD18C,0.800000*%
%TD*%
%TA.AperFunction,Conductor*%
%ADD19C,0.250000*%
%TD*%
%TA.AperFunction,Conductor*%
%ADD20C,0.380000*%
%TD*%
G04 APERTURE END LIST*
D10*
%TO.P,SW78,2*%
%TO.N,Net-(D78-Pad2)*%
X219233750Y-25876250D03*
%TO.P,SW78,1*%
%TO.N,COL-15*%
X212883750Y-28416250D03*
%TD*%
%TO.P,SW102,2*%
%TO.N,Net-(D102-Pad2)*%
X302736250Y-85883750D03*
%TO.P,SW102,1*%
%TO.N,COL-19*%
X300196250Y-79533750D03*
%TD*%
%TO.P,SW84,2*%
%TO.N,Net-(D84-Pad2)*%
X243046250Y-49688750D03*
%TO.P,SW84,1*%
%TO.N,COL-16*%
X236696250Y-52228750D03*
%TD*%
%TO.P,SW8,2*%
%TO.N,Net-(D6-Pad2)*%
X-64135000Y-87788750D03*
%TO.P,SW8,1*%
%TO.N,COL-1*%
X-70485000Y-90328750D03*
%TD*%
%TO.P,SW5,2*%
%TO.N,Net-(D6-Pad2)*%
X-68920000Y-87800000D03*
%TO.P,SW5,1*%
%TO.N,COL-1*%
X-75270000Y-90340000D03*
%TD*%
%TO.P,SW34,2*%
%TO.N,Net-(D34-Pad2)*%
X43021250Y-125888750D03*
%TO.P,SW34,1*%
%TO.N,COL-6*%
X36671250Y-128428750D03*
%TD*%
%TO.P,SW4,2*%
%TO.N,Net-(D5-Pad2)*%
X-66516250Y-68738750D03*
%TO.P,SW4,1*%
%TO.N,COL-1*%
X-72866250Y-71278750D03*
%TD*%
D11*
%TO.P,LEDCAPS2,2*%
%TO.N,INDICATOR2*%
X-72720000Y-97950000D03*
D12*
%TO.P,LEDCAPS2,1*%
%TO.N,Net-(LEDCAPS1-Pad1)*%
X-70180000Y-97950000D03*
%TD*%
D10*
%TO.P,SW76,2*%
%TO.N,Net-(D76-Pad2)*%
X190658750Y-68738750D03*
%TO.P,SW76,1*%
%TO.N,COL-14*%
X184308750Y-71278750D03*
%TD*%
%TO.P,SW103,1*%
%TO.N,COL-19*%
X300196250Y-117633750D03*
%TO.P,SW103,2*%
%TO.N,Net-(D123-Pad2)*%
X302736250Y-123983750D03*
%TD*%
%TO.P,SW101,2*%
%TO.N,Net-(D101-Pad2)*%
X300196250Y-49688750D03*
%TO.P,SW101,1*%
%TO.N,COL-19*%
X293846250Y-52228750D03*
%TD*%
%TO.P,SW100,2*%
%TO.N,Net-(D100-Pad2)*%
X300196250Y-25876250D03*
%TO.P,SW100,1*%
%TO.N,COL-19*%
X293846250Y-28416250D03*
%TD*%
%TO.P,SW99,2*%
%TO.N,Net-(D99-Pad2)*%
X281146250Y-125888750D03*
%TO.P,SW99,1*%
%TO.N,COL-18*%
X274796250Y-128428750D03*
%TD*%
%TO.P,SW98,2*%
%TO.N,Net-(D98-Pad2)*%
X281146250Y-106838750D03*
%TO.P,SW98,1*%
%TO.N,COL-18*%
X274796250Y-109378750D03*
%TD*%
%TO.P,SW97,2*%
%TO.N,Net-(D97-Pad2)*%
X281146250Y-87788750D03*
%TO.P,SW97,1*%
%TO.N,COL-18*%
X274796250Y-90328750D03*
%TD*%
%TO.P,SW96,2*%
%TO.N,Net-(D96-Pad2)*%
X281146250Y-68738750D03*
%TO.P,SW96,1*%
%TO.N,COL-18*%
X274796250Y-71278750D03*
%TD*%
%TO.P,SW95,2*%
%TO.N,Net-(D95-Pad2)*%
X281146250Y-49688750D03*
%TO.P,SW95,1*%
%TO.N,COL-18*%
X274796250Y-52228750D03*
%TD*%
%TO.P,SW94,2*%
%TO.N,Net-(D94-Pad2)*%
X281146250Y-25876250D03*
%TO.P,SW94,1*%
%TO.N,COL-18*%
X274796250Y-28416250D03*
%TD*%
%TO.P,SW93,2*%
%TO.N,Net-(D93-Pad2)*%
X252571250Y-125888750D03*
%TO.P,SW93,1*%
%TO.N,COL-17*%
X246221250Y-128428750D03*
%TD*%
%TO.P,SW92,2*%
%TO.N,Net-(D92-Pad2)*%
X262096250Y-106838750D03*
%TO.P,SW92,1*%
%TO.N,COL-17*%
X255746250Y-109378750D03*
%TD*%
%TO.P,SW91,2*%
%TO.N,Net-(D91-Pad2)*%
X262096250Y-87788750D03*
%TO.P,SW91,1*%
%TO.N,COL-17*%
X255746250Y-90328750D03*
%TD*%
%TO.P,SW90,2*%
%TO.N,Net-(D90-Pad2)*%
X262096250Y-68738750D03*
%TO.P,SW90,1*%
%TO.N,COL-17*%
X255746250Y-71278750D03*
%TD*%
%TO.P,SW89,2*%
%TO.N,Net-(D89-Pad2)*%
X262096250Y-49688750D03*
%TO.P,SW89,1*%
%TO.N,COL-17*%
X255746250Y-52228750D03*
%TD*%
%TO.P,SW88,2*%
%TO.N,Net-(D88-Pad2)*%
X262096250Y-25876250D03*
%TO.P,SW88,1*%
%TO.N,COL-17*%
X255746250Y-28416250D03*
%TD*%
%TO.P,SW87,2*%
%TO.N,Net-(D87-Pad2)*%
X243046250Y-106838750D03*
%TO.P,SW87,1*%
%TO.N,COL-16*%
X236696250Y-109378750D03*
%TD*%
%TO.P,SW86,2*%
%TO.N,Net-(D86-Pad2)*%
X243046250Y-87788750D03*
%TO.P,SW86,1*%
%TO.N,COL-16*%
X236696250Y-90328750D03*
%TD*%
%TO.P,SW85,2*%
%TO.N,Net-(D85-Pad2)*%
X243046250Y-68738750D03*
%TO.P,SW85,1*%
%TO.N,COL-16*%
X236696250Y-71278750D03*
%TD*%
%TO.P,SW83,2*%
%TO.N,Net-(D83-Pad2)*%
X243046250Y-25876250D03*
%TO.P,SW83,1*%
%TO.N,COL-16*%
X236696250Y-28416250D03*
%TD*%
%TO.P,SW82,2*%
%TO.N,Net-(D82-Pad2)*%
X219233750Y-130651250D03*
%TO.P,SW82,1*%
%TO.N,COL-15*%
X212883750Y-133191250D03*
%TD*%
%TO.P,SW81,2*%
%TO.N,Net-(D81-Pad2)*%
X219233750Y-87788750D03*
%TO.P,SW81,1*%
%TO.N,COL-15*%
X212883750Y-90328750D03*
%TD*%
%TO.P,SW80,2*%
%TO.N,Net-(D80-Pad2)*%
X219233750Y-68738750D03*
%TO.P,SW80,1*%
%TO.N,COL-15*%
X212883750Y-71278750D03*
%TD*%
%TO.P,SW79,2*%
%TO.N,Net-(D79-Pad2)*%
X219233750Y-49688750D03*
%TO.P,SW79,1*%
%TO.N,COL-15*%
X212883750Y-52228750D03*
%TD*%
%TO.P,SW77,2*%
%TO.N,Net-(D77-Pad2)*%
X200183750Y-111601250D03*
%TO.P,SW77,1*%
%TO.N,COL-14*%
X193833750Y-114141250D03*
%TD*%
%TO.P,SW75,2*%
%TO.N,Net-(D75-Pad2)*%
X185896250Y-49688750D03*
%TO.P,SW75,1*%
%TO.N,COL-14*%
X179546250Y-52228750D03*
%TD*%
%TO.P,SW74,2*%
%TO.N,Net-(D74-Pad2)*%
X195421250Y-25876250D03*
%TO.P,SW74,1*%
%TO.N,COL-14*%
X189071250Y-28416250D03*
%TD*%
%TO.P,SW73,2*%
%TO.N,Net-(D73-Pad2)*%
X200183750Y-130651250D03*
%TO.P,SW73,1*%
%TO.N,COL-13*%
X193833750Y-133191250D03*
%TD*%
%TO.P,SW72,2*%
%TO.N,Net-(D72-Pad2)*%
X169227500Y-106838750D03*
%TO.P,SW72,1*%
%TO.N,COL-13*%
X162877500Y-109378750D03*
%TD*%
%TO.P,SW71,2*%
%TO.N,Net-(D71-Pad2)*%
X183515000Y-87788750D03*
%TO.P,SW71,1*%
%TO.N,COL-13*%
X177165000Y-90328750D03*
%TD*%
%TO.P,SW70,2*%
%TO.N,Net-(D70-Pad2)*%
X166846250Y-68738750D03*
%TO.P,SW70,1*%
%TO.N,COL-13*%
X160496250Y-71278750D03*
%TD*%
%TO.P,SW69,2*%
%TO.N,Net-(D69-Pad2)*%
X157321250Y-49688750D03*
%TO.P,SW69,1*%
%TO.N,COL-13*%
X150971250Y-52228750D03*
%TD*%
%TO.P,SW68,2*%
%TO.N,Net-(D68-Pad2)*%
X171608750Y-25876250D03*
%TO.P,SW68,1*%
%TO.N,COL-13*%
X165258750Y-28416250D03*
%TD*%
%TO.P,SW67,2*%
%TO.N,Net-(D67-Pad2)*%
X181133750Y-130651250D03*
%TO.P,SW67,1*%
%TO.N,COL-12*%
X174783750Y-133191250D03*
%TD*%
%TO.P,SW66,2*%
%TO.N,Net-(D66-Pad2)*%
X143033750Y-106838750D03*
%TO.P,SW66,1*%
%TO.N,COL-12*%
X136683750Y-109378750D03*
%TD*%
%TO.P,SW65,2*%
%TO.N,Net-(D65-Pad2)*%
X152558750Y-87788750D03*
%TO.P,SW65,1*%
%TO.N,COL-12*%
X146208750Y-90328750D03*
%TD*%
%TO.P,SW64,2*%
%TO.N,Net-(D64-Pad2)*%
X147796250Y-68738750D03*
%TO.P,SW64,1*%
%TO.N,COL-12*%
X141446250Y-71278750D03*
%TD*%
%TO.P,SW63,2*%
%TO.N,Net-(D63-Pad2)*%
X138271250Y-49688750D03*
%TO.P,SW63,1*%
%TO.N,COL-12*%
X131921250Y-52228750D03*
%TD*%
%TO.P,SW62,2*%
%TO.N,Net-(D62-Pad2)*%
X152558750Y-25876250D03*
%TO.P,SW62,1*%
%TO.N,COL-12*%
X146208750Y-28416250D03*
%TD*%
%TO.P,SW61,2*%
%TO.N,Net-(D61-Pad2)*%
X152558750Y-125888750D03*
%TO.P,SW61,1*%
%TO.N,COL-11*%
X146208750Y-128428750D03*
%TD*%
%TO.P,SW60,2*%
%TO.N,Net-(D60-Pad2)*%
X123983750Y-106838750D03*
%TO.P,SW60,1*%
%TO.N,COL-11*%
X117633750Y-109378750D03*
%TD*%
%TO.P,SW59,2*%
%TO.N,Net-(D59-Pad2)*%
X133508750Y-87788750D03*
%TO.P,SW59,1*%
%TO.N,COL-11*%
X127158750Y-90328750D03*
%TD*%
%TO.P,SW58,2*%
%TO.N,Net-(D58-Pad2)*%
X128746250Y-68738750D03*
%TO.P,SW58,1*%
%TO.N,COL-11*%
X122396250Y-71278750D03*
%TD*%
%TO.P,SW57,2*%
%TO.N,Net-(D57-Pad2)*%
X119221250Y-49688750D03*
%TO.P,SW57,1*%
%TO.N,COL-11*%
X112871250Y-52228750D03*
%TD*%
%TO.P,SW56,2*%
%TO.N,Net-(D56-Pad2)*%
X133508750Y-25876250D03*
%TO.P,SW56,1*%
%TO.N,COL-11*%
X127158750Y-28416250D03*
%TD*%
%TO.P,SW55,2*%
%TO.N,Net-(D55-Pad2)*%
X123983750Y-125888750D03*
%TO.P,SW55,1*%
%TO.N,COL-10*%
X117633750Y-128428750D03*
%TD*%
%TO.P,SW54,1*%
%TO.N,COL-10*%
X98583750Y-109378750D03*
%TO.P,SW54,2*%
%TO.N,Net-(D54-Pad2)*%
X104933750Y-106838750D03*
%TD*%
%TO.P,SW53,2*%
%TO.N,Net-(D53-Pad2)*%
X114458750Y-87788750D03*
%TO.P,SW53,1*%
%TO.N,COL-10*%
X108108750Y-90328750D03*
%TD*%
%TO.P,SW52,2*%
%TO.N,Net-(D52-Pad2)*%
X109696250Y-68738750D03*
%TO.P,SW52,1*%
%TO.N,COL-10*%
X103346250Y-71278750D03*
%TD*%
%TO.P,SW51,2*%
%TO.N,Net-(D51-Pad2)*%
X100171250Y-49688750D03*
%TO.P,SW51,1*%
%TO.N,COL-10*%
X93821250Y-52228750D03*
%TD*%
%TO.P,SW50,2*%
%TO.N,Net-(D50-Pad2)*%
X114458750Y-25876250D03*
%TO.P,SW50,1*%
%TO.N,COL-10*%
X108108750Y-28416250D03*
%TD*%
%TO.P,SW49,2*%
%TO.N,Net-(D49-Pad2)*%
X85883750Y-106838750D03*
%TO.P,SW49,1*%
%TO.N,COL-9*%
X79533750Y-109378750D03*
%TD*%
%TO.P,SW48,2*%
%TO.N,Net-(D48-Pad2)*%
X95408750Y-87788750D03*
%TO.P,SW48,1*%
%TO.N,COL-9*%
X89058750Y-90328750D03*
%TD*%
%TO.P,SW47,2*%
%TO.N,Net-(D47-Pad2)*%
X90646250Y-68738750D03*
%TO.P,SW47,1*%
%TO.N,COL-9*%
X84296250Y-71278750D03*
%TD*%
%TO.P,SW46,2*%
%TO.N,Net-(D46-Pad2)*%
X81121250Y-49688750D03*
%TO.P,SW46,1*%
%TO.N,COL-9*%
X74771250Y-52228750D03*
%TD*%
%TO.P,SW45,2*%
%TO.N,Net-(D45-Pad2)*%
X90646250Y-25876250D03*
%TO.P,SW45,1*%
%TO.N,COL-9*%
X84296250Y-28416250D03*
%TD*%
%TO.P,SW44,2*%
%TO.N,Net-(D44-Pad2)*%
X66833750Y-106838750D03*
%TO.P,SW44,1*%
%TO.N,COL-8*%
X60483750Y-109378750D03*
%TD*%
%TO.P,SW43,2*%
%TO.N,Net-(D43-Pad2)*%
X76358750Y-87788750D03*
%TO.P,SW43,1*%
%TO.N,COL-8*%
X70008750Y-90328750D03*
%TD*%
%TO.P,SW42,2*%
%TO.N,Net-(D42-Pad2)*%
X71596250Y-68738750D03*
%TO.P,SW42,1*%
%TO.N,COL-8*%
X65246250Y-71278750D03*
%TD*%
%TO.P,SW41,2*%
%TO.N,Net-(D41-Pad2)*%
X62071250Y-49688750D03*
%TO.P,SW41,1*%
%TO.N,COL-8*%
X55721250Y-52228750D03*
%TD*%
%TO.P,SW40,2*%
%TO.N,Net-(D40-Pad2)*%
X71596250Y-25876250D03*
%TO.P,SW40,1*%
%TO.N,COL-8*%
X65246250Y-28416250D03*
%TD*%
%TO.P,SW39,2*%
%TO.N,Net-(D39-Pad2)*%
X47783750Y-106838750D03*
%TO.P,SW39,1*%
%TO.N,COL-7*%
X41433750Y-109378750D03*
%TD*%
%TO.P,SW38,2*%
%TO.N,Net-(D38-Pad2)*%
X57308750Y-87788750D03*
%TO.P,SW38,1*%
%TO.N,COL-7*%
X50958750Y-90328750D03*
%TD*%
%TO.P,SW37,2*%
%TO.N,Net-(D37-Pad2)*%
X52546250Y-68738750D03*
%TO.P,SW37,1*%
%TO.N,COL-7*%
X46196250Y-71278750D03*
%TD*%
%TO.P,SW36,2*%
%TO.N,Net-(D36-Pad2)*%
X43021250Y-49688750D03*
%TO.P,SW36,1*%
%TO.N,COL-7*%
X36671250Y-52228750D03*
%TD*%
%TO.P,SW35,2*%
%TO.N,Net-(D35-Pad2)*%
X52546250Y-25876250D03*
%TO.P,SW35,1*%
%TO.N,COL-7*%
X46196250Y-28416250D03*
%TD*%
%TO.P,SW33,2*%
%TO.N,Net-(D33-Pad2)*%
X28733750Y-106838750D03*
%TO.P,SW33,1*%
%TO.N,COL-6*%
X22383750Y-109378750D03*
%TD*%
%TO.P,SW32,2*%
%TO.N,Net-(D32-Pad2)*%
X38258750Y-87788750D03*
%TO.P,SW32,1*%
%TO.N,COL-6*%
X31908750Y-90328750D03*
%TD*%
%TO.P,SW31,2*%
%TO.N,Net-(D31-Pad2)*%
X33496250Y-68738750D03*
%TO.P,SW31,1*%
%TO.N,COL-6*%
X27146250Y-71278750D03*
%TD*%
%TO.P,SW30,2*%
%TO.N,Net-(D30-Pad2)*%
X23971250Y-49688750D03*
%TO.P,SW30,1*%
%TO.N,COL-6*%
X17621250Y-52228750D03*
%TD*%
%TO.P,SW29,2*%
%TO.N,Net-(D29-Pad2)*%
X33496250Y-25876250D03*
%TO.P,SW29,1*%
%TO.N,COL-6*%
X27146250Y-28416250D03*
%TD*%
%TO.P,SW28,2*%
%TO.N,Net-(D28-Pad2)*%
X9683750Y-106838750D03*
%TO.P,SW28,1*%
%TO.N,COL-5*%
X3333750Y-109378750D03*
%TD*%
%TO.P,SW27,2*%
%TO.N,Net-(D27-Pad2)*%
X19208750Y-87788750D03*
%TO.P,SW27,1*%
%TO.N,COL-5*%
X12858750Y-90328750D03*
%TD*%
%TO.P,SW26,2*%
%TO.N,Net-(D26-Pad2)*%
X14446250Y-68738750D03*
%TO.P,SW26,1*%
%TO.N,COL-5*%
X8096250Y-71278750D03*
%TD*%
%TO.P,SW25,2*%
%TO.N,Net-(D25-Pad2)*%
X4921250Y-49688750D03*
%TO.P,SW25,1*%
%TO.N,COL-5*%
X-1428750Y-52228750D03*
%TD*%
%TO.P,SW24,2*%
%TO.N,Net-(D24-Pad2)*%
X9683750Y-25876250D03*
%TO.P,SW24,1*%
%TO.N,COL-5*%
X3333750Y-28416250D03*
%TD*%
%TO.P,SW23,2*%
%TO.N,Net-(D23-Pad2)*%
X-9366250Y-106838750D03*
%TO.P,SW23,1*%
%TO.N,COL-4*%
X-15716250Y-109378750D03*
%TD*%
%TO.P,SW22,2*%
%TO.N,Net-(D22-Pad2)*%
X158750Y-87788750D03*
%TO.P,SW22,1*%
%TO.N,COL-4*%
X-6191250Y-90328750D03*
%TD*%
%TO.P,SW21,2*%
%TO.N,Net-(D21-Pad2)*%
X-4603750Y-68738750D03*
%TO.P,SW21,1*%
%TO.N,COL-4*%
X-10953750Y-71278750D03*
%TD*%
%TO.P,SW20,2*%
%TO.N,Net-(D20-Pad2)*%
X-14128750Y-49688750D03*
%TO.P,SW20,1*%
%TO.N,COL-4*%
X-20478750Y-52228750D03*
%TD*%
%TO.P,SW19,2*%
%TO.N,Net-(D19-Pad2)*%
X-9366250Y-25876250D03*
%TO.P,SW19,1*%
%TO.N,COL-4*%
X-15716250Y-28416250D03*
%TD*%
%TO.P,SW18,2*%
%TO.N,Net-(D18-Pad2)*%
X-37941250Y-125888750D03*
%TO.P,SW18,1*%
%TO.N,COL-3*%
X-44291250Y-128428750D03*
%TD*%
%TO.P,SW17,2*%
%TO.N,Net-(D17-Pad2)*%
X-28416250Y-106838750D03*
%TO.P,SW17,1*%
%TO.N,COL-3*%
X-34766250Y-109378750D03*
%TD*%
%TO.P,SW16,2*%
%TO.N,Net-(D16-Pad2)*%
X-18891250Y-87788750D03*
%TO.P,SW16,1*%
%TO.N,COL-3*%
X-25241250Y-90328750D03*
%TD*%
%TO.P,SW15,2*%
%TO.N,Net-(D15-Pad2)*%
X-23653750Y-68738750D03*
%TO.P,SW15,1*%
%TO.N,COL-3*%
X-30003750Y-71278750D03*
%TD*%
%TO.P,SW14,2*%
%TO.N,Net-(D14-Pad2)*%
X-33178750Y-49688750D03*
%TO.P,SW14,1*%
%TO.N,COL-3*%
X-39528750Y-52228750D03*
%TD*%
%TO.P,SW13,2*%
%TO.N,Net-(D13-Pad2)*%
X-28416250Y-25876250D03*
%TO.P,SW13,1*%
%TO.N,COL-3*%
X-34766250Y-28416250D03*
%TD*%
%TO.P,SW12,2*%
%TO.N,Net-(D12-Pad2)*%
X-37941250Y-87788750D03*
%TO.P,SW12,1*%
%TO.N,COL-2*%
X-44291250Y-90328750D03*
%TD*%
%TO.P,SW11,2*%
%TO.N,Net-(D11-Pad2)*%
X-42703750Y-68738750D03*
%TO.P,SW11,1*%
%TO.N,COL-2*%
X-49053750Y-71278750D03*
%TD*%
%TO.P,SW10,2*%
%TO.N,Net-(D10-Pad2)*%
X-52228750Y-49688750D03*
%TO.P,SW10,1*%
%TO.N,COL-2*%
X-58578750Y-52228750D03*
%TD*%
%TO.P,SW9,2*%
%TO.N,Net-(D9-Pad2)*%
X-47466250Y-25876250D03*
%TO.P,SW9,1*%
%TO.N,COL-2*%
X-53816250Y-28416250D03*
%TD*%
%TO.P,SW7,2*%
%TO.N,Net-(D8-Pad2)*%
X-66516250Y-125888750D03*
%TO.P,SW7,1*%
%TO.N,COL-1*%
X-72866250Y-128428750D03*
%TD*%
%TO.P,SW6,2*%
%TO.N,Net-(D7-Pad2)*%
X-59372500Y-106838750D03*
%TO.P,SW6,1*%
%TO.N,COL-1*%
X-65722500Y-109378750D03*
%TD*%
%TO.P,SW3,2*%
%TO.N,Net-(D4-Pad2)*%
X-71278750Y-49688750D03*
%TO.P,SW3,1*%
%TO.N,COL-1*%
X-77628750Y-52228750D03*
%TD*%
%TO.P,SW2,2*%
%TO.N,Net-(D3-Pad2)*%
X-71278750Y-25876250D03*
%TO.P,SW2,1*%
%TO.N,COL-1*%
X-77628750Y-28416250D03*
%TD*%
D11*
%TO.P,LEDSCRL1,2*%
%TO.N,INDICATOR3*%
X215430000Y-36030000D03*
D12*
%TO.P,LEDSCRL1,1*%
%TO.N,Net-(LEDSCRL1-Pad1)*%
X217970000Y-36030000D03*
%TD*%
D11*
%TO.P,LEDNUM1,2*%
%TO.N,INDICATOR1*%
X239230000Y-59840000D03*
D12*
%TO.P,LEDNUM1,1*%
%TO.N,Net-(LEDNUM1-Pad1)*%
X241770000Y-59840000D03*
%TD*%
D11*
%TO.P,LEDCAPS1,2*%
%TO.N,INDICATOR2*%
X-67930000Y-97950000D03*
D12*
%TO.P,LEDCAPS1,1*%
%TO.N,Net-(LEDCAPS1-Pad1)*%
X-65390000Y-97950000D03*
%TD*%
D13*
%TO.P,J2,10*%
%TO.N,NRST*%
X81310000Y-127150000D03*
%TO.P,J2,9*%
%TO.N,GND*%
X81310000Y-124610000D03*
%TO.P,J2,8*%
%TO.N,Net-(J2-Pad8)*%
X78770000Y-127150000D03*
%TO.P,J2,7*%
%TO.N,Net-(J2-Pad7)*%
X78770000Y-124610000D03*
%TO.P,J2,6*%
%TO.N,Net-(J2-Pad6)*%
X76230000Y-127150000D03*
%TO.P,J2,5*%
%TO.N,GND*%
X76230000Y-124610000D03*
%TO.P,J2,4*%
%TO.N,SWCLK*%
X73690000Y-127150000D03*
%TO.P,J2,3*%
%TO.N,GND*%
X73690000Y-124610000D03*
%TO.P,J2,2*%
%TO.N,SWDIO*%
X71150000Y-127150000D03*
D14*
%TO.P,J2,1*%
%TO.N,3.3V*%
X71150000Y-124610000D03*
%TD*%
D15*
%TO.P,J1,S*%
%TO.N,Net-(C2-Pad1)*%
X232900000Y-22312500D03*
D16*
X232900000Y-18112500D03*
X224300000Y-18112500D03*
D15*
X224300000Y-22312500D03*
%TD*%
%TO.P,F1,2*%
%TO.N,VBUS*%
%TA.AperFunction,SMDPad,CuDef*%
G36*
G01*
X227210000Y-26420000D02*
X227210000Y-29320000D01*
G75*
G02*
X226960000Y-29570000I-250000J0D01*
G01*
X226160000Y-29570000D01*
G75*
G02*
X225910000Y-29320000I0J250000D01*
G01*
X225910000Y-26420000D01*
G75*
G02*
X226160000Y-26170000I250000J0D01*
G01*
X226960000Y-26170000D01*
G75*
G02*
X227210000Y-26420000I0J-250000D01*
G01*
G37*
%TD.AperFunction*%
%TO.P,F1,1*%
%TO.N,5v*%
%TA.AperFunction,SMDPad,CuDef*%
G36*
G01*
X231660000Y-26420000D02*
X231660000Y-29320000D01*
G75*
G02*
X231410000Y-29570000I-250000J0D01*
G01*
X230610000Y-29570000D01*
G75*
G02*
X230360000Y-29320000I0J250000D01*
G01*
X230360000Y-26420000D01*
G75*
G02*
X230610000Y-26170000I250000J0D01*
G01*
X231410000Y-26170000D01*
G75*
G02*
X231660000Y-26420000I0J-250000D01*
G01*
G37*
%TD.AperFunction*%
%TD*%
D17*
%TO.N,GND*%
X231780000Y-122850000D03*
X232090000Y-116540000D03*
X254220000Y-140660000D03*
X254030000Y-139080000D03*
X211180000Y-119510000D03*
X209310000Y-121670000D03*
X208500000Y-121760000D03*
X208150000Y-126030000D03*
X86370000Y-125060000D03*
X86120000Y-136780000D03*
X210860000Y-111600000D03*
X210860000Y-118010000D03*
D18*
%TO.N,VBUS*%
X226600000Y-31630000D03*
X228640000Y-35090000D03*
X228620000Y-49620000D03*
X226420000Y-24925010D03*
D17*
%TO.N,NRST*%
X218819990Y-119630000D03*
X218730000Y-126245010D03*
%TO.N,BOOT0*%
X228910000Y-126790000D03*
X228890000Y-115190000D03*
D18*
%TO.N,5v*%
X231010000Y-36950000D03*
X300020000Y-60370000D03*
X299750000Y-39140000D03*
X299520000Y-68670000D03*
X299890000Y-142360000D03*
X299880000Y-137180000D03*
X-80960000Y-106480000D03*
X-80920000Y-139220000D03*
X-81110000Y-99530000D03*
X-81110000Y-70660000D03*
X-80640000Y-45040000D03*
X-80660000Y-63710000D03*
X298500000Y-133440000D03*
X297590000Y-103090000D03*
X300921260Y-96363893D03*
D17*
%TO.N,3.3V*%
X231260000Y-45420000D03*
X227310000Y-106500000D03*
X226460000Y-122880000D03*
X213520000Y-111500000D03*
X217830000Y-119600000D03*
X227310000Y-117080000D03*
X227290000Y-132780000D03*
X72330000Y-122710000D03*
X75795064Y-119380744D03*
X217730000Y-122834990D03*
X213400000Y-122834990D03*
X230410000Y-40469990D03*
X230480000Y-48400000D03*
%TO.N,ROW-1*%
X222800000Y-103890000D03*
X211792500Y-23812500D03*
X226802367Y-119719990D03*
X209480000Y-103405010D03*
X222400000Y-23940000D03*
X234140000Y-24200000D03*
%TO.N,ROW-2*%
X208150000Y-47920000D03*
X210354990Y-117316115D03*
%TO.N,ROW-3*%
X210290000Y-115060000D03*
X207990000Y-67470000D03*
%TO.N,ROW-4*%
X206620000Y-114570000D03*
X206445000Y-85725000D03*
%TO.N,ROW-5*%
X205140000Y-113940000D03*
X203295000Y-104775000D03*
%TO.N,ROW-6*%
X204860000Y-122640000D03*
X206060000Y-113555010D03*
%TO.N,Net-(D67-Pad2)*%
X183380000Y-127300000D03*
%TO.N,Net-(D73-Pad2)*%
X203110000Y-127460000D03*
%TO.N,Net-(D82-Pad2)*%
X222820000Y-127960000D03*
%TO.N,UNDERGLOW*%
X211760000Y-130380000D03*
X224940000Y-134970000D03*
X233200000Y-137250000D03*
X211797763Y-115555010D03*
%TO.N,Net-(D105-Pad2)*%
X301990000Y-137110000D03*
X302280000Y-102790000D03*
%TO.N,Net-(D106-Pad2)*%
X-80160000Y-37230000D03*
X-78133760Y-64003796D03*
%TO.N,Net-(D107-Pad2)*%
X303370000Y-68590000D03*
X301470011Y-97391623D03*
%TO.N,Net-(D108-Pad2)*%
X-78070000Y-98780000D03*
X-80019990Y-63150000D03*
%TO.N,Net-(D109-Pad2)*%
X304120000Y-62530000D03*
X303410000Y-37940000D03*
%TO.N,Net-(D110-Pad2)*%
X-77850000Y-139660000D03*
X-78820000Y-99110000D03*
%TO.N,Net-(D123-Pad2)*%
X296060000Y-108960000D03*
%TO.N,SWCLK*%
X228370000Y-124340000D03*
X163320000Y-125150000D03*
X159250000Y-121400000D03*
X75242096Y-121362096D03*
X228520000Y-111620000D03*
%TO.N,SWDIO*%
X75860000Y-120030000D03*
X224260000Y-106710000D03*
X221990280Y-123353912D03*
%TO.N,INDICATOR2*%
X216820000Y-124330000D03*
X-70010000Y-121890000D03*
X216819990Y-119530000D03*
%TO.N,INDICATOR1*%
X217300000Y-120110000D03*
X217310000Y-121230000D03*
X237770000Y-121230000D03*
%TO.N,INDICATOR3*%
X212890000Y-118480000D03*
%TO.N,COL-1*%
X203800000Y-44050000D03*
X204940000Y-112880000D03*
X-77130000Y-44210000D03*
X-64030000Y-90670000D03*
%TO.N,COL-2*%
X205180000Y-112280000D03*
X205030000Y-44020000D03*
X-55555836Y-44715010D03*
%TO.N,COL-3*%
X216204990Y-108514435D03*
X223647007Y-45162017D03*
X-34766954Y-45115010D03*
%TO.N,COL-4*%
X224064990Y-44480000D03*
X-16343663Y-45115010D03*
X216756448Y-108950000D03*
%TO.N,COL-5*%
X224482550Y-43876743D03*
X1551358Y-45145021D03*
X217261458Y-108560000D03*
%TO.N,COL-6*%
X225150000Y-43550000D03*
X24355941Y-43824990D03*
X217799988Y-108950000D03*
%TO.N,COL-7*%
X41433750Y-103783750D03*
X218271469Y-108513044D03*
X218275842Y-104445010D03*
%TO.N,COL-8*%
X218810000Y-108840000D03*
X218860000Y-103940000D03*
X60483750Y-103466250D03*
%TO.N,COL-9*%
X219400000Y-108500000D03*
X79533750Y-103053750D03*
X219410000Y-102975010D03*
%TO.N,COL-10*%
X106720000Y-118840000D03*
%TO.N,COL-11*%
X134780000Y-120894990D03*
X118470000Y-120894990D03*
X227820000Y-112180000D03*
X231440000Y-102520000D03*
X118120000Y-98930000D03*
%TO.N,COL-12*%
X170710000Y-121000000D03*
X139790000Y-120790000D03*
X137130000Y-105870000D03*
X224430000Y-112544990D03*
X221400000Y-106840000D03*
%TO.N,COL-13*%
X172290000Y-120870000D03*
X187330000Y-120900000D03*
X224980000Y-113040000D03*
X221800000Y-106250000D03*
X178760000Y-106290000D03*
%TO.N,COL-14*%
X225660000Y-113560000D03*
X222590000Y-105730000D03*
X185286250Y-105593750D03*
%TO.N,COL-15*%
X225680000Y-115550000D03*
%TO.N,COL-16*%
X214990000Y-117640000D03*
X215060000Y-125690000D03*
X235520000Y-125740000D03*
%TO.N,COL-17*%
X220290000Y-119770000D03*
X220320000Y-120680000D03*
X239840000Y-120780000D03*
X254490000Y-120840000D03*
%TO.N,COL-18*%
X274710000Y-120050000D03*
%TO.N,COL-19*%
X219350000Y-119990000D03*
X219370000Y-121750000D03*
D18*
%TO.N,D+*%
X229550000Y-34310000D03*
X226470000Y-106350000D03*
%TO.N,D-*%
X227690000Y-34320000D03*
X225590000Y-105520000D03*
%TD*%
D19*
%TO.N,GND*%
X231780000Y-122850000D02*
X232090000Y-122540000D01*
X232090000Y-122540000D02*
X232090000Y-116540000D01*
X254220000Y-140660000D02*
X254220000Y-139270000D01*
X254220000Y-139270000D02*
X254030000Y-139080000D01*
X211180000Y-119510000D02*
X209310000Y-121380000D01*
X209310000Y-121380000D02*
X209310000Y-121670000D01*
X208500000Y-121760000D02*
X208150000Y-122110000D01*
X208150000Y-122110000D02*
X208150000Y-126030000D01*
X86370000Y-125060000D02*
X86120000Y-125310000D01*
X86120000Y-125310000D02*
X86120000Y-136780000D01*
X210860000Y-111600000D02*
X210860000Y-118010000D01*
D20*
%TO.N,VBUS*%
X226560000Y-27870000D02*
X226560000Y-31590000D01*
X226560000Y-31590000D02*
X226600000Y-31630000D01*
X228640000Y-35090000D02*
X228640000Y-49600000D01*
X228640000Y-49600000D02*
X228620000Y-49620000D01*
X226560000Y-25065010D02*
X226420000Y-24925010D01*
X226560000Y-27870000D02*
X226560000Y-25065010D01*
D19*
%TO.N,NRST*%
X218819990Y-126155020D02*
X218730000Y-126245010D01*
X218819990Y-119630000D02*
X218819990Y-126155020D01*
%TO.N,BOOT0*%
X228910000Y-126790000D02*
X228910000Y-115210000D01*
X228910000Y-115210000D02*
X228890000Y-115190000D01*
D20*
%TO.N,5v*%
X231010000Y-27870000D02*
X231010000Y-36950000D01*
X300020000Y-55612798D02*
X301730000Y-53902798D01*
X300020000Y-60370000D02*
X300020000Y-55612798D01*
X301730000Y-53902798D02*
X301730000Y-41120000D01*
X301730000Y-41120000D02*
X299750000Y-39140000D01*
X299890000Y-142360000D02*
X299890000Y-137190000D01*
X299890000Y-137190000D02*
X299880000Y-137180000D01*
X-80960000Y-106480000D02*
X-80960000Y-139180000D01*
X-80960000Y-139180000D02*
X-80920000Y-139220000D01*
X-81110000Y-99530000D02*
X-81110000Y-70660000D01*
X-80660000Y-45060000D02*
X-80660000Y-63710000D01*
X-80640000Y-45040000D02*
X-80660000Y-45060000D01*
X298500000Y-133440000D02*
X292590000Y-127530000D01*
X292590000Y-127530000D02*
X292590000Y-108090000D01*
X292590000Y-108090000D02*
X297590000Y-103090000D01*
X299520000Y-68670000D02*
X301711251Y-70861251D01*
X301711251Y-70861251D02*
X301711251Y-80260951D01*
X300921260Y-81050942D02*
X300921260Y-96363893D01*
X301711251Y-80260951D02*
X300921260Y-81050942D01*
D19*
%TO.N,3.3V*%
X231260000Y-45420000D02*
X230170000Y-46510000D01*
X227310000Y-106500000D02*
X227310000Y-117080000D01*
X226460000Y-122880000D02*
X226460000Y-131950000D01*
X226460000Y-131950000D02*
X227290000Y-132780000D01*
X75659256Y-119380744D02*
X75795064Y-119380744D01*
X72330000Y-122710000D02*
X75659256Y-119380744D01*
X217830000Y-122734990D02*
X217730000Y-122834990D01*
X213520000Y-122714990D02*
X213400000Y-122834990D01*
X217830000Y-119600000D02*
X217830000Y-122734990D01*
X213520000Y-111500000D02*
X213520000Y-122714990D01*
X230410000Y-44570000D02*
X230410000Y-40469990D01*
X231260000Y-45420000D02*
X230410000Y-44570000D01*
X230170000Y-48380000D02*
X230460000Y-48380000D01*
X230170000Y-46510000D02*
X230170000Y-48380000D01*
X230460000Y-48380000D02*
X230480000Y-48400000D01*
X227687379Y-117457379D02*
X227687379Y-121652621D01*
X227687379Y-121652621D02*
X226460000Y-122880000D01*
X227310000Y-117080000D02*
X227687379Y-117457379D01*
X227310000Y-106112584D02*
X227310000Y-106500000D01*
X230170000Y-103252584D02*
X227310000Y-106112584D01*
X230170000Y-48380000D02*
X230170000Y-103252584D01*
%TO.N,ROW-1*%
X226802367Y-107892367D02*
X226802367Y-119719990D01*
X222800000Y-103890000D02*
X226802367Y-107892367D01*
X209480000Y-26125000D02*
X209480000Y-103405010D01*
X211792500Y-23812500D02*
X209480000Y-26125000D01*
X222660000Y-24200000D02*
X234140000Y-24200000D01*
X222400000Y-23940000D02*
X222660000Y-24200000D01*
%TO.N,ROW-2*%
X207479989Y-48590011D02*
X207479989Y-114441114D01*
X208150000Y-47920000D02*
X207479989Y-48590011D01*
X207479989Y-114441114D02*
X210354990Y-117316115D01*
%TO.N,ROW-3*%
X210290000Y-115060000D02*
X207860000Y-112630000D01*
X207860000Y-112630000D02*
X207860000Y-67600000D01*
X207860000Y-67600000D02*
X207990000Y-67470000D01*
%TO.N,ROW-4*%
X206620000Y-85900000D02*
X206445000Y-85725000D01*
X206620000Y-114570000D02*
X206620000Y-85900000D01*
%TO.N,ROW-5*%
X205140000Y-113940000D02*
X203295000Y-112095000D01*
X203295000Y-112095000D02*
X203295000Y-104775000D01*
%TO.N,ROW-6*%
X206060000Y-121440000D02*
X206060000Y-113555010D01*
X204860000Y-122640000D02*
X206060000Y-121440000D01*
%TO.N,Net-(D67-Pad2)*%
X181133750Y-129546250D02*
X181133750Y-130651250D01*
X183380000Y-127300000D02*
X181133750Y-129546250D01*
%TO.N,Net-(D73-Pad2)*%
X200183750Y-130386250D02*
X200183750Y-130651250D01*
X203110000Y-127460000D02*
X200183750Y-130386250D01*
%TO.N,Net-(D82-Pad2)*%
X220128750Y-130651250D02*
X219233750Y-130651250D01*
X222820000Y-127960000D02*
X220128750Y-130651250D01*
%TO.N,UNDERGLOW*%
X224940000Y-134970000D02*
X227220000Y-137250000D01*
X227220000Y-137250000D02*
X233200000Y-137250000D01*
X211990010Y-130149990D02*
X211990010Y-115747257D01*
X211990010Y-115747257D02*
X211797763Y-115555010D01*
X211760000Y-130380000D02*
X211990010Y-130149990D01*
%TO.N,Net-(D105-Pad2)*%
X301990000Y-137110000D02*
X302280000Y-136820000D01*
X301356249Y-127406153D02*
X304370000Y-124392402D01*
X302280000Y-136820000D02*
X301356249Y-135896249D01*
X301356249Y-135896249D02*
X301356249Y-127406153D01*
X304370000Y-124392402D02*
X304370000Y-123230000D01*
X302280000Y-121140000D02*
X302280000Y-102790000D01*
X304370000Y-123230000D02*
X302280000Y-121140000D01*
%TO.N,Net-(D106-Pad2)*%
X-80144989Y-61992567D02*
X-78133760Y-64003796D01*
X-79910001Y-37479999D02*
X-79910001Y-45383003D01*
X-79910001Y-45383003D02*
X-80144989Y-45617991D01*
X-80144989Y-45617991D02*
X-80144989Y-61992567D01*
X-80160000Y-37230000D02*
X-79910001Y-37479999D01*
%TO.N,Net-(D107-Pad2)*%
X302605011Y-69354989D02*
X302605011Y-83710109D01*
X304116251Y-93082083D02*
X301720010Y-95478324D01*
X304116251Y-85221349D02*
X304116251Y-93082083D01*
X302605011Y-83710109D02*
X304116251Y-85221349D01*
X303370000Y-68590000D02*
X302605011Y-69354989D01*
X301720010Y-97141624D02*
X301470011Y-97391623D01*
X301720010Y-95478324D02*
X301720010Y-97141624D01*
%TO.N,Net-(D108-Pad2)*%
X-78070000Y-98780000D02*
X-78070000Y-65099990D01*
X-78070000Y-65099990D02*
X-80019990Y-63150000D01*
%TO.N,Net-(D109-Pad2)*%
X304120000Y-62530000D02*
X304120000Y-38650000D01*
X304120000Y-38650000D02*
X303410000Y-37940000D01*
%TO.N,Net-(D110-Pad2)*%
X-77850000Y-139660000D02*
X-78820000Y-138690000D01*
X-78820000Y-138690000D02*
X-78820000Y-99110000D01*
%TO.N,Net-(D123-Pad2)*%
X298786251Y-119245377D02*
X302736250Y-123195376D01*
X302736250Y-123195376D02*
X302736250Y-123983750D01*
X298786251Y-111686251D02*
X298786251Y-119245377D01*
X296060000Y-108960000D02*
X298786251Y-111686251D01*
%TO.N,SWCLK*%
X163320000Y-125150000D02*
X159570000Y-121400000D01*
X159570000Y-121400000D02*
X159250000Y-121400000D01*
X75120000Y-125720000D02*
X75120000Y-121484192D01*
X75120000Y-121484192D02*
X75242096Y-121362096D01*
X73690000Y-127150000D02*
X75120000Y-125720000D01*
X228370000Y-111770000D02*
X228370000Y-124340000D01*
X228520000Y-111620000D02*
X228370000Y-111770000D01*
%TO.N,SWDIO*%
X71150000Y-127150000D02*
X72255001Y-126044999D01*
X72255001Y-126044999D02*
X72255001Y-123634999D01*
X72255001Y-123634999D02*
X75860000Y-120030000D01*
X224260000Y-106710000D02*
X226190000Y-108640000D01*
X226190000Y-119154192D02*
X221990280Y-123353912D01*
X226190000Y-108640000D02*
X226190000Y-119154192D01*
%TO.N,Net-(LEDCAPS1-Pad1)*%
X-70010000Y-98100000D02*
X-70170000Y-97940000D01*
%TO.N,INDICATOR2*%
X216570001Y-119779989D02*
X216819990Y-119530000D01*
X216570001Y-124080001D02*
X216570001Y-119779989D01*
X216820000Y-124330000D02*
X216570001Y-124080001D01*
X-70010000Y-100660000D02*
X-72720000Y-97950000D01*
X-70010000Y-121890000D02*
X-70010000Y-100660000D01*
%TO.N,INDICATOR1*%
X217300000Y-120110000D02*
X217300000Y-121220000D01*
X217300000Y-121220000D02*
X217310000Y-121230000D01*
X238076251Y-60993749D02*
X239230000Y-59840000D01*
X237770000Y-121230000D02*
X238076251Y-120923749D01*
X238076251Y-120923749D02*
X238076251Y-60993749D01*
%TO.N,INDICATOR3*%
X212890000Y-95503072D02*
X214444849Y-93948223D01*
X212890000Y-118480000D02*
X212890000Y-95503072D01*
X214444849Y-37015151D02*
X215430000Y-36030000D01*
X214444849Y-93948223D02*
X214444849Y-37015151D01*
%TO.N,COL-1*%
X-77620000Y-28425000D02*
X-77628750Y-28416250D01*
X-77620000Y-38270000D02*
X-77620000Y-28425000D01*
X-77620000Y-52220000D02*
X-77628750Y-52228750D01*
X-65722500Y-121285000D02*
X-72866250Y-128428750D01*
X-65722500Y-109378750D02*
X-65722500Y-121285000D01*
X203850000Y-111790000D02*
X203850000Y-44100000D01*
X203850000Y-44100000D02*
X203800000Y-44050000D01*
X204940000Y-112880000D02*
X203850000Y-111790000D01*
X-77390000Y-43950000D02*
X-77620000Y-43950000D01*
X-77620000Y-38270000D02*
X-77620000Y-43950000D01*
X-77130000Y-44210000D02*
X-77390000Y-43950000D01*
X-77620000Y-43950000D02*
X-77620000Y-52220000D01*
X-77628750Y-52228750D02*
X-77628750Y-66516250D01*
X-77628750Y-66516250D02*
X-72866250Y-71278750D01*
X-72866250Y-87947500D02*
X-70485000Y-90328750D01*
X-72866250Y-71278750D02*
X-72866250Y-87947500D01*
X-70496250Y-90340000D02*
X-70485000Y-90328750D01*
X-75270000Y-90340000D02*
X-70496250Y-90340000D01*
X-65722500Y-109378750D02*
X-65722500Y-101242500D01*
X-65722500Y-101242500D02*
X-64030000Y-99550000D01*
X-64030000Y-99550000D02*
X-64030000Y-90670000D01*
%TO.N,COL-2*%
X-58578750Y-61753750D02*
X-49053750Y-71278750D01*
X-58578750Y-52228750D02*
X-58578750Y-61753750D01*
X-46428848Y-90328750D02*
X-44291250Y-90328750D01*
X-49053750Y-87703848D02*
X-46428848Y-90328750D01*
X-49053750Y-71278750D02*
X-49053750Y-87703848D01*
X205180000Y-44170000D02*
X205030000Y-44020000D01*
X205180000Y-44240000D02*
X205180000Y-44170000D01*
X205180000Y-112280000D02*
X205180000Y-44240000D01*
X-53816250Y-28416250D02*
X-53816250Y-42975424D01*
X-53816250Y-42975424D02*
X-55555836Y-44715010D01*
X-58578750Y-52228750D02*
X-58578750Y-47737924D01*
X-58578750Y-47737924D02*
X-55555836Y-44715010D01*
%TO.N,COL-3*%
X-34766250Y-118903750D02*
X-34766250Y-109378750D01*
X-44291250Y-128428750D02*
X-34766250Y-118903750D01*
X-25643652Y-90328750D02*
X-25241250Y-90328750D01*
X-34766250Y-99451348D02*
X-25643652Y-90328750D01*
X-34766250Y-109378750D02*
X-34766250Y-99451348D01*
X-30003750Y-85566250D02*
X-30003750Y-71278750D01*
X-25241250Y-90328750D02*
X-30003750Y-85566250D01*
X-39528750Y-61753750D02*
X-39528750Y-52228750D01*
X-30003750Y-71278750D02*
X-39528750Y-61753750D01*
X-34766250Y-47466250D02*
X-34766250Y-28416250D01*
X-39528750Y-52228750D02*
X-34766250Y-47466250D01*
X223647007Y-92675577D02*
X223647007Y-45162017D01*
X216204990Y-100117594D02*
X223647007Y-92675577D01*
X216204990Y-108514435D02*
X216204990Y-100117594D01*
%TO.N,COL-4*%
X-20478750Y-54287124D02*
X-10953750Y-63812124D01*
X-10953750Y-63812124D02*
X-10953750Y-71278750D01*
X-20478750Y-52228750D02*
X-20478750Y-54287124D01*
X-10953750Y-85566250D02*
X-6191250Y-90328750D01*
X-10953750Y-71278750D02*
X-10953750Y-85566250D01*
X-15716250Y-102796152D02*
X-15716250Y-109378750D01*
X-6191250Y-93271152D02*
X-15716250Y-102796152D01*
X-6191250Y-90328750D02*
X-6191250Y-93271152D01*
X-20478750Y-52228750D02*
X-20478750Y-49250097D01*
X-20478750Y-49250097D02*
X-16343663Y-45115010D01*
X-15716250Y-28416250D02*
X-15716250Y-44433750D01*
X-15716250Y-44433750D02*
X-16343663Y-45061163D01*
X-16343663Y-45061163D02*
X-16343663Y-45115010D01*
X224314989Y-44729999D02*
X224314989Y-92565011D01*
X224314989Y-92565011D02*
X216756448Y-100123552D01*
X216756448Y-100123552D02*
X216756448Y-108950000D01*
X224064990Y-44480000D02*
X224314989Y-44729999D01*
%TO.N,COL-5*%
X12456348Y-90328750D02*
X12858750Y-90328750D01*
X3333750Y-99451348D02*
X12456348Y-90328750D01*
X3333750Y-109378750D02*
X3333750Y-99451348D01*
X8096250Y-85566250D02*
X8096250Y-71278750D01*
X12858750Y-90328750D02*
X8096250Y-85566250D01*
X-1428750Y-61753750D02*
X-1428750Y-52228750D01*
X8096250Y-71278750D02*
X-1428750Y-61753750D01*
X3333750Y-28416250D02*
X3333750Y-43362629D01*
X-1428750Y-48125129D02*
X1551358Y-45145021D01*
X-1428750Y-52228750D02*
X-1428750Y-48125129D01*
X3333750Y-43362629D02*
X1551358Y-45145021D01*
X217261458Y-100218542D02*
X217261458Y-108560000D01*
X224732549Y-44126742D02*
X224732549Y-92747451D01*
X224482550Y-43876743D02*
X224732549Y-44126742D01*
X224732549Y-92747451D02*
X217261458Y-100218542D01*
%TO.N,COL-6*%
X17621250Y-61753750D02*
X27146250Y-71278750D01*
X17621250Y-52228750D02*
X17621250Y-61753750D01*
X27146250Y-85566250D02*
X31908750Y-90328750D01*
X27146250Y-71278750D02*
X27146250Y-85566250D01*
X31908750Y-99853750D02*
X31908750Y-90328750D01*
X22383750Y-109378750D02*
X31908750Y-99853750D01*
X22383750Y-114141250D02*
X36671250Y-128428750D01*
X22383750Y-109378750D02*
X22383750Y-114141250D01*
X24355941Y-45494059D02*
X24355941Y-43824990D01*
X17621250Y-52228750D02*
X24355941Y-45494059D01*
X27146250Y-28416250D02*
X27146250Y-41034681D01*
X27146250Y-41034681D02*
X24355941Y-43824990D01*
X217766468Y-108916480D02*
X217799988Y-108950000D01*
X225150000Y-43550000D02*
X225150000Y-92890000D01*
X217766468Y-100273532D02*
X217766468Y-108916480D01*
X225150000Y-92890000D02*
X217766468Y-100273532D01*
%TO.N,COL-7*%
X50556348Y-90328750D02*
X50958750Y-90328750D01*
X41433750Y-99451348D02*
X50556348Y-90328750D01*
X46196250Y-85566250D02*
X46196250Y-71278750D01*
X50958750Y-90328750D02*
X46196250Y-85566250D01*
X45793848Y-28416250D02*
X46196250Y-28416250D01*
X36671250Y-37538848D02*
X45793848Y-28416250D01*
X36671250Y-52228750D02*
X36671250Y-37538848D01*
X36671250Y-61753750D02*
X46196250Y-71278750D01*
X36671250Y-52228750D02*
X36671250Y-61753750D01*
X41433750Y-109378750D02*
X41433750Y-103783750D01*
X41433750Y-103783750D02*
X41433750Y-99451348D01*
X218271469Y-108513044D02*
X218271469Y-104449383D01*
X218271469Y-104449383D02*
X218275842Y-104445010D01*
%TO.N,COL-8*%
X55721250Y-36350260D02*
X55721250Y-52228750D01*
X63655260Y-28416250D02*
X55721250Y-36350260D01*
X65246250Y-28416250D02*
X63655260Y-28416250D01*
X55721250Y-61753750D02*
X65246250Y-71278750D01*
X55721250Y-52228750D02*
X55721250Y-61753750D01*
X65246250Y-85566250D02*
X70008750Y-90328750D01*
X65246250Y-71278750D02*
X65246250Y-85566250D01*
X70008750Y-93271152D02*
X60483750Y-102796152D01*
X70008750Y-90328750D02*
X70008750Y-93271152D01*
X218810000Y-108840000D02*
X218860000Y-108790000D01*
X218860000Y-108790000D02*
X218860000Y-103940000D01*
X60483750Y-103466250D02*
X60483750Y-109378750D01*
X60483750Y-102796152D02*
X60483750Y-103466250D01*
%TO.N,COL-9*%
X88656348Y-90328750D02*
X89058750Y-90328750D01*
X79533750Y-99451348D02*
X88656348Y-90328750D01*
X79533750Y-109378750D02*
X79533750Y-99451348D01*
X84296250Y-85566250D02*
X84296250Y-71278750D01*
X89058750Y-90328750D02*
X84296250Y-85566250D01*
X74771250Y-61753750D02*
X84296250Y-71278750D01*
X74771250Y-52228750D02*
X74771250Y-61753750D01*
X83893848Y-28416250D02*
X84296250Y-28416250D01*
X74771250Y-37538848D02*
X83893848Y-28416250D01*
X74771250Y-52228750D02*
X74771250Y-37538848D01*
X219400000Y-108500000D02*
X219400000Y-102985010D01*
X219400000Y-102985010D02*
X219410000Y-102975010D01*
%TO.N,COL-10*%
X93821250Y-61753750D02*
X103346250Y-71278750D01*
X93821250Y-52228750D02*
X93821250Y-61753750D01*
X107706348Y-28416250D02*
X108108750Y-28416250D01*
X93821250Y-42301348D02*
X107706348Y-28416250D01*
X93821250Y-52228750D02*
X93821250Y-42301348D01*
X100946249Y-83166249D02*
X108108750Y-90328750D01*
X100946249Y-72087761D02*
X100946249Y-83166249D01*
X101755260Y-71278750D02*
X100946249Y-72087761D01*
X103346250Y-71278750D02*
X101755260Y-71278750D01*
X98583750Y-98262760D02*
X98583750Y-109378750D01*
X106517760Y-90328750D02*
X98583750Y-98262760D01*
X108108750Y-90328750D02*
X106517760Y-90328750D01*
X98583750Y-111437124D02*
X98583750Y-109378750D01*
X117633750Y-128428750D02*
X115575376Y-128428750D01*
X105986626Y-118840000D02*
X105888313Y-118741687D01*
X115575376Y-128428750D02*
X105888313Y-118741687D01*
X106720000Y-118840000D02*
X105986626Y-118840000D01*
X105888313Y-118741687D02*
X98583750Y-111437124D01*
%TO.N,COL-11*%
X112871250Y-61753750D02*
X122396250Y-71278750D01*
X112871250Y-52228750D02*
X112871250Y-61753750D01*
X112871250Y-41112760D02*
X112871250Y-52228750D01*
X125567760Y-28416250D02*
X112871250Y-41112760D01*
X127158750Y-28416250D02*
X125567760Y-28416250D01*
X122396250Y-85566250D02*
X127158750Y-90328750D01*
X122396250Y-71278750D02*
X122396250Y-85566250D01*
X117633750Y-98262760D02*
X117633750Y-109378750D01*
X125567760Y-90328750D02*
X117633750Y-98262760D01*
X127158750Y-90328750D02*
X125567760Y-90328750D01*
X146208750Y-128428750D02*
X142313760Y-128428750D01*
X117633750Y-109378750D02*
X117633750Y-120058740D01*
X142313760Y-128428750D02*
X134780000Y-120894990D01*
X117633750Y-120058740D02*
X118470000Y-120894990D01*
X227820000Y-112180000D02*
X227820000Y-106140000D01*
X227820000Y-106140000D02*
X231440000Y-102520000D01*
X117633750Y-98443750D02*
X117633750Y-98262760D01*
X118120000Y-98930000D02*
X117633750Y-98443750D01*
%TO.N,COL-12*%
X131921250Y-61753750D02*
X141446250Y-71278750D01*
X131921250Y-52228750D02*
X131921250Y-61753750D01*
X131921250Y-41112760D02*
X131921250Y-52228750D01*
X144617760Y-28416250D02*
X131921250Y-41112760D01*
X146208750Y-28416250D02*
X144617760Y-28416250D01*
X141446250Y-85566250D02*
X146208750Y-90328750D01*
X141446250Y-71278750D02*
X141446250Y-85566250D01*
X144617760Y-90328750D02*
X136683750Y-98262760D01*
X146208750Y-90328750D02*
X144617760Y-90328750D01*
X174783750Y-133191250D02*
X174783750Y-125073750D01*
X174783750Y-125073750D02*
X170710000Y-121000000D01*
X136683750Y-117683750D02*
X136683750Y-109378750D01*
X139790000Y-120790000D02*
X136683750Y-117683750D01*
X136683750Y-106316250D02*
X136683750Y-106543750D01*
X137130000Y-105870000D02*
X136683750Y-106316250D01*
X136683750Y-98262760D02*
X136683750Y-106543750D01*
X136683750Y-106543750D02*
X136683750Y-109378750D01*
X224430000Y-109870000D02*
X224430000Y-112544990D01*
X221400000Y-106840000D02*
X224430000Y-109870000D01*
%TO.N,COL-13*%
X150971250Y-41112760D02*
X150971250Y-52228750D01*
X163667760Y-28416250D02*
X150971250Y-41112760D01*
X165258750Y-28416250D02*
X163667760Y-28416250D01*
X160496250Y-74678328D02*
X176146672Y-90328750D01*
X176146672Y-90328750D02*
X177165000Y-90328750D01*
X160496250Y-71278750D02*
X160496250Y-74678328D01*
X162877500Y-103025260D02*
X162877500Y-109378750D01*
X175574010Y-90328750D02*
X162877500Y-103025260D01*
X177165000Y-90328750D02*
X175574010Y-90328750D01*
X150971250Y-52228750D02*
X150971250Y-61541250D01*
X160496250Y-71066250D02*
X160496250Y-71278750D01*
X150971250Y-61541250D02*
X160496250Y-71066250D01*
X162877500Y-109378750D02*
X162877500Y-111457500D01*
X162877500Y-111457500D02*
X172290000Y-120870000D01*
X193833750Y-127403750D02*
X193833750Y-133191250D01*
X187330000Y-120900000D02*
X193833750Y-127403750D01*
X224980000Y-113040000D02*
X224980000Y-109590000D01*
X224980000Y-109590000D02*
X224980000Y-109430000D01*
X224980000Y-109430000D02*
X221800000Y-106250000D01*
X178760000Y-114400000D02*
X172290000Y-120870000D01*
X178760000Y-106290000D02*
X178760000Y-114400000D01*
%TO.N,COL-14*%
X179546250Y-36350260D02*
X179546250Y-52228750D01*
X187480260Y-28416250D02*
X179546250Y-36350260D01*
X189071250Y-28416250D02*
X187480260Y-28416250D01*
X179546250Y-66516250D02*
X184308750Y-71278750D01*
X179546250Y-52228750D02*
X179546250Y-66516250D01*
X184895001Y-71865001D02*
X184895001Y-105202501D01*
X184308750Y-71278750D02*
X184895001Y-71865001D01*
X225660000Y-113560000D02*
X225660000Y-108830000D01*
X225660000Y-108830000D02*
X222590000Y-105760000D01*
X222590000Y-105760000D02*
X222590000Y-105730000D01*
X184895001Y-105202501D02*
X185286250Y-105593750D01*
X185286250Y-105593750D02*
X193833750Y-114141250D01*
%TO.N,COL-15*%
X212883750Y-52228750D02*
X212883750Y-71278750D01*
X212883750Y-27146250D02*
X212883750Y-52228750D01*
X225680000Y-115550000D02*
X225680000Y-118950000D01*
X225680000Y-118950000D02*
X219570000Y-125060000D01*
X219570000Y-126505000D02*
X212883750Y-133191250D01*
X219570000Y-125060000D02*
X219570000Y-126505000D01*
X212370020Y-93784882D02*
X212883750Y-93271152D01*
X212883750Y-93271152D02*
X212883750Y-90328750D01*
X212370020Y-132677520D02*
X212370020Y-93784882D01*
X212883750Y-133191250D02*
X212370020Y-132677520D01*
X212883750Y-74221152D02*
X212883750Y-90328750D01*
X212883750Y-71278750D02*
X212883750Y-74221152D01*
%TO.N,COL-16*%
X214990000Y-125620000D02*
X215060000Y-125690000D01*
X214990000Y-117640000D02*
X214990000Y-125620000D01*
X236696250Y-122779578D02*
X236696250Y-109378750D01*
X235520000Y-123955828D02*
X236696250Y-122779578D01*
X235520000Y-125740000D02*
X235520000Y-123955828D01*
X236696250Y-109378750D02*
X236696250Y-28416250D01*
%TO.N,COL-17*%
X220290000Y-119770000D02*
X220290000Y-120650000D01*
X220290000Y-120650000D02*
X220320000Y-120680000D01*
X246221250Y-128428750D02*
X239840000Y-122047500D01*
X239840000Y-122047500D02*
X239840000Y-120780000D01*
X255746250Y-119583750D02*
X255746250Y-109378750D01*
X254490000Y-120840000D02*
X255746250Y-119583750D01*
X255746250Y-109378750D02*
X255746250Y-90328750D01*
X255746250Y-90328750D02*
X255746250Y-52228750D01*
X255746250Y-28416250D02*
X255746250Y-52228750D01*
%TO.N,COL-18*%
X274710000Y-109465000D02*
X274796250Y-109378750D01*
X274710000Y-120050000D02*
X274710000Y-109465000D01*
X274710000Y-128342500D02*
X274796250Y-128428750D01*
X274710000Y-120050000D02*
X274710000Y-128342500D01*
X274796250Y-109378750D02*
X274796250Y-28416250D01*
%TO.N,COL-19*%
X219350000Y-119990000D02*
X219350000Y-121730000D01*
X219350000Y-121730000D02*
X219370000Y-121750000D01*
X300196250Y-79131348D02*
X300196250Y-79533750D01*
X293846250Y-72781348D02*
X300196250Y-79131348D01*
X293846250Y-28416250D02*
X293846250Y-72781348D01*
X300196250Y-117633750D02*
X300196250Y-79533750D01*
%TO.N,D+*%
X229550000Y-34310000D02*
X229550000Y-103270000D01*
X229550000Y-103270000D02*
X226470000Y-106350000D01*
%TO.N,D-*%
X227690000Y-34320000D02*
X227690000Y-103350000D01*
X225590000Y-105450000D02*
X225590000Y-105520000D01*
X227690000Y-103350000D02*
X225590000Y-105450000D01*
%TD*%
M02*
