%TF.GenerationSoftware,KiCad,Pcbnew,(5.1.6)-1*%
%TF.CreationDate,2020-08-12T20:07:55+02:00*%
%TF.ProjectId,Proyecto CFSUnderglow,50726f79-6563-4746-9f20-434653556e64,rev?*%
%TF.SameCoordinates,Original*%
%TF.FileFunction,Soldermask,Bot*%
%TF.FilePolarity,Negative*%
%FSLAX46Y46*%
G04 Gerber Fmt 4.6, Leading zero omitted, Abs format (unit mm)*
G04 Created by KiCad (PCBNEW (5.1.6)-1) date 2020-08-12 20:07:55*
%MOMM*%
%LPD*%
G01*
G04 APERTURE LIST*
%ADD10C,2.250000*%
%ADD11C,3.987800*%
%ADD12C,1.750000*%
%ADD13C,3.048000*%
%ADD14C,1.800000*%
%ADD15R,1.800000X1.800000*%
%ADD16R,1.500000X2.000000*%
%ADD17R,3.800000X2.000000*%
%ADD18R,0.650000X1.060000*%
%ADD19R,0.300000X1.475000*%
%ADD20R,1.100000X1.800000*%
%ADD21R,0.900000X0.800000*%
%ADD22O,1.700000X1.700000*%
%ADD23R,1.700000X1.700000*%
%ADD24O,1.100000X2.200000*%
%ADD25O,1.300000X1.900000*%
%ADD26C,0.650000*%
%ADD27R,1.500000X1.000000*%
G04 APERTURE END LIST*
%TO.C,D100*%
G36*
G01*
X289640000Y-26000000D02*
X290340000Y-26000000D01*
G75*
G02*
X290590000Y-26250000I0J-250000D01*
G01*
X290590000Y-26750000D01*
G75*
G02*
X290340000Y-27000000I-250000J0D01*
G01*
X289640000Y-27000000D01*
G75*
G02*
X289390000Y-26750000I0J250000D01*
G01*
X289390000Y-26250000D01*
G75*
G02*
X289640000Y-26000000I250000J0D01*
G01*
G37*
G36*
G01*
X289640000Y-29300000D02*
X290340000Y-29300000D01*
G75*
G02*
X290590000Y-29550000I0J-250000D01*
G01*
X290590000Y-30050000D01*
G75*
G02*
X290340000Y-30300000I-250000J0D01*
G01*
X289640000Y-30300000D01*
G75*
G02*
X289390000Y-30050000I0J250000D01*
G01*
X289390000Y-29550000D01*
G75*
G02*
X289640000Y-29300000I250000J0D01*
G01*
G37*
%TD*%
D10*
%TO.C,SW78*%
X219233750Y-25876250D03*
D11*
X216693750Y-30956250D03*
D10*
X212883750Y-28416250D03*
D12*
X211613750Y-30956250D03*
X221773750Y-30956250D03*
%TD*%
D10*
%TO.C,SW102*%
X302736250Y-85883750D03*
D11*
X297656250Y-83343750D03*
D10*
X300196250Y-79533750D03*
D12*
X297656250Y-78263750D03*
X297656250Y-88423750D03*
D13*
X304641250Y-71437500D03*
X304641250Y-95250000D03*
D11*
X289401250Y-71437500D03*
X289401250Y-95250000D03*
%TD*%
D10*
%TO.C,SW84*%
X243046250Y-49688750D03*
D11*
X240506250Y-54768750D03*
D10*
X236696250Y-52228750D03*
D12*
X235426250Y-54768750D03*
X245586250Y-54768750D03*
%TD*%
D10*
%TO.C,SW8*%
X-64135000Y-87788750D03*
D11*
X-66675000Y-92868750D03*
D10*
X-70485000Y-90328750D03*
D12*
X-71755000Y-92868750D03*
X-61595000Y-92868750D03*
%TD*%
D10*
%TO.C,SW5*%
X-68920000Y-87800000D03*
D11*
X-71460000Y-92880000D03*
D10*
X-75270000Y-90340000D03*
D12*
X-76540000Y-92880000D03*
X-66380000Y-92880000D03*
%TD*%
%TO.C,R9*%
G36*
G01*
X242720000Y-142330001D02*
X242720000Y-141429999D01*
G75*
G02*
X242969999Y-141180000I249999J0D01*
G01*
X243620001Y-141180000D01*
G75*
G02*
X243870000Y-141429999I0J-249999D01*
G01*
X243870000Y-142330001D01*
G75*
G02*
X243620001Y-142580000I-249999J0D01*
G01*
X242969999Y-142580000D01*
G75*
G02*
X242720000Y-142330001I0J249999D01*
G01*
G37*
G36*
G01*
X240670000Y-142330001D02*
X240670000Y-141429999D01*
G75*
G02*
X240919999Y-141180000I249999J0D01*
G01*
X241570001Y-141180000D01*
G75*
G02*
X241820000Y-141429999I0J-249999D01*
G01*
X241820000Y-142330001D01*
G75*
G02*
X241570001Y-142580000I-249999J0D01*
G01*
X240919999Y-142580000D01*
G75*
G02*
X240670000Y-142330001I0J249999D01*
G01*
G37*
%TD*%
D10*
%TO.C,SW34*%
X43021250Y-125888750D03*
D11*
X40481250Y-130968750D03*
D10*
X36671250Y-128428750D03*
D12*
X35401250Y-130968750D03*
X45561250Y-130968750D03*
D13*
X-16668750Y-123983750D03*
X97631250Y-123983750D03*
D11*
X-16668750Y-139223750D03*
X97631250Y-139223750D03*
%TD*%
D10*
%TO.C,SW4*%
X-66516250Y-68738750D03*
D11*
X-69056250Y-73818750D03*
D10*
X-72866250Y-71278750D03*
D12*
X-74136250Y-73818750D03*
X-63976250Y-73818750D03*
%TD*%
D14*
%TO.C,LEDCAPS2*%
X-72720000Y-97950000D03*
D15*
X-70180000Y-97950000D03*
%TD*%
%TO.C,R8*%
G36*
G01*
X222449999Y-36794999D02*
X223350001Y-36794999D01*
G75*
G02*
X223600000Y-37044998I0J-249999D01*
G01*
X223600000Y-37695000D01*
G75*
G02*
X223350001Y-37944999I-249999J0D01*
G01*
X222449999Y-37944999D01*
G75*
G02*
X222200000Y-37695000I0J249999D01*
G01*
X222200000Y-37044998D01*
G75*
G02*
X222449999Y-36794999I249999J0D01*
G01*
G37*
G36*
G01*
X222449999Y-34744999D02*
X223350001Y-34744999D01*
G75*
G02*
X223600000Y-34994998I0J-249999D01*
G01*
X223600000Y-35645000D01*
G75*
G02*
X223350001Y-35894999I-249999J0D01*
G01*
X222449999Y-35894999D01*
G75*
G02*
X222200000Y-35645000I0J249999D01*
G01*
X222200000Y-34994998D01*
G75*
G02*
X222449999Y-34744999I249999J0D01*
G01*
G37*
%TD*%
%TO.C,R7*%
G36*
G01*
X-61050001Y-98405001D02*
X-60149999Y-98405001D01*
G75*
G02*
X-59900000Y-98655000I0J-249999D01*
G01*
X-59900000Y-99305002D01*
G75*
G02*
X-60149999Y-99555001I-249999J0D01*
G01*
X-61050001Y-99555001D01*
G75*
G02*
X-61300000Y-99305002I0J249999D01*
G01*
X-61300000Y-98655000D01*
G75*
G02*
X-61050001Y-98405001I249999J0D01*
G01*
G37*
G36*
G01*
X-61050001Y-96355001D02*
X-60149999Y-96355001D01*
G75*
G02*
X-59900000Y-96605000I0J-249999D01*
G01*
X-59900000Y-97255002D01*
G75*
G02*
X-60149999Y-97505001I-249999J0D01*
G01*
X-61050001Y-97505001D01*
G75*
G02*
X-61300000Y-97255002I0J249999D01*
G01*
X-61300000Y-96605000D01*
G75*
G02*
X-61050001Y-96355001I249999J0D01*
G01*
G37*
%TD*%
%TO.C,R6*%
G36*
G01*
X248000001Y-59724999D02*
X247099999Y-59724999D01*
G75*
G02*
X246850000Y-59475000I0J249999D01*
G01*
X246850000Y-58824998D01*
G75*
G02*
X247099999Y-58574999I249999J0D01*
G01*
X248000001Y-58574999D01*
G75*
G02*
X248250000Y-58824998I0J-249999D01*
G01*
X248250000Y-59475000D01*
G75*
G02*
X248000001Y-59724999I-249999J0D01*
G01*
G37*
G36*
G01*
X248000001Y-61774999D02*
X247099999Y-61774999D01*
G75*
G02*
X246850000Y-61525000I0J249999D01*
G01*
X246850000Y-60874998D01*
G75*
G02*
X247099999Y-60624999I249999J0D01*
G01*
X248000001Y-60624999D01*
G75*
G02*
X248250000Y-60874998I0J-249999D01*
G01*
X248250000Y-61525000D01*
G75*
G02*
X248000001Y-61774999I-249999J0D01*
G01*
G37*
%TD*%
D10*
%TO.C,SW76*%
X190658750Y-68738750D03*
D11*
X188118750Y-73818750D03*
D10*
X184308750Y-71278750D03*
D12*
X183038750Y-73818750D03*
X193198750Y-73818750D03*
%TD*%
D16*
%TO.C,U3*%
X226280000Y-38990001D03*
X230880000Y-38990001D03*
X228580000Y-38990001D03*
D17*
X228580000Y-45290001D03*
%TD*%
D18*
%TO.C,U2*%
X228620000Y-32850000D03*
X227670000Y-32850000D03*
X229570000Y-32850000D03*
X229570000Y-30650000D03*
X228620000Y-30650000D03*
X227670000Y-30650000D03*
%TD*%
%TO.C,U1*%
G36*
G01*
X223825000Y-117200000D02*
X222650000Y-117200000D01*
G75*
G02*
X222500000Y-117050000I0J150000D01*
G01*
X222500000Y-117050000D01*
G75*
G02*
X222650000Y-116900000I150000J0D01*
G01*
X223825000Y-116900000D01*
G75*
G02*
X223975000Y-117050000I0J-150000D01*
G01*
X223975000Y-117050000D01*
G75*
G02*
X223825000Y-117200000I-150000J0D01*
G01*
G37*
G36*
G01*
X223825000Y-116700000D02*
X222650000Y-116700000D01*
G75*
G02*
X222500000Y-116550000I0J150000D01*
G01*
X222500000Y-116550000D01*
G75*
G02*
X222650000Y-116400000I150000J0D01*
G01*
X223825000Y-116400000D01*
G75*
G02*
X223975000Y-116550000I0J-150000D01*
G01*
X223975000Y-116550000D01*
G75*
G02*
X223825000Y-116700000I-150000J0D01*
G01*
G37*
G36*
G01*
X223825000Y-116200000D02*
X222650000Y-116200000D01*
G75*
G02*
X222500000Y-116050000I0J150000D01*
G01*
X222500000Y-116050000D01*
G75*
G02*
X222650000Y-115900000I150000J0D01*
G01*
X223825000Y-115900000D01*
G75*
G02*
X223975000Y-116050000I0J-150000D01*
G01*
X223975000Y-116050000D01*
G75*
G02*
X223825000Y-116200000I-150000J0D01*
G01*
G37*
G36*
G01*
X223825000Y-115700000D02*
X222650000Y-115700000D01*
G75*
G02*
X222500000Y-115550000I0J150000D01*
G01*
X222500000Y-115550000D01*
G75*
G02*
X222650000Y-115400000I150000J0D01*
G01*
X223825000Y-115400000D01*
G75*
G02*
X223975000Y-115550000I0J-150000D01*
G01*
X223975000Y-115550000D01*
G75*
G02*
X223825000Y-115700000I-150000J0D01*
G01*
G37*
G36*
G01*
X223825000Y-115200000D02*
X222650000Y-115200000D01*
G75*
G02*
X222500000Y-115050000I0J150000D01*
G01*
X222500000Y-115050000D01*
G75*
G02*
X222650000Y-114900000I150000J0D01*
G01*
X223825000Y-114900000D01*
G75*
G02*
X223975000Y-115050000I0J-150000D01*
G01*
X223975000Y-115050000D01*
G75*
G02*
X223825000Y-115200000I-150000J0D01*
G01*
G37*
G36*
G01*
X223825000Y-114700000D02*
X222650000Y-114700000D01*
G75*
G02*
X222500000Y-114550000I0J150000D01*
G01*
X222500000Y-114550000D01*
G75*
G02*
X222650000Y-114400000I150000J0D01*
G01*
X223825000Y-114400000D01*
G75*
G02*
X223975000Y-114550000I0J-150000D01*
G01*
X223975000Y-114550000D01*
G75*
G02*
X223825000Y-114700000I-150000J0D01*
G01*
G37*
G36*
G01*
X223825000Y-114200000D02*
X222650000Y-114200000D01*
G75*
G02*
X222500000Y-114050000I0J150000D01*
G01*
X222500000Y-114050000D01*
G75*
G02*
X222650000Y-113900000I150000J0D01*
G01*
X223825000Y-113900000D01*
G75*
G02*
X223975000Y-114050000I0J-150000D01*
G01*
X223975000Y-114050000D01*
G75*
G02*
X223825000Y-114200000I-150000J0D01*
G01*
G37*
G36*
G01*
X223825000Y-113700000D02*
X222650000Y-113700000D01*
G75*
G02*
X222500000Y-113550000I0J150000D01*
G01*
X222500000Y-113550000D01*
G75*
G02*
X222650000Y-113400000I150000J0D01*
G01*
X223825000Y-113400000D01*
G75*
G02*
X223975000Y-113550000I0J-150000D01*
G01*
X223975000Y-113550000D01*
G75*
G02*
X223825000Y-113700000I-150000J0D01*
G01*
G37*
G36*
G01*
X223825000Y-113200000D02*
X222650000Y-113200000D01*
G75*
G02*
X222500000Y-113050000I0J150000D01*
G01*
X222500000Y-113050000D01*
G75*
G02*
X222650000Y-112900000I150000J0D01*
G01*
X223825000Y-112900000D01*
G75*
G02*
X223975000Y-113050000I0J-150000D01*
G01*
X223975000Y-113050000D01*
G75*
G02*
X223825000Y-113200000I-150000J0D01*
G01*
G37*
G36*
G01*
X223825000Y-112700000D02*
X222650000Y-112700000D01*
G75*
G02*
X222500000Y-112550000I0J150000D01*
G01*
X222500000Y-112550000D01*
G75*
G02*
X222650000Y-112400000I150000J0D01*
G01*
X223825000Y-112400000D01*
G75*
G02*
X223975000Y-112550000I0J-150000D01*
G01*
X223975000Y-112550000D01*
G75*
G02*
X223825000Y-112700000I-150000J0D01*
G01*
G37*
G36*
G01*
X223825000Y-112200000D02*
X222650000Y-112200000D01*
G75*
G02*
X222500000Y-112050000I0J150000D01*
G01*
X222500000Y-112050000D01*
G75*
G02*
X222650000Y-111900000I150000J0D01*
G01*
X223825000Y-111900000D01*
G75*
G02*
X223975000Y-112050000I0J-150000D01*
G01*
X223975000Y-112050000D01*
G75*
G02*
X223825000Y-112200000I-150000J0D01*
G01*
G37*
G36*
G01*
X223825000Y-111700000D02*
X222650000Y-111700000D01*
G75*
G02*
X222500000Y-111550000I0J150000D01*
G01*
X222500000Y-111550000D01*
G75*
G02*
X222650000Y-111400000I150000J0D01*
G01*
X223825000Y-111400000D01*
G75*
G02*
X223975000Y-111550000I0J-150000D01*
G01*
X223975000Y-111550000D01*
G75*
G02*
X223825000Y-111700000I-150000J0D01*
G01*
G37*
G36*
G01*
X221825000Y-110875000D02*
X221825000Y-110875000D01*
G75*
G02*
X221675000Y-110725000I0J150000D01*
G01*
X221675000Y-109550000D01*
G75*
G02*
X221825000Y-109400000I150000J0D01*
G01*
X221825000Y-109400000D01*
G75*
G02*
X221975000Y-109550000I0J-150000D01*
G01*
X221975000Y-110725000D01*
G75*
G02*
X221825000Y-110875000I-150000J0D01*
G01*
G37*
G36*
G01*
X221325000Y-110875000D02*
X221325000Y-110875000D01*
G75*
G02*
X221175000Y-110725000I0J150000D01*
G01*
X221175000Y-109550000D01*
G75*
G02*
X221325000Y-109400000I150000J0D01*
G01*
X221325000Y-109400000D01*
G75*
G02*
X221475000Y-109550000I0J-150000D01*
G01*
X221475000Y-110725000D01*
G75*
G02*
X221325000Y-110875000I-150000J0D01*
G01*
G37*
G36*
G01*
X220825000Y-110875000D02*
X220825000Y-110875000D01*
G75*
G02*
X220675000Y-110725000I0J150000D01*
G01*
X220675000Y-109550000D01*
G75*
G02*
X220825000Y-109400000I150000J0D01*
G01*
X220825000Y-109400000D01*
G75*
G02*
X220975000Y-109550000I0J-150000D01*
G01*
X220975000Y-110725000D01*
G75*
G02*
X220825000Y-110875000I-150000J0D01*
G01*
G37*
G36*
G01*
X220325000Y-110875000D02*
X220325000Y-110875000D01*
G75*
G02*
X220175000Y-110725000I0J150000D01*
G01*
X220175000Y-109550000D01*
G75*
G02*
X220325000Y-109400000I150000J0D01*
G01*
X220325000Y-109400000D01*
G75*
G02*
X220475000Y-109550000I0J-150000D01*
G01*
X220475000Y-110725000D01*
G75*
G02*
X220325000Y-110875000I-150000J0D01*
G01*
G37*
G36*
G01*
X219825000Y-110875000D02*
X219825000Y-110875000D01*
G75*
G02*
X219675000Y-110725000I0J150000D01*
G01*
X219675000Y-109550000D01*
G75*
G02*
X219825000Y-109400000I150000J0D01*
G01*
X219825000Y-109400000D01*
G75*
G02*
X219975000Y-109550000I0J-150000D01*
G01*
X219975000Y-110725000D01*
G75*
G02*
X219825000Y-110875000I-150000J0D01*
G01*
G37*
G36*
G01*
X219325000Y-110875000D02*
X219325000Y-110875000D01*
G75*
G02*
X219175000Y-110725000I0J150000D01*
G01*
X219175000Y-109550000D01*
G75*
G02*
X219325000Y-109400000I150000J0D01*
G01*
X219325000Y-109400000D01*
G75*
G02*
X219475000Y-109550000I0J-150000D01*
G01*
X219475000Y-110725000D01*
G75*
G02*
X219325000Y-110875000I-150000J0D01*
G01*
G37*
G36*
G01*
X218825000Y-110875000D02*
X218825000Y-110875000D01*
G75*
G02*
X218675000Y-110725000I0J150000D01*
G01*
X218675000Y-109550000D01*
G75*
G02*
X218825000Y-109400000I150000J0D01*
G01*
X218825000Y-109400000D01*
G75*
G02*
X218975000Y-109550000I0J-150000D01*
G01*
X218975000Y-110725000D01*
G75*
G02*
X218825000Y-110875000I-150000J0D01*
G01*
G37*
G36*
G01*
X218325000Y-110875000D02*
X218325000Y-110875000D01*
G75*
G02*
X218175000Y-110725000I0J150000D01*
G01*
X218175000Y-109550000D01*
G75*
G02*
X218325000Y-109400000I150000J0D01*
G01*
X218325000Y-109400000D01*
G75*
G02*
X218475000Y-109550000I0J-150000D01*
G01*
X218475000Y-110725000D01*
G75*
G02*
X218325000Y-110875000I-150000J0D01*
G01*
G37*
G36*
G01*
X217825000Y-110875000D02*
X217825000Y-110875000D01*
G75*
G02*
X217675000Y-110725000I0J150000D01*
G01*
X217675000Y-109550000D01*
G75*
G02*
X217825000Y-109400000I150000J0D01*
G01*
X217825000Y-109400000D01*
G75*
G02*
X217975000Y-109550000I0J-150000D01*
G01*
X217975000Y-110725000D01*
G75*
G02*
X217825000Y-110875000I-150000J0D01*
G01*
G37*
G36*
G01*
X217325000Y-110875000D02*
X217325000Y-110875000D01*
G75*
G02*
X217175000Y-110725000I0J150000D01*
G01*
X217175000Y-109550000D01*
G75*
G02*
X217325000Y-109400000I150000J0D01*
G01*
X217325000Y-109400000D01*
G75*
G02*
X217475000Y-109550000I0J-150000D01*
G01*
X217475000Y-110725000D01*
G75*
G02*
X217325000Y-110875000I-150000J0D01*
G01*
G37*
G36*
G01*
X216825000Y-110875000D02*
X216825000Y-110875000D01*
G75*
G02*
X216675000Y-110725000I0J150000D01*
G01*
X216675000Y-109550000D01*
G75*
G02*
X216825000Y-109400000I150000J0D01*
G01*
X216825000Y-109400000D01*
G75*
G02*
X216975000Y-109550000I0J-150000D01*
G01*
X216975000Y-110725000D01*
G75*
G02*
X216825000Y-110875000I-150000J0D01*
G01*
G37*
G36*
G01*
X216325000Y-110875000D02*
X216325000Y-110875000D01*
G75*
G02*
X216175000Y-110725000I0J150000D01*
G01*
X216175000Y-109550000D01*
G75*
G02*
X216325000Y-109400000I150000J0D01*
G01*
X216325000Y-109400000D01*
G75*
G02*
X216475000Y-109550000I0J-150000D01*
G01*
X216475000Y-110725000D01*
G75*
G02*
X216325000Y-110875000I-150000J0D01*
G01*
G37*
G36*
G01*
X215500000Y-111700000D02*
X214325000Y-111700000D01*
G75*
G02*
X214175000Y-111550000I0J150000D01*
G01*
X214175000Y-111550000D01*
G75*
G02*
X214325000Y-111400000I150000J0D01*
G01*
X215500000Y-111400000D01*
G75*
G02*
X215650000Y-111550000I0J-150000D01*
G01*
X215650000Y-111550000D01*
G75*
G02*
X215500000Y-111700000I-150000J0D01*
G01*
G37*
G36*
G01*
X215500000Y-112200000D02*
X214325000Y-112200000D01*
G75*
G02*
X214175000Y-112050000I0J150000D01*
G01*
X214175000Y-112050000D01*
G75*
G02*
X214325000Y-111900000I150000J0D01*
G01*
X215500000Y-111900000D01*
G75*
G02*
X215650000Y-112050000I0J-150000D01*
G01*
X215650000Y-112050000D01*
G75*
G02*
X215500000Y-112200000I-150000J0D01*
G01*
G37*
G36*
G01*
X215500000Y-112700000D02*
X214325000Y-112700000D01*
G75*
G02*
X214175000Y-112550000I0J150000D01*
G01*
X214175000Y-112550000D01*
G75*
G02*
X214325000Y-112400000I150000J0D01*
G01*
X215500000Y-112400000D01*
G75*
G02*
X215650000Y-112550000I0J-150000D01*
G01*
X215650000Y-112550000D01*
G75*
G02*
X215500000Y-112700000I-150000J0D01*
G01*
G37*
G36*
G01*
X215500000Y-113200000D02*
X214325000Y-113200000D01*
G75*
G02*
X214175000Y-113050000I0J150000D01*
G01*
X214175000Y-113050000D01*
G75*
G02*
X214325000Y-112900000I150000J0D01*
G01*
X215500000Y-112900000D01*
G75*
G02*
X215650000Y-113050000I0J-150000D01*
G01*
X215650000Y-113050000D01*
G75*
G02*
X215500000Y-113200000I-150000J0D01*
G01*
G37*
G36*
G01*
X215500000Y-113700000D02*
X214325000Y-113700000D01*
G75*
G02*
X214175000Y-113550000I0J150000D01*
G01*
X214175000Y-113550000D01*
G75*
G02*
X214325000Y-113400000I150000J0D01*
G01*
X215500000Y-113400000D01*
G75*
G02*
X215650000Y-113550000I0J-150000D01*
G01*
X215650000Y-113550000D01*
G75*
G02*
X215500000Y-113700000I-150000J0D01*
G01*
G37*
G36*
G01*
X215500000Y-114200000D02*
X214325000Y-114200000D01*
G75*
G02*
X214175000Y-114050000I0J150000D01*
G01*
X214175000Y-114050000D01*
G75*
G02*
X214325000Y-113900000I150000J0D01*
G01*
X215500000Y-113900000D01*
G75*
G02*
X215650000Y-114050000I0J-150000D01*
G01*
X215650000Y-114050000D01*
G75*
G02*
X215500000Y-114200000I-150000J0D01*
G01*
G37*
G36*
G01*
X215500000Y-114700000D02*
X214325000Y-114700000D01*
G75*
G02*
X214175000Y-114550000I0J150000D01*
G01*
X214175000Y-114550000D01*
G75*
G02*
X214325000Y-114400000I150000J0D01*
G01*
X215500000Y-114400000D01*
G75*
G02*
X215650000Y-114550000I0J-150000D01*
G01*
X215650000Y-114550000D01*
G75*
G02*
X215500000Y-114700000I-150000J0D01*
G01*
G37*
G36*
G01*
X215500000Y-115200000D02*
X214325000Y-115200000D01*
G75*
G02*
X214175000Y-115050000I0J150000D01*
G01*
X214175000Y-115050000D01*
G75*
G02*
X214325000Y-114900000I150000J0D01*
G01*
X215500000Y-114900000D01*
G75*
G02*
X215650000Y-115050000I0J-150000D01*
G01*
X215650000Y-115050000D01*
G75*
G02*
X215500000Y-115200000I-150000J0D01*
G01*
G37*
G36*
G01*
X215500000Y-115700000D02*
X214325000Y-115700000D01*
G75*
G02*
X214175000Y-115550000I0J150000D01*
G01*
X214175000Y-115550000D01*
G75*
G02*
X214325000Y-115400000I150000J0D01*
G01*
X215500000Y-115400000D01*
G75*
G02*
X215650000Y-115550000I0J-150000D01*
G01*
X215650000Y-115550000D01*
G75*
G02*
X215500000Y-115700000I-150000J0D01*
G01*
G37*
G36*
G01*
X215500000Y-116200000D02*
X214325000Y-116200000D01*
G75*
G02*
X214175000Y-116050000I0J150000D01*
G01*
X214175000Y-116050000D01*
G75*
G02*
X214325000Y-115900000I150000J0D01*
G01*
X215500000Y-115900000D01*
G75*
G02*
X215650000Y-116050000I0J-150000D01*
G01*
X215650000Y-116050000D01*
G75*
G02*
X215500000Y-116200000I-150000J0D01*
G01*
G37*
G36*
G01*
X215500000Y-116700000D02*
X214325000Y-116700000D01*
G75*
G02*
X214175000Y-116550000I0J150000D01*
G01*
X214175000Y-116550000D01*
G75*
G02*
X214325000Y-116400000I150000J0D01*
G01*
X215500000Y-116400000D01*
G75*
G02*
X215650000Y-116550000I0J-150000D01*
G01*
X215650000Y-116550000D01*
G75*
G02*
X215500000Y-116700000I-150000J0D01*
G01*
G37*
G36*
G01*
X215500000Y-117200000D02*
X214325000Y-117200000D01*
G75*
G02*
X214175000Y-117050000I0J150000D01*
G01*
X214175000Y-117050000D01*
G75*
G02*
X214325000Y-116900000I150000J0D01*
G01*
X215500000Y-116900000D01*
G75*
G02*
X215650000Y-117050000I0J-150000D01*
G01*
X215650000Y-117050000D01*
G75*
G02*
X215500000Y-117200000I-150000J0D01*
G01*
G37*
G36*
G01*
X216325000Y-119200000D02*
X216325000Y-119200000D01*
G75*
G02*
X216175000Y-119050000I0J150000D01*
G01*
X216175000Y-117875000D01*
G75*
G02*
X216325000Y-117725000I150000J0D01*
G01*
X216325000Y-117725000D01*
G75*
G02*
X216475000Y-117875000I0J-150000D01*
G01*
X216475000Y-119050000D01*
G75*
G02*
X216325000Y-119200000I-150000J0D01*
G01*
G37*
G36*
G01*
X216825000Y-119200000D02*
X216825000Y-119200000D01*
G75*
G02*
X216675000Y-119050000I0J150000D01*
G01*
X216675000Y-117875000D01*
G75*
G02*
X216825000Y-117725000I150000J0D01*
G01*
X216825000Y-117725000D01*
G75*
G02*
X216975000Y-117875000I0J-150000D01*
G01*
X216975000Y-119050000D01*
G75*
G02*
X216825000Y-119200000I-150000J0D01*
G01*
G37*
G36*
G01*
X217325000Y-119200000D02*
X217325000Y-119200000D01*
G75*
G02*
X217175000Y-119050000I0J150000D01*
G01*
X217175000Y-117875000D01*
G75*
G02*
X217325000Y-117725000I150000J0D01*
G01*
X217325000Y-117725000D01*
G75*
G02*
X217475000Y-117875000I0J-150000D01*
G01*
X217475000Y-119050000D01*
G75*
G02*
X217325000Y-119200000I-150000J0D01*
G01*
G37*
G36*
G01*
X217825000Y-119200000D02*
X217825000Y-119200000D01*
G75*
G02*
X217675000Y-119050000I0J150000D01*
G01*
X217675000Y-117875000D01*
G75*
G02*
X217825000Y-117725000I150000J0D01*
G01*
X217825000Y-117725000D01*
G75*
G02*
X217975000Y-117875000I0J-150000D01*
G01*
X217975000Y-119050000D01*
G75*
G02*
X217825000Y-119200000I-150000J0D01*
G01*
G37*
G36*
G01*
X218325000Y-119200000D02*
X218325000Y-119200000D01*
G75*
G02*
X218175000Y-119050000I0J150000D01*
G01*
X218175000Y-117875000D01*
G75*
G02*
X218325000Y-117725000I150000J0D01*
G01*
X218325000Y-117725000D01*
G75*
G02*
X218475000Y-117875000I0J-150000D01*
G01*
X218475000Y-119050000D01*
G75*
G02*
X218325000Y-119200000I-150000J0D01*
G01*
G37*
G36*
G01*
X218825000Y-119200000D02*
X218825000Y-119200000D01*
G75*
G02*
X218675000Y-119050000I0J150000D01*
G01*
X218675000Y-117875000D01*
G75*
G02*
X218825000Y-117725000I150000J0D01*
G01*
X218825000Y-117725000D01*
G75*
G02*
X218975000Y-117875000I0J-150000D01*
G01*
X218975000Y-119050000D01*
G75*
G02*
X218825000Y-119200000I-150000J0D01*
G01*
G37*
G36*
G01*
X219325000Y-119200000D02*
X219325000Y-119200000D01*
G75*
G02*
X219175000Y-119050000I0J150000D01*
G01*
X219175000Y-117875000D01*
G75*
G02*
X219325000Y-117725000I150000J0D01*
G01*
X219325000Y-117725000D01*
G75*
G02*
X219475000Y-117875000I0J-150000D01*
G01*
X219475000Y-119050000D01*
G75*
G02*
X219325000Y-119200000I-150000J0D01*
G01*
G37*
G36*
G01*
X219825000Y-119200000D02*
X219825000Y-119200000D01*
G75*
G02*
X219675000Y-119050000I0J150000D01*
G01*
X219675000Y-117875000D01*
G75*
G02*
X219825000Y-117725000I150000J0D01*
G01*
X219825000Y-117725000D01*
G75*
G02*
X219975000Y-117875000I0J-150000D01*
G01*
X219975000Y-119050000D01*
G75*
G02*
X219825000Y-119200000I-150000J0D01*
G01*
G37*
G36*
G01*
X220325000Y-119200000D02*
X220325000Y-119200000D01*
G75*
G02*
X220175000Y-119050000I0J150000D01*
G01*
X220175000Y-117875000D01*
G75*
G02*
X220325000Y-117725000I150000J0D01*
G01*
X220325000Y-117725000D01*
G75*
G02*
X220475000Y-117875000I0J-150000D01*
G01*
X220475000Y-119050000D01*
G75*
G02*
X220325000Y-119200000I-150000J0D01*
G01*
G37*
G36*
G01*
X220825000Y-119200000D02*
X220825000Y-119200000D01*
G75*
G02*
X220675000Y-119050000I0J150000D01*
G01*
X220675000Y-117875000D01*
G75*
G02*
X220825000Y-117725000I150000J0D01*
G01*
X220825000Y-117725000D01*
G75*
G02*
X220975000Y-117875000I0J-150000D01*
G01*
X220975000Y-119050000D01*
G75*
G02*
X220825000Y-119200000I-150000J0D01*
G01*
G37*
G36*
G01*
X221325000Y-119200000D02*
X221325000Y-119200000D01*
G75*
G02*
X221175000Y-119050000I0J150000D01*
G01*
X221175000Y-117875000D01*
G75*
G02*
X221325000Y-117725000I150000J0D01*
G01*
X221325000Y-117725000D01*
G75*
G02*
X221475000Y-117875000I0J-150000D01*
G01*
X221475000Y-119050000D01*
G75*
G02*
X221325000Y-119200000I-150000J0D01*
G01*
G37*
D19*
X221825000Y-118462500D03*
%TD*%
D11*
%TO.C,SW103*%
X289401250Y-133350000D03*
X289401250Y-109537500D03*
D13*
X304641250Y-133350000D03*
X304641250Y-109537500D03*
D12*
X297656250Y-126523750D03*
X297656250Y-116363750D03*
D10*
X300196250Y-117633750D03*
D11*
X297656250Y-121443750D03*
D10*
X302736250Y-123983750D03*
%TD*%
%TO.C,SW101*%
X300196250Y-49688750D03*
D11*
X297656250Y-54768750D03*
D10*
X293846250Y-52228750D03*
D12*
X292576250Y-54768750D03*
X302736250Y-54768750D03*
%TD*%
D10*
%TO.C,SW100*%
X300196250Y-25876250D03*
D11*
X297656250Y-30956250D03*
D10*
X293846250Y-28416250D03*
D12*
X292576250Y-30956250D03*
X302736250Y-30956250D03*
%TD*%
D10*
%TO.C,SW99*%
X281146250Y-125888750D03*
D11*
X278606250Y-130968750D03*
D10*
X274796250Y-128428750D03*
D12*
X273526250Y-130968750D03*
X283686250Y-130968750D03*
%TD*%
D10*
%TO.C,SW98*%
X281146250Y-106838750D03*
D11*
X278606250Y-111918750D03*
D10*
X274796250Y-109378750D03*
D12*
X273526250Y-111918750D03*
X283686250Y-111918750D03*
%TD*%
D10*
%TO.C,SW97*%
X281146250Y-87788750D03*
D11*
X278606250Y-92868750D03*
D10*
X274796250Y-90328750D03*
D12*
X273526250Y-92868750D03*
X283686250Y-92868750D03*
%TD*%
D10*
%TO.C,SW96*%
X281146250Y-68738750D03*
D11*
X278606250Y-73818750D03*
D10*
X274796250Y-71278750D03*
D12*
X273526250Y-73818750D03*
X283686250Y-73818750D03*
%TD*%
D10*
%TO.C,SW95*%
X281146250Y-49688750D03*
D11*
X278606250Y-54768750D03*
D10*
X274796250Y-52228750D03*
D12*
X273526250Y-54768750D03*
X283686250Y-54768750D03*
%TD*%
D10*
%TO.C,SW94*%
X281146250Y-25876250D03*
D11*
X278606250Y-30956250D03*
D10*
X274796250Y-28416250D03*
D12*
X273526250Y-30956250D03*
X283686250Y-30956250D03*
%TD*%
D10*
%TO.C,SW93*%
X252571250Y-125888750D03*
D11*
X250031250Y-130968750D03*
D10*
X246221250Y-128428750D03*
D12*
X244951250Y-130968750D03*
X255111250Y-130968750D03*
D13*
X238125000Y-123983750D03*
X261937500Y-123983750D03*
D11*
X238125000Y-139223750D03*
X261937500Y-139223750D03*
%TD*%
D10*
%TO.C,SW92*%
X262096250Y-106838750D03*
D11*
X259556250Y-111918750D03*
D10*
X255746250Y-109378750D03*
D12*
X254476250Y-111918750D03*
X264636250Y-111918750D03*
%TD*%
D10*
%TO.C,SW91*%
X262096250Y-87788750D03*
D11*
X259556250Y-92868750D03*
D10*
X255746250Y-90328750D03*
D12*
X254476250Y-92868750D03*
X264636250Y-92868750D03*
%TD*%
D10*
%TO.C,SW90*%
X262096250Y-68738750D03*
D11*
X259556250Y-73818750D03*
D10*
X255746250Y-71278750D03*
D12*
X254476250Y-73818750D03*
X264636250Y-73818750D03*
%TD*%
D10*
%TO.C,SW89*%
X262096250Y-49688750D03*
D11*
X259556250Y-54768750D03*
D10*
X255746250Y-52228750D03*
D12*
X254476250Y-54768750D03*
X264636250Y-54768750D03*
%TD*%
D10*
%TO.C,SW88*%
X262096250Y-25876250D03*
D11*
X259556250Y-30956250D03*
D10*
X255746250Y-28416250D03*
D12*
X254476250Y-30956250D03*
X264636250Y-30956250D03*
%TD*%
D10*
%TO.C,SW87*%
X243046250Y-106838750D03*
D11*
X240506250Y-111918750D03*
D10*
X236696250Y-109378750D03*
D12*
X235426250Y-111918750D03*
X245586250Y-111918750D03*
%TD*%
D10*
%TO.C,SW86*%
X243046250Y-87788750D03*
D11*
X240506250Y-92868750D03*
D10*
X236696250Y-90328750D03*
D12*
X235426250Y-92868750D03*
X245586250Y-92868750D03*
%TD*%
D10*
%TO.C,SW85*%
X243046250Y-68738750D03*
D11*
X240506250Y-73818750D03*
D10*
X236696250Y-71278750D03*
D12*
X235426250Y-73818750D03*
X245586250Y-73818750D03*
%TD*%
D10*
%TO.C,SW83*%
X243046250Y-25876250D03*
D11*
X240506250Y-30956250D03*
D10*
X236696250Y-28416250D03*
D12*
X235426250Y-30956250D03*
X245586250Y-30956250D03*
%TD*%
D10*
%TO.C,SW82*%
X219233750Y-130651250D03*
D11*
X216693750Y-135731250D03*
D10*
X212883750Y-133191250D03*
D12*
X211613750Y-135731250D03*
X221773750Y-135731250D03*
%TD*%
D10*
%TO.C,SW81*%
X219233750Y-87788750D03*
D11*
X216693750Y-92868750D03*
D10*
X212883750Y-90328750D03*
D12*
X211613750Y-92868750D03*
X221773750Y-92868750D03*
%TD*%
D10*
%TO.C,SW80*%
X219233750Y-68738750D03*
D11*
X216693750Y-73818750D03*
D10*
X212883750Y-71278750D03*
D12*
X211613750Y-73818750D03*
X221773750Y-73818750D03*
%TD*%
D10*
%TO.C,SW79*%
X219233750Y-49688750D03*
D11*
X216693750Y-54768750D03*
D10*
X212883750Y-52228750D03*
D12*
X211613750Y-54768750D03*
X221773750Y-54768750D03*
%TD*%
D10*
%TO.C,SW77*%
X200183750Y-111601250D03*
D11*
X197643750Y-116681250D03*
D10*
X193833750Y-114141250D03*
D12*
X192563750Y-116681250D03*
X202723750Y-116681250D03*
%TD*%
D10*
%TO.C,SW75*%
X185896250Y-49688750D03*
D11*
X183356250Y-54768750D03*
D10*
X179546250Y-52228750D03*
D12*
X178276250Y-54768750D03*
X188436250Y-54768750D03*
D13*
X171450000Y-47783750D03*
X195262500Y-47783750D03*
D11*
X171450000Y-63023750D03*
X195262500Y-63023750D03*
%TD*%
D10*
%TO.C,SW74*%
X195421250Y-25876250D03*
D11*
X192881250Y-30956250D03*
D10*
X189071250Y-28416250D03*
D12*
X187801250Y-30956250D03*
X197961250Y-30956250D03*
%TD*%
D10*
%TO.C,SW73*%
X200183750Y-130651250D03*
D11*
X197643750Y-135731250D03*
D10*
X193833750Y-133191250D03*
D12*
X192563750Y-135731250D03*
X202723750Y-135731250D03*
%TD*%
D10*
%TO.C,SW72*%
X169227500Y-106838750D03*
D11*
X166687500Y-111918750D03*
D10*
X162877500Y-109378750D03*
D12*
X161607500Y-111918750D03*
X171767500Y-111918750D03*
%TD*%
D10*
%TO.C,SW71*%
X183515000Y-87788750D03*
D11*
X180975000Y-92868750D03*
D10*
X177165000Y-90328750D03*
D12*
X175895000Y-92868750D03*
X186055000Y-92868750D03*
D13*
X169068750Y-85883750D03*
X192881250Y-85883750D03*
D11*
X169068750Y-101123750D03*
X192881250Y-101123750D03*
%TD*%
D10*
%TO.C,SW70*%
X166846250Y-68738750D03*
D11*
X164306250Y-73818750D03*
D10*
X160496250Y-71278750D03*
D12*
X159226250Y-73818750D03*
X169386250Y-73818750D03*
%TD*%
D10*
%TO.C,SW69*%
X157321250Y-49688750D03*
D11*
X154781250Y-54768750D03*
D10*
X150971250Y-52228750D03*
D12*
X149701250Y-54768750D03*
X159861250Y-54768750D03*
%TD*%
D10*
%TO.C,SW68*%
X171608750Y-25876250D03*
D11*
X169068750Y-30956250D03*
D10*
X165258750Y-28416250D03*
D12*
X163988750Y-30956250D03*
X174148750Y-30956250D03*
%TD*%
D10*
%TO.C,SW67*%
X181133750Y-130651250D03*
D11*
X178593750Y-135731250D03*
D10*
X174783750Y-133191250D03*
D12*
X173513750Y-135731250D03*
X183673750Y-135731250D03*
%TD*%
D10*
%TO.C,SW66*%
X143033750Y-106838750D03*
D11*
X140493750Y-111918750D03*
D10*
X136683750Y-109378750D03*
D12*
X135413750Y-111918750D03*
X145573750Y-111918750D03*
%TD*%
D10*
%TO.C,SW65*%
X152558750Y-87788750D03*
D11*
X150018750Y-92868750D03*
D10*
X146208750Y-90328750D03*
D12*
X144938750Y-92868750D03*
X155098750Y-92868750D03*
%TD*%
D10*
%TO.C,SW64*%
X147796250Y-68738750D03*
D11*
X145256250Y-73818750D03*
D10*
X141446250Y-71278750D03*
D12*
X140176250Y-73818750D03*
X150336250Y-73818750D03*
%TD*%
D10*
%TO.C,SW63*%
X138271250Y-49688750D03*
D11*
X135731250Y-54768750D03*
D10*
X131921250Y-52228750D03*
D12*
X130651250Y-54768750D03*
X140811250Y-54768750D03*
%TD*%
D10*
%TO.C,SW62*%
X152558750Y-25876250D03*
D11*
X150018750Y-30956250D03*
D10*
X146208750Y-28416250D03*
D12*
X144938750Y-30956250D03*
X155098750Y-30956250D03*
%TD*%
D10*
%TO.C,SW61*%
X152558750Y-125888750D03*
D11*
X150018750Y-130968750D03*
D10*
X146208750Y-128428750D03*
D12*
X144938750Y-130968750D03*
X155098750Y-130968750D03*
%TD*%
D10*
%TO.C,SW60*%
X123983750Y-106838750D03*
D11*
X121443750Y-111918750D03*
D10*
X117633750Y-109378750D03*
D12*
X116363750Y-111918750D03*
X126523750Y-111918750D03*
%TD*%
D10*
%TO.C,SW59*%
X133508750Y-87788750D03*
D11*
X130968750Y-92868750D03*
D10*
X127158750Y-90328750D03*
D12*
X125888750Y-92868750D03*
X136048750Y-92868750D03*
%TD*%
D10*
%TO.C,SW58*%
X128746250Y-68738750D03*
D11*
X126206250Y-73818750D03*
D10*
X122396250Y-71278750D03*
D12*
X121126250Y-73818750D03*
X131286250Y-73818750D03*
%TD*%
D10*
%TO.C,SW57*%
X119221250Y-49688750D03*
D11*
X116681250Y-54768750D03*
D10*
X112871250Y-52228750D03*
D12*
X111601250Y-54768750D03*
X121761250Y-54768750D03*
%TD*%
D10*
%TO.C,SW56*%
X133508750Y-25876250D03*
D11*
X130968750Y-30956250D03*
D10*
X127158750Y-28416250D03*
D12*
X125888750Y-30956250D03*
X136048750Y-30956250D03*
%TD*%
D10*
%TO.C,SW55*%
X123983750Y-125888750D03*
D11*
X121443750Y-130968750D03*
D10*
X117633750Y-128428750D03*
D12*
X116363750Y-130968750D03*
X126523750Y-130968750D03*
%TD*%
%TO.C,SW54*%
X107473750Y-111918750D03*
X97313750Y-111918750D03*
D10*
X98583750Y-109378750D03*
D11*
X102393750Y-111918750D03*
D10*
X104933750Y-106838750D03*
%TD*%
%TO.C,SW53*%
X114458750Y-87788750D03*
D11*
X111918750Y-92868750D03*
D10*
X108108750Y-90328750D03*
D12*
X106838750Y-92868750D03*
X116998750Y-92868750D03*
%TD*%
D10*
%TO.C,SW52*%
X109696250Y-68738750D03*
D11*
X107156250Y-73818750D03*
D10*
X103346250Y-71278750D03*
D12*
X102076250Y-73818750D03*
X112236250Y-73818750D03*
%TD*%
D10*
%TO.C,SW51*%
X100171250Y-49688750D03*
D11*
X97631250Y-54768750D03*
D10*
X93821250Y-52228750D03*
D12*
X92551250Y-54768750D03*
X102711250Y-54768750D03*
%TD*%
D10*
%TO.C,SW50*%
X114458750Y-25876250D03*
D11*
X111918750Y-30956250D03*
D10*
X108108750Y-28416250D03*
D12*
X106838750Y-30956250D03*
X116998750Y-30956250D03*
%TD*%
D10*
%TO.C,SW49*%
X85883750Y-106838750D03*
D11*
X83343750Y-111918750D03*
D10*
X79533750Y-109378750D03*
D12*
X78263750Y-111918750D03*
X88423750Y-111918750D03*
%TD*%
D10*
%TO.C,SW48*%
X95408750Y-87788750D03*
D11*
X92868750Y-92868750D03*
D10*
X89058750Y-90328750D03*
D12*
X87788750Y-92868750D03*
X97948750Y-92868750D03*
%TD*%
D10*
%TO.C,SW47*%
X90646250Y-68738750D03*
D11*
X88106250Y-73818750D03*
D10*
X84296250Y-71278750D03*
D12*
X83026250Y-73818750D03*
X93186250Y-73818750D03*
%TD*%
D10*
%TO.C,SW46*%
X81121250Y-49688750D03*
D11*
X78581250Y-54768750D03*
D10*
X74771250Y-52228750D03*
D12*
X73501250Y-54768750D03*
X83661250Y-54768750D03*
%TD*%
D10*
%TO.C,SW45*%
X90646250Y-25876250D03*
D11*
X88106250Y-30956250D03*
D10*
X84296250Y-28416250D03*
D12*
X83026250Y-30956250D03*
X93186250Y-30956250D03*
%TD*%
D10*
%TO.C,SW44*%
X66833750Y-106838750D03*
D11*
X64293750Y-111918750D03*
D10*
X60483750Y-109378750D03*
D12*
X59213750Y-111918750D03*
X69373750Y-111918750D03*
%TD*%
D10*
%TO.C,SW43*%
X76358750Y-87788750D03*
D11*
X73818750Y-92868750D03*
D10*
X70008750Y-90328750D03*
D12*
X68738750Y-92868750D03*
X78898750Y-92868750D03*
%TD*%
D10*
%TO.C,SW42*%
X71596250Y-68738750D03*
D11*
X69056250Y-73818750D03*
D10*
X65246250Y-71278750D03*
D12*
X63976250Y-73818750D03*
X74136250Y-73818750D03*
%TD*%
D10*
%TO.C,SW41*%
X62071250Y-49688750D03*
D11*
X59531250Y-54768750D03*
D10*
X55721250Y-52228750D03*
D12*
X54451250Y-54768750D03*
X64611250Y-54768750D03*
%TD*%
D10*
%TO.C,SW40*%
X71596250Y-25876250D03*
D11*
X69056250Y-30956250D03*
D10*
X65246250Y-28416250D03*
D12*
X63976250Y-30956250D03*
X74136250Y-30956250D03*
%TD*%
D10*
%TO.C,SW39*%
X47783750Y-106838750D03*
D11*
X45243750Y-111918750D03*
D10*
X41433750Y-109378750D03*
D12*
X40163750Y-111918750D03*
X50323750Y-111918750D03*
%TD*%
D10*
%TO.C,SW38*%
X57308750Y-87788750D03*
D11*
X54768750Y-92868750D03*
D10*
X50958750Y-90328750D03*
D12*
X49688750Y-92868750D03*
X59848750Y-92868750D03*
%TD*%
D10*
%TO.C,SW37*%
X52546250Y-68738750D03*
D11*
X50006250Y-73818750D03*
D10*
X46196250Y-71278750D03*
D12*
X44926250Y-73818750D03*
X55086250Y-73818750D03*
%TD*%
D10*
%TO.C,SW36*%
X43021250Y-49688750D03*
D11*
X40481250Y-54768750D03*
D10*
X36671250Y-52228750D03*
D12*
X35401250Y-54768750D03*
X45561250Y-54768750D03*
%TD*%
D10*
%TO.C,SW35*%
X52546250Y-25876250D03*
D11*
X50006250Y-30956250D03*
D10*
X46196250Y-28416250D03*
D12*
X44926250Y-30956250D03*
X55086250Y-30956250D03*
%TD*%
D10*
%TO.C,SW33*%
X28733750Y-106838750D03*
D11*
X26193750Y-111918750D03*
D10*
X22383750Y-109378750D03*
D12*
X21113750Y-111918750D03*
X31273750Y-111918750D03*
%TD*%
D10*
%TO.C,SW32*%
X38258750Y-87788750D03*
D11*
X35718750Y-92868750D03*
D10*
X31908750Y-90328750D03*
D12*
X30638750Y-92868750D03*
X40798750Y-92868750D03*
%TD*%
D10*
%TO.C,SW31*%
X33496250Y-68738750D03*
D11*
X30956250Y-73818750D03*
D10*
X27146250Y-71278750D03*
D12*
X25876250Y-73818750D03*
X36036250Y-73818750D03*
%TD*%
D10*
%TO.C,SW30*%
X23971250Y-49688750D03*
D11*
X21431250Y-54768750D03*
D10*
X17621250Y-52228750D03*
D12*
X16351250Y-54768750D03*
X26511250Y-54768750D03*
%TD*%
D10*
%TO.C,SW29*%
X33496250Y-25876250D03*
D11*
X30956250Y-30956250D03*
D10*
X27146250Y-28416250D03*
D12*
X25876250Y-30956250D03*
X36036250Y-30956250D03*
%TD*%
D10*
%TO.C,SW28*%
X9683750Y-106838750D03*
D11*
X7143750Y-111918750D03*
D10*
X3333750Y-109378750D03*
D12*
X2063750Y-111918750D03*
X12223750Y-111918750D03*
%TD*%
D10*
%TO.C,SW27*%
X19208750Y-87788750D03*
D11*
X16668750Y-92868750D03*
D10*
X12858750Y-90328750D03*
D12*
X11588750Y-92868750D03*
X21748750Y-92868750D03*
%TD*%
D10*
%TO.C,SW26*%
X14446250Y-68738750D03*
D11*
X11906250Y-73818750D03*
D10*
X8096250Y-71278750D03*
D12*
X6826250Y-73818750D03*
X16986250Y-73818750D03*
%TD*%
D10*
%TO.C,SW25*%
X4921250Y-49688750D03*
D11*
X2381250Y-54768750D03*
D10*
X-1428750Y-52228750D03*
D12*
X-2698750Y-54768750D03*
X7461250Y-54768750D03*
%TD*%
D10*
%TO.C,SW24*%
X9683750Y-25876250D03*
D11*
X7143750Y-30956250D03*
D10*
X3333750Y-28416250D03*
D12*
X2063750Y-30956250D03*
X12223750Y-30956250D03*
%TD*%
D10*
%TO.C,SW23*%
X-9366250Y-106838750D03*
D11*
X-11906250Y-111918750D03*
D10*
X-15716250Y-109378750D03*
D12*
X-16986250Y-111918750D03*
X-6826250Y-111918750D03*
%TD*%
D10*
%TO.C,SW22*%
X158750Y-87788750D03*
D11*
X-2381250Y-92868750D03*
D10*
X-6191250Y-90328750D03*
D12*
X-7461250Y-92868750D03*
X2698750Y-92868750D03*
%TD*%
D10*
%TO.C,SW21*%
X-4603750Y-68738750D03*
D11*
X-7143750Y-73818750D03*
D10*
X-10953750Y-71278750D03*
D12*
X-12223750Y-73818750D03*
X-2063750Y-73818750D03*
%TD*%
D10*
%TO.C,SW20*%
X-14128750Y-49688750D03*
D11*
X-16668750Y-54768750D03*
D10*
X-20478750Y-52228750D03*
D12*
X-21748750Y-54768750D03*
X-11588750Y-54768750D03*
%TD*%
D10*
%TO.C,SW19*%
X-9366250Y-25876250D03*
D11*
X-11906250Y-30956250D03*
D10*
X-15716250Y-28416250D03*
D12*
X-16986250Y-30956250D03*
X-6826250Y-30956250D03*
%TD*%
D10*
%TO.C,SW18*%
X-37941250Y-125888750D03*
D11*
X-40481250Y-130968750D03*
D10*
X-44291250Y-128428750D03*
D12*
X-45561250Y-130968750D03*
X-35401250Y-130968750D03*
%TD*%
D10*
%TO.C,SW17*%
X-28416250Y-106838750D03*
D11*
X-30956250Y-111918750D03*
D10*
X-34766250Y-109378750D03*
D12*
X-36036250Y-111918750D03*
X-25876250Y-111918750D03*
%TD*%
D10*
%TO.C,SW16*%
X-18891250Y-87788750D03*
D11*
X-21431250Y-92868750D03*
D10*
X-25241250Y-90328750D03*
D12*
X-26511250Y-92868750D03*
X-16351250Y-92868750D03*
%TD*%
D10*
%TO.C,SW15*%
X-23653750Y-68738750D03*
D11*
X-26193750Y-73818750D03*
D10*
X-30003750Y-71278750D03*
D12*
X-31273750Y-73818750D03*
X-21113750Y-73818750D03*
%TD*%
D10*
%TO.C,SW14*%
X-33178750Y-49688750D03*
D11*
X-35718750Y-54768750D03*
D10*
X-39528750Y-52228750D03*
D12*
X-40798750Y-54768750D03*
X-30638750Y-54768750D03*
%TD*%
D10*
%TO.C,SW13*%
X-28416250Y-25876250D03*
D11*
X-30956250Y-30956250D03*
D10*
X-34766250Y-28416250D03*
D12*
X-36036250Y-30956250D03*
X-25876250Y-30956250D03*
%TD*%
D10*
%TO.C,SW12*%
X-37941250Y-87788750D03*
D11*
X-40481250Y-92868750D03*
D10*
X-44291250Y-90328750D03*
D12*
X-45561250Y-92868750D03*
X-35401250Y-92868750D03*
%TD*%
D10*
%TO.C,SW11*%
X-42703750Y-68738750D03*
D11*
X-45243750Y-73818750D03*
D10*
X-49053750Y-71278750D03*
D12*
X-50323750Y-73818750D03*
X-40163750Y-73818750D03*
%TD*%
D10*
%TO.C,SW10*%
X-52228750Y-49688750D03*
D11*
X-54768750Y-54768750D03*
D10*
X-58578750Y-52228750D03*
D12*
X-59848750Y-54768750D03*
X-49688750Y-54768750D03*
%TD*%
D10*
%TO.C,SW9*%
X-47466250Y-25876250D03*
D11*
X-50006250Y-30956250D03*
D10*
X-53816250Y-28416250D03*
D12*
X-55086250Y-30956250D03*
X-44926250Y-30956250D03*
%TD*%
D10*
%TO.C,SW7*%
X-66516250Y-125888750D03*
D11*
X-69056250Y-130968750D03*
D10*
X-72866250Y-128428750D03*
D12*
X-74136250Y-130968750D03*
X-63976250Y-130968750D03*
%TD*%
D10*
%TO.C,SW6*%
X-59372500Y-106838750D03*
D11*
X-61912500Y-111918750D03*
D10*
X-65722500Y-109378750D03*
D12*
X-66992500Y-111918750D03*
X-56832500Y-111918750D03*
D13*
X-73818750Y-104933750D03*
X-50006250Y-104933750D03*
D11*
X-73818750Y-120173750D03*
X-50006250Y-120173750D03*
%TD*%
D10*
%TO.C,SW3*%
X-71278750Y-49688750D03*
D11*
X-73818750Y-54768750D03*
D10*
X-77628750Y-52228750D03*
D12*
X-78898750Y-54768750D03*
X-68738750Y-54768750D03*
%TD*%
D10*
%TO.C,SW2*%
X-71278750Y-25876250D03*
D11*
X-73818750Y-30956250D03*
D10*
X-77628750Y-28416250D03*
D12*
X-78898750Y-30956250D03*
X-68738750Y-30956250D03*
%TD*%
D20*
%TO.C,SW1*%
X232340001Y-139180000D03*
X232340001Y-132980000D03*
X228640001Y-139180000D03*
X228640001Y-132980000D03*
%TD*%
%TO.C,R5*%
G36*
G01*
X240669999Y-42125001D02*
X241570001Y-42125001D01*
G75*
G02*
X241820000Y-42375000I0J-249999D01*
G01*
X241820000Y-43025002D01*
G75*
G02*
X241570001Y-43275001I-249999J0D01*
G01*
X240669999Y-43275001D01*
G75*
G02*
X240420000Y-43025002I0J249999D01*
G01*
X240420000Y-42375000D01*
G75*
G02*
X240669999Y-42125001I249999J0D01*
G01*
G37*
G36*
G01*
X240669999Y-40075001D02*
X241570001Y-40075001D01*
G75*
G02*
X241820000Y-40325000I0J-249999D01*
G01*
X241820000Y-40975002D01*
G75*
G02*
X241570001Y-41225001I-249999J0D01*
G01*
X240669999Y-41225001D01*
G75*
G02*
X240420000Y-40975002I0J249999D01*
G01*
X240420000Y-40325000D01*
G75*
G02*
X240669999Y-40075001I249999J0D01*
G01*
G37*
%TD*%
%TO.C,R4*%
G36*
G01*
X231539999Y-129224999D02*
X232440001Y-129224999D01*
G75*
G02*
X232690000Y-129474998I0J-249999D01*
G01*
X232690000Y-130125000D01*
G75*
G02*
X232440001Y-130374999I-249999J0D01*
G01*
X231539999Y-130374999D01*
G75*
G02*
X231290000Y-130125000I0J249999D01*
G01*
X231290000Y-129474998D01*
G75*
G02*
X231539999Y-129224999I249999J0D01*
G01*
G37*
G36*
G01*
X231539999Y-127174999D02*
X232440001Y-127174999D01*
G75*
G02*
X232690000Y-127424998I0J-249999D01*
G01*
X232690000Y-128075000D01*
G75*
G02*
X232440001Y-128324999I-249999J0D01*
G01*
X231539999Y-128324999D01*
G75*
G02*
X231290000Y-128075000I0J249999D01*
G01*
X231290000Y-127424998D01*
G75*
G02*
X231539999Y-127174999I249999J0D01*
G01*
G37*
%TD*%
%TO.C,R3*%
G36*
G01*
X233250001Y-31440000D02*
X232349999Y-31440000D01*
G75*
G02*
X232100000Y-31190001I0J249999D01*
G01*
X232100000Y-30539999D01*
G75*
G02*
X232349999Y-30290000I249999J0D01*
G01*
X233250001Y-30290000D01*
G75*
G02*
X233500000Y-30539999I0J-249999D01*
G01*
X233500000Y-31190001D01*
G75*
G02*
X233250001Y-31440000I-249999J0D01*
G01*
G37*
G36*
G01*
X233250001Y-33490000D02*
X232349999Y-33490000D01*
G75*
G02*
X232100000Y-33240001I0J249999D01*
G01*
X232100000Y-32589999D01*
G75*
G02*
X232349999Y-32340000I249999J0D01*
G01*
X233250001Y-32340000D01*
G75*
G02*
X233500000Y-32589999I0J-249999D01*
G01*
X233500000Y-33240001D01*
G75*
G02*
X233250001Y-33490000I-249999J0D01*
G01*
G37*
%TD*%
%TO.C,R2*%
G36*
G01*
X225100001Y-31324999D02*
X224199999Y-31324999D01*
G75*
G02*
X223950000Y-31075000I0J249999D01*
G01*
X223950000Y-30424998D01*
G75*
G02*
X224199999Y-30174999I249999J0D01*
G01*
X225100001Y-30174999D01*
G75*
G02*
X225350000Y-30424998I0J-249999D01*
G01*
X225350000Y-31075000D01*
G75*
G02*
X225100001Y-31324999I-249999J0D01*
G01*
G37*
G36*
G01*
X225100001Y-33374999D02*
X224199999Y-33374999D01*
G75*
G02*
X223950000Y-33125000I0J249999D01*
G01*
X223950000Y-32474998D01*
G75*
G02*
X224199999Y-32224999I249999J0D01*
G01*
X225100001Y-32224999D01*
G75*
G02*
X225350000Y-32474998I0J-249999D01*
G01*
X225350000Y-33125000D01*
G75*
G02*
X225100001Y-33374999I-249999J0D01*
G01*
G37*
%TD*%
%TO.C,R1*%
G36*
G01*
X232699999Y-27060000D02*
X233600001Y-27060000D01*
G75*
G02*
X233850000Y-27309999I0J-249999D01*
G01*
X233850000Y-27960001D01*
G75*
G02*
X233600001Y-28210000I-249999J0D01*
G01*
X232699999Y-28210000D01*
G75*
G02*
X232450000Y-27960001I0J249999D01*
G01*
X232450000Y-27309999D01*
G75*
G02*
X232699999Y-27060000I249999J0D01*
G01*
G37*
G36*
G01*
X232699999Y-25010000D02*
X233600001Y-25010000D01*
G75*
G02*
X233850000Y-25259999I0J-249999D01*
G01*
X233850000Y-25910001D01*
G75*
G02*
X233600001Y-26160000I-249999J0D01*
G01*
X232699999Y-26160000D01*
G75*
G02*
X232450000Y-25910001I0J249999D01*
G01*
X232450000Y-25259999D01*
G75*
G02*
X232699999Y-25010000I249999J0D01*
G01*
G37*
%TD*%
D21*
%TO.C,Q1*%
X223280000Y-130280000D03*
X225280000Y-131230000D03*
X225280000Y-129330000D03*
%TD*%
D14*
%TO.C,LEDSCRL1*%
X215430000Y-36030000D03*
D15*
X217970000Y-36030000D03*
%TD*%
D14*
%TO.C,LEDNUM1*%
X239230000Y-59840000D03*
D15*
X241770000Y-59840000D03*
%TD*%
D14*
%TO.C,LEDCAPS1*%
X-67930000Y-97950000D03*
D15*
X-65390000Y-97950000D03*
%TD*%
D22*
%TO.C,J2*%
X81310000Y-127150000D03*
X81310000Y-124610000D03*
X78770000Y-127150000D03*
X78770000Y-124610000D03*
X76230000Y-127150000D03*
X76230000Y-124610000D03*
X73690000Y-127150000D03*
X73690000Y-124610000D03*
X71150000Y-127150000D03*
D23*
X71150000Y-124610000D03*
%TD*%
D24*
%TO.C,J1*%
X232900000Y-22312500D03*
D25*
X232900000Y-18112500D03*
D26*
X231490000Y-21761500D03*
X225710000Y-21761500D03*
D25*
X224300000Y-18112500D03*
G36*
G01*
X225050000Y-23662500D02*
X225050000Y-22512500D01*
G75*
G02*
X225200000Y-22362500I150000J0D01*
G01*
X225500000Y-22362500D01*
G75*
G02*
X225650000Y-22512500I0J-150000D01*
G01*
X225650000Y-23662500D01*
G75*
G02*
X225500000Y-23812500I-150000J0D01*
G01*
X225200000Y-23812500D01*
G75*
G02*
X225050000Y-23662500I0J150000D01*
G01*
G37*
G36*
G01*
X226700000Y-23737500D02*
X226700000Y-22437500D01*
G75*
G02*
X226775000Y-22362500I75000J0D01*
G01*
X226925000Y-22362500D01*
G75*
G02*
X227000000Y-22437500I0J-75000D01*
G01*
X227000000Y-23737500D01*
G75*
G02*
X226925000Y-23812500I-75000J0D01*
G01*
X226775000Y-23812500D01*
G75*
G02*
X226700000Y-23737500I0J75000D01*
G01*
G37*
G36*
G01*
X227200000Y-23737500D02*
X227200000Y-22437500D01*
G75*
G02*
X227275000Y-22362500I75000J0D01*
G01*
X227425000Y-22362500D01*
G75*
G02*
X227500000Y-22437500I0J-75000D01*
G01*
X227500000Y-23737500D01*
G75*
G02*
X227425000Y-23812500I-75000J0D01*
G01*
X227275000Y-23812500D01*
G75*
G02*
X227200000Y-23737500I0J75000D01*
G01*
G37*
G36*
G01*
X227700000Y-23737500D02*
X227700000Y-22437500D01*
G75*
G02*
X227775000Y-22362500I75000J0D01*
G01*
X227925000Y-22362500D01*
G75*
G02*
X228000000Y-22437500I0J-75000D01*
G01*
X228000000Y-23737500D01*
G75*
G02*
X227925000Y-23812500I-75000J0D01*
G01*
X227775000Y-23812500D01*
G75*
G02*
X227700000Y-23737500I0J75000D01*
G01*
G37*
G36*
G01*
X228196000Y-23737500D02*
X228196000Y-22437500D01*
G75*
G02*
X228271000Y-22362500I75000J0D01*
G01*
X228421000Y-22362500D01*
G75*
G02*
X228496000Y-22437500I0J-75000D01*
G01*
X228496000Y-23737500D01*
G75*
G02*
X228421000Y-23812500I-75000J0D01*
G01*
X228271000Y-23812500D01*
G75*
G02*
X228196000Y-23737500I0J75000D01*
G01*
G37*
G36*
G01*
X230200000Y-23737500D02*
X230200000Y-22437500D01*
G75*
G02*
X230275000Y-22362500I75000J0D01*
G01*
X230425000Y-22362500D01*
G75*
G02*
X230500000Y-22437500I0J-75000D01*
G01*
X230500000Y-23737500D01*
G75*
G02*
X230425000Y-23812500I-75000J0D01*
G01*
X230275000Y-23812500D01*
G75*
G02*
X230200000Y-23737500I0J75000D01*
G01*
G37*
G36*
G01*
X229700000Y-23737500D02*
X229700000Y-22437500D01*
G75*
G02*
X229775000Y-22362500I75000J0D01*
G01*
X229925000Y-22362500D01*
G75*
G02*
X230000000Y-22437500I0J-75000D01*
G01*
X230000000Y-23737500D01*
G75*
G02*
X229925000Y-23812500I-75000J0D01*
G01*
X229775000Y-23812500D01*
G75*
G02*
X229700000Y-23737500I0J75000D01*
G01*
G37*
G36*
G01*
X229200000Y-23737500D02*
X229200000Y-22437500D01*
G75*
G02*
X229275000Y-22362500I75000J0D01*
G01*
X229425000Y-22362500D01*
G75*
G02*
X229500000Y-22437500I0J-75000D01*
G01*
X229500000Y-23737500D01*
G75*
G02*
X229425000Y-23812500I-75000J0D01*
G01*
X229275000Y-23812500D01*
G75*
G02*
X229200000Y-23737500I0J75000D01*
G01*
G37*
G36*
G01*
X228700000Y-23737500D02*
X228700000Y-22437500D01*
G75*
G02*
X228775000Y-22362500I75000J0D01*
G01*
X228925000Y-22362500D01*
G75*
G02*
X229000000Y-22437500I0J-75000D01*
G01*
X229000000Y-23737500D01*
G75*
G02*
X228925000Y-23812500I-75000J0D01*
G01*
X228775000Y-23812500D01*
G75*
G02*
X228700000Y-23737500I0J75000D01*
G01*
G37*
D24*
X224300000Y-22312500D03*
G36*
G01*
X225850000Y-23662500D02*
X225850000Y-22512500D01*
G75*
G02*
X226000000Y-22362500I150000J0D01*
G01*
X226300000Y-22362500D01*
G75*
G02*
X226450000Y-22512500I0J-150000D01*
G01*
X226450000Y-23662500D01*
G75*
G02*
X226300000Y-23812500I-150000J0D01*
G01*
X226000000Y-23812500D01*
G75*
G02*
X225850000Y-23662500I0J150000D01*
G01*
G37*
G36*
G01*
X231550000Y-23662500D02*
X231550000Y-22512500D01*
G75*
G02*
X231700000Y-22362500I150000J0D01*
G01*
X232000000Y-22362500D01*
G75*
G02*
X232150000Y-22512500I0J-150000D01*
G01*
X232150000Y-23662500D01*
G75*
G02*
X232000000Y-23812500I-150000J0D01*
G01*
X231700000Y-23812500D01*
G75*
G02*
X231550000Y-23662500I0J150000D01*
G01*
G37*
G36*
G01*
X230750000Y-23662500D02*
X230750000Y-22512500D01*
G75*
G02*
X230900000Y-22362500I150000J0D01*
G01*
X231200000Y-22362500D01*
G75*
G02*
X231350000Y-22512500I0J-150000D01*
G01*
X231350000Y-23662500D01*
G75*
G02*
X231200000Y-23812500I-150000J0D01*
G01*
X230900000Y-23812500D01*
G75*
G02*
X230750000Y-23662500I0J150000D01*
G01*
G37*
%TD*%
%TO.C,DF1*%
G36*
G01*
X238240000Y-40100000D02*
X238940000Y-40100000D01*
G75*
G02*
X239190000Y-40350000I0J-250000D01*
G01*
X239190000Y-40850000D01*
G75*
G02*
X238940000Y-41100000I-250000J0D01*
G01*
X238240000Y-41100000D01*
G75*
G02*
X237990000Y-40850000I0J250000D01*
G01*
X237990000Y-40350000D01*
G75*
G02*
X238240000Y-40100000I250000J0D01*
G01*
G37*
G36*
G01*
X238240000Y-43400000D02*
X238940000Y-43400000D01*
G75*
G02*
X239190000Y-43650000I0J-250000D01*
G01*
X239190000Y-44150000D01*
G75*
G02*
X238940000Y-44400000I-250000J0D01*
G01*
X238240000Y-44400000D01*
G75*
G02*
X237990000Y-44150000I0J250000D01*
G01*
X237990000Y-43650000D01*
G75*
G02*
X238240000Y-43400000I250000J0D01*
G01*
G37*
%TD*%
%TO.C,D123*%
G36*
G01*
X294925000Y-104275000D02*
X295625000Y-104275000D01*
G75*
G02*
X295875000Y-104525000I0J-250000D01*
G01*
X295875000Y-105025000D01*
G75*
G02*
X295625000Y-105275000I-250000J0D01*
G01*
X294925000Y-105275000D01*
G75*
G02*
X294675000Y-105025000I0J250000D01*
G01*
X294675000Y-104525000D01*
G75*
G02*
X294925000Y-104275000I250000J0D01*
G01*
G37*
G36*
G01*
X294925000Y-107575000D02*
X295625000Y-107575000D01*
G75*
G02*
X295875000Y-107825000I0J-250000D01*
G01*
X295875000Y-108325000D01*
G75*
G02*
X295625000Y-108575000I-250000J0D01*
G01*
X294925000Y-108575000D01*
G75*
G02*
X294675000Y-108325000I0J250000D01*
G01*
X294675000Y-107825000D01*
G75*
G02*
X294925000Y-107575000I250000J0D01*
G01*
G37*
%TD*%
D27*
%TO.C,D122*%
X185668750Y-142093750D03*
X185668750Y-138893750D03*
X190568750Y-142093750D03*
X190568750Y-138893750D03*
%TD*%
%TO.C,D121*%
X9456250Y-38100000D03*
X9456250Y-34900000D03*
X14356250Y-38100000D03*
X14356250Y-34900000D03*
%TD*%
%TO.C,D120*%
X138043750Y-142093750D03*
X138043750Y-138893750D03*
X142943750Y-142093750D03*
X142943750Y-138893750D03*
%TD*%
%TO.C,D119*%
X59393750Y-38100000D03*
X59393750Y-34900000D03*
X64293750Y-38100000D03*
X64293750Y-34900000D03*
%TD*%
%TO.C,D118*%
X75610000Y-141380000D03*
X75610000Y-138180000D03*
X80510000Y-141380000D03*
X80510000Y-138180000D03*
%TD*%
%TO.C,D117*%
X119220000Y-38260000D03*
X119220000Y-35060000D03*
X124120000Y-38260000D03*
X124120000Y-35060000D03*
%TD*%
%TO.C,D116*%
X21300000Y-140530000D03*
X21300000Y-137330000D03*
X26200000Y-140530000D03*
X26200000Y-137330000D03*
%TD*%
%TO.C,D115*%
X183630000Y-38100000D03*
X183630000Y-34900000D03*
X188530000Y-38100000D03*
X188530000Y-34900000D03*
%TD*%
%TO.C,D114*%
X-30956250Y-140493750D03*
X-30956250Y-137293750D03*
X-26056250Y-140493750D03*
X-26056250Y-137293750D03*
%TD*%
%TO.C,D113*%
X247610000Y-38110000D03*
X247610000Y-34910000D03*
X252510000Y-38110000D03*
X252510000Y-34910000D03*
%TD*%
%TO.C,D112*%
X-80962500Y-140493750D03*
X-80962500Y-137293750D03*
X-76062500Y-140493750D03*
X-76062500Y-137293750D03*
%TD*%
%TO.C,D111*%
X299840000Y-37880000D03*
X299840000Y-34680000D03*
X304740000Y-37880000D03*
X304740000Y-34680000D03*
%TD*%
%TO.C,D110*%
X-81100000Y-100831250D03*
X-81100000Y-97631250D03*
X-76200000Y-100831250D03*
X-76200000Y-97631250D03*
%TD*%
%TO.C,D109*%
X299170000Y-67660000D03*
X299170000Y-64460000D03*
X304070000Y-67660000D03*
X304070000Y-64460000D03*
%TD*%
%TO.C,D108*%
X-81100000Y-65112500D03*
X-81100000Y-61912500D03*
X-76200000Y-65112500D03*
X-76200000Y-61912500D03*
%TD*%
%TO.C,D107*%
X299250000Y-102580000D03*
X299250000Y-99380000D03*
X304150000Y-102580000D03*
X304150000Y-99380000D03*
%TD*%
%TO.C,D106*%
X-81031250Y-38918750D03*
X-81031250Y-35718750D03*
X-76131250Y-38918750D03*
X-76131250Y-35718750D03*
%TD*%
%TO.C,D105*%
X298110000Y-142093750D03*
X298110000Y-138893750D03*
X303010000Y-142093750D03*
X303010000Y-138893750D03*
%TD*%
%TO.C,D104*%
X-43000000Y-38918750D03*
X-43000000Y-35718750D03*
X-38100000Y-38918750D03*
X-38100000Y-35718750D03*
%TD*%
%TO.C,D103*%
X247581250Y-142093750D03*
X247581250Y-138893750D03*
X252481250Y-142093750D03*
X252481250Y-138893750D03*
%TD*%
%TO.C,D102*%
G36*
G01*
X290162500Y-85225000D02*
X290862500Y-85225000D01*
G75*
G02*
X291112500Y-85475000I0J-250000D01*
G01*
X291112500Y-85975000D01*
G75*
G02*
X290862500Y-86225000I-250000J0D01*
G01*
X290162500Y-86225000D01*
G75*
G02*
X289912500Y-85975000I0J250000D01*
G01*
X289912500Y-85475000D01*
G75*
G02*
X290162500Y-85225000I250000J0D01*
G01*
G37*
G36*
G01*
X290162500Y-88525000D02*
X290862500Y-88525000D01*
G75*
G02*
X291112500Y-88775000I0J-250000D01*
G01*
X291112500Y-89275000D01*
G75*
G02*
X290862500Y-89525000I-250000J0D01*
G01*
X290162500Y-89525000D01*
G75*
G02*
X289912500Y-89275000I0J250000D01*
G01*
X289912500Y-88775000D01*
G75*
G02*
X290162500Y-88525000I250000J0D01*
G01*
G37*
%TD*%
%TO.C,D101*%
G36*
G01*
X304450000Y-47125000D02*
X305150000Y-47125000D01*
G75*
G02*
X305400000Y-47375000I0J-250000D01*
G01*
X305400000Y-47875000D01*
G75*
G02*
X305150000Y-48125000I-250000J0D01*
G01*
X304450000Y-48125000D01*
G75*
G02*
X304200000Y-47875000I0J250000D01*
G01*
X304200000Y-47375000D01*
G75*
G02*
X304450000Y-47125000I250000J0D01*
G01*
G37*
G36*
G01*
X304450000Y-50425000D02*
X305150000Y-50425000D01*
G75*
G02*
X305400000Y-50675000I0J-250000D01*
G01*
X305400000Y-51175000D01*
G75*
G02*
X305150000Y-51425000I-250000J0D01*
G01*
X304450000Y-51425000D01*
G75*
G02*
X304200000Y-51175000I0J250000D01*
G01*
X304200000Y-50675000D01*
G75*
G02*
X304450000Y-50425000I250000J0D01*
G01*
G37*
%TD*%
%TO.C,D99*%
G36*
G01*
X285400000Y-123325000D02*
X286100000Y-123325000D01*
G75*
G02*
X286350000Y-123575000I0J-250000D01*
G01*
X286350000Y-124075000D01*
G75*
G02*
X286100000Y-124325000I-250000J0D01*
G01*
X285400000Y-124325000D01*
G75*
G02*
X285150000Y-124075000I0J250000D01*
G01*
X285150000Y-123575000D01*
G75*
G02*
X285400000Y-123325000I250000J0D01*
G01*
G37*
G36*
G01*
X285400000Y-126625000D02*
X286100000Y-126625000D01*
G75*
G02*
X286350000Y-126875000I0J-250000D01*
G01*
X286350000Y-127375000D01*
G75*
G02*
X286100000Y-127625000I-250000J0D01*
G01*
X285400000Y-127625000D01*
G75*
G02*
X285150000Y-127375000I0J250000D01*
G01*
X285150000Y-126875000D01*
G75*
G02*
X285400000Y-126625000I250000J0D01*
G01*
G37*
%TD*%
%TO.C,D98*%
G36*
G01*
X285400000Y-104275000D02*
X286100000Y-104275000D01*
G75*
G02*
X286350000Y-104525000I0J-250000D01*
G01*
X286350000Y-105025000D01*
G75*
G02*
X286100000Y-105275000I-250000J0D01*
G01*
X285400000Y-105275000D01*
G75*
G02*
X285150000Y-105025000I0J250000D01*
G01*
X285150000Y-104525000D01*
G75*
G02*
X285400000Y-104275000I250000J0D01*
G01*
G37*
G36*
G01*
X285400000Y-107575000D02*
X286100000Y-107575000D01*
G75*
G02*
X286350000Y-107825000I0J-250000D01*
G01*
X286350000Y-108325000D01*
G75*
G02*
X286100000Y-108575000I-250000J0D01*
G01*
X285400000Y-108575000D01*
G75*
G02*
X285150000Y-108325000I0J250000D01*
G01*
X285150000Y-107825000D01*
G75*
G02*
X285400000Y-107575000I250000J0D01*
G01*
G37*
%TD*%
%TO.C,D97*%
G36*
G01*
X285400000Y-85225000D02*
X286100000Y-85225000D01*
G75*
G02*
X286350000Y-85475000I0J-250000D01*
G01*
X286350000Y-85975000D01*
G75*
G02*
X286100000Y-86225000I-250000J0D01*
G01*
X285400000Y-86225000D01*
G75*
G02*
X285150000Y-85975000I0J250000D01*
G01*
X285150000Y-85475000D01*
G75*
G02*
X285400000Y-85225000I250000J0D01*
G01*
G37*
G36*
G01*
X285400000Y-88525000D02*
X286100000Y-88525000D01*
G75*
G02*
X286350000Y-88775000I0J-250000D01*
G01*
X286350000Y-89275000D01*
G75*
G02*
X286100000Y-89525000I-250000J0D01*
G01*
X285400000Y-89525000D01*
G75*
G02*
X285150000Y-89275000I0J250000D01*
G01*
X285150000Y-88775000D01*
G75*
G02*
X285400000Y-88525000I250000J0D01*
G01*
G37*
%TD*%
%TO.C,D96*%
G36*
G01*
X285400000Y-66497693D02*
X286100000Y-66497693D01*
G75*
G02*
X286350000Y-66747693I0J-250000D01*
G01*
X286350000Y-67247693D01*
G75*
G02*
X286100000Y-67497693I-250000J0D01*
G01*
X285400000Y-67497693D01*
G75*
G02*
X285150000Y-67247693I0J250000D01*
G01*
X285150000Y-66747693D01*
G75*
G02*
X285400000Y-66497693I250000J0D01*
G01*
G37*
G36*
G01*
X285400000Y-69797693D02*
X286100000Y-69797693D01*
G75*
G02*
X286350000Y-70047693I0J-250000D01*
G01*
X286350000Y-70547693D01*
G75*
G02*
X286100000Y-70797693I-250000J0D01*
G01*
X285400000Y-70797693D01*
G75*
G02*
X285150000Y-70547693I0J250000D01*
G01*
X285150000Y-70047693D01*
G75*
G02*
X285400000Y-69797693I250000J0D01*
G01*
G37*
%TD*%
%TO.C,D95*%
G36*
G01*
X285400000Y-47125000D02*
X286100000Y-47125000D01*
G75*
G02*
X286350000Y-47375000I0J-250000D01*
G01*
X286350000Y-47875000D01*
G75*
G02*
X286100000Y-48125000I-250000J0D01*
G01*
X285400000Y-48125000D01*
G75*
G02*
X285150000Y-47875000I0J250000D01*
G01*
X285150000Y-47375000D01*
G75*
G02*
X285400000Y-47125000I250000J0D01*
G01*
G37*
G36*
G01*
X285400000Y-50425000D02*
X286100000Y-50425000D01*
G75*
G02*
X286350000Y-50675000I0J-250000D01*
G01*
X286350000Y-51175000D01*
G75*
G02*
X286100000Y-51425000I-250000J0D01*
G01*
X285400000Y-51425000D01*
G75*
G02*
X285150000Y-51175000I0J250000D01*
G01*
X285150000Y-50675000D01*
G75*
G02*
X285400000Y-50425000I250000J0D01*
G01*
G37*
%TD*%
%TO.C,D94*%
G36*
G01*
X286560000Y-25920000D02*
X287260000Y-25920000D01*
G75*
G02*
X287510000Y-26170000I0J-250000D01*
G01*
X287510000Y-26670000D01*
G75*
G02*
X287260000Y-26920000I-250000J0D01*
G01*
X286560000Y-26920000D01*
G75*
G02*
X286310000Y-26670000I0J250000D01*
G01*
X286310000Y-26170000D01*
G75*
G02*
X286560000Y-25920000I250000J0D01*
G01*
G37*
G36*
G01*
X286560000Y-29220000D02*
X287260000Y-29220000D01*
G75*
G02*
X287510000Y-29470000I0J-250000D01*
G01*
X287510000Y-29970000D01*
G75*
G02*
X287260000Y-30220000I-250000J0D01*
G01*
X286560000Y-30220000D01*
G75*
G02*
X286310000Y-29970000I0J250000D01*
G01*
X286310000Y-29470000D01*
G75*
G02*
X286560000Y-29220000I250000J0D01*
G01*
G37*
%TD*%
%TO.C,D93*%
G36*
G01*
X256825000Y-123325000D02*
X257525000Y-123325000D01*
G75*
G02*
X257775000Y-123575000I0J-250000D01*
G01*
X257775000Y-124075000D01*
G75*
G02*
X257525000Y-124325000I-250000J0D01*
G01*
X256825000Y-124325000D01*
G75*
G02*
X256575000Y-124075000I0J250000D01*
G01*
X256575000Y-123575000D01*
G75*
G02*
X256825000Y-123325000I250000J0D01*
G01*
G37*
G36*
G01*
X256825000Y-126625000D02*
X257525000Y-126625000D01*
G75*
G02*
X257775000Y-126875000I0J-250000D01*
G01*
X257775000Y-127375000D01*
G75*
G02*
X257525000Y-127625000I-250000J0D01*
G01*
X256825000Y-127625000D01*
G75*
G02*
X256575000Y-127375000I0J250000D01*
G01*
X256575000Y-126875000D01*
G75*
G02*
X256825000Y-126625000I250000J0D01*
G01*
G37*
%TD*%
%TO.C,D92*%
G36*
G01*
X266350000Y-104275000D02*
X267050000Y-104275000D01*
G75*
G02*
X267300000Y-104525000I0J-250000D01*
G01*
X267300000Y-105025000D01*
G75*
G02*
X267050000Y-105275000I-250000J0D01*
G01*
X266350000Y-105275000D01*
G75*
G02*
X266100000Y-105025000I0J250000D01*
G01*
X266100000Y-104525000D01*
G75*
G02*
X266350000Y-104275000I250000J0D01*
G01*
G37*
G36*
G01*
X266350000Y-107575000D02*
X267050000Y-107575000D01*
G75*
G02*
X267300000Y-107825000I0J-250000D01*
G01*
X267300000Y-108325000D01*
G75*
G02*
X267050000Y-108575000I-250000J0D01*
G01*
X266350000Y-108575000D01*
G75*
G02*
X266100000Y-108325000I0J250000D01*
G01*
X266100000Y-107825000D01*
G75*
G02*
X266350000Y-107575000I250000J0D01*
G01*
G37*
%TD*%
%TO.C,D91*%
G36*
G01*
X266350000Y-85225000D02*
X267050000Y-85225000D01*
G75*
G02*
X267300000Y-85475000I0J-250000D01*
G01*
X267300000Y-85975000D01*
G75*
G02*
X267050000Y-86225000I-250000J0D01*
G01*
X266350000Y-86225000D01*
G75*
G02*
X266100000Y-85975000I0J250000D01*
G01*
X266100000Y-85475000D01*
G75*
G02*
X266350000Y-85225000I250000J0D01*
G01*
G37*
G36*
G01*
X266350000Y-88525000D02*
X267050000Y-88525000D01*
G75*
G02*
X267300000Y-88775000I0J-250000D01*
G01*
X267300000Y-89275000D01*
G75*
G02*
X267050000Y-89525000I-250000J0D01*
G01*
X266350000Y-89525000D01*
G75*
G02*
X266100000Y-89275000I0J250000D01*
G01*
X266100000Y-88775000D01*
G75*
G02*
X266350000Y-88525000I250000J0D01*
G01*
G37*
%TD*%
%TO.C,D90*%
G36*
G01*
X266350000Y-66500000D02*
X267050000Y-66500000D01*
G75*
G02*
X267300000Y-66750000I0J-250000D01*
G01*
X267300000Y-67250000D01*
G75*
G02*
X267050000Y-67500000I-250000J0D01*
G01*
X266350000Y-67500000D01*
G75*
G02*
X266100000Y-67250000I0J250000D01*
G01*
X266100000Y-66750000D01*
G75*
G02*
X266350000Y-66500000I250000J0D01*
G01*
G37*
G36*
G01*
X266350000Y-69800000D02*
X267050000Y-69800000D01*
G75*
G02*
X267300000Y-70050000I0J-250000D01*
G01*
X267300000Y-70550000D01*
G75*
G02*
X267050000Y-70800000I-250000J0D01*
G01*
X266350000Y-70800000D01*
G75*
G02*
X266100000Y-70550000I0J250000D01*
G01*
X266100000Y-70050000D01*
G75*
G02*
X266350000Y-69800000I250000J0D01*
G01*
G37*
%TD*%
%TO.C,D89*%
G36*
G01*
X266350000Y-47125000D02*
X267050000Y-47125000D01*
G75*
G02*
X267300000Y-47375000I0J-250000D01*
G01*
X267300000Y-47875000D01*
G75*
G02*
X267050000Y-48125000I-250000J0D01*
G01*
X266350000Y-48125000D01*
G75*
G02*
X266100000Y-47875000I0J250000D01*
G01*
X266100000Y-47375000D01*
G75*
G02*
X266350000Y-47125000I250000J0D01*
G01*
G37*
G36*
G01*
X266350000Y-50425000D02*
X267050000Y-50425000D01*
G75*
G02*
X267300000Y-50675000I0J-250000D01*
G01*
X267300000Y-51175000D01*
G75*
G02*
X267050000Y-51425000I-250000J0D01*
G01*
X266350000Y-51425000D01*
G75*
G02*
X266100000Y-51175000I0J250000D01*
G01*
X266100000Y-50675000D01*
G75*
G02*
X266350000Y-50425000I250000J0D01*
G01*
G37*
%TD*%
%TO.C,D88*%
G36*
G01*
X268731250Y-25693750D02*
X269431250Y-25693750D01*
G75*
G02*
X269681250Y-25943750I0J-250000D01*
G01*
X269681250Y-26443750D01*
G75*
G02*
X269431250Y-26693750I-250000J0D01*
G01*
X268731250Y-26693750D01*
G75*
G02*
X268481250Y-26443750I0J250000D01*
G01*
X268481250Y-25943750D01*
G75*
G02*
X268731250Y-25693750I250000J0D01*
G01*
G37*
G36*
G01*
X268731250Y-28993750D02*
X269431250Y-28993750D01*
G75*
G02*
X269681250Y-29243750I0J-250000D01*
G01*
X269681250Y-29743750D01*
G75*
G02*
X269431250Y-29993750I-250000J0D01*
G01*
X268731250Y-29993750D01*
G75*
G02*
X268481250Y-29743750I0J250000D01*
G01*
X268481250Y-29243750D01*
G75*
G02*
X268731250Y-28993750I250000J0D01*
G01*
G37*
%TD*%
%TO.C,D87*%
G36*
G01*
X247300000Y-104275000D02*
X248000000Y-104275000D01*
G75*
G02*
X248250000Y-104525000I0J-250000D01*
G01*
X248250000Y-105025000D01*
G75*
G02*
X248000000Y-105275000I-250000J0D01*
G01*
X247300000Y-105275000D01*
G75*
G02*
X247050000Y-105025000I0J250000D01*
G01*
X247050000Y-104525000D01*
G75*
G02*
X247300000Y-104275000I250000J0D01*
G01*
G37*
G36*
G01*
X247300000Y-107575000D02*
X248000000Y-107575000D01*
G75*
G02*
X248250000Y-107825000I0J-250000D01*
G01*
X248250000Y-108325000D01*
G75*
G02*
X248000000Y-108575000I-250000J0D01*
G01*
X247300000Y-108575000D01*
G75*
G02*
X247050000Y-108325000I0J250000D01*
G01*
X247050000Y-107825000D01*
G75*
G02*
X247300000Y-107575000I250000J0D01*
G01*
G37*
%TD*%
%TO.C,D86*%
G36*
G01*
X247300000Y-85225000D02*
X248000000Y-85225000D01*
G75*
G02*
X248250000Y-85475000I0J-250000D01*
G01*
X248250000Y-85975000D01*
G75*
G02*
X248000000Y-86225000I-250000J0D01*
G01*
X247300000Y-86225000D01*
G75*
G02*
X247050000Y-85975000I0J250000D01*
G01*
X247050000Y-85475000D01*
G75*
G02*
X247300000Y-85225000I250000J0D01*
G01*
G37*
G36*
G01*
X247300000Y-88525000D02*
X248000000Y-88525000D01*
G75*
G02*
X248250000Y-88775000I0J-250000D01*
G01*
X248250000Y-89275000D01*
G75*
G02*
X248000000Y-89525000I-250000J0D01*
G01*
X247300000Y-89525000D01*
G75*
G02*
X247050000Y-89275000I0J250000D01*
G01*
X247050000Y-88775000D01*
G75*
G02*
X247300000Y-88525000I250000J0D01*
G01*
G37*
%TD*%
%TO.C,D85*%
G36*
G01*
X247300000Y-66497692D02*
X248000000Y-66497692D01*
G75*
G02*
X248250000Y-66747692I0J-250000D01*
G01*
X248250000Y-67247692D01*
G75*
G02*
X248000000Y-67497692I-250000J0D01*
G01*
X247300000Y-67497692D01*
G75*
G02*
X247050000Y-67247692I0J250000D01*
G01*
X247050000Y-66747692D01*
G75*
G02*
X247300000Y-66497692I250000J0D01*
G01*
G37*
G36*
G01*
X247300000Y-69797692D02*
X248000000Y-69797692D01*
G75*
G02*
X248250000Y-70047692I0J-250000D01*
G01*
X248250000Y-70547692D01*
G75*
G02*
X248000000Y-70797692I-250000J0D01*
G01*
X247300000Y-70797692D01*
G75*
G02*
X247050000Y-70547692I0J250000D01*
G01*
X247050000Y-70047692D01*
G75*
G02*
X247300000Y-69797692I250000J0D01*
G01*
G37*
%TD*%
%TO.C,D84*%
G36*
G01*
X247300000Y-47125000D02*
X248000000Y-47125000D01*
G75*
G02*
X248250000Y-47375000I0J-250000D01*
G01*
X248250000Y-47875000D01*
G75*
G02*
X248000000Y-48125000I-250000J0D01*
G01*
X247300000Y-48125000D01*
G75*
G02*
X247050000Y-47875000I0J250000D01*
G01*
X247050000Y-47375000D01*
G75*
G02*
X247300000Y-47125000I250000J0D01*
G01*
G37*
G36*
G01*
X247300000Y-50425000D02*
X248000000Y-50425000D01*
G75*
G02*
X248250000Y-50675000I0J-250000D01*
G01*
X248250000Y-51175000D01*
G75*
G02*
X248000000Y-51425000I-250000J0D01*
G01*
X247300000Y-51425000D01*
G75*
G02*
X247050000Y-51175000I0J250000D01*
G01*
X247050000Y-50675000D01*
G75*
G02*
X247300000Y-50425000I250000J0D01*
G01*
G37*
%TD*%
%TO.C,D83*%
G36*
G01*
X249681250Y-25693750D02*
X250381250Y-25693750D01*
G75*
G02*
X250631250Y-25943750I0J-250000D01*
G01*
X250631250Y-26443750D01*
G75*
G02*
X250381250Y-26693750I-250000J0D01*
G01*
X249681250Y-26693750D01*
G75*
G02*
X249431250Y-26443750I0J250000D01*
G01*
X249431250Y-25943750D01*
G75*
G02*
X249681250Y-25693750I250000J0D01*
G01*
G37*
G36*
G01*
X249681250Y-28993750D02*
X250381250Y-28993750D01*
G75*
G02*
X250631250Y-29243750I0J-250000D01*
G01*
X250631250Y-29743750D01*
G75*
G02*
X250381250Y-29993750I-250000J0D01*
G01*
X249681250Y-29993750D01*
G75*
G02*
X249431250Y-29743750I0J250000D01*
G01*
X249431250Y-29243750D01*
G75*
G02*
X249681250Y-28993750I250000J0D01*
G01*
G37*
%TD*%
%TO.C,D82*%
G36*
G01*
X223487500Y-123325000D02*
X224187500Y-123325000D01*
G75*
G02*
X224437500Y-123575000I0J-250000D01*
G01*
X224437500Y-124075000D01*
G75*
G02*
X224187500Y-124325000I-250000J0D01*
G01*
X223487500Y-124325000D01*
G75*
G02*
X223237500Y-124075000I0J250000D01*
G01*
X223237500Y-123575000D01*
G75*
G02*
X223487500Y-123325000I250000J0D01*
G01*
G37*
G36*
G01*
X223487500Y-126625000D02*
X224187500Y-126625000D01*
G75*
G02*
X224437500Y-126875000I0J-250000D01*
G01*
X224437500Y-127375000D01*
G75*
G02*
X224187500Y-127625000I-250000J0D01*
G01*
X223487500Y-127625000D01*
G75*
G02*
X223237500Y-127375000I0J250000D01*
G01*
X223237500Y-126875000D01*
G75*
G02*
X223487500Y-126625000I250000J0D01*
G01*
G37*
%TD*%
%TO.C,D81*%
G36*
G01*
X223487500Y-85225000D02*
X224187500Y-85225000D01*
G75*
G02*
X224437500Y-85475000I0J-250000D01*
G01*
X224437500Y-85975000D01*
G75*
G02*
X224187500Y-86225000I-250000J0D01*
G01*
X223487500Y-86225000D01*
G75*
G02*
X223237500Y-85975000I0J250000D01*
G01*
X223237500Y-85475000D01*
G75*
G02*
X223487500Y-85225000I250000J0D01*
G01*
G37*
G36*
G01*
X223487500Y-88525000D02*
X224187500Y-88525000D01*
G75*
G02*
X224437500Y-88775000I0J-250000D01*
G01*
X224437500Y-89275000D01*
G75*
G02*
X224187500Y-89525000I-250000J0D01*
G01*
X223487500Y-89525000D01*
G75*
G02*
X223237500Y-89275000I0J250000D01*
G01*
X223237500Y-88775000D01*
G75*
G02*
X223487500Y-88525000I250000J0D01*
G01*
G37*
%TD*%
%TO.C,D80*%
G36*
G01*
X209200000Y-66497692D02*
X209900000Y-66497692D01*
G75*
G02*
X210150000Y-66747692I0J-250000D01*
G01*
X210150000Y-67247692D01*
G75*
G02*
X209900000Y-67497692I-250000J0D01*
G01*
X209200000Y-67497692D01*
G75*
G02*
X208950000Y-67247692I0J250000D01*
G01*
X208950000Y-66747692D01*
G75*
G02*
X209200000Y-66497692I250000J0D01*
G01*
G37*
G36*
G01*
X209200000Y-69797692D02*
X209900000Y-69797692D01*
G75*
G02*
X210150000Y-70047692I0J-250000D01*
G01*
X210150000Y-70547692D01*
G75*
G02*
X209900000Y-70797692I-250000J0D01*
G01*
X209200000Y-70797692D01*
G75*
G02*
X208950000Y-70547692I0J250000D01*
G01*
X208950000Y-70047692D01*
G75*
G02*
X209200000Y-69797692I250000J0D01*
G01*
G37*
%TD*%
%TO.C,D79*%
G36*
G01*
X209200000Y-47125000D02*
X209900000Y-47125000D01*
G75*
G02*
X210150000Y-47375000I0J-250000D01*
G01*
X210150000Y-47875000D01*
G75*
G02*
X209900000Y-48125000I-250000J0D01*
G01*
X209200000Y-48125000D01*
G75*
G02*
X208950000Y-47875000I0J250000D01*
G01*
X208950000Y-47375000D01*
G75*
G02*
X209200000Y-47125000I250000J0D01*
G01*
G37*
G36*
G01*
X209200000Y-50425000D02*
X209900000Y-50425000D01*
G75*
G02*
X210150000Y-50675000I0J-250000D01*
G01*
X210150000Y-51175000D01*
G75*
G02*
X209900000Y-51425000I-250000J0D01*
G01*
X209200000Y-51425000D01*
G75*
G02*
X208950000Y-51175000I0J250000D01*
G01*
X208950000Y-50675000D01*
G75*
G02*
X209200000Y-50425000I250000J0D01*
G01*
G37*
%TD*%
%TO.C,D78*%
G36*
G01*
X206818750Y-25693750D02*
X207518750Y-25693750D01*
G75*
G02*
X207768750Y-25943750I0J-250000D01*
G01*
X207768750Y-26443750D01*
G75*
G02*
X207518750Y-26693750I-250000J0D01*
G01*
X206818750Y-26693750D01*
G75*
G02*
X206568750Y-26443750I0J250000D01*
G01*
X206568750Y-25943750D01*
G75*
G02*
X206818750Y-25693750I250000J0D01*
G01*
G37*
G36*
G01*
X206818750Y-28993750D02*
X207518750Y-28993750D01*
G75*
G02*
X207768750Y-29243750I0J-250000D01*
G01*
X207768750Y-29743750D01*
G75*
G02*
X207518750Y-29993750I-250000J0D01*
G01*
X206818750Y-29993750D01*
G75*
G02*
X206568750Y-29743750I0J250000D01*
G01*
X206568750Y-29243750D01*
G75*
G02*
X206818750Y-28993750I250000J0D01*
G01*
G37*
%TD*%
%TO.C,D77*%
G36*
G01*
X204437500Y-104275000D02*
X205137500Y-104275000D01*
G75*
G02*
X205387500Y-104525000I0J-250000D01*
G01*
X205387500Y-105025000D01*
G75*
G02*
X205137500Y-105275000I-250000J0D01*
G01*
X204437500Y-105275000D01*
G75*
G02*
X204187500Y-105025000I0J250000D01*
G01*
X204187500Y-104525000D01*
G75*
G02*
X204437500Y-104275000I250000J0D01*
G01*
G37*
G36*
G01*
X204437500Y-107575000D02*
X205137500Y-107575000D01*
G75*
G02*
X205387500Y-107825000I0J-250000D01*
G01*
X205387500Y-108325000D01*
G75*
G02*
X205137500Y-108575000I-250000J0D01*
G01*
X204437500Y-108575000D01*
G75*
G02*
X204187500Y-108325000I0J250000D01*
G01*
X204187500Y-107825000D01*
G75*
G02*
X204437500Y-107575000I250000J0D01*
G01*
G37*
%TD*%
%TO.C,D76*%
G36*
G01*
X194912500Y-66497692D02*
X195612500Y-66497692D01*
G75*
G02*
X195862500Y-66747692I0J-250000D01*
G01*
X195862500Y-67247692D01*
G75*
G02*
X195612500Y-67497692I-250000J0D01*
G01*
X194912500Y-67497692D01*
G75*
G02*
X194662500Y-67247692I0J250000D01*
G01*
X194662500Y-66747692D01*
G75*
G02*
X194912500Y-66497692I250000J0D01*
G01*
G37*
G36*
G01*
X194912500Y-69797692D02*
X195612500Y-69797692D01*
G75*
G02*
X195862500Y-70047692I0J-250000D01*
G01*
X195862500Y-70547692D01*
G75*
G02*
X195612500Y-70797692I-250000J0D01*
G01*
X194912500Y-70797692D01*
G75*
G02*
X194662500Y-70547692I0J250000D01*
G01*
X194662500Y-70047692D01*
G75*
G02*
X194912500Y-69797692I250000J0D01*
G01*
G37*
%TD*%
%TO.C,D75*%
G36*
G01*
X190150000Y-47125000D02*
X190850000Y-47125000D01*
G75*
G02*
X191100000Y-47375000I0J-250000D01*
G01*
X191100000Y-47875000D01*
G75*
G02*
X190850000Y-48125000I-250000J0D01*
G01*
X190150000Y-48125000D01*
G75*
G02*
X189900000Y-47875000I0J250000D01*
G01*
X189900000Y-47375000D01*
G75*
G02*
X190150000Y-47125000I250000J0D01*
G01*
G37*
G36*
G01*
X190150000Y-50425000D02*
X190850000Y-50425000D01*
G75*
G02*
X191100000Y-50675000I0J-250000D01*
G01*
X191100000Y-51175000D01*
G75*
G02*
X190850000Y-51425000I-250000J0D01*
G01*
X190150000Y-51425000D01*
G75*
G02*
X189900000Y-51175000I0J250000D01*
G01*
X189900000Y-50675000D01*
G75*
G02*
X190150000Y-50425000I250000J0D01*
G01*
G37*
%TD*%
%TO.C,D74*%
G36*
G01*
X202056250Y-25693750D02*
X202756250Y-25693750D01*
G75*
G02*
X203006250Y-25943750I0J-250000D01*
G01*
X203006250Y-26443750D01*
G75*
G02*
X202756250Y-26693750I-250000J0D01*
G01*
X202056250Y-26693750D01*
G75*
G02*
X201806250Y-26443750I0J250000D01*
G01*
X201806250Y-25943750D01*
G75*
G02*
X202056250Y-25693750I250000J0D01*
G01*
G37*
G36*
G01*
X202056250Y-28993750D02*
X202756250Y-28993750D01*
G75*
G02*
X203006250Y-29243750I0J-250000D01*
G01*
X203006250Y-29743750D01*
G75*
G02*
X202756250Y-29993750I-250000J0D01*
G01*
X202056250Y-29993750D01*
G75*
G02*
X201806250Y-29743750I0J250000D01*
G01*
X201806250Y-29243750D01*
G75*
G02*
X202056250Y-28993750I250000J0D01*
G01*
G37*
%TD*%
%TO.C,D73*%
G36*
G01*
X204437500Y-123325000D02*
X205137500Y-123325000D01*
G75*
G02*
X205387500Y-123575000I0J-250000D01*
G01*
X205387500Y-124075000D01*
G75*
G02*
X205137500Y-124325000I-250000J0D01*
G01*
X204437500Y-124325000D01*
G75*
G02*
X204187500Y-124075000I0J250000D01*
G01*
X204187500Y-123575000D01*
G75*
G02*
X204437500Y-123325000I250000J0D01*
G01*
G37*
G36*
G01*
X204437500Y-126625000D02*
X205137500Y-126625000D01*
G75*
G02*
X205387500Y-126875000I0J-250000D01*
G01*
X205387500Y-127375000D01*
G75*
G02*
X205137500Y-127625000I-250000J0D01*
G01*
X204437500Y-127625000D01*
G75*
G02*
X204187500Y-127375000I0J250000D01*
G01*
X204187500Y-126875000D01*
G75*
G02*
X204437500Y-126625000I250000J0D01*
G01*
G37*
%TD*%
%TO.C,D72*%
G36*
G01*
X173481250Y-104275000D02*
X174181250Y-104275000D01*
G75*
G02*
X174431250Y-104525000I0J-250000D01*
G01*
X174431250Y-105025000D01*
G75*
G02*
X174181250Y-105275000I-250000J0D01*
G01*
X173481250Y-105275000D01*
G75*
G02*
X173231250Y-105025000I0J250000D01*
G01*
X173231250Y-104525000D01*
G75*
G02*
X173481250Y-104275000I250000J0D01*
G01*
G37*
G36*
G01*
X173481250Y-107575000D02*
X174181250Y-107575000D01*
G75*
G02*
X174431250Y-107825000I0J-250000D01*
G01*
X174431250Y-108325000D01*
G75*
G02*
X174181250Y-108575000I-250000J0D01*
G01*
X173481250Y-108575000D01*
G75*
G02*
X173231250Y-108325000I0J250000D01*
G01*
X173231250Y-107825000D01*
G75*
G02*
X173481250Y-107575000I250000J0D01*
G01*
G37*
%TD*%
%TO.C,D71*%
G36*
G01*
X187768750Y-85225000D02*
X188468750Y-85225000D01*
G75*
G02*
X188718750Y-85475000I0J-250000D01*
G01*
X188718750Y-85975000D01*
G75*
G02*
X188468750Y-86225000I-250000J0D01*
G01*
X187768750Y-86225000D01*
G75*
G02*
X187518750Y-85975000I0J250000D01*
G01*
X187518750Y-85475000D01*
G75*
G02*
X187768750Y-85225000I250000J0D01*
G01*
G37*
G36*
G01*
X187768750Y-88525000D02*
X188468750Y-88525000D01*
G75*
G02*
X188718750Y-88775000I0J-250000D01*
G01*
X188718750Y-89275000D01*
G75*
G02*
X188468750Y-89525000I-250000J0D01*
G01*
X187768750Y-89525000D01*
G75*
G02*
X187518750Y-89275000I0J250000D01*
G01*
X187518750Y-88775000D01*
G75*
G02*
X187768750Y-88525000I250000J0D01*
G01*
G37*
%TD*%
%TO.C,D70*%
G36*
G01*
X171100000Y-66497692D02*
X171800000Y-66497692D01*
G75*
G02*
X172050000Y-66747692I0J-250000D01*
G01*
X172050000Y-67247692D01*
G75*
G02*
X171800000Y-67497692I-250000J0D01*
G01*
X171100000Y-67497692D01*
G75*
G02*
X170850000Y-67247692I0J250000D01*
G01*
X170850000Y-66747692D01*
G75*
G02*
X171100000Y-66497692I250000J0D01*
G01*
G37*
G36*
G01*
X171100000Y-69797692D02*
X171800000Y-69797692D01*
G75*
G02*
X172050000Y-70047692I0J-250000D01*
G01*
X172050000Y-70547692D01*
G75*
G02*
X171800000Y-70797692I-250000J0D01*
G01*
X171100000Y-70797692D01*
G75*
G02*
X170850000Y-70547692I0J250000D01*
G01*
X170850000Y-70047692D01*
G75*
G02*
X171100000Y-69797692I250000J0D01*
G01*
G37*
%TD*%
%TO.C,D69*%
G36*
G01*
X161575000Y-47125000D02*
X162275000Y-47125000D01*
G75*
G02*
X162525000Y-47375000I0J-250000D01*
G01*
X162525000Y-47875000D01*
G75*
G02*
X162275000Y-48125000I-250000J0D01*
G01*
X161575000Y-48125000D01*
G75*
G02*
X161325000Y-47875000I0J250000D01*
G01*
X161325000Y-47375000D01*
G75*
G02*
X161575000Y-47125000I250000J0D01*
G01*
G37*
G36*
G01*
X161575000Y-50425000D02*
X162275000Y-50425000D01*
G75*
G02*
X162525000Y-50675000I0J-250000D01*
G01*
X162525000Y-51175000D01*
G75*
G02*
X162275000Y-51425000I-250000J0D01*
G01*
X161575000Y-51425000D01*
G75*
G02*
X161325000Y-51175000I0J250000D01*
G01*
X161325000Y-50675000D01*
G75*
G02*
X161575000Y-50425000I250000J0D01*
G01*
G37*
%TD*%
%TO.C,D68*%
G36*
G01*
X178243750Y-26425000D02*
X178943750Y-26425000D01*
G75*
G02*
X179193750Y-26675000I0J-250000D01*
G01*
X179193750Y-27175000D01*
G75*
G02*
X178943750Y-27425000I-250000J0D01*
G01*
X178243750Y-27425000D01*
G75*
G02*
X177993750Y-27175000I0J250000D01*
G01*
X177993750Y-26675000D01*
G75*
G02*
X178243750Y-26425000I250000J0D01*
G01*
G37*
G36*
G01*
X178243750Y-29725000D02*
X178943750Y-29725000D01*
G75*
G02*
X179193750Y-29975000I0J-250000D01*
G01*
X179193750Y-30475000D01*
G75*
G02*
X178943750Y-30725000I-250000J0D01*
G01*
X178243750Y-30725000D01*
G75*
G02*
X177993750Y-30475000I0J250000D01*
G01*
X177993750Y-29975000D01*
G75*
G02*
X178243750Y-29725000I250000J0D01*
G01*
G37*
%TD*%
%TO.C,D67*%
G36*
G01*
X185387500Y-123325000D02*
X186087500Y-123325000D01*
G75*
G02*
X186337500Y-123575000I0J-250000D01*
G01*
X186337500Y-124075000D01*
G75*
G02*
X186087500Y-124325000I-250000J0D01*
G01*
X185387500Y-124325000D01*
G75*
G02*
X185137500Y-124075000I0J250000D01*
G01*
X185137500Y-123575000D01*
G75*
G02*
X185387500Y-123325000I250000J0D01*
G01*
G37*
G36*
G01*
X185387500Y-126625000D02*
X186087500Y-126625000D01*
G75*
G02*
X186337500Y-126875000I0J-250000D01*
G01*
X186337500Y-127375000D01*
G75*
G02*
X186087500Y-127625000I-250000J0D01*
G01*
X185387500Y-127625000D01*
G75*
G02*
X185137500Y-127375000I0J250000D01*
G01*
X185137500Y-126875000D01*
G75*
G02*
X185387500Y-126625000I250000J0D01*
G01*
G37*
%TD*%
%TO.C,D66*%
G36*
G01*
X147287500Y-104275000D02*
X147987500Y-104275000D01*
G75*
G02*
X148237500Y-104525000I0J-250000D01*
G01*
X148237500Y-105025000D01*
G75*
G02*
X147987500Y-105275000I-250000J0D01*
G01*
X147287500Y-105275000D01*
G75*
G02*
X147037500Y-105025000I0J250000D01*
G01*
X147037500Y-104525000D01*
G75*
G02*
X147287500Y-104275000I250000J0D01*
G01*
G37*
G36*
G01*
X147287500Y-107575000D02*
X147987500Y-107575000D01*
G75*
G02*
X148237500Y-107825000I0J-250000D01*
G01*
X148237500Y-108325000D01*
G75*
G02*
X147987500Y-108575000I-250000J0D01*
G01*
X147287500Y-108575000D01*
G75*
G02*
X147037500Y-108325000I0J250000D01*
G01*
X147037500Y-107825000D01*
G75*
G02*
X147287500Y-107575000I250000J0D01*
G01*
G37*
%TD*%
%TO.C,D65*%
G36*
G01*
X156812500Y-85225000D02*
X157512500Y-85225000D01*
G75*
G02*
X157762500Y-85475000I0J-250000D01*
G01*
X157762500Y-85975000D01*
G75*
G02*
X157512500Y-86225000I-250000J0D01*
G01*
X156812500Y-86225000D01*
G75*
G02*
X156562500Y-85975000I0J250000D01*
G01*
X156562500Y-85475000D01*
G75*
G02*
X156812500Y-85225000I250000J0D01*
G01*
G37*
G36*
G01*
X156812500Y-88525000D02*
X157512500Y-88525000D01*
G75*
G02*
X157762500Y-88775000I0J-250000D01*
G01*
X157762500Y-89275000D01*
G75*
G02*
X157512500Y-89525000I-250000J0D01*
G01*
X156812500Y-89525000D01*
G75*
G02*
X156562500Y-89275000I0J250000D01*
G01*
X156562500Y-88775000D01*
G75*
G02*
X156812500Y-88525000I250000J0D01*
G01*
G37*
%TD*%
%TO.C,D64*%
G36*
G01*
X152050000Y-66497692D02*
X152750000Y-66497692D01*
G75*
G02*
X153000000Y-66747692I0J-250000D01*
G01*
X153000000Y-67247692D01*
G75*
G02*
X152750000Y-67497692I-250000J0D01*
G01*
X152050000Y-67497692D01*
G75*
G02*
X151800000Y-67247692I0J250000D01*
G01*
X151800000Y-66747692D01*
G75*
G02*
X152050000Y-66497692I250000J0D01*
G01*
G37*
G36*
G01*
X152050000Y-69797692D02*
X152750000Y-69797692D01*
G75*
G02*
X153000000Y-70047692I0J-250000D01*
G01*
X153000000Y-70547692D01*
G75*
G02*
X152750000Y-70797692I-250000J0D01*
G01*
X152050000Y-70797692D01*
G75*
G02*
X151800000Y-70547692I0J250000D01*
G01*
X151800000Y-70047692D01*
G75*
G02*
X152050000Y-69797692I250000J0D01*
G01*
G37*
%TD*%
%TO.C,D63*%
G36*
G01*
X142525000Y-47125000D02*
X143225000Y-47125000D01*
G75*
G02*
X143475000Y-47375000I0J-250000D01*
G01*
X143475000Y-47875000D01*
G75*
G02*
X143225000Y-48125000I-250000J0D01*
G01*
X142525000Y-48125000D01*
G75*
G02*
X142275000Y-47875000I0J250000D01*
G01*
X142275000Y-47375000D01*
G75*
G02*
X142525000Y-47125000I250000J0D01*
G01*
G37*
G36*
G01*
X142525000Y-50425000D02*
X143225000Y-50425000D01*
G75*
G02*
X143475000Y-50675000I0J-250000D01*
G01*
X143475000Y-51175000D01*
G75*
G02*
X143225000Y-51425000I-250000J0D01*
G01*
X142525000Y-51425000D01*
G75*
G02*
X142275000Y-51175000I0J250000D01*
G01*
X142275000Y-50675000D01*
G75*
G02*
X142525000Y-50425000I250000J0D01*
G01*
G37*
%TD*%
%TO.C,D62*%
G36*
G01*
X159193750Y-25693750D02*
X159893750Y-25693750D01*
G75*
G02*
X160143750Y-25943750I0J-250000D01*
G01*
X160143750Y-26443750D01*
G75*
G02*
X159893750Y-26693750I-250000J0D01*
G01*
X159193750Y-26693750D01*
G75*
G02*
X158943750Y-26443750I0J250000D01*
G01*
X158943750Y-25943750D01*
G75*
G02*
X159193750Y-25693750I250000J0D01*
G01*
G37*
G36*
G01*
X159193750Y-28993750D02*
X159893750Y-28993750D01*
G75*
G02*
X160143750Y-29243750I0J-250000D01*
G01*
X160143750Y-29743750D01*
G75*
G02*
X159893750Y-29993750I-250000J0D01*
G01*
X159193750Y-29993750D01*
G75*
G02*
X158943750Y-29743750I0J250000D01*
G01*
X158943750Y-29243750D01*
G75*
G02*
X159193750Y-28993750I250000J0D01*
G01*
G37*
%TD*%
%TO.C,D61*%
G36*
G01*
X156812500Y-123325000D02*
X157512500Y-123325000D01*
G75*
G02*
X157762500Y-123575000I0J-250000D01*
G01*
X157762500Y-124075000D01*
G75*
G02*
X157512500Y-124325000I-250000J0D01*
G01*
X156812500Y-124325000D01*
G75*
G02*
X156562500Y-124075000I0J250000D01*
G01*
X156562500Y-123575000D01*
G75*
G02*
X156812500Y-123325000I250000J0D01*
G01*
G37*
G36*
G01*
X156812500Y-126625000D02*
X157512500Y-126625000D01*
G75*
G02*
X157762500Y-126875000I0J-250000D01*
G01*
X157762500Y-127375000D01*
G75*
G02*
X157512500Y-127625000I-250000J0D01*
G01*
X156812500Y-127625000D01*
G75*
G02*
X156562500Y-127375000I0J250000D01*
G01*
X156562500Y-126875000D01*
G75*
G02*
X156812500Y-126625000I250000J0D01*
G01*
G37*
%TD*%
%TO.C,D60*%
G36*
G01*
X128237500Y-104275000D02*
X128937500Y-104275000D01*
G75*
G02*
X129187500Y-104525000I0J-250000D01*
G01*
X129187500Y-105025000D01*
G75*
G02*
X128937500Y-105275000I-250000J0D01*
G01*
X128237500Y-105275000D01*
G75*
G02*
X127987500Y-105025000I0J250000D01*
G01*
X127987500Y-104525000D01*
G75*
G02*
X128237500Y-104275000I250000J0D01*
G01*
G37*
G36*
G01*
X128237500Y-107575000D02*
X128937500Y-107575000D01*
G75*
G02*
X129187500Y-107825000I0J-250000D01*
G01*
X129187500Y-108325000D01*
G75*
G02*
X128937500Y-108575000I-250000J0D01*
G01*
X128237500Y-108575000D01*
G75*
G02*
X127987500Y-108325000I0J250000D01*
G01*
X127987500Y-107825000D01*
G75*
G02*
X128237500Y-107575000I250000J0D01*
G01*
G37*
%TD*%
%TO.C,D59*%
G36*
G01*
X137762500Y-85225000D02*
X138462500Y-85225000D01*
G75*
G02*
X138712500Y-85475000I0J-250000D01*
G01*
X138712500Y-85975000D01*
G75*
G02*
X138462500Y-86225000I-250000J0D01*
G01*
X137762500Y-86225000D01*
G75*
G02*
X137512500Y-85975000I0J250000D01*
G01*
X137512500Y-85475000D01*
G75*
G02*
X137762500Y-85225000I250000J0D01*
G01*
G37*
G36*
G01*
X137762500Y-88525000D02*
X138462500Y-88525000D01*
G75*
G02*
X138712500Y-88775000I0J-250000D01*
G01*
X138712500Y-89275000D01*
G75*
G02*
X138462500Y-89525000I-250000J0D01*
G01*
X137762500Y-89525000D01*
G75*
G02*
X137512500Y-89275000I0J250000D01*
G01*
X137512500Y-88775000D01*
G75*
G02*
X137762500Y-88525000I250000J0D01*
G01*
G37*
%TD*%
%TO.C,D58*%
G36*
G01*
X133000000Y-66496152D02*
X133700000Y-66496152D01*
G75*
G02*
X133950000Y-66746152I0J-250000D01*
G01*
X133950000Y-67246152D01*
G75*
G02*
X133700000Y-67496152I-250000J0D01*
G01*
X133000000Y-67496152D01*
G75*
G02*
X132750000Y-67246152I0J250000D01*
G01*
X132750000Y-66746152D01*
G75*
G02*
X133000000Y-66496152I250000J0D01*
G01*
G37*
G36*
G01*
X133000000Y-69796152D02*
X133700000Y-69796152D01*
G75*
G02*
X133950000Y-70046152I0J-250000D01*
G01*
X133950000Y-70546152D01*
G75*
G02*
X133700000Y-70796152I-250000J0D01*
G01*
X133000000Y-70796152D01*
G75*
G02*
X132750000Y-70546152I0J250000D01*
G01*
X132750000Y-70046152D01*
G75*
G02*
X133000000Y-69796152I250000J0D01*
G01*
G37*
%TD*%
%TO.C,D57*%
G36*
G01*
X123475000Y-47125000D02*
X124175000Y-47125000D01*
G75*
G02*
X124425000Y-47375000I0J-250000D01*
G01*
X124425000Y-47875000D01*
G75*
G02*
X124175000Y-48125000I-250000J0D01*
G01*
X123475000Y-48125000D01*
G75*
G02*
X123225000Y-47875000I0J250000D01*
G01*
X123225000Y-47375000D01*
G75*
G02*
X123475000Y-47125000I250000J0D01*
G01*
G37*
G36*
G01*
X123475000Y-50425000D02*
X124175000Y-50425000D01*
G75*
G02*
X124425000Y-50675000I0J-250000D01*
G01*
X124425000Y-51175000D01*
G75*
G02*
X124175000Y-51425000I-250000J0D01*
G01*
X123475000Y-51425000D01*
G75*
G02*
X123225000Y-51175000I0J250000D01*
G01*
X123225000Y-50675000D01*
G75*
G02*
X123475000Y-50425000I250000J0D01*
G01*
G37*
%TD*%
%TO.C,D56*%
G36*
G01*
X140143750Y-26425000D02*
X140843750Y-26425000D01*
G75*
G02*
X141093750Y-26675000I0J-250000D01*
G01*
X141093750Y-27175000D01*
G75*
G02*
X140843750Y-27425000I-250000J0D01*
G01*
X140143750Y-27425000D01*
G75*
G02*
X139893750Y-27175000I0J250000D01*
G01*
X139893750Y-26675000D01*
G75*
G02*
X140143750Y-26425000I250000J0D01*
G01*
G37*
G36*
G01*
X140143750Y-29725000D02*
X140843750Y-29725000D01*
G75*
G02*
X141093750Y-29975000I0J-250000D01*
G01*
X141093750Y-30475000D01*
G75*
G02*
X140843750Y-30725000I-250000J0D01*
G01*
X140143750Y-30725000D01*
G75*
G02*
X139893750Y-30475000I0J250000D01*
G01*
X139893750Y-29975000D01*
G75*
G02*
X140143750Y-29725000I250000J0D01*
G01*
G37*
%TD*%
%TO.C,D55*%
G36*
G01*
X128237500Y-123325000D02*
X128937500Y-123325000D01*
G75*
G02*
X129187500Y-123575000I0J-250000D01*
G01*
X129187500Y-124075000D01*
G75*
G02*
X128937500Y-124325000I-250000J0D01*
G01*
X128237500Y-124325000D01*
G75*
G02*
X127987500Y-124075000I0J250000D01*
G01*
X127987500Y-123575000D01*
G75*
G02*
X128237500Y-123325000I250000J0D01*
G01*
G37*
G36*
G01*
X128237500Y-126625000D02*
X128937500Y-126625000D01*
G75*
G02*
X129187500Y-126875000I0J-250000D01*
G01*
X129187500Y-127375000D01*
G75*
G02*
X128937500Y-127625000I-250000J0D01*
G01*
X128237500Y-127625000D01*
G75*
G02*
X127987500Y-127375000I0J250000D01*
G01*
X127987500Y-126875000D01*
G75*
G02*
X128237500Y-126625000I250000J0D01*
G01*
G37*
%TD*%
%TO.C,D54*%
G36*
G01*
X109187500Y-104275000D02*
X109887500Y-104275000D01*
G75*
G02*
X110137500Y-104525000I0J-250000D01*
G01*
X110137500Y-105025000D01*
G75*
G02*
X109887500Y-105275000I-250000J0D01*
G01*
X109187500Y-105275000D01*
G75*
G02*
X108937500Y-105025000I0J250000D01*
G01*
X108937500Y-104525000D01*
G75*
G02*
X109187500Y-104275000I250000J0D01*
G01*
G37*
G36*
G01*
X109187500Y-107575000D02*
X109887500Y-107575000D01*
G75*
G02*
X110137500Y-107825000I0J-250000D01*
G01*
X110137500Y-108325000D01*
G75*
G02*
X109887500Y-108575000I-250000J0D01*
G01*
X109187500Y-108575000D01*
G75*
G02*
X108937500Y-108325000I0J250000D01*
G01*
X108937500Y-107825000D01*
G75*
G02*
X109187500Y-107575000I250000J0D01*
G01*
G37*
%TD*%
%TO.C,D53*%
G36*
G01*
X118712500Y-85225000D02*
X119412500Y-85225000D01*
G75*
G02*
X119662500Y-85475000I0J-250000D01*
G01*
X119662500Y-85975000D01*
G75*
G02*
X119412500Y-86225000I-250000J0D01*
G01*
X118712500Y-86225000D01*
G75*
G02*
X118462500Y-85975000I0J250000D01*
G01*
X118462500Y-85475000D01*
G75*
G02*
X118712500Y-85225000I250000J0D01*
G01*
G37*
G36*
G01*
X118712500Y-88525000D02*
X119412500Y-88525000D01*
G75*
G02*
X119662500Y-88775000I0J-250000D01*
G01*
X119662500Y-89275000D01*
G75*
G02*
X119412500Y-89525000I-250000J0D01*
G01*
X118712500Y-89525000D01*
G75*
G02*
X118462500Y-89275000I0J250000D01*
G01*
X118462500Y-88775000D01*
G75*
G02*
X118712500Y-88525000I250000J0D01*
G01*
G37*
%TD*%
%TO.C,D52*%
G36*
G01*
X113950000Y-66497692D02*
X114650000Y-66497692D01*
G75*
G02*
X114900000Y-66747692I0J-250000D01*
G01*
X114900000Y-67247692D01*
G75*
G02*
X114650000Y-67497692I-250000J0D01*
G01*
X113950000Y-67497692D01*
G75*
G02*
X113700000Y-67247692I0J250000D01*
G01*
X113700000Y-66747692D01*
G75*
G02*
X113950000Y-66497692I250000J0D01*
G01*
G37*
G36*
G01*
X113950000Y-69797692D02*
X114650000Y-69797692D01*
G75*
G02*
X114900000Y-70047692I0J-250000D01*
G01*
X114900000Y-70547692D01*
G75*
G02*
X114650000Y-70797692I-250000J0D01*
G01*
X113950000Y-70797692D01*
G75*
G02*
X113700000Y-70547692I0J250000D01*
G01*
X113700000Y-70047692D01*
G75*
G02*
X113950000Y-69797692I250000J0D01*
G01*
G37*
%TD*%
%TO.C,D51*%
G36*
G01*
X104425000Y-47125000D02*
X105125000Y-47125000D01*
G75*
G02*
X105375000Y-47375000I0J-250000D01*
G01*
X105375000Y-47875000D01*
G75*
G02*
X105125000Y-48125000I-250000J0D01*
G01*
X104425000Y-48125000D01*
G75*
G02*
X104175000Y-47875000I0J250000D01*
G01*
X104175000Y-47375000D01*
G75*
G02*
X104425000Y-47125000I250000J0D01*
G01*
G37*
G36*
G01*
X104425000Y-50425000D02*
X105125000Y-50425000D01*
G75*
G02*
X105375000Y-50675000I0J-250000D01*
G01*
X105375000Y-51175000D01*
G75*
G02*
X105125000Y-51425000I-250000J0D01*
G01*
X104425000Y-51425000D01*
G75*
G02*
X104175000Y-51175000I0J250000D01*
G01*
X104175000Y-50675000D01*
G75*
G02*
X104425000Y-50425000I250000J0D01*
G01*
G37*
%TD*%
%TO.C,D50*%
G36*
G01*
X121093750Y-25693750D02*
X121793750Y-25693750D01*
G75*
G02*
X122043750Y-25943750I0J-250000D01*
G01*
X122043750Y-26443750D01*
G75*
G02*
X121793750Y-26693750I-250000J0D01*
G01*
X121093750Y-26693750D01*
G75*
G02*
X120843750Y-26443750I0J250000D01*
G01*
X120843750Y-25943750D01*
G75*
G02*
X121093750Y-25693750I250000J0D01*
G01*
G37*
G36*
G01*
X121093750Y-28993750D02*
X121793750Y-28993750D01*
G75*
G02*
X122043750Y-29243750I0J-250000D01*
G01*
X122043750Y-29743750D01*
G75*
G02*
X121793750Y-29993750I-250000J0D01*
G01*
X121093750Y-29993750D01*
G75*
G02*
X120843750Y-29743750I0J250000D01*
G01*
X120843750Y-29243750D01*
G75*
G02*
X121093750Y-28993750I250000J0D01*
G01*
G37*
%TD*%
%TO.C,D49*%
G36*
G01*
X90137500Y-104275000D02*
X90837500Y-104275000D01*
G75*
G02*
X91087500Y-104525000I0J-250000D01*
G01*
X91087500Y-105025000D01*
G75*
G02*
X90837500Y-105275000I-250000J0D01*
G01*
X90137500Y-105275000D01*
G75*
G02*
X89887500Y-105025000I0J250000D01*
G01*
X89887500Y-104525000D01*
G75*
G02*
X90137500Y-104275000I250000J0D01*
G01*
G37*
G36*
G01*
X90137500Y-107575000D02*
X90837500Y-107575000D01*
G75*
G02*
X91087500Y-107825000I0J-250000D01*
G01*
X91087500Y-108325000D01*
G75*
G02*
X90837500Y-108575000I-250000J0D01*
G01*
X90137500Y-108575000D01*
G75*
G02*
X89887500Y-108325000I0J250000D01*
G01*
X89887500Y-107825000D01*
G75*
G02*
X90137500Y-107575000I250000J0D01*
G01*
G37*
%TD*%
%TO.C,D48*%
G36*
G01*
X99662500Y-85225000D02*
X100362500Y-85225000D01*
G75*
G02*
X100612500Y-85475000I0J-250000D01*
G01*
X100612500Y-85975000D01*
G75*
G02*
X100362500Y-86225000I-250000J0D01*
G01*
X99662500Y-86225000D01*
G75*
G02*
X99412500Y-85975000I0J250000D01*
G01*
X99412500Y-85475000D01*
G75*
G02*
X99662500Y-85225000I250000J0D01*
G01*
G37*
G36*
G01*
X99662500Y-88525000D02*
X100362500Y-88525000D01*
G75*
G02*
X100612500Y-88775000I0J-250000D01*
G01*
X100612500Y-89275000D01*
G75*
G02*
X100362500Y-89525000I-250000J0D01*
G01*
X99662500Y-89525000D01*
G75*
G02*
X99412500Y-89275000I0J250000D01*
G01*
X99412500Y-88775000D01*
G75*
G02*
X99662500Y-88525000I250000J0D01*
G01*
G37*
%TD*%
%TO.C,D47*%
G36*
G01*
X94900000Y-66497692D02*
X95600000Y-66497692D01*
G75*
G02*
X95850000Y-66747692I0J-250000D01*
G01*
X95850000Y-67247692D01*
G75*
G02*
X95600000Y-67497692I-250000J0D01*
G01*
X94900000Y-67497692D01*
G75*
G02*
X94650000Y-67247692I0J250000D01*
G01*
X94650000Y-66747692D01*
G75*
G02*
X94900000Y-66497692I250000J0D01*
G01*
G37*
G36*
G01*
X94900000Y-69797692D02*
X95600000Y-69797692D01*
G75*
G02*
X95850000Y-70047692I0J-250000D01*
G01*
X95850000Y-70547692D01*
G75*
G02*
X95600000Y-70797692I-250000J0D01*
G01*
X94900000Y-70797692D01*
G75*
G02*
X94650000Y-70547692I0J250000D01*
G01*
X94650000Y-70047692D01*
G75*
G02*
X94900000Y-69797692I250000J0D01*
G01*
G37*
%TD*%
%TO.C,D46*%
G36*
G01*
X85375000Y-47125000D02*
X86075000Y-47125000D01*
G75*
G02*
X86325000Y-47375000I0J-250000D01*
G01*
X86325000Y-47875000D01*
G75*
G02*
X86075000Y-48125000I-250000J0D01*
G01*
X85375000Y-48125000D01*
G75*
G02*
X85125000Y-47875000I0J250000D01*
G01*
X85125000Y-47375000D01*
G75*
G02*
X85375000Y-47125000I250000J0D01*
G01*
G37*
G36*
G01*
X85375000Y-50425000D02*
X86075000Y-50425000D01*
G75*
G02*
X86325000Y-50675000I0J-250000D01*
G01*
X86325000Y-51175000D01*
G75*
G02*
X86075000Y-51425000I-250000J0D01*
G01*
X85375000Y-51425000D01*
G75*
G02*
X85125000Y-51175000I0J250000D01*
G01*
X85125000Y-50675000D01*
G75*
G02*
X85375000Y-50425000I250000J0D01*
G01*
G37*
%TD*%
%TO.C,D45*%
G36*
G01*
X97281250Y-25693750D02*
X97981250Y-25693750D01*
G75*
G02*
X98231250Y-25943750I0J-250000D01*
G01*
X98231250Y-26443750D01*
G75*
G02*
X97981250Y-26693750I-250000J0D01*
G01*
X97281250Y-26693750D01*
G75*
G02*
X97031250Y-26443750I0J250000D01*
G01*
X97031250Y-25943750D01*
G75*
G02*
X97281250Y-25693750I250000J0D01*
G01*
G37*
G36*
G01*
X97281250Y-28993750D02*
X97981250Y-28993750D01*
G75*
G02*
X98231250Y-29243750I0J-250000D01*
G01*
X98231250Y-29743750D01*
G75*
G02*
X97981250Y-29993750I-250000J0D01*
G01*
X97281250Y-29993750D01*
G75*
G02*
X97031250Y-29743750I0J250000D01*
G01*
X97031250Y-29243750D01*
G75*
G02*
X97281250Y-28993750I250000J0D01*
G01*
G37*
%TD*%
%TO.C,D44*%
G36*
G01*
X71087500Y-104275000D02*
X71787500Y-104275000D01*
G75*
G02*
X72037500Y-104525000I0J-250000D01*
G01*
X72037500Y-105025000D01*
G75*
G02*
X71787500Y-105275000I-250000J0D01*
G01*
X71087500Y-105275000D01*
G75*
G02*
X70837500Y-105025000I0J250000D01*
G01*
X70837500Y-104525000D01*
G75*
G02*
X71087500Y-104275000I250000J0D01*
G01*
G37*
G36*
G01*
X71087500Y-107575000D02*
X71787500Y-107575000D01*
G75*
G02*
X72037500Y-107825000I0J-250000D01*
G01*
X72037500Y-108325000D01*
G75*
G02*
X71787500Y-108575000I-250000J0D01*
G01*
X71087500Y-108575000D01*
G75*
G02*
X70837500Y-108325000I0J250000D01*
G01*
X70837500Y-107825000D01*
G75*
G02*
X71087500Y-107575000I250000J0D01*
G01*
G37*
%TD*%
%TO.C,D43*%
G36*
G01*
X80612500Y-85225000D02*
X81312500Y-85225000D01*
G75*
G02*
X81562500Y-85475000I0J-250000D01*
G01*
X81562500Y-85975000D01*
G75*
G02*
X81312500Y-86225000I-250000J0D01*
G01*
X80612500Y-86225000D01*
G75*
G02*
X80362500Y-85975000I0J250000D01*
G01*
X80362500Y-85475000D01*
G75*
G02*
X80612500Y-85225000I250000J0D01*
G01*
G37*
G36*
G01*
X80612500Y-88525000D02*
X81312500Y-88525000D01*
G75*
G02*
X81562500Y-88775000I0J-250000D01*
G01*
X81562500Y-89275000D01*
G75*
G02*
X81312500Y-89525000I-250000J0D01*
G01*
X80612500Y-89525000D01*
G75*
G02*
X80362500Y-89275000I0J250000D01*
G01*
X80362500Y-88775000D01*
G75*
G02*
X80612500Y-88525000I250000J0D01*
G01*
G37*
%TD*%
%TO.C,D42*%
G36*
G01*
X75850000Y-66497692D02*
X76550000Y-66497692D01*
G75*
G02*
X76800000Y-66747692I0J-250000D01*
G01*
X76800000Y-67247692D01*
G75*
G02*
X76550000Y-67497692I-250000J0D01*
G01*
X75850000Y-67497692D01*
G75*
G02*
X75600000Y-67247692I0J250000D01*
G01*
X75600000Y-66747692D01*
G75*
G02*
X75850000Y-66497692I250000J0D01*
G01*
G37*
G36*
G01*
X75850000Y-69797692D02*
X76550000Y-69797692D01*
G75*
G02*
X76800000Y-70047692I0J-250000D01*
G01*
X76800000Y-70547692D01*
G75*
G02*
X76550000Y-70797692I-250000J0D01*
G01*
X75850000Y-70797692D01*
G75*
G02*
X75600000Y-70547692I0J250000D01*
G01*
X75600000Y-70047692D01*
G75*
G02*
X75850000Y-69797692I250000J0D01*
G01*
G37*
%TD*%
%TO.C,D41*%
G36*
G01*
X66325000Y-47125000D02*
X67025000Y-47125000D01*
G75*
G02*
X67275000Y-47375000I0J-250000D01*
G01*
X67275000Y-47875000D01*
G75*
G02*
X67025000Y-48125000I-250000J0D01*
G01*
X66325000Y-48125000D01*
G75*
G02*
X66075000Y-47875000I0J250000D01*
G01*
X66075000Y-47375000D01*
G75*
G02*
X66325000Y-47125000I250000J0D01*
G01*
G37*
G36*
G01*
X66325000Y-50425000D02*
X67025000Y-50425000D01*
G75*
G02*
X67275000Y-50675000I0J-250000D01*
G01*
X67275000Y-51175000D01*
G75*
G02*
X67025000Y-51425000I-250000J0D01*
G01*
X66325000Y-51425000D01*
G75*
G02*
X66075000Y-51175000I0J250000D01*
G01*
X66075000Y-50675000D01*
G75*
G02*
X66325000Y-50425000I250000J0D01*
G01*
G37*
%TD*%
%TO.C,D40*%
G36*
G01*
X78231250Y-25693750D02*
X78931250Y-25693750D01*
G75*
G02*
X79181250Y-25943750I0J-250000D01*
G01*
X79181250Y-26443750D01*
G75*
G02*
X78931250Y-26693750I-250000J0D01*
G01*
X78231250Y-26693750D01*
G75*
G02*
X77981250Y-26443750I0J250000D01*
G01*
X77981250Y-25943750D01*
G75*
G02*
X78231250Y-25693750I250000J0D01*
G01*
G37*
G36*
G01*
X78231250Y-28993750D02*
X78931250Y-28993750D01*
G75*
G02*
X79181250Y-29243750I0J-250000D01*
G01*
X79181250Y-29743750D01*
G75*
G02*
X78931250Y-29993750I-250000J0D01*
G01*
X78231250Y-29993750D01*
G75*
G02*
X77981250Y-29743750I0J250000D01*
G01*
X77981250Y-29243750D01*
G75*
G02*
X78231250Y-28993750I250000J0D01*
G01*
G37*
%TD*%
%TO.C,D39*%
G36*
G01*
X52037500Y-104275000D02*
X52737500Y-104275000D01*
G75*
G02*
X52987500Y-104525000I0J-250000D01*
G01*
X52987500Y-105025000D01*
G75*
G02*
X52737500Y-105275000I-250000J0D01*
G01*
X52037500Y-105275000D01*
G75*
G02*
X51787500Y-105025000I0J250000D01*
G01*
X51787500Y-104525000D01*
G75*
G02*
X52037500Y-104275000I250000J0D01*
G01*
G37*
G36*
G01*
X52037500Y-107575000D02*
X52737500Y-107575000D01*
G75*
G02*
X52987500Y-107825000I0J-250000D01*
G01*
X52987500Y-108325000D01*
G75*
G02*
X52737500Y-108575000I-250000J0D01*
G01*
X52037500Y-108575000D01*
G75*
G02*
X51787500Y-108325000I0J250000D01*
G01*
X51787500Y-107825000D01*
G75*
G02*
X52037500Y-107575000I250000J0D01*
G01*
G37*
%TD*%
%TO.C,D38*%
G36*
G01*
X61562500Y-85225000D02*
X62262500Y-85225000D01*
G75*
G02*
X62512500Y-85475000I0J-250000D01*
G01*
X62512500Y-85975000D01*
G75*
G02*
X62262500Y-86225000I-250000J0D01*
G01*
X61562500Y-86225000D01*
G75*
G02*
X61312500Y-85975000I0J250000D01*
G01*
X61312500Y-85475000D01*
G75*
G02*
X61562500Y-85225000I250000J0D01*
G01*
G37*
G36*
G01*
X61562500Y-88525000D02*
X62262500Y-88525000D01*
G75*
G02*
X62512500Y-88775000I0J-250000D01*
G01*
X62512500Y-89275000D01*
G75*
G02*
X62262500Y-89525000I-250000J0D01*
G01*
X61562500Y-89525000D01*
G75*
G02*
X61312500Y-89275000I0J250000D01*
G01*
X61312500Y-88775000D01*
G75*
G02*
X61562500Y-88525000I250000J0D01*
G01*
G37*
%TD*%
%TO.C,D37*%
G36*
G01*
X56800000Y-66497692D02*
X57500000Y-66497692D01*
G75*
G02*
X57750000Y-66747692I0J-250000D01*
G01*
X57750000Y-67247692D01*
G75*
G02*
X57500000Y-67497692I-250000J0D01*
G01*
X56800000Y-67497692D01*
G75*
G02*
X56550000Y-67247692I0J250000D01*
G01*
X56550000Y-66747692D01*
G75*
G02*
X56800000Y-66497692I250000J0D01*
G01*
G37*
G36*
G01*
X56800000Y-69797692D02*
X57500000Y-69797692D01*
G75*
G02*
X57750000Y-70047692I0J-250000D01*
G01*
X57750000Y-70547692D01*
G75*
G02*
X57500000Y-70797692I-250000J0D01*
G01*
X56800000Y-70797692D01*
G75*
G02*
X56550000Y-70547692I0J250000D01*
G01*
X56550000Y-70047692D01*
G75*
G02*
X56800000Y-69797692I250000J0D01*
G01*
G37*
%TD*%
%TO.C,D36*%
G36*
G01*
X47275000Y-47125000D02*
X47975000Y-47125000D01*
G75*
G02*
X48225000Y-47375000I0J-250000D01*
G01*
X48225000Y-47875000D01*
G75*
G02*
X47975000Y-48125000I-250000J0D01*
G01*
X47275000Y-48125000D01*
G75*
G02*
X47025000Y-47875000I0J250000D01*
G01*
X47025000Y-47375000D01*
G75*
G02*
X47275000Y-47125000I250000J0D01*
G01*
G37*
G36*
G01*
X47275000Y-50425000D02*
X47975000Y-50425000D01*
G75*
G02*
X48225000Y-50675000I0J-250000D01*
G01*
X48225000Y-51175000D01*
G75*
G02*
X47975000Y-51425000I-250000J0D01*
G01*
X47275000Y-51425000D01*
G75*
G02*
X47025000Y-51175000I0J250000D01*
G01*
X47025000Y-50675000D01*
G75*
G02*
X47275000Y-50425000I250000J0D01*
G01*
G37*
%TD*%
%TO.C,D35*%
G36*
G01*
X59181250Y-25693750D02*
X59881250Y-25693750D01*
G75*
G02*
X60131250Y-25943750I0J-250000D01*
G01*
X60131250Y-26443750D01*
G75*
G02*
X59881250Y-26693750I-250000J0D01*
G01*
X59181250Y-26693750D01*
G75*
G02*
X58931250Y-26443750I0J250000D01*
G01*
X58931250Y-25943750D01*
G75*
G02*
X59181250Y-25693750I250000J0D01*
G01*
G37*
G36*
G01*
X59181250Y-28993750D02*
X59881250Y-28993750D01*
G75*
G02*
X60131250Y-29243750I0J-250000D01*
G01*
X60131250Y-29743750D01*
G75*
G02*
X59881250Y-29993750I-250000J0D01*
G01*
X59181250Y-29993750D01*
G75*
G02*
X58931250Y-29743750I0J250000D01*
G01*
X58931250Y-29243750D01*
G75*
G02*
X59181250Y-28993750I250000J0D01*
G01*
G37*
%TD*%
%TO.C,D34*%
G36*
G01*
X47275000Y-123325000D02*
X47975000Y-123325000D01*
G75*
G02*
X48225000Y-123575000I0J-250000D01*
G01*
X48225000Y-124075000D01*
G75*
G02*
X47975000Y-124325000I-250000J0D01*
G01*
X47275000Y-124325000D01*
G75*
G02*
X47025000Y-124075000I0J250000D01*
G01*
X47025000Y-123575000D01*
G75*
G02*
X47275000Y-123325000I250000J0D01*
G01*
G37*
G36*
G01*
X47275000Y-126625000D02*
X47975000Y-126625000D01*
G75*
G02*
X48225000Y-126875000I0J-250000D01*
G01*
X48225000Y-127375000D01*
G75*
G02*
X47975000Y-127625000I-250000J0D01*
G01*
X47275000Y-127625000D01*
G75*
G02*
X47025000Y-127375000I0J250000D01*
G01*
X47025000Y-126875000D01*
G75*
G02*
X47275000Y-126625000I250000J0D01*
G01*
G37*
%TD*%
%TO.C,D33*%
G36*
G01*
X32987500Y-104275000D02*
X33687500Y-104275000D01*
G75*
G02*
X33937500Y-104525000I0J-250000D01*
G01*
X33937500Y-105025000D01*
G75*
G02*
X33687500Y-105275000I-250000J0D01*
G01*
X32987500Y-105275000D01*
G75*
G02*
X32737500Y-105025000I0J250000D01*
G01*
X32737500Y-104525000D01*
G75*
G02*
X32987500Y-104275000I250000J0D01*
G01*
G37*
G36*
G01*
X32987500Y-107575000D02*
X33687500Y-107575000D01*
G75*
G02*
X33937500Y-107825000I0J-250000D01*
G01*
X33937500Y-108325000D01*
G75*
G02*
X33687500Y-108575000I-250000J0D01*
G01*
X32987500Y-108575000D01*
G75*
G02*
X32737500Y-108325000I0J250000D01*
G01*
X32737500Y-107825000D01*
G75*
G02*
X32987500Y-107575000I250000J0D01*
G01*
G37*
%TD*%
%TO.C,D32*%
G36*
G01*
X42512500Y-85225000D02*
X43212500Y-85225000D01*
G75*
G02*
X43462500Y-85475000I0J-250000D01*
G01*
X43462500Y-85975000D01*
G75*
G02*
X43212500Y-86225000I-250000J0D01*
G01*
X42512500Y-86225000D01*
G75*
G02*
X42262500Y-85975000I0J250000D01*
G01*
X42262500Y-85475000D01*
G75*
G02*
X42512500Y-85225000I250000J0D01*
G01*
G37*
G36*
G01*
X42512500Y-88525000D02*
X43212500Y-88525000D01*
G75*
G02*
X43462500Y-88775000I0J-250000D01*
G01*
X43462500Y-89275000D01*
G75*
G02*
X43212500Y-89525000I-250000J0D01*
G01*
X42512500Y-89525000D01*
G75*
G02*
X42262500Y-89275000I0J250000D01*
G01*
X42262500Y-88775000D01*
G75*
G02*
X42512500Y-88525000I250000J0D01*
G01*
G37*
%TD*%
%TO.C,D31*%
G36*
G01*
X37750000Y-66497692D02*
X38450000Y-66497692D01*
G75*
G02*
X38700000Y-66747692I0J-250000D01*
G01*
X38700000Y-67247692D01*
G75*
G02*
X38450000Y-67497692I-250000J0D01*
G01*
X37750000Y-67497692D01*
G75*
G02*
X37500000Y-67247692I0J250000D01*
G01*
X37500000Y-66747692D01*
G75*
G02*
X37750000Y-66497692I250000J0D01*
G01*
G37*
G36*
G01*
X37750000Y-69797692D02*
X38450000Y-69797692D01*
G75*
G02*
X38700000Y-70047692I0J-250000D01*
G01*
X38700000Y-70547692D01*
G75*
G02*
X38450000Y-70797692I-250000J0D01*
G01*
X37750000Y-70797692D01*
G75*
G02*
X37500000Y-70547692I0J250000D01*
G01*
X37500000Y-70047692D01*
G75*
G02*
X37750000Y-69797692I250000J0D01*
G01*
G37*
%TD*%
%TO.C,D30*%
G36*
G01*
X28225000Y-47125000D02*
X28925000Y-47125000D01*
G75*
G02*
X29175000Y-47375000I0J-250000D01*
G01*
X29175000Y-47875000D01*
G75*
G02*
X28925000Y-48125000I-250000J0D01*
G01*
X28225000Y-48125000D01*
G75*
G02*
X27975000Y-47875000I0J250000D01*
G01*
X27975000Y-47375000D01*
G75*
G02*
X28225000Y-47125000I250000J0D01*
G01*
G37*
G36*
G01*
X28225000Y-50425000D02*
X28925000Y-50425000D01*
G75*
G02*
X29175000Y-50675000I0J-250000D01*
G01*
X29175000Y-51175000D01*
G75*
G02*
X28925000Y-51425000I-250000J0D01*
G01*
X28225000Y-51425000D01*
G75*
G02*
X27975000Y-51175000I0J250000D01*
G01*
X27975000Y-50675000D01*
G75*
G02*
X28225000Y-50425000I250000J0D01*
G01*
G37*
%TD*%
%TO.C,D29*%
G36*
G01*
X40131250Y-25693750D02*
X40831250Y-25693750D01*
G75*
G02*
X41081250Y-25943750I0J-250000D01*
G01*
X41081250Y-26443750D01*
G75*
G02*
X40831250Y-26693750I-250000J0D01*
G01*
X40131250Y-26693750D01*
G75*
G02*
X39881250Y-26443750I0J250000D01*
G01*
X39881250Y-25943750D01*
G75*
G02*
X40131250Y-25693750I250000J0D01*
G01*
G37*
G36*
G01*
X40131250Y-28993750D02*
X40831250Y-28993750D01*
G75*
G02*
X41081250Y-29243750I0J-250000D01*
G01*
X41081250Y-29743750D01*
G75*
G02*
X40831250Y-29993750I-250000J0D01*
G01*
X40131250Y-29993750D01*
G75*
G02*
X39881250Y-29743750I0J250000D01*
G01*
X39881250Y-29243750D01*
G75*
G02*
X40131250Y-28993750I250000J0D01*
G01*
G37*
%TD*%
%TO.C,D28*%
G36*
G01*
X13937500Y-104275000D02*
X14637500Y-104275000D01*
G75*
G02*
X14887500Y-104525000I0J-250000D01*
G01*
X14887500Y-105025000D01*
G75*
G02*
X14637500Y-105275000I-250000J0D01*
G01*
X13937500Y-105275000D01*
G75*
G02*
X13687500Y-105025000I0J250000D01*
G01*
X13687500Y-104525000D01*
G75*
G02*
X13937500Y-104275000I250000J0D01*
G01*
G37*
G36*
G01*
X13937500Y-107575000D02*
X14637500Y-107575000D01*
G75*
G02*
X14887500Y-107825000I0J-250000D01*
G01*
X14887500Y-108325000D01*
G75*
G02*
X14637500Y-108575000I-250000J0D01*
G01*
X13937500Y-108575000D01*
G75*
G02*
X13687500Y-108325000I0J250000D01*
G01*
X13687500Y-107825000D01*
G75*
G02*
X13937500Y-107575000I250000J0D01*
G01*
G37*
%TD*%
%TO.C,D27*%
G36*
G01*
X23462500Y-85225000D02*
X24162500Y-85225000D01*
G75*
G02*
X24412500Y-85475000I0J-250000D01*
G01*
X24412500Y-85975000D01*
G75*
G02*
X24162500Y-86225000I-250000J0D01*
G01*
X23462500Y-86225000D01*
G75*
G02*
X23212500Y-85975000I0J250000D01*
G01*
X23212500Y-85475000D01*
G75*
G02*
X23462500Y-85225000I250000J0D01*
G01*
G37*
G36*
G01*
X23462500Y-88525000D02*
X24162500Y-88525000D01*
G75*
G02*
X24412500Y-88775000I0J-250000D01*
G01*
X24412500Y-89275000D01*
G75*
G02*
X24162500Y-89525000I-250000J0D01*
G01*
X23462500Y-89525000D01*
G75*
G02*
X23212500Y-89275000I0J250000D01*
G01*
X23212500Y-88775000D01*
G75*
G02*
X23462500Y-88525000I250000J0D01*
G01*
G37*
%TD*%
%TO.C,D26*%
G36*
G01*
X18700000Y-66497692D02*
X19400000Y-66497692D01*
G75*
G02*
X19650000Y-66747692I0J-250000D01*
G01*
X19650000Y-67247692D01*
G75*
G02*
X19400000Y-67497692I-250000J0D01*
G01*
X18700000Y-67497692D01*
G75*
G02*
X18450000Y-67247692I0J250000D01*
G01*
X18450000Y-66747692D01*
G75*
G02*
X18700000Y-66497692I250000J0D01*
G01*
G37*
G36*
G01*
X18700000Y-69797692D02*
X19400000Y-69797692D01*
G75*
G02*
X19650000Y-70047692I0J-250000D01*
G01*
X19650000Y-70547692D01*
G75*
G02*
X19400000Y-70797692I-250000J0D01*
G01*
X18700000Y-70797692D01*
G75*
G02*
X18450000Y-70547692I0J250000D01*
G01*
X18450000Y-70047692D01*
G75*
G02*
X18700000Y-69797692I250000J0D01*
G01*
G37*
%TD*%
%TO.C,D25*%
G36*
G01*
X9175000Y-47125000D02*
X9875000Y-47125000D01*
G75*
G02*
X10125000Y-47375000I0J-250000D01*
G01*
X10125000Y-47875000D01*
G75*
G02*
X9875000Y-48125000I-250000J0D01*
G01*
X9175000Y-48125000D01*
G75*
G02*
X8925000Y-47875000I0J250000D01*
G01*
X8925000Y-47375000D01*
G75*
G02*
X9175000Y-47125000I250000J0D01*
G01*
G37*
G36*
G01*
X9175000Y-50425000D02*
X9875000Y-50425000D01*
G75*
G02*
X10125000Y-50675000I0J-250000D01*
G01*
X10125000Y-51175000D01*
G75*
G02*
X9875000Y-51425000I-250000J0D01*
G01*
X9175000Y-51425000D01*
G75*
G02*
X8925000Y-51175000I0J250000D01*
G01*
X8925000Y-50675000D01*
G75*
G02*
X9175000Y-50425000I250000J0D01*
G01*
G37*
%TD*%
%TO.C,D24*%
G36*
G01*
X16318750Y-25693750D02*
X17018750Y-25693750D01*
G75*
G02*
X17268750Y-25943750I0J-250000D01*
G01*
X17268750Y-26443750D01*
G75*
G02*
X17018750Y-26693750I-250000J0D01*
G01*
X16318750Y-26693750D01*
G75*
G02*
X16068750Y-26443750I0J250000D01*
G01*
X16068750Y-25943750D01*
G75*
G02*
X16318750Y-25693750I250000J0D01*
G01*
G37*
G36*
G01*
X16318750Y-28993750D02*
X17018750Y-28993750D01*
G75*
G02*
X17268750Y-29243750I0J-250000D01*
G01*
X17268750Y-29743750D01*
G75*
G02*
X17018750Y-29993750I-250000J0D01*
G01*
X16318750Y-29993750D01*
G75*
G02*
X16068750Y-29743750I0J250000D01*
G01*
X16068750Y-29243750D01*
G75*
G02*
X16318750Y-28993750I250000J0D01*
G01*
G37*
%TD*%
%TO.C,D23*%
G36*
G01*
X-5112500Y-104275000D02*
X-4412500Y-104275000D01*
G75*
G02*
X-4162500Y-104525000I0J-250000D01*
G01*
X-4162500Y-105025000D01*
G75*
G02*
X-4412500Y-105275000I-250000J0D01*
G01*
X-5112500Y-105275000D01*
G75*
G02*
X-5362500Y-105025000I0J250000D01*
G01*
X-5362500Y-104525000D01*
G75*
G02*
X-5112500Y-104275000I250000J0D01*
G01*
G37*
G36*
G01*
X-5112500Y-107575000D02*
X-4412500Y-107575000D01*
G75*
G02*
X-4162500Y-107825000I0J-250000D01*
G01*
X-4162500Y-108325000D01*
G75*
G02*
X-4412500Y-108575000I-250000J0D01*
G01*
X-5112500Y-108575000D01*
G75*
G02*
X-5362500Y-108325000I0J250000D01*
G01*
X-5362500Y-107825000D01*
G75*
G02*
X-5112500Y-107575000I250000J0D01*
G01*
G37*
%TD*%
%TO.C,D22*%
G36*
G01*
X4412500Y-85225000D02*
X5112500Y-85225000D01*
G75*
G02*
X5362500Y-85475000I0J-250000D01*
G01*
X5362500Y-85975000D01*
G75*
G02*
X5112500Y-86225000I-250000J0D01*
G01*
X4412500Y-86225000D01*
G75*
G02*
X4162500Y-85975000I0J250000D01*
G01*
X4162500Y-85475000D01*
G75*
G02*
X4412500Y-85225000I250000J0D01*
G01*
G37*
G36*
G01*
X4412500Y-88525000D02*
X5112500Y-88525000D01*
G75*
G02*
X5362500Y-88775000I0J-250000D01*
G01*
X5362500Y-89275000D01*
G75*
G02*
X5112500Y-89525000I-250000J0D01*
G01*
X4412500Y-89525000D01*
G75*
G02*
X4162500Y-89275000I0J250000D01*
G01*
X4162500Y-88775000D01*
G75*
G02*
X4412500Y-88525000I250000J0D01*
G01*
G37*
%TD*%
%TO.C,D21*%
G36*
G01*
X-350000Y-66497692D02*
X350000Y-66497692D01*
G75*
G02*
X600000Y-66747692I0J-250000D01*
G01*
X600000Y-67247692D01*
G75*
G02*
X350000Y-67497692I-250000J0D01*
G01*
X-350000Y-67497692D01*
G75*
G02*
X-600000Y-67247692I0J250000D01*
G01*
X-600000Y-66747692D01*
G75*
G02*
X-350000Y-66497692I250000J0D01*
G01*
G37*
G36*
G01*
X-350000Y-69797692D02*
X350000Y-69797692D01*
G75*
G02*
X600000Y-70047692I0J-250000D01*
G01*
X600000Y-70547692D01*
G75*
G02*
X350000Y-70797692I-250000J0D01*
G01*
X-350000Y-70797692D01*
G75*
G02*
X-600000Y-70547692I0J250000D01*
G01*
X-600000Y-70047692D01*
G75*
G02*
X-350000Y-69797692I250000J0D01*
G01*
G37*
%TD*%
%TO.C,D20*%
G36*
G01*
X-9875000Y-47125000D02*
X-9175000Y-47125000D01*
G75*
G02*
X-8925000Y-47375000I0J-250000D01*
G01*
X-8925000Y-47875000D01*
G75*
G02*
X-9175000Y-48125000I-250000J0D01*
G01*
X-9875000Y-48125000D01*
G75*
G02*
X-10125000Y-47875000I0J250000D01*
G01*
X-10125000Y-47375000D01*
G75*
G02*
X-9875000Y-47125000I250000J0D01*
G01*
G37*
G36*
G01*
X-9875000Y-50425000D02*
X-9175000Y-50425000D01*
G75*
G02*
X-8925000Y-50675000I0J-250000D01*
G01*
X-8925000Y-51175000D01*
G75*
G02*
X-9175000Y-51425000I-250000J0D01*
G01*
X-9875000Y-51425000D01*
G75*
G02*
X-10125000Y-51175000I0J250000D01*
G01*
X-10125000Y-50675000D01*
G75*
G02*
X-9875000Y-50425000I250000J0D01*
G01*
G37*
%TD*%
%TO.C,D19*%
G36*
G01*
X-2731250Y-25693750D02*
X-2031250Y-25693750D01*
G75*
G02*
X-1781250Y-25943750I0J-250000D01*
G01*
X-1781250Y-26443750D01*
G75*
G02*
X-2031250Y-26693750I-250000J0D01*
G01*
X-2731250Y-26693750D01*
G75*
G02*
X-2981250Y-26443750I0J250000D01*
G01*
X-2981250Y-25943750D01*
G75*
G02*
X-2731250Y-25693750I250000J0D01*
G01*
G37*
G36*
G01*
X-2731250Y-28993750D02*
X-2031250Y-28993750D01*
G75*
G02*
X-1781250Y-29243750I0J-250000D01*
G01*
X-1781250Y-29743750D01*
G75*
G02*
X-2031250Y-29993750I-250000J0D01*
G01*
X-2731250Y-29993750D01*
G75*
G02*
X-2981250Y-29743750I0J250000D01*
G01*
X-2981250Y-29243750D01*
G75*
G02*
X-2731250Y-28993750I250000J0D01*
G01*
G37*
%TD*%
%TO.C,D18*%
G36*
G01*
X-33687500Y-123325000D02*
X-32987500Y-123325000D01*
G75*
G02*
X-32737500Y-123575000I0J-250000D01*
G01*
X-32737500Y-124075000D01*
G75*
G02*
X-32987500Y-124325000I-250000J0D01*
G01*
X-33687500Y-124325000D01*
G75*
G02*
X-33937500Y-124075000I0J250000D01*
G01*
X-33937500Y-123575000D01*
G75*
G02*
X-33687500Y-123325000I250000J0D01*
G01*
G37*
G36*
G01*
X-33687500Y-126625000D02*
X-32987500Y-126625000D01*
G75*
G02*
X-32737500Y-126875000I0J-250000D01*
G01*
X-32737500Y-127375000D01*
G75*
G02*
X-32987500Y-127625000I-250000J0D01*
G01*
X-33687500Y-127625000D01*
G75*
G02*
X-33937500Y-127375000I0J250000D01*
G01*
X-33937500Y-126875000D01*
G75*
G02*
X-33687500Y-126625000I250000J0D01*
G01*
G37*
%TD*%
%TO.C,D17*%
G36*
G01*
X-24162500Y-104275000D02*
X-23462500Y-104275000D01*
G75*
G02*
X-23212500Y-104525000I0J-250000D01*
G01*
X-23212500Y-105025000D01*
G75*
G02*
X-23462500Y-105275000I-250000J0D01*
G01*
X-24162500Y-105275000D01*
G75*
G02*
X-24412500Y-105025000I0J250000D01*
G01*
X-24412500Y-104525000D01*
G75*
G02*
X-24162500Y-104275000I250000J0D01*
G01*
G37*
G36*
G01*
X-24162500Y-107575000D02*
X-23462500Y-107575000D01*
G75*
G02*
X-23212500Y-107825000I0J-250000D01*
G01*
X-23212500Y-108325000D01*
G75*
G02*
X-23462500Y-108575000I-250000J0D01*
G01*
X-24162500Y-108575000D01*
G75*
G02*
X-24412500Y-108325000I0J250000D01*
G01*
X-24412500Y-107825000D01*
G75*
G02*
X-24162500Y-107575000I250000J0D01*
G01*
G37*
%TD*%
%TO.C,D16*%
G36*
G01*
X-14637500Y-85225000D02*
X-13937500Y-85225000D01*
G75*
G02*
X-13687500Y-85475000I0J-250000D01*
G01*
X-13687500Y-85975000D01*
G75*
G02*
X-13937500Y-86225000I-250000J0D01*
G01*
X-14637500Y-86225000D01*
G75*
G02*
X-14887500Y-85975000I0J250000D01*
G01*
X-14887500Y-85475000D01*
G75*
G02*
X-14637500Y-85225000I250000J0D01*
G01*
G37*
G36*
G01*
X-14637500Y-88525000D02*
X-13937500Y-88525000D01*
G75*
G02*
X-13687500Y-88775000I0J-250000D01*
G01*
X-13687500Y-89275000D01*
G75*
G02*
X-13937500Y-89525000I-250000J0D01*
G01*
X-14637500Y-89525000D01*
G75*
G02*
X-14887500Y-89275000I0J250000D01*
G01*
X-14887500Y-88775000D01*
G75*
G02*
X-14637500Y-88525000I250000J0D01*
G01*
G37*
%TD*%
%TO.C,D15*%
G36*
G01*
X-19400000Y-66497692D02*
X-18700000Y-66497692D01*
G75*
G02*
X-18450000Y-66747692I0J-250000D01*
G01*
X-18450000Y-67247692D01*
G75*
G02*
X-18700000Y-67497692I-250000J0D01*
G01*
X-19400000Y-67497692D01*
G75*
G02*
X-19650000Y-67247692I0J250000D01*
G01*
X-19650000Y-66747692D01*
G75*
G02*
X-19400000Y-66497692I250000J0D01*
G01*
G37*
G36*
G01*
X-19400000Y-69797692D02*
X-18700000Y-69797692D01*
G75*
G02*
X-18450000Y-70047692I0J-250000D01*
G01*
X-18450000Y-70547692D01*
G75*
G02*
X-18700000Y-70797692I-250000J0D01*
G01*
X-19400000Y-70797692D01*
G75*
G02*
X-19650000Y-70547692I0J250000D01*
G01*
X-19650000Y-70047692D01*
G75*
G02*
X-19400000Y-69797692I250000J0D01*
G01*
G37*
%TD*%
%TO.C,D14*%
G36*
G01*
X-28925000Y-47125000D02*
X-28225000Y-47125000D01*
G75*
G02*
X-27975000Y-47375000I0J-250000D01*
G01*
X-27975000Y-47875000D01*
G75*
G02*
X-28225000Y-48125000I-250000J0D01*
G01*
X-28925000Y-48125000D01*
G75*
G02*
X-29175000Y-47875000I0J250000D01*
G01*
X-29175000Y-47375000D01*
G75*
G02*
X-28925000Y-47125000I250000J0D01*
G01*
G37*
G36*
G01*
X-28925000Y-50425000D02*
X-28225000Y-50425000D01*
G75*
G02*
X-27975000Y-50675000I0J-250000D01*
G01*
X-27975000Y-51175000D01*
G75*
G02*
X-28225000Y-51425000I-250000J0D01*
G01*
X-28925000Y-51425000D01*
G75*
G02*
X-29175000Y-51175000I0J250000D01*
G01*
X-29175000Y-50675000D01*
G75*
G02*
X-28925000Y-50425000I250000J0D01*
G01*
G37*
%TD*%
%TO.C,D13*%
G36*
G01*
X-21781250Y-25693750D02*
X-21081250Y-25693750D01*
G75*
G02*
X-20831250Y-25943750I0J-250000D01*
G01*
X-20831250Y-26443750D01*
G75*
G02*
X-21081250Y-26693750I-250000J0D01*
G01*
X-21781250Y-26693750D01*
G75*
G02*
X-22031250Y-26443750I0J250000D01*
G01*
X-22031250Y-25943750D01*
G75*
G02*
X-21781250Y-25693750I250000J0D01*
G01*
G37*
G36*
G01*
X-21781250Y-28993750D02*
X-21081250Y-28993750D01*
G75*
G02*
X-20831250Y-29243750I0J-250000D01*
G01*
X-20831250Y-29743750D01*
G75*
G02*
X-21081250Y-29993750I-250000J0D01*
G01*
X-21781250Y-29993750D01*
G75*
G02*
X-22031250Y-29743750I0J250000D01*
G01*
X-22031250Y-29243750D01*
G75*
G02*
X-21781250Y-28993750I250000J0D01*
G01*
G37*
%TD*%
%TO.C,D12*%
G36*
G01*
X-33687500Y-85225000D02*
X-32987500Y-85225000D01*
G75*
G02*
X-32737500Y-85475000I0J-250000D01*
G01*
X-32737500Y-85975000D01*
G75*
G02*
X-32987500Y-86225000I-250000J0D01*
G01*
X-33687500Y-86225000D01*
G75*
G02*
X-33937500Y-85975000I0J250000D01*
G01*
X-33937500Y-85475000D01*
G75*
G02*
X-33687500Y-85225000I250000J0D01*
G01*
G37*
G36*
G01*
X-33687500Y-88525000D02*
X-32987500Y-88525000D01*
G75*
G02*
X-32737500Y-88775000I0J-250000D01*
G01*
X-32737500Y-89275000D01*
G75*
G02*
X-32987500Y-89525000I-250000J0D01*
G01*
X-33687500Y-89525000D01*
G75*
G02*
X-33937500Y-89275000I0J250000D01*
G01*
X-33937500Y-88775000D01*
G75*
G02*
X-33687500Y-88525000I250000J0D01*
G01*
G37*
%TD*%
%TO.C,D11*%
G36*
G01*
X-40831250Y-66497692D02*
X-40131250Y-66497692D01*
G75*
G02*
X-39881250Y-66747692I0J-250000D01*
G01*
X-39881250Y-67247692D01*
G75*
G02*
X-40131250Y-67497692I-250000J0D01*
G01*
X-40831250Y-67497692D01*
G75*
G02*
X-41081250Y-67247692I0J250000D01*
G01*
X-41081250Y-66747692D01*
G75*
G02*
X-40831250Y-66497692I250000J0D01*
G01*
G37*
G36*
G01*
X-40831250Y-69797692D02*
X-40131250Y-69797692D01*
G75*
G02*
X-39881250Y-70047692I0J-250000D01*
G01*
X-39881250Y-70547692D01*
G75*
G02*
X-40131250Y-70797692I-250000J0D01*
G01*
X-40831250Y-70797692D01*
G75*
G02*
X-41081250Y-70547692I0J250000D01*
G01*
X-41081250Y-70047692D01*
G75*
G02*
X-40831250Y-69797692I250000J0D01*
G01*
G37*
%TD*%
%TO.C,D10*%
G36*
G01*
X-47975000Y-47125000D02*
X-47275000Y-47125000D01*
G75*
G02*
X-47025000Y-47375000I0J-250000D01*
G01*
X-47025000Y-47875000D01*
G75*
G02*
X-47275000Y-48125000I-250000J0D01*
G01*
X-47975000Y-48125000D01*
G75*
G02*
X-48225000Y-47875000I0J250000D01*
G01*
X-48225000Y-47375000D01*
G75*
G02*
X-47975000Y-47125000I250000J0D01*
G01*
G37*
G36*
G01*
X-47975000Y-50425000D02*
X-47275000Y-50425000D01*
G75*
G02*
X-47025000Y-50675000I0J-250000D01*
G01*
X-47025000Y-51175000D01*
G75*
G02*
X-47275000Y-51425000I-250000J0D01*
G01*
X-47975000Y-51425000D01*
G75*
G02*
X-48225000Y-51175000I0J250000D01*
G01*
X-48225000Y-50675000D01*
G75*
G02*
X-47975000Y-50425000I250000J0D01*
G01*
G37*
%TD*%
%TO.C,D9*%
G36*
G01*
X-40831250Y-26425000D02*
X-40131250Y-26425000D01*
G75*
G02*
X-39881250Y-26675000I0J-250000D01*
G01*
X-39881250Y-27175000D01*
G75*
G02*
X-40131250Y-27425000I-250000J0D01*
G01*
X-40831250Y-27425000D01*
G75*
G02*
X-41081250Y-27175000I0J250000D01*
G01*
X-41081250Y-26675000D01*
G75*
G02*
X-40831250Y-26425000I250000J0D01*
G01*
G37*
G36*
G01*
X-40831250Y-29725000D02*
X-40131250Y-29725000D01*
G75*
G02*
X-39881250Y-29975000I0J-250000D01*
G01*
X-39881250Y-30475000D01*
G75*
G02*
X-40131250Y-30725000I-250000J0D01*
G01*
X-40831250Y-30725000D01*
G75*
G02*
X-41081250Y-30475000I0J250000D01*
G01*
X-41081250Y-29975000D01*
G75*
G02*
X-40831250Y-29725000I250000J0D01*
G01*
G37*
%TD*%
%TO.C,D8*%
G36*
G01*
X-62262500Y-123325000D02*
X-61562500Y-123325000D01*
G75*
G02*
X-61312500Y-123575000I0J-250000D01*
G01*
X-61312500Y-124075000D01*
G75*
G02*
X-61562500Y-124325000I-250000J0D01*
G01*
X-62262500Y-124325000D01*
G75*
G02*
X-62512500Y-124075000I0J250000D01*
G01*
X-62512500Y-123575000D01*
G75*
G02*
X-62262500Y-123325000I250000J0D01*
G01*
G37*
G36*
G01*
X-62262500Y-126625000D02*
X-61562500Y-126625000D01*
G75*
G02*
X-61312500Y-126875000I0J-250000D01*
G01*
X-61312500Y-127375000D01*
G75*
G02*
X-61562500Y-127625000I-250000J0D01*
G01*
X-62262500Y-127625000D01*
G75*
G02*
X-62512500Y-127375000I0J250000D01*
G01*
X-62512500Y-126875000D01*
G75*
G02*
X-62262500Y-126625000I250000J0D01*
G01*
G37*
%TD*%
%TO.C,D7*%
G36*
G01*
X-55118750Y-104275000D02*
X-54418750Y-104275000D01*
G75*
G02*
X-54168750Y-104525000I0J-250000D01*
G01*
X-54168750Y-105025000D01*
G75*
G02*
X-54418750Y-105275000I-250000J0D01*
G01*
X-55118750Y-105275000D01*
G75*
G02*
X-55368750Y-105025000I0J250000D01*
G01*
X-55368750Y-104525000D01*
G75*
G02*
X-55118750Y-104275000I250000J0D01*
G01*
G37*
G36*
G01*
X-55118750Y-107575000D02*
X-54418750Y-107575000D01*
G75*
G02*
X-54168750Y-107825000I0J-250000D01*
G01*
X-54168750Y-108325000D01*
G75*
G02*
X-54418750Y-108575000I-250000J0D01*
G01*
X-55118750Y-108575000D01*
G75*
G02*
X-55368750Y-108325000I0J250000D01*
G01*
X-55368750Y-107825000D01*
G75*
G02*
X-55118750Y-107575000I250000J0D01*
G01*
G37*
%TD*%
%TO.C,D6*%
G36*
G01*
X-59881250Y-85225000D02*
X-59181250Y-85225000D01*
G75*
G02*
X-58931250Y-85475000I0J-250000D01*
G01*
X-58931250Y-85975000D01*
G75*
G02*
X-59181250Y-86225000I-250000J0D01*
G01*
X-59881250Y-86225000D01*
G75*
G02*
X-60131250Y-85975000I0J250000D01*
G01*
X-60131250Y-85475000D01*
G75*
G02*
X-59881250Y-85225000I250000J0D01*
G01*
G37*
G36*
G01*
X-59881250Y-88525000D02*
X-59181250Y-88525000D01*
G75*
G02*
X-58931250Y-88775000I0J-250000D01*
G01*
X-58931250Y-89275000D01*
G75*
G02*
X-59181250Y-89525000I-250000J0D01*
G01*
X-59881250Y-89525000D01*
G75*
G02*
X-60131250Y-89275000I0J250000D01*
G01*
X-60131250Y-88775000D01*
G75*
G02*
X-59881250Y-88525000I250000J0D01*
G01*
G37*
%TD*%
%TO.C,D5*%
G36*
G01*
X-62262500Y-66497692D02*
X-61562500Y-66497692D01*
G75*
G02*
X-61312500Y-66747692I0J-250000D01*
G01*
X-61312500Y-67247692D01*
G75*
G02*
X-61562500Y-67497692I-250000J0D01*
G01*
X-62262500Y-67497692D01*
G75*
G02*
X-62512500Y-67247692I0J250000D01*
G01*
X-62512500Y-66747692D01*
G75*
G02*
X-62262500Y-66497692I250000J0D01*
G01*
G37*
G36*
G01*
X-62262500Y-69797692D02*
X-61562500Y-69797692D01*
G75*
G02*
X-61312500Y-70047692I0J-250000D01*
G01*
X-61312500Y-70547692D01*
G75*
G02*
X-61562500Y-70797692I-250000J0D01*
G01*
X-62262500Y-70797692D01*
G75*
G02*
X-62512500Y-70547692I0J250000D01*
G01*
X-62512500Y-70047692D01*
G75*
G02*
X-62262500Y-69797692I250000J0D01*
G01*
G37*
%TD*%
%TO.C,D4*%
G36*
G01*
X-67025000Y-47125000D02*
X-66325000Y-47125000D01*
G75*
G02*
X-66075000Y-47375000I0J-250000D01*
G01*
X-66075000Y-47875000D01*
G75*
G02*
X-66325000Y-48125000I-250000J0D01*
G01*
X-67025000Y-48125000D01*
G75*
G02*
X-67275000Y-47875000I0J250000D01*
G01*
X-67275000Y-47375000D01*
G75*
G02*
X-67025000Y-47125000I250000J0D01*
G01*
G37*
G36*
G01*
X-67025000Y-50425000D02*
X-66325000Y-50425000D01*
G75*
G02*
X-66075000Y-50675000I0J-250000D01*
G01*
X-66075000Y-51175000D01*
G75*
G02*
X-66325000Y-51425000I-250000J0D01*
G01*
X-67025000Y-51425000D01*
G75*
G02*
X-67275000Y-51175000I0J250000D01*
G01*
X-67275000Y-50675000D01*
G75*
G02*
X-67025000Y-50425000I250000J0D01*
G01*
G37*
%TD*%
%TO.C,D3*%
G36*
G01*
X-64643750Y-26425000D02*
X-63943750Y-26425000D01*
G75*
G02*
X-63693750Y-26675000I0J-250000D01*
G01*
X-63693750Y-27175000D01*
G75*
G02*
X-63943750Y-27425000I-250000J0D01*
G01*
X-64643750Y-27425000D01*
G75*
G02*
X-64893750Y-27175000I0J250000D01*
G01*
X-64893750Y-26675000D01*
G75*
G02*
X-64643750Y-26425000I250000J0D01*
G01*
G37*
G36*
G01*
X-64643750Y-29725000D02*
X-63943750Y-29725000D01*
G75*
G02*
X-63693750Y-29975000I0J-250000D01*
G01*
X-63693750Y-30475000D01*
G75*
G02*
X-63943750Y-30725000I-250000J0D01*
G01*
X-64643750Y-30725000D01*
G75*
G02*
X-64893750Y-30475000I0J250000D01*
G01*
X-64893750Y-29975000D01*
G75*
G02*
X-64643750Y-29725000I250000J0D01*
G01*
G37*
%TD*%
%TO.C,D2*%
G36*
G01*
X233380000Y-40000000D02*
X234080000Y-40000000D01*
G75*
G02*
X234330000Y-40250000I0J-250000D01*
G01*
X234330000Y-40750000D01*
G75*
G02*
X234080000Y-41000000I-250000J0D01*
G01*
X233380000Y-41000000D01*
G75*
G02*
X233130000Y-40750000I0J250000D01*
G01*
X233130000Y-40250000D01*
G75*
G02*
X233380000Y-40000000I250000J0D01*
G01*
G37*
G36*
G01*
X233380000Y-43300000D02*
X234080000Y-43300000D01*
G75*
G02*
X234330000Y-43550000I0J-250000D01*
G01*
X234330000Y-44050000D01*
G75*
G02*
X234080000Y-44300000I-250000J0D01*
G01*
X233380000Y-44300000D01*
G75*
G02*
X233130000Y-44050000I0J250000D01*
G01*
X233130000Y-43550000D01*
G75*
G02*
X233380000Y-43300000I250000J0D01*
G01*
G37*
%TD*%
%TO.C,D1*%
G36*
G01*
X235400000Y-127260000D02*
X236100000Y-127260000D01*
G75*
G02*
X236350000Y-127510000I0J-250000D01*
G01*
X236350000Y-128010000D01*
G75*
G02*
X236100000Y-128260000I-250000J0D01*
G01*
X235400000Y-128260000D01*
G75*
G02*
X235150000Y-128010000I0J250000D01*
G01*
X235150000Y-127510000D01*
G75*
G02*
X235400000Y-127260000I250000J0D01*
G01*
G37*
G36*
G01*
X235400000Y-130560000D02*
X236100000Y-130560000D01*
G75*
G02*
X236350000Y-130810000I0J-250000D01*
G01*
X236350000Y-131310000D01*
G75*
G02*
X236100000Y-131560000I-250000J0D01*
G01*
X235400000Y-131560000D01*
G75*
G02*
X235150000Y-131310000I0J250000D01*
G01*
X235150000Y-130810000D01*
G75*
G02*
X235400000Y-130560000I250000J0D01*
G01*
G37*
%TD*%
%TO.C,C31*%
G36*
G01*
X230790001Y-117095001D02*
X229889999Y-117095001D01*
G75*
G02*
X229640000Y-116845002I0J249999D01*
G01*
X229640000Y-116195000D01*
G75*
G02*
X229889999Y-115945001I249999J0D01*
G01*
X230790001Y-115945001D01*
G75*
G02*
X231040000Y-116195000I0J-249999D01*
G01*
X231040000Y-116845002D01*
G75*
G02*
X230790001Y-117095001I-249999J0D01*
G01*
G37*
G36*
G01*
X230790001Y-119145001D02*
X229889999Y-119145001D01*
G75*
G02*
X229640000Y-118895002I0J249999D01*
G01*
X229640000Y-118245000D01*
G75*
G02*
X229889999Y-117995001I249999J0D01*
G01*
X230790001Y-117995001D01*
G75*
G02*
X231040000Y-118245000I0J-249999D01*
G01*
X231040000Y-118895002D01*
G75*
G02*
X230790001Y-119145001I-249999J0D01*
G01*
G37*
%TD*%
%TO.C,C30*%
G36*
G01*
X235659999Y-42075000D02*
X236560001Y-42075000D01*
G75*
G02*
X236810000Y-42324999I0J-249999D01*
G01*
X236810000Y-42975001D01*
G75*
G02*
X236560001Y-43225000I-249999J0D01*
G01*
X235659999Y-43225000D01*
G75*
G02*
X235410000Y-42975001I0J249999D01*
G01*
X235410000Y-42324999D01*
G75*
G02*
X235659999Y-42075000I249999J0D01*
G01*
G37*
G36*
G01*
X235659999Y-40025000D02*
X236560001Y-40025000D01*
G75*
G02*
X236810000Y-40274999I0J-249999D01*
G01*
X236810000Y-40925001D01*
G75*
G02*
X236560001Y-41175000I-249999J0D01*
G01*
X235659999Y-41175000D01*
G75*
G02*
X235410000Y-40925001I0J249999D01*
G01*
X235410000Y-40274999D01*
G75*
G02*
X235659999Y-40025000I249999J0D01*
G01*
G37*
%TD*%
%TO.C,C29*%
G36*
G01*
X232890001Y-51150000D02*
X231989999Y-51150000D01*
G75*
G02*
X231740000Y-50900001I0J249999D01*
G01*
X231740000Y-50249999D01*
G75*
G02*
X231989999Y-50000000I249999J0D01*
G01*
X232890001Y-50000000D01*
G75*
G02*
X233140000Y-50249999I0J-249999D01*
G01*
X233140000Y-50900001D01*
G75*
G02*
X232890001Y-51150000I-249999J0D01*
G01*
G37*
G36*
G01*
X232890001Y-49100000D02*
X231989999Y-49100000D01*
G75*
G02*
X231740000Y-48850001I0J249999D01*
G01*
X231740000Y-48199999D01*
G75*
G02*
X231989999Y-47950000I249999J0D01*
G01*
X232890001Y-47950000D01*
G75*
G02*
X233140000Y-48199999I0J-249999D01*
G01*
X233140000Y-48850001D01*
G75*
G02*
X232890001Y-49100000I-249999J0D01*
G01*
G37*
%TD*%
%TO.C,C28*%
G36*
G01*
X228489999Y-129224999D02*
X229390001Y-129224999D01*
G75*
G02*
X229640000Y-129474998I0J-249999D01*
G01*
X229640000Y-130125000D01*
G75*
G02*
X229390001Y-130374999I-249999J0D01*
G01*
X228489999Y-130374999D01*
G75*
G02*
X228240000Y-130125000I0J249999D01*
G01*
X228240000Y-129474998D01*
G75*
G02*
X228489999Y-129224999I249999J0D01*
G01*
G37*
G36*
G01*
X228489999Y-127174999D02*
X229390001Y-127174999D01*
G75*
G02*
X229640000Y-127424998I0J-249999D01*
G01*
X229640000Y-128075000D01*
G75*
G02*
X229390001Y-128324999I-249999J0D01*
G01*
X228489999Y-128324999D01*
G75*
G02*
X228240000Y-128075000I0J249999D01*
G01*
X228240000Y-127424998D01*
G75*
G02*
X228489999Y-127174999I249999J0D01*
G01*
G37*
%TD*%
%TO.C,C27*%
G36*
G01*
X-79014999Y-42980001D02*
X-79014999Y-42079999D01*
G75*
G02*
X-78765000Y-41830000I249999J0D01*
G01*
X-78114998Y-41830000D01*
G75*
G02*
X-77864999Y-42079999I0J-249999D01*
G01*
X-77864999Y-42980001D01*
G75*
G02*
X-78114998Y-43230000I-249999J0D01*
G01*
X-78765000Y-43230000D01*
G75*
G02*
X-79014999Y-42980001I0J249999D01*
G01*
G37*
G36*
G01*
X-81064999Y-42980001D02*
X-81064999Y-42079999D01*
G75*
G02*
X-80815000Y-41830000I249999J0D01*
G01*
X-80164998Y-41830000D01*
G75*
G02*
X-79914999Y-42079999I0J-249999D01*
G01*
X-79914999Y-42980001D01*
G75*
G02*
X-80164998Y-43230000I-249999J0D01*
G01*
X-80815000Y-43230000D01*
G75*
G02*
X-81064999Y-42980001I0J249999D01*
G01*
G37*
%TD*%
%TO.C,C26*%
G36*
G01*
X295844999Y-100669999D02*
X295844999Y-101570001D01*
G75*
G02*
X295595000Y-101820000I-249999J0D01*
G01*
X294944998Y-101820000D01*
G75*
G02*
X294694999Y-101570001I0J249999D01*
G01*
X294694999Y-100669999D01*
G75*
G02*
X294944998Y-100420000I249999J0D01*
G01*
X295595000Y-100420000D01*
G75*
G02*
X295844999Y-100669999I0J-249999D01*
G01*
G37*
G36*
G01*
X297894999Y-100669999D02*
X297894999Y-101570001D01*
G75*
G02*
X297645000Y-101820000I-249999J0D01*
G01*
X296994998Y-101820000D01*
G75*
G02*
X296744999Y-101570001I0J249999D01*
G01*
X296744999Y-100669999D01*
G75*
G02*
X296994998Y-100420000I249999J0D01*
G01*
X297645000Y-100420000D01*
G75*
G02*
X297894999Y-100669999I0J-249999D01*
G01*
G37*
%TD*%
%TO.C,C25*%
G36*
G01*
X293400001Y-36114999D02*
X292499999Y-36114999D01*
G75*
G02*
X292250000Y-35865000I0J249999D01*
G01*
X292250000Y-35214998D01*
G75*
G02*
X292499999Y-34964999I249999J0D01*
G01*
X293400001Y-34964999D01*
G75*
G02*
X293650000Y-35214998I0J-249999D01*
G01*
X293650000Y-35865000D01*
G75*
G02*
X293400001Y-36114999I-249999J0D01*
G01*
G37*
G36*
G01*
X293400001Y-38164999D02*
X292499999Y-38164999D01*
G75*
G02*
X292250000Y-37915000I0J249999D01*
G01*
X292250000Y-37264998D01*
G75*
G02*
X292499999Y-37014999I249999J0D01*
G01*
X293400001Y-37014999D01*
G75*
G02*
X293650000Y-37264998I0J-249999D01*
G01*
X293650000Y-37915000D01*
G75*
G02*
X293400001Y-38164999I-249999J0D01*
G01*
G37*
%TD*%
%TO.C,C24*%
G36*
G01*
X-47174999Y-37650000D02*
X-48075001Y-37650000D01*
G75*
G02*
X-48325000Y-37400001I0J249999D01*
G01*
X-48325000Y-36749999D01*
G75*
G02*
X-48075001Y-36500000I249999J0D01*
G01*
X-47174999Y-36500000D01*
G75*
G02*
X-46925000Y-36749999I0J-249999D01*
G01*
X-46925000Y-37400001D01*
G75*
G02*
X-47174999Y-37650000I-249999J0D01*
G01*
G37*
G36*
G01*
X-47174999Y-39700000D02*
X-48075001Y-39700000D01*
G75*
G02*
X-48325000Y-39450001I0J249999D01*
G01*
X-48325000Y-38799999D01*
G75*
G02*
X-48075001Y-38550000I249999J0D01*
G01*
X-47174999Y-38550000D01*
G75*
G02*
X-46925000Y-38799999I0J-249999D01*
G01*
X-46925000Y-39450001D01*
G75*
G02*
X-47174999Y-39700000I-249999J0D01*
G01*
G37*
%TD*%
%TO.C,C23*%
G36*
G01*
X55218751Y-36293749D02*
X54318749Y-36293749D01*
G75*
G02*
X54068750Y-36043750I0J249999D01*
G01*
X54068750Y-35393748D01*
G75*
G02*
X54318749Y-35143749I249999J0D01*
G01*
X55218751Y-35143749D01*
G75*
G02*
X55468750Y-35393748I0J-249999D01*
G01*
X55468750Y-36043750D01*
G75*
G02*
X55218751Y-36293749I-249999J0D01*
G01*
G37*
G36*
G01*
X55218751Y-38343749D02*
X54318749Y-38343749D01*
G75*
G02*
X54068750Y-38093750I0J249999D01*
G01*
X54068750Y-37443748D01*
G75*
G02*
X54318749Y-37193749I249999J0D01*
G01*
X55218751Y-37193749D01*
G75*
G02*
X55468750Y-37443748I0J-249999D01*
G01*
X55468750Y-38093750D01*
G75*
G02*
X55218751Y-38343749I-249999J0D01*
G01*
G37*
%TD*%
%TO.C,C22*%
G36*
G01*
X114750001Y-36293750D02*
X113849999Y-36293750D01*
G75*
G02*
X113600000Y-36043751I0J249999D01*
G01*
X113600000Y-35393749D01*
G75*
G02*
X113849999Y-35143750I249999J0D01*
G01*
X114750001Y-35143750D01*
G75*
G02*
X115000000Y-35393749I0J-249999D01*
G01*
X115000000Y-36043751D01*
G75*
G02*
X114750001Y-36293750I-249999J0D01*
G01*
G37*
G36*
G01*
X114750001Y-38343750D02*
X113849999Y-38343750D01*
G75*
G02*
X113600000Y-38093751I0J249999D01*
G01*
X113600000Y-37443749D01*
G75*
G02*
X113849999Y-37193750I249999J0D01*
G01*
X114750001Y-37193750D01*
G75*
G02*
X115000000Y-37443749I0J-249999D01*
G01*
X115000000Y-38093751D01*
G75*
G02*
X114750001Y-38343750I-249999J0D01*
G01*
G37*
%TD*%
%TO.C,C21*%
G36*
G01*
X33787501Y-138687499D02*
X32887499Y-138687499D01*
G75*
G02*
X32637500Y-138437500I0J249999D01*
G01*
X32637500Y-137787498D01*
G75*
G02*
X32887499Y-137537499I249999J0D01*
G01*
X33787501Y-137537499D01*
G75*
G02*
X34037500Y-137787498I0J-249999D01*
G01*
X34037500Y-138437500D01*
G75*
G02*
X33787501Y-138687499I-249999J0D01*
G01*
G37*
G36*
G01*
X33787501Y-140737499D02*
X32887499Y-140737499D01*
G75*
G02*
X32637500Y-140487500I0J249999D01*
G01*
X32637500Y-139837498D01*
G75*
G02*
X32887499Y-139587499I249999J0D01*
G01*
X33787501Y-139587499D01*
G75*
G02*
X34037500Y-139837498I0J-249999D01*
G01*
X34037500Y-140487500D01*
G75*
G02*
X33787501Y-140737499I-249999J0D01*
G01*
G37*
%TD*%
%TO.C,C20*%
G36*
G01*
X301512499Y-62362501D02*
X301512499Y-61462499D01*
G75*
G02*
X301762498Y-61212500I249999J0D01*
G01*
X302412500Y-61212500D01*
G75*
G02*
X302662499Y-61462499I0J-249999D01*
G01*
X302662499Y-62362501D01*
G75*
G02*
X302412500Y-62612500I-249999J0D01*
G01*
X301762498Y-62612500D01*
G75*
G02*
X301512499Y-62362501I0J249999D01*
G01*
G37*
G36*
G01*
X299462499Y-62362501D02*
X299462499Y-61462499D01*
G75*
G02*
X299712498Y-61212500I249999J0D01*
G01*
X300362500Y-61212500D01*
G75*
G02*
X300612499Y-61462499I0J-249999D01*
G01*
X300612499Y-62362501D01*
G75*
G02*
X300362500Y-62612500I-249999J0D01*
G01*
X299712498Y-62612500D01*
G75*
G02*
X299462499Y-62362501I0J249999D01*
G01*
G37*
%TD*%
%TO.C,C19*%
G36*
G01*
X-20981249Y-138687500D02*
X-21881251Y-138687500D01*
G75*
G02*
X-22131250Y-138437501I0J249999D01*
G01*
X-22131250Y-137787499D01*
G75*
G02*
X-21881251Y-137537500I249999J0D01*
G01*
X-20981249Y-137537500D01*
G75*
G02*
X-20731250Y-137787499I0J-249999D01*
G01*
X-20731250Y-138437501D01*
G75*
G02*
X-20981249Y-138687500I-249999J0D01*
G01*
G37*
G36*
G01*
X-20981249Y-140737500D02*
X-21881251Y-140737500D01*
G75*
G02*
X-22131250Y-140487501I0J249999D01*
G01*
X-22131250Y-139837499D01*
G75*
G02*
X-21881251Y-139587500I249999J0D01*
G01*
X-20981249Y-139587500D01*
G75*
G02*
X-20731250Y-139837499I0J-249999D01*
G01*
X-20731250Y-140487501D01*
G75*
G02*
X-20981249Y-140737500I-249999J0D01*
G01*
G37*
%TD*%
%TO.C,C18*%
G36*
G01*
X5212501Y-36293749D02*
X4312499Y-36293749D01*
G75*
G02*
X4062500Y-36043750I0J249999D01*
G01*
X4062500Y-35393748D01*
G75*
G02*
X4312499Y-35143749I249999J0D01*
G01*
X5212501Y-35143749D01*
G75*
G02*
X5462500Y-35393748I0J-249999D01*
G01*
X5462500Y-36043750D01*
G75*
G02*
X5212501Y-36293749I-249999J0D01*
G01*
G37*
G36*
G01*
X5212501Y-38343749D02*
X4312499Y-38343749D01*
G75*
G02*
X4062500Y-38093750I0J249999D01*
G01*
X4062500Y-37443748D01*
G75*
G02*
X4312499Y-37193749I249999J0D01*
G01*
X5212501Y-37193749D01*
G75*
G02*
X5462500Y-37443748I0J-249999D01*
G01*
X5462500Y-38093750D01*
G75*
G02*
X5212501Y-38343749I-249999J0D01*
G01*
G37*
%TD*%
%TO.C,C17*%
G36*
G01*
X-79487501Y-69506251D02*
X-79487501Y-68606249D01*
G75*
G02*
X-79237502Y-68356250I249999J0D01*
G01*
X-78587500Y-68356250D01*
G75*
G02*
X-78337501Y-68606249I0J-249999D01*
G01*
X-78337501Y-69506251D01*
G75*
G02*
X-78587500Y-69756250I-249999J0D01*
G01*
X-79237502Y-69756250D01*
G75*
G02*
X-79487501Y-69506251I0J249999D01*
G01*
G37*
G36*
G01*
X-81537501Y-69506251D02*
X-81537501Y-68606249D01*
G75*
G02*
X-81287502Y-68356250I249999J0D01*
G01*
X-80637500Y-68356250D01*
G75*
G02*
X-80387501Y-68606249I0J-249999D01*
G01*
X-80387501Y-69506251D01*
G75*
G02*
X-80637500Y-69756250I-249999J0D01*
G01*
X-81287502Y-69756250D01*
G75*
G02*
X-81537501Y-69506251I0J249999D01*
G01*
G37*
%TD*%
%TO.C,C16*%
G36*
G01*
X194270001Y-139860000D02*
X193369999Y-139860000D01*
G75*
G02*
X193120000Y-139610001I0J249999D01*
G01*
X193120000Y-138959999D01*
G75*
G02*
X193369999Y-138710000I249999J0D01*
G01*
X194270001Y-138710000D01*
G75*
G02*
X194520000Y-138959999I0J-249999D01*
G01*
X194520000Y-139610001D01*
G75*
G02*
X194270001Y-139860000I-249999J0D01*
G01*
G37*
G36*
G01*
X194270001Y-141910000D02*
X193369999Y-141910000D01*
G75*
G02*
X193120000Y-141660001I0J249999D01*
G01*
X193120000Y-141009999D01*
G75*
G02*
X193369999Y-140760000I249999J0D01*
G01*
X194270001Y-140760000D01*
G75*
G02*
X194520000Y-141009999I0J-249999D01*
G01*
X194520000Y-141660001D01*
G75*
G02*
X194270001Y-141910000I-249999J0D01*
G01*
G37*
%TD*%
%TO.C,C15*%
G36*
G01*
X-79487501Y-105225001D02*
X-79487501Y-104324999D01*
G75*
G02*
X-79237502Y-104075000I249999J0D01*
G01*
X-78587500Y-104075000D01*
G75*
G02*
X-78337501Y-104324999I0J-249999D01*
G01*
X-78337501Y-105225001D01*
G75*
G02*
X-78587500Y-105475000I-249999J0D01*
G01*
X-79237502Y-105475000D01*
G75*
G02*
X-79487501Y-105225001I0J249999D01*
G01*
G37*
G36*
G01*
X-81537501Y-105225001D02*
X-81537501Y-104324999D01*
G75*
G02*
X-81287502Y-104075000I249999J0D01*
G01*
X-80637500Y-104075000D01*
G75*
G02*
X-80387501Y-104324999I0J-249999D01*
G01*
X-80387501Y-105225001D01*
G75*
G02*
X-80637500Y-105475000I-249999J0D01*
G01*
X-81287502Y-105475000D01*
G75*
G02*
X-81537501Y-105225001I0J249999D01*
G01*
G37*
%TD*%
%TO.C,C14*%
G36*
G01*
X-70987499Y-139018751D02*
X-71887501Y-139018751D01*
G75*
G02*
X-72137500Y-138768752I0J249999D01*
G01*
X-72137500Y-138118750D01*
G75*
G02*
X-71887501Y-137868751I249999J0D01*
G01*
X-70987499Y-137868751D01*
G75*
G02*
X-70737500Y-138118750I0J-249999D01*
G01*
X-70737500Y-138768752D01*
G75*
G02*
X-70987499Y-139018751I-249999J0D01*
G01*
G37*
G36*
G01*
X-70987499Y-141068751D02*
X-71887501Y-141068751D01*
G75*
G02*
X-72137500Y-140818752I0J249999D01*
G01*
X-72137500Y-140168750D01*
G75*
G02*
X-71887501Y-139918751I249999J0D01*
G01*
X-70987499Y-139918751D01*
G75*
G02*
X-70737500Y-140168750I0J-249999D01*
G01*
X-70737500Y-140818752D01*
G75*
G02*
X-70987499Y-141068751I-249999J0D01*
G01*
G37*
%TD*%
%TO.C,C13*%
G36*
G01*
X181425001Y-36293750D02*
X180524999Y-36293750D01*
G75*
G02*
X180275000Y-36043751I0J249999D01*
G01*
X180275000Y-35393749D01*
G75*
G02*
X180524999Y-35143750I249999J0D01*
G01*
X181425001Y-35143750D01*
G75*
G02*
X181675000Y-35393749I0J-249999D01*
G01*
X181675000Y-36043751D01*
G75*
G02*
X181425001Y-36293750I-249999J0D01*
G01*
G37*
G36*
G01*
X181425001Y-38343750D02*
X180524999Y-38343750D01*
G75*
G02*
X180275000Y-38093751I0J249999D01*
G01*
X180275000Y-37443749D01*
G75*
G02*
X180524999Y-37193750I249999J0D01*
G01*
X181425001Y-37193750D01*
G75*
G02*
X181675000Y-37443749I0J-249999D01*
G01*
X181675000Y-38093751D01*
G75*
G02*
X181425001Y-38343750I-249999J0D01*
G01*
G37*
%TD*%
%TO.C,C12*%
G36*
G01*
X146640001Y-140145000D02*
X145739999Y-140145000D01*
G75*
G02*
X145490000Y-139895001I0J249999D01*
G01*
X145490000Y-139244999D01*
G75*
G02*
X145739999Y-138995000I249999J0D01*
G01*
X146640001Y-138995000D01*
G75*
G02*
X146890000Y-139244999I0J-249999D01*
G01*
X146890000Y-139895001D01*
G75*
G02*
X146640001Y-140145000I-249999J0D01*
G01*
G37*
G36*
G01*
X146640001Y-142195000D02*
X145739999Y-142195000D01*
G75*
G02*
X145490000Y-141945001I0J249999D01*
G01*
X145490000Y-141294999D01*
G75*
G02*
X145739999Y-141045000I249999J0D01*
G01*
X146640001Y-141045000D01*
G75*
G02*
X146890000Y-141294999I0J-249999D01*
G01*
X146890000Y-141945001D01*
G75*
G02*
X146640001Y-142195000I-249999J0D01*
G01*
G37*
%TD*%
%TO.C,C11*%
G36*
G01*
X86175001Y-138687499D02*
X85274999Y-138687499D01*
G75*
G02*
X85025000Y-138437500I0J249999D01*
G01*
X85025000Y-137787498D01*
G75*
G02*
X85274999Y-137537499I249999J0D01*
G01*
X86175001Y-137537499D01*
G75*
G02*
X86425000Y-137787498I0J-249999D01*
G01*
X86425000Y-138437500D01*
G75*
G02*
X86175001Y-138687499I-249999J0D01*
G01*
G37*
G36*
G01*
X86175001Y-140737499D02*
X85274999Y-140737499D01*
G75*
G02*
X85025000Y-140487500I0J249999D01*
G01*
X85025000Y-139837498D01*
G75*
G02*
X85274999Y-139587499I249999J0D01*
G01*
X86175001Y-139587499D01*
G75*
G02*
X86425000Y-139837498I0J-249999D01*
G01*
X86425000Y-140487500D01*
G75*
G02*
X86175001Y-140737499I-249999J0D01*
G01*
G37*
%TD*%
%TO.C,C10*%
G36*
G01*
X255920001Y-141440000D02*
X255019999Y-141440000D01*
G75*
G02*
X254770000Y-141190001I0J249999D01*
G01*
X254770000Y-140539999D01*
G75*
G02*
X255019999Y-140290000I249999J0D01*
G01*
X255920001Y-140290000D01*
G75*
G02*
X256170000Y-140539999I0J-249999D01*
G01*
X256170000Y-141190001D01*
G75*
G02*
X255920001Y-141440000I-249999J0D01*
G01*
G37*
G36*
G01*
X255920001Y-143490000D02*
X255019999Y-143490000D01*
G75*
G02*
X254770000Y-143240001I0J249999D01*
G01*
X254770000Y-142589999D01*
G75*
G02*
X255019999Y-142340000I249999J0D01*
G01*
X255920001Y-142340000D01*
G75*
G02*
X256170000Y-142589999I0J-249999D01*
G01*
X256170000Y-143240001D01*
G75*
G02*
X255920001Y-143490000I-249999J0D01*
G01*
G37*
%TD*%
%TO.C,C9*%
G36*
G01*
X298180000Y-135069999D02*
X298180000Y-135970001D01*
G75*
G02*
X297930001Y-136220000I-249999J0D01*
G01*
X297279999Y-136220000D01*
G75*
G02*
X297030000Y-135970001I0J249999D01*
G01*
X297030000Y-135069999D01*
G75*
G02*
X297279999Y-134820000I249999J0D01*
G01*
X297930001Y-134820000D01*
G75*
G02*
X298180000Y-135069999I0J-249999D01*
G01*
G37*
G36*
G01*
X300230000Y-135069999D02*
X300230000Y-135970001D01*
G75*
G02*
X299980001Y-136220000I-249999J0D01*
G01*
X299329999Y-136220000D01*
G75*
G02*
X299080000Y-135970001I0J249999D01*
G01*
X299080000Y-135069999D01*
G75*
G02*
X299329999Y-134820000I249999J0D01*
G01*
X299980001Y-134820000D01*
G75*
G02*
X300230000Y-135069999I0J-249999D01*
G01*
G37*
%TD*%
%TO.C,C8*%
G36*
G01*
X229024999Y-122339999D02*
X229024999Y-123240001D01*
G75*
G02*
X228775000Y-123490000I-249999J0D01*
G01*
X228124998Y-123490000D01*
G75*
G02*
X227874999Y-123240001I0J249999D01*
G01*
X227874999Y-122339999D01*
G75*
G02*
X228124998Y-122090000I249999J0D01*
G01*
X228775000Y-122090000D01*
G75*
G02*
X229024999Y-122339999I0J-249999D01*
G01*
G37*
G36*
G01*
X231074999Y-122339999D02*
X231074999Y-123240001D01*
G75*
G02*
X230825000Y-123490000I-249999J0D01*
G01*
X230174998Y-123490000D01*
G75*
G02*
X229924999Y-123240001I0J249999D01*
G01*
X229924999Y-122339999D01*
G75*
G02*
X230174998Y-122090000I249999J0D01*
G01*
X230825000Y-122090000D01*
G75*
G02*
X231074999Y-122339999I0J-249999D01*
G01*
G37*
%TD*%
%TO.C,C7*%
G36*
G01*
X213621612Y-108754785D02*
X212985215Y-108118388D01*
G75*
G02*
X212985215Y-107764836I176776J176776D01*
G01*
X213444836Y-107305215D01*
G75*
G02*
X213798388Y-107305215I176776J-176776D01*
G01*
X214434785Y-107941612D01*
G75*
G02*
X214434785Y-108295164I-176776J-176776D01*
G01*
X213975164Y-108754785D01*
G75*
G02*
X213621612Y-108754785I-176776J176776D01*
G01*
G37*
G36*
G01*
X212172044Y-110204353D02*
X211535647Y-109567956D01*
G75*
G02*
X211535647Y-109214404I176776J176776D01*
G01*
X211995268Y-108754783D01*
G75*
G02*
X212348820Y-108754783I176776J-176776D01*
G01*
X212985217Y-109391180D01*
G75*
G02*
X212985217Y-109744732I-176776J-176776D01*
G01*
X212525596Y-110204353D01*
G75*
G02*
X212172044Y-110204353I-176776J176776D01*
G01*
G37*
%TD*%
%TO.C,C6*%
G36*
G01*
X213979999Y-121516396D02*
X214616396Y-120879999D01*
G75*
G02*
X214969948Y-120879999I176776J-176776D01*
G01*
X215429569Y-121339620D01*
G75*
G02*
X215429569Y-121693172I-176776J-176776D01*
G01*
X214793172Y-122329569D01*
G75*
G02*
X214439620Y-122329569I-176776J176776D01*
G01*
X213979999Y-121869948D01*
G75*
G02*
X213979999Y-121516396I176776J176776D01*
G01*
G37*
G36*
G01*
X212530431Y-120066828D02*
X213166828Y-119430431D01*
G75*
G02*
X213520380Y-119430431I176776J-176776D01*
G01*
X213980001Y-119890052D01*
G75*
G02*
X213980001Y-120243604I-176776J-176776D01*
G01*
X213343604Y-120880001D01*
G75*
G02*
X212990052Y-120880001I-176776J176776D01*
G01*
X212530431Y-120420380D01*
G75*
G02*
X212530431Y-120066828I176776J176776D01*
G01*
G37*
%TD*%
%TO.C,C5*%
G36*
G01*
X224324785Y-108448388D02*
X223688388Y-109084785D01*
G75*
G02*
X223334836Y-109084785I-176776J176776D01*
G01*
X222875215Y-108625164D01*
G75*
G02*
X222875215Y-108271612I176776J176776D01*
G01*
X223511612Y-107635215D01*
G75*
G02*
X223865164Y-107635215I176776J-176776D01*
G01*
X224324785Y-108094836D01*
G75*
G02*
X224324785Y-108448388I-176776J-176776D01*
G01*
G37*
G36*
G01*
X225774353Y-109897956D02*
X225137956Y-110534353D01*
G75*
G02*
X224784404Y-110534353I-176776J176776D01*
G01*
X224324783Y-110074732D01*
G75*
G02*
X224324783Y-109721180I176776J176776D01*
G01*
X224961180Y-109084783D01*
G75*
G02*
X225314732Y-109084783I176776J-176776D01*
G01*
X225774353Y-109544404D01*
G75*
G02*
X225774353Y-109897956I-176776J-176776D01*
G01*
G37*
%TD*%
%TO.C,C4*%
G36*
G01*
X85400001Y-125550000D02*
X84499999Y-125550000D01*
G75*
G02*
X84250000Y-125300001I0J249999D01*
G01*
X84250000Y-124649999D01*
G75*
G02*
X84499999Y-124400000I249999J0D01*
G01*
X85400001Y-124400000D01*
G75*
G02*
X85650000Y-124649999I0J-249999D01*
G01*
X85650000Y-125300001D01*
G75*
G02*
X85400001Y-125550000I-249999J0D01*
G01*
G37*
G36*
G01*
X85400001Y-127600000D02*
X84499999Y-127600000D01*
G75*
G02*
X84250000Y-127350001I0J249999D01*
G01*
X84250000Y-126699999D01*
G75*
G02*
X84499999Y-126450000I249999J0D01*
G01*
X85400001Y-126450000D01*
G75*
G02*
X85650000Y-126699999I0J-249999D01*
G01*
X85650000Y-127350001D01*
G75*
G02*
X85400001Y-127600000I-249999J0D01*
G01*
G37*
%TD*%
%TO.C,C3*%
G36*
G01*
X227075000Y-50909999D02*
X227075000Y-51810001D01*
G75*
G02*
X226825001Y-52060000I-249999J0D01*
G01*
X226174999Y-52060000D01*
G75*
G02*
X225925000Y-51810001I0J249999D01*
G01*
X225925000Y-50909999D01*
G75*
G02*
X226174999Y-50660000I249999J0D01*
G01*
X226825001Y-50660000D01*
G75*
G02*
X227075000Y-50909999I0J-249999D01*
G01*
G37*
G36*
G01*
X229125000Y-50909999D02*
X229125000Y-51810001D01*
G75*
G02*
X228875001Y-52060000I-249999J0D01*
G01*
X228224999Y-52060000D01*
G75*
G02*
X227975000Y-51810001I0J249999D01*
G01*
X227975000Y-50909999D01*
G75*
G02*
X228224999Y-50660000I249999J0D01*
G01*
X228875001Y-50660000D01*
G75*
G02*
X229125000Y-50909999I0J-249999D01*
G01*
G37*
%TD*%
%TO.C,C2*%
G36*
G01*
X223309999Y-27234999D02*
X224210001Y-27234999D01*
G75*
G02*
X224460000Y-27484998I0J-249999D01*
G01*
X224460000Y-28135000D01*
G75*
G02*
X224210001Y-28384999I-249999J0D01*
G01*
X223309999Y-28384999D01*
G75*
G02*
X223060000Y-28135000I0J249999D01*
G01*
X223060000Y-27484998D01*
G75*
G02*
X223309999Y-27234999I249999J0D01*
G01*
G37*
G36*
G01*
X223309999Y-25184999D02*
X224210001Y-25184999D01*
G75*
G02*
X224460000Y-25434998I0J-249999D01*
G01*
X224460000Y-26085000D01*
G75*
G02*
X224210001Y-26334999I-249999J0D01*
G01*
X223309999Y-26334999D01*
G75*
G02*
X223060000Y-26085000I0J249999D01*
G01*
X223060000Y-25434998D01*
G75*
G02*
X223309999Y-25184999I249999J0D01*
G01*
G37*
%TD*%
%TO.C,C1*%
G36*
G01*
X245718751Y-36293749D02*
X244818749Y-36293749D01*
G75*
G02*
X244568750Y-36043750I0J249999D01*
G01*
X244568750Y-35393748D01*
G75*
G02*
X244818749Y-35143749I249999J0D01*
G01*
X245718751Y-35143749D01*
G75*
G02*
X245968750Y-35393748I0J-249999D01*
G01*
X245968750Y-36043750D01*
G75*
G02*
X245718751Y-36293749I-249999J0D01*
G01*
G37*
G36*
G01*
X245718751Y-38343749D02*
X244818749Y-38343749D01*
G75*
G02*
X244568750Y-38093750I0J249999D01*
G01*
X244568750Y-37443748D01*
G75*
G02*
X244818749Y-37193749I249999J0D01*
G01*
X245718751Y-37193749D01*
G75*
G02*
X245968750Y-37443748I0J-249999D01*
G01*
X245968750Y-38093750D01*
G75*
G02*
X245718751Y-38343749I-249999J0D01*
G01*
G37*
%TD*%
M02*
