%TF.GenerationSoftware,KiCad,Pcbnew,(5.1.6)-1*%
%TF.CreationDate,2020-07-26T12:10:15+02:00*%
%TF.ProjectId,Proyecto CFS,50726f79-6563-4746-9f20-4346532e6b69,rev?*%
%TF.SameCoordinates,Original*%
%TF.FileFunction,Copper,L1,Top*%
%TF.FilePolarity,Positive*%
%FSLAX46Y46*%
G04 Gerber Fmt 4.6, Leading zero omitted, Abs format (unit mm)*
G04 Created by KiCad (PCBNEW (5.1.6)-1) date 2020-07-26 12:10:15*
%MOMM*%
%LPD*%
G01*
G04 APERTURE LIST*
%TA.AperFunction,NonConductor*%
%ADD10C,0.150000*%
%TD*%
%TA.AperFunction,ComponentPad*%
%ADD11O,1.000000X2.100000*%
%TD*%
%TA.AperFunction,ComponentPad*%
%ADD12O,1.000000X1.600000*%
%TD*%
%TA.AperFunction,ComponentPad*%
%ADD13C,2.250000*%
%TD*%
%TA.AperFunction,ComponentPad*%
%ADD14O,1.524000X1.524000*%
%TD*%
%TA.AperFunction,ComponentPad*%
%ADD15R,1.524000X1.524000*%
%TD*%
%TA.AperFunction,ViaPad*%
%ADD16C,0.800000*%
%TD*%
%TA.AperFunction,Conductor*%
%ADD17C,0.375000*%
%TD*%
%TA.AperFunction,Conductor*%
%ADD18C,0.400000*%
%TD*%
%TA.AperFunction,Conductor*%
%ADD19C,0.350000*%
%TD*%
%TA.AperFunction,Conductor*%
%ADD20C,0.250000*%
%TD*%
G04 APERTURE END LIST*
D10*
X266880952Y-168027380D02*
X266880952Y-167027380D01*
X267261904Y-167027380D01*
X267357142Y-167075000D01*
X267404761Y-167122619D01*
X267452380Y-167217857D01*
X267452380Y-167360714D01*
X267404761Y-167455952D01*
X267357142Y-167503571D01*
X267261904Y-167551190D01*
X266880952Y-167551190D01*
X267880952Y-168027380D02*
X267880952Y-167360714D01*
X267880952Y-167551190D02*
X267928571Y-167455952D01*
X267976190Y-167408333D01*
X268071428Y-167360714D01*
X268166666Y-167360714D01*
X268642857Y-168027380D02*
X268547619Y-167979761D01*
X268500000Y-167932142D01*
X268452380Y-167836904D01*
X268452380Y-167551190D01*
X268500000Y-167455952D01*
X268547619Y-167408333D01*
X268642857Y-167360714D01*
X268785714Y-167360714D01*
X268880952Y-167408333D01*
X268928571Y-167455952D01*
X268976190Y-167551190D01*
X268976190Y-167836904D01*
X268928571Y-167932142D01*
X268880952Y-167979761D01*
X268785714Y-168027380D01*
X268642857Y-168027380D01*
X269261904Y-167360714D02*
X269642857Y-167360714D01*
X269404761Y-167027380D02*
X269404761Y-167884523D01*
X269452380Y-167979761D01*
X269547619Y-168027380D01*
X269642857Y-168027380D01*
X270119047Y-168027380D02*
X270023809Y-167979761D01*
X269976190Y-167932142D01*
X269928571Y-167836904D01*
X269928571Y-167551190D01*
X269976190Y-167455952D01*
X270023809Y-167408333D01*
X270119047Y-167360714D01*
X270261904Y-167360714D01*
X270357142Y-167408333D01*
X270404761Y-167455952D01*
X270452380Y-167551190D01*
X270452380Y-167836904D01*
X270404761Y-167932142D01*
X270357142Y-167979761D01*
X270261904Y-168027380D01*
X270119047Y-168027380D01*
X270738095Y-167360714D02*
X271119047Y-167360714D01*
X270880952Y-167027380D02*
X270880952Y-167884523D01*
X270928571Y-167979761D01*
X271023809Y-168027380D01*
X271119047Y-168027380D01*
X271452380Y-168027380D02*
X271452380Y-167360714D01*
X271452380Y-167027380D02*
X271404761Y-167075000D01*
X271452380Y-167122619D01*
X271500000Y-167075000D01*
X271452380Y-167027380D01*
X271452380Y-167122619D01*
X271928571Y-167360714D02*
X271928571Y-168360714D01*
X271928571Y-167408333D02*
X272023809Y-167360714D01*
X272214285Y-167360714D01*
X272309523Y-167408333D01*
X272357142Y-167455952D01*
X272404761Y-167551190D01*
X272404761Y-167836904D01*
X272357142Y-167932142D01*
X272309523Y-167979761D01*
X272214285Y-168027380D01*
X272023809Y-168027380D01*
X271928571Y-167979761D01*
X272976190Y-168027380D02*
X272880952Y-167979761D01*
X272833333Y-167932142D01*
X272785714Y-167836904D01*
X272785714Y-167551190D01*
X272833333Y-167455952D01*
X272880952Y-167408333D01*
X272976190Y-167360714D01*
X273119047Y-167360714D01*
X273214285Y-167408333D01*
X273261904Y-167455952D01*
X273309523Y-167551190D01*
X273309523Y-167836904D01*
X273261904Y-167932142D01*
X273214285Y-167979761D01*
X273119047Y-168027380D01*
X272976190Y-168027380D01*
X273738095Y-167932142D02*
X273785714Y-167979761D01*
X273738095Y-168027380D01*
X273690476Y-167979761D01*
X273738095Y-167932142D01*
X273738095Y-168027380D01*
X274738095Y-168027380D02*
X274166666Y-168027380D01*
X274452380Y-168027380D02*
X274452380Y-167027380D01*
X274357142Y-167170238D01*
X274261904Y-167265476D01*
X274166666Y-167313095D01*
X275928571Y-168027380D02*
X275928571Y-167360714D01*
X275928571Y-167551190D02*
X275976190Y-167455952D01*
X276023809Y-167408333D01*
X276119047Y-167360714D01*
X276214285Y-167360714D01*
X276928571Y-167979761D02*
X276833333Y-168027380D01*
X276642857Y-168027380D01*
X276547619Y-167979761D01*
X276500000Y-167884523D01*
X276500000Y-167503571D01*
X276547619Y-167408333D01*
X276642857Y-167360714D01*
X276833333Y-167360714D01*
X276928571Y-167408333D01*
X276976190Y-167503571D01*
X276976190Y-167598809D01*
X276500000Y-167694047D01*
X277309523Y-167360714D02*
X277547619Y-168027380D01*
X277785714Y-167360714D01*
X278166666Y-167932142D02*
X278214285Y-167979761D01*
X278166666Y-168027380D01*
X278119047Y-167979761D01*
X278166666Y-167932142D01*
X278166666Y-168027380D01*
X278833333Y-167027380D02*
X278928571Y-167027380D01*
X279023809Y-167075000D01*
X279071428Y-167122619D01*
X279119047Y-167217857D01*
X279166666Y-167408333D01*
X279166666Y-167646428D01*
X279119047Y-167836904D01*
X279071428Y-167932142D01*
X279023809Y-167979761D01*
X278928571Y-168027380D01*
X278833333Y-168027380D01*
X278738095Y-167979761D01*
X278690476Y-167932142D01*
X278642857Y-167836904D01*
X278595238Y-167646428D01*
X278595238Y-167408333D01*
X278642857Y-167217857D01*
X278690476Y-167122619D01*
X278738095Y-167075000D01*
X278833333Y-167027380D01*
D11*
%TO.P,USB1,13*%
%TO.N,GND*%
X279130000Y-74385000D03*
X287770000Y-74385000D03*
D12*
X279130000Y-70205000D03*
X287770000Y-70205000D03*
%TD*%
D13*
%TO.P,MX79,2*%
%TO.N,Net-(D77-Pad2)*%
X274002500Y-78263750D03*
%TO.P,MX79,1*%
%TO.N,COL-15*%
X267652500Y-80803750D03*
%TD*%
%TO.P,MX45,2*%
%TO.N,Net-(D44-Pad2)*%
X145415000Y-78263750D03*
%TO.P,MX45,1*%
%TO.N,COL-8*%
X139065000Y-80803750D03*
%TD*%
%TO.P,MX95,2*%
%TO.N,Net-(D93-Pad2)*%
X335915000Y-102076250D03*
%TO.P,MX95,1*%
%TO.N,COL-18*%
X329565000Y-104616250D03*
%TD*%
%TO.P,MX103,2*%
%TO.N,Net-(D101-Pad2)*%
X357505000Y-176371250D03*
%TO.P,MX103,1*%
%TO.N,COL-19*%
X354965000Y-170021250D03*
%TD*%
%TO.P,MX102,2*%
%TO.N,Net-(D100-Pad2)*%
X357505000Y-138271250D03*
%TO.P,MX102,1*%
%TO.N,COL-19*%
X354965000Y-131921250D03*
%TD*%
%TO.P,MX88,2*%
%TO.N,Net-(D86-Pad2)*%
X307340000Y-178276250D03*
%TO.P,MX88,1*%
%TO.N,COL-16*%
X300990000Y-180816250D03*
%TD*%
%TO.P,MX104,2*%
%TO.N,Net-(D102-Pad2)*%
X274002500Y-183038750D03*
%TO.P,MX104,1*%
%TO.N,COL-14*%
X267652500Y-185578750D03*
%TD*%
%TO.P,MX39,2*%
%TO.N,Net-(D38-Pad2)*%
X121602500Y-159226250D03*
%TO.P,MX39,1*%
%TO.N,COL-6*%
X115252500Y-161766250D03*
%TD*%
%TO.P,MX43,2*%
%TO.N,Net-(D42-Pad2)*%
X131127500Y-140176250D03*
%TO.P,MX43,1*%
%TO.N,COL-7*%
X124777500Y-142716250D03*
%TD*%
%TO.P,MX34,2*%
%TO.N,Net-(D33-Pad2)*%
X97790000Y-178276250D03*
%TO.P,MX34,1*%
%TO.N,COL-5*%
X91440000Y-180816250D03*
%TD*%
%TO.P,MX33,2*%
%TO.N,Net-(D32-Pad2)*%
X102552500Y-159226250D03*
%TO.P,MX33,1*%
%TO.N,COL-5*%
X96202500Y-161766250D03*
%TD*%
%TO.P,MX32,2*%
%TO.N,Net-(D31-Pad2)*%
X93027500Y-140176250D03*
%TO.P,MX32,1*%
%TO.N,COL-5*%
X86677500Y-142716250D03*
%TD*%
%TO.P,MX48,2*%
%TO.N,Net-(D47-Pad2)*%
X150177500Y-140176250D03*
%TO.P,MX48,1*%
%TO.N,COL-8*%
X143827500Y-142716250D03*
%TD*%
%TO.P,MX31,2*%
%TO.N,Net-(D30-Pad2)*%
X88265000Y-121126250D03*
%TO.P,MX31,1*%
%TO.N,COL-5*%
X81915000Y-123666250D03*
%TD*%
%TO.P,MX44,2*%
%TO.N,Net-(D43-Pad2)*%
X140652500Y-159226250D03*
%TO.P,MX44,1*%
%TO.N,COL-7*%
X134302500Y-161766250D03*
%TD*%
%TO.P,MX40,2*%
%TO.N,Net-(D39-Pad2)*%
X126365000Y-78263750D03*
%TO.P,MX40,1*%
%TO.N,COL-7*%
X120015000Y-80803750D03*
%TD*%
%TO.P,MX36,2*%
%TO.N,Net-(D35-Pad2)*%
X97790000Y-102076250D03*
%TO.P,MX36,1*%
%TO.N,COL-6*%
X91440000Y-104616250D03*
%TD*%
%TO.P,MX46,2*%
%TO.N,Net-(D45-Pad2)*%
X135890000Y-102076250D03*
%TO.P,MX46,1*%
%TO.N,COL-8*%
X129540000Y-104616250D03*
%TD*%
%TO.P,MX41,2*%
%TO.N,Net-(D40-Pad2)*%
X116840000Y-102076250D03*
%TO.P,MX41,1*%
%TO.N,COL-7*%
X110490000Y-104616250D03*
%TD*%
%TO.P,MX42,2*%
%TO.N,Net-(D41-Pad2)*%
X126365000Y-121126250D03*
%TO.P,MX42,1*%
%TO.N,COL-7*%
X120015000Y-123666250D03*
%TD*%
%TO.P,MX38,2*%
%TO.N,Net-(D37-Pad2)*%
X112077500Y-140176250D03*
%TO.P,MX38,1*%
%TO.N,COL-6*%
X105727500Y-142716250D03*
%TD*%
%TO.P,MX35,2*%
%TO.N,Net-(D34-Pad2)*%
X107315000Y-78263750D03*
%TO.P,MX35,1*%
%TO.N,COL-6*%
X100965000Y-80803750D03*
%TD*%
%TO.P,MX37,2*%
%TO.N,Net-(D36-Pad2)*%
X107315000Y-121126250D03*
%TO.P,MX37,1*%
%TO.N,COL-6*%
X100965000Y-123666250D03*
%TD*%
%TO.P,MX47,2*%
%TO.N,Net-(D46-Pad2)*%
X145415000Y-121126250D03*
%TO.P,MX47,1*%
%TO.N,COL-8*%
X139065000Y-123666250D03*
%TD*%
%TO.P,MX89,2*%
%TO.N,Net-(D87-Pad2)*%
X316865000Y-78263750D03*
%TO.P,MX89,1*%
%TO.N,COL-17*%
X310515000Y-80803750D03*
%TD*%
%TO.P,MX87,2*%
%TO.N,Net-(D85-Pad2)*%
X297815000Y-159226250D03*
%TO.P,MX87,1*%
%TO.N,COL-16*%
X291465000Y-161766250D03*
%TD*%
%TO.P,MX100,2*%
%TO.N,Net-(D98-Pad2)*%
X354965000Y-78263750D03*
%TO.P,MX100,1*%
%TO.N,COL-19*%
X348615000Y-80803750D03*
%TD*%
%TO.P,MX94,2*%
%TO.N,Net-(D92-Pad2)*%
X335915000Y-78263750D03*
%TO.P,MX94,1*%
%TO.N,COL-18*%
X329565000Y-80803750D03*
%TD*%
%TO.P,MX86,2*%
%TO.N,Net-(D84-Pad2)*%
X297815000Y-140176250D03*
%TO.P,MX86,1*%
%TO.N,COL-16*%
X291465000Y-142716250D03*
%TD*%
%TO.P,MX101,2*%
%TO.N,Net-(D99-Pad2)*%
X354965000Y-102076250D03*
%TO.P,MX101,1*%
%TO.N,COL-19*%
X348615000Y-104616250D03*
%TD*%
%TO.P,MX97,2*%
%TO.N,Net-(D95-Pad2)*%
X335915000Y-140176250D03*
%TO.P,MX97,1*%
%TO.N,COL-18*%
X329565000Y-142716250D03*
%TD*%
%TO.P,MX99,2*%
%TO.N,Net-(D97-Pad2)*%
X335915000Y-178276250D03*
%TO.P,MX99,1*%
%TO.N,COL-18*%
X329565000Y-180816250D03*
%TD*%
%TO.P,MX93,2*%
%TO.N,Net-(D91-Pad2)*%
X316865000Y-159226250D03*
%TO.P,MX93,1*%
%TO.N,COL-17*%
X310515000Y-161766250D03*
%TD*%
%TO.P,MX98,2*%
%TO.N,Net-(D96-Pad2)*%
X335915000Y-159226250D03*
%TO.P,MX98,1*%
%TO.N,COL-18*%
X329565000Y-161766250D03*
%TD*%
%TO.P,MX92,2*%
%TO.N,Net-(D90-Pad2)*%
X316865000Y-140176250D03*
%TO.P,MX92,1*%
%TO.N,COL-17*%
X310515000Y-142716250D03*
%TD*%
%TO.P,MX96,2*%
%TO.N,Net-(D94-Pad2)*%
X335915000Y-121126250D03*
%TO.P,MX96,1*%
%TO.N,COL-18*%
X329565000Y-123666250D03*
%TD*%
%TO.P,MX90,2*%
%TO.N,Net-(D88-Pad2)*%
X316865000Y-102076250D03*
%TO.P,MX90,1*%
%TO.N,COL-17*%
X310515000Y-104616250D03*
%TD*%
%TO.P,MX91,2*%
%TO.N,Net-(D89-Pad2)*%
X316865000Y-121126250D03*
%TO.P,MX91,1*%
%TO.N,COL-17*%
X310515000Y-123666250D03*
%TD*%
%TO.P,MX72,2*%
%TO.N,Net-(D71-Pad2)*%
X245427500Y-121126250D03*
%TO.P,MX72,1*%
%TO.N,COL-13*%
X239077500Y-123666250D03*
%TD*%
%TO.P,MX4,2*%
%TO.N,Net-(D4-Pad2)*%
X-14128750Y-140176250D03*
%TO.P,MX4,1*%
%TO.N,COL-0*%
X-20478750Y-142716250D03*
%TD*%
%TO.P,MX60,2*%
%TO.N,Net-(D59-Pad2)*%
X197802500Y-159226250D03*
%TO.P,MX60,1*%
%TO.N,COL-10*%
X191452500Y-161766250D03*
%TD*%
%TO.P,MX51,2*%
%TO.N,Net-(D50-Pad2)*%
X154940000Y-102076250D03*
%TO.P,MX51,1*%
%TO.N,COL-9*%
X148590000Y-104616250D03*
%TD*%
%TO.P,MX50,2*%
%TO.N,Net-(D49-Pad2)*%
X169227500Y-78263750D03*
%TO.P,MX50,1*%
%TO.N,COL-9*%
X162877500Y-80803750D03*
%TD*%
%TO.P,MX59,2*%
%TO.N,Net-(D58-Pad2)*%
X188277500Y-140176250D03*
%TO.P,MX59,1*%
%TO.N,COL-10*%
X181927500Y-142716250D03*
%TD*%
%TO.P,MX57,2*%
%TO.N,Net-(D56-Pad2)*%
X173990000Y-102076250D03*
%TO.P,MX57,1*%
%TO.N,COL-10*%
X167640000Y-104616250D03*
%TD*%
%TO.P,MX49,2*%
%TO.N,Net-(D48-Pad2)*%
X159702500Y-159226250D03*
%TO.P,MX49,1*%
%TO.N,COL-8*%
X153352500Y-161766250D03*
%TD*%
%TO.P,MX66,2*%
%TO.N,Net-(D65-Pad2)*%
X207327500Y-178276250D03*
%TO.P,MX66,1*%
%TO.N,COL-11*%
X200977500Y-180816250D03*
%TD*%
%TO.P,MX55,2*%
%TO.N,Net-(D54-Pad2)*%
X178752500Y-178276250D03*
%TO.P,MX55,1*%
%TO.N,COL-9*%
X172402500Y-180816250D03*
%TD*%
%TO.P,MX63,2*%
%TO.N,Net-(D62-Pad2)*%
X202565000Y-121126250D03*
%TO.P,MX63,1*%
%TO.N,COL-11*%
X196215000Y-123666250D03*
%TD*%
%TO.P,MX58,2*%
%TO.N,Net-(D57-Pad2)*%
X183515000Y-121126250D03*
%TO.P,MX58,1*%
%TO.N,COL-10*%
X177165000Y-123666250D03*
%TD*%
%TO.P,MX64,2*%
%TO.N,Net-(D63-Pad2)*%
X207327500Y-140176250D03*
%TO.P,MX64,1*%
%TO.N,COL-11*%
X200977500Y-142716250D03*
%TD*%
%TO.P,MX54,2*%
%TO.N,Net-(D53-Pad2)*%
X178752500Y-159226250D03*
%TO.P,MX54,1*%
%TO.N,COL-9*%
X172402500Y-161766250D03*
%TD*%
%TO.P,MX65,2*%
%TO.N,Net-(D64-Pad2)*%
X223996250Y-159226250D03*
%TO.P,MX65,1*%
%TO.N,COL-11*%
X217646250Y-161766250D03*
%TD*%
%TO.P,MX56,2*%
%TO.N,Net-(D55-Pad2)*%
X188277500Y-78263750D03*
%TO.P,MX56,1*%
%TO.N,COL-10*%
X181927500Y-80803750D03*
%TD*%
%TO.P,MX53,2*%
%TO.N,Net-(D52-Pad2)*%
X169227500Y-140176250D03*
%TO.P,MX53,1*%
%TO.N,COL-9*%
X162877500Y-142716250D03*
%TD*%
%TO.P,MX61,2*%
%TO.N,Net-(D60-Pad2)*%
X207327500Y-78263750D03*
%TO.P,MX61,1*%
%TO.N,COL-11*%
X200977500Y-80803750D03*
%TD*%
%TO.P,MX62,2*%
%TO.N,Net-(D61-Pad2)*%
X193040000Y-102076250D03*
%TO.P,MX62,1*%
%TO.N,COL-11*%
X186690000Y-104616250D03*
%TD*%
%TO.P,MX52,2*%
%TO.N,Net-(D51-Pad2)*%
X164465000Y-121126250D03*
%TO.P,MX52,1*%
%TO.N,COL-9*%
X158115000Y-123666250D03*
%TD*%
%TO.P,MX85,2*%
%TO.N,Net-(D83-Pad2)*%
X297815000Y-121126250D03*
%TO.P,MX85,1*%
%TO.N,COL-16*%
X291465000Y-123666250D03*
%TD*%
%TO.P,MX81,2*%
%TO.N,Net-(D79-Pad2)*%
X274002500Y-121126250D03*
%TO.P,MX81,1*%
%TO.N,COL-15*%
X267652500Y-123666250D03*
%TD*%
%TO.P,MX76,2*%
%TO.N,Net-(D75-Pad2)*%
X250190000Y-78263750D03*
%TO.P,MX76,1*%
%TO.N,COL-14*%
X243840000Y-80803750D03*
%TD*%
%TO.P,MX82,2*%
%TO.N,Net-(D80-Pad2)*%
X274002500Y-140176250D03*
%TO.P,MX82,1*%
%TO.N,COL-15*%
X267652500Y-142716250D03*
%TD*%
%TO.P,MX69,2*%
%TO.N,Net-(D68-Pad2)*%
X221615000Y-121126250D03*
%TO.P,MX69,1*%
%TO.N,COL-12*%
X215265000Y-123666250D03*
%TD*%
%TO.P,MX83,2*%
%TO.N,Net-(D81-Pad2)*%
X297815000Y-78263750D03*
%TO.P,MX83,1*%
%TO.N,COL-16*%
X291465000Y-80803750D03*
%TD*%
%TO.P,MX78,2*%
%TO.N,Net-(D76-Pad2)*%
X252571250Y-102076250D03*
%TO.P,MX78,1*%
%TO.N,COL-14*%
X246221250Y-104616250D03*
%TD*%
%TO.P,MX80,2*%
%TO.N,Net-(D78-Pad2)*%
X274002500Y-102076250D03*
%TO.P,MX80,1*%
%TO.N,COL-15*%
X267652500Y-104616250D03*
%TD*%
%TO.P,MX84,2*%
%TO.N,Net-(D82-Pad2)*%
X297815000Y-102076250D03*
%TO.P,MX84,1*%
%TO.N,COL-16*%
X291465000Y-104616250D03*
%TD*%
%TO.P,MX77,2*%
%TO.N,Net-(D76-Pad2)*%
X243046250Y-102076250D03*
%TO.P,MX77,1*%
%TO.N,COL-14*%
X236696250Y-104616250D03*
%TD*%
%TO.P,MX73,2*%
%TO.N,Net-(D72-Pad2)*%
X238283750Y-140176250D03*
%TO.P,MX73,1*%
%TO.N,COL-13*%
X231933750Y-142716250D03*
%TD*%
%TO.P,MX74,2*%
%TO.N,Net-(D73-Pad2)*%
X254952500Y-163988750D03*
%TO.P,MX74,1*%
%TO.N,COL-13*%
X248602500Y-166528750D03*
%TD*%
%TO.P,MX71,2*%
%TO.N,Net-(D70-Pad2)*%
X233521250Y-102076250D03*
%TO.P,MX71,1*%
%TO.N,COL-13*%
X227171250Y-104616250D03*
%TD*%
%TO.P,MX70,2*%
%TO.N,Net-(D69-Pad2)*%
X235902500Y-183038750D03*
%TO.P,MX70,1*%
%TO.N,COL-12*%
X229552500Y-185578750D03*
%TD*%
%TO.P,MX68,2*%
%TO.N,Net-(D67-Pad2)*%
X212090000Y-102076250D03*
%TO.P,MX68,1*%
%TO.N,COL-12*%
X205740000Y-104616250D03*
%TD*%
%TO.P,MX75,2*%
%TO.N,Net-(D74-Pad2)*%
X254952500Y-183038750D03*
%TO.P,MX75,1*%
%TO.N,COL-13*%
X248602500Y-185578750D03*
%TD*%
%TO.P,MX67,2*%
%TO.N,Net-(D66-Pad2)*%
X226377500Y-78263750D03*
%TO.P,MX67,1*%
%TO.N,COL-12*%
X220027500Y-80803750D03*
%TD*%
%TO.P,MX10,2*%
%TO.N,Net-(D9-Pad2)*%
X12065000Y-121126250D03*
%TO.P,MX10,1*%
%TO.N,COL-1*%
X5715000Y-123666250D03*
%TD*%
%TO.P,MX3,2*%
%TO.N,Net-(D3-Pad2)*%
X-14128750Y-121126250D03*
%TO.P,MX3,1*%
%TO.N,COL-0*%
X-20478750Y-123666250D03*
%TD*%
%TO.P,MX1,2*%
%TO.N,Net-(D1-Pad2)*%
X-16510000Y-78263750D03*
%TO.P,MX1,1*%
%TO.N,COL-0*%
X-22860000Y-80803750D03*
%TD*%
%TO.P,MX11,2*%
%TO.N,Net-(D10-Pad2)*%
X16827500Y-140176250D03*
%TO.P,MX11,1*%
%TO.N,COL-1*%
X10477500Y-142716250D03*
%TD*%
%TO.P,MX2,2*%
%TO.N,Net-(D2-Pad2)*%
X-16510000Y-102076250D03*
%TO.P,MX2,1*%
%TO.N,COL-0*%
X-22860000Y-104616250D03*
%TD*%
%TO.P,MX6,2*%
%TO.N,Net-(D6-Pad2)*%
X-11747500Y-178276250D03*
%TO.P,MX6,1*%
%TO.N,COL-0*%
X-18097500Y-180816250D03*
%TD*%
%TO.P,MX12,2*%
%TO.N,Net-(D11-Pad2)*%
X26352500Y-159226250D03*
%TO.P,MX12,1*%
%TO.N,COL-1*%
X20002500Y-161766250D03*
%TD*%
%TO.P,MX5,2*%
%TO.N,Net-(D5-Pad2)*%
X-4603750Y-159226250D03*
%TO.P,MX5,1*%
%TO.N,COL-0*%
X-10953750Y-161766250D03*
%TD*%
%TO.P,MX8,2*%
%TO.N,Net-(D7-Pad2)*%
X7302500Y-78263750D03*
%TO.P,MX8,1*%
%TO.N,COL-1*%
X952500Y-80803750D03*
%TD*%
%TO.P,MX9,2*%
%TO.N,Net-(D8-Pad2)*%
X2540000Y-102076250D03*
%TO.P,MX9,1*%
%TO.N,COL-1*%
X-3810000Y-104616250D03*
%TD*%
%TO.P,MX7,2*%
%TO.N,Net-(D4-Pad2)*%
X-9366250Y-140176250D03*
%TO.P,MX7,1*%
%TO.N,COL-0*%
X-15716250Y-142716250D03*
%TD*%
%TO.P,MX26,2*%
%TO.N,Net-(D25-Pad2)*%
X69215000Y-121126250D03*
%TO.P,MX26,1*%
%TO.N,COL-4*%
X62865000Y-123666250D03*
%TD*%
%TO.P,MX16,2*%
%TO.N,Net-(D15-Pad2)*%
X35877500Y-140176250D03*
%TO.P,MX16,1*%
%TO.N,COL-2*%
X29527500Y-142716250D03*
%TD*%
%TO.P,MX15,2*%
%TO.N,Net-(D14-Pad2)*%
X31115000Y-121126250D03*
%TO.P,MX15,1*%
%TO.N,COL-2*%
X24765000Y-123666250D03*
%TD*%
%TO.P,MX14,2*%
%TO.N,Net-(D13-Pad2)*%
X21590000Y-102076250D03*
%TO.P,MX14,1*%
%TO.N,COL-2*%
X15240000Y-104616250D03*
%TD*%
%TO.P,MX13,2*%
%TO.N,Net-(D12-Pad2)*%
X26352500Y-78263750D03*
%TO.P,MX13,1*%
%TO.N,COL-2*%
X20002500Y-80803750D03*
%TD*%
%TO.P,MX23,2*%
%TO.N,Net-(D22-Pad2)*%
X64452500Y-159226250D03*
%TO.P,MX23,1*%
%TO.N,COL-3*%
X58102500Y-161766250D03*
%TD*%
%TO.P,MX21,2*%
%TO.N,Net-(D20-Pad2)*%
X50165000Y-121126250D03*
%TO.P,MX21,1*%
%TO.N,COL-3*%
X43815000Y-123666250D03*
%TD*%
%TO.P,MX29,2*%
%TO.N,Net-(D28-Pad2)*%
X88265000Y-78263750D03*
%TO.P,MX29,1*%
%TO.N,COL-5*%
X81915000Y-80803750D03*
%TD*%
%TO.P,MX24,2*%
%TO.N,Net-(D23-Pad2)*%
X64452500Y-78263750D03*
%TO.P,MX24,1*%
%TO.N,COL-4*%
X58102500Y-80803750D03*
%TD*%
%TO.P,MX17,2*%
%TO.N,Net-(D16-Pad2)*%
X45402500Y-159226250D03*
%TO.P,MX17,1*%
%TO.N,COL-2*%
X39052500Y-161766250D03*
%TD*%
%TO.P,MX20,2*%
%TO.N,Net-(D19-Pad2)*%
X40640000Y-102076250D03*
%TO.P,MX20,1*%
%TO.N,COL-3*%
X34290000Y-104616250D03*
%TD*%
%TO.P,MX28,2*%
%TO.N,Net-(D27-Pad2)*%
X83502500Y-159226250D03*
%TO.P,MX28,1*%
%TO.N,COL-4*%
X77152500Y-161766250D03*
%TD*%
%TO.P,MX25,2*%
%TO.N,Net-(D24-Pad2)*%
X59690000Y-102076250D03*
%TO.P,MX25,1*%
%TO.N,COL-4*%
X53340000Y-104616250D03*
%TD*%
%TO.P,MX22,2*%
%TO.N,Net-(D21-Pad2)*%
X54927500Y-140176250D03*
%TO.P,MX22,1*%
%TO.N,COL-3*%
X48577500Y-142716250D03*
%TD*%
%TO.P,MX30,2*%
%TO.N,Net-(D29-Pad2)*%
X78740000Y-102076250D03*
%TO.P,MX30,1*%
%TO.N,COL-5*%
X72390000Y-104616250D03*
%TD*%
%TO.P,MX19,2*%
%TO.N,Net-(D18-Pad2)*%
X45402500Y-78263750D03*
%TO.P,MX19,1*%
%TO.N,COL-3*%
X39052500Y-80803750D03*
%TD*%
%TO.P,MX18,2*%
%TO.N,Net-(D17-Pad2)*%
X16827500Y-178276250D03*
%TO.P,MX18,1*%
%TO.N,COL-1*%
X10477500Y-180816250D03*
%TD*%
%TO.P,MX27,2*%
%TO.N,Net-(D26-Pad2)*%
X73977500Y-140176250D03*
%TO.P,MX27,1*%
%TO.N,COL-4*%
X67627500Y-142716250D03*
%TD*%
D14*
%TO.P,J1,6*%
%TO.N,GND*%
X2190000Y-182000000D03*
%TO.P,J1,4*%
%TO.N,MOSI*%
X-350000Y-182000000D03*
%TO.P,J1,2*%
%TO.N,+5V*%
X-2890000Y-182000000D03*
D15*
%TO.P,J1,1*%
%TO.N,MISO*%
X-2890000Y-179460000D03*
D14*
%TO.P,J1,3*%
%TO.N,SCK*%
X-350000Y-179460000D03*
%TO.P,J1,5*%
%TO.N,RESET*%
X2190000Y-179460000D03*
%TD*%
D16*
%TO.N,GND*%
X280225000Y-77775000D03*
X280200000Y-92900000D03*
X85800000Y-92900000D03*
X88225000Y-179250000D03*
X88800000Y-170500000D03*
X76000000Y-169200000D03*
X69600000Y-152400000D03*
X32700000Y-181200000D03*
X35875000Y-186300000D03*
X41500000Y-186300000D03*
X48475000Y-185500000D03*
%TO.N,+5V*%
X281475000Y-84100000D03*
X281075000Y-93475000D03*
X86725000Y-93750000D03*
X89600000Y-178375000D03*
X70575000Y-193275000D03*
X60724999Y-188450001D03*
X76900000Y-194125000D03*
X83400001Y-189600001D03*
X103975000Y-186900000D03*
X99700000Y-175800000D03*
%TO.N,ROW-0*%
X28443750Y-89756250D03*
X59400000Y-178100000D03*
%TO.N,ROW-1*%
X58500000Y-178600000D03*
X29572249Y-98272249D03*
%TO.N,ROW-2*%
X57900000Y-179400000D03*
X37560000Y-117440000D03*
%TO.N,ROW-3*%
X42072249Y-136372249D03*
X57192885Y-180107115D03*
%TO.N,ROW-4*%
X56400000Y-180724970D03*
X51563069Y-155436931D03*
%TO.N,ROW-5*%
X55400000Y-181200000D03*
X50800000Y-168400000D03*
X32400000Y-168400000D03*
X26037500Y-174562500D03*
%TO.N,RESET*%
X3875000Y-180700000D03*
X5600000Y-188325000D03*
%TO.N,MOSI*%
X2400000Y-193725000D03*
%TO.N,SCK*%
X1325000Y-194500000D03*
%TO.N,MISO*%
X-5000000Y-187200000D03*
%TO.N,COL-0*%
X-13700000Y-173300000D03*
%TO.N,COL-1*%
X22000000Y-169600000D03*
%TO.N,COL-2*%
X40900000Y-171800000D03*
%TO.N,COL-3*%
X59700000Y-170800000D03*
%TO.N,COL-4*%
X81800000Y-177100000D03*
X84400000Y-161800000D03*
%TO.N,COL-5*%
X77500000Y-118400000D03*
X93100000Y-158000000D03*
X82300000Y-178500000D03*
X86700000Y-181000000D03*
%TO.N,COL-6*%
X95500000Y-100500000D03*
X115100000Y-184800000D03*
%TO.N,COL-7*%
X134300000Y-185900000D03*
%TO.N,COL-8*%
X98900000Y-174100000D03*
X106900000Y-154489998D03*
X145943125Y-154356875D03*
%TO.N,COL-9*%
X98200000Y-173200000D03*
X105000000Y-154300000D03*
X164568125Y-153931875D03*
%TO.N,COL-10*%
X104200000Y-153600000D03*
X183243125Y-153556875D03*
X97027771Y-172724990D03*
%TO.N,COL-11*%
X76700000Y-173300000D03*
X80200000Y-152600000D03*
X207990000Y-152110000D03*
%TO.N,COL-12*%
X75500000Y-135500000D03*
X215265000Y-135465000D03*
X75940734Y-172649201D03*
%TO.N,COL-13*%
X75000000Y-173100000D03*
X66200000Y-135300000D03*
X239077500Y-135077500D03*
%TO.N,COL-14*%
X73500000Y-173500000D03*
X64900000Y-135300000D03*
X257955626Y-134344374D03*
%TO.N,COL-15*%
X63800000Y-135100000D03*
X267652500Y-133947500D03*
X71887508Y-171483539D03*
%TO.N,COL-16*%
X63600000Y-134000000D03*
X291465000Y-133535000D03*
X71651624Y-172455333D03*
%TO.N,COL-17*%
X310515000Y-133115000D03*
X62751992Y-133469995D03*
X70437177Y-172235766D03*
%TO.N,COL-18*%
X62000000Y-132800000D03*
X329565000Y-132535000D03*
X69452217Y-172408619D03*
%TO.N,COL-19*%
X69200000Y-173400000D03*
X61200000Y-132200000D03*
%TO.N,Net-(RC1-Pad2)*%
X282950000Y-84575000D03*
X282925010Y-78000000D03*
%TO.N,D-*%
X282925000Y-89075000D03*
X281875000Y-94125000D03*
X87325000Y-94550000D03*
X75887490Y-192150000D03*
%TO.N,D+*%
X285025000Y-89075000D03*
X282500000Y-95000000D03*
X88150000Y-95150000D03*
X75175000Y-192950000D03*
%TO.N,Net-(RC2-Pad1)*%
X284225000Y-77850000D03*
X284700000Y-84500000D03*
%TO.N,Net-(RC6-Pad2)*%
X278000000Y-78875000D03*
X272972052Y-89975010D03*
%TO.N,Net-(RC7-Pad2)*%
X276925000Y-90025000D03*
X278725010Y-79675000D03*
%TD*%
D17*
%TO.N,GND*%
X280225000Y-77775000D02*
X280225000Y-92875000D01*
X280225000Y-92875000D02*
X280200000Y-92900000D01*
X88800000Y-178675000D02*
X88225000Y-179250000D01*
X88800000Y-170500000D02*
X88800000Y-178675000D01*
X85800000Y-92900000D02*
X85800000Y-111974998D01*
X88800000Y-161800002D02*
X88800000Y-170500000D01*
X85800000Y-111974998D02*
X77674989Y-120100009D01*
X81050000Y-154050000D02*
X88800000Y-161800002D01*
X77674989Y-120100009D02*
X77674989Y-135322437D01*
X77674989Y-135322437D02*
X81050000Y-138697448D01*
D18*
X76000000Y-169200000D02*
X72800000Y-166000000D01*
X72800000Y-166000000D02*
X72800000Y-155600000D01*
X72800000Y-155600000D02*
X69600000Y-152400000D01*
D17*
X81050000Y-138697448D02*
X81050000Y-154050000D01*
D18*
X32700000Y-181200000D02*
X35875000Y-184375000D01*
X35875000Y-184375000D02*
X35875000Y-186300000D01*
X41500000Y-186300000D02*
X47675000Y-186300000D01*
X47675000Y-186300000D02*
X48475000Y-185500000D01*
D17*
%TO.N,+5V*%
X281475000Y-84100000D02*
X281475000Y-93075000D01*
X281475000Y-93075000D02*
X281075000Y-93475000D01*
X70575000Y-193275000D02*
X63075000Y-193275000D01*
X63075000Y-193275000D02*
X60724999Y-190924999D01*
X60724999Y-190924999D02*
X60724999Y-188450001D01*
X70575000Y-193275000D02*
X74125000Y-193275000D01*
X74125000Y-193275000D02*
X74975000Y-194125000D01*
X78875002Y-194125000D02*
X83400001Y-189600001D01*
X76900000Y-194125000D02*
X78875002Y-194125000D01*
X74975000Y-194125000D02*
X76900000Y-194125000D01*
X103975000Y-186900000D02*
X103975000Y-180025000D01*
X103975000Y-180025000D02*
X99750000Y-175800000D01*
X99750000Y-175800000D02*
X99700000Y-175800000D01*
X78250000Y-120338186D02*
X78250000Y-135084260D01*
X86400000Y-112188186D02*
X78250000Y-120338186D01*
X78250000Y-135084260D02*
X81631593Y-138465853D01*
X89600000Y-161786814D02*
X89600000Y-178375000D01*
X86725000Y-93750000D02*
X86400000Y-94075000D01*
X86400000Y-94075000D02*
X86400000Y-112188186D01*
X81631593Y-138465853D02*
X81631593Y-153818407D01*
X81631593Y-153818407D02*
X89600000Y-161786814D01*
D19*
%TO.N,ROW-0*%
X39300000Y-116900000D02*
X39300000Y-126522167D01*
X39300000Y-126522167D02*
X44200022Y-131422189D01*
X44200022Y-131422189D02*
X44200022Y-144500022D01*
X55100000Y-173800000D02*
X59400000Y-178100000D01*
X44200022Y-144500022D02*
X55100000Y-155400000D01*
X30400000Y-108000000D02*
X39300000Y-116900000D01*
X30400000Y-91712500D02*
X30400000Y-108000000D01*
X28443750Y-89756250D02*
X30400000Y-91712500D01*
X55100000Y-155400000D02*
X55100000Y-173800000D01*
%TO.N,ROW-1*%
X58500000Y-178600000D02*
X54050011Y-174150011D01*
X54050011Y-174150011D02*
X54050011Y-155172178D01*
X43650011Y-144772178D02*
X43650011Y-131650011D01*
X38600000Y-116977832D02*
X29572249Y-107950081D01*
X54050011Y-155172178D02*
X43650011Y-144772178D01*
X43650011Y-131650011D02*
X38600000Y-126600000D01*
X29572249Y-107950081D02*
X29572249Y-98272249D01*
X38600000Y-126600000D02*
X38600000Y-116977832D01*
%TO.N,ROW-2*%
X53500000Y-175000000D02*
X53500000Y-155455666D01*
X57900000Y-179400000D02*
X53500000Y-175000000D01*
X53500000Y-155455666D02*
X53500000Y-155400000D01*
X53500000Y-155400000D02*
X52600000Y-154500000D01*
X52600000Y-154500000D02*
X46700000Y-148600000D01*
X43100000Y-145000000D02*
X43100000Y-144999997D01*
X46700000Y-148600000D02*
X43100000Y-145000000D01*
X37560000Y-126660000D02*
X37560000Y-117440000D01*
X43100000Y-132200000D02*
X37560000Y-126660000D01*
X43100000Y-145000000D02*
X43100000Y-132200000D01*
%TO.N,ROW-3*%
X42549990Y-136849990D02*
X42072249Y-136372249D01*
X42549990Y-145227821D02*
X42549990Y-136849990D01*
X57192885Y-180107115D02*
X52500000Y-175414230D01*
X52500000Y-175414230D02*
X52500000Y-155200000D01*
X50600000Y-153300000D02*
X50600000Y-153277830D01*
X52500000Y-155200000D02*
X50600000Y-153300000D01*
X50600000Y-153277830D02*
X42549990Y-145227821D01*
%TO.N,ROW-4*%
X51577751Y-175902721D02*
X51577751Y-155451613D01*
X56400000Y-180724970D02*
X51577751Y-175902721D01*
X51577751Y-155451613D02*
X51563069Y-155436931D01*
%TO.N,ROW-5*%
X55400000Y-181200000D02*
X50800000Y-176600000D01*
X50800000Y-176600000D02*
X50800000Y-168400000D01*
X32400000Y-168400000D02*
X26237500Y-174562500D01*
X26237500Y-174562500D02*
X26037500Y-174562500D01*
D20*
%TO.N,RESET*%
X3875000Y-180700000D02*
X5600000Y-182425000D01*
X5600000Y-182425000D02*
X5600000Y-188325000D01*
D19*
%TO.N,MOSI*%
X0Y-182350000D02*
X-350000Y-182000000D01*
X2400000Y-193725000D02*
X0Y-191325000D01*
X0Y-191325000D02*
X0Y-182350000D01*
%TO.N,SCK*%
X-1752999Y-180862999D02*
X-350000Y-179460000D01*
X-1752999Y-190647001D02*
X-1752999Y-180862999D01*
X-1300000Y-191100000D02*
X-1752999Y-190647001D01*
X-1300000Y-191875000D02*
X-1300000Y-191100000D01*
X1325000Y-194500000D02*
X-1300000Y-191875000D01*
%TO.N,MISO*%
X-5000000Y-187200000D02*
X-5000000Y-180000000D01*
X-3430000Y-180000000D02*
X-2890000Y-179460000D01*
X-5000000Y-180000000D02*
X-3430000Y-180000000D01*
%TO.N,COL-0*%
X-10973749Y-161786249D02*
X-10953750Y-161766250D01*
X-10973749Y-170573749D02*
X-10973749Y-161786249D01*
X-13700000Y-173300000D02*
X-10973749Y-170573749D01*
X-13700000Y-176418750D02*
X-18097500Y-180816250D01*
X-13700000Y-173300000D02*
X-13700000Y-176418750D01*
X-20478750Y-152241250D02*
X-20478750Y-142716250D01*
X-10953750Y-161766250D02*
X-20478750Y-152241250D01*
X-20478750Y-142716250D02*
X-20478750Y-123666250D01*
X-21603749Y-122541251D02*
X-21603749Y-105872501D01*
X-21603749Y-105872501D02*
X-22860000Y-104616250D01*
X-20478750Y-123666250D02*
X-21603749Y-122541251D01*
X-22860000Y-104616250D02*
X-22860000Y-80803750D01*
%TO.N,COL-1*%
X20002500Y-167602500D02*
X20002500Y-161766250D01*
X22000000Y-169600000D02*
X20002500Y-167602500D01*
X10783750Y-180816250D02*
X10477500Y-180816250D01*
X22000000Y-169600000D02*
X10783750Y-180816250D01*
X20002500Y-161766250D02*
X11200000Y-152963750D01*
X11200000Y-143438750D02*
X10477500Y-142716250D01*
X11200000Y-152963750D02*
X11200000Y-143438750D01*
X10477500Y-142716250D02*
X10477500Y-139277500D01*
X10477500Y-139277500D02*
X6400000Y-135200000D01*
X6400000Y-124351250D02*
X5715000Y-123666250D01*
X6400000Y-135200000D02*
X6400000Y-124351250D01*
X5715000Y-123666250D02*
X-3300000Y-114651250D01*
X-3300000Y-105126250D02*
X-3810000Y-104616250D01*
X-3300000Y-114651250D02*
X-3300000Y-105126250D01*
X-3810000Y-104616250D02*
X-3810000Y-92210000D01*
X-3810000Y-92210000D02*
X1700000Y-86700000D01*
X1700000Y-81551250D02*
X952500Y-80803750D01*
X1700000Y-86700000D02*
X1700000Y-81551250D01*
%TO.N,COL-2*%
X20002500Y-80803750D02*
X20002500Y-82002500D01*
X20002500Y-82002500D02*
X20600000Y-82600000D01*
X20600000Y-99256250D02*
X15240000Y-104616250D01*
X20600000Y-82600000D02*
X20600000Y-99256250D01*
X15240000Y-104616250D02*
X15240000Y-105340000D01*
X15240000Y-105340000D02*
X16100000Y-106200000D01*
X16100000Y-115001250D02*
X24765000Y-123666250D01*
X16100000Y-106200000D02*
X16100000Y-115001250D01*
X24765000Y-123666250D02*
X24765000Y-125365000D01*
X24765000Y-125365000D02*
X25400000Y-126000000D01*
X25400000Y-140548748D02*
X27567502Y-142716250D01*
X27567502Y-142716250D02*
X29527500Y-142716250D01*
X25400000Y-126000000D02*
X25400000Y-140548748D01*
X29527500Y-142716250D02*
X29527500Y-143927500D01*
X29527500Y-143927500D02*
X30100000Y-144500000D01*
X30100000Y-144500000D02*
X30100000Y-153000000D01*
X38866250Y-161766250D02*
X39052500Y-161766250D01*
X30100000Y-153000000D02*
X38866250Y-161766250D01*
X39052500Y-169952500D02*
X39052500Y-161766250D01*
X40900000Y-171800000D02*
X39052500Y-169952500D01*
%TO.N,COL-3*%
X59700000Y-170800000D02*
X58900000Y-170000000D01*
X58900000Y-162563750D02*
X58102500Y-161766250D01*
X58900000Y-170000000D02*
X58900000Y-162563750D01*
X58102500Y-161766250D02*
X58102500Y-156702500D01*
X48577500Y-147177500D02*
X48577500Y-142716250D01*
X58102500Y-156702500D02*
X48577500Y-147177500D01*
X45256099Y-139394849D02*
X45256099Y-128356099D01*
X48577500Y-142716250D02*
X45256099Y-139394849D01*
X43815000Y-126915000D02*
X43815000Y-123666250D01*
X45256099Y-128356099D02*
X43815000Y-126915000D01*
X34290000Y-106852224D02*
X34290000Y-104616250D01*
X43815000Y-116377224D02*
X34290000Y-106852224D01*
X43815000Y-123666250D02*
X43815000Y-116377224D01*
X39032501Y-80823749D02*
X39052500Y-80803750D01*
X39032501Y-99873749D02*
X39032501Y-80823749D01*
X34290000Y-104616250D02*
X39032501Y-99873749D01*
%TO.N,COL-4*%
X77152500Y-161766250D02*
X77152500Y-157552500D01*
X77152500Y-157552500D02*
X68400000Y-148800000D01*
X68400000Y-143488750D02*
X67627500Y-142716250D01*
X68400000Y-148800000D02*
X68400000Y-143488750D01*
X67627500Y-142716250D02*
X67627500Y-134727500D01*
X67627500Y-134727500D02*
X63600000Y-130700000D01*
X63600000Y-124401250D02*
X62865000Y-123666250D01*
X63600000Y-130700000D02*
X63600000Y-124401250D01*
X62865000Y-123666250D02*
X62865000Y-117665000D01*
X62865000Y-117665000D02*
X54200000Y-109000000D01*
X54200000Y-105476250D02*
X53340000Y-104616250D01*
X54200000Y-109000000D02*
X54200000Y-105476250D01*
X58500000Y-81201250D02*
X58102500Y-80803750D01*
X58102500Y-99853750D02*
X58102500Y-80803750D01*
X53340000Y-104616250D02*
X58102500Y-99853750D01*
X81800000Y-177100000D02*
X84400000Y-174500000D01*
X84400000Y-174500000D02*
X84400000Y-161800000D01*
%TO.N,COL-5*%
X72390000Y-104616250D02*
X72390000Y-97410000D01*
X81895001Y-87904999D02*
X81895001Y-80823749D01*
X81895001Y-80823749D02*
X81915000Y-80803750D01*
X72390000Y-97410000D02*
X81895001Y-87904999D01*
X72390000Y-104616250D02*
X72390000Y-113290000D01*
X72390000Y-113290000D02*
X77500000Y-118400000D01*
X81915000Y-137953750D02*
X86677500Y-142716250D01*
X81915000Y-123666250D02*
X81915000Y-137953750D01*
X86677500Y-142716250D02*
X86677500Y-151577500D01*
X86677500Y-151577500D02*
X93100000Y-158000000D01*
X96202500Y-176053750D02*
X91440000Y-180816250D01*
X96202500Y-161766250D02*
X96202500Y-176053750D01*
X82300000Y-178500000D02*
X84800000Y-181000000D01*
X84800000Y-181000000D02*
X86700000Y-181000000D01*
%TO.N,COL-6*%
X100965000Y-80803750D02*
X100965000Y-95035000D01*
X100965000Y-95035000D02*
X95500000Y-100500000D01*
X100965000Y-137953750D02*
X105727500Y-142716250D01*
X100965000Y-123666250D02*
X100965000Y-137953750D01*
X101580001Y-95650001D02*
X101580001Y-123051249D01*
X101580001Y-123051249D02*
X100965000Y-123666250D01*
X100965000Y-95035000D02*
X101580001Y-95650001D01*
X115252500Y-161695494D02*
X115252500Y-161766250D01*
X105727500Y-142716250D02*
X105727500Y-152170494D01*
X105727500Y-152170494D02*
X115252500Y-161695494D01*
X115252500Y-184647500D02*
X115100000Y-184800000D01*
X115252500Y-161766250D02*
X115252500Y-184647500D01*
%TO.N,COL-7*%
X120015000Y-95091250D02*
X110490000Y-104616250D01*
X120015000Y-80803750D02*
X120015000Y-95091250D01*
X110490000Y-114141250D02*
X120015000Y-123666250D01*
X110490000Y-104616250D02*
X110490000Y-114141250D01*
X120015000Y-137953750D02*
X124777500Y-142716250D01*
X120015000Y-123666250D02*
X120015000Y-137953750D01*
X134302500Y-154477224D02*
X134302500Y-161766250D01*
X124777500Y-144952224D02*
X134302500Y-154477224D01*
X124777500Y-142716250D02*
X124777500Y-144952224D01*
X134300000Y-161768750D02*
X134302500Y-161766250D01*
X134300000Y-185900000D02*
X134300000Y-161768750D01*
%TO.N,COL-8*%
X145268599Y-144157349D02*
X143827500Y-142716250D01*
X145268599Y-153682349D02*
X145268599Y-144157349D01*
X140506099Y-125107349D02*
X139065000Y-123666250D01*
X140506099Y-139394849D02*
X140506099Y-125107349D01*
X143827500Y-142716250D02*
X140506099Y-139394849D01*
X130981099Y-106057349D02*
X129540000Y-104616250D01*
X130981099Y-115582349D02*
X130981099Y-106057349D01*
X139065000Y-123666250D02*
X130981099Y-115582349D01*
X139065000Y-95091250D02*
X139065000Y-80803750D01*
X129540000Y-104616250D02*
X139065000Y-95091250D01*
X98900000Y-174100000D02*
X106900000Y-166100000D01*
X106900000Y-166100000D02*
X106900000Y-154489998D01*
X153352500Y-161766250D02*
X145943125Y-154356875D01*
X145943125Y-154356875D02*
X145268599Y-153682349D01*
%TO.N,COL-9*%
X162877500Y-90328750D02*
X148590000Y-104616250D01*
X162877500Y-80803750D02*
X162877500Y-90328750D01*
X148590000Y-114141250D02*
X158115000Y-123666250D01*
X148590000Y-104616250D02*
X148590000Y-114141250D01*
X158115000Y-137953750D02*
X162877500Y-142716250D01*
X158115000Y-123666250D02*
X158115000Y-137953750D01*
X162877500Y-142716250D02*
X162877500Y-152241250D01*
X172402500Y-161766250D02*
X172402500Y-180816250D01*
X98200000Y-173200000D02*
X103600000Y-167800000D01*
X103600000Y-167800000D02*
X103600000Y-162600000D01*
X103600000Y-162600000D02*
X104800000Y-161400000D01*
X104800000Y-161400000D02*
X105000000Y-161200000D01*
X105000000Y-161200000D02*
X105000000Y-154300000D01*
X162877500Y-152241250D02*
X164568125Y-153931875D01*
X164568125Y-153931875D02*
X172402500Y-161766250D01*
%TO.N,COL-10*%
X181927500Y-152241250D02*
X181927500Y-142716250D01*
X178606099Y-125107349D02*
X177165000Y-123666250D01*
X178606099Y-139394849D02*
X178606099Y-125107349D01*
X181927500Y-142716250D02*
X178606099Y-139394849D01*
X167640000Y-114141250D02*
X167640000Y-104616250D01*
X177165000Y-123666250D02*
X167640000Y-114141250D01*
X181927500Y-90328750D02*
X181927500Y-80803750D01*
X167640000Y-104616250D02*
X181927500Y-90328750D01*
X183243125Y-153556875D02*
X181927500Y-152241250D01*
X191452500Y-161766250D02*
X183243125Y-153556875D01*
X103000000Y-162400000D02*
X103000000Y-166752761D01*
X104200000Y-153600000D02*
X104200000Y-161200000D01*
X103000000Y-166752761D02*
X97027771Y-172724990D01*
X104200000Y-161200000D02*
X103000000Y-162400000D01*
%TO.N,COL-11*%
X200977500Y-80803750D02*
X200977500Y-88022500D01*
X186690000Y-102310000D02*
X186690000Y-104616250D01*
X200977500Y-88022500D02*
X186690000Y-102310000D01*
X186690000Y-114141250D02*
X196215000Y-123666250D01*
X186690000Y-104616250D02*
X186690000Y-114141250D01*
X196215000Y-137953750D02*
X200977500Y-142716250D01*
X196215000Y-123666250D02*
X196215000Y-137953750D01*
X200977500Y-142716250D02*
X200977500Y-145097500D01*
X217646250Y-165738490D02*
X217646250Y-161766250D01*
X202568490Y-180816250D02*
X217646250Y-165738490D01*
X200977500Y-180816250D02*
X202568490Y-180816250D01*
X76700000Y-173300000D02*
X83400000Y-166600000D01*
X83400000Y-166600000D02*
X83400000Y-163700000D01*
X83400000Y-161343752D02*
X80200000Y-158143752D01*
X83400000Y-163700000D02*
X83400000Y-161343752D01*
X80200000Y-158143752D02*
X80200000Y-152600000D01*
X200977500Y-145097500D02*
X207990000Y-152110000D01*
X207990000Y-152110000D02*
X217646250Y-161766250D01*
%TO.N,COL-12*%
X229552500Y-155720276D02*
X215265000Y-141432776D01*
X229552500Y-185578750D02*
X229552500Y-155720276D01*
X205720001Y-104636249D02*
X205740000Y-104616250D01*
X205720001Y-114121251D02*
X205720001Y-104636249D01*
X215265000Y-123666250D02*
X205720001Y-114121251D01*
X220027500Y-90328750D02*
X220027500Y-80803750D01*
X205740000Y-104616250D02*
X220027500Y-90328750D01*
X215265000Y-135465000D02*
X215265000Y-123666250D01*
X215265000Y-141432776D02*
X215265000Y-135465000D01*
X79000000Y-139000000D02*
X79000000Y-162300000D01*
X78000000Y-163300000D02*
X78000000Y-170589935D01*
X78000000Y-170589935D02*
X75940734Y-172649201D01*
X79000000Y-162300000D02*
X78000000Y-163300000D01*
X75500000Y-135500000D02*
X79000000Y-139000000D01*
%TO.N,COL-13*%
X239077500Y-122382776D02*
X239077500Y-123666250D01*
X227171250Y-110476526D02*
X239077500Y-122382776D01*
X227171250Y-104616250D02*
X227171250Y-110476526D01*
X239077500Y-135572500D02*
X231933750Y-142716250D01*
X231933750Y-149860000D02*
X248602500Y-166528750D01*
X231933750Y-142716250D02*
X231933750Y-149860000D01*
X248602500Y-166528750D02*
X248602500Y-185578750D01*
X74600001Y-172700001D02*
X74600001Y-170000001D01*
X75000000Y-173100000D02*
X74600001Y-172700001D01*
X74600001Y-170000001D02*
X71800000Y-167200000D01*
X71800000Y-167200000D02*
X71800000Y-158800000D01*
X71800000Y-158800000D02*
X65300000Y-152300000D01*
X65300000Y-152300000D02*
X65000000Y-152000000D01*
X65000000Y-152000000D02*
X64900000Y-151900000D01*
X64900000Y-151900000D02*
X64900000Y-139600000D01*
X64900000Y-139600000D02*
X64900000Y-136600000D01*
X64900000Y-136600000D02*
X66200000Y-135300000D01*
X239077500Y-123666250D02*
X239077500Y-135077500D01*
X239077500Y-135077500D02*
X239077500Y-135572500D01*
%TO.N,COL-14*%
X244964999Y-103359999D02*
X246221250Y-104616250D01*
X244964999Y-81928749D02*
X244964999Y-103359999D01*
X243840000Y-80803750D02*
X244964999Y-81928749D01*
X265132499Y-183058749D02*
X267652500Y-185578750D01*
X265132499Y-141521247D02*
X265132499Y-183058749D01*
X247346249Y-105741249D02*
X247346249Y-123734997D01*
X246221250Y-104616250D02*
X247346249Y-105741249D01*
X257955626Y-134344374D02*
X265132499Y-141521247D01*
X247346249Y-123734997D02*
X257955626Y-134344374D01*
X73500000Y-173500000D02*
X73500000Y-172000000D01*
X64349989Y-135850011D02*
X64900000Y-135300000D01*
X73500000Y-172000000D02*
X71000000Y-169500000D01*
X64349989Y-152127822D02*
X64349989Y-135850011D01*
X71000000Y-158777832D02*
X64349989Y-152127822D01*
X71000000Y-169500000D02*
X71000000Y-158777832D01*
%TO.N,COL-15*%
X267652500Y-80803750D02*
X267652500Y-142716250D01*
X70449989Y-159027822D02*
X70449989Y-170046020D01*
X63649989Y-152227822D02*
X70449989Y-159027822D01*
X70449989Y-170046020D02*
X71887508Y-171483539D01*
X63800000Y-135100000D02*
X63649989Y-135250011D01*
X63649989Y-135250011D02*
X63649989Y-152227822D01*
%TO.N,COL-16*%
X300990000Y-173527224D02*
X300990000Y-180816250D01*
X291465000Y-164002224D02*
X300990000Y-173527224D01*
X291465000Y-161766250D02*
X291465000Y-164002224D01*
X291465000Y-133535000D02*
X291465000Y-161766250D01*
X291465000Y-80803750D02*
X291465000Y-133535000D01*
X71651624Y-172345659D02*
X71651624Y-172455333D01*
X69899978Y-170594013D02*
X71651624Y-172345659D01*
X63000000Y-134600000D02*
X63000000Y-152355665D01*
X69899978Y-159255643D02*
X69899978Y-170594013D01*
X63000000Y-152355665D02*
X69899978Y-159255643D01*
X63600000Y-134000000D02*
X63000000Y-134600000D01*
%TO.N,COL-17*%
X310515000Y-161766250D02*
X310515000Y-133115000D01*
X310515000Y-133115000D02*
X310515000Y-80803750D01*
X62751992Y-133469995D02*
X62351993Y-133869994D01*
X62351993Y-133869994D02*
X62351993Y-152485490D01*
X62351993Y-152485490D02*
X69349967Y-159483464D01*
X69349967Y-171148556D02*
X70437177Y-172235766D01*
X69349967Y-159483464D02*
X69349967Y-171148556D01*
%TO.N,COL-18*%
X329565000Y-161766250D02*
X329565000Y-180816250D01*
X329565000Y-132535000D02*
X329565000Y-161766250D01*
X329565000Y-80803750D02*
X329565000Y-132535000D01*
X68799956Y-171756358D02*
X69452217Y-172408619D01*
X62000000Y-132800000D02*
X61800000Y-133000000D01*
X61800000Y-133000000D02*
X61800000Y-152800000D01*
X61800000Y-152800000D02*
X68799956Y-159799956D01*
X68799956Y-159799956D02*
X68799956Y-171756358D01*
%TO.N,COL-19*%
X354965000Y-170021250D02*
X354965000Y-131921250D01*
X348615000Y-106852224D02*
X348615000Y-104616250D01*
X354965000Y-113202224D02*
X348615000Y-106852224D01*
X354965000Y-131921250D02*
X354965000Y-113202224D01*
X348615000Y-104616250D02*
X348615000Y-80803750D01*
X68249945Y-172449945D02*
X68249945Y-160149945D01*
X68249945Y-160149945D02*
X61200000Y-153100000D01*
X69200000Y-173400000D02*
X68249945Y-172449945D01*
X61200000Y-153100000D02*
X61200000Y-132200000D01*
D20*
%TO.N,Net-(RC1-Pad2)*%
X282950000Y-84575000D02*
X282950000Y-78024990D01*
X282950000Y-78024990D02*
X282925010Y-78000000D01*
%TO.N,D-*%
X282950000Y-89075000D02*
X282950000Y-93050000D01*
X282950000Y-93050000D02*
X281875000Y-94125000D01*
X90500000Y-162775000D02*
X90500000Y-178550000D01*
X76900000Y-192150000D02*
X75887490Y-192150000D01*
X97825000Y-155450000D02*
X90500000Y-162775000D01*
X97825000Y-105874980D02*
X97825000Y-155450000D01*
X87325000Y-95374980D02*
X97825000Y-105874980D01*
X87325000Y-94550000D02*
X87325000Y-95374980D01*
X90500000Y-178550000D02*
X76900000Y-192150000D01*
%TO.N,D+*%
X285025000Y-89075000D02*
X285025000Y-92475000D01*
X285025000Y-92475000D02*
X282500000Y-95000000D01*
X98275009Y-105275009D02*
X98275009Y-155675001D01*
X90950010Y-163000000D02*
X90950010Y-178749990D01*
X81800009Y-190475193D02*
X79325202Y-192950000D01*
X98275009Y-155675001D02*
X90950010Y-163000000D01*
X79325202Y-192950000D02*
X75175000Y-192950000D01*
X88150000Y-95150000D02*
X98275009Y-105275009D01*
X90950010Y-178749990D02*
X81800009Y-187899991D01*
X81800009Y-187899991D02*
X81800009Y-190475193D01*
%TO.N,Net-(RC2-Pad1)*%
X284225000Y-77850000D02*
X284700000Y-78325000D01*
X284700000Y-78325000D02*
X284700000Y-84500000D01*
%TO.N,Net-(RC6-Pad2)*%
X278000000Y-78875000D02*
X278000000Y-84947062D01*
X278000000Y-84947062D02*
X272972052Y-89975010D01*
%TO.N,Net-(RC7-Pad2)*%
X276925000Y-90025000D02*
X278725010Y-88224990D01*
X278725010Y-88224990D02*
X278725010Y-79675000D01*
%TD*%
M02*
