M48
; DRILL file {KiCad (5.1.6)-1} date 07/26/20 12:10:13
; FORMAT={3:3/ absolute / metric / suppress leading zeros}
; #@! TF.CreationDate,2020-07-26T12:10:13+02:00
; #@! TF.GenerationSoftware,Kicad,Pcbnew,(5.1.6)-1
FMAT,2
METRIC,TZ
T1C0.400
T2C0.600
T3C0.762
T4C1.470
T5C0.650
T6C1.750
T7C3.048
T8C3.988
%
G90
G05
T1
X-13700Y-173300
X-5000Y-187200
X1325Y-194500
X2400Y-193725
X3875Y-180700
X5600Y-188325
X22000Y-169600
X26038Y-174563
X28444Y-89756
X29572Y-98272
X32400Y-168400
X32700Y-181200
X35875Y-186300
X37560Y-117440
X40900Y-171800
X41500Y-186300
X42072Y-136372
X48475Y-185500
X50800Y-168400
X51563Y-155437
X55400Y-181200
X56400Y-180725
X57193Y-180107
X57900Y-179400
X58500Y-178600
X59400Y-178100
X59700Y-170800
X60725Y-188450
X61200Y-132200
X62000Y-132800
X62752Y-133470
X63600Y-134000
X63800Y-135100
X64900Y-135300
X66200Y-135300
X69200Y-173400
X69452Y-172409
X69600Y-152400
X70437Y-172236
X70575Y-193275
X71652Y-172455
X71888Y-171484
X73500Y-173500
X75000Y-173100
X75175Y-192950
X75500Y-135500
X75887Y-192150
X75941Y-172649
X76000Y-169200
X76700Y-173300
X76900Y-194125
X77500Y-118400
X80200Y-152600
X81800Y-177100
X82300Y-178500
X83400Y-189600
X84400Y-161800
X85800Y-92900
X86700Y-181000
X86725Y-93750
X87325Y-94550
X88150Y-95150
X88225Y-179250
X88800Y-170500
X89600Y-178375
X93100Y-158000
X95500Y-100500
X97028Y-172725
X98200Y-173200
X98900Y-174100
X99700Y-175800
X103975Y-186900
X104200Y-153600
X105000Y-154300
X106900Y-154490
X115100Y-184800
X134300Y-185900
X145943Y-154357
X164568Y-153932
X183243Y-153557
X207990Y-152110
X215265Y-135465
X239077Y-135077
X257956Y-134344
X267652Y-133948
X272972Y-89975
X276925Y-90025
X278000Y-78875
X278725Y-79675
X280200Y-92900
X280225Y-77775
X281075Y-93475
X281475Y-84100
X281875Y-94125
X282500Y-95000
X282925Y-89075
X282925Y-78000
X282950Y-84575
X284225Y-77850
X284700Y-84500
X285025Y-89075
X291465Y-133535
X310515Y-133115
X329565Y-132535
T3
X-2890Y-179460
X-2890Y-182000
X-350Y-179460
X-350Y-182000
X2190Y-179460
X2190Y-182000
T4
X329565Y-104616
X335915Y-102076
X-18098Y-180816
X-11748Y-178276
X239077Y-123666
X245427Y-121126
X-20479Y-142716
X-14129Y-140176
X267652Y-123666
X274003Y-121126
X196215Y-123666
X202565Y-121126
X354965Y-131921
X357505Y-138271
X310515Y-161766
X316865Y-159226
X139065Y-123666
X145415Y-121126
X143827Y-142716
X150177Y-140176
X15240Y-104616
X21590Y-102076
X48578Y-142716
X54928Y-140176
X229552Y-185579
X235903Y-183039
X952Y-80804
X7302Y-78264
X-15716Y-142716
X-9366Y-140176
X267652Y-80804
X274003Y-78264
X53340Y-104616
X59690Y-102076
X200978Y-142716
X207327Y-140176
X139065Y-80804
X145415Y-78264
X200978Y-80804
X207327Y-78264
X310515Y-104616
X316865Y-102076
X172403Y-180816
X178753Y-178276
X124777Y-142716
X131128Y-140176
X105727Y-142716
X112078Y-140176
X115253Y-161766
X121602Y-159226
X134302Y-161766
X140653Y-159226
X129540Y-104616
X135890Y-102076
X10478Y-142716
X16828Y-140176
X39053Y-161766
X45403Y-159226
X20002Y-80804
X26353Y-78264
X236696Y-104616
X243046Y-102076
X-10954Y-161766
X-4604Y-159226
X246221Y-104616
X252571Y-102076
X191453Y-161766
X197803Y-159226
X291465Y-123666
X297815Y-121126
X158115Y-123666
X164465Y-121126
X86678Y-142716
X93027Y-140176
X91440Y-104616
X97790Y-102076
X100965Y-123666
X107315Y-121126
X329565Y-80804
X335915Y-78264
X100965Y-80804
X107315Y-78264
X231934Y-142716
X238284Y-140176
X58103Y-80804
X64453Y-78264
X-22860Y-80804
X-16510Y-78264
X220028Y-80804
X226378Y-78264
X-20479Y-123666
X-14129Y-121126
X291465Y-80804
X297815Y-78264
X243840Y-80804
X250190Y-78264
X167640Y-104616
X173990Y-102076
X153352Y-161766
X159702Y-159226
X200978Y-180816
X207327Y-178276
X354965Y-170021
X357505Y-176371
X110490Y-104616
X116840Y-102076
X291465Y-161766
X297815Y-159226
X96203Y-161766
X102552Y-159226
X267652Y-104616
X274003Y-102076
X29528Y-142716
X35878Y-140176
X227171Y-104616
X233521Y-102076
X205740Y-104616
X212090Y-102076
X5715Y-123666
X12065Y-121126
X215265Y-123666
X221615Y-121126
X217646Y-161766
X223996Y-159226
X181928Y-142716
X188278Y-140176
X162878Y-142716
X169228Y-140176
X162878Y-80804
X169228Y-78264
X310515Y-142716
X316865Y-140176
X329565Y-180816
X335915Y-178276
X81915Y-123666
X88265Y-121126
X120015Y-80804
X126365Y-78264
X67628Y-142716
X73977Y-140176
X77153Y-161766
X83503Y-159226
X43815Y-123666
X50165Y-121126
X58103Y-161766
X64453Y-159226
X291465Y-104616
X297815Y-102076
X-22860Y-104616
X-16510Y-102076
X177165Y-123666
X183515Y-121126
X310515Y-123666
X316865Y-121126
X172403Y-161766
X178753Y-159226
X181928Y-80804
X188278Y-78264
X291465Y-142716
X297815Y-140176
X329565Y-161766
X335915Y-159226
X120015Y-123666
X126365Y-121126
X267652Y-185579
X274003Y-183039
X300990Y-180816
X307340Y-178276
X10478Y-180816
X16828Y-178276
X34290Y-104616
X40640Y-102076
X81915Y-80804
X88265Y-78264
X24765Y-123666
X31115Y-121126
X20002Y-161766
X26353Y-159226
X-3810Y-104616
X2540Y-102076
X267652Y-142716
X274003Y-140176
X186690Y-104616
X193040Y-102076
X148590Y-104616
X154940Y-102076
X310515Y-80804
X316865Y-78264
X348615Y-80804
X354965Y-78264
X348615Y-104616
X354965Y-102076
X329565Y-142716
X335915Y-140176
X91440Y-180816
X97790Y-178276
X329565Y-123666
X335915Y-121126
X72390Y-104616
X78740Y-102076
X39053Y-80804
X45403Y-78264
X62865Y-123666
X69215Y-121126
X248603Y-166529
X254952Y-163989
X248603Y-185579
X254952Y-183039
T5
X280560Y-73855
X286340Y-73855
T6
X80645Y-126206
X90805Y-126206
X118745Y-83344
X128905Y-83344
X66358Y-145256
X76518Y-145256
X75882Y-164306
X86043Y-164306
X42545Y-126206
X52705Y-126206
X56832Y-164306
X66993Y-164306
X290195Y-107156
X300355Y-107156
X-24130Y-107156
X-13970Y-107156
X175895Y-126206
X186055Y-126206
X309245Y-126206
X319405Y-126206
X171133Y-164306
X181293Y-164306
X180658Y-83344
X190818Y-83344
X290195Y-145256
X300355Y-145256
X328295Y-164306
X338455Y-164306
X118745Y-126206
X128905Y-126206
X266383Y-188119
X276542Y-188119
X299720Y-183356
X309880Y-183356
X9207Y-183356
X19368Y-183356
X33020Y-107156
X43180Y-107156
X80645Y-83344
X90805Y-83344
X23495Y-126206
X33655Y-126206
X18733Y-164306
X28892Y-164306
X-5080Y-107156
X5080Y-107156
X266383Y-145256
X276542Y-145256
X185420Y-107156
X195580Y-107156
X147320Y-107156
X157480Y-107156
X309245Y-83344
X319405Y-83344
X347345Y-83344
X357505Y-83344
X347345Y-107156
X357505Y-107156
X328295Y-145256
X338455Y-145256
X90170Y-183356
X100330Y-183356
X328295Y-126206
X338455Y-126206
X71120Y-107156
X81280Y-107156
X37783Y-83344
X47943Y-83344
X61595Y-126206
X71755Y-126206
X247333Y-169069
X257493Y-169069
X247333Y-188119
X257493Y-188119
X328295Y-107156
X338455Y-107156
X-19368Y-183356
X-9207Y-183356
X237808Y-126206
X247968Y-126206
X-21749Y-145256
X-11589Y-145256
X266383Y-126206
X276542Y-126206
X194945Y-126206
X205105Y-126206
X352425Y-130651
X352425Y-140811
X309245Y-164306
X319405Y-164306
X137795Y-126206
X147955Y-126206
X142558Y-145256
X152718Y-145256
X13970Y-107156
X24130Y-107156
X47308Y-145256
X57468Y-145256
X228283Y-188119
X238443Y-188119
X-318Y-83344
X9843Y-83344
X-16986Y-145256
X-6826Y-145256
X266383Y-83344
X276542Y-83344
X52070Y-107156
X62230Y-107156
X199708Y-145256
X209867Y-145256
X137795Y-83344
X147955Y-83344
X199708Y-83344
X209867Y-83344
X309245Y-107156
X319405Y-107156
X171133Y-183356
X181293Y-183356
X123507Y-145256
X133668Y-145256
X104458Y-145256
X114618Y-145256
X113983Y-164306
X124143Y-164306
X133033Y-164306
X143193Y-164306
X128270Y-107156
X138430Y-107156
X9207Y-145256
X19368Y-145256
X37783Y-164306
X47943Y-164306
X18733Y-83344
X28892Y-83344
X235426Y-107156
X245586Y-107156
X-12224Y-164306
X-2064Y-164306
X244951Y-107156
X255111Y-107156
X190183Y-164306
X200343Y-164306
X290195Y-126206
X300355Y-126206
X156845Y-126206
X167005Y-126206
X85408Y-145256
X95568Y-145256
X90170Y-107156
X100330Y-107156
X99695Y-126206
X109855Y-126206
X328295Y-83344
X338455Y-83344
X99695Y-83344
X109855Y-83344
X230664Y-145256
X240824Y-145256
X56832Y-83344
X66993Y-83344
X-24130Y-83344
X-13970Y-83344
X218758Y-83344
X228917Y-83344
X-21749Y-126206
X-11589Y-126206
X290195Y-83344
X300355Y-83344
X242570Y-83344
X252730Y-83344
X166370Y-107156
X176530Y-107156
X152082Y-164306
X162243Y-164306
X199708Y-183356
X209867Y-183356
X352425Y-168751
X352425Y-178911
X109220Y-107156
X119380Y-107156
X290195Y-164306
X300355Y-164306
X94933Y-164306
X105093Y-164306
X266383Y-107156
X276542Y-107156
X28258Y-145256
X38417Y-145256
X225901Y-107156
X236061Y-107156
X204470Y-107156
X214630Y-107156
X4445Y-126206
X14605Y-126206
X213995Y-126206
X224155Y-126206
X216376Y-164306
X226536Y-164306
X180658Y-145256
X190818Y-145256
X161607Y-145256
X171767Y-145256
X161607Y-83344
X171767Y-83344
X309245Y-145256
X319405Y-145256
X328295Y-183356
X338455Y-183356
T7
X38100Y-176371
X152400Y-176371
X359410Y-123825
X359410Y-147638
X228600Y-100171
X252413Y-100171
X-19050Y-157321
X4763Y-157321
X223838Y-138271
X247650Y-138271
X359410Y-161925
X359410Y-185737
X292894Y-176371
X316706Y-176371
T8
X123825Y-126206
X271463Y-188119
X292894Y-191611
X304800Y-183356
X316706Y-191611
X14288Y-183356
X38100Y-107156
X85725Y-83344
X28575Y-126206
X23813Y-164306
X0Y-107156
X271463Y-145256
X190500Y-107156
X152400Y-107156
X314325Y-83344
X352425Y-83344
X352425Y-107156
X333375Y-145256
X38100Y-191611
X95250Y-183356
X152400Y-191611
X333375Y-126206
X76200Y-107156
X42863Y-83344
X66675Y-126206
X252413Y-169069
X252413Y-188119
X333375Y-107156
X-14288Y-183356
X242888Y-126206
X-16669Y-145256
X271463Y-126206
X200025Y-126206
X344170Y-123825
X344170Y-147638
X352425Y-135731
X314325Y-164306
X142875Y-126206
X147638Y-145256
X19050Y-107156
X52388Y-145256
X233363Y-188119
X4763Y-83344
X-11906Y-145256
X271463Y-83344
X57150Y-107156
X204788Y-145256
X142875Y-83344
X204788Y-83344
X314325Y-107156
X176213Y-183356
X128588Y-145256
X109538Y-145256
X119063Y-164306
X138112Y-164306
X133350Y-107156
X14288Y-145256
X42863Y-164306
X23813Y-83344
X228600Y-115411
X240506Y-107156
X252413Y-115411
X-19050Y-172561
X-7144Y-164306
X4763Y-172561
X250031Y-107156
X195263Y-164306
X295275Y-126206
X161925Y-126206
X90488Y-145256
X95250Y-107156
X104775Y-126206
X333375Y-83344
X104775Y-83344
X223838Y-153511
X235744Y-145256
X247650Y-153511
X61913Y-83344
X-19050Y-83344
X223838Y-83344
X-16669Y-126206
X295275Y-83344
X247650Y-83344
X171450Y-107156
X157163Y-164306
X204788Y-183356
X344170Y-161925
X344170Y-185737
X352425Y-173831
X114300Y-107156
X295275Y-164306
X100012Y-164306
X271463Y-107156
X33338Y-145256
X230981Y-107156
X209550Y-107156
X9525Y-126206
X219075Y-126206
X221456Y-164306
X185737Y-145256
X166688Y-145256
X166688Y-83344
X314325Y-145256
X333375Y-183356
X85725Y-126206
X123825Y-83344
X71438Y-145256
X80962Y-164306
X47625Y-126206
X61913Y-164306
X295275Y-107156
X-19050Y-107156
X180975Y-126206
X314325Y-126206
X176213Y-164306
X185737Y-83344
X295275Y-145256
X333375Y-164306
T2
G00X279130Y-69905
M15
G01X279130Y-70505
M16
G05
G00X279130Y-73835
M15
G01X279130Y-74935
M16
G05
G00X287770Y-69905
M15
G01X287770Y-70505
M16
G05
G00X287770Y-73835
M15
G01X287770Y-74935
M16
G05
T0
M30
