%TF.GenerationSoftware,KiCad,Pcbnew,(5.1.6)-1*%
%TF.CreationDate,2020-07-26T12:10:16+02:00*%
%TF.ProjectId,Proyecto CFS,50726f79-6563-4746-9f20-4346532e6b69,rev?*%
%TF.SameCoordinates,Original*%
%TF.FileFunction,Soldermask,Top*%
%TF.FilePolarity,Negative*%
%FSLAX46Y46*%
G04 Gerber Fmt 4.6, Leading zero omitted, Abs format (unit mm)*
G04 Created by KiCad (PCBNEW (5.1.6)-1) date 2020-07-26 12:10:16*
%MOMM*%
%LPD*%
G01*
G04 APERTURE LIST*
%ADD10C,0.650000*%
%ADD11O,1.000000X2.100000*%
%ADD12O,1.000000X1.600000*%
%ADD13C,3.987800*%
%ADD14C,1.750000*%
%ADD15C,3.048000*%
%ADD16O,1.524000X1.524000*%
%ADD17R,1.524000X1.524000*%
G04 APERTURE END LIST*
D10*
%TO.C,USB1*%
X286340000Y-73855000D03*
X280560000Y-73855000D03*
D11*
X279130000Y-74385000D03*
X287770000Y-74385000D03*
D12*
X279130000Y-70205000D03*
X287770000Y-70205000D03*
%TD*%
D13*
%TO.C,MX79*%
X271462500Y-83343750D03*
D14*
X266382500Y-83343750D03*
X276542500Y-83343750D03*
%TD*%
D13*
%TO.C,MX45*%
X142875000Y-83343750D03*
D14*
X137795000Y-83343750D03*
X147955000Y-83343750D03*
%TD*%
D13*
%TO.C,MX95*%
X333375000Y-107156250D03*
D14*
X328295000Y-107156250D03*
X338455000Y-107156250D03*
%TD*%
D13*
%TO.C,MX103*%
X352425000Y-173831250D03*
D14*
X352425000Y-168751250D03*
X352425000Y-178911250D03*
D15*
X359410000Y-161925000D03*
X359410000Y-185737500D03*
D13*
X344170000Y-161925000D03*
X344170000Y-185737500D03*
%TD*%
%TO.C,MX102*%
X352425000Y-135731250D03*
D14*
X352425000Y-130651250D03*
X352425000Y-140811250D03*
D15*
X359410000Y-123825000D03*
X359410000Y-147637500D03*
D13*
X344170000Y-123825000D03*
X344170000Y-147637500D03*
%TD*%
%TO.C,MX88*%
X304800000Y-183356250D03*
D14*
X299720000Y-183356250D03*
X309880000Y-183356250D03*
D15*
X292893750Y-176371250D03*
X316706250Y-176371250D03*
D13*
X292893750Y-191611250D03*
X316706250Y-191611250D03*
%TD*%
%TO.C,MX104*%
X271462500Y-188118750D03*
D14*
X266382500Y-188118750D03*
X276542500Y-188118750D03*
%TD*%
D13*
%TO.C,MX39*%
X119062500Y-164306250D03*
D14*
X113982500Y-164306250D03*
X124142500Y-164306250D03*
%TD*%
D13*
%TO.C,MX43*%
X128587500Y-145256250D03*
D14*
X123507500Y-145256250D03*
X133667500Y-145256250D03*
%TD*%
D13*
%TO.C,MX34*%
X95250000Y-183356250D03*
D14*
X90170000Y-183356250D03*
X100330000Y-183356250D03*
D15*
X38100000Y-176371250D03*
X152400000Y-176371250D03*
D13*
X38100000Y-191611250D03*
X152400000Y-191611250D03*
%TD*%
%TO.C,MX33*%
X100012500Y-164306250D03*
D14*
X94932500Y-164306250D03*
X105092500Y-164306250D03*
%TD*%
D13*
%TO.C,MX32*%
X90487500Y-145256250D03*
D14*
X85407500Y-145256250D03*
X95567500Y-145256250D03*
%TD*%
D13*
%TO.C,MX48*%
X147637500Y-145256250D03*
D14*
X142557500Y-145256250D03*
X152717500Y-145256250D03*
%TD*%
D13*
%TO.C,MX31*%
X85725000Y-126206250D03*
D14*
X80645000Y-126206250D03*
X90805000Y-126206250D03*
%TD*%
D13*
%TO.C,MX44*%
X138112500Y-164306250D03*
D14*
X133032500Y-164306250D03*
X143192500Y-164306250D03*
%TD*%
D13*
%TO.C,MX40*%
X123825000Y-83343750D03*
D14*
X118745000Y-83343750D03*
X128905000Y-83343750D03*
%TD*%
D13*
%TO.C,MX36*%
X95250000Y-107156250D03*
D14*
X90170000Y-107156250D03*
X100330000Y-107156250D03*
%TD*%
D13*
%TO.C,MX46*%
X133350000Y-107156250D03*
D14*
X128270000Y-107156250D03*
X138430000Y-107156250D03*
%TD*%
D13*
%TO.C,MX41*%
X114300000Y-107156250D03*
D14*
X109220000Y-107156250D03*
X119380000Y-107156250D03*
%TD*%
D13*
%TO.C,MX42*%
X123825000Y-126206250D03*
D14*
X118745000Y-126206250D03*
X128905000Y-126206250D03*
%TD*%
D13*
%TO.C,MX38*%
X109537500Y-145256250D03*
D14*
X104457500Y-145256250D03*
X114617500Y-145256250D03*
%TD*%
D13*
%TO.C,MX35*%
X104775000Y-83343750D03*
D14*
X99695000Y-83343750D03*
X109855000Y-83343750D03*
%TD*%
D13*
%TO.C,MX37*%
X104775000Y-126206250D03*
D14*
X99695000Y-126206250D03*
X109855000Y-126206250D03*
%TD*%
D13*
%TO.C,MX47*%
X142875000Y-126206250D03*
D14*
X137795000Y-126206250D03*
X147955000Y-126206250D03*
%TD*%
D13*
%TO.C,MX89*%
X314325000Y-83343750D03*
D14*
X309245000Y-83343750D03*
X319405000Y-83343750D03*
%TD*%
D13*
%TO.C,MX87*%
X295275000Y-164306250D03*
D14*
X290195000Y-164306250D03*
X300355000Y-164306250D03*
%TD*%
D13*
%TO.C,MX100*%
X352425000Y-83343750D03*
D14*
X347345000Y-83343750D03*
X357505000Y-83343750D03*
%TD*%
D13*
%TO.C,MX94*%
X333375000Y-83343750D03*
D14*
X328295000Y-83343750D03*
X338455000Y-83343750D03*
%TD*%
D13*
%TO.C,MX86*%
X295275000Y-145256250D03*
D14*
X290195000Y-145256250D03*
X300355000Y-145256250D03*
%TD*%
D13*
%TO.C,MX101*%
X352425000Y-107156250D03*
D14*
X347345000Y-107156250D03*
X357505000Y-107156250D03*
%TD*%
D13*
%TO.C,MX97*%
X333375000Y-145256250D03*
D14*
X328295000Y-145256250D03*
X338455000Y-145256250D03*
%TD*%
D13*
%TO.C,MX99*%
X333375000Y-183356250D03*
D14*
X328295000Y-183356250D03*
X338455000Y-183356250D03*
%TD*%
D13*
%TO.C,MX93*%
X314325000Y-164306250D03*
D14*
X309245000Y-164306250D03*
X319405000Y-164306250D03*
%TD*%
D13*
%TO.C,MX98*%
X333375000Y-164306250D03*
D14*
X328295000Y-164306250D03*
X338455000Y-164306250D03*
%TD*%
D13*
%TO.C,MX92*%
X314325000Y-145256250D03*
D14*
X309245000Y-145256250D03*
X319405000Y-145256250D03*
%TD*%
D13*
%TO.C,MX96*%
X333375000Y-126206250D03*
D14*
X328295000Y-126206250D03*
X338455000Y-126206250D03*
%TD*%
D13*
%TO.C,MX90*%
X314325000Y-107156250D03*
D14*
X309245000Y-107156250D03*
X319405000Y-107156250D03*
%TD*%
D13*
%TO.C,MX91*%
X314325000Y-126206250D03*
D14*
X309245000Y-126206250D03*
X319405000Y-126206250D03*
%TD*%
D13*
%TO.C,MX72*%
X242887500Y-126206250D03*
D14*
X237807500Y-126206250D03*
X247967500Y-126206250D03*
%TD*%
D13*
%TO.C,MX4*%
X-16668750Y-145256250D03*
D14*
X-21748750Y-145256250D03*
X-11588750Y-145256250D03*
%TD*%
D13*
%TO.C,MX60*%
X195262500Y-164306250D03*
D14*
X190182500Y-164306250D03*
X200342500Y-164306250D03*
%TD*%
D13*
%TO.C,MX51*%
X152400000Y-107156250D03*
D14*
X147320000Y-107156250D03*
X157480000Y-107156250D03*
%TD*%
D13*
%TO.C,MX50*%
X166687500Y-83343750D03*
D14*
X161607500Y-83343750D03*
X171767500Y-83343750D03*
%TD*%
D13*
%TO.C,MX59*%
X185737500Y-145256250D03*
D14*
X180657500Y-145256250D03*
X190817500Y-145256250D03*
%TD*%
D13*
%TO.C,MX57*%
X171450000Y-107156250D03*
D14*
X166370000Y-107156250D03*
X176530000Y-107156250D03*
%TD*%
D13*
%TO.C,MX49*%
X157162500Y-164306250D03*
D14*
X152082500Y-164306250D03*
X162242500Y-164306250D03*
%TD*%
D13*
%TO.C,MX66*%
X204787500Y-183356250D03*
D14*
X199707500Y-183356250D03*
X209867500Y-183356250D03*
%TD*%
D13*
%TO.C,MX55*%
X176212500Y-183356250D03*
D14*
X171132500Y-183356250D03*
X181292500Y-183356250D03*
%TD*%
D13*
%TO.C,MX63*%
X200025000Y-126206250D03*
D14*
X194945000Y-126206250D03*
X205105000Y-126206250D03*
%TD*%
D13*
%TO.C,MX58*%
X180975000Y-126206250D03*
D14*
X175895000Y-126206250D03*
X186055000Y-126206250D03*
%TD*%
D13*
%TO.C,MX64*%
X204787500Y-145256250D03*
D14*
X199707500Y-145256250D03*
X209867500Y-145256250D03*
%TD*%
D13*
%TO.C,MX54*%
X176212500Y-164306250D03*
D14*
X171132500Y-164306250D03*
X181292500Y-164306250D03*
%TD*%
D13*
%TO.C,MX65*%
X221456250Y-164306250D03*
D14*
X216376250Y-164306250D03*
X226536250Y-164306250D03*
%TD*%
D13*
%TO.C,MX56*%
X185737500Y-83343750D03*
D14*
X180657500Y-83343750D03*
X190817500Y-83343750D03*
%TD*%
D13*
%TO.C,MX53*%
X166687500Y-145256250D03*
D14*
X161607500Y-145256250D03*
X171767500Y-145256250D03*
%TD*%
D13*
%TO.C,MX61*%
X204787500Y-83343750D03*
D14*
X199707500Y-83343750D03*
X209867500Y-83343750D03*
%TD*%
D13*
%TO.C,MX62*%
X190500000Y-107156250D03*
D14*
X185420000Y-107156250D03*
X195580000Y-107156250D03*
%TD*%
D13*
%TO.C,MX52*%
X161925000Y-126206250D03*
D14*
X156845000Y-126206250D03*
X167005000Y-126206250D03*
%TD*%
D13*
%TO.C,MX85*%
X295275000Y-126206250D03*
D14*
X290195000Y-126206250D03*
X300355000Y-126206250D03*
%TD*%
D13*
%TO.C,MX81*%
X271462500Y-126206250D03*
D14*
X266382500Y-126206250D03*
X276542500Y-126206250D03*
%TD*%
D13*
%TO.C,MX76*%
X247650000Y-83343750D03*
D14*
X242570000Y-83343750D03*
X252730000Y-83343750D03*
%TD*%
D13*
%TO.C,MX82*%
X271462500Y-145256250D03*
D14*
X266382500Y-145256250D03*
X276542500Y-145256250D03*
%TD*%
D13*
%TO.C,MX69*%
X219075000Y-126206250D03*
D14*
X213995000Y-126206250D03*
X224155000Y-126206250D03*
%TD*%
D13*
%TO.C,MX83*%
X295275000Y-83343750D03*
D14*
X290195000Y-83343750D03*
X300355000Y-83343750D03*
%TD*%
D13*
%TO.C,MX78*%
X250031250Y-107156250D03*
D14*
X244951250Y-107156250D03*
X255111250Y-107156250D03*
%TD*%
D13*
%TO.C,MX80*%
X271462500Y-107156250D03*
D14*
X266382500Y-107156250D03*
X276542500Y-107156250D03*
%TD*%
D13*
%TO.C,MX84*%
X295275000Y-107156250D03*
D14*
X290195000Y-107156250D03*
X300355000Y-107156250D03*
%TD*%
D13*
%TO.C,MX77*%
X240506250Y-107156250D03*
D14*
X235426250Y-107156250D03*
X245586250Y-107156250D03*
D15*
X228600000Y-100171250D03*
X252412500Y-100171250D03*
D13*
X228600000Y-115411250D03*
X252412500Y-115411250D03*
%TD*%
%TO.C,MX73*%
X235743750Y-145256250D03*
D14*
X230663750Y-145256250D03*
X240823750Y-145256250D03*
D15*
X223837500Y-138271250D03*
X247650000Y-138271250D03*
D13*
X223837500Y-153511250D03*
X247650000Y-153511250D03*
%TD*%
%TO.C,MX74*%
X252412500Y-169068750D03*
D14*
X247332500Y-169068750D03*
X257492500Y-169068750D03*
%TD*%
D13*
%TO.C,MX71*%
X230981250Y-107156250D03*
D14*
X225901250Y-107156250D03*
X236061250Y-107156250D03*
%TD*%
D13*
%TO.C,MX70*%
X233362500Y-188118750D03*
D14*
X228282500Y-188118750D03*
X238442500Y-188118750D03*
%TD*%
D13*
%TO.C,MX68*%
X209550000Y-107156250D03*
D14*
X204470000Y-107156250D03*
X214630000Y-107156250D03*
%TD*%
D13*
%TO.C,MX75*%
X252412500Y-188118750D03*
D14*
X247332500Y-188118750D03*
X257492500Y-188118750D03*
%TD*%
D13*
%TO.C,MX67*%
X223837500Y-83343750D03*
D14*
X218757500Y-83343750D03*
X228917500Y-83343750D03*
%TD*%
D13*
%TO.C,MX10*%
X9525000Y-126206250D03*
D14*
X4445000Y-126206250D03*
X14605000Y-126206250D03*
%TD*%
D13*
%TO.C,MX3*%
X-16668750Y-126206250D03*
D14*
X-21748750Y-126206250D03*
X-11588750Y-126206250D03*
%TD*%
D13*
%TO.C,MX1*%
X-19050000Y-83343750D03*
D14*
X-24130000Y-83343750D03*
X-13970000Y-83343750D03*
%TD*%
D13*
%TO.C,MX11*%
X14287500Y-145256250D03*
D14*
X9207500Y-145256250D03*
X19367500Y-145256250D03*
%TD*%
D13*
%TO.C,MX2*%
X-19050000Y-107156250D03*
D14*
X-24130000Y-107156250D03*
X-13970000Y-107156250D03*
%TD*%
D13*
%TO.C,MX6*%
X-14287500Y-183356250D03*
D14*
X-19367500Y-183356250D03*
X-9207500Y-183356250D03*
%TD*%
D13*
%TO.C,MX12*%
X23812500Y-164306250D03*
D14*
X18732500Y-164306250D03*
X28892500Y-164306250D03*
%TD*%
D13*
%TO.C,MX5*%
X-7143750Y-164306250D03*
D14*
X-12223750Y-164306250D03*
X-2063750Y-164306250D03*
D15*
X-19050000Y-157321250D03*
X4762500Y-157321250D03*
D13*
X-19050000Y-172561250D03*
X4762500Y-172561250D03*
%TD*%
%TO.C,MX8*%
X4762500Y-83343750D03*
D14*
X-317500Y-83343750D03*
X9842500Y-83343750D03*
%TD*%
D13*
%TO.C,MX9*%
X0Y-107156250D03*
D14*
X-5080000Y-107156250D03*
X5080000Y-107156250D03*
%TD*%
D13*
%TO.C,MX7*%
X-11906250Y-145256250D03*
D14*
X-16986250Y-145256250D03*
X-6826250Y-145256250D03*
%TD*%
D13*
%TO.C,MX26*%
X66675000Y-126206250D03*
D14*
X61595000Y-126206250D03*
X71755000Y-126206250D03*
%TD*%
D13*
%TO.C,MX16*%
X33337500Y-145256250D03*
D14*
X28257500Y-145256250D03*
X38417500Y-145256250D03*
%TD*%
D13*
%TO.C,MX15*%
X28575000Y-126206250D03*
D14*
X23495000Y-126206250D03*
X33655000Y-126206250D03*
%TD*%
D13*
%TO.C,MX14*%
X19050000Y-107156250D03*
D14*
X13970000Y-107156250D03*
X24130000Y-107156250D03*
%TD*%
D13*
%TO.C,MX13*%
X23812500Y-83343750D03*
D14*
X18732500Y-83343750D03*
X28892500Y-83343750D03*
%TD*%
D13*
%TO.C,MX23*%
X61912500Y-164306250D03*
D14*
X56832500Y-164306250D03*
X66992500Y-164306250D03*
%TD*%
D13*
%TO.C,MX21*%
X47625000Y-126206250D03*
D14*
X42545000Y-126206250D03*
X52705000Y-126206250D03*
%TD*%
D13*
%TO.C,MX29*%
X85725000Y-83343750D03*
D14*
X80645000Y-83343750D03*
X90805000Y-83343750D03*
%TD*%
D13*
%TO.C,MX24*%
X61912500Y-83343750D03*
D14*
X56832500Y-83343750D03*
X66992500Y-83343750D03*
%TD*%
D13*
%TO.C,MX17*%
X42862500Y-164306250D03*
D14*
X37782500Y-164306250D03*
X47942500Y-164306250D03*
%TD*%
D13*
%TO.C,MX20*%
X38100000Y-107156250D03*
D14*
X33020000Y-107156250D03*
X43180000Y-107156250D03*
%TD*%
D13*
%TO.C,MX28*%
X80962500Y-164306250D03*
D14*
X75882500Y-164306250D03*
X86042500Y-164306250D03*
%TD*%
D13*
%TO.C,MX25*%
X57150000Y-107156250D03*
D14*
X52070000Y-107156250D03*
X62230000Y-107156250D03*
%TD*%
D13*
%TO.C,MX22*%
X52387500Y-145256250D03*
D14*
X47307500Y-145256250D03*
X57467500Y-145256250D03*
%TD*%
D13*
%TO.C,MX30*%
X76200000Y-107156250D03*
D14*
X71120000Y-107156250D03*
X81280000Y-107156250D03*
%TD*%
D13*
%TO.C,MX19*%
X42862500Y-83343750D03*
D14*
X37782500Y-83343750D03*
X47942500Y-83343750D03*
%TD*%
D13*
%TO.C,MX18*%
X14287500Y-183356250D03*
D14*
X9207500Y-183356250D03*
X19367500Y-183356250D03*
%TD*%
D13*
%TO.C,MX27*%
X71437500Y-145256250D03*
D14*
X66357500Y-145256250D03*
X76517500Y-145256250D03*
%TD*%
D16*
%TO.C,J1*%
X2190000Y-182000000D03*
X-350000Y-182000000D03*
X-2890000Y-182000000D03*
D17*
X-2890000Y-179460000D03*
D16*
X-350000Y-179460000D03*
X2190000Y-179460000D03*
%TD*%
M02*
