%TF.GenerationSoftware,KiCad,Pcbnew,(5.1.6)-1*%
%TF.CreationDate,2020-07-26T12:10:16+02:00*%
%TF.ProjectId,Proyecto CFS,50726f79-6563-4746-9f20-4346532e6b69,rev?*%
%TF.SameCoordinates,Original*%
%TF.FileFunction,Soldermask,Bot*%
%TF.FilePolarity,Negative*%
%FSLAX46Y46*%
G04 Gerber Fmt 4.6, Leading zero omitted, Abs format (unit mm)*
G04 Created by KiCad (PCBNEW (5.1.6)-1) date 2020-07-26 12:10:16*
%MOMM*%
%LPD*%
G01*
G04 APERTURE LIST*
%ADD10R,0.600000X2.450000*%
%ADD11R,0.300000X2.450000*%
%ADD12C,0.650000*%
%ADD13C,2.250000*%
%ADD14C,3.987800*%
%ADD15C,1.750000*%
%ADD16R,1.200000X0.900000*%
%ADD17R,2.100000X1.800000*%
%ADD18C,3.048000*%
%ADD19R,1.800000X1.100000*%
%ADD20O,1.524000X1.524000*%
%ADD21R,1.524000X1.524000*%
%ADD22R,0.700000X1.000000*%
%ADD23R,0.700000X0.600000*%
%ADD24R,1.500000X0.550000*%
%ADD25R,0.550000X1.500000*%
G04 APERTURE END LIST*
D10*
%TO.C,USB1*%
X286675000Y-75800000D03*
X280225000Y-75800000D03*
X285900000Y-75800000D03*
X281000000Y-75800000D03*
D11*
X281700000Y-75800000D03*
X285200000Y-75800000D03*
X282200000Y-75800000D03*
X284700000Y-75800000D03*
X282700000Y-75800000D03*
X284200000Y-75800000D03*
X283700000Y-75800000D03*
X283200000Y-75800000D03*
D12*
X286340000Y-73855000D03*
X280560000Y-73855000D03*
%TD*%
D13*
%TO.C,MX79*%
X274002500Y-78263750D03*
D14*
X271462500Y-83343750D03*
D13*
X267652500Y-80803750D03*
D15*
X266382500Y-83343750D03*
X276542500Y-83343750D03*
%TD*%
D13*
%TO.C,MX45*%
X145415000Y-78263750D03*
D14*
X142875000Y-83343750D03*
D13*
X139065000Y-80803750D03*
D15*
X137795000Y-83343750D03*
X147955000Y-83343750D03*
%TD*%
D13*
%TO.C,MX95*%
X335915000Y-102076250D03*
D14*
X333375000Y-107156250D03*
D13*
X329565000Y-104616250D03*
D15*
X328295000Y-107156250D03*
X338455000Y-107156250D03*
%TD*%
D16*
%TO.C,D101*%
X359568750Y-169987500D03*
X359568750Y-166687500D03*
%TD*%
%TO.C,D99*%
X359575000Y-101650000D03*
X359575000Y-98350000D03*
%TD*%
%TO.C,D97*%
X340500000Y-177830000D03*
X340500000Y-174530000D03*
%TD*%
%TO.C,D95*%
X340518750Y-139751250D03*
X340518750Y-136451250D03*
%TD*%
%TO.C,D85*%
X302418750Y-158820000D03*
X302418750Y-155520000D03*
%TD*%
%TO.C,D84*%
X302418750Y-139780000D03*
X302418750Y-136480000D03*
%TD*%
%TO.C,D82*%
X302418750Y-101672500D03*
X302418750Y-98372500D03*
%TD*%
%TO.C,D80*%
X278606250Y-139762500D03*
X278606250Y-136462500D03*
%TD*%
%TO.C,D78*%
X278606250Y-101672500D03*
X278606250Y-98372500D03*
%TD*%
%TO.C,D72*%
X242887500Y-139751250D03*
X242887500Y-136451250D03*
%TD*%
%TO.C,D64*%
X228600000Y-158812500D03*
X228600000Y-155512500D03*
%TD*%
%TO.C,D63*%
X211931250Y-139751250D03*
X211931250Y-136451250D03*
%TD*%
%TO.C,D61*%
X197643750Y-101672500D03*
X197643750Y-98372500D03*
%TD*%
%TO.C,D58*%
X192881250Y-139751250D03*
X192881250Y-136451250D03*
%TD*%
%TO.C,D56*%
X178593750Y-101672500D03*
X178593750Y-98372500D03*
%TD*%
%TO.C,D54*%
X183356250Y-177862500D03*
X183356250Y-174562500D03*
%TD*%
%TO.C,D53*%
X183356250Y-158821250D03*
X183356250Y-155521250D03*
%TD*%
%TO.C,D52*%
X173831250Y-139751250D03*
X173831250Y-136451250D03*
%TD*%
%TO.C,D50*%
X159543750Y-101672500D03*
X159543750Y-98372500D03*
%TD*%
%TO.C,D48*%
X164306250Y-158830000D03*
X164306250Y-155530000D03*
%TD*%
%TO.C,D45*%
X140420000Y-101670000D03*
X140420000Y-98370000D03*
%TD*%
%TO.C,D43*%
X145256250Y-158830000D03*
X145256250Y-155530000D03*
%TD*%
%TO.C,D42*%
X135731250Y-139751250D03*
X135731250Y-136451250D03*
%TD*%
%TO.C,D40*%
X121443750Y-101672500D03*
X121443750Y-98372500D03*
%TD*%
%TO.C,D38*%
X126206250Y-158821250D03*
X126206250Y-155521250D03*
%TD*%
%TO.C,D37*%
X116681250Y-139751250D03*
X116681250Y-136451250D03*
%TD*%
%TO.C,D35*%
X102393750Y-101672500D03*
X102393750Y-98372500D03*
%TD*%
%TO.C,D31*%
X97631250Y-139751250D03*
X97631250Y-136451250D03*
%TD*%
%TO.C,D29*%
X83343750Y-101672500D03*
X83343750Y-98372500D03*
%TD*%
%TO.C,D27*%
X88106250Y-158821250D03*
X88106250Y-155521250D03*
%TD*%
%TO.C,D26*%
X78525000Y-139750000D03*
X78525000Y-136450000D03*
%TD*%
%TO.C,D24*%
X64293750Y-101672500D03*
X64293750Y-98372500D03*
%TD*%
%TO.C,D22*%
X69056250Y-158850000D03*
X69056250Y-155550000D03*
%TD*%
%TO.C,D21*%
X59531250Y-139751250D03*
X59531250Y-136451250D03*
%TD*%
%TO.C,D19*%
X45243750Y-101672500D03*
X45243750Y-98372500D03*
%TD*%
%TO.C,D17*%
X21431250Y-177862500D03*
X21431250Y-174562500D03*
%TD*%
%TO.C,D16*%
X50006250Y-158850000D03*
X50006250Y-155550000D03*
%TD*%
%TO.C,D15*%
X40411250Y-139751250D03*
X40411250Y-136451250D03*
%TD*%
%TO.C,D13*%
X26193750Y-101672500D03*
X26193750Y-98372500D03*
%TD*%
%TO.C,D11*%
X30956250Y-158850000D03*
X30956250Y-155550000D03*
%TD*%
%TO.C,D10*%
X21431250Y-139751250D03*
X21431250Y-136451250D03*
%TD*%
%TO.C,D8*%
X7143750Y-101672500D03*
X7143750Y-98372500D03*
%TD*%
%TO.C,D6*%
X-7143750Y-177862500D03*
X-7143750Y-174562500D03*
%TD*%
%TO.C,D5*%
X0Y-158850000D03*
X0Y-155550000D03*
%TD*%
%TO.C,D4*%
X-4762500Y-139762500D03*
X-4762500Y-136462500D03*
%TD*%
%TO.C,D2*%
X-11906250Y-101662500D03*
X-11906250Y-98362500D03*
%TD*%
D17*
%TO.C,Y1*%
X54500000Y-185525000D03*
X57400000Y-185525000D03*
X57400000Y-183225000D03*
X54500000Y-183225000D03*
%TD*%
%TO.C,F1*%
G36*
G01*
X284062500Y-82225001D02*
X284062500Y-81324999D01*
G75*
G02*
X284312499Y-81075000I249999J0D01*
G01*
X284962501Y-81075000D01*
G75*
G02*
X285212500Y-81324999I0J-249999D01*
G01*
X285212500Y-82225001D01*
G75*
G02*
X284962501Y-82475000I-249999J0D01*
G01*
X284312499Y-82475000D01*
G75*
G02*
X284062500Y-82225001I0J249999D01*
G01*
G37*
G36*
G01*
X282012500Y-82225001D02*
X282012500Y-81324999D01*
G75*
G02*
X282262499Y-81075000I249999J0D01*
G01*
X282912501Y-81075000D01*
G75*
G02*
X283162500Y-81324999I0J-249999D01*
G01*
X283162500Y-82225001D01*
G75*
G02*
X282912501Y-82475000I-249999J0D01*
G01*
X282262499Y-82475000D01*
G75*
G02*
X282012500Y-82225001I0J249999D01*
G01*
G37*
%TD*%
D13*
%TO.C,MX103*%
X357505000Y-176371250D03*
D14*
X352425000Y-173831250D03*
D13*
X354965000Y-170021250D03*
D15*
X352425000Y-168751250D03*
X352425000Y-178911250D03*
D18*
X359410000Y-161925000D03*
X359410000Y-185737500D03*
D14*
X344170000Y-161925000D03*
X344170000Y-185737500D03*
%TD*%
D13*
%TO.C,MX102*%
X357505000Y-138271250D03*
D14*
X352425000Y-135731250D03*
D13*
X354965000Y-131921250D03*
D15*
X352425000Y-130651250D03*
X352425000Y-140811250D03*
D18*
X359410000Y-123825000D03*
X359410000Y-147637500D03*
D14*
X344170000Y-123825000D03*
X344170000Y-147637500D03*
%TD*%
D13*
%TO.C,MX88*%
X307340000Y-178276250D03*
D14*
X304800000Y-183356250D03*
D13*
X300990000Y-180816250D03*
D15*
X299720000Y-183356250D03*
X309880000Y-183356250D03*
D18*
X292893750Y-176371250D03*
X316706250Y-176371250D03*
D14*
X292893750Y-191611250D03*
X316706250Y-191611250D03*
%TD*%
D13*
%TO.C,MX104*%
X274002500Y-183038750D03*
D14*
X271462500Y-188118750D03*
D13*
X267652500Y-185578750D03*
D15*
X266382500Y-188118750D03*
X276542500Y-188118750D03*
%TD*%
D13*
%TO.C,MX39*%
X121602500Y-159226250D03*
D14*
X119062500Y-164306250D03*
D13*
X115252500Y-161766250D03*
D15*
X113982500Y-164306250D03*
X124142500Y-164306250D03*
%TD*%
D13*
%TO.C,MX43*%
X131127500Y-140176250D03*
D14*
X128587500Y-145256250D03*
D13*
X124777500Y-142716250D03*
D15*
X123507500Y-145256250D03*
X133667500Y-145256250D03*
%TD*%
D13*
%TO.C,MX34*%
X97790000Y-178276250D03*
D14*
X95250000Y-183356250D03*
D13*
X91440000Y-180816250D03*
D15*
X90170000Y-183356250D03*
X100330000Y-183356250D03*
D18*
X38100000Y-176371250D03*
X152400000Y-176371250D03*
D14*
X38100000Y-191611250D03*
X152400000Y-191611250D03*
%TD*%
D13*
%TO.C,MX33*%
X102552500Y-159226250D03*
D14*
X100012500Y-164306250D03*
D13*
X96202500Y-161766250D03*
D15*
X94932500Y-164306250D03*
X105092500Y-164306250D03*
%TD*%
D13*
%TO.C,MX32*%
X93027500Y-140176250D03*
D14*
X90487500Y-145256250D03*
D13*
X86677500Y-142716250D03*
D15*
X85407500Y-145256250D03*
X95567500Y-145256250D03*
%TD*%
D13*
%TO.C,MX48*%
X150177500Y-140176250D03*
D14*
X147637500Y-145256250D03*
D13*
X143827500Y-142716250D03*
D15*
X142557500Y-145256250D03*
X152717500Y-145256250D03*
%TD*%
D13*
%TO.C,MX31*%
X88265000Y-121126250D03*
D14*
X85725000Y-126206250D03*
D13*
X81915000Y-123666250D03*
D15*
X80645000Y-126206250D03*
X90805000Y-126206250D03*
%TD*%
D13*
%TO.C,MX44*%
X140652500Y-159226250D03*
D14*
X138112500Y-164306250D03*
D13*
X134302500Y-161766250D03*
D15*
X133032500Y-164306250D03*
X143192500Y-164306250D03*
%TD*%
D13*
%TO.C,MX40*%
X126365000Y-78263750D03*
D14*
X123825000Y-83343750D03*
D13*
X120015000Y-80803750D03*
D15*
X118745000Y-83343750D03*
X128905000Y-83343750D03*
%TD*%
D13*
%TO.C,MX36*%
X97790000Y-102076250D03*
D14*
X95250000Y-107156250D03*
D13*
X91440000Y-104616250D03*
D15*
X90170000Y-107156250D03*
X100330000Y-107156250D03*
%TD*%
D13*
%TO.C,MX46*%
X135890000Y-102076250D03*
D14*
X133350000Y-107156250D03*
D13*
X129540000Y-104616250D03*
D15*
X128270000Y-107156250D03*
X138430000Y-107156250D03*
%TD*%
D13*
%TO.C,MX41*%
X116840000Y-102076250D03*
D14*
X114300000Y-107156250D03*
D13*
X110490000Y-104616250D03*
D15*
X109220000Y-107156250D03*
X119380000Y-107156250D03*
%TD*%
D13*
%TO.C,MX42*%
X126365000Y-121126250D03*
D14*
X123825000Y-126206250D03*
D13*
X120015000Y-123666250D03*
D15*
X118745000Y-126206250D03*
X128905000Y-126206250D03*
%TD*%
D13*
%TO.C,MX38*%
X112077500Y-140176250D03*
D14*
X109537500Y-145256250D03*
D13*
X105727500Y-142716250D03*
D15*
X104457500Y-145256250D03*
X114617500Y-145256250D03*
%TD*%
D13*
%TO.C,MX35*%
X107315000Y-78263750D03*
D14*
X104775000Y-83343750D03*
D13*
X100965000Y-80803750D03*
D15*
X99695000Y-83343750D03*
X109855000Y-83343750D03*
%TD*%
D13*
%TO.C,MX37*%
X107315000Y-121126250D03*
D14*
X104775000Y-126206250D03*
D13*
X100965000Y-123666250D03*
D15*
X99695000Y-126206250D03*
X109855000Y-126206250D03*
%TD*%
D13*
%TO.C,MX47*%
X145415000Y-121126250D03*
D14*
X142875000Y-126206250D03*
D13*
X139065000Y-123666250D03*
D15*
X137795000Y-126206250D03*
X147955000Y-126206250D03*
%TD*%
D13*
%TO.C,MX89*%
X316865000Y-78263750D03*
D14*
X314325000Y-83343750D03*
D13*
X310515000Y-80803750D03*
D15*
X309245000Y-83343750D03*
X319405000Y-83343750D03*
%TD*%
D13*
%TO.C,MX87*%
X297815000Y-159226250D03*
D14*
X295275000Y-164306250D03*
D13*
X291465000Y-161766250D03*
D15*
X290195000Y-164306250D03*
X300355000Y-164306250D03*
%TD*%
D13*
%TO.C,MX100*%
X354965000Y-78263750D03*
D14*
X352425000Y-83343750D03*
D13*
X348615000Y-80803750D03*
D15*
X347345000Y-83343750D03*
X357505000Y-83343750D03*
%TD*%
D13*
%TO.C,MX94*%
X335915000Y-78263750D03*
D14*
X333375000Y-83343750D03*
D13*
X329565000Y-80803750D03*
D15*
X328295000Y-83343750D03*
X338455000Y-83343750D03*
%TD*%
D13*
%TO.C,MX86*%
X297815000Y-140176250D03*
D14*
X295275000Y-145256250D03*
D13*
X291465000Y-142716250D03*
D15*
X290195000Y-145256250D03*
X300355000Y-145256250D03*
%TD*%
D13*
%TO.C,MX101*%
X354965000Y-102076250D03*
D14*
X352425000Y-107156250D03*
D13*
X348615000Y-104616250D03*
D15*
X347345000Y-107156250D03*
X357505000Y-107156250D03*
%TD*%
D13*
%TO.C,MX97*%
X335915000Y-140176250D03*
D14*
X333375000Y-145256250D03*
D13*
X329565000Y-142716250D03*
D15*
X328295000Y-145256250D03*
X338455000Y-145256250D03*
%TD*%
D13*
%TO.C,MX99*%
X335915000Y-178276250D03*
D14*
X333375000Y-183356250D03*
D13*
X329565000Y-180816250D03*
D15*
X328295000Y-183356250D03*
X338455000Y-183356250D03*
%TD*%
D13*
%TO.C,MX93*%
X316865000Y-159226250D03*
D14*
X314325000Y-164306250D03*
D13*
X310515000Y-161766250D03*
D15*
X309245000Y-164306250D03*
X319405000Y-164306250D03*
%TD*%
D13*
%TO.C,MX98*%
X335915000Y-159226250D03*
D14*
X333375000Y-164306250D03*
D13*
X329565000Y-161766250D03*
D15*
X328295000Y-164306250D03*
X338455000Y-164306250D03*
%TD*%
D13*
%TO.C,MX92*%
X316865000Y-140176250D03*
D14*
X314325000Y-145256250D03*
D13*
X310515000Y-142716250D03*
D15*
X309245000Y-145256250D03*
X319405000Y-145256250D03*
%TD*%
D13*
%TO.C,MX96*%
X335915000Y-121126250D03*
D14*
X333375000Y-126206250D03*
D13*
X329565000Y-123666250D03*
D15*
X328295000Y-126206250D03*
X338455000Y-126206250D03*
%TD*%
D13*
%TO.C,MX90*%
X316865000Y-102076250D03*
D14*
X314325000Y-107156250D03*
D13*
X310515000Y-104616250D03*
D15*
X309245000Y-107156250D03*
X319405000Y-107156250D03*
%TD*%
D13*
%TO.C,MX91*%
X316865000Y-121126250D03*
D14*
X314325000Y-126206250D03*
D13*
X310515000Y-123666250D03*
D15*
X309245000Y-126206250D03*
X319405000Y-126206250D03*
%TD*%
D19*
%TO.C,SW1*%
X24750000Y-184350000D03*
X30950000Y-184350000D03*
X24750000Y-180650000D03*
X30950000Y-180650000D03*
%TD*%
D13*
%TO.C,MX72*%
X245427500Y-121126250D03*
D14*
X242887500Y-126206250D03*
D13*
X239077500Y-123666250D03*
D15*
X237807500Y-126206250D03*
X247967500Y-126206250D03*
%TD*%
D13*
%TO.C,MX4*%
X-14128750Y-140176250D03*
D14*
X-16668750Y-145256250D03*
D13*
X-20478750Y-142716250D03*
D15*
X-21748750Y-145256250D03*
X-11588750Y-145256250D03*
%TD*%
D13*
%TO.C,MX60*%
X197802500Y-159226250D03*
D14*
X195262500Y-164306250D03*
D13*
X191452500Y-161766250D03*
D15*
X190182500Y-164306250D03*
X200342500Y-164306250D03*
%TD*%
D13*
%TO.C,MX51*%
X154940000Y-102076250D03*
D14*
X152400000Y-107156250D03*
D13*
X148590000Y-104616250D03*
D15*
X147320000Y-107156250D03*
X157480000Y-107156250D03*
%TD*%
D13*
%TO.C,MX50*%
X169227500Y-78263750D03*
D14*
X166687500Y-83343750D03*
D13*
X162877500Y-80803750D03*
D15*
X161607500Y-83343750D03*
X171767500Y-83343750D03*
%TD*%
D13*
%TO.C,MX59*%
X188277500Y-140176250D03*
D14*
X185737500Y-145256250D03*
D13*
X181927500Y-142716250D03*
D15*
X180657500Y-145256250D03*
X190817500Y-145256250D03*
%TD*%
D13*
%TO.C,MX57*%
X173990000Y-102076250D03*
D14*
X171450000Y-107156250D03*
D13*
X167640000Y-104616250D03*
D15*
X166370000Y-107156250D03*
X176530000Y-107156250D03*
%TD*%
D13*
%TO.C,MX49*%
X159702500Y-159226250D03*
D14*
X157162500Y-164306250D03*
D13*
X153352500Y-161766250D03*
D15*
X152082500Y-164306250D03*
X162242500Y-164306250D03*
%TD*%
D13*
%TO.C,MX66*%
X207327500Y-178276250D03*
D14*
X204787500Y-183356250D03*
D13*
X200977500Y-180816250D03*
D15*
X199707500Y-183356250D03*
X209867500Y-183356250D03*
%TD*%
D13*
%TO.C,MX55*%
X178752500Y-178276250D03*
D14*
X176212500Y-183356250D03*
D13*
X172402500Y-180816250D03*
D15*
X171132500Y-183356250D03*
X181292500Y-183356250D03*
%TD*%
D13*
%TO.C,MX63*%
X202565000Y-121126250D03*
D14*
X200025000Y-126206250D03*
D13*
X196215000Y-123666250D03*
D15*
X194945000Y-126206250D03*
X205105000Y-126206250D03*
%TD*%
D13*
%TO.C,MX58*%
X183515000Y-121126250D03*
D14*
X180975000Y-126206250D03*
D13*
X177165000Y-123666250D03*
D15*
X175895000Y-126206250D03*
X186055000Y-126206250D03*
%TD*%
D13*
%TO.C,MX64*%
X207327500Y-140176250D03*
D14*
X204787500Y-145256250D03*
D13*
X200977500Y-142716250D03*
D15*
X199707500Y-145256250D03*
X209867500Y-145256250D03*
%TD*%
D13*
%TO.C,MX54*%
X178752500Y-159226250D03*
D14*
X176212500Y-164306250D03*
D13*
X172402500Y-161766250D03*
D15*
X171132500Y-164306250D03*
X181292500Y-164306250D03*
%TD*%
D13*
%TO.C,MX65*%
X223996250Y-159226250D03*
D14*
X221456250Y-164306250D03*
D13*
X217646250Y-161766250D03*
D15*
X216376250Y-164306250D03*
X226536250Y-164306250D03*
%TD*%
D13*
%TO.C,MX56*%
X188277500Y-78263750D03*
D14*
X185737500Y-83343750D03*
D13*
X181927500Y-80803750D03*
D15*
X180657500Y-83343750D03*
X190817500Y-83343750D03*
%TD*%
D13*
%TO.C,MX53*%
X169227500Y-140176250D03*
D14*
X166687500Y-145256250D03*
D13*
X162877500Y-142716250D03*
D15*
X161607500Y-145256250D03*
X171767500Y-145256250D03*
%TD*%
D13*
%TO.C,MX61*%
X207327500Y-78263750D03*
D14*
X204787500Y-83343750D03*
D13*
X200977500Y-80803750D03*
D15*
X199707500Y-83343750D03*
X209867500Y-83343750D03*
%TD*%
D13*
%TO.C,MX62*%
X193040000Y-102076250D03*
D14*
X190500000Y-107156250D03*
D13*
X186690000Y-104616250D03*
D15*
X185420000Y-107156250D03*
X195580000Y-107156250D03*
%TD*%
D13*
%TO.C,MX52*%
X164465000Y-121126250D03*
D14*
X161925000Y-126206250D03*
D13*
X158115000Y-123666250D03*
D15*
X156845000Y-126206250D03*
X167005000Y-126206250D03*
%TD*%
D13*
%TO.C,MX85*%
X297815000Y-121126250D03*
D14*
X295275000Y-126206250D03*
D13*
X291465000Y-123666250D03*
D15*
X290195000Y-126206250D03*
X300355000Y-126206250D03*
%TD*%
D13*
%TO.C,MX81*%
X274002500Y-121126250D03*
D14*
X271462500Y-126206250D03*
D13*
X267652500Y-123666250D03*
D15*
X266382500Y-126206250D03*
X276542500Y-126206250D03*
%TD*%
D13*
%TO.C,MX76*%
X250190000Y-78263750D03*
D14*
X247650000Y-83343750D03*
D13*
X243840000Y-80803750D03*
D15*
X242570000Y-83343750D03*
X252730000Y-83343750D03*
%TD*%
D13*
%TO.C,MX82*%
X274002500Y-140176250D03*
D14*
X271462500Y-145256250D03*
D13*
X267652500Y-142716250D03*
D15*
X266382500Y-145256250D03*
X276542500Y-145256250D03*
%TD*%
D13*
%TO.C,MX69*%
X221615000Y-121126250D03*
D14*
X219075000Y-126206250D03*
D13*
X215265000Y-123666250D03*
D15*
X213995000Y-126206250D03*
X224155000Y-126206250D03*
%TD*%
D13*
%TO.C,MX83*%
X297815000Y-78263750D03*
D14*
X295275000Y-83343750D03*
D13*
X291465000Y-80803750D03*
D15*
X290195000Y-83343750D03*
X300355000Y-83343750D03*
%TD*%
D13*
%TO.C,MX78*%
X252571250Y-102076250D03*
D14*
X250031250Y-107156250D03*
D13*
X246221250Y-104616250D03*
D15*
X244951250Y-107156250D03*
X255111250Y-107156250D03*
%TD*%
D13*
%TO.C,MX80*%
X274002500Y-102076250D03*
D14*
X271462500Y-107156250D03*
D13*
X267652500Y-104616250D03*
D15*
X266382500Y-107156250D03*
X276542500Y-107156250D03*
%TD*%
D13*
%TO.C,MX84*%
X297815000Y-102076250D03*
D14*
X295275000Y-107156250D03*
D13*
X291465000Y-104616250D03*
D15*
X290195000Y-107156250D03*
X300355000Y-107156250D03*
%TD*%
D13*
%TO.C,MX77*%
X243046250Y-102076250D03*
D14*
X240506250Y-107156250D03*
D13*
X236696250Y-104616250D03*
D15*
X235426250Y-107156250D03*
X245586250Y-107156250D03*
D18*
X228600000Y-100171250D03*
X252412500Y-100171250D03*
D14*
X228600000Y-115411250D03*
X252412500Y-115411250D03*
%TD*%
D13*
%TO.C,MX73*%
X238283750Y-140176250D03*
D14*
X235743750Y-145256250D03*
D13*
X231933750Y-142716250D03*
D15*
X230663750Y-145256250D03*
X240823750Y-145256250D03*
D18*
X223837500Y-138271250D03*
X247650000Y-138271250D03*
D14*
X223837500Y-153511250D03*
X247650000Y-153511250D03*
%TD*%
D13*
%TO.C,MX74*%
X254952500Y-163988750D03*
D14*
X252412500Y-169068750D03*
D13*
X248602500Y-166528750D03*
D15*
X247332500Y-169068750D03*
X257492500Y-169068750D03*
%TD*%
D13*
%TO.C,MX71*%
X233521250Y-102076250D03*
D14*
X230981250Y-107156250D03*
D13*
X227171250Y-104616250D03*
D15*
X225901250Y-107156250D03*
X236061250Y-107156250D03*
%TD*%
D13*
%TO.C,MX70*%
X235902500Y-183038750D03*
D14*
X233362500Y-188118750D03*
D13*
X229552500Y-185578750D03*
D15*
X228282500Y-188118750D03*
X238442500Y-188118750D03*
%TD*%
D13*
%TO.C,MX68*%
X212090000Y-102076250D03*
D14*
X209550000Y-107156250D03*
D13*
X205740000Y-104616250D03*
D15*
X204470000Y-107156250D03*
X214630000Y-107156250D03*
%TD*%
D13*
%TO.C,MX75*%
X254952500Y-183038750D03*
D14*
X252412500Y-188118750D03*
D13*
X248602500Y-185578750D03*
D15*
X247332500Y-188118750D03*
X257492500Y-188118750D03*
%TD*%
D13*
%TO.C,MX67*%
X226377500Y-78263750D03*
D14*
X223837500Y-83343750D03*
D13*
X220027500Y-80803750D03*
D15*
X218757500Y-83343750D03*
X228917500Y-83343750D03*
%TD*%
D13*
%TO.C,MX10*%
X12065000Y-121126250D03*
D14*
X9525000Y-126206250D03*
D13*
X5715000Y-123666250D03*
D15*
X4445000Y-126206250D03*
X14605000Y-126206250D03*
%TD*%
D13*
%TO.C,MX3*%
X-14128750Y-121126250D03*
D14*
X-16668750Y-126206250D03*
D13*
X-20478750Y-123666250D03*
D15*
X-21748750Y-126206250D03*
X-11588750Y-126206250D03*
%TD*%
D13*
%TO.C,MX1*%
X-16510000Y-78263750D03*
D14*
X-19050000Y-83343750D03*
D13*
X-22860000Y-80803750D03*
D15*
X-24130000Y-83343750D03*
X-13970000Y-83343750D03*
%TD*%
D13*
%TO.C,MX11*%
X16827500Y-140176250D03*
D14*
X14287500Y-145256250D03*
D13*
X10477500Y-142716250D03*
D15*
X9207500Y-145256250D03*
X19367500Y-145256250D03*
%TD*%
D13*
%TO.C,MX2*%
X-16510000Y-102076250D03*
D14*
X-19050000Y-107156250D03*
D13*
X-22860000Y-104616250D03*
D15*
X-24130000Y-107156250D03*
X-13970000Y-107156250D03*
%TD*%
D13*
%TO.C,MX6*%
X-11747500Y-178276250D03*
D14*
X-14287500Y-183356250D03*
D13*
X-18097500Y-180816250D03*
D15*
X-19367500Y-183356250D03*
X-9207500Y-183356250D03*
%TD*%
D13*
%TO.C,MX12*%
X26352500Y-159226250D03*
D14*
X23812500Y-164306250D03*
D13*
X20002500Y-161766250D03*
D15*
X18732500Y-164306250D03*
X28892500Y-164306250D03*
%TD*%
D13*
%TO.C,MX5*%
X-4603750Y-159226250D03*
D14*
X-7143750Y-164306250D03*
D13*
X-10953750Y-161766250D03*
D15*
X-12223750Y-164306250D03*
X-2063750Y-164306250D03*
D18*
X-19050000Y-157321250D03*
X4762500Y-157321250D03*
D14*
X-19050000Y-172561250D03*
X4762500Y-172561250D03*
%TD*%
D13*
%TO.C,MX8*%
X7302500Y-78263750D03*
D14*
X4762500Y-83343750D03*
D13*
X952500Y-80803750D03*
D15*
X-317500Y-83343750D03*
X9842500Y-83343750D03*
%TD*%
D13*
%TO.C,MX9*%
X2540000Y-102076250D03*
D14*
X0Y-107156250D03*
D13*
X-3810000Y-104616250D03*
D15*
X-5080000Y-107156250D03*
X5080000Y-107156250D03*
%TD*%
D13*
%TO.C,MX7*%
X-9366250Y-140176250D03*
D14*
X-11906250Y-145256250D03*
D13*
X-15716250Y-142716250D03*
D15*
X-16986250Y-145256250D03*
X-6826250Y-145256250D03*
%TD*%
D13*
%TO.C,MX26*%
X69215000Y-121126250D03*
D14*
X66675000Y-126206250D03*
D13*
X62865000Y-123666250D03*
D15*
X61595000Y-126206250D03*
X71755000Y-126206250D03*
%TD*%
D13*
%TO.C,MX16*%
X35877500Y-140176250D03*
D14*
X33337500Y-145256250D03*
D13*
X29527500Y-142716250D03*
D15*
X28257500Y-145256250D03*
X38417500Y-145256250D03*
%TD*%
D13*
%TO.C,MX15*%
X31115000Y-121126250D03*
D14*
X28575000Y-126206250D03*
D13*
X24765000Y-123666250D03*
D15*
X23495000Y-126206250D03*
X33655000Y-126206250D03*
%TD*%
D13*
%TO.C,MX14*%
X21590000Y-102076250D03*
D14*
X19050000Y-107156250D03*
D13*
X15240000Y-104616250D03*
D15*
X13970000Y-107156250D03*
X24130000Y-107156250D03*
%TD*%
D13*
%TO.C,MX13*%
X26352500Y-78263750D03*
D14*
X23812500Y-83343750D03*
D13*
X20002500Y-80803750D03*
D15*
X18732500Y-83343750D03*
X28892500Y-83343750D03*
%TD*%
D13*
%TO.C,MX23*%
X64452500Y-159226250D03*
D14*
X61912500Y-164306250D03*
D13*
X58102500Y-161766250D03*
D15*
X56832500Y-164306250D03*
X66992500Y-164306250D03*
%TD*%
D13*
%TO.C,MX21*%
X50165000Y-121126250D03*
D14*
X47625000Y-126206250D03*
D13*
X43815000Y-123666250D03*
D15*
X42545000Y-126206250D03*
X52705000Y-126206250D03*
%TD*%
D13*
%TO.C,MX29*%
X88265000Y-78263750D03*
D14*
X85725000Y-83343750D03*
D13*
X81915000Y-80803750D03*
D15*
X80645000Y-83343750D03*
X90805000Y-83343750D03*
%TD*%
D13*
%TO.C,MX24*%
X64452500Y-78263750D03*
D14*
X61912500Y-83343750D03*
D13*
X58102500Y-80803750D03*
D15*
X56832500Y-83343750D03*
X66992500Y-83343750D03*
%TD*%
D13*
%TO.C,MX17*%
X45402500Y-159226250D03*
D14*
X42862500Y-164306250D03*
D13*
X39052500Y-161766250D03*
D15*
X37782500Y-164306250D03*
X47942500Y-164306250D03*
%TD*%
D13*
%TO.C,MX20*%
X40640000Y-102076250D03*
D14*
X38100000Y-107156250D03*
D13*
X34290000Y-104616250D03*
D15*
X33020000Y-107156250D03*
X43180000Y-107156250D03*
%TD*%
D13*
%TO.C,MX28*%
X83502500Y-159226250D03*
D14*
X80962500Y-164306250D03*
D13*
X77152500Y-161766250D03*
D15*
X75882500Y-164306250D03*
X86042500Y-164306250D03*
%TD*%
D13*
%TO.C,MX25*%
X59690000Y-102076250D03*
D14*
X57150000Y-107156250D03*
D13*
X53340000Y-104616250D03*
D15*
X52070000Y-107156250D03*
X62230000Y-107156250D03*
%TD*%
D13*
%TO.C,MX22*%
X54927500Y-140176250D03*
D14*
X52387500Y-145256250D03*
D13*
X48577500Y-142716250D03*
D15*
X47307500Y-145256250D03*
X57467500Y-145256250D03*
%TD*%
D13*
%TO.C,MX30*%
X78740000Y-102076250D03*
D14*
X76200000Y-107156250D03*
D13*
X72390000Y-104616250D03*
D15*
X71120000Y-107156250D03*
X81280000Y-107156250D03*
%TD*%
D13*
%TO.C,MX19*%
X45402500Y-78263750D03*
D14*
X42862500Y-83343750D03*
D13*
X39052500Y-80803750D03*
D15*
X37782500Y-83343750D03*
X47942500Y-83343750D03*
%TD*%
D13*
%TO.C,MX18*%
X16827500Y-178276250D03*
D14*
X14287500Y-183356250D03*
D13*
X10477500Y-180816250D03*
D15*
X9207500Y-183356250D03*
X19367500Y-183356250D03*
%TD*%
D13*
%TO.C,MX27*%
X73977500Y-140176250D03*
D14*
X71437500Y-145256250D03*
D13*
X67627500Y-142716250D03*
D15*
X66357500Y-145256250D03*
X76517500Y-145256250D03*
%TD*%
D16*
%TO.C,D102*%
X278606250Y-182625000D03*
X278606250Y-179325000D03*
%TD*%
D20*
%TO.C,J1*%
X2190000Y-182000000D03*
X-350000Y-182000000D03*
X-2890000Y-182000000D03*
D21*
X-2890000Y-179460000D03*
D20*
X-350000Y-179460000D03*
X2190000Y-179460000D03*
%TD*%
D22*
%TO.C,U2*%
X289250000Y-85925000D03*
D23*
X287250000Y-85725000D03*
X289250000Y-87625000D03*
X287250000Y-87625000D03*
%TD*%
D24*
%TO.C,U1*%
X79975000Y-188925000D03*
X79975000Y-188125000D03*
X79975000Y-187325000D03*
X79975000Y-186525000D03*
X79975000Y-185725000D03*
X79975000Y-184925000D03*
X79975000Y-184125000D03*
X79975000Y-183325000D03*
X79975000Y-182525000D03*
X79975000Y-181725000D03*
X79975000Y-180925000D03*
X79975000Y-180125000D03*
X79975000Y-179325000D03*
X79975000Y-178525000D03*
X79975000Y-177725000D03*
X79975000Y-176925000D03*
D25*
X78275000Y-175225000D03*
X77475000Y-175225000D03*
X76675000Y-175225000D03*
X75875000Y-175225000D03*
X75075000Y-175225000D03*
X74275000Y-175225000D03*
X73475000Y-175225000D03*
X72675000Y-175225000D03*
X71875000Y-175225000D03*
X71075000Y-175225000D03*
X70275000Y-175225000D03*
X69475000Y-175225000D03*
X68675000Y-175225000D03*
X67875000Y-175225000D03*
X67075000Y-175225000D03*
X66275000Y-175225000D03*
D24*
X64575000Y-176925000D03*
X64575000Y-177725000D03*
X64575000Y-178525000D03*
X64575000Y-179325000D03*
X64575000Y-180125000D03*
X64575000Y-180925000D03*
X64575000Y-181725000D03*
X64575000Y-182525000D03*
X64575000Y-183325000D03*
X64575000Y-184125000D03*
X64575000Y-184925000D03*
X64575000Y-185725000D03*
X64575000Y-186525000D03*
X64575000Y-187325000D03*
X64575000Y-188125000D03*
X64575000Y-188925000D03*
D25*
X66275000Y-190625000D03*
X67075000Y-190625000D03*
X67875000Y-190625000D03*
X68675000Y-190625000D03*
X69475000Y-190625000D03*
X70275000Y-190625000D03*
X71075000Y-190625000D03*
X71875000Y-190625000D03*
X72675000Y-190625000D03*
X73475000Y-190625000D03*
X74275000Y-190625000D03*
X75075000Y-190625000D03*
X75875000Y-190625000D03*
X76675000Y-190625000D03*
X77475000Y-190625000D03*
X78275000Y-190625000D03*
%TD*%
%TO.C,RC7*%
G36*
G01*
X277224999Y-90874999D02*
X277224999Y-91775001D01*
G75*
G02*
X276975000Y-92025000I-249999J0D01*
G01*
X276324998Y-92025000D01*
G75*
G02*
X276074999Y-91775001I0J249999D01*
G01*
X276074999Y-90874999D01*
G75*
G02*
X276324998Y-90625000I249999J0D01*
G01*
X276975000Y-90625000D01*
G75*
G02*
X277224999Y-90874999I0J-249999D01*
G01*
G37*
G36*
G01*
X279274999Y-90874999D02*
X279274999Y-91775001D01*
G75*
G02*
X279025000Y-92025000I-249999J0D01*
G01*
X278374998Y-92025000D01*
G75*
G02*
X278124999Y-91775001I0J249999D01*
G01*
X278124999Y-90874999D01*
G75*
G02*
X278374998Y-90625000I249999J0D01*
G01*
X279025000Y-90625000D01*
G75*
G02*
X279274999Y-90874999I0J-249999D01*
G01*
G37*
%TD*%
%TO.C,RC6*%
G36*
G01*
X273150000Y-90824999D02*
X273150000Y-91725001D01*
G75*
G02*
X272900001Y-91975000I-249999J0D01*
G01*
X272249999Y-91975000D01*
G75*
G02*
X272000000Y-91725001I0J249999D01*
G01*
X272000000Y-90824999D01*
G75*
G02*
X272249999Y-90575000I249999J0D01*
G01*
X272900001Y-90575000D01*
G75*
G02*
X273150000Y-90824999I0J-249999D01*
G01*
G37*
G36*
G01*
X275200000Y-90824999D02*
X275200000Y-91725001D01*
G75*
G02*
X274950001Y-91975000I-249999J0D01*
G01*
X274299999Y-91975000D01*
G75*
G02*
X274050000Y-91725001I0J249999D01*
G01*
X274050000Y-90824999D01*
G75*
G02*
X274299999Y-90575000I249999J0D01*
G01*
X274950001Y-90575000D01*
G75*
G02*
X275200000Y-90824999I0J-249999D01*
G01*
G37*
%TD*%
%TO.C,RC4*%
G36*
G01*
X75700000Y-171100001D02*
X75700000Y-170199999D01*
G75*
G02*
X75949999Y-169950000I249999J0D01*
G01*
X76600001Y-169950000D01*
G75*
G02*
X76850000Y-170199999I0J-249999D01*
G01*
X76850000Y-171100001D01*
G75*
G02*
X76600001Y-171350000I-249999J0D01*
G01*
X75949999Y-171350000D01*
G75*
G02*
X75700000Y-171100001I0J249999D01*
G01*
G37*
G36*
G01*
X73650000Y-171100001D02*
X73650000Y-170199999D01*
G75*
G02*
X73899999Y-169950000I249999J0D01*
G01*
X74550001Y-169950000D01*
G75*
G02*
X74800000Y-170199999I0J-249999D01*
G01*
X74800000Y-171100001D01*
G75*
G02*
X74550001Y-171350000I-249999J0D01*
G01*
X73899999Y-171350000D01*
G75*
G02*
X73650000Y-171100001I0J249999D01*
G01*
G37*
%TD*%
%TO.C,RC3*%
G36*
G01*
X56724999Y-189925001D02*
X57625001Y-189925001D01*
G75*
G02*
X57875000Y-190175000I0J-249999D01*
G01*
X57875000Y-190825002D01*
G75*
G02*
X57625001Y-191075001I-249999J0D01*
G01*
X56724999Y-191075001D01*
G75*
G02*
X56475000Y-190825002I0J249999D01*
G01*
X56475000Y-190175000D01*
G75*
G02*
X56724999Y-189925001I249999J0D01*
G01*
G37*
G36*
G01*
X56724999Y-187875001D02*
X57625001Y-187875001D01*
G75*
G02*
X57875000Y-188125000I0J-249999D01*
G01*
X57875000Y-188775002D01*
G75*
G02*
X57625001Y-189025001I-249999J0D01*
G01*
X56724999Y-189025001D01*
G75*
G02*
X56475000Y-188775002I0J249999D01*
G01*
X56475000Y-188125000D01*
G75*
G02*
X56724999Y-187875001I249999J0D01*
G01*
G37*
%TD*%
%TO.C,RC2*%
G36*
G01*
X284574999Y-87225000D02*
X285475001Y-87225000D01*
G75*
G02*
X285725000Y-87474999I0J-249999D01*
G01*
X285725000Y-88125001D01*
G75*
G02*
X285475001Y-88375000I-249999J0D01*
G01*
X284574999Y-88375000D01*
G75*
G02*
X284325000Y-88125001I0J249999D01*
G01*
X284325000Y-87474999D01*
G75*
G02*
X284574999Y-87225000I249999J0D01*
G01*
G37*
G36*
G01*
X284574999Y-85175000D02*
X285475001Y-85175000D01*
G75*
G02*
X285725000Y-85424999I0J-249999D01*
G01*
X285725000Y-86075001D01*
G75*
G02*
X285475001Y-86325000I-249999J0D01*
G01*
X284574999Y-86325000D01*
G75*
G02*
X284325000Y-86075001I0J249999D01*
G01*
X284325000Y-85424999D01*
G75*
G02*
X284574999Y-85175000I249999J0D01*
G01*
G37*
%TD*%
%TO.C,RC1*%
G36*
G01*
X283400001Y-86325001D02*
X282499999Y-86325001D01*
G75*
G02*
X282250000Y-86075002I0J249999D01*
G01*
X282250000Y-85425000D01*
G75*
G02*
X282499999Y-85175001I249999J0D01*
G01*
X283400001Y-85175001D01*
G75*
G02*
X283650000Y-85425000I0J-249999D01*
G01*
X283650000Y-86075002D01*
G75*
G02*
X283400001Y-86325001I-249999J0D01*
G01*
G37*
G36*
G01*
X283400001Y-88375001D02*
X282499999Y-88375001D01*
G75*
G02*
X282250000Y-88125002I0J249999D01*
G01*
X282250000Y-87475000D01*
G75*
G02*
X282499999Y-87225001I249999J0D01*
G01*
X283400001Y-87225001D01*
G75*
G02*
X283650000Y-87475000I0J-249999D01*
G01*
X283650000Y-88125002D01*
G75*
G02*
X283400001Y-88375001I-249999J0D01*
G01*
G37*
%TD*%
D16*
%TO.C,D100*%
X345281250Y-132618750D03*
X345281250Y-129318750D03*
%TD*%
%TO.C,D98*%
X359560000Y-86470000D03*
X359560000Y-89770000D03*
%TD*%
%TO.C,D96*%
X340518750Y-158812500D03*
X340518750Y-155512500D03*
%TD*%
%TO.C,D94*%
X340475000Y-120675000D03*
X340475000Y-117375000D03*
%TD*%
%TO.C,D93*%
X340518750Y-101680000D03*
X340518750Y-98380000D03*
%TD*%
%TO.C,D92*%
X340518750Y-86456250D03*
X340518750Y-89756250D03*
%TD*%
%TO.C,D91*%
X321468750Y-158812500D03*
X321468750Y-155512500D03*
%TD*%
%TO.C,D90*%
X321468750Y-139762500D03*
X321468750Y-136462500D03*
%TD*%
%TO.C,D89*%
X321468750Y-120712500D03*
X321468750Y-117412500D03*
%TD*%
%TO.C,D88*%
X321468750Y-101662500D03*
X321468750Y-98362500D03*
%TD*%
%TO.C,D87*%
X321468750Y-86456250D03*
X321468750Y-89756250D03*
%TD*%
%TO.C,D86*%
X311943750Y-177862500D03*
X311943750Y-174562500D03*
%TD*%
%TO.C,D83*%
X302418750Y-120720000D03*
X302418750Y-117420000D03*
%TD*%
%TO.C,D81*%
X302410000Y-86470000D03*
X302410000Y-89770000D03*
%TD*%
%TO.C,D79*%
X278606250Y-120710000D03*
X278606250Y-117410000D03*
%TD*%
%TO.C,D77*%
X264318750Y-86456250D03*
X264318750Y-89756250D03*
%TD*%
%TO.C,D76*%
X257175000Y-101662500D03*
X257175000Y-98362500D03*
%TD*%
%TO.C,D75*%
X254810000Y-86450000D03*
X254810000Y-89750000D03*
%TD*%
%TO.C,D74*%
X259556250Y-182625000D03*
X259556250Y-179325000D03*
%TD*%
%TO.C,D73*%
X259556250Y-162843750D03*
X259556250Y-159543750D03*
%TD*%
%TO.C,D71*%
X250031250Y-123093750D03*
X250031250Y-119793750D03*
%TD*%
%TO.C,D70*%
X238125000Y-101662500D03*
X238125000Y-98362500D03*
%TD*%
%TO.C,D69*%
X240506250Y-182625000D03*
X240506250Y-179325000D03*
%TD*%
%TO.C,D68*%
X226218750Y-123093750D03*
X226218750Y-119793750D03*
%TD*%
%TO.C,D67*%
X216693750Y-101662500D03*
X216693750Y-98362500D03*
%TD*%
%TO.C,D66*%
X230981250Y-86456250D03*
X230981250Y-89756250D03*
%TD*%
%TO.C,D65*%
X211931250Y-177862500D03*
X211931250Y-174562500D03*
%TD*%
%TO.C,D62*%
X207140000Y-120640000D03*
X207140000Y-117340000D03*
%TD*%
%TO.C,D60*%
X211931250Y-86456250D03*
X211931250Y-89756250D03*
%TD*%
%TO.C,D59*%
X202406250Y-158812500D03*
X202406250Y-155512500D03*
%TD*%
%TO.C,D57*%
X188118750Y-120740000D03*
X188118750Y-117440000D03*
%TD*%
%TO.C,D55*%
X192881250Y-86456250D03*
X192881250Y-89756250D03*
%TD*%
%TO.C,D51*%
X169068750Y-120800000D03*
X169068750Y-117500000D03*
%TD*%
%TO.C,D49*%
X173831250Y-86456250D03*
X173831250Y-89756250D03*
%TD*%
%TO.C,D47*%
X154781250Y-139762500D03*
X154781250Y-136462500D03*
%TD*%
%TO.C,D46*%
X150018750Y-120770000D03*
X150018750Y-117470000D03*
%TD*%
%TO.C,D44*%
X150030000Y-86450000D03*
X150030000Y-89750000D03*
%TD*%
%TO.C,D41*%
X130968750Y-120712500D03*
X130968750Y-117412500D03*
%TD*%
%TO.C,D39*%
X130968750Y-86456250D03*
X130968750Y-89756250D03*
%TD*%
%TO.C,D36*%
X111890000Y-120680000D03*
X111890000Y-117380000D03*
%TD*%
%TO.C,D34*%
X111918750Y-86456250D03*
X111918750Y-89756250D03*
%TD*%
%TO.C,D33*%
X102393750Y-178593750D03*
X102393750Y-175293750D03*
%TD*%
%TO.C,D32*%
X107120000Y-158840000D03*
X107120000Y-155540000D03*
%TD*%
%TO.C,D30*%
X92868750Y-120690000D03*
X92868750Y-117390000D03*
%TD*%
%TO.C,D28*%
X92850000Y-86460000D03*
X92850000Y-89760000D03*
%TD*%
%TO.C,D25*%
X73818750Y-120712500D03*
X73818750Y-117412500D03*
%TD*%
%TO.C,D23*%
X69000000Y-86456250D03*
X69000000Y-89756250D03*
%TD*%
%TO.C,D20*%
X54768750Y-120750000D03*
X54768750Y-117450000D03*
%TD*%
%TO.C,D18*%
X49970000Y-86460000D03*
X49970000Y-89760000D03*
%TD*%
%TO.C,D14*%
X35790000Y-120680000D03*
X35790000Y-117380000D03*
%TD*%
%TO.C,D12*%
X30890000Y-86480000D03*
X30890000Y-89780000D03*
%TD*%
%TO.C,D9*%
X16668750Y-120660000D03*
X16668750Y-117360000D03*
%TD*%
%TO.C,D7*%
X11906250Y-86456250D03*
X11906250Y-89756250D03*
%TD*%
%TO.C,D3*%
X-9525000Y-120712500D03*
X-9525000Y-117412500D03*
%TD*%
%TO.C,D1*%
X-11906250Y-86456250D03*
X-11906250Y-89756250D03*
%TD*%
%TO.C,C8*%
G36*
G01*
X-825000Y-184899999D02*
X-825000Y-185800001D01*
G75*
G02*
X-1074999Y-186050000I-249999J0D01*
G01*
X-1725001Y-186050000D01*
G75*
G02*
X-1975000Y-185800001I0J249999D01*
G01*
X-1975000Y-184899999D01*
G75*
G02*
X-1725001Y-184650000I249999J0D01*
G01*
X-1074999Y-184650000D01*
G75*
G02*
X-825000Y-184899999I0J-249999D01*
G01*
G37*
G36*
G01*
X1225000Y-184899999D02*
X1225000Y-185800001D01*
G75*
G02*
X975001Y-186050000I-249999J0D01*
G01*
X324999Y-186050000D01*
G75*
G02*
X75000Y-185800001I0J249999D01*
G01*
X75000Y-184899999D01*
G75*
G02*
X324999Y-184650000I249999J0D01*
G01*
X975001Y-184650000D01*
G75*
G02*
X1225000Y-184899999I0J-249999D01*
G01*
G37*
%TD*%
%TO.C,C7*%
G36*
G01*
X85049999Y-189025001D02*
X85950001Y-189025001D01*
G75*
G02*
X86200000Y-189275000I0J-249999D01*
G01*
X86200000Y-189925002D01*
G75*
G02*
X85950001Y-190175001I-249999J0D01*
G01*
X85049999Y-190175001D01*
G75*
G02*
X84800000Y-189925002I0J249999D01*
G01*
X84800000Y-189275000D01*
G75*
G02*
X85049999Y-189025001I249999J0D01*
G01*
G37*
G36*
G01*
X85049999Y-186975001D02*
X85950001Y-186975001D01*
G75*
G02*
X86200000Y-187225000I0J-249999D01*
G01*
X86200000Y-187875002D01*
G75*
G02*
X85950001Y-188125001I-249999J0D01*
G01*
X85049999Y-188125001D01*
G75*
G02*
X84800000Y-187875002I0J249999D01*
G01*
X84800000Y-187225000D01*
G75*
G02*
X85049999Y-186975001I249999J0D01*
G01*
G37*
%TD*%
%TO.C,C6*%
G36*
G01*
X72350000Y-192374999D02*
X72350000Y-193275001D01*
G75*
G02*
X72100001Y-193525000I-249999J0D01*
G01*
X71449999Y-193525000D01*
G75*
G02*
X71200000Y-193275001I0J249999D01*
G01*
X71200000Y-192374999D01*
G75*
G02*
X71449999Y-192125000I249999J0D01*
G01*
X72100001Y-192125000D01*
G75*
G02*
X72350000Y-192374999I0J-249999D01*
G01*
G37*
G36*
G01*
X74400000Y-192374999D02*
X74400000Y-193275001D01*
G75*
G02*
X74150001Y-193525000I-249999J0D01*
G01*
X73499999Y-193525000D01*
G75*
G02*
X73250000Y-193275001I0J249999D01*
G01*
X73250000Y-192374999D01*
G75*
G02*
X73499999Y-192125000I249999J0D01*
G01*
X74150001Y-192125000D01*
G75*
G02*
X74400000Y-192374999I0J-249999D01*
G01*
G37*
%TD*%
%TO.C,C5*%
G36*
G01*
X85025001Y-179749999D02*
X84124999Y-179749999D01*
G75*
G02*
X83875000Y-179500000I0J249999D01*
G01*
X83875000Y-178849998D01*
G75*
G02*
X84124999Y-178599999I249999J0D01*
G01*
X85025001Y-178599999D01*
G75*
G02*
X85275000Y-178849998I0J-249999D01*
G01*
X85275000Y-179500000D01*
G75*
G02*
X85025001Y-179749999I-249999J0D01*
G01*
G37*
G36*
G01*
X85025001Y-181799999D02*
X84124999Y-181799999D01*
G75*
G02*
X83875000Y-181550000I0J249999D01*
G01*
X83875000Y-180899998D01*
G75*
G02*
X84124999Y-180649999I249999J0D01*
G01*
X85025001Y-180649999D01*
G75*
G02*
X85275000Y-180899998I0J-249999D01*
G01*
X85275000Y-181550000D01*
G75*
G02*
X85025001Y-181799999I-249999J0D01*
G01*
G37*
%TD*%
%TO.C,C4*%
G36*
G01*
X60349999Y-185425000D02*
X61250001Y-185425000D01*
G75*
G02*
X61500000Y-185674999I0J-249999D01*
G01*
X61500000Y-186325001D01*
G75*
G02*
X61250001Y-186575000I-249999J0D01*
G01*
X60349999Y-186575000D01*
G75*
G02*
X60100000Y-186325001I0J249999D01*
G01*
X60100000Y-185674999D01*
G75*
G02*
X60349999Y-185425000I249999J0D01*
G01*
G37*
G36*
G01*
X60349999Y-183375000D02*
X61250001Y-183375000D01*
G75*
G02*
X61500000Y-183624999I0J-249999D01*
G01*
X61500000Y-184275001D01*
G75*
G02*
X61250001Y-184525000I-249999J0D01*
G01*
X60349999Y-184525000D01*
G75*
G02*
X60100000Y-184275001I0J249999D01*
G01*
X60100000Y-183624999D01*
G75*
G02*
X60349999Y-183375000I249999J0D01*
G01*
G37*
%TD*%
%TO.C,C3*%
G36*
G01*
X50299999Y-184850000D02*
X51200001Y-184850000D01*
G75*
G02*
X51450000Y-185099999I0J-249999D01*
G01*
X51450000Y-185750001D01*
G75*
G02*
X51200001Y-186000000I-249999J0D01*
G01*
X50299999Y-186000000D01*
G75*
G02*
X50050000Y-185750001I0J249999D01*
G01*
X50050000Y-185099999D01*
G75*
G02*
X50299999Y-184850000I249999J0D01*
G01*
G37*
G36*
G01*
X50299999Y-182800000D02*
X51200001Y-182800000D01*
G75*
G02*
X51450000Y-183049999I0J-249999D01*
G01*
X51450000Y-183700001D01*
G75*
G02*
X51200001Y-183950000I-249999J0D01*
G01*
X50299999Y-183950000D01*
G75*
G02*
X50050000Y-183700001I0J249999D01*
G01*
X50050000Y-183049999D01*
G75*
G02*
X50299999Y-182800000I249999J0D01*
G01*
G37*
%TD*%
%TO.C,C2*%
G36*
G01*
X73250000Y-195225001D02*
X73250000Y-194324999D01*
G75*
G02*
X73499999Y-194075000I249999J0D01*
G01*
X74150001Y-194075000D01*
G75*
G02*
X74400000Y-194324999I0J-249999D01*
G01*
X74400000Y-195225001D01*
G75*
G02*
X74150001Y-195475000I-249999J0D01*
G01*
X73499999Y-195475000D01*
G75*
G02*
X73250000Y-195225001I0J249999D01*
G01*
G37*
G36*
G01*
X71200000Y-195225001D02*
X71200000Y-194324999D01*
G75*
G02*
X71449999Y-194075000I249999J0D01*
G01*
X72100001Y-194075000D01*
G75*
G02*
X72350000Y-194324999I0J-249999D01*
G01*
X72350000Y-195225001D01*
G75*
G02*
X72100001Y-195475000I-249999J0D01*
G01*
X71449999Y-195475000D01*
G75*
G02*
X71200000Y-195225001I0J249999D01*
G01*
G37*
%TD*%
M02*
