%TF.GenerationSoftware,KiCad,Pcbnew,(5.1.6)-1*%
%TF.CreationDate,2020-07-26T12:10:16+02:00*%
%TF.ProjectId,Proyecto CFS,50726f79-6563-4746-9f20-4346532e6b69,rev?*%
%TF.SameCoordinates,Original*%
%TF.FileFunction,Paste,Bot*%
%TF.FilePolarity,Positive*%
%FSLAX46Y46*%
G04 Gerber Fmt 4.6, Leading zero omitted, Abs format (unit mm)*
G04 Created by KiCad (PCBNEW (5.1.6)-1) date 2020-07-26 12:10:16*
%MOMM*%
%LPD*%
G01*
G04 APERTURE LIST*
%ADD10R,0.600000X2.450000*%
%ADD11R,0.300000X2.450000*%
%ADD12R,1.200000X0.900000*%
%ADD13R,2.100000X1.800000*%
%ADD14R,1.800000X1.100000*%
%ADD15R,0.700000X1.000000*%
%ADD16R,0.700000X0.600000*%
%ADD17R,1.500000X0.550000*%
%ADD18R,0.550000X1.500000*%
G04 APERTURE END LIST*
D10*
%TO.C,USB1*%
X286675000Y-75800000D03*
X280225000Y-75800000D03*
X285900000Y-75800000D03*
X281000000Y-75800000D03*
D11*
X281700000Y-75800000D03*
X285200000Y-75800000D03*
X282200000Y-75800000D03*
X284700000Y-75800000D03*
X282700000Y-75800000D03*
X284200000Y-75800000D03*
X283700000Y-75800000D03*
X283200000Y-75800000D03*
%TD*%
D12*
%TO.C,D101*%
X359568750Y-169987500D03*
X359568750Y-166687500D03*
%TD*%
%TO.C,D99*%
X359575000Y-101650000D03*
X359575000Y-98350000D03*
%TD*%
%TO.C,D97*%
X340500000Y-177830000D03*
X340500000Y-174530000D03*
%TD*%
%TO.C,D95*%
X340518750Y-139751250D03*
X340518750Y-136451250D03*
%TD*%
%TO.C,D85*%
X302418750Y-158820000D03*
X302418750Y-155520000D03*
%TD*%
%TO.C,D84*%
X302418750Y-139780000D03*
X302418750Y-136480000D03*
%TD*%
%TO.C,D82*%
X302418750Y-101672500D03*
X302418750Y-98372500D03*
%TD*%
%TO.C,D80*%
X278606250Y-139762500D03*
X278606250Y-136462500D03*
%TD*%
%TO.C,D78*%
X278606250Y-101672500D03*
X278606250Y-98372500D03*
%TD*%
%TO.C,D72*%
X242887500Y-139751250D03*
X242887500Y-136451250D03*
%TD*%
%TO.C,D64*%
X228600000Y-158812500D03*
X228600000Y-155512500D03*
%TD*%
%TO.C,D63*%
X211931250Y-139751250D03*
X211931250Y-136451250D03*
%TD*%
%TO.C,D61*%
X197643750Y-101672500D03*
X197643750Y-98372500D03*
%TD*%
%TO.C,D58*%
X192881250Y-139751250D03*
X192881250Y-136451250D03*
%TD*%
%TO.C,D56*%
X178593750Y-101672500D03*
X178593750Y-98372500D03*
%TD*%
%TO.C,D54*%
X183356250Y-177862500D03*
X183356250Y-174562500D03*
%TD*%
%TO.C,D53*%
X183356250Y-158821250D03*
X183356250Y-155521250D03*
%TD*%
%TO.C,D52*%
X173831250Y-139751250D03*
X173831250Y-136451250D03*
%TD*%
%TO.C,D50*%
X159543750Y-101672500D03*
X159543750Y-98372500D03*
%TD*%
%TO.C,D48*%
X164306250Y-158830000D03*
X164306250Y-155530000D03*
%TD*%
%TO.C,D45*%
X140420000Y-101670000D03*
X140420000Y-98370000D03*
%TD*%
%TO.C,D43*%
X145256250Y-158830000D03*
X145256250Y-155530000D03*
%TD*%
%TO.C,D42*%
X135731250Y-139751250D03*
X135731250Y-136451250D03*
%TD*%
%TO.C,D40*%
X121443750Y-101672500D03*
X121443750Y-98372500D03*
%TD*%
%TO.C,D38*%
X126206250Y-158821250D03*
X126206250Y-155521250D03*
%TD*%
%TO.C,D37*%
X116681250Y-139751250D03*
X116681250Y-136451250D03*
%TD*%
%TO.C,D35*%
X102393750Y-101672500D03*
X102393750Y-98372500D03*
%TD*%
%TO.C,D31*%
X97631250Y-139751250D03*
X97631250Y-136451250D03*
%TD*%
%TO.C,D29*%
X83343750Y-101672500D03*
X83343750Y-98372500D03*
%TD*%
%TO.C,D27*%
X88106250Y-158821250D03*
X88106250Y-155521250D03*
%TD*%
%TO.C,D26*%
X78525000Y-139750000D03*
X78525000Y-136450000D03*
%TD*%
%TO.C,D24*%
X64293750Y-101672500D03*
X64293750Y-98372500D03*
%TD*%
%TO.C,D22*%
X69056250Y-158850000D03*
X69056250Y-155550000D03*
%TD*%
%TO.C,D21*%
X59531250Y-139751250D03*
X59531250Y-136451250D03*
%TD*%
%TO.C,D19*%
X45243750Y-101672500D03*
X45243750Y-98372500D03*
%TD*%
%TO.C,D17*%
X21431250Y-177862500D03*
X21431250Y-174562500D03*
%TD*%
%TO.C,D16*%
X50006250Y-158850000D03*
X50006250Y-155550000D03*
%TD*%
%TO.C,D15*%
X40411250Y-139751250D03*
X40411250Y-136451250D03*
%TD*%
%TO.C,D13*%
X26193750Y-101672500D03*
X26193750Y-98372500D03*
%TD*%
%TO.C,D11*%
X30956250Y-158850000D03*
X30956250Y-155550000D03*
%TD*%
%TO.C,D10*%
X21431250Y-139751250D03*
X21431250Y-136451250D03*
%TD*%
%TO.C,D8*%
X7143750Y-101672500D03*
X7143750Y-98372500D03*
%TD*%
%TO.C,D6*%
X-7143750Y-177862500D03*
X-7143750Y-174562500D03*
%TD*%
%TO.C,D5*%
X0Y-158850000D03*
X0Y-155550000D03*
%TD*%
%TO.C,D4*%
X-4762500Y-139762500D03*
X-4762500Y-136462500D03*
%TD*%
%TO.C,D2*%
X-11906250Y-101662500D03*
X-11906250Y-98362500D03*
%TD*%
D13*
%TO.C,Y1*%
X54500000Y-185525000D03*
X57400000Y-185525000D03*
X57400000Y-183225000D03*
X54500000Y-183225000D03*
%TD*%
%TO.C,F1*%
G36*
G01*
X284062500Y-82225001D02*
X284062500Y-81324999D01*
G75*
G02*
X284312499Y-81075000I249999J0D01*
G01*
X284962501Y-81075000D01*
G75*
G02*
X285212500Y-81324999I0J-249999D01*
G01*
X285212500Y-82225001D01*
G75*
G02*
X284962501Y-82475000I-249999J0D01*
G01*
X284312499Y-82475000D01*
G75*
G02*
X284062500Y-82225001I0J249999D01*
G01*
G37*
G36*
G01*
X282012500Y-82225001D02*
X282012500Y-81324999D01*
G75*
G02*
X282262499Y-81075000I249999J0D01*
G01*
X282912501Y-81075000D01*
G75*
G02*
X283162500Y-81324999I0J-249999D01*
G01*
X283162500Y-82225001D01*
G75*
G02*
X282912501Y-82475000I-249999J0D01*
G01*
X282262499Y-82475000D01*
G75*
G02*
X282012500Y-82225001I0J249999D01*
G01*
G37*
%TD*%
D14*
%TO.C,SW1*%
X24750000Y-184350000D03*
X30950000Y-184350000D03*
X24750000Y-180650000D03*
X30950000Y-180650000D03*
%TD*%
D12*
%TO.C,D102*%
X278606250Y-182625000D03*
X278606250Y-179325000D03*
%TD*%
D15*
%TO.C,U2*%
X289250000Y-85925000D03*
D16*
X287250000Y-85725000D03*
X289250000Y-87625000D03*
X287250000Y-87625000D03*
%TD*%
D17*
%TO.C,U1*%
X79975000Y-188925000D03*
X79975000Y-188125000D03*
X79975000Y-187325000D03*
X79975000Y-186525000D03*
X79975000Y-185725000D03*
X79975000Y-184925000D03*
X79975000Y-184125000D03*
X79975000Y-183325000D03*
X79975000Y-182525000D03*
X79975000Y-181725000D03*
X79975000Y-180925000D03*
X79975000Y-180125000D03*
X79975000Y-179325000D03*
X79975000Y-178525000D03*
X79975000Y-177725000D03*
X79975000Y-176925000D03*
D18*
X78275000Y-175225000D03*
X77475000Y-175225000D03*
X76675000Y-175225000D03*
X75875000Y-175225000D03*
X75075000Y-175225000D03*
X74275000Y-175225000D03*
X73475000Y-175225000D03*
X72675000Y-175225000D03*
X71875000Y-175225000D03*
X71075000Y-175225000D03*
X70275000Y-175225000D03*
X69475000Y-175225000D03*
X68675000Y-175225000D03*
X67875000Y-175225000D03*
X67075000Y-175225000D03*
X66275000Y-175225000D03*
D17*
X64575000Y-176925000D03*
X64575000Y-177725000D03*
X64575000Y-178525000D03*
X64575000Y-179325000D03*
X64575000Y-180125000D03*
X64575000Y-180925000D03*
X64575000Y-181725000D03*
X64575000Y-182525000D03*
X64575000Y-183325000D03*
X64575000Y-184125000D03*
X64575000Y-184925000D03*
X64575000Y-185725000D03*
X64575000Y-186525000D03*
X64575000Y-187325000D03*
X64575000Y-188125000D03*
X64575000Y-188925000D03*
D18*
X66275000Y-190625000D03*
X67075000Y-190625000D03*
X67875000Y-190625000D03*
X68675000Y-190625000D03*
X69475000Y-190625000D03*
X70275000Y-190625000D03*
X71075000Y-190625000D03*
X71875000Y-190625000D03*
X72675000Y-190625000D03*
X73475000Y-190625000D03*
X74275000Y-190625000D03*
X75075000Y-190625000D03*
X75875000Y-190625000D03*
X76675000Y-190625000D03*
X77475000Y-190625000D03*
X78275000Y-190625000D03*
%TD*%
%TO.C,RC7*%
G36*
G01*
X277224999Y-90874999D02*
X277224999Y-91775001D01*
G75*
G02*
X276975000Y-92025000I-249999J0D01*
G01*
X276324998Y-92025000D01*
G75*
G02*
X276074999Y-91775001I0J249999D01*
G01*
X276074999Y-90874999D01*
G75*
G02*
X276324998Y-90625000I249999J0D01*
G01*
X276975000Y-90625000D01*
G75*
G02*
X277224999Y-90874999I0J-249999D01*
G01*
G37*
G36*
G01*
X279274999Y-90874999D02*
X279274999Y-91775001D01*
G75*
G02*
X279025000Y-92025000I-249999J0D01*
G01*
X278374998Y-92025000D01*
G75*
G02*
X278124999Y-91775001I0J249999D01*
G01*
X278124999Y-90874999D01*
G75*
G02*
X278374998Y-90625000I249999J0D01*
G01*
X279025000Y-90625000D01*
G75*
G02*
X279274999Y-90874999I0J-249999D01*
G01*
G37*
%TD*%
%TO.C,RC6*%
G36*
G01*
X273150000Y-90824999D02*
X273150000Y-91725001D01*
G75*
G02*
X272900001Y-91975000I-249999J0D01*
G01*
X272249999Y-91975000D01*
G75*
G02*
X272000000Y-91725001I0J249999D01*
G01*
X272000000Y-90824999D01*
G75*
G02*
X272249999Y-90575000I249999J0D01*
G01*
X272900001Y-90575000D01*
G75*
G02*
X273150000Y-90824999I0J-249999D01*
G01*
G37*
G36*
G01*
X275200000Y-90824999D02*
X275200000Y-91725001D01*
G75*
G02*
X274950001Y-91975000I-249999J0D01*
G01*
X274299999Y-91975000D01*
G75*
G02*
X274050000Y-91725001I0J249999D01*
G01*
X274050000Y-90824999D01*
G75*
G02*
X274299999Y-90575000I249999J0D01*
G01*
X274950001Y-90575000D01*
G75*
G02*
X275200000Y-90824999I0J-249999D01*
G01*
G37*
%TD*%
%TO.C,RC4*%
G36*
G01*
X75700000Y-171100001D02*
X75700000Y-170199999D01*
G75*
G02*
X75949999Y-169950000I249999J0D01*
G01*
X76600001Y-169950000D01*
G75*
G02*
X76850000Y-170199999I0J-249999D01*
G01*
X76850000Y-171100001D01*
G75*
G02*
X76600001Y-171350000I-249999J0D01*
G01*
X75949999Y-171350000D01*
G75*
G02*
X75700000Y-171100001I0J249999D01*
G01*
G37*
G36*
G01*
X73650000Y-171100001D02*
X73650000Y-170199999D01*
G75*
G02*
X73899999Y-169950000I249999J0D01*
G01*
X74550001Y-169950000D01*
G75*
G02*
X74800000Y-170199999I0J-249999D01*
G01*
X74800000Y-171100001D01*
G75*
G02*
X74550001Y-171350000I-249999J0D01*
G01*
X73899999Y-171350000D01*
G75*
G02*
X73650000Y-171100001I0J249999D01*
G01*
G37*
%TD*%
%TO.C,RC3*%
G36*
G01*
X56724999Y-189925001D02*
X57625001Y-189925001D01*
G75*
G02*
X57875000Y-190175000I0J-249999D01*
G01*
X57875000Y-190825002D01*
G75*
G02*
X57625001Y-191075001I-249999J0D01*
G01*
X56724999Y-191075001D01*
G75*
G02*
X56475000Y-190825002I0J249999D01*
G01*
X56475000Y-190175000D01*
G75*
G02*
X56724999Y-189925001I249999J0D01*
G01*
G37*
G36*
G01*
X56724999Y-187875001D02*
X57625001Y-187875001D01*
G75*
G02*
X57875000Y-188125000I0J-249999D01*
G01*
X57875000Y-188775002D01*
G75*
G02*
X57625001Y-189025001I-249999J0D01*
G01*
X56724999Y-189025001D01*
G75*
G02*
X56475000Y-188775002I0J249999D01*
G01*
X56475000Y-188125000D01*
G75*
G02*
X56724999Y-187875001I249999J0D01*
G01*
G37*
%TD*%
%TO.C,RC2*%
G36*
G01*
X284574999Y-87225000D02*
X285475001Y-87225000D01*
G75*
G02*
X285725000Y-87474999I0J-249999D01*
G01*
X285725000Y-88125001D01*
G75*
G02*
X285475001Y-88375000I-249999J0D01*
G01*
X284574999Y-88375000D01*
G75*
G02*
X284325000Y-88125001I0J249999D01*
G01*
X284325000Y-87474999D01*
G75*
G02*
X284574999Y-87225000I249999J0D01*
G01*
G37*
G36*
G01*
X284574999Y-85175000D02*
X285475001Y-85175000D01*
G75*
G02*
X285725000Y-85424999I0J-249999D01*
G01*
X285725000Y-86075001D01*
G75*
G02*
X285475001Y-86325000I-249999J0D01*
G01*
X284574999Y-86325000D01*
G75*
G02*
X284325000Y-86075001I0J249999D01*
G01*
X284325000Y-85424999D01*
G75*
G02*
X284574999Y-85175000I249999J0D01*
G01*
G37*
%TD*%
%TO.C,RC1*%
G36*
G01*
X283400001Y-86325001D02*
X282499999Y-86325001D01*
G75*
G02*
X282250000Y-86075002I0J249999D01*
G01*
X282250000Y-85425000D01*
G75*
G02*
X282499999Y-85175001I249999J0D01*
G01*
X283400001Y-85175001D01*
G75*
G02*
X283650000Y-85425000I0J-249999D01*
G01*
X283650000Y-86075002D01*
G75*
G02*
X283400001Y-86325001I-249999J0D01*
G01*
G37*
G36*
G01*
X283400001Y-88375001D02*
X282499999Y-88375001D01*
G75*
G02*
X282250000Y-88125002I0J249999D01*
G01*
X282250000Y-87475000D01*
G75*
G02*
X282499999Y-87225001I249999J0D01*
G01*
X283400001Y-87225001D01*
G75*
G02*
X283650000Y-87475000I0J-249999D01*
G01*
X283650000Y-88125002D01*
G75*
G02*
X283400001Y-88375001I-249999J0D01*
G01*
G37*
%TD*%
D12*
%TO.C,D100*%
X345281250Y-132618750D03*
X345281250Y-129318750D03*
%TD*%
%TO.C,D98*%
X359560000Y-86470000D03*
X359560000Y-89770000D03*
%TD*%
%TO.C,D96*%
X340518750Y-158812500D03*
X340518750Y-155512500D03*
%TD*%
%TO.C,D94*%
X340475000Y-120675000D03*
X340475000Y-117375000D03*
%TD*%
%TO.C,D93*%
X340518750Y-101680000D03*
X340518750Y-98380000D03*
%TD*%
%TO.C,D92*%
X340518750Y-86456250D03*
X340518750Y-89756250D03*
%TD*%
%TO.C,D91*%
X321468750Y-158812500D03*
X321468750Y-155512500D03*
%TD*%
%TO.C,D90*%
X321468750Y-139762500D03*
X321468750Y-136462500D03*
%TD*%
%TO.C,D89*%
X321468750Y-120712500D03*
X321468750Y-117412500D03*
%TD*%
%TO.C,D88*%
X321468750Y-101662500D03*
X321468750Y-98362500D03*
%TD*%
%TO.C,D87*%
X321468750Y-86456250D03*
X321468750Y-89756250D03*
%TD*%
%TO.C,D86*%
X311943750Y-177862500D03*
X311943750Y-174562500D03*
%TD*%
%TO.C,D83*%
X302418750Y-120720000D03*
X302418750Y-117420000D03*
%TD*%
%TO.C,D81*%
X302410000Y-86470000D03*
X302410000Y-89770000D03*
%TD*%
%TO.C,D79*%
X278606250Y-120710000D03*
X278606250Y-117410000D03*
%TD*%
%TO.C,D77*%
X264318750Y-86456250D03*
X264318750Y-89756250D03*
%TD*%
%TO.C,D76*%
X257175000Y-101662500D03*
X257175000Y-98362500D03*
%TD*%
%TO.C,D75*%
X254810000Y-86450000D03*
X254810000Y-89750000D03*
%TD*%
%TO.C,D74*%
X259556250Y-182625000D03*
X259556250Y-179325000D03*
%TD*%
%TO.C,D73*%
X259556250Y-162843750D03*
X259556250Y-159543750D03*
%TD*%
%TO.C,D71*%
X250031250Y-123093750D03*
X250031250Y-119793750D03*
%TD*%
%TO.C,D70*%
X238125000Y-101662500D03*
X238125000Y-98362500D03*
%TD*%
%TO.C,D69*%
X240506250Y-182625000D03*
X240506250Y-179325000D03*
%TD*%
%TO.C,D68*%
X226218750Y-123093750D03*
X226218750Y-119793750D03*
%TD*%
%TO.C,D67*%
X216693750Y-101662500D03*
X216693750Y-98362500D03*
%TD*%
%TO.C,D66*%
X230981250Y-86456250D03*
X230981250Y-89756250D03*
%TD*%
%TO.C,D65*%
X211931250Y-177862500D03*
X211931250Y-174562500D03*
%TD*%
%TO.C,D62*%
X207140000Y-120640000D03*
X207140000Y-117340000D03*
%TD*%
%TO.C,D60*%
X211931250Y-86456250D03*
X211931250Y-89756250D03*
%TD*%
%TO.C,D59*%
X202406250Y-158812500D03*
X202406250Y-155512500D03*
%TD*%
%TO.C,D57*%
X188118750Y-120740000D03*
X188118750Y-117440000D03*
%TD*%
%TO.C,D55*%
X192881250Y-86456250D03*
X192881250Y-89756250D03*
%TD*%
%TO.C,D51*%
X169068750Y-120800000D03*
X169068750Y-117500000D03*
%TD*%
%TO.C,D49*%
X173831250Y-86456250D03*
X173831250Y-89756250D03*
%TD*%
%TO.C,D47*%
X154781250Y-139762500D03*
X154781250Y-136462500D03*
%TD*%
%TO.C,D46*%
X150018750Y-120770000D03*
X150018750Y-117470000D03*
%TD*%
%TO.C,D44*%
X150030000Y-86450000D03*
X150030000Y-89750000D03*
%TD*%
%TO.C,D41*%
X130968750Y-120712500D03*
X130968750Y-117412500D03*
%TD*%
%TO.C,D39*%
X130968750Y-86456250D03*
X130968750Y-89756250D03*
%TD*%
%TO.C,D36*%
X111890000Y-120680000D03*
X111890000Y-117380000D03*
%TD*%
%TO.C,D34*%
X111918750Y-86456250D03*
X111918750Y-89756250D03*
%TD*%
%TO.C,D33*%
X102393750Y-178593750D03*
X102393750Y-175293750D03*
%TD*%
%TO.C,D32*%
X107120000Y-158840000D03*
X107120000Y-155540000D03*
%TD*%
%TO.C,D30*%
X92868750Y-120690000D03*
X92868750Y-117390000D03*
%TD*%
%TO.C,D28*%
X92850000Y-86460000D03*
X92850000Y-89760000D03*
%TD*%
%TO.C,D25*%
X73818750Y-120712500D03*
X73818750Y-117412500D03*
%TD*%
%TO.C,D23*%
X69000000Y-86456250D03*
X69000000Y-89756250D03*
%TD*%
%TO.C,D20*%
X54768750Y-120750000D03*
X54768750Y-117450000D03*
%TD*%
%TO.C,D18*%
X49970000Y-86460000D03*
X49970000Y-89760000D03*
%TD*%
%TO.C,D14*%
X35790000Y-120680000D03*
X35790000Y-117380000D03*
%TD*%
%TO.C,D12*%
X30890000Y-86480000D03*
X30890000Y-89780000D03*
%TD*%
%TO.C,D9*%
X16668750Y-120660000D03*
X16668750Y-117360000D03*
%TD*%
%TO.C,D7*%
X11906250Y-86456250D03*
X11906250Y-89756250D03*
%TD*%
%TO.C,D3*%
X-9525000Y-120712500D03*
X-9525000Y-117412500D03*
%TD*%
%TO.C,D1*%
X-11906250Y-86456250D03*
X-11906250Y-89756250D03*
%TD*%
%TO.C,C8*%
G36*
G01*
X-825000Y-184899999D02*
X-825000Y-185800001D01*
G75*
G02*
X-1074999Y-186050000I-249999J0D01*
G01*
X-1725001Y-186050000D01*
G75*
G02*
X-1975000Y-185800001I0J249999D01*
G01*
X-1975000Y-184899999D01*
G75*
G02*
X-1725001Y-184650000I249999J0D01*
G01*
X-1074999Y-184650000D01*
G75*
G02*
X-825000Y-184899999I0J-249999D01*
G01*
G37*
G36*
G01*
X1225000Y-184899999D02*
X1225000Y-185800001D01*
G75*
G02*
X975001Y-186050000I-249999J0D01*
G01*
X324999Y-186050000D01*
G75*
G02*
X75000Y-185800001I0J249999D01*
G01*
X75000Y-184899999D01*
G75*
G02*
X324999Y-184650000I249999J0D01*
G01*
X975001Y-184650000D01*
G75*
G02*
X1225000Y-184899999I0J-249999D01*
G01*
G37*
%TD*%
%TO.C,C7*%
G36*
G01*
X85049999Y-189025001D02*
X85950001Y-189025001D01*
G75*
G02*
X86200000Y-189275000I0J-249999D01*
G01*
X86200000Y-189925002D01*
G75*
G02*
X85950001Y-190175001I-249999J0D01*
G01*
X85049999Y-190175001D01*
G75*
G02*
X84800000Y-189925002I0J249999D01*
G01*
X84800000Y-189275000D01*
G75*
G02*
X85049999Y-189025001I249999J0D01*
G01*
G37*
G36*
G01*
X85049999Y-186975001D02*
X85950001Y-186975001D01*
G75*
G02*
X86200000Y-187225000I0J-249999D01*
G01*
X86200000Y-187875002D01*
G75*
G02*
X85950001Y-188125001I-249999J0D01*
G01*
X85049999Y-188125001D01*
G75*
G02*
X84800000Y-187875002I0J249999D01*
G01*
X84800000Y-187225000D01*
G75*
G02*
X85049999Y-186975001I249999J0D01*
G01*
G37*
%TD*%
%TO.C,C6*%
G36*
G01*
X72350000Y-192374999D02*
X72350000Y-193275001D01*
G75*
G02*
X72100001Y-193525000I-249999J0D01*
G01*
X71449999Y-193525000D01*
G75*
G02*
X71200000Y-193275001I0J249999D01*
G01*
X71200000Y-192374999D01*
G75*
G02*
X71449999Y-192125000I249999J0D01*
G01*
X72100001Y-192125000D01*
G75*
G02*
X72350000Y-192374999I0J-249999D01*
G01*
G37*
G36*
G01*
X74400000Y-192374999D02*
X74400000Y-193275001D01*
G75*
G02*
X74150001Y-193525000I-249999J0D01*
G01*
X73499999Y-193525000D01*
G75*
G02*
X73250000Y-193275001I0J249999D01*
G01*
X73250000Y-192374999D01*
G75*
G02*
X73499999Y-192125000I249999J0D01*
G01*
X74150001Y-192125000D01*
G75*
G02*
X74400000Y-192374999I0J-249999D01*
G01*
G37*
%TD*%
%TO.C,C5*%
G36*
G01*
X85025001Y-179749999D02*
X84124999Y-179749999D01*
G75*
G02*
X83875000Y-179500000I0J249999D01*
G01*
X83875000Y-178849998D01*
G75*
G02*
X84124999Y-178599999I249999J0D01*
G01*
X85025001Y-178599999D01*
G75*
G02*
X85275000Y-178849998I0J-249999D01*
G01*
X85275000Y-179500000D01*
G75*
G02*
X85025001Y-179749999I-249999J0D01*
G01*
G37*
G36*
G01*
X85025001Y-181799999D02*
X84124999Y-181799999D01*
G75*
G02*
X83875000Y-181550000I0J249999D01*
G01*
X83875000Y-180899998D01*
G75*
G02*
X84124999Y-180649999I249999J0D01*
G01*
X85025001Y-180649999D01*
G75*
G02*
X85275000Y-180899998I0J-249999D01*
G01*
X85275000Y-181550000D01*
G75*
G02*
X85025001Y-181799999I-249999J0D01*
G01*
G37*
%TD*%
%TO.C,C4*%
G36*
G01*
X60349999Y-185425000D02*
X61250001Y-185425000D01*
G75*
G02*
X61500000Y-185674999I0J-249999D01*
G01*
X61500000Y-186325001D01*
G75*
G02*
X61250001Y-186575000I-249999J0D01*
G01*
X60349999Y-186575000D01*
G75*
G02*
X60100000Y-186325001I0J249999D01*
G01*
X60100000Y-185674999D01*
G75*
G02*
X60349999Y-185425000I249999J0D01*
G01*
G37*
G36*
G01*
X60349999Y-183375000D02*
X61250001Y-183375000D01*
G75*
G02*
X61500000Y-183624999I0J-249999D01*
G01*
X61500000Y-184275001D01*
G75*
G02*
X61250001Y-184525000I-249999J0D01*
G01*
X60349999Y-184525000D01*
G75*
G02*
X60100000Y-184275001I0J249999D01*
G01*
X60100000Y-183624999D01*
G75*
G02*
X60349999Y-183375000I249999J0D01*
G01*
G37*
%TD*%
%TO.C,C3*%
G36*
G01*
X50299999Y-184850000D02*
X51200001Y-184850000D01*
G75*
G02*
X51450000Y-185099999I0J-249999D01*
G01*
X51450000Y-185750001D01*
G75*
G02*
X51200001Y-186000000I-249999J0D01*
G01*
X50299999Y-186000000D01*
G75*
G02*
X50050000Y-185750001I0J249999D01*
G01*
X50050000Y-185099999D01*
G75*
G02*
X50299999Y-184850000I249999J0D01*
G01*
G37*
G36*
G01*
X50299999Y-182800000D02*
X51200001Y-182800000D01*
G75*
G02*
X51450000Y-183049999I0J-249999D01*
G01*
X51450000Y-183700001D01*
G75*
G02*
X51200001Y-183950000I-249999J0D01*
G01*
X50299999Y-183950000D01*
G75*
G02*
X50050000Y-183700001I0J249999D01*
G01*
X50050000Y-183049999D01*
G75*
G02*
X50299999Y-182800000I249999J0D01*
G01*
G37*
%TD*%
%TO.C,C2*%
G36*
G01*
X73250000Y-195225001D02*
X73250000Y-194324999D01*
G75*
G02*
X73499999Y-194075000I249999J0D01*
G01*
X74150001Y-194075000D01*
G75*
G02*
X74400000Y-194324999I0J-249999D01*
G01*
X74400000Y-195225001D01*
G75*
G02*
X74150001Y-195475000I-249999J0D01*
G01*
X73499999Y-195475000D01*
G75*
G02*
X73250000Y-195225001I0J249999D01*
G01*
G37*
G36*
G01*
X71200000Y-195225001D02*
X71200000Y-194324999D01*
G75*
G02*
X71449999Y-194075000I249999J0D01*
G01*
X72100001Y-194075000D01*
G75*
G02*
X72350000Y-194324999I0J-249999D01*
G01*
X72350000Y-195225001D01*
G75*
G02*
X72100001Y-195475000I-249999J0D01*
G01*
X71449999Y-195475000D01*
G75*
G02*
X71200000Y-195225001I0J249999D01*
G01*
G37*
%TD*%
M02*
